<svg xmlns="http://www.w3.org/2000/svg" viewBox="0 0 32 32">
    <path d="M16.427 4.181c0 .325.204.863.45 1.188.416.548.626.672 1.763 1.041 1.28.415 2.215.927 3.132 1.717.789.678 1.571 1.719 2.046 2.722l.241.51-.164.239c-.203.295-.361.414-1.059.797-.717.393-.912.52-1.087.706-.278.296-.383.852-.247 1.307.108.36.361.583 1.286 1.132l.878.522.256.486.256.485-.095.27c-.476 1.353-1.437 2.745-2.502 3.624l-.472.39-.335-.225a35.753 35.753 0 0 0-1.421-.844c-.852-.485-1.108-.656-1.186-.793-.369-.65-1.1-2.019-1.1-2.062 0-.028.151-.101.335-.163.491-.163.954-.457 1.394-.885.729-.708 1.067-1.399 1.153-2.359.136-1.528-.185-2.612-1.044-3.524-.681-.722-1.443-1.09-2.457-1.186-1.314-.124-2.243.061-3.128.626-.858.547-1.414 1.265-1.755 2.266-.144.423-.173.598-.194 1.15-.026.713.048 1.15.295 1.747.404.974 1.367 1.871 2.349 2.187l.281.091-.606 1.171-.605 1.171-1.013.576c-1.132.645-1.589.926-1.763 1.086-.115.105-.123.105-.264.013-.294-.193-1.336-1.3-1.678-1.784a11.38 11.38 0 0 1-.658-1.079l-.304-.579.3-.545c.165-.301.341-.596.391-.656.05-.06.439-.316.864-.568 1.112-.66 1.282-.855 1.317-1.509.036-.678-.237-.983-1.571-1.753l-.635-.367-.299-.601-.299-.601.346-.61A9.325 9.325 0 0 1 9.44 8.587c1.02-1.014 2.007-1.597 3.601-2.13.515-.172 1.034-.38 1.153-.462.307-.213.568-.53.748-.909.15-.316.306-.949.248-1.007-.039-.039-1.194.069-1.754.164-3.045.516-5.729 2.488-7.291 5.357-.16.295-.368.574-.596.8-.275.274-.446.521-.808 1.173l-.459.827-.821.46c-1.203.673-1.426.917-1.432 1.56-.006.655.228.941 1.28 1.562.39.23.783.494.874.588.09.093.332.487.537.875.268.507.468.808.71 1.067.214.23.443.56.631.911 1.171 2.187 2.971 3.878 5.095 4.786.417.178 1.36.478 1.915.609.109.026.203.156.459.634l.652 1.215c.408.76.646 1.09.871 1.207.105.056.343.101.605.115.353.019.476.004.676-.085.321-.142.467-.348 1.298-1.835l.677-1.211.912-.298c2.98-.974 4.995-2.696 6.408-5.476.33-.648.366-.697.579-.788.314-.135.535-.414 1.051-1.327l.444-.786.799-.451c.91-.515 1.315-.849 1.409-1.162a1.963 1.963 0 0 0-.026-1.05c-.131-.384-.429-.638-1.34-1.14-.601-.33-.836-.489-.909-.613a37.321 37.321 0 0 1-.467-.859C26.635 9.905 26.29 9.6 25.691 9.6c-.176 0-.203-.023-.363-.307-1.426-2.528-3.935-4.418-6.678-5.03C18.162 4.154 16.976 4 16.627 4c-.192 0-.2.007-.2.181m.645 7.235c.3.153.652.519.829.859.139.269.148.325.15 1.005.002.668-.008.741-.137 1.013-.365.771-1.059 1.069-2.314.996-.688-.04-1.116-.183-1.455-.488-1.111-1-.675-2.895.792-3.444.26-.097.374-.105 1.103-.08.684.023.849.046 1.032.139m9.062 1.783c.15.201.386.42.629.586l.39.265-.281.096c-.424.144-.64.321-.929.765-.218.333-.272.387-.316.315-.486-.794-.54-.857-.898-1.043-.196-.1-.355-.197-.355-.215-.001-.017.123-.099.275-.181a2.2 2.2 0 0 0 .88-.842l.197-.324.084.129c.046.071.192.273.324.449m-19.528.529c.076.114.325.338.553.497.228.16.414.3.414.311 0 .012-.191.132-.425.266-.394.228-.582.408-.818.785-.051.08-.112.146-.137.146-.024 0-.155-.167-.291-.371a2.18 2.18 0 0 0-.634-.643c-.214-.15-.388-.301-.388-.336 0-.034.115-.125.255-.2.298-.161.638-.478.797-.743.237-.394.257-.401.403-.147.073.125.194.32.271.435m10.146 7.043c.222.302.497.507 1.311.977l.707.408-.572.331c-1.284.742-1.342.799-2.022 1.993-.198.347-.376.622-.395.61-.019-.012-.211-.34-.428-.729-.522-.939-.796-1.213-1.771-1.768-.521-.298-.717-.435-.667-.468.04-.025.381-.232.759-.459s.786-.5.907-.606c.216-.191.469-.586.964-1.506l.254-.472.397.737c.219.405.469.834.556.952" fill="#A12577" fill-rule="evenodd"/>
</svg>
