<svg xmlns="http://www.w3.org/2000/svg" viewBox="0 0 32 32">
    <path d="M15.333 5.572c-.676.126-1.261.454-1.801 1.01-.399.41-.64.796-.823 1.32-.113.325-.136.487-.136.951.002 1.025.284 1.712.999 2.431.342.343.527.48.918.675.632.317.946.379 1.748.349.738-.028 1.12-.135 1.694-.473.43-.254.962-.775 1.205-1.183.68-1.139.633-2.581-.12-3.636-.845-1.184-2.208-1.718-3.684-1.444m1.307 1.8c.472.142.959.601 1.112 1.049.238.701-.171 1.612-.881 1.959-.259.127-.363.146-.788.146-.394 0-.536-.023-.73-.117-1.012-.489-1.291-1.641-.613-2.528.181-.238.663-.52.975-.57a2.21 2.21 0 0 1 .925.061m10.48.223c-.658.428-2.246 1.359-3.206 1.88-1.215.659-2.319 1.175-3.296 1.541-1.055.395-1.664.844-1.953 1.44-.216.447-.279.936-.246 1.917a11.61 11.61 0 0 0 .351 2.614c.293 1.21.604 1.945 1.895 4.48.877 1.722.952 1.894 1.011 2.308.028.196.014.247-.099.36-.189.188-.469.181-.605-.015-.116-.168-.402-.706-1.398-2.627-.988-1.903-1.202-2.265-1.53-2.589-.339-.334-.615-.478-1.117-.584a3.224 3.224 0 0 0-1.362-.003 2.321 2.321 0 0 0-1.509 1.035c-.126.195-.703 1.267-1.283 2.381-.58 1.115-1.118 2.123-1.196 2.24-.173.262-.354.336-.568.233-.146-.071-.156-.094-.155-.394.002-.302.046-.409.834-2.025.918-1.883 1.213-2.562 1.531-3.526.44-1.338.648-2.615.648-3.991 0-1.017-.078-1.362-.427-1.884-.506-.757-1.202-1.205-2.96-1.906-1.67-.666-3.831-1.681-5.195-2.44l-.767-.427-.097.127c-.053.07-.163.259-.245.42-.128.252-.149.354-.145.72.002.235.033.516.07.624.086.259.53.662.999.908.413.216 3.215 1.526 4.393 2.054 1.545.692 1.906.903 2.061 1.202.075.144.083.288.057.944-.075 1.837-.451 3.143-1.614 5.606-1.322 2.798-1.302 2.751-1.364 3.183-.091.644-.029 1.197.179 1.612.353.7 1.13 1.265 1.928 1.401.696.12 1.651-.2 2.193-.733.306-.301.298-.288 1.619-2.809 1.379-2.632 1.278-2.469 1.525-2.489.41-.034.374-.082 1.336 1.762 1.818 3.484 1.836 3.514 2.3 3.822 1.077.713 2.493.584 3.339-.302.79-.829.943-1.978.432-3.257-.078-.195-.602-1.267-1.164-2.381-1.085-2.151-1.351-2.812-1.567-3.894-.194-.973-.287-2.468-.167-2.691.055-.104.625-.36 1.277-.574.529-.173 1.482-.625 3.63-1.718 1.367-.695 1.828-.955 1.959-1.104.314-.355.522-1.13.433-1.609-.049-.264-.247-.704-.405-.899l-.093-.116-.267.173" fill="#A12577" fill-rule="evenodd"/>
</svg>
