<svg xmlns="http://www.w3.org/2000/svg" xml:space="preserve" viewBox="-7 .5 32 32"><path fill="#A12577" fill-rule="evenodd" d="M6.748 4.085a1.115 1.115 0 0 0-.622 1.489c.122.269.424.537.686.609.111.031.707.057 1.329.057h1.128l-.14.387-.141.386-.001 1.894V10.8l.146.524c.408 1.459.958 2.327 1.935 3.051.261.194.418.358.519.544.442.812.433 2.057-.022 2.973-.287.579-.565.875-1.306 1.392-.923.643-1.405 1.175-1.855 2.047-.671 1.299-.984 3.252-.691 4.309l.033.12h-1.09c-1.332 0-1.531.044-1.851.407-.238.27-.298.474-.259.88.032.333.252.66.547.815l.214.111 10.638.014 10.639.014.274-.135c.385-.187.571-.469.599-.903.016-.259-.003-.379-.088-.546-.141-.275-.432-.529-.688-.6-.111-.031-.71-.057-1.341-.057h-1.139l.034-.147c.019-.08.049-.411.067-.735.074-1.363-.291-2.897-.94-3.952-.366-.596-.876-1.117-1.6-1.636-1.146-.82-1.602-1.659-1.602-2.942 0-.863.226-1.514.644-1.851.843-.68 1.183-1.063 1.521-1.715.135-.26.316-.68.402-.934.278-.822.313-1.176.312-3.175-.001-1.675-.018-1.97-.128-2.313l-.038-.12h1.141c1.138 0 1.141 0 1.43-.147.437-.221.685-.683.609-1.135-.052-.307-.306-.668-.57-.809l-.23-.122-9.146-.01c-7.902-.009-9.176 0-9.359.068m13.524 2.279c.154.082.29.213.395.382l.16.259.016 1.6c.013 1.317.001 1.676-.071 2.031-.174.859-.554 1.536-1.067 1.897-.146.103-.427.35-.625.549-.284.286-.416.477-.625.907-.404.829-.506 1.315-.503 2.384.003.773.02.943.141 1.396.386 1.438 1.142 2.504 2.37 3.339.269.183.599.458.733.611.5.572.799 1.416.88 2.482.067.879-.041 1.207-.472 1.435l-.234.124h-5.38c-4.39 0-5.412-.013-5.552-.072-.242-.101-.558-.47-.602-.702-.083-.444.117-1.688.372-2.317.29-.713.637-1.12 1.351-1.584.636-.414 1.458-1.247 1.781-1.805.496-.858.733-1.656.778-2.618.08-1.709-.477-3.109-1.576-3.958-.539-.418-.729-.638-.949-1.101-.36-.758-.401-1.06-.383-2.787l.017-1.536.146-.249c.181-.308.518-.602.808-.705.184-.065.834-.078 4.037-.082l3.819-.004.235.124m-4.574 13.423c-.294.061-.6.222-.771.408-.077.083-.598.723-1.158 1.421-1.106 1.377-1.181 1.51-1.073 1.917.092.344.483.696.94.847.343.114.469.122 2.197.141 2.018.023 2.522-.016 2.934-.225.481-.243.759-.743.644-1.158-.046-.17-1.85-2.488-2.302-2.961-.302-.315-.929-.488-1.411-.39"/></svg>
