<svg xmlns="http://www.w3.org/2000/svg" viewBox="0 0 24 22">
    <path fill="#A12577" fill-rule="evenodd" d="M11.546.759c-1.36.248-2.405 1.199-2.749 2.503-.119.449-.119 1.193-.001 1.638a3.412 3.412 0 0 0 2.045 2.321 3.432 3.432 0 0 0 2.239.061c.901-.301 1.573-.878 1.977-1.696A3.352 3.352 0 0 0 12.98.86c-.398-.116-1.084-.165-1.434-.101m1.218 1.83a1.673 1.673 0 0 1 .784 2.226c-.124.27-.464.611-.755.757a1.733 1.733 0 0 1-1.46.006c-.266-.13-.611-.459-.734-.7-.486-.951-.035-2.048.981-2.384.1-.033.304-.049.543-.042.338.009.414.025.641.137m8.776.826c-1.66 1.035-2.28 1.396-3.297 1.918-.836.43-1.018.51-1.883.831-.591.219-.94.4-1.234.639-.7.571-.915 1.209-.873 2.597.012.407.051.956.087 1.22.271 2 .581 2.881 2.066 5.868.458.922.86 1.769.893 1.884.033.114.063.312.066.439.006.189-.009.248-.082.326-.102.108-.241.145-.434.113-.133-.021-.141-.035-1.372-2.496-1.186-2.37-1.249-2.486-1.498-2.749a2.135 2.135 0 0 0-1.063-.624c-.304-.071-1.061-.08-1.364-.016a2.36 2.36 0 0 0-1.326.849c-.084.112-.682 1.261-1.329 2.552-.728 1.454-1.209 2.372-1.265 2.411-.124.087-.346.079-.507-.02-.135-.082-.135-.084-.114-.321.018-.198.094-.389.431-1.088 1.035-2.144 1.49-3.203 1.86-4.329.425-1.296.662-2.742.66-4.026-.001-.933-.084-1.345-.364-1.814-.192-.321-.677-.8-1.085-1.072-.37-.246-1.153-.632-1.624-.802-.537-.192-.962-.381-2.159-.959-.655-.315-1.325-.635-1.49-.71a21.007 21.007 0 0 1-1.237-.684l-.937-.548-.096.128c-.256.342-.369.699-.37 1.171 0 .462.078.688.337.966.189.204.704.557.926.635.042.015.788.374 1.657.797.869.424 1.886.91 2.26 1.079 1.121.509 1.603.768 1.818.978.176.171.198.212.224.425.037.294-.001 1.081-.083 1.737-.199 1.593-.624 2.8-2.02 5.74-.72 1.515-.826 1.87-.79 2.635.031.629.216 1.056.676 1.559a2.206 2.206 0 0 0 1.675.722c.703-.002 1.313-.248 1.785-.72.247-.246.286-.318 1.471-2.689.67-1.34 1.248-2.465 1.284-2.501.069-.069.514-.095.605-.035.025.016.586 1.109 1.245 2.429.726 1.45 1.272 2.495 1.382 2.64.336.445.756.69 1.417.825.285.059.465.074.662.055a2.443 2.443 0 0 0 2.167-1.86c.079-.337.079-1 0-1.392-.108-.53-.281-.933-1.239-2.888-.513-1.045-.996-2.065-1.075-2.267a10.995 10.995 0 0 1-.498-1.696c-.188-.979-.285-2.499-.173-2.706.074-.136.352-.279.956-.491.889-.312 1.631-.66 2.732-1.281a47.672 47.672 0 0 1 1.592-.836c1.065-.532 1.238-.657 1.44-1.036.352-.661.328-1.47-.061-2.061-.082-.124-.159-.226-.171-.225a54.6 54.6 0 0 0-1.261.774"/>
</svg>
