<svg xmlns="http://www.w3.org/2000/svg" viewBox="0 0 32 32" xml:space="preserve"><path d="M12.453 4.803c-2.185.211-4.126 1.592-5.087 3.621-.172.363-.191.447-.192.856-.001.379.022.502.14.753.077.165.23.399.339.52.229.253.744.52 1.099.569l.245.034.034-.364c.051-.544.17-.951.433-1.485.521-1.055 1.405-1.785 2.566-2.116.545-.156 1.569-.167 2.1-.023 1.241.337 2.108 1.08 2.718 2.329.409.838 1.225 1.433 2.205 1.607.453.08.451.082.405-.498-.227-2.805-2.422-5.227-5.186-5.723a6.856 6.856 0 0 0-1.819-.08m-5.496 6.59c.014.084.038.324.053.532.06.781.407 1.83.844 2.549.626 1.028 1.683 2 2.653 2.438.147.066.266.136.266.154 0 .019-.138.077-.306.13-.487.151-1.571.688-2.136 1.058-1.956 1.282-3.325 3.125-3.964 5.334-.254.88-.323 1.377-.352 2.559l-.028 1.106h2.306l.001-.813c0-.447.035-1.041.077-1.32a7.026 7.026 0 0 1 1.937-3.902 7.081 7.081 0 0 1 3.76-2.046c.678-.132 1.929-.16 2.59-.058a7.066 7.066 0 0 1 3.071 1.293c.404.299.475.334.559.274.264-.187 1.558-1.481 1.529-1.529-.072-.116-1.12-.869-1.617-1.161a10.758 10.758 0 0 0-1.9-.87L15.934 17l.313-.167c1.163-.624 2.278-1.768 2.837-2.912.18-.368.196-.438.194-.854-.003-.379-.026-.502-.145-.748-.278-.576-.952-1.066-1.466-1.066-.212 0-.227.01-.229.147-.004.317-.153.97-.312 1.367a4.132 4.132 0 0 1-2.539 2.365c-.388.13-.502.143-1.254.145-.792.002-.846-.005-1.294-.165-.607-.216-.986-.445-1.442-.871-.414-.387-.659-.725-.995-1.375-.478-.923-1.347-1.525-2.309-1.599l-.36-.028.024.154m19.007 3.242a1.95 1.95 0 0 0-.352.171c-.086.055-2.227 2.087-4.759 4.514l-4.603 4.413-.245-.001-.245-.001-1.44-1.359c-.792-.747-1.524-1.399-1.627-1.45-.114-.056-.354-.1-.618-.112-.358-.017-.479 0-.709.099-.308.133-.656.486-.812.824-.153.332-.135.87.041 1.263.126.281.298.463 1.549 1.647 1.599 1.513 1.814 1.693 2.273 1.912.514.244.953.337 1.583.337.996 0 1.688-.277 2.424-.972.234-.22 2.42-2.312 4.859-4.648 3.605-3.454 4.457-4.296 4.558-4.507.174-.363.176-.9.003-1.287-.31-.696-1.189-1.09-1.88-.843m-4.495 9.456-.893.842.032.347c.017.191.031.713.032 1.16v.813h2.309l-.031-1.053c-.016-.58-.067-1.261-.113-1.516-.086-.471-.329-1.316-.402-1.393-.022-.024-.443.336-.934.8" fill="#A12577" fill-rule="evenodd"/></svg>