<svg width="32" height="32" xmlns="http://www.w3.org/2000/svg"><path d="M11.493 4.076c-1.527.261-2.88 1.135-3.686 2.381-.365.564-.462.824-.468 1.25-.005.307.021.426.143.676a1.57 1.57 0 0 0 1.16.865l.19.033.061-.42C9.088 7.524 9.929 6.5 11.19 6.065c1.708-.588 3.476.193 4.351 1.924.344.679 1.028 1.143 1.866 1.262l.26.038-.039-.418c-.212-2.284-1.782-4.122-4.001-4.686-.664-.169-1.526-.213-2.134-.109M6.987 9.783c0 .509.249 1.446.533 2.005a6.102 6.102 0 0 0 1.544 1.877l.413.328-.357.171c-3.178 1.523-4.837 5.344-3.807 8.769.657 2.182 2.399 3.961 4.596 4.692 1.081.359.759.341 6.264.361l5 .018v-.405c0-.367-.014-.424-.156-.602-.098-.125-.2-.363-.276-.65a8.59 8.59 0 0 0-.132-.471c-.007-.009-.204.095-.439.231-.652.379-.936.374-1.313-.022l-.157-.165h-3.424c-3.682 0-3.827-.009-4.642-.286-1.291-.44-2.298-1.342-2.898-2.598-.354-.739-.446-1.173-.448-2.103-.002-1.161.195-1.893.779-2.882.325-.55 1.103-1.375 1.628-1.726a6.861 6.861 0 0 1 1.852-.841c.51-.137.592-.143 1.92-.147 1.269-.003 1.426.006 1.856.116a4.983 4.983 0 0 1 2.958 2.112l.262.402c.007.011.124-.079.261-.2.282-.248.538-.34.766-.275.085.025.327.147.537.272.407.242.477.234.479-.051.001-.174-.48-1.078-.813-1.528-.846-1.142-2.228-2.126-3.56-2.537a8.582 8.582 0 0 1-.419-.136c-.011-.007.129-.151.311-.319.413-.383.748-.849.997-1.388.256-.554.272-.972.053-1.42-.244-.497-.802-.892-1.264-.892-.137 0-.144.013-.177.372-.067.719-.419 1.443-.973 1.996a3.448 3.448 0 0 1-5-.133 5.6 5.6 0 0 1-.572-.826c-.328-.582-.688-.952-1.135-1.163-.307-.145-.665-.242-.901-.244-.142-.002-.146.007-.146.288m14.56 7.51a6.156 6.156 0 0 0-.162.574c-.217.884-.197.84-.402.908-.183.06-.209.05-.822-.317-.348-.208-.653-.375-.677-.371-.024.004-.27.244-.547.532-.464.485-.496.533-.421.62.045.052.232.341.416.643.312.512.328.555.248.644-.048.053-.087.122-.087.155 0 .094-.079.124-.815.31-.381.096-.714.206-.738.245-.074.116-.057 1.238.02 1.334.038.047.378.159.779.258.701.171.714.177.789.356.075.181.074.184-.299.783-.207.33-.376.648-.376.705 0 .094.219.329.81.869l.196.18.631-.385c.612-.373.635-.382.82-.322l.189.063.179.701c.099.386.203.733.232.77.039.051.231.064.747.053l.694-.014.184-.72c.101-.396.206-.747.232-.781.027-.033.12-.074.207-.092.132-.026.264.032.775.341.339.204.633.372.654.372.052 0 1.024-.978 1.024-1.03 0-.022-.179-.329-.398-.681l-.399-.64.086-.181c.084-.174.107-.185.785-.352.385-.094.73-.196.767-.225.051-.04.064-.233.053-.749l-.014-.696-.614-.15a65.442 65.442 0 0 0-.729-.177c-.074-.017-.138-.093-.176-.21-.071-.213-.077-.198.38-.925.172-.273.312-.526.312-.562 0-.035-.225-.289-.501-.563l-.5-.498-.643.384c-.634.379-.645.383-.833.315-.159-.057-.201-.106-.247-.285-.228-.885-.335-1.234-.388-1.268-.034-.021-.356-.039-.716-.04-.628-.001-.656.004-.705.119m1.17 3.014c.18.344.38.674.446.733.065.059.388.262.718.451.812.467.811.492-.04.904-.351.17-.673.338-.715.373-.042.035-.241.34-.441.677-.29.486-.387.609-.47.597-.073-.01-.233-.231-.507-.698l-.401-.682-.654-.375c-.883-.506-.879-.536.135-1.01l.602-.281.354-.591c.431-.722.433-.725.551-.725.068 0 .19.181.422.627" fill="#A12577" fill-rule="evenodd"/></svg>
