<svg width="32" height="32" xmlns="http://www.w3.org/2000/svg"><path d="M14.4 4.077c-.576.095-1.402.389-1.859.663-.959.573-1.741 1.462-2.126 2.416-.109.269-.13.393-.109.656.06.736.637 1.359 1.321 1.424l.186.017.032-.32c.21-2.141 2.429-3.578 4.461-2.888.948.321 1.605.923 2.11 1.932.242.484.706.926 1.142 1.09.36.135.874.229.933.17.052-.052-.04-.855-.145-1.258a5.286 5.286 0 0 0-3.893-3.824c-.568-.138-1.476-.172-2.053-.078m-4.294 5.311c-.051.082.066.934.188 1.376.298 1.073 1.033 2.142 1.917 2.785.177.129.322.249.322.266 0 .018-.09.074-.2.126-1.386.652-2.7 1.94-3.44 3.372-1.371 2.656-1.108 5.716.681 7.952a7.094 7.094 0 0 0 3.93 2.467c.77.183 1.599.212 6.139.213l4.364.002-.021-4.36c-.02-4.255-.024-4.373-.138-4.88-.552-2.454-2.219-4.379-4.488-5.182l-.471-.167c-.046-.016.056-.153.284-.385a5.14 5.14 0 0 0 .973-1.381c.365-.783.054-1.707-.696-2.067a1.708 1.708 0 0 0-.463-.149l-.186-.016-.04.361c-.089.791-.398 1.416-.997 2.017-1.649 1.655-4.377 1.201-5.467-.91-.277-.536-.515-.833-.858-1.069-.363-.249-1.255-.498-1.333-.371m7.422 5.816c2.034.226 3.659 1.627 4.24 3.651.12.419.122.475.139 3.718l.018 3.294-3.536-.001c-2.818 0-3.638-.016-4.042-.077-1.104-.169-1.934-.585-2.765-1.385-1.396-1.345-1.86-3.418-1.202-5.359.692-2.04 2.621-3.593 4.767-3.839.584-.067 1.794-.068 2.381-.002m-2.215.863c-.025.066-.113.404-.198.751-.147.609-.159.633-.328.704-.173.072-.187.067-.795-.3-.341-.206-.663-.367-.716-.358-.053.009-.315.229-.58.49l-.484.474.396.644.396.645-.098.191c-.096.189-.107.194-.774.345-.372.084-.71.186-.751.227-.089.088-.107 1.187-.022 1.344.037.071.251.147.77.274.717.176.718.177.791.366.072.189.071.192-.327.845l-.399.656.502.504c.276.277.532.504.568.504.036 0 .334-.165.663-.368.536-.331.611-.362.735-.31.226.095.251.145.405.785.082.337.17.655.196.707.041.081.134.093.74.093.802 0 .72.062.905-.693.214-.873.195-.831.392-.891.171-.053.214-.035.776.311.327.201.627.366.666.366.064 0 .998-.91 1.033-1.006.008-.023-.145-.322-.339-.667-.502-.889-.473-.955.536-1.203.381-.094.711-.199.733-.234.022-.035.04-.356.041-.714.001-.568-.011-.658-.093-.7a7.24 7.24 0 0 0-.706-.196c-.747-.18-.783-.198-.827-.4-.03-.137.021-.253.342-.781.208-.34.378-.647.378-.68 0-.063-.909-.992-.971-.992-.019 0-.327.178-.684.397-.591.361-.661.391-.79.336-.217-.092-.221-.098-.362-.66a115.63 115.63 0 0 0-.185-.726l-.052-.2h-.719c-.698 0-.721.003-.764.12m1.19 2.966.344.686.611.355c.335.195.639.389.674.431.127.154-.001.27-.678.615l-.681.347-.381.64c-.21.352-.418.647-.462.656-.117.024-.174-.056-.536-.762l-.327-.638-.613-.356c-.336-.195-.634-.391-.661-.434-.095-.15.019-.251.618-.551.331-.165.645-.338.697-.384.052-.046.252-.355.445-.687.479-.826.496-.824.95.082" fill="#A12577" fill-rule="evenodd"/></svg>
