<svg xmlns="http://www.w3.org/2000/svg" viewBox="0 0 23 35">
    <path fill="#A12577" fill-rule="evenodd" d="M9.649.043a7.548 7.548 0 0 0-6.047 4.186c-.256.525-.324.816-.296 1.266A2.24 2.24 0 0 0 5.353 7.59h.123l.023-.259c.065-.715.237-1.365.499-1.886A4.922 4.922 0 0 1 9.44 2.793c.501-.106 1.34-.115 1.838-.019a4.982 4.982 0 0 1 2.839 1.631c.315.36.537.704.816 1.261.277.553.498.848.873 1.163.465.391 1.221.693 1.867.747l.305.025v-.317c0-.627-.191-1.606-.449-2.301a7.702 7.702 0 0 0-3.167-3.859C13 .28 11.281-.114 9.649.043M3.006 7.882c.011.103.029.343.041.532.043.712.327 1.759.68 2.513.557 1.19 1.404 2.194 2.526 2.996l.311.222-.148.062c-.246.102-.968.51-1.375.777-.828.543-1.835 1.451-2.512 2.266-.676.814-1.449 2.156-1.818 3.156-.797 2.158-.919 4.472-.346 6.562a10.66 10.66 0 0 0 1.811 3.618c.327.423 1.313 1.409 1.734 1.735 1.425 1.101 2.982 1.767 4.849 2.075.494.081.558.082 7.371.094l6.873.013-.013-6.125c-.014-6.638-.002-6.228-.222-7.297-.1-.487-.432-1.509-.634-1.953a10.314 10.314 0 0 0-2.008-2.966c-1.121-1.161-2.592-2.079-4.09-2.552l-.422-.135c-.025-.008.141-.203.369-.433 1.03-1.038 1.727-2.287 1.727-3.095 0-.93-.645-1.829-1.525-2.124a2.578 2.578 0 0 0-.469-.105l-.229-.024v.25c0 .682-.259 1.55-.672 2.253-.711 1.211-1.992 2.096-3.392 2.342-.37.065-1.279.065-1.648-.001a5.237 5.237 0 0 1-2.154-.951c-.645-.486-1.154-1.126-1.561-1.965a4.969 4.969 0 0 0-.394-.666c-.502-.67-1.429-1.15-2.381-1.235l-.299-.027.02.188m10.821 8.277c.998.131 1.88.441 2.748.967 1.668 1.009 2.9 2.748 3.278 4.628.148.737.157 1.059.157 5.467v4.289h-5.037c-3.098 0-5.189-.015-5.434-.039a7.16 7.16 0 0 1-3.729-1.469c-.668-.508-1.398-1.336-1.837-2.086a9.247 9.247 0 0 1-.671-1.525c-.601-2.023-.29-4.35.832-6.229 1.263-2.117 3.458-3.605 5.848-3.964.575-.086.549-.085 2.024-.092 1.043-.005 1.476.008 1.821.053m-3.245 1.089c-.033.021-.165.465-.326 1.097l-.27 1.062-.254.091-.254.09-.877-.536c-.615-.376-.911-.537-.992-.537-.099 0-.207.092-.729.617-.337.34-.669.642-.738.672-.102.044-.119.067-.088.121.02.036.286.471.59.967l.552.9-.09.181a.872.872 0 0 0-.091.254c0 .064-.132.106-1.045.332-.776.192-1.061.278-1.111.335-.06.068-.067.175-.067 1.007 0 .831.007.939.067 1.007.05.057.335.143 1.111.335.913.225 1.045.267 1.045.331 0 .041.041.155.09.254l.091.181-.551.899c-.331.541-.55.938-.55.997 0 .136 1.375 1.517 1.482 1.488.039-.01.466-.262.95-.558l.88-.539.159.093a.67.67 0 0 0 .24.093c.061 0 .09.034.119.143.021.079.141.558.267 1.063.159.637.251.934.297.968.097.07 1.925.07 2.022 0 .046-.034.138-.331.297-.968l.266-1.06c.033-.126.059-.148.238-.206.11-.036.218-.079.24-.096.023-.018.418.201.939.521.855.525 1.111.641 1.111.506 0-.026.294-.341.654-.699.36-.358.672-.683.693-.722.03-.054.022-.09-.035-.154-.041-.045-.285-.464-.542-.931l-.469-.85.099-.194a1 1 0 0 0 .098-.248c0-.039.291-.127 1.034-.312.568-.142 1.064-.281 1.102-.308.062-.046.069-.138.078-.983.008-.693-.002-.957-.038-1.026-.043-.084-.16-.122-1.117-.364l-1.069-.271-.09-.249-.089-.25.184-.306.555-.916c.203-.334.37-.636.37-.671 0-.034-.319-.381-.709-.771-.621-.62-.718-.703-.777-.662-.036.025-.462.29-.946.588l-.88.543-.204-.1a1.117 1.117 0 0 0-.256-.1c-.036 0-.131-.318-.311-1.045-.143-.574-.277-1.066-.297-1.092-.045-.058-1.968-.069-2.058-.012m1.153 3.476c.029.034.268.486.532 1.005l.479.944.901.527c.495.29.922.557.948.593a.269.269 0 0 1-.038.346c-.047.044-.483.278-.968.52s-.915.478-.957.524c-.041.046-.3.466-.575.933-.53.9-.606.987-.796.914-.087-.034-.185-.201-.584-.999-.338-.676-.509-.978-.581-1.025a59.492 59.492 0 0 0-.93-.553c-.878-.515-.961-.589-.897-.793.028-.089.174-.176.976-.583.519-.264.969-.502 1-.529.032-.026.286-.437.565-.911.278-.475.532-.888.563-.919.075-.075.296-.072.362.006"/>
</svg>
