<svg xmlns="http://www.w3.org/2000/svg" viewBox="0 0 19 21">
    <path fill="#A12577" fill-rule="evenodd" d="M6.175.317c-1.336.186-2.437.87-3.16 1.963-.446.673-.521 1.166-.258 1.683.16.313.578.6.94.647l.166.021v-.163c0-.374.169-.909.417-1.323.141-.235.497-.615.736-.784.259-.184.598-.35.88-.432.325-.094.967-.118 1.3-.05a2.904 2.904 0 0 1 1.436.764c.257.255.415.481.628.894.309.6.881 1 1.535 1.073l.203.023-.018-.298a4.3 4.3 0 0 0-1.188-2.692A4.288 4.288 0 0 0 7.5.379C7.138.305 6.481.275 6.175.317M2.326 5.098c.098 1.252.807 2.509 1.844 3.269l.197.144-.33.16c-1.516.737-2.673 2.187-3.115 3.903-.251.973-.263 2.094-.033 3.01a5.921 5.921 0 0 0 2.708 3.653 6.137 6.137 0 0 0 1.872.721c.307.067.356.068 4.356.078l4.045.011v-.652l-.125-.152a1.01 1.01 0 0 1-.141-.205l-.1-.37a2.261 2.261 0 0 0-.108-.343c-.013-.014-.122.034-.242.108-.279.171-.58.314-.661.313-.167 0-.31-.073-.466-.237l-.162-.172-2.916-.011c-3.205-.012-3.001 0-3.633-.212a4.196 4.196 0 0 1-1.959-1.43 4.338 4.338 0 0 1-.744-1.722c-.065-.367-.067-1.081-.004-1.473a4.533 4.533 0 0 1 1.3-2.517 4.59 4.59 0 0 1 2.383-1.285c.278-.056.491-.071 1.135-.084.88-.017 1.26.012 1.734.132.921.234 1.786.858 2.329 1.68.123.185.228.354.235.375.008.021.105-.048.224-.159.228-.213.388-.284.566-.251.059.011.264.113.454.226.191.112.356.205.367.205.011 0 .03-.064.042-.143.019-.129.005-.176-.137-.475a5.746 5.746 0 0 0-.701-1.107 7.354 7.354 0 0 0-1.141-1.069 7.295 7.295 0 0 0-1.535-.779 33.201 33.201 0 0 1-.358-.117c-.026-.009.016-.063.111-.143.52-.438.99-1.176 1.086-1.706.122-.672-.439-1.427-1.07-1.439l-.18-.004-.023.266c-.053.644-.378 1.289-.885 1.759-1.04.963-2.604.992-3.702.069a2.941 2.941 0 0 1-.709-.908 4.042 4.042 0 0 0-.276-.454c-.307-.413-.944-.748-1.425-.748h-.13l.023.285m11.849 6.12c-.024.039-.106.323-.181.632l-.137.56-.15.049-.151.05-.519-.317c-.285-.174-.532-.315-.548-.312a5.614 5.614 0 0 0-.436.425c-.259.267-.401.436-.388.462.011.023.162.269.334.547l.314.505-.076.092c-.043.05-.077.116-.077.147 0 .048-.098.082-.593.206-.326.081-.611.163-.633.182-.058.048-.058 1.112 0 1.16.022.018.304.1.627.18l.586.147.054.152.054.153-.317.517a6.282 6.282 0 0 0-.316.55c0 .018.189.222.42.453l.42.419.522-.319.521-.319.104.05a.53.53 0 0 0 .147.049c.029 0 .091.192.191.593.082.326.164.611.182.633.025.031.173.041.576.041.298-.001.559-.012.58-.025.02-.013.103-.287.184-.609s.163-.6.184-.618a.6.6 0 0 1 .154-.073c.116-.039.118-.038.637.279.287.175.533.316.549.313.015-.002.213-.195.439-.428.354-.365.406-.431.374-.478a62.88 62.88 0 0 1-.338-.547l-.301-.491.069-.148.068-.148.595-.148c.328-.082.601-.158.609-.17.007-.012.016-.285.02-.606l.006-.584-.599-.153-.6-.153-.053-.148-.054-.147.316-.523c.174-.288.316-.545.316-.572 0-.027-.184-.231-.409-.453-.345-.342-.418-.4-.467-.374-.032.017-.271.162-.531.322l-.474.291-.105-.05a.527.527 0 0 0-.149-.051c-.028 0-.09-.191-.19-.592-.082-.326-.164-.611-.182-.634-.025-.03-.176-.04-.584-.04-.535 0-.55.001-.594.071m.978 2.556.285.554.546.317c.563.327.638.397.543.511-.023.027-.28.17-.572.316l-.531.266-.309.522c-.169.287-.329.529-.354.539-.09.035-.174-.073-.46-.587l-.289-.521-.538-.322c-.525-.314-.538-.324-.538-.427 0-.105.004-.108.527-.375a8.56 8.56 0 0 0 .576-.312c.028-.023.139-.194.247-.38.369-.635.399-.675.495-.664.077.009.117.069.372.563"/>
</svg>
