<svg xmlns="http://www.w3.org/2000/svg" viewBox="0 0 42 42">
  <path fill="#a12577" fill-rule="evenodd" d="M19.215 5.086c-1.409.17-2.795.505-3.974.961C9.998 8.074 6.24 12.67 5.249 18.27c-.194 1.094-.267 3.398-.143 4.488.612 5.39 3.837 10.09 8.579 12.502 2.023 1.029 4.068 1.585 6.178 1.68l.928.041-.042-.238c-.181-1.031-.796-1.918-1.584-2.285-.165-.077-.631-.211-1.035-.297-7.781-1.664-12.37-9.755-9.863-17.392q1.025-3.123 3.433-5.471c1.822-1.778 3.832-2.864 6.335-3.423.456-.102.964-.244 1.128-.316.419-.185 1.048-.805 1.276-1.259.164-.327.351-.962.351-1.193 0-.063-1.104-.077-1.575-.021m1.995.122c0 .291.269 1.051.49 1.385.523.79 1.133 1.17 2.39 1.488 1.225.311 2.023.599 2.965 1.071a13.32 13.32 0 0 1 7.209 10.033c.139.979.137 2.954-.004 3.904-.829 5.582-4.933 9.984-10.391 11.143-.948.202-1.414.439-1.906.97-.422.456-.667.979-.699 1.494l-.019.299 1.05-.016c3.708-.056 7.866-2.079 10.612-5.164 2-2.248 3.292-4.937 3.883-8.085.152-.807.216-3.693.103-4.593-.586-4.652-3.067-8.768-6.863-11.384-1.594-1.099-3.531-1.949-5.378-2.36-.869-.194-2.155-.353-2.851-.353-.577 0-.591.004-.591.168m-.828 9.008a1.5 1.5 0 0 0-.49.436l-.187.283-.02 2.402-.02 2.403h-2.15c-1.284.001-2.256.03-2.414.074-.597.166-1.022.814-.931 1.419.055.367.439.856.786 1.001.178.075.732.096 2.472.096h2.242v2.288c0 2.188.006 2.301.148 2.595q.331.681 1.147.682c.515 0 .847-.19 1.099-.629.158-.276.161-.326.182-2.608l.021-2.328h2.204c2.361 0 2.511-.019 2.887-.371.479-.447.508-1.307.06-1.788-.363-.39-.392-.394-2.862-.418l-2.289-.022-.021-2.358c-.021-2.315-.024-2.363-.182-2.639a1.266 1.266 0 0 0-1.682-.518"/>
</svg>
