<svg xmlns="http://www.w3.org/2000/svg" viewBox="0 0 18 23">
    <path fill="#A12577" fill-rule="evenodd" d="M6.435.171a6.349 6.349 0 0 0-1.042.221c-.781.255-1.568.773-2.082 1.371-.423.492-.825 1.204-.889 1.575-.13.762.431 1.49 1.23 1.597l.158.021v-.191c.001-.459.196-1.055.495-1.514.989-1.519 3.091-1.848 4.516-.708.324.259.589.601.831 1.071.179.349.229.42.472.662.206.206.329.301.513.396.257.133.578.232.86.265l.173.02v-.226c0-.124-.027-.384-.06-.577C11.191 1.703 8.913-.05 6.435.171M2.267 5.208c.095 1.256.509 2.222 1.313 3.063.431.45 1.095.908 1.583 1.09.099.037.174.072.167.079-.017.017-.283-.09-.531-.216l-.213-.107-.368.192a6.734 6.734 0 0 0-1.805 1.345C1.23 11.871.552 13.395.452 15.06c-.103 1.701.391 3.254 1.441 4.536a6.43 6.43 0 0 0 3.402 2.136c.69.172.845.183 2.685.183.932 0 1.735-.011 1.784-.025.086-.024.082-.027-.135-.122-.767-.336-1.283-.679-1.859-1.235l-.315-.305-.57-.018a8.861 8.861 0 0 1-.841-.063 4.733 4.733 0 0 1-3.698-3.111c-.192-.543-.231-.81-.229-1.556.001-.583.011-.718.069-.99a5.441 5.441 0 0 1 .777-1.875 4.02 4.02 0 0 1 .631-.776c.889-.906 1.987-1.424 3.287-1.551.518-.051 2.046-.021 2.419.046a4.348 4.348 0 0 1 1.417.516l.184.111-.243.052c-1.056.228-2.169.862-2.908 1.659-.963 1.037-1.484 2.291-1.53 3.678a5.52 5.52 0 0 0 .902 3.251c.607.938 1.594 1.748 2.619 2.15 1.176.46 2.223.558 3.335.31a5.516 5.516 0 0 0 2.826-1.59 5.38 5.38 0 0 0 1.315-2.156c.225-.677.256-.888.257-1.755 0-.687-.007-.797-.068-1.08-.334-1.528-1.215-2.824-2.495-3.668a5.556 5.556 0 0 0-1.122-.567c-.198-.067-.215-.082-.454-.37a6.331 6.331 0 0 0-1.44-1.283c-.365-.241-1.129-.614-1.522-.742a2.019 2.019 0 0 1-.322-.122c-.001-.01.103-.111.23-.225.58-.522 1.091-1.319 1.185-1.848.093-.528-.233-1.17-.72-1.417-.169-.086-.452-.168-.578-.168-.078 0-.079.003-.097.262-.058.855-.555 1.735-1.266 2.246a3.946 3.946 0 0 1-.855.426c-1.087.347-2.3.063-3.097-.727-.269-.266-.433-.502-.638-.92a4.126 4.126 0 0 0-.32-.546c-.33-.442-.859-.729-1.454-.79l-.19-.019.016.206M5.475 9.48c.04.017.045.026.015.027a.184.184 0 0 1-.09-.027c-.055-.035-.007-.035.075 0m.337.108c-.01.01-.036.011-.058.002-.024-.009-.016-.016.018-.018.032-.001.05.006.04.016m.27.06c-.01.01-.036.011-.058.002-.024-.009-.016-.016.019-.018.031-.001.049.006.039.016m.18.03c-.01.01-.036.011-.058.002-.024-.009-.016-.016.019-.018.031-.001.049.006.039.016m5.168 1.243a3.67 3.67 0 0 1-.33.021c-.133-.002-.132-.002.03-.022.091-.011.239-.02.33-.021h.165l-.195.022m1.26 1.826c1.363.312 2.47 1.304 2.905 2.603.148.442.196.75.196 1.255 0 .505-.048.813-.196 1.255a3.992 3.992 0 0 1-2.965 2.616c-.534.112-1.239.088-1.803-.063a3.973 3.973 0 0 1-2.861-3.163c-.351-2.169 1.111-4.185 3.299-4.548.335-.056 1.09-.032 1.425.045m-1.035.524a.828.828 0 0 0-.429.275c-.205.232-.216.298-.216 1.279v.865h1.714l-.009-.893c-.009-.838-.014-.9-.074-1.031-.176-.379-.636-.61-.986-.495m-2.51 2.526a.906.906 0 0 0-.306.195c-.385.351-.385.874-.001 1.226.252.23.317.242 1.321.242h.848l.009.923c.01 1.059.008 1.049.296 1.308.432.389 1.076.239 1.33-.309.059-.128.064-.197.072-1.028l.01-.891.905-.009c.874-.009.91-.011 1.033-.077.323-.173.495-.441.495-.772s-.172-.599-.495-.772l-.127-.068-2.625-.006c-2.221-.005-2.647.001-2.765.038"/>
</svg>
