<svg width="32" height="32" xmlns="http://www.w3.org/2000/svg"><path d="M12.938 4.055c-1.744.275-3.235 1.327-3.989 2.815-.207.407-.229.487-.227.83.001.305.029.433.143.651.24.46.75.819 1.169.821l.194.001.035-.335c.153-1.42 1.31-2.652 2.74-2.916.426-.079 1.102-.067 1.504.028.923.217 1.789.906 2.239 1.783.144.28.34.56.515.735.343.343.92.632 1.392.696l.334.045v-.275c0-.831-.399-1.945-.978-2.73a5.553 5.553 0 0 0-2.39-1.831c-.761-.295-1.941-.434-2.681-.318M8.556 9.659c.084.885.351 1.654.825 2.373.357.541.999 1.184 1.482 1.482l.325.2-.547.279c-2.029 1.036-3.464 2.892-3.98 5.147-.153.664-.191 1.905-.08 2.579a7.004 7.004 0 0 0 4.806 5.556c.95.303 1.025.311 3.29.336 1.423.016 2.149.006 2.213-.032.085-.049.086-.056.008-.057-.166-.003-1.158-.537-1.575-.848a7.472 7.472 0 0 1-.71-.605l-.294-.295-.826-.028c-.895-.029-1.294-.11-2.02-.41-1.486-.613-2.702-2.094-3.022-3.677-.119-.591-.083-1.827.069-2.379.589-2.128 2.243-3.687 4.427-4.175.34-.075.678-.091 1.906-.088 1.366.003 1.53.013 1.92.12.502.138 1.346.528 1.276.589-.027.024-.253.096-.502.161-1.791.466-3.4 1.853-4.135 3.564-1.254 2.919.028 6.299 2.948 7.769 1.066.537 2.391.794 3.47.675 2.715-.301 4.828-2.108 5.484-4.691.726-2.856-.898-5.925-3.741-7.069-.345-.139-.517-.241-.612-.364-.403-.522-1.121-1.153-1.788-1.571a10.118 10.118 0 0 0-1.638-.764l-.359-.117.374-.347a4.478 4.478 0 0 0 1.041-1.417c.177-.371.192-.441.172-.769-.025-.425-.148-.704-.433-.99a1.585 1.585 0 0 0-.877-.435l-.226-.037v.215c0 .642-.394 1.554-.889 2.061-1.693 1.733-4.504 1.339-5.591-.783-.315-.614-.529-.884-.892-1.124a2.414 2.414 0 0 0-1.057-.392l-.28-.037.038.395m2.96 4.242c.073.064-.101.004-.186-.064-.097-.078-.096-.079.03-.019.073.035.143.072.156.083m7.031 1.816a.606.606 0 0 1-.213.001c-.066-.013-.025-.024.093-.025.117 0 .171.01.12.024m1.72 1.992a4.42 4.42 0 0 1 3.129 2.851c.14.399.15.482.149 1.28 0 .961-.049 1.195-.402 1.899-.532 1.063-1.499 1.86-2.719 2.243-.342.107-.509.124-1.197.124-.673.001-.866-.018-1.216-.12-2.193-.635-3.526-2.749-3.109-4.928.257-1.348 1.291-2.609 2.56-3.124a4.755 4.755 0 0 1 2.805-.225m-1.298.558a1.049 1.049 0 0 0-.389.192c-.284.265-.31.376-.331 1.421l-.019.973h1.93v-.93c0-.99-.028-1.139-.257-1.381-.271-.287-.557-.371-.934-.275m-2.892 2.768c-.214.093-.432.359-.511.621-.117.39.105.832.51 1.016.186.085.359.099 1.204.1l.987.002v.973c0 .85.013.999.101 1.178.214.431.815.635 1.236.42.487-.249.556-.452.556-1.637v-.935h.992c1.105 0 1.228-.028 1.512-.351.375-.427.217-1.106-.323-1.385-.211-.109-6.013-.111-6.264-.002" fill="#A12577" fill-rule="evenodd"/></svg>
