<svg xmlns="http://www.w3.org/2000/svg" viewBox="0 0 32 32" xml:space="preserve"><path d="M8.47 4.057a5.465 5.465 0 0 0-2.33.952 6.307 6.307 0 0 0-1.196 1.213c-.291.402-.657 1.207-.796 1.755l-.121.476v7.52c0 6.983.006 7.55.094 7.942a5.107 5.107 0 0 0 2.83 3.526c.212.098.577.233.811.301l.425.122 4.693.018c3.179.012 4.883-.001 5.28-.041a10.82 10.82 0 0 0 6.421-2.959c1.974-1.899 3.114-4.248 3.364-6.935.088-.941.07-9.873-.021-10.374-.326-1.798-1.788-3.225-3.604-3.517-.421-.067-15.389-.066-15.85.001m15.966 2.432c.314.145.703.501.883.807.279.476.279.489.28 5.354l.001 4.517-.307-.14c-.282-.13-.375-.142-1.186-.163-1.019-.026-1.519.046-2.331.336-2.465.881-3.919 3.487-3.932 7.048-.004.934 0 .975.121 1.138.068.093.108.185.089.205-.068.068-9.254.074-9.574.007-.951-.202-1.86-1.092-2.078-2.035-.033-.146-.053-2.901-.054-7.567-.001-6.594.007-7.366.085-7.626.277-.935.949-1.619 1.887-1.923.277-.09.74-.095 8.08-.084l7.787.01.249.116M13.607 8.98c-.265.096-.593.394-.706.642-.09.199-.099.379-.1 2.041l-.001 1.823-1.827.017-1.826.017-.258.151c-.654.385-.797 1.182-.312 1.747.355.415.38.42 2.447.421l1.823.001.017 1.853c.018 2.029.015 2.012.355 2.379.567.61 1.558.421 1.911-.365.085-.189.098-.421.113-2.04l.018-1.827 1.769-.001c1.605-.001 1.79-.01 1.983-.1.956-.44.956-1.765.002-2.199-.195-.088-.388-.098-2.042-.099l-1.826-.001V11.7c0-1.15-.021-1.81-.061-1.944-.088-.295-.346-.578-.656-.722-.295-.138-.546-.154-.823-.054m11.057 10.284a.684.684 0 0 0 .436.001c.111-.034.212-.051.225-.038.083.084-.446 1.466-.792 2.067-.588 1.021-1.525 2.059-2.454 2.718-.505.358-1.542.913-1.833.981l-.154.036.037-.715c.092-1.75.4-2.892 1.015-3.753.781-1.095 2.251-1.636 3.52-1.297" fill="#A12577" fill-rule="evenodd"/></svg>