<svg xmlns="http://www.w3.org/2000/svg" xml:space="preserve" viewBox="0 0 32 32"><path fill="#A12577" fill-rule="evenodd" d="M8 5.116c-1.703.362-3.064 1.511-3.68 3.108-.331.856-.325.69-.306 8.049.017 6.564.019 6.694.127 7.06.263.897.6 1.499 1.191 2.126a5.1 5.1 0 0 0 2.321 1.38c.426.119.434.12 5.334.137 3.261.011 5.11-.003 5.515-.042 5.033-.48 8.995-4.417 9.445-9.387.041-.453.055-2.03.042-4.907-.019-4.2-.02-4.244-.137-4.626-.446-1.452-1.434-2.426-2.919-2.874-.302-.092-.771-.098-8.4-.109C8.919 5.02 8.427 5.025 8 5.116m.96 10.911v8.88h-.202c-.301 0-.788-.142-1.147-.333-.67-.357-1.24-1.129-1.373-1.859-.035-.195-.049-2.579-.039-6.854l.014-6.554L6.33 9c.251-.656.767-1.239 1.363-1.54.33-.167.808-.302 1.094-.309l.173-.004v8.88m15.745-8.711c.403.189.786.556.979.936l.156.308.017 3.867c.021 4.764-.027 5.449-.469 6.779-.939 2.822-3.275 4.866-6.281 5.497-.558.117-.673.121-4.267.138l-3.693.018V7.145l6.626.014 6.627.014.305.143M17.28 10.29c-.382.116-.635.331-.771.656-.068.164-.082.479-.082 1.849v1.652l-1.747.016-1.747.017-.237.133a1.461 1.461 0 0 0-.4.365c-.304.433-.189 1.081.249 1.398.321.232.601.264 2.311.264h1.571v1.672c0 1.642.002 1.675.123 1.906.144.276.518.551.814.599.29.047.624-.054.866-.261.381-.326.383-.34.383-2.227v-1.681l1.747-.017c1.669-.017 1.756-.023 1.96-.132.407-.219.613-.553.613-.992 0-.389-.248-.808-.581-.984-.232-.121-.259-.123-1.987-.123h-1.752v-1.655c0-1.851-.003-1.872-.361-2.195-.297-.268-.642-.361-.972-.26"/></svg>
