<svg xmlns="http://www.w3.org/2000/svg" xml:space="preserve" viewBox="0 0 32 32"><path fill-rule="evenodd" d="M14.933 4.054c-2.837.297-5.306 1.418-7.264 3.297-3.129 3.004-4.352 7.281-3.27 11.442.403 1.548 1.265 3.227 2.286 4.451.463.554 1.459 1.51 1.989 1.909a12.32 12.32 0 0 0 6.004 2.364c1.228.133 3.012.041 4.078-.21l.437-.103.39.18c1.771.817 3.578.806 5.24-.032.579-.292.836-.477 1.354-.974.594-.571.878-.958 1.215-1.658.504-1.046.678-2.018.567-3.156-.078-.805-.183-1.217-.447-1.76l-.213-.436.136-.429c.505-1.598.592-3.519.241-5.339a10.857 10.857 0 0 0-1.021-3.013c-1.738-3.486-5.053-5.877-8.948-6.453-.687-.102-2.161-.144-2.774-.08m1.654 1.975c3.13.238 5.835 1.838 7.571 4.479 1.251 1.902 1.744 4.146 1.449 6.601l-.034.282-.266-.171a6.42 6.42 0 0 0-1.669-.721c-.571-.148-1.747-.23-1.984-.138-.126.048-.145.03-.338-.319-.363-.657-1.239-1.461-1.884-1.728a1.796 1.796 0 0 1-.226-.105c-.012-.011.074-.124.191-.25.267-.291.557-.782.718-1.22.181-.491.181-1.458-.001-1.983a3.308 3.308 0 0 0-3.122-2.223c-.919 0-1.667.302-2.299.927a3.222 3.222 0 0 0-.122 4.486c.289.315.347.454.19.454-.033 0-.105.042-.162.093-.098.088-.106.086-.213-.067a6.238 6.238 0 0 0-.515-.563c-1.012-1.012-2.454-1.236-3.764-.587-.532.264-.912.595-1.215 1.059-.804 1.228-.755 2.591.137 3.838.089.125.152.236.14.247a3.887 3.887 0 0 1-.289.157c-.572.294-1.274.892-1.528 1.302-.059.096-.126.174-.149.174-.064 0-.468-.903-.644-1.441-1.084-3.319-.223-6.993 2.241-9.565a9.921 9.921 0 0 1 3.979-2.537c.965-.321 1.597-.433 2.981-.529.059-.004.431.017.827.048m.92 4.669c.124.087.304.275.4.416.385.573.13 1.352-.545 1.666-.453.212-.827.152-1.222-.195-.358-.314-.515-.76-.405-1.151.082-.292.431-.696.716-.83.322-.15.762-.111 1.056.094m-5.573 4.336c.896.461.861 1.674-.063 2.15-.312.161-.805.119-1.109-.095-.294-.207-.517-.57-.554-.905-.025-.221-.005-.312.121-.555.338-.652 1.01-.901 1.605-.595m5.742.91c.41.142.762.372 1.058.688.416.445.42.423-.131.784-1.509.99-2.427 2.546-2.576 4.371-.031.372-.015.505.125 1.042.196.75.41 1.305.761 1.964.146.275.25.515.232.533-.019.019-.59.034-1.269.034-.98 0-1.346-.021-1.769-.1-1.879-.35-3.691-1.273-5.175-2.636l-.366-.336.059-.345a2.567 2.567 0 0 1 1.095-1.69c1.083-.713 2.381-.582 3.295.332.53.53.798 1.168.798 1.898v.29h2.096l-.032-.6c-.039-.734-.141-1.148-.434-1.773-.241-.514-.739-1.185-1.06-1.429-.187-.143-.196-.164-.196-.464 0-1.247.845-2.342 2.045-2.648.365-.093 1.045-.053 1.444.085m5.363 2.752c1.217.287 2.316 1.304 2.701 2.5.11.341.139.542.142.964.007.988-.328 1.784-1.054 2.507-.49.488-.937.768-1.548.97-.357.118-.527.142-1.04.145-.739.005-1.039-.062-1.704-.38-.955-.457-1.71-1.401-1.953-2.442-.117-.499-.078-1.355.084-1.84.399-1.193 1.473-2.163 2.686-2.427.447-.097 1.267-.095 1.686.003m-1.146.341c-.658.159-.88.529-.88 1.468v.615h-.615c-.839 0-1.121.126-1.369.609-.083.162-.102.283-.086.541.026.403.2.687.538.88.198.113.307.131.879.148l.653.02v.601c0 .555.012.624.149.886.12.231.202.313.433.433.48.251.968.162 1.323-.242.224-.256.281-.486.282-1.143v-.546l.547-.001c.668 0 .893-.058 1.16-.3a1.076 1.076 0 0 0-.209-1.762c-.207-.11-.308-.124-.866-.124H23.2v-.604c0-.553-.012-.628-.147-.893-.222-.439-.723-.692-1.16-.586"/></svg>
