<svg xmlns="http://www.w3.org/2000/svg" viewBox="0 0 22 22">
    <path fill-rule="evenodd" d="M14.795.187c-2.939.302-5.162 2.891-5.03 5.859A5.628 5.628 0 0 0 15.4 11.44a5.632 5.632 0 0 0 5.348-3.835c.41-1.2.389-2.602-.057-3.773A5.654 5.654 0 0 0 14.795.187m1.577 1.786c1.057.299 1.886.922 2.423 1.822.648 1.086.72 2.51.185 3.663a4.007 4.007 0 0 1-2.763 2.207c-.389.085-1.245.085-1.634 0a3.954 3.954 0 0 1-3.104-4.232c.159-1.676 1.375-3.087 2.987-3.464.399-.094.404-.094 1.044-.081.462.01.666.03.862.085m-1.344.578a.676.676 0 0 0-.432.445c-.023.08-.039.526-.039 1.047v.907h-.892c-1.028 0-1.192.028-1.376.238-.133.151-.189.331-.189.605 0 .395.136.646.42.775.131.059.256.067 1.093.068l.944.001v.907c0 .511.017.967.038 1.044.091.326.37.503.797.505.389.001.624-.116.772-.385.051-.092.064-.27.079-1.081l.019-.972.971-.018c1.066-.02 1.104-.028 1.296-.257.117-.139.171-.323.171-.587 0-.274-.056-.454-.189-.605-.184-.21-.348-.238-1.376-.238h-.892v-.907c0-.521-.016-.967-.039-1.047a.821.821 0 0 0-.149-.265c-.192-.218-.645-.298-1.027-.18m-10.28.188c-.739.067-1.608.403-2.217.857-.806.601-1.393 1.469-1.68 2.487l-.099.352-.01 6.351c-.011 7.125-.03 6.626.264 7.216.357.719.913 1.179 1.707 1.414l.275.081 5.812.035c5.964.035 6.68.025 7.597-.103 1.423-.198 2.295-.722 2.742-1.647.429-.887.517-1.799.447-4.658-.053-2.147-.072-2.367-.229-2.686-.216-.441-.683-.786-1.133-.84l-.193-.023.023 1.244c.081 4.38.073 4.976-.072 5.694-.067.331-.217.672-.375.852-.246.279-.749.462-1.565.568-.618.08-3.035.097-8.489.06l-4.455-.03-.173-.085a1.365 1.365 0 0 1-.604-.583l-.103-.21V6.655l.083-.286a2.958 2.958 0 0 1 1.213-1.672c.335-.227.583-.33 1.088-.453.08-.02 1.07-.046 2.2-.059l2.053-.023.238-.114c.26-.125.539-.378.678-.615.086-.148.202-.523.202-.654 0-.063-.121-.065-2.539-.06-1.396.004-2.605.013-2.686.02m.697 3.277c-.81.137-1.559.725-1.928 1.514-.296.633-.29 1.529.016 2.167.324.676.881 1.17 1.582 1.403.262.087.348.098.807.098.465 0 .54-.01.806-.102.441-.152.663-.295 1.031-.662.288-.286.358-.381.501-.681.215-.451.264-.663.264-1.155 0-.491-.049-.704-.264-1.153-.142-.298-.214-.396-.502-.683-.286-.286-.387-.361-.683-.503a2.672 2.672 0 0 0-1.63-.243m.894 1.773a.909.909 0 0 1 .48.801.861.861 0 0 1-.475.811.906.906 0 0 1-1.306-.554c-.221-.758.596-1.422 1.301-1.058m3.341 5.247a3.245 3.245 0 0 0-1.398.655c-.273.226-3.839 3.494-4.261 3.904-.325.317-.428.486-.428.701 0 .214.08.376.296.604.314.333.621.393.96.19.086-.051 1.144-1.001 2.351-2.111 2.376-2.185 2.398-2.203 2.887-2.279.312-.048.642.004.931.149.155.077.597.439 1.485 1.216 2.653 2.32 2.993 2.611 3.135 2.676.297.136.627.051.876-.225.296-.327.367-.659.204-.948-.065-.116-.655-.653-2.198-1.998-2.358-2.058-2.31-2.018-2.642-2.2a3.394 3.394 0 0 0-2.198-.334"/>
</svg>
