<svg xmlns="http://www.w3.org/2000/svg" xml:space="preserve" viewBox="0 0 32 32"><path fill="#A12577" fill-rule="evenodd" d="M13.268 4.326c-1.142.11-2.459.494-3.524 1.028-.665.333-1.69.979-1.69 1.066-.001.025.123.261.274.523.263.455.294.487.705.729l.429.254.402-.277c1.335-.916 2.97-1.362 4.723-1.287 3.008.128 5.653 1.868 6.988 4.598.538 1.099.758 1.994.808 3.286l.032.833-.847.03c-.885.031-1.291.107-1.997.373a6.327 6.327 0 0 0-3.752 3.933c-.248.749-.32 1.293-.28 2.124.018.371.047.75.065.843l.033.169-.312.044c-.535.077-1.865.047-2.418-.054-1.068-.194-2.235-.673-3.176-1.305-2.91-1.95-4.267-5.482-3.365-8.76l.125-.456-.459-.795c-.354-.612-.507-.828-.672-.941-.117-.081-.241-.148-.275-.149-.083-.002-.36.597-.58 1.252-.944 2.815-.501 6.156 1.15 8.666 1.761 2.678 4.478 4.321 7.678 4.644.836.085 2.023.026 2.778-.138.122-.027.164.01.378.332.132.199.427.561.655.803a6.285 6.285 0 0 0 4.051 1.985c3.021.268 5.82-1.733 6.6-4.719.154-.59.167-.709.169-1.52.001-.709-.02-.973-.11-1.36-.446-1.917-1.547-3.395-3.183-4.274l-.315-.169.011-.952c.03-2.426-.636-4.475-2.08-6.399-2.067-2.756-5.568-4.293-9.019-3.96M6.587 6.974c-.235.432-.511.869-.615.973-.103.104-.478.339-.832.523-.355.184-.684.363-.732.399-.072.054.026.121.647.438.95.484 1.101.635 1.585 1.585.205.403.385.733.4.733.015 0 .193-.325.397-.721.464-.904.612-1.049 1.616-1.574.418-.218.76-.409.76-.424 0-.015-.323-.207-.719-.426-.396-.22-.792-.442-.881-.493a.818.818 0 0 1-.253-.254c-.593-1.033-.898-1.545-.92-1.544-.015 0-.219.353-.453.785m7.28 2.439c0 .604-.002.614-.122.614-.068 0-.266.036-.44.081-1.286.328-2.133 1.359-2.034 2.479.049.566.172.838.548 1.214.372.373.59.487 1.408.737l.56.172.014.942c.014.881.009.941-.08.916a4.327 4.327 0 0 0-.281-.063c-.32-.063-1.025-.352-1.379-.567-.186-.112-.354-.205-.373-.204-.062 0-.607 1.277-.578 1.353.016.04.276.196.579.345a5.331 5.331 0 0 0 1.791.522l.333.034v1.159h1.12v-.613c0-.692-.066-.604.54-.721a2.888 2.888 0 0 0 1.379-.736c.902-.903.952-2.186.114-2.954-.347-.318-.731-.505-1.459-.711l-.52-.147v-1.861l.226.038a6.31 6.31 0 0 1 1.232.408c.113.057.211.096.218.087.007-.009.134-.321.282-.692l.269-.674-.382-.187c-.458-.223-.965-.384-1.365-.435-.512-.064-.48-.023-.48-.619V8.8h-1.12v.613m-.077 3.642c-.015.014-.153-.036-.309-.112-.328-.161-.468-.361-.468-.669 0-.264.208-.527.548-.696l.226-.111.014.78c.009.43.003.793-.011.808m1.558 2.085c.225.115.332.295.332.556-.001.325-.235.567-.68.702l-.12.036v-1.498l.132.05c.072.027.223.097.336.154m6.928 2.037c.97.134 1.715.509 2.417 1.218.909.918 1.262 1.837 1.211 3.152-.044 1.156-.385 1.948-1.182 2.752-.543.547-1.012.849-1.643 1.06-2.769.922-5.586-1.094-5.586-3.999 0-1.2.47-2.28 1.35-3.103.673-.629 1.363-.941 2.437-1.102.269-.041.589-.034.996.022m-.836.911a1.092 1.092 0 0 0-.64.526c-.092.179-.107.315-.107.957v.749h-.685c-.732 0-.944.044-1.227.255-.487.361-.494 1.168-.014 1.572.244.205.479.252 1.246.253h.68v.749c0 .843.062 1.051.387 1.296.38.288.81.292 1.221.011.339-.231.419-.483.419-1.322v-.726l.76-.017c.879-.02 1.08-.089 1.341-.459.396-.561.129-1.317-.549-1.55-.101-.035-.484-.062-.867-.062h-.685v-.738c0-.67-.011-.76-.124-.974-.214-.405-.741-.642-1.156-.52"/></svg>
