<svg width="32" height="32" xmlns="http://www.w3.org/2000/svg"><path d="M20.907 3.624c-2.595.555-4.497 2.773-4.625 5.394-.142 2.9 1.882 5.448 4.765 6 .658.126 1.613.118 2.26-.018 2.848-.601 4.799-3.077 4.677-5.933a5.355 5.355 0 0 0-.595-2.32 5.822 5.822 0 0 0-4.149-3.146c-.593-.113-1.751-.101-2.333.023m2.24 1.999c.413.113 1.092.463 1.453.749.588.466 1.114 1.302 1.29 2.055.102.434.105 1.248.006 1.715-.347 1.636-1.839 2.872-3.576 2.961-1.726.089-3.275-.959-3.852-2.607-.179-.512-.225-1.426-.101-2.009.172-.809.718-1.669 1.377-2.168.407-.309 1.083-.634 1.483-.713.161-.032.341-.069.4-.083.203-.047 1.227.021 1.52.1m-1.503.512c-.412.217-.524.532-.524 1.469v.709l-.871.017c-.827.016-.881.023-1.067.15-.225.152-.463.578-.461.824.003.35.324.807.656.933.082.031.507.056.943.056h.792l.017.787c.021.932.087 1.118.487 1.366.484.301 1.133.131 1.393-.366.095-.182.113-.327.128-.996l.017-.783.845-.017.845-.017.205-.164c.535-.427.535-1.166 0-1.593l-.205-.163-.849-.017-.848-.017v-.709c0-.724-.043-.956-.226-1.219-.239-.342-.869-.466-1.277-.25m-12.871.619c-1.399.158-2.443.663-3.367 1.629-.662.691-1.101 1.541-1.305 2.524-.094.454-.1.856-.1 7.626.001 7.869-.016 7.465.331 8.184.233.482.895 1.139 1.389 1.377.7.339.315.323 8.439.342 7.963.019 7.902.02 8.984-.254a5.77 5.77 0 0 0 .96-.354c1.664-.824 2.082-2.552 1.927-7.961-.06-2.119-.104-2.579-.273-2.912-.256-.502-.892-.955-1.34-.955h-.205l.001 1.027c0 .564.025 1.905.056 2.98.082 2.896-.024 4.7-.323 5.501-.204.543-.619.819-1.507 1.001-.973.2-1.905.219-8.813.183-5.584-.028-6.658-.046-6.898-.112-.338-.094-.698-.401-.86-.735-.108-.224-.109-.276-.108-7.342.001-7.951-.023-7.442.385-8.23.394-.76 1.079-1.334 1.987-1.666.243-.089.537-.1 3.227-.126 2.687-.027 2.98-.038 3.173-.124.478-.213.772-.671.854-1.331l.039-.306-3.247.008c-1.785.004-3.318.016-3.406.026m-.322 4.76c-.275.125-.496.387-.536.637l-.035.222c-.027.165.097.511.24.674.298.339.3.34 2.541.34h2.025l.266.44.267.44-1.903.031c-1.604.027-1.949.047-2.196.125-.825.263-1.452.794-1.806 1.532a3.773 3.773 0 0 0-.27.761c-.035.191-.057 1.18-.057 2.485 0 2.414.026 2.647.376 3.303.304.57.949 1.122 1.565 1.339.556.195 1.056.217 4.437.196 2.91-.017 3.281-.029 3.565-.114.843-.25 1.492-.776 1.851-1.502l.219-.442.3.134c.697.313 1.085.448 1.38.479.95.099 1.908-.524 2.218-1.444.125-.369.132-3.65.009-4.065-.22-.743-.962-1.263-1.794-1.257-.507.003-.803.118-1.467.574l-.579.396-.112-.364a2.932 2.932 0 0 0-1.26-1.664c-.427-.276-.893-.412-1.586-.463l-.557-.04-.728-1.214c-.4-.668-.774-1.265-.829-1.328a1.178 1.178 0 0 0-.315-.211c-.197-.091-.397-.098-2.613-.098-2.215 0-2.417.007-2.616.098m8.045 4.878c.229.096.504.417.544.634.018.095.025 1.138.016 2.317-.018 2.431.002 2.322-.47 2.564l-.235.12h-3.297c-2.681 0-3.329-.014-3.469-.074a1.074 1.074 0 0 1-.515-.53c-.037-.097-.057-.905-.057-2.282 0-2.022.006-2.143.106-2.34a.961.961 0 0 1 .334-.344l.227-.136h3.322c2.67-.001 3.355.013 3.494.071m4.505 2.848-.014 1.32-.16-.008c-.088-.005-.299-.073-.468-.151l-.308-.143.014-.86.015-.86.427-.305a4.61 4.61 0 0 1 .467-.309c.023-.002.035.59.027 1.316" fill="#A12577" fill-rule="evenodd"/></svg>
