<svg xmlns="http://www.w3.org/2000/svg" viewBox="0 0 22 22">
    <path fill="#A12577" fill-rule="evenodd" d="M15.73.17c-1.559.197-2.864.999-3.686 2.267a4.813 4.813 0 0 0-.714 1.743 5.02 5.02 0 0 0 1.491 4.655c.401.376.73.6 1.241.848.799.388 1.488.532 2.382.499.593-.022.905-.077 1.428-.252a5.026 5.026 0 0 0 3.17-3.229c.167-.524.225-.915.225-1.531 0-.635-.062-1.036-.24-1.571A5.043 5.043 0 0 0 17.215.237C16.93.178 15.995.136 15.73.17m1.357 1.792c.66.174 1.303.587 1.724 1.109.279.345.445.645.583 1.057.711 2.128-.876 4.344-3.114 4.346a4.01 4.01 0 0 1-.687-.056 3.351 3.351 0 0 1-2.545-2.423c-.114-.419-.114-1.229-.001-1.65.168-.626.597-1.309 1.068-1.7.399-.333.954-.61 1.395-.698l.275-.056c.169-.039 1.073.011 1.302.071m-1.088.399a.803.803 0 0 0-.48.382c-.099.169-.101.184-.113.878l-.012.706h-.7c-.636 0-.716.007-.859.076-.509.247-.647.912-.275 1.325.237.263.366.299 1.15.315l.686.015.011.686.011.687.111.179a.84.84 0 0 0 1.332.15c.224-.228.262-.389.262-1.107v-.595l.651-.015c.72-.018.844-.048 1.068-.261a.813.813 0 0 0 .26-.612.813.813 0 0 0-.26-.612c-.219-.208-.324-.231-1.057-.231h-.662V3.72c0-.703-.033-.873-.209-1.079a.864.864 0 0 0-.915-.28m-11.298.612a4.396 4.396 0 0 0-1.769.585 4.09 4.09 0 0 0-1.016.822A4.377 4.377 0 0 0 .851 6.295l-.099.36-.01 6.39c-.011 7.017-.023 6.591.21 7.106a2.669 2.669 0 0 0 1.943 1.536c.375.071 12.018.122 12.798.056 1.49-.126 2.313-.41 2.92-1.008.241-.238.326-.352.446-.605.233-.489.358-.981.476-1.88.055-.418.063-.793.059-2.703-.004-2.364-.043-3.234-.163-3.582-.179-.521-.681-.939-1.19-.991l-.211-.022.023 1.463.047 2.912c.04 2.531-.095 3.727-.476 4.223-.227.297-.718.489-1.527.597-.684.091-2.761.141-4.62.111-.918-.015-3.178-.038-5.024-.05l-3.355-.023-.207-.102a1.37 1.37 0 0 1-.593-.607l-.08-.171v-6.197c0-5.908.003-6.207.068-6.435.306-1.079 1.046-1.837 2.097-2.148.196-.058.474-.067 2.712-.086l2.493-.021.184-.084c.231-.106.403-.27.517-.492.101-.2.196-.57.197-.771l.001-.138-2.741.005c-1.508.003-2.878.019-3.045.035m-.175 4.118c-.553.257-.662.959-.216 1.391.245.239.299.245 2.184.245h1.678l.222.368c.123.203.223.384.223.403 0 .022-.605.036-1.586.036-1.791 0-1.849.007-2.374.265-.44.216-.875.651-1.092 1.091-.285.581-.283.567-.283 2.823 0 2.257-.002 2.243.283 2.824.122.248.217.375.467.624.354.353.651.53 1.121.666l.292.085h6.05l.292-.085c.777-.225 1.405-.762 1.658-1.419l.104-.265c.002-.005.225.091.494.213.568.257.809.327 1.119.327.779 0 1.472-.488 1.748-1.231.078-.207.082-.281.095-1.667.011-1.218.004-1.489-.044-1.696-.123-.531-.406-.887-.892-1.118-.274-.131-.298-.136-.687-.136-.375 0-.42.008-.642.113a6.31 6.31 0 0 0-.666.413 7.86 7.86 0 0 1-.446.299c-.01 0-.038-.087-.063-.193a2.474 2.474 0 0 0-.742-1.261c-.49-.465-1.036-.673-1.765-.673h-.406l-.622-1.054c-.663-1.123-.849-1.364-1.108-1.436-.091-.026-.852-.039-2.175-.039H4.712l-.186.087m6.794 4.172c.226.057.501.319.558.533.028.107.037.734.03 2.038l-.01 1.884-.105.151a.787.787 0 0 1-.275.236l-.17.083-2.805.011c-2.014.008-2.848-.001-2.957-.031a.881.881 0 0 1-.5-.414c-.081-.152-.081-.16-.081-2.041 0-1.773.004-1.896.068-2.016a.84.84 0 0 1 .537-.443c.158-.048 5.517-.04 5.71.009m3.953 3.651c-.029.077-.144.053-.474-.099l-.316-.145v-1.502l.394-.277.395-.277.009 1.127c.006.62.002 1.147-.008 1.173"/>
</svg>
