<svg xmlns="http://www.w3.org/2000/svg" xml:space="preserve" viewBox="0 0 32 32"><path fill="#A12577" fill-rule="evenodd" d="M7.833 3.095a5.372 5.372 0 0 0-3.249 1.634c-.885.918-1.355 1.932-1.494 3.218-.036.33-.049 3.197-.039 8.24l.017 7.733.141.513c.168.611.427 1.188.74 1.654.296.439.948 1.114 1.366 1.413.437.313 1.242.689 1.788.835l.444.118h5.36c5.313 0 5.365-.001 6-.118 2.464-.457 4.497-1.513 6.206-3.222 1.709-1.709 2.765-3.742 3.222-6.206.118-.637.118-.674.118-6.374V6.8l-.12-.415c-.458-1.579-1.625-2.726-3.25-3.194l-.416-.12-8.24-.009c-4.532-.005-8.399.009-8.594.033m17.075 2.436c.455.225.692.429.95.816.392.586.382.433.382 5.991 0 3.055-.021 5.141-.056 5.483-.276 2.726-1.64 5.087-3.864 6.688-.581.418-1.793 1.032-2.466 1.249-.272.087-.764.213-1.094.28l-.6.122H7.76l-.4-.148c-.482-.178-1.032-.571-1.338-.956-.284-.356-.555-.935-.63-1.346-.041-.219-.058-2.658-.058-7.946.001-6.332.014-7.691.076-7.983.231-1.089 1.15-2.057 2.219-2.338.388-.102.608-.104 8.665-.094l8.268.011.346.171m-9.661 4.378a1.03 1.03 0 0 0-.446.409l-.161.26-.016 2.014-.015 2.014-2.011.017-2.011.017-.252.148a1.139 1.139 0 0 0-.3 1.712c.331.401.352.404 2.592.405l1.986.002v1.896c0 1.19.022 1.982.058 2.127.123.487.573.827 1.099.829.344.001.484-.051.739-.275.393-.345.395-.358.396-2.591l.002-1.986 1.986-.002c2.233-.001 2.246-.003 2.591-.396.222-.253.276-.395.276-.728 0-.464-.204-.806-.613-1.026-.206-.111-.284-.116-2.227-.131l-2.013-.017-.002-1.983c-.001-2.229-.005-2.26-.394-2.58-.383-.316-.827-.363-1.264-.135"/></svg>
