<svg width="32" height="32" xmlns="http://www.w3.org/2000/svg"><path d="M8.587 4.035c-.748.112-1.195.246-1.782.534-1.328.651-2.333 1.947-2.68 3.458-.093.403-.098.84-.098 8 0 7.181.005 7.595.098 7.994.451 1.924 1.846 3.33 3.822 3.855.312.083.796.094 4.88.111 4.732.021 5.429-.001 6.42-.204a9.372 9.372 0 0 0 1.686-.485c3.511-1.297 6.104-4.344 6.852-8.051.203-1.006.223-1.683.203-6.82-.022-5.447-.001-5.107-.365-5.91-.433-.954-1.385-1.857-2.345-2.224-.775-.297-.559-.29-8.878-.284-4.224.003-7.74.015-7.813.026M24.48 6.28c.561.229 1.071.757 1.262 1.306.092.265.098.569.098 5.294 0 5.282-.002 5.338-.249 6.347-.759 3.11-3.245 5.597-6.364 6.367-.976.241-1.098.246-6 .246-4.377 0-4.687-.006-4.987-.098a3.056 3.056 0 0 1-1.961-1.902l-.119-.347-.015-7.226c-.01-4.798.004-7.348.04-7.586.199-1.288 1.159-2.276 2.42-2.49.151-.025 3.719-.043 7.928-.039l7.654.008.293.12m-9.052 4.175a1.032 1.032 0 0 0-.347.31c-.119.192-.121.221-.137 2.179l-.016 1.984-1.984.016c-1.961.016-1.986.017-2.18.138-.274.17-.418.488-.416.922.001.445.132.738.406.908l.206.128 1.984.016 1.984.016.016 1.984.016 1.984.128.206c.17.274.463.405.908.406.434.002.752-.142.922-.416.121-.194.122-.219.138-2.18l.016-1.984 1.984-.016c1.961-.016 1.986-.017 2.18-.138.565-.351.565-1.485 0-1.836-.194-.121-.219-.122-2.18-.138l-1.984-.016-.016-1.984c-.015-1.874-.022-1.994-.123-2.161-.17-.283-.409-.399-.874-.422-.337-.017-.444-.001-.631.094" fill-rule="evenodd" fill="#000"/></svg>
