<svg xmlns="http://www.w3.org/2000/svg" viewBox="0 0 20 20">
    <path fill-rule="evenodd" d="M3.833.322C2.658.511 1.74 1.053 1.08 1.95c-.329.447-.518.855-.686 1.483l-.076.284-.01 5.998c-.01 6.604-.02 6.258.194 6.897.455 1.358 1.546 2.332 2.998 2.675.23.055.544.061 3.883.072 4.258.014 4.388.008 5.484-.263a7.776 7.776 0 0 0 1.683-.63 8.254 8.254 0 0 0 2.283-1.633 8.254 8.254 0 0 0 1.633-2.283 7.776 7.776 0 0 0 .63-1.683c.272-1.103.276-1.195.263-5.784-.011-3.909-.011-3.935-.083-4.202a3.43 3.43 0 0 0-.908-1.583c-.449-.451-.922-.726-1.562-.908L16.55.317 10.233.313C6.759.31 3.879.315 3.833.322m12.583 1.729c.592.154 1.107.704 1.215 1.297.049.271.049 7.488 0 8.019a6.986 6.986 0 0 1-1.358 3.529 9.5 9.5 0 0 1-1.142 1.19 7.068 7.068 0 0 1-2.983 1.43c-.697.145-1.068.156-4.798.144-3.3-.01-3.51-.014-3.683-.073A2.475 2.475 0 0 1 2.079 16c-.06-.175-.063-.437-.072-6.033-.01-6.485-.021-6.126.207-6.616a2.513 2.513 0 0 1 1.137-1.137c.474-.221.08-.208 6.784-.211 5.365-.003 6.108.003 6.281.048M9.464 5.379a.652.652 0 0 0-.324.223c-.15.195-.154.239-.166 1.84l-.011 1.525h-1.41c-.816 0-1.486.014-1.589.034-.262.049-.401.134-.512.312-.082.133-.1.201-.112.431a1.67 1.67 0 0 0 .026.422c.052.191.268.412.451.463.088.025.639.037 1.64.037l1.506.001.01 1.541c.01 1.491.013 1.547.081 1.695.146.315.423.451.86.423.347-.023.584-.163.692-.409.034-.076.048-.474.061-1.667l.016-1.567 1.567-.016c1.654-.018 1.676-.02 1.845-.178.301-.28.319-1.001.031-1.279-.236-.229-.209-.226-1.918-.237l-1.541-.01-.001-1.506c0-1.001-.012-1.552-.037-1.64-.048-.174-.272-.398-.446-.446-.177-.05-.571-.045-.719.008"/>
</svg>
