<svg xmlns="http://www.w3.org/2000/svg" viewBox="0 0 24 24">
    <path fill-rule="evenodd" d="M3.539 2.835a1.791 1.791 0 0 0-1.258 1.419c-.042.261-.036.296.42 2.332.255 1.137.489 2.204.521 2.371.139.73.631 1.295 1.269 1.459.252.064 3.664.352 4.139.349.815-.006 1.544-.63 1.692-1.45.044-.237.028-.383-.217-2.075A169.683 169.683 0 0 0 9.8 5.2c-.061-.329-.223-.622-.496-.899a1.635 1.635 0 0 0-.944-.5 97.247 97.247 0 0 1-2.249-.544c-1.096-.274-2.066-.496-2.16-.494a1.954 1.954 0 0 0-.412.072m13.661.408-2.34.523c-.484.109-.966.504-1.184.97-.12.257-.128.311-.319 2.214-.108 1.072-.197 2.062-.197 2.198 0 .63.437 1.272 1.062 1.558.384.176.599.168 2.771-.101 2.21-.274 2.241-.282 2.689-.711.293-.279.458-.597.536-1.034.031-.176.274-1.2.539-2.275.266-1.075.483-2.03.483-2.122 0-.738-.575-1.442-1.341-1.642a1.87 1.87 0 0 0-.397-.058c-.089.002-1.125.218-2.302.48m-8.93 2.13c.045.045.133.546.316 1.795.139.952.253 1.788.254 1.856a.281.281 0 0 1-.081.197c-.079.072-.134.07-1.97-.076-1.98-.158-2.05-.17-2.085-.356-.009-.049-.229-1.05-.488-2.224L3.744 4.43l.105-.091.105-.09 2.127.531c1.244.31 2.153.557 2.189.593m11.391-1.035c.054.054.09.121.08.15-.052.153-1.021 4.17-1.021 4.234 0 .042-.04.102-.09.134-.059.038-.735.138-1.944.286l-1.855.228-.1-.101-.1-.1.189-1.894c.17-1.712.196-1.904.271-1.985.046-.05.12-.091.166-.092a77.842 77.842 0 0 0 2.163-.476c1.144-.26 2.094-.475 2.112-.478.017-.002.076.04.129.094m-5.031 8.284c-.126.031-.3.092-.386.136-.238.121-.613.489-.743.728-.229.42-.23.444-.099 2.632.065 1.09.137 2.061.16 2.157.111.463.508.977.914 1.183.116.059.341.132.498.163.157.031 1.192.29 2.3.577 1.229.319 2.088.522 2.206.522.591 0 1.297-.471 1.549-1.033.195-.438.187-.52-.288-2.767a102.45 102.45 0 0 1-.462-2.259c-.05-.336-.281-.782-.538-1.035-.306-.301-.555-.409-1.166-.504-.283-.044-1.177-.188-1.986-.321-.809-.133-1.529-.24-1.6-.238a2.346 2.346 0 0 0-.359.059m-6.69.226c-.33.042-1.223.154-1.985.248-1.261.157-1.409.183-1.64.292-.514.24-.949.789-1.016 1.283a88.63 88.63 0 0 1-.54 2.294c-.511 2.088-.514 2.106-.476 2.38.055.389.223.721.508 1.006.278.278.57.429.956.494l.273.047 2.2-.488 2.4-.531c.47-.103.967-.495 1.182-.932.151-.305.154-.327.38-2.641.173-1.769.177-1.849.118-2.08-.207-.798-.823-1.356-1.58-1.431-.099-.009-.45.017-.78.059m8.98 1.515c.991.161 1.763.304 1.792.333.055.054.971 4.331.943 4.403-.062.16-.118.15-2.102-.364a124.04 124.04 0 0 0-2.171-.551c-.386-.081-.363.013-.48-1.944-.13-2.164-.13-2.062.008-2.136a.338.338 0 0 1 .19-.041c.044.01.863.145 1.82.3m-8.145.048.082.111-.175 1.789c-.096.984-.194 1.852-.218 1.928-.03.094-.077.149-.144.169-.217.064-4.272.952-4.348.952-.044 0-.113-.037-.154-.082-.072-.08-.063-.124.435-2.15.279-1.137.508-2.105.508-2.15-.001-.079.129-.256.191-.26l1.728-.217c.935-.118 1.77-.211 1.856-.208.12.005.175.033.239.118"/>
</svg>
