<svg width="32" height="32" xmlns="http://www.w3.org/2000/svg"><path d="M4.84 3.045c-.54.127-1.27.698-1.55 1.213-.171.313-.303.803-.303 1.12 0 .13.241 1.367.537 2.749.295 1.382.617 2.911.714 3.397.11.55.229.985.315 1.155.222.439.681.892 1.125 1.112l.387.191 2.821.242c3.093.266 3.191.266 3.782-.005.39-.178.969-.755 1.167-1.161.311-.64.309-.702-.093-3.66-.415-3.052-.461-3.3-.676-3.675-.357-.625-1.075-1.154-1.666-1.229-.125-.015-1.493-.361-3.041-.768-2.833-.744-3.064-.789-3.519-.681m18.76.614c-1.525.363-2.929.686-3.118.717-.658.107-1.245.497-1.665 1.105-.284.412-.353.726-.497 2.271-.074.796-.198 2.108-.276 2.915-.158 1.65-.146 1.879.129 2.468.216.461.686.955 1.104 1.161.649.319.705.319 3.576-.049 1.408-.18 2.688-.351 2.844-.379.406-.075.867-.34 1.198-.688.447-.469.559-.707.73-1.537.083-.405.429-1.927.77-3.382.34-1.455.618-2.752.618-2.882 0-.295-.123-.778-.273-1.073-.16-.313-.689-.848-1.013-1.024a2.303 2.303 0 0 0-1.087-.289c-.147.002-1.515.302-3.04.666M8.198 5.787c1.519.397 2.822.739 2.895.761.095.029.153.103.2.253.114.368.752 5.213.703 5.343-.111.291-.075.29-2.823.058-1.745-.147-2.57-.237-2.651-.288-.065-.04-.141-.164-.17-.274-.115-.443-1.298-6.128-1.298-6.242-.001-.15.156-.331.285-.331.053 0 1.34.324 2.859.72m18.654-.615a.386.386 0 0 1 .093.226c-.001.067-.294 1.37-.651 2.895a149.501 149.501 0 0 0-.697 3.064c-.084.51.064.466-2.785.836-2.734.355-2.695.354-2.81.053-.029-.077.048-1.102.217-2.861.243-2.542.27-2.748.377-2.862.064-.068.166-.124.227-.126.061-.002 1.346-.3 2.857-.661 1.511-.362 2.821-.66 2.912-.663a.338.338 0 0 1 .26.099M20.24 17.155c-.656.136-1.011.321-1.436.746-.409.409-.629.878-.659 1.406-.025.447.226 5.137.309 5.76.139 1.049.932 1.942 1.893 2.132.176.035 1.593.41 3.15.832 1.877.51 2.92.769 3.097.769 1.099 0 2.223-1.038 2.299-2.125.022-.301-.065-.809-.565-3.315a403.096 403.096 0 0 1-.65-3.307 2.438 2.438 0 0 0-.506-1.151c-.385-.496-.786-.763-1.305-.87-.598-.123-5.312-.912-5.414-.906a1.729 1.729 0 0 0-.213.029m-11.2.608c-1.32.171-2.544.339-2.72.372a2.312 2.312 0 0 0-1.215.685c-.447.469-.559.707-.73 1.537-.083.405-.429 1.927-.77 3.382-.34 1.455-.618 2.751-.618 2.88.002.549.284 1.186.734 1.658.453.475 1.019.736 1.594.736.125 0 1.542-.309 3.149-.687 1.607-.378 3.035-.703 3.173-.723.376-.053.84-.311 1.18-.656.571-.578.698-.913.81-2.134.045-.491.167-1.781.271-2.866.108-1.121.177-2.081.158-2.222-.162-1.254-1.256-2.303-2.376-2.278-.132.003-1.32.145-2.64.316m13.973 1.844c2.661.451 2.598.431 2.669.86.018.11.293 1.508.61 3.106.402 2.023.563 2.935.528 2.999a.394.394 0 0 1-.141.14c-.065.034-.966-.19-3.068-.763-2.482-.677-2.989-.831-3.058-.93-.066-.094-.114-.654-.24-2.843l-.157-2.725.118-.125c.065-.07.168-.126.229-.127.061 0 1.19.183 2.51.408m-11.158.006c.189.21.186.31-.077 3.05-.24 2.497-.267 2.699-.374 2.814-.064.068-.154.123-.2.124-.046 0-1.392.31-2.991.689l-2.906.689-.127-.124c-.07-.068-.126-.181-.125-.25.001-.069.294-1.373.651-2.898.357-1.526.671-2.905.697-3.064.083-.504-.039-.466 2.57-.809 2.612-.343 2.761-.354 2.882-.221" fill-rule="evenodd" fill="#000"/></svg>
