<svg xmlns="http://www.w3.org/2000/svg" xml:space="preserve" viewBox="0 0 32 32"><path fill-rule="evenodd" d="M20.427 8.403a1.665 1.665 0 0 1-.465.074c-.219.002-.29.025-.333.106-.073.136-.07.195.014.28.038.039.256.538.484 1.11.228.572.763 1.875 1.189 2.896l.774 1.855-.085.179a1.01 1.01 0 0 0-.085.226c0 .026-.11.234-.244.464-.315.538-.496.631-1.246.641l-.51.006-.016.32c-.021.436.036.499.528.585.649.112 1.178-.019 1.558-.388.435-.421.67-.935 2.061-4.517a317.55 317.55 0 0 1 1.394-3.559c.124-.238.081-.259-.497-.243l-.546.015-.117.214c-.064.117-.444 1.174-.844 2.349-.701 2.055-.798 2.318-.841 2.262-.057-.072-1.606-4.331-1.659-4.558-.099-.431-.142-.458-.514-.317m-9.87.044c-.013.013-.211.05-.44.082-.444.061-1.02.295-1.44.584l-.237.163-.026-.274c-.033-.339-.126-.415-.508-.415-.547 0-.493-.478-.493 4.32 0 4.839-.07 4.32.587 4.32.632 0 .587.124.587-1.602v-1.491l.341.234c.43.294.867.459 1.312.495.593.048 1.324-.185 1.828-.582.282-.223.674-.791.818-1.188.251-.692.296-1.908.098-2.668-.236-.905-.904-1.631-1.731-1.88-.229-.069-.663-.13-.696-.098m5.923.033c0 .029-.116.053-.258.053-.142 0-.436.047-.653.104l-.716.188c-.176.047-.35.125-.386.174-.095.125-.087.678.01.759.061.05.172.041.52-.044.989-.241 2.229-.281 2.451-.08.239.216.329.496.355 1.108.023.539.018.579-.069.546-.197-.076-1.015-.195-1.328-.193-1.198.006-1.848.334-2.214 1.116-.181.388-.189.93-.02 1.47.157.504.382.757.877.989.336.157.444.182.764.177.621-.009 1.428-.27 1.796-.58.193-.162.311-.171.311-.024 0 .151.138.404.242.444.138.053.609.038.722-.022.099-.054.103-.137.103-2.478 0-2.316-.005-2.436-.11-2.717a1.533 1.533 0 0 0-.918-.905c-.305-.117-.445-.138-.92-.138-.337 0-.559.021-.559.053m-5.619 1.136c.635.331.961 1.201.915 2.437-.027.712-.116.971-.466 1.35-.313.341-.668.482-1.203.48-.472-.001-.834-.112-1.27-.388l-.25-.159V11.7c0-1.829-.04-1.644.418-1.922.409-.248.581-.288 1.155-.268.359.013.588.048.701.106m6.579 2.456.453.063v1.21l-.345.209c-.683.413-1.358.542-1.761.337-.154-.078-.387-.318-.474-.487-.092-.18-.071-.586.041-.806.12-.234.225-.334.513-.483.25-.13.832-.146 1.573-.043m7.965 6.144c-.457.1-1.169.383-1.341.532-.115.1-.131.138-.077.192.053.055.195.055.72.003.787-.077 1.597-.082 1.855-.01.353.098.399.164.393.57-.006.414-.142.947-.456 1.785-.206.548-.231.739-.097.739.102 0 .688-.595.904-.918.417-.624.722-1.671.684-2.344-.024-.436-.079-.504-.465-.577-.4-.076-1.726-.058-2.12.028m-21.352.872c0 .174.316.493 1.08 1.09 2.518 1.966 5.697 3.159 9.196 3.452 1.197.1 3.158.04 4.178-.129 1.972-.326 3.856-.938 5.386-1.748.63-.334 1.851-1.144 1.922-1.275.129-.242-.02-.531-.272-.531-.048 0-.474.155-.947.344-3.554 1.425-7.444 1.908-11.583 1.438-3.174-.36-6.171-1.271-8.395-2.552-.233-.134-.455-.244-.494-.244-.042 0-.071.062-.071.155"/></svg>
