<svg xmlns="http://www.w3.org/2000/svg" xml:space="preserve" viewBox="0 0 32 32"><path fill-rule="evenodd" d="M15.573 1.975c-1.426.198-2.662.625-3.627 1.252-.473.308-1.337 1.154-1.619 1.587-.599.918-1.074 2.356-.892 2.697a.623.623 0 0 0 .224.199c.218.113 3.526.517 3.697.451.183-.069.342-.3.438-.636.26-.912.959-1.778 1.751-2.169.362-.179.483-.212.844-.229 1.372-.062 2.254.596 2.597 1.937.106.415.212 1.405.213 1.987l.001.331-.173.026c-.096.015-.414.041-.707.059-2.227.133-4.735.64-5.933 1.2-1.575.737-2.77 2.02-3.264 3.508-.303.91-.401 2.134-.246 3.076.21 1.282.691 2.218 1.541 2.996.906.83 2.15 1.248 3.709 1.245 2.18-.003 3.519-.534 4.972-1.972.267-.264.507-.466.534-.449.027.016.229.29.448.607.532.769 1.414 1.625 1.726 1.675.297.047.464-.031.833-.39.176-.172.788-.713 1.36-1.204.572-.49 1.082-.954 1.133-1.032.162-.245.121-.489-.146-.868-.441-.626-.776-1.19-.866-1.459-.078-.236-.093-.747-.123-4.4-.036-4.311-.053-4.65-.289-5.708-.25-1.125-.671-1.93-1.365-2.612-.851-.835-1.991-1.37-3.491-1.634-.515-.091-2.784-.141-3.28-.071M19.2 12.573c-.001.473-.106 1.478-.215 2.053-.214 1.136-.61 2.019-1.178 2.625-.4.428-.735.644-1.261.813-.787.253-1.508.083-2.064-.486-.471-.483-.669-1.035-.668-1.861.002-.96.271-1.652.875-2.253.697-.693 1.31-.924 2.938-1.11.088-.01.478-.022.866-.026l.707-.008v.253m9.92 11.244c-.073.013-.313.049-.533.081-.662.095-1.227.257-1.734.498-.523.249-.791.461-.762.605.015.078.08.092.417.091a16.65 16.65 0 0 0 1.145-.072 15.292 15.292 0 0 1 1.52-.052c.656.016.801.035.955.125.292.173.398.358.422.745.038.586-.213 1.468-.838 2.954-.218.518-.263.674-.214.733.155.187.539-.014.937-.49.245-.294.749-1.058.912-1.382.147-.291.37-1.006.524-1.68.134-.586.174-1.421.08-1.668-.106-.279-.813-.456-1.951-.489-.411-.012-.807-.012-.88.001m-29.069.721c-.105.196.03.374.702.93A23.45 23.45 0 0 0 5.36 28.48c1.218.612 1.877.889 3.067 1.29a23.658 23.658 0 0 0 5.784 1.168c.991.079 3.363.033 4.296-.082a25.99 25.99 0 0 0 6.186-1.574c1.611-.639 4.101-2.05 4.445-2.519.102-.14.102-.148.007-.293-.226-.348-.384-.359-1.054-.076-2.023.855-4.841 1.619-7.291 1.978-2.542.371-5.588.42-8.133.131-4.222-.48-8.082-1.712-11.693-3.733-.655-.367-.828-.41-.923-.232"/></svg>
