<svg xmlns="http://www.w3.org/2000/svg" xml:space="preserve" viewBox="0 0 32 32"><path fill-rule="evenodd" d="M15.947 4.056c-3.887.019-8.117.039-9.4.043l-2.334.008.002 5.026.002 5.027.385-.919.385-.92h.912l.913-.001.082.2.082.2.005-.2.006-.2h2.014l.175.44c.095.242.189.457.207.478.018.022.116-.176.218-.44l.185-.478h3.42c2.904 0 3.455.012 3.647.08.125.044.236.08.247.08.011 0 .02-.036.02-.08 0-.068.133-.08.88-.08s.88.012.88.08c0 .098.009.098.373 0 .226-.061.644-.079 1.821-.079l1.528-.001.098.227.098.226.017-.226.018-.227h.943l.944.001.133.226.134.226.016-.226.016-.227h1.861v3.893h-1.866l-.2-.302-.201-.303-.016.303-.016.302h-2.372l-.144-.293-.144-.293h-.642l-.144.293-.144.293-.775-.003c-.561-.002-.876-.029-1.136-.097-.347-.09-.36-.09-.36.003 0 .092-.084.097-1.467.097h-1.466v-.506c0-.471-.008-.507-.107-.507s-.107.036-.107.507v.506h-5.54l-.02-.226-.019-.227-.098.227-.099.226H8.603l-.099-.226-.098-.227-.019.227-.02.226H6.102l-.144-.293-.144-.293h-.642l-.144.293-.144.293H3.787V28h23.84v-3.55c0-3.357-.005-3.549-.094-3.522-.532.163-.788.192-1.678.192h-.948v-.323l-.147.106a1.242 1.242 0 0 1-.387.16c-.145.033-1.374.055-3.106.056l-2.867.001v-.507c0-.471-.007-.506-.107-.506-.091 0-.106-.036-.106-.24v-.24h.556c.676 0 .703.019.754.536l.037.375.326-.016.327-.015.015-.423c.018-.472-.042-.677-.237-.804l-.131-.086.16-.181c.319-.364.26-.932-.115-1.11-.157-.075-.371-.09-1.287-.09h-1.099v2.774h.694v.533H16.43l-.015-.547c-.012-.454-.028-.543-.095-.526a5.644 5.644 0 0 1-.493.047l-.414.026v-.478l.602-.027c.664-.029.975-.128 1.212-.385.11-.12.133-.199.133-.452 0-.386-.179-.68-.545-.895l-.255-.15-1.283-.016-1.283-.017-.37.426c-.204.235-.395.427-.424.427-.029 0-.219-.191-.421-.423l-.367-.423H9.707v2.826h2.638l.47-.466.47-.467.429.467.429.466h1.164v.48h-1.12c-.616 0-1.121-.018-1.122-.04-.002-.022-.108-.16-.238-.306l-.236-.267-.31.307-.311.306H8.533V17.12l1.8.003 1.8.002.236.294.235.294.299-.297.3-.296 1.412.002c1.09.002 1.46.02 1.625.08.269.096.293.096.293-.002 0-.116 2.288-.116 2.72 0 .365.098.374.098.374 0 0-.069.216-.08 1.626-.08 1.423 0 1.627.01 1.627.081 0 .073.016.073.157 0 .235-.121 2.563-.121 2.563.001 0 .07.018.072.12.013.079-.045.436-.077 1.053-.095l.934-.027.013-6.546L27.734 4l-2.36.011-9.427.045m5.478 8.915c-.04.097-.239.589-.442 1.095l-.37.919-.276.001c-.384.001-.541-.071-.633-.291-.105-.252-.099-.779.013-1.013l.089-.189h.887v-.598l-.573.02c-.76.027-.973.135-1.225.623-.157.304-.175.384-.175.788 0 .494.062.696.297.975.241.287.519.38 1.237.414l.626.03.16-.312.16-.313.693-.014.694-.015.16.308.16.308h1.386l.015-1.036.014-1.036.647 1.049.647 1.049h.891v-2.826h-.694v.963c0 .53-.02.95-.046.935-.025-.016-.295-.449-.6-.962l-.554-.934-.519-.001-.519-.001-.014 1.232-.014 1.233-.516-1.273-.515-1.272-.51-.016-.51-.015-.071.175m-15.903.109-.584 1.365c-.281.655-.511 1.214-.511 1.242 0 .029.144.045.333.036l.333-.016.16-.307.16-.306h1.174l.16.306.16.307h1.386l.027-1.05.027-1.051.449.997c.247.548.472 1.027.5 1.064.028.037.164.066.304.066.14 0 .276-.029.304-.066.028-.037.253-.516.5-1.064l.449-.997.027 1.051.027 1.05h.693l.014-1.402.014-1.402-.571.015-.572.015-.305.72c-.168.396-.344.816-.39.933l-.085.212-.443-.932-.443-.933-.569-.015-.568-.015-.014 1.289-.015 1.289-.258-.634c-.142-.348-.378-.928-.526-1.287l-.267-.653H5.595l-.073.173M12 14.32v1.413h2.187v-.64h-1.6v-.477l.76-.015.76-.014.016-.279.016-.278-.763-.015-.763-.015-.016-.253-.016-.254h1.606v-.586H12v1.413m2.613 0v1.413h.694V14.72h.551c.688 0 .717.023.739.588l.016.399h.694l-.011-.507c-.01-.495-.014-.51-.179-.657l-.168-.151.109-.116a.988.988 0 0 0 .165-.266c.087-.229.07-.687-.03-.83-.166-.238-.363-.273-1.511-.273h-1.069v1.413m3.094 0v1.413h.693v-2.826h-.693v1.413m-11.539-.329.22.489-.206.016a3.57 3.57 0 0 1-.439 0l-.234-.016.186-.521c.103-.287.202-.507.219-.49.018.018.132.253.254.522M22.073 14l.216.48-.21.016a3.62 3.62 0 0 1-.442 0l-.232-.016.189-.519c.103-.286.205-.502.226-.48.02.021.134.255.253.519m-5.553-.401c.201.123.212.175.07.318-.144.143-.443.216-.897.216h-.386v-.64l.52.001c.424 0 .552.019.693.105m11.487 3.908-.007.2h-.76c-.664 0-.782.013-.934.106-.29.177-.395.4-.373.794.018.31.036.355.209.514.207.189.559.292.999.292.373 0 .549.242.358.494-.062.081-.169.093-.825.093h-.754v.587l.84-.001c.771-.001.857-.011 1.048-.12.372-.214.491-.627.332-1.158-.104-.348-.374-.481-.979-.481-.505 0-.654-.054-.654-.236 0-.236.192-.298.931-.298h.669v-.235c0-.139-.028-.247-.067-.263-.044-.018-.048-.042-.012-.071.031-.025.04-.125.02-.231l-.034-.186-.007.2m-7.408 1.6.014 1.4H22.8v-.587l-.787-.015-.786-.015v-.583h1.493v-.587h-1.493v-.27c0-.232.013-.267.093-.245.051.015.411.043.8.062l.707.036v-.596h-2.242l.014 1.4m2.702-1.287c-.262.152-.39.387-.39.713 0 .535.333.809 1.045.861.517.037.641.098.62.31l-.016.163-.68.015-.68.015v.652l.822-.028c.901-.03 1.126-.093 1.331-.374.149-.203.182-.711.062-.962-.129-.273-.38-.358-1.046-.358-.596 0-.742-.048-.742-.241 0-.219.228-.293.904-.293h.589v-.586l-.813.001c-.727.001-.834.013-1.006.112m-8.796 1.393-.001 1.08-.476-.506c-.262-.279-.478-.539-.479-.578-.002-.06.885-1.076.939-1.076.01 0 .018.486.017 1.08m-2.263-.52c.255.285.343.419.307.467-.028.037-.188.241-.356.453l-.304.387h-1.702v-.584l.76-.015.76-.014.016-.279.016-.278-.763-.015-.763-.015-.016-.253-.016-.254h1.703l.358.4m4.078-.331c.169.085.211.373.075.523-.079.088-.168.102-.643.102H15.2v-.694l.493.001c.289.001.549.029.627.068m2.978.122c.22.11.218.261-.005.397-.139.085-.269.105-.666.105l-.494.001V18.4h.499c.346 0 .55.026.666.084"/></svg>
