<svg width="33" height="32" xmlns="http://www.w3.org/2000/svg"><path d="M23.939 4.092c-1.204.394-2.13 1.998-2.655 4.598-.65 3.216-.649 6.995.003 10.181.694 3.397 2.054 5.052 3.771 4.587 1.496-.405 2.523-2.637 3.024-6.573.119-.928.169-4.25.081-5.304-.249-2.978-.893-5.315-1.797-6.517-.502-.668-1.06-.996-1.751-1.028-.283-.013-.527.007-.676.056m-2.791.839c-.333.105-3.467 1.079-6.965 2.165-3.497 1.086-6.467 2.017-6.6 2.07a3.809 3.809 0 0 0-1.971 1.857c-.344.72-.33.417-.331 7.587-.001 5.763.009 6.576.085 6.87.296 1.14 1.163 2.016 2.365 2.387.443.136 2.264.139 2.871.003 1.04-.233 1.661-.784 1.663-1.477 0-.239-1.082-3.83-1.231-4.084-.292-.499-.872-.87-1.536-.983-.441-.075-.884-.016-.848.114l.644 2.227c.34 1.174.607 2.145.595 2.157-.012.013-.295.039-.629.06-.813.049-1.108-.022-1.461-.352-.427-.4-.429-.412-.429-3.236 0-1.339.019-2.444.041-2.456.023-.012 3.33.73 7.349 1.65 4.019.919 7.318 1.661 7.331 1.647.034-.033-.548-1.037-.839-1.447-.443-.625-.966-.99-1.756-1.222-.211-.063-2.995-.712-6.186-1.444-3.191-.731-5.835-1.356-5.875-1.387-.058-.045-.068-.58-.055-2.755.017-2.623.021-2.707.135-2.954.164-.354.461-.664.773-.807.145-.067 2.726-.878 5.734-1.802 3.009-.925 5.601-1.743 5.761-1.819a3.71 3.71 0 0 0 1.687-1.685c.183-.386.34-.919.301-1.023-.01-.028-.291.034-.623.139m3.599 1.563c.513.833.95 2.43 1.189 4.341.119.947.167 3.871.082 4.931-.194 2.422-.739 4.585-1.361 5.4l-.143.188-.104-.131c-.424-.534-.877-1.909-1.15-3.485-.16-.928-.174-.88.266-.883.782-.005 1.319-.557 1.621-1.667.155-.568.171-2.13.028-2.758-.268-1.178-.916-1.827-1.745-1.748-.271.026-.275.024-.275-.126 0-.239.263-1.616.419-2.196.078-.287.226-.743.33-1.012.192-.5.542-1.133.625-1.133.026 0 .124.125.218.279m-6.102 2.434c-.406.091-.849.342-1.085.613-.31.355-.444.713-.588 1.575-.228 1.359-.277 1.987-.276 3.514.002 1.562.084 2.414.305 3.158.097.328.16.429.452.72.504.503 1.161.715 1.806.581l.303-.063-.179-.536c-.73-2.179-.675-5.614.145-9.055.108-.452.093-.521-.113-.525a3.434 3.434 0 0 1-.275-.026 1.763 1.763 0 0 0-.495.044" fill="#A12577" fill-rule="evenodd"/></svg>
