<svg xmlns="http://www.w3.org/2000/svg" viewBox="0 0 20 20">
    <path fill="#A12577" fill-rule="evenodd" d="M15.76.364c-1.241.397-2.079 2.391-2.412 5.736-.073.733-.102 2.645-.051 3.422.159 2.454.632 4.418 1.32 5.482.188.291.533.657.75.796.347.223.769.303 1.158.221 1.04-.219 1.819-1.474 2.272-3.662.418-2.023.515-4.407.267-6.642-.347-3.138-1.212-5.053-2.426-5.369a1.87 1.87 0 0 0-.878.016m-2.36.71c-.339.108-2.837.892-5.55 1.744-2.713.851-5.025 1.587-5.137 1.634-.339.142-.61.318-.887.579C1.304 5.52.994 6.098.9 6.759c-.026.181-.034 1.81-.026 5.474.011 5.873-.014 5.332.274 5.917.27.546.655.931 1.202 1.202.486.241.707.281 1.53.281.967 0 1.446-.077 1.898-.305.383-.194.586-.453.657-.841.036-.19.033-.201-.403-1.697-.241-.829-.478-1.582-.526-1.673a1.913 1.913 0 0 0-.699-.676 1.933 1.933 0 0 0-.95-.197c-.129.011-.248.034-.265.051-.02.02.157.694.474 1.804.279.975.497 1.783.484 1.795-.012.013-.292.028-.622.034-.591.011-.602.009-.779-.077-.235-.115-.467-.373-.532-.594-.042-.143-.05-.484-.05-2.184v-2.015l.125.021c.068.012 2.712.62 5.875 1.351 3.162.732 5.752 1.328 5.755 1.325.013-.012-.5-.909-.629-1.1-.314-.464-.699-.788-1.169-.983-.162-.067-1.825-.469-5.057-1.223-2.65-.617-4.836-1.138-4.86-1.157-.034-.028-.04-.479-.033-2.222l.009-2.187.081-.2c.091-.227.402-.563.61-.66.068-.032 2.1-.673 4.516-1.424 2.988-.929 4.479-1.408 4.66-1.497.783-.383 1.385-1.131 1.551-1.927.068-.325.095-.321-.601-.101m2.978 1.17c.506.762.914 2.482 1.055 4.439.043.601.043 2.36-.001 2.984-.119 1.717-.467 3.298-.919 4.166a3.65 3.65 0 0 1-.211.366c-.062.081-.065.081-.131.021-.097-.087-.353-.596-.489-.97-.204-.564-.419-1.499-.526-2.283l-.043-.317h.318c.291 0 .334-.009.498-.099.501-.277.828-.993.902-1.972.089-1.174-.199-2.286-.692-2.674-.249-.195-.331-.222-.684-.222h-.329l.022-.214c.091-.888.437-2.218.747-2.87.117-.248.298-.532.338-.532.015 0 .08.079.145.177m-4.997 2.055a1.635 1.635 0 0 0-.968.857c-.124.279-.274 1.136-.386 2.211-.058.556-.058 2.433 0 2.9.064.515.161 1.064.216 1.217.239.663 1.022 1.11 1.732.988.132-.023.252-.053.266-.067.014-.014-.02-.159-.075-.323-.569-1.674-.602-3.922-.097-6.561.056-.291.137-.681.181-.867.052-.218.068-.349.047-.37-.017-.018-.185-.036-.373-.041-.267-.008-.384.005-.543.056"/>
</svg>
