<svg xmlns="http://www.w3.org/2000/svg" xml:space="preserve" viewBox="0 0 33 33"><path d="M8.367 11.853a3.062 3.062 0 0 0-.499.3c-.264.208-.556.754-.57 1.061-.01.217 0 .235.141.251.364.042 1.114-.5 1.336-.965.055-.114.111-.337.124-.496.023-.274.018-.289-.106-.288-.072 0-.263.062-.426.137m4.338 4.097v3.63h1.1v-2.475h.951c1.36 0 1.838-.149 2.408-.751.985-1.042.797-2.87-.376-3.647-.524-.347-.782-.387-2.521-.387h-1.562v3.63m3.245-2.552c.247.14.332.229.464.485.14.272.162.375.163.764.001.537-.081.806-.332 1.084-.33.366-.63.453-1.658.483l-.896.025.03-.653c.016-.359.044-1.046.063-1.525l.033-.872.915.019c.907.019.918.021 1.218.19m-7.389.243a3.865 3.865 0 0 0-.632.193c-.456.182-.598.182-1.081-.003-.334-.128-.44-.144-.792-.118-.914.067-1.501.591-1.796 1.603-.14.484-.088 1.437.113 2.064.336 1.048.99 2.002 1.524 2.225.289.12.569.106 1.022-.053.236-.082.515-.137.696-.137.189 0 .44.052.668.137.384.145.692.173.923.085.373-.141 1.01-.98 1.27-1.671l.13-.346-.193-.104c-.287-.154-.709-.645-.81-.941a2.145 2.145 0 0 1-.033-1.067c.083-.299.355-.691.607-.873l.227-.165-.259-.277c-.434-.463-.988-.657-1.584-.552m11.524.607c-.831.148-1.445.71-1.574 1.441l-.036.206h.519c.498 0 .52-.005.551-.129.098-.39.516-.642 1.064-.64.727.003 1.06.29 1.061.916 0 .4.05.376-.908.432-1.138.067-1.722.245-2.101.64-.217.227-.321.509-.371 1.015-.069.681.15 1.095.727 1.379.279.137.376.154.838.154.655 0 1.023-.134 1.457-.531l.303-.277v.836h1.1v-1.922c0-1.149-.024-2.032-.058-2.195-.119-.554-.522-.988-1.129-1.215-.349-.13-1.033-.183-1.443-.11m3.138.011.95 2.704.926 2.635-.098.28c-.2.572-.484.802-.991.802h-.305v.935h.327c.4 0 .843-.09 1.11-.224.282-.143.629-.559.844-1.012.178-.373 2.174-5.999 2.174-6.126 0-.043-.181-.063-.575-.063h-.576l-.13.426a381.33 381.33 0 0 0-.645 2.174c-.283.961-.53 1.728-.55 1.705-.019-.024-.316-1.002-.66-2.174l-.625-2.131h-.6c-.457 0-.595.016-.576.069m-1.627 3.325c-.048.518-.239.814-.666 1.033-.59.301-1.375.198-1.634-.215-.249-.396.045-.885.612-1.022.263-.063 1.013-.142 1.481-.157l.242-.008-.035.369" fill-rule="evenodd"/></svg>
