<svg xmlns="http://www.w3.org/2000/svg" xml:space="preserve" viewBox="0 0 32 32"><path fill-rule="evenodd" d="M18.55 5.332c-1.058.223-2.147.865-2.832 1.67-.854 1.003-1.319 2.224-1.318 3.462.001.703.069 1.116.289 1.763.552 1.622 1.911 2.867 3.635 3.33.482.129.617.142 1.516.143.902.002 1.031-.01 1.506-.139.894-.243 1.626-.622 2.24-1.161.257-.225.31-.256.23-.133a17.373 17.373 0 0 0-.89 1.49l-.227.443-.51.036c-1.381.096-3.43.387-4.123.586l-.255.074-.327-.355c-1.616-1.747-4.596-4.412-6.711-6.003C7.553 8.116 4.437 6.396 1.92 5.65.744 5.301.092 5.224.015 5.425c-.057.148.177.277.892.49 1.16.347 3.075 1.337 4.8 2.483 2.262 1.503 4.293 3.249 6.826 5.871 1.232 1.274 2.977 3.207 2.928 3.242-.012.008-.237.094-.501.192-1.698.629-3.943 1.733-6.133 3.017-.762.447-2.917 1.756-3.252 1.976-.086.057-.144.08-.127.051l.305-.513a16.04 16.04 0 0 0 1.093-2.314c.452-1.254.74-2.511 1.174-5.12.529-3.178.586-4.309.188-3.76-.06.083-.278.951-.582 2.32-.559 2.513-.662 2.937-.995 4.107-.598 2.099-1.302 3.552-2.466 5.089-2.088 2.756-2.051 2.698-1.932 3.093.085.287.33.484.6.484.28 0 .584-.16 1.631-.86 2.442-1.633 6.194-3.566 9.349-4.819.975-.387 3.078-1.147 3.174-1.147.009 0 .311.342.672.76.361.418.959 1.108 1.329 1.533.37.425.846.994 1.057 1.264.479.609.786.791 1.271.751.269-.023.323-.048.502-.24.251-.27.377-.663.556-1.738.174-1.041.514-2.372.785-3.07l.214-.554 1.154.028c1.712.041 2.484.214 2.926.653.188.187.227.26.227.429 0 .287-.18.624-.538 1.006-.37.397-.647.554-1.366.774-.629.193-.763.309-.762.664 0 .489.291.721 1.427 1.136 1.775.649 2.427 1.342 2.046 2.177-.223.49-.623.8-1.31 1.017-.788.249-1.671.23-2.575-.055-.487-.155-1.364-.675-1.829-1.086-.357-.315-.497-.339-.522-.089-.012.124.042.231.242.48.49.61 1.382 1.163 2.309 1.431 2.506.724 4.681-.311 4.69-2.232.004-.749-.457-1.305-1.727-2.085-.281-.173-.511-.33-.511-.349-.001-.019.137-.113.306-.207.461-.259 1.078-.911 1.314-1.389.651-1.32.195-2.478-1.257-3.192-.819-.403-2.09-.694-3.044-.696-.198-.001-.36-.014-.36-.031 0-.079.558-1.196.828-1.659 1.519-2.597 3.549-4.696 6.013-6.215.779-.48.893-.567.893-.679 0-.161-.192-.269-.38-.216-.086.025-.498.232-.915.459-.417.228-.989.536-1.27.686-1.167.621-2.719 1.947-3.931 3.36-.706.824-.674.805-.487.293.233-.637.32-1.152.321-1.901.001-.696-.054-1.1-.228-1.663-.544-1.764-2.124-3.129-4.079-3.525-.704-.143-1.763-.145-2.428-.005m2.383 1.496c1.124.351 1.968 1.046 2.43 1.999.306.633.387 1.044.355 1.813-.046 1.101-.361 1.849-1.081 2.569-.361.36-.523.477-.937.675-1.264.606-2.553.607-3.769.003-.855-.424-1.45-1.115-1.775-2.06-.793-2.308.474-4.584 2.831-5.084.501-.107 1.467-.064 1.946.085m.827 11.591c0 .01-.105.244-.234.52a11.8 11.8 0 0 0-.433 1.123l-.199.623-.454-.623c-.25-.342-.584-.769-.741-.948l-.286-.326.307-.085c.653-.18 2.04-.373 2.04-.284"/></svg>
