<svg xmlns="http://www.w3.org/2000/svg" viewBox="0 0 9 16">
    <path fill="#A12577" fill-rule="evenodd" d="M7.244.144c-.036.038-.35.343-.697.679L5.37 1.966c-.474.462-1.198 1.162-2.423 2.341-.173.166-.52.503-.772.748a9.262 9.262 0 0 1-.548.505c-.112.077-.499.44-.691.649-.335.365-.51.639-.6.941a1.707 1.707 0 0 0-.024.71c.103.499.385.865 1.263 1.639.128.113 1.535 1.484 3.127 3.046l2.896 2.842.052-.039c.207-.154.452-.423.596-.656.456-.734.42-1.582-.094-2.264-.091-.121-.434-.462-1.672-1.667-1.568-1.524-2.556-2.476-2.635-2.539a.515.515 0 0 1-.105-.106 1.387 1.387 0 0 0-.191-.192c-.153-.137-.339-.335-.339-.361 0-.02 1.08-1.085 1.433-1.414.181-.169.492-.456.689-.637.198-.181.698-.653 1.11-1.049.413-.397.833-.79.933-.874.477-.401.767-.852.884-1.377.036-.163.044-.54.015-.712a2.074 2.074 0 0 0-.35-.844A2.5 2.5 0 0 0 7.349.1C7.311.076 7.31.076 7.244.144"/>
</svg>
