<svg xmlns="http://www.w3.org/2000/svg" viewBox="0 0 16 9">
    <path fill="#A12577" fill-rule="evenodd" d="M8 .065c-.413.115-.843.446-1.38 1.063-.128.148-1.538 1.6-3.133 3.228-1.595 1.627-2.9 2.971-2.9 2.985 0 .051.444.48.617.595.783.521 1.714.469 2.423-.136.145-.123 1.11-1.11 3.171-3.241C8.102 3.211 8.376 2.933 8.4 2.933c.029 0 1.303 1.32 1.879 1.948.249.271.796.852 1.216 1.292.421.44.84.888.931.996.304.356.732.643 1.161.778.287.09.711.102.999.03a2.091 2.091 0 0 0 1.058-.627c.285-.31.33-.206-.433-.996-.365-.378-.911-.939-1.212-1.247-1.579-1.617-3.464-3.577-3.545-3.688-.149-.2-.905-.946-1.081-1.064a2.102 2.102 0 0 0-.586-.292C8.622.019 8.161.02 8 .065"/>
</svg>
