<svg width="33" height="32" xmlns="http://www.w3.org/2000/svg"><path d="M16.167 11.79c-.345.123-.686.402-1.297 1.061-.329.355-1.847 1.941-3.375 3.526-1.528 1.584-2.786 2.906-2.797 2.937-.035.097.562.626.884.783a2.016 2.016 0 0 0 1.744.02c.277-.126.978-.81 2.862-2.792l1.809-1.897.684-.715.519.55c.285.302.768.822 1.074 1.155 2.916 3.169 2.932 3.185 3.388 3.401.33.157.416.173.889.173.48 0 .554-.015.886-.178.327-.161.873-.643.873-.771 0-.025-.637-.715-1.416-1.532-2.849-2.988-4.076-4.292-4.382-4.654-.381-.452-.847-.84-1.215-1.012a1.67 1.67 0 0 0-1.13-.055" fill="#A12577" fill-rule="evenodd"/></svg>
