<svg xmlns="http://www.w3.org/2000/svg" viewBox="0 0 16 9">
    <path fill="#A12577" fill-rule="evenodd" d="M13.637.078a2.269 2.269 0 0 0-.717.356c-.131.099-1.806 1.806-3.852 3.926-.779.807-.973 1-1.002 1-.045 0-1.108-1.086-1.84-1.88-.352-.381-.927-.993-1.279-1.36a59.043 59.043 0 0 1-.854-.906C3.727.805 3.555.668 3.187.492a1.833 1.833 0 0 0-.969-.193 1.796 1.796 0 0 0-.921.266c-.2.118-.527.413-.643.581-.066.094-.07.113-.037.158.02.029.492.518 1.05 1.088C3.622 4.39 5.98 6.844 6.088 6.994c.123.17.732.767.939.92.667.495 1.35.51 2.003.045.197-.141.578-.512.862-.839.108-.125 1.494-1.55 3.079-3.168 1.585-1.618 2.886-2.959 2.891-2.98.014-.062-.442-.495-.67-.637a2.688 2.688 0 0 0-.44-.21c-.204-.072-.274-.083-.579-.09-.278-.007-.384.002-.536.043"/>
</svg>
