<svg width="32" height="32" xmlns="http://www.w3.org/2000/svg"><path d="M16.359 10.549a407.087 407.087 0 0 1-3.2 3.323c-.97.979-1.132 1.261-1.132 1.967 0 .684.14.908 1.333 2.135.528.544 2.027 2.122 3.331 3.508l2.371 2.519.218-.214c.426-.418.72-1.083.72-1.627 0-.335-.145-.824-.335-1.129-.094-.151-1.012-1.156-2.038-2.232a3805.911 3805.911 0 0 1-2.332-2.445c-.255-.268-.465-.501-.466-.518-.004-.058 1.135-1.251 2.746-2.876.886-.895 1.688-1.747 1.78-1.893.222-.351.378-.87.378-1.254 0-.605-.313-1.288-.76-1.656l-.184-.152-2.43 2.544" fill="#A12577" fill-rule="evenodd"/></svg>
