<svg width="32" height="32" xmlns="http://www.w3.org/2000/svg"><path d="M21.655 12.085c-.599.161-.625.186-3.282 3.037l-2.015 2.16-.523.558-.539-.559a52.23 52.23 0 0 1-1.156-1.254 199.54 199.54 0 0 0-2.729-2.996 2.421 2.421 0 0 0-.675-.507c-.339-.167-.394-.177-.922-.177-.536 0-.575.008-.892.179-.298.162-.765.57-.873.764-.03.053.248.386.95 1.139 2.869 3.075 4.415 4.749 4.861 5.265.856.991 1.298 1.281 1.953 1.286.658.004 1.071-.263 1.918-1.241.244-.282 1.754-1.9 3.356-3.597l2.911-3.085-.131-.172c-.273-.357-.773-.684-1.228-.803-.383-.1-.603-.099-.984.003" fill="#A12577" fill-rule="evenodd"/></svg>
