<svg xmlns="http://www.w3.org/2000/svg" viewBox="0 0 9 16">
    <path fill="#A12577" fill-rule="evenodd" d="M.833.687a2.663 2.663 0 0 0-.607.751 1.979 1.979 0 0 0-.112 1.536c.022.059.073.174.114.255.151.296.208.358 1.433 1.551 1.751 1.706 2.942 2.857 3.046 2.944a.831.831 0 0 1 .127.126c.017.026.113.122.211.213.099.09.214.204.256.252l.076.088-.48.475c-.571.565-.88.858-1.492 1.419-.252.23-.815.761-1.253 1.179-.437.419-.865.822-.952.896-.506.433-.767.84-.887 1.385a2.273 2.273 0 0 0-.009.758c.063.294.197.597.361.815.111.147.384.416.51.501l.087.059.378-.375c.417-.413 1.258-1.23 2.469-2.398l1.211-1.17c1.072-1.039 1.565-1.506 1.647-1.562.112-.075.589-.537.761-.736.306-.353.464-.628.53-.926.02-.092.024-.164.018-.373-.006-.228-.012-.272-.048-.385-.139-.43-.459-.828-1.148-1.425a322.328 322.328 0 0 1-3.156-3.071A434.094 434.094 0 0 0 .968.585a.77.77 0 0 0-.135.102"/>
</svg>
