<svg width="33" height="32" xmlns="http://www.w3.org/2000/svg"><path d="M12.901 10.286a3.045 3.045 0 0 0-.433.647c-.161.339-.175.415-.175.921 0 .512.012.577.182.921.19.386.515.743 3.71 4.071l1.257 1.309-.292.338c-.161.186-1.132 1.188-2.157 2.226-1.026 1.038-1.926 1.968-2 2.066a2.675 2.675 0 0 0-.452 1.072c-.073.412-.012.821.187 1.257.148.323.616.859.727.834.039-.008.978-.968 2.087-2.133a387.819 387.819 0 0 1 3.151-3.273c1.4-1.426 1.519-1.611 1.519-2.365 0-.446-.016-.524-.165-.797-.097-.178-.469-.618-.907-1.072a655.757 655.757 0 0 1-3.346-3.534 320.862 320.862 0 0 0-2.619-2.764c-.008 0-.131.124-.274.276" fill="#A12577" fill-rule="evenodd"/></svg>
