<svg xmlns="http://www.w3.org/2000/svg" viewBox="0 0 35 35"><path fill="#A12577" fill-rule="evenodd" d="M17.413.033c-.065.014-.262.055-.438.09-.436.087-1.177.442-1.62.778-1.506 1.141-2.027 3.321-1.213 5.081.435.943 1.333 1.804 2.203 2.113l.28.099v1.723h-1.881c-2.151 0-2.676.055-3.651.381a7.868 7.868 0 0 0-3.822 2.84c-.585.822-1.112 2.069-1.274 3.015l-.068.397-.646.034c-1.361.07-2.604.629-3.594 1.615-.737.735-1.235 1.606-1.527 2.674-.18.659-.181 2.064-.002 2.723.281 1.031.69 1.785 1.352 2.492.721.77 1.423 1.241 2.281 1.533.598.204.638.188.34-.131-.353-.38-.498-.632-.607-1.061-.156-.606.032-1.36.445-1.787l.173-.179-.226-.182c-.265-.212-.617-.722-.745-1.077-.47-1.3.088-2.756 1.28-3.341.404-.198.869-.321 1.213-.321h.166l.015 2.223.015 2.223.321.117c.277.1.417.217 1.021.853 1.07 1.127 1.531 1.584 1.6 1.584.044 0 .063-1.409.063-4.757 0-5.422-.013-5.258.465-6.239.619-1.273 1.682-2.149 3.012-2.482.458-.114.612-.118 4.958-.1 4.457.018 4.488.019 4.912.149 1.857.57 3.226 1.958 3.813 3.866l.134.434.017 7.277.017 7.277H8.867v-1.085l-.587-.065c-.831-.093-1.309-.327-1.959-.962l-.488-.476V35h23.392v-7.058h.255c.635 0 1.708-.278 2.37-.613a5.879 5.879 0 0 0 2.637-2.76c1.166-2.57.217-5.713-2.173-7.199-.831-.518-1.665-.778-2.72-.849l-.616-.042-.134-.467a8.511 8.511 0 0 0-4.31-5.19c-1.241-.631-2.135-.844-3.724-.888l-1.152-.032v-1.85l.221-.112c.691-.353 1.407-1.094 1.78-1.844.351-.707.418-1.014.415-1.896-.002-.684-.022-.846-.151-1.235-.241-.722-.535-1.19-1.093-1.741-.551-.542-1.172-.907-1.842-1.082-.349-.09-1.354-.16-1.575-.109m.979 3.094c.759.383.951 1.255.414 1.882-.539.629-1.539.512-1.933-.226-.2-.373-.168-.887.076-1.234.323-.459.986-.652 1.443-.422m-5.243 14.141c-.818.163-1.509.841-1.745 1.712-.16.592-.107 1.353.131 1.86.232.497.689.985 1.117 1.194.283.139.398.161.853.161.478.001.563-.017.915-.191 1.204-.592 1.687-2.24 1.033-3.522-.163-.32-.601-.781-.917-.967-.255-.149-.809-.31-1.032-.299a3.222 3.222 0 0 0-.355.052m7.852.031c-1.158.323-1.905 1.556-1.709 2.821.132.852.652 1.595 1.344 1.919.286.134.412.157.86.157.456 0 .568-.021.855-.162 1.529-.751 1.834-2.956.579-4.184-.544-.532-1.262-.737-1.929-.551m9.009 2.332c1.294.337 2.169 1.664 1.964 2.978a2.816 2.816 0 0 1-1.243 1.898c-.322.206-.946.401-1.286.401h-.22v-5.366h.221c.122 0 .376.04.564.089M5.046 25.076c-.27.124-.402.258-.498.503-.088.228-.081.631.015.815.116.221 2.611 2.931 2.854 3.099.431.299.586.315 3.063.315 1.262 0 2.295-.006 2.295-.014s-.057-.159-.126-.336c-.101-.257-.127-.45-.131-.977l-.005-.656-1.517-.001c-2.476-.001-2.531-.028-4.473-2.146-.642-.7-.971-.834-1.477-.602m10.378 1.005c-1.506.247-2.373 1.903-1.723 3.292.554 1.185 1.909 1.674 3.08 1.11 1.379-.663 1.75-2.463.751-3.631a2.348 2.348 0 0 0-2.108-.771"/></svg>
