<svg xmlns="http://www.w3.org/2000/svg" width="32" height="32"><path fill="#A12577" fill-rule="evenodd" d="M5.554.058C3.441.325 1.592 1.825.859 3.866c-.342.952-.317-.034-.317 12.125S.517 27.164.859 28.116a5.777 5.777 0 0 0 3.625 3.555c.974.326.426.311 10.964.311 8.368 0 9.656-.01 10.056-.079 2.674-.46 4.614-2.583 4.875-5.337.071-.743.07-20.672 0-21.348-.14-1.337-.639-2.423-1.553-3.38a6.892 6.892 0 0 0-.849-.75 7.076 7.076 0 0 0-1.989-.917l-.542-.143L15.681.02C10.264.015 5.755.032 5.554.058m19.814 2.956c.964.321 1.673 1.021 2.024 1.998l.12.336.015 7.112.014 7.113-2.107.023c-1.917.02-2.152.032-2.608.134-2.042.454-3.735 1.642-4.976 3.494-1.026 1.532-1.627 3.497-1.627 5.324v.54l-5.05-.001c-5.611-.001-5.435.009-6.155-.345-.712-.351-1.278-1.051-1.539-1.901-.091-.297-.095-.763-.095-10.85 0-10.079.004-10.554.095-10.847.219-.712.608-1.275 1.14-1.655.408-.291.875-.487 1.293-.542.173-.023 4.557-.039 9.743-.035 8.992.007 9.442.012 9.713.102m2.272 21.282c-.001.945-.023 1.885-.05 2.088a2.865 2.865 0 0 1-.498 1.324c-.312.459-.672.77-1.181 1.022-.702.348-.791.356-3.914.357l-2.777.001v-.535c0-2.623 1.662-5.104 3.865-5.769.587-.178.791-.192 2.735-.199l1.822-.007-.002 1.718"/></svg>
