<svg width="33" height="32" xmlns="http://www.w3.org/2000/svg"><path d="M23.563 5.559a3.895 3.895 0 0 0-2.086.841c-.151.125-2.18 2.031-4.509 4.237-2.33 2.206-4.302 4.071-4.382 4.145-.141.13-.19.137-1.291.188-1.264.058-1.564.123-2.076.452-.538.345-.974.993-1.056 1.569-.02.138-.369 1.712-.776 3.497-.692 3.031-.739 3.273-.717 3.684.035.62.193.997.602 1.434.406.435.927.709 1.511.797l.396.06 3.592-.775c1.975-.426 3.728-.802 3.894-.835a2.517 2.517 0 0 0 1.717-1.348c.154-.33.177-.446.221-1.143.027-.426.061-.877.076-1.002.025-.22.167-.362 4.492-4.498 2.457-2.349 4.572-4.413 4.702-4.585.306-.41.58-.977.735-1.525.161-.566.176-1.773.029-2.337a3.57 3.57 0 0 0-1.911-2.326c-.847-.406-2.156-.625-3.163-.53m-17.808.077c-.513.182-.922.709-.957 1.23-.017.24.023.462.174.972.108.362.262.886.343 1.164l.148.504-.34 1.146c-.202.68-.339 1.246-.338 1.393.004.754.846 1.495 1.61 1.417.128-.013.747-.168 1.376-.344l1.144-.322 1.166.323c1.31.362 1.654.397 2.079.207.319-.142.638-.458.776-.77.176-.399.141-.701-.228-1.941l-.335-1.126.331-1.107c.448-1.497.443-1.804-.035-2.335a1.82 1.82 0 0 0-.487-.363c-.439-.205-.759-.176-2.096.192l-1.162.319-1.176-.32c-1.241-.337-1.598-.38-1.993-.239m19.221 2.23c.59.132.748.206 1.009.476.5.514.546 1.746.089 2.412-.11.162-1.729 1.753-3.689 3.626l-3.492 3.337-.041-.457a14.578 14.578 0 0 0-.055-.547c-.009-.056 1.123-1.164 3.083-3.017 1.703-1.61 3.089-2.933 3.08-2.94a68.49 68.49 0 0 1-.802-.764c-.432-.414-.809-.752-.838-.752-.042 0-3.922 3.676-5.637 5.341l-.331.32-.274-.08a4.742 4.742 0 0 0-.658-.122l-.382-.041 3.134-2.998c4.136-3.956 3.878-3.721 4.188-3.817.377-.116 1.034-.106 1.616.023m-16.868.44c.681.205.906.205 1.624 0 .315-.09.581-.156.59-.147.01.009-.056.235-.146.502-.256.756-.259.892-.035 1.622.106.348.188.635.182.64a6.757 6.757 0 0 1-.505-.181c-.721-.275-1.029-.288-1.697-.073-.297.096-.553.162-.568.148-.014-.015.05-.265.143-.555.093-.291.169-.628.169-.749 0-.122-.084-.48-.187-.797-.102-.317-.171-.576-.151-.575.02 0 .281.074.581.165m8.338 8.95c.004.526-.295 5.382-.334 5.425-.024.026-1.624.388-3.554.803-3.208.69-3.512.747-3.528.655-.009-.055.319-1.536.729-3.291s.746-3.252.746-3.328c0-.098.036-.147.124-.167.157-.038 4.628-.287 5.307-.296l.509-.007.001.206" fill="#A12577" fill-rule="evenodd"/></svg>
