<svg xmlns="http://www.w3.org/2000/svg" xml:space="preserve" viewBox="0 0 32 32"><path fill-rule="evenodd" d="M12.769 5.096c-.341.126-.539.381-1.064 1.37l-.488.921-.884.506c-.98.563-1.061.624-1.247.941-.29.494-.184 1.087.267 1.498.121.111.588.394 1.036.628l.816.427.46.876c.492.939.708 1.227 1.051 1.402.445.227 1.099.082 1.399-.311.076-.1.349-.581.606-1.068l.467-.887.9-.478c.494-.262.979-.553 1.077-.646.366-.347.496-.783.357-1.202-.145-.438-.386-.642-1.362-1.155-.484-.255-.908-.49-.943-.524-.035-.033-.26-.433-.501-.887-.24-.455-.494-.904-.565-.999-.294-.396-.921-.582-1.382-.412m.723 3.196c.245.442.386.58.884.858.189.106.356.212.371.237.016.025-.205.173-.49.329l-.519.284-.229.451a4.742 4.742 0 0 1-.277.498c-.027.027-.186-.151-.379-.424-.383-.544-.427-.585-.946-.876-.213-.119-.387-.227-.387-.239 0-.012.188-.117.418-.232.553-.278.71-.418.946-.846.239-.433.288-.499.346-.463.024.015.142.205.262.423m11.841.914c-1.254.152-3.12.573-4.72 1.066-2.793.859-4.777 2.405-5.896 4.593a8.607 8.607 0 0 0-.86 2.834l-.062.53-.307.147c-.26.124-.659.5-2.625 2.472-2.49 2.498-2.48 2.485-2.747 3.312-.102.317-.272.995-.357 1.429-.096.485.287 1.096.864 1.378l.298.146.913-.062c1.454-.099 1.717-.211 2.596-1.112 2.124-2.177 2.429-2.514 2.703-2.98.508-.868.675-1.753.611-3.252-.021-.5.072-1.596.18-2.129.262-1.285.852-2.369 1.803-3.316.814-.81 1.814-1.426 3.018-1.858 1.056-.379 3.783-1.014 4.64-1.08l.433-.034-.192.422c-.728 1.599-1.599 2.924-2.191 3.332l-.246.169-1.803-.057c-1.221-.039-1.865-.04-1.998-.003-.267.074-.6.386-.667.626-.086.312-.064.872.05 1.242.16.516.365.797.774 1.062l.357.231-.257.13c-.693.353-1.553.541-2.546.558-.629.011-.678.019-.698.118-.012.059-.049.395-.081.747s-.072.75-.088.885l-.03.245.579.036c1.083.067 2.354-.135 3.259-.517.984-.416 2.044-1.338 2.435-2.121.218-.435.234-.617.084-.947a3.13 3.13 0 0 1-.106-.249c0-.009.248-.024.551-.034.526-.017.573-.029 1.015-.248 1.064-.528 2.234-1.981 3.153-3.916.672-1.416.884-2.138.773-2.639-.165-.744-.776-1.124-1.865-1.16a7.397 7.397 0 0 0-.747.004m-16.64 1.833c-.512.097-.663.27-1.398 1.594l-.602 1.084-1.066.585c-.587.321-1.123.637-1.192.701-.426.398-.536 1.02-.261 1.487.182.311.208.329 1.487 1.03l1.048.574.623 1.138c.396.723.689 1.195.804 1.296.44.387 1.162.346 1.586-.09.106-.109.455-.678.777-1.265l.584-1.066 1.084-.602c.596-.33 1.15-.665 1.232-.743.491-.471.494-1.278.006-1.729-.083-.077-.62-.397-1.192-.711-.572-.314-1.068-.599-1.102-.633-.034-.034-.306-.506-.605-1.049-.653-1.186-.714-1.271-1.046-1.448-.304-.162-.508-.203-.767-.153m.525 3.432c.355.748.381.773 1.221 1.215.3.158.546.299.546.314 0 .015-.268.171-.597.347-.328.176-.67.393-.759.482-.089.089-.306.431-.482.759-.176.329-.332.597-.347.597-.015 0-.171-.268-.347-.597-.176-.328-.393-.67-.482-.759-.089-.089-.431-.306-.759-.482-.329-.176-.598-.332-.598-.347 0-.015.325-.191.724-.392.805-.406.791-.391 1.306-1.355.13-.242.242-.44.249-.44.007 0 .154.296.325.658M13.753 21c-.142.764-.226.881-1.752 2.461l-1.382 1.43-.305.061c-.168.034-.317.05-.331.036-.013-.014.029-.176.094-.36.115-.321.191-.406 1.888-2.108.972-.975 1.783-1.773 1.801-1.773.019 0 .012.114-.013.253"/></svg>
