<svg xmlns="http://www.w3.org/2000/svg" viewBox="0 0 18 16">
    <path fill="#A12577" fill-rule="evenodd" d="M14.119.033a2.979 2.979 0 0 0-1.343.478c-.186.124-.601.531-4.976 4.878L6.045 7.133l-.285.018c-.157.01-.494.026-.75.036-.735.028-.932.077-1.324.333-.44.287-.685.691-.792 1.304-.026.153-.283 1.356-.571 2.673-.291 1.33-.523 2.461-.523 2.545 0 .239.085.594.202.838.133.279.47.629.749.774.234.123.594.216.836.216.134 0 .853-.152 2.567-.542 1.31-.299 2.527-.569 2.705-.601.403-.073.639-.166.897-.356.225-.166.409-.383.533-.629.153-.303.181-.455.216-1.172l.033-.675 3.277-3.285c3.385-3.393 3.426-3.437 3.667-3.915.257-.508.368-1 .368-1.622 0-.894-.215-1.517-.707-2.048-.322-.348-.688-.601-1.053-.727A8.12 8.12 0 0 0 14.841.03a2.57 2.57 0 0 0-.722.003M1.162.103a1.03 1.03 0 0 0-.477.358C.517.689.47.831.469 1.11c-.001.232.02.33.241 1.088l.242.832-.236.818c-.13.449-.245.899-.255.999-.048.463.263.948.717 1.118.262.098.46.109.667.039.283-.096 1.553-.454 1.612-.454.029 0 .434.109.9.242.792.227.863.242 1.073.23.303-.016.513-.118.73-.352.212-.229.3-.446.298-.735-.001-.17-.048-.371-.246-1.061l-.244-.851.239-.844c.282-.999.287-1.024.241-1.243A1.145 1.145 0 0 0 5.827.13a.872.872 0 0 0-.4-.095c-.212-.01-.292.007-1.099.237L3.457.52 2.591.274C1.606-.005 1.465-.022 1.162.103M15.09 1.786c.432.098.506.13.688.3.178.166.254.313.316.608.09.429.042.899-.125 1.218-.061.116-.716.79-2.692 2.771l-2.612 2.618-.019-.428-.018-.428 2.238-2.226 2.239-2.225-.585-.587c-.321-.323-.598-.587-.615-.587-.016 0-1 .97-2.186 2.156L9.562 7.133l-.168-.06a2.853 2.853 0 0 0-.477-.093l-.308-.035 2.528-2.524c1.39-1.389 2.575-2.548 2.633-2.578.312-.158.78-.179 1.32-.057m-12.206.347c.518.16.634.16 1.155-.001.216-.067.407-.122.423-.122.017 0-.03.192-.103.428-.123.393-.133.446-.12.667.009.166.051.358.134.623.066.21.115.382.108.382-.006 0-.19-.069-.409-.154-.538-.208-.689-.212-1.231-.029a2.762 2.762 0 0 1-.398.116 2.425 2.425 0 0 1 .109-.37c.181-.534.184-.666.031-1.166a26.053 26.053 0 0 0-.142-.453c-.024-.062-.005-.059.443.079m6.007 6.635c.049.036.046.149-.065 2.132-.091 1.646-.125 2.102-.159 2.134-.043.042-5.127 1.196-5.153 1.17-.008-.008.238-1.145.547-2.527.308-1.381.56-2.549.56-2.594-.001-.06.017-.086.067-.098.037-.009.971-.068 2.077-.132l2.042-.119c.017-.002.055.013.084.034"/>
</svg>
