<svg width="32" height="32" xmlns="http://www.w3.org/2000/svg"><path d="M10.187 11.208c-3.932 3.804-3.86 3.732-4.021 4.036-.136.258-.148.323-.129.72.018.38.042.471.192.709.113.18 1.266 1.316 3.345 3.296 2.708 2.579 3.187 3.014 3.271 2.969.178-.095.499-.494.633-.788.258-.564.204-1.227-.147-1.778-.085-.133-.807-.865-1.605-1.627l-1.45-1.385 6.795-.027 6.796-.026.354-.121c.196-.066.484-.208.64-.315.352-.241 1.068-.873 1.047-.926-.04-.103-.989-.858-1.257-1.001-.654-.347-.264-.331-7.788-.331h-6.828l1.183-1.169c.65-.642 1.285-1.25 1.411-1.349.723-.572.943-1.506.545-2.314-.141-.288-.574-.77-.688-.767-.018.001-1.053.988-2.299 2.194" fill="#A12577" fill-rule="evenodd"/></svg>
