<svg xmlns="http://www.w3.org/2000/svg" viewBox="0 0 17 13">
    <path fill="#A12577" fill-rule="evenodd" d="M5.128 1.435c-.366.352-1.118 1.088-1.671 1.636-.554.548-1.348 1.321-1.766 1.718-.85.808-.996.97-1.147 1.273-.099.2-.105.225-.104.482 0 .15.018.321.039.383.076.227.246.459.582.795.491.491 4.94 4.757 4.974 4.768.015.005.127-.09.248-.212.595-.598.648-1.43.135-2.103-.056-.072-.631-.642-1.278-1.265L3.963 7.777l5.619-.014 5.619-.015.212-.065a2.85 2.85 0 0 0 .709-.339c.054-.041.268-.221.474-.4.29-.252.367-.334.34-.358a16.305 16.305 0 0 0-.843-.711 2.51 2.51 0 0 0-.698-.327l-.223-.065-5.69-.008-5.69-.008 1.069-1.055c.587-.58 1.112-1.086 1.166-1.124.13-.094.355-.435.431-.657.035-.099.07-.278.079-.398.035-.469-.121-.866-.478-1.219a1.927 1.927 0 0 0-.244-.219c-.012 0-.32.289-.687.64"/>
</svg>
