<svg xmlns="http://www.w3.org/2000/svg" viewBox="0 0 42 42"><path fill="#A22778" fill-rule="evenodd" d="M18.76 2.703c-1.987.237-3.616.651-5.236 1.329-5.849 2.451-9.898 7.795-10.762 14.203-.256 1.897-.11 4.462.364 6.405 1.51 6.193 6.032 10.997 12.121 12.876 1.753.541 3.339.774 5.266.774 2.031 0 3.728-.285 5.773-.969 3.119-1.043 5.884-2.97 8.029-5.594.665-.814 1.593-2.237 1.93-2.957.17-.366.448-.949.617-1.296.17-.346.308-.666.308-.71 0-.044.126-.485.281-.98.295-.946.553-2.086.709-3.139.123-.833.124-3.569.001-4.445-.346-2.469-1.185-4.917-2.358-6.877-2.392-3.997-6.335-6.955-10.809-8.111-1.554-.401-2.329-.496-4.239-.518-.962-.011-1.86-.007-1.995.009m3.524 3.842c.849.111 1.857.35 2.538.602.227.083.426.163.441.177.016.013-.104.214-.267.445-.575.821-1.009 1.963-1.226 3.227-.456 2.664-.235 6.521.532 9.269.717 2.568 1.771 4.972 2.928 6.68.73 1.078 1.951 2.314 2.819 2.855.48.299.525.211-.593 1.173-4.154 3.578-9.781 4.392-14.778 2.138l-.338-.152.486-.467c2.159-2.076 2.856-6.44 1.79-11.212-.785-3.51-2.135-6.235-4.046-8.164-.848-.856-1.633-1.44-2.262-1.681-.164-.063-.298-.142-.298-.177 0-.12 1.296-1.358 1.949-1.863 2.047-1.58 4.502-2.602 6.906-2.873.899-.102 2.551-.091 3.419.023m6.859 3.541c1.214.805 2.613 3.145 3.542 5.928.755 2.261 1.078 4.081 1.084 6.106.007 2.134-.305 3.801-.819 4.387-.26.296-.441.284-.946-.059-1.574-1.071-3.101-3.918-4.044-7.541-.405-1.559-.531-2.463-.571-4.107-.028-1.164-.011-1.628.079-2.205.208-1.316.435-2.037.786-2.497.223-.294.458-.297.889-.012M9.194 15.19c1.33.843 2.882 3.538 3.543 6.152.352 1.393.545 3.68.428 5.081-.125 1.501-.43 2.519-.923 3.08-.269.306-.483.318-.906.05-1.032-.656-2.397-2.828-3.137-4.994-1.046-3.059-1.191-6.825-.339-8.746.38-.855.718-1.013 1.334-.623"/></svg>
