<svg xmlns="http://www.w3.org/2000/svg" viewBox="0 0 42 42">
  <path fill="#a12577" fill-rule="evenodd" d="M27.145 5.183c-.623.153-1.4.522-1.924.915-.201.149-.386.272-.411.272s-.196-.11-.378-.244c-.426-.312-1.249-.7-1.787-.843-.664-.175-1.847-.209-2.615-.075-1.513.265-2.853 1.227-3.274 2.352-.076.203-.12.54-.125.945-.007.705.108 1.131.452 1.673l.208.329-.459.464a7 7 0 0 0-.745.906c-.158.244-.29.443-.294.443s-.012-.264-.017-.585c-.005-.345-.059-.741-.131-.963-.414-1.273-1.618-2.303-2.942-2.517-.487-.078-.522-.097-.728-.383-.576-.803-1.822-1.358-3.056-1.361-1.315-.003-2.783.746-3.346 1.707-.154.262-.219.31-.476.351-.164.026-.504.149-.755.272-1.26.619-2.076 2.19-1.831 3.525.225 1.222 1.062 2.192 2.294 2.655l.448.169h8.135l.393-.223c.521-.294 1.283-1.071 1.487-1.515l.162-.353.09.35a2.24 2.24 0 0 0 1.951 1.649c.382.036.448.061.41.155-.026.062-.063.399-.083.75-.063 1.106.256 2.134.819 2.641.383.346.68.467 1.255.512.415.033.505.016.87-.171.31-.158.396-.181.364-.094-.08.217-.688 1.189-1.027 1.641l-.34.455-1.242-.038c-1.783-.055-3.563.185-5.005.674l-.612.208.353-.344c.624-.607.942-1.597.784-2.442-.179-.968-.892-1.899-1.783-2.333-.484-.235-1.312-.365-1.731-.27-.255.057-.343.042-.64-.107-.604-.303-1.132-.455-1.723-.495q-1.762-.12-2.997 1.128c-1.002 1.014-1.341 2.42-.876 3.634.222.577.849 1.232 1.489 1.551l.493.247h5.336l-.677.374c-1.983 1.096-3.606 2.738-4.533 4.585-.336.669-.721 1.779-.865 2.496-.092.454-.111.488-.267.468-.459-.058-1.896-.026-2.255.051-.954.205-1.304 1.137-.652 1.735.337.309.5.335 1.349.215 1.12-.158 1.123-.157 2.128.883.472.488 1.067 1.046 1.32 1.239.999.758 2.34 1.25 3.838 1.407 1.372.144 2.407-.079 3.933-.847 1.223-.616 2.055-.868 2.876-.872.891-.004 1.377.153 2.888.935 1.289.667 2.59 1.15 3.308 1.229 1.392.153 3.553-.737 5.879-2.422a10 10 0 0 1 1.118-.691c.771-.394 1.047-.39 1.676.023.258.17.548.329.643.352.252.064.702-.078.941-.296.472-.43.271-1.03-.528-1.57-.846-.572-1.547-.744-2.426-.593l-.326.056-.046-.546c-.272-3.241-1.914-5.823-4.776-7.512l-.505-.297.145-.289a2.7 2.7 0 0 1 .396-.55c.227-.237.237-.263.101-.263h-.15l.171-.503c.19-.558.349-1.37.419-2.14l.046-.507.344.308c.804.724 1.898.696 2.673-.067.607-.599.915-1.927.725-3.121l-.052-.325 1.105-.028c1.032-.026 1.13-.04 1.464-.213.196-.103.5-.346.676-.541.913-1.015.649-2.312-.747-3.678l-.501-.49.232-.385c.344-.571.459-1.037.423-1.719-.035-.672-.282-1.261-.754-1.797-.495-.563-1.533-1.103-2.571-1.34-.694-.157-1.923-.144-2.626.029m2.521 3.182c.242.108.416.22.385.25-.118.113-3.182 1.757-3.215 1.725-.019-.019-.098-.306-.176-.637l-.142-.602.153-.248c.426-.688 1.975-.941 2.995-.488m-8.092-.096c.567.12.965.335 1.371.739.429.426.755 1.068.827 1.623l.048.376-.625-.341-2.178-1.181c-.855-.462-1.554-.86-1.555-.885-.003-.069.557-.279.908-.339.472-.082.793-.08 1.204.008m-12.027.44c.758.228 1.183.835 1.193 1.703.003.279.014.508.025.508s.09-.066.175-.146c.8-.756 1.996-.554 2.529.427.411.756.206 1.584-.504 2.034l-.322.205-3.504-.002-3.504-.001-.347-.191c-.634-.348-.942-1.042-.739-1.659.11-.333.461-.732.75-.852.301-.126 1.014-.121 1.327.01.358.15.376.139.33-.199-.173-1.261 1.221-2.249 2.591-1.837m21.432 3.227c.461.273.886.702 1.09 1.101l.134.263H29.95c-1.239 0-2.232-.021-2.206-.047.053-.053 2.718-1.544 2.78-1.556.022-.004.226.104.455.239m-10.539.63 1.365.732-2.117.001c-1.165 0-2.118-.023-2.118-.053 0-.253 1.179-1.42 1.428-1.414.042.001.691.331 1.442.734m4.083 2.782c.249 1.016.302 3.565.094 4.532-.264 1.23-.933 2.525-2.118 4.101-.745.992-2.135 2.689-2.202 2.689-.037 0-1.555-.88-2.013-1.167-.161-.101-.16-.103.35-.567 3.159-2.878 4.337-4.588 4.979-7.226.15-.617.397-2.044.397-2.296 0-.06.272-.199.43-.218.025-.004.062.065.083.152m-3.577.966-1.03.984-.059-.266c-.077-.354-.012-1.051.132-1.412l.116-.29h1.871zm7.451-.651c.131.341.166 1.059.069 1.439-.05.195-.059.189-.993-.693-.519-.489-.943-.932-.943-.984 0-.075.185-.095.869-.095h.869zM8.858 18.148c.194.099.514.324.71.5.323.291.365.31.452.205.174-.211.666-.384.952-.334.716.124 1.207.822.974 1.381a1.3 1.3 0 0 1-.322.421l-.225.189H9.042c-2.212-.001-2.37-.009-2.562-.136-.283-.187-.385-.399-.387-.809-.003-.631.519-1.299 1.222-1.563.354-.134 1.141-.059 1.543.146m7.582 6.37c-.231.45-.259 1.183-.064 1.637.219.509.525.767 1.802 1.52 1.707 1.006 1.659.985 2.263.988.877.004 1.014-.099 2.408-1.805l1.184-1.448.461.252c1.317.722 2.443 1.879 2.99 3.073.317.693.455 1.29.496 2.146l.039.815-.307.195c-1.11.704-2.199 1.129-3.057 1.195-.902.07-2.067-.297-3.029-.953a7.6 7.6 0 0 0-1.889-.923c-.433-.135-.677-.163-1.432-.163-1.133-.001-1.377.055-3.924.912-2.437.819-3.102.95-3.964.78a4.7 4.7 0 0 1-1.001-.328c-.54-.275-1.086-.738-1.086-.923 0-.326.3-1.574.498-2.074.375-.944.808-1.594 1.602-2.402 1.036-1.054 2.054-1.683 3.599-2.227.592-.208 2.062-.551 2.405-.56l.159-.005z"/>
</svg>
