<svg xmlns="http://www.w3.org/2000/svg" viewBox="0 0 32 32" xml:space="preserve"><path d="M12.933 4.271c-5.486.127-6.24.155-6.559.238-.965.251-1.849 1.107-2.2 2.13l-.147.428v18.08l.124.373c.324.968 1.068 1.719 2.076 2.094.359.133.365.134 2.706.161 1.654.019 2.56.007 3.067-.04.492-.045 2.615-.078 6.693-.102l5.974-.036.489-.19c.721-.279 1.053-.496 1.62-1.06.549-.547.822-.988 1.072-1.734l.125-.373.015-8.262.015-8.261-.142-.432a6.893 6.893 0 0 0-.292-.731c-.334-.667-1.135-1.474-1.826-1.838-.671-.355-.926-.402-2.41-.451-1.588-.052-8.066-.049-10.4.006M24.614 6.54c.405.197.827.619 1.013 1.013l.147.31.028 5.437.027 5.436-.441-.03c-.817-.056-1.894.111-2.538.393-1.055.462-1.989 1.497-2.471 2.736-.347.891-.592 2.181-.592 3.111v.442l-2.52-.014-2.52-.014.016-.187c.009-.102.029-1.632.044-3.4l.028-3.213h9.538v-7.787h-9.587l-.026-1.826c-.023-1.677-.035-1.855-.139-2.174a3.873 3.873 0 0 1-.114-.394c0-.028 2.02-.037 4.896-.02l4.896.027.315.154m-16.019.047c.015.014-.065.293-.177.619l-.205.592v2.975H6.125l.017-1.746c.016-1.551.029-1.766.113-1.921.121-.222.466-.45.75-.496.262-.043 1.552-.062 1.59-.023m3.577.161c.324.215.475.495.526.972.053.51.06 1.831.014 2.592l-.035.568h-2.291l.024-1.508.025-1.507.147-.293c.217-.431.475-.718.791-.876.323-.163.49-.152.799.052m-4.684 4.993c.073.033.148.099.167.146.019.048.048.488.064.978l.03.891.159-.134c.317-.266.574-.36 1.052-.384.548-.028.816.038 1.127.275.419.321.527.534.594 1.175.075.721.012 1.141-.256 1.729-.167.366-.237.461-.396.542-.352.18-.803.283-1.103.252-.356-.037-.892-.276-1.056-.47l-.126-.149-.033.177a.767.767 0 0 1-.169.324c-.118.127-.165.143-.353.118a.67.67 0 0 1-.329-.141c-.109-.108-.112-.165-.129-2.257-.009-1.181.002-2.324.026-2.54.041-.378.05-.398.229-.493.215-.116.317-.124.502-.039m9.573.442c.117.118.135.189.156.615l.023.482h.237c.13 0 .283.025.34.055.257.138-.015.596-.396.667l-.194.037v1.083c0 1.052.034 1.333.176 1.423.035.022.212.04.393.041.36.001.497.08.497.286 0 .213-.15.347-.514.46-.193.059-.41.108-.483.108-.201 0-.691-.155-.819-.258-.164-.133-.2-.408-.243-1.862l-.038-1.293h-.178c-.201 0-.391-.155-.391-.319 0-.122.246-.268.45-.268h.136v-.509c0-.53.067-.762.254-.876.141-.087.444-.021.594.128m-2.847.982c.405.192.624.44.768.875.186.557.198.832.048 1.053l-.128.187-1.271.014-1.271.015.026.252c.054.543.308.836.846.978.221.059.268.054.49-.053.135-.066.391-.249.57-.409.504-.45.748-.446.748.011 0 .2-.032.269-.219.472a2.098 2.098 0 0 1-.516.383c-.267.131-.35.144-.844.139-.811-.009-1.09-.105-1.493-.516-.421-.428-.522-.708-.525-1.446-.002-.625.087-.938.399-1.401.36-.534.717-.7 1.518-.703.478-.002.567.013.854.149m6.836.197c.77.072.975.494.976 2.014.001.48.03.866.086 1.11.046.205.069.434.051.508-.039.157-.275.393-.392.393-.122 0-.427-.252-.517-.426l-.08-.154-.271.182c-.294.198-.866.398-1.137.398-.23 0-.752-.14-.911-.244-.206-.135-.367-.527-.371-.904-.007-.607.325-.908 1.175-1.066.232-.043.67-.143.974-.222l.552-.144-.032-.231c-.073-.533-.308-.696-.909-.632-.39.042-.62.166-.789.427-.161.248-.381.355-.584.285-.284-.1-.336-.398-.138-.79.251-.495.902-.636 2.317-.504m-12.509.637c-.278.087-.458.246-.611.534-.09.171-.113.311-.115.697-.001.442.011.504.147.709.229.346.423.443.839.423.642-.032.928-.406.931-1.215.002-.562-.11-.812-.457-1.024-.308-.189-.453-.214-.734-.124m4.392.048c-.213.093-.274.176-.397.532l-.104.301h.904c.497 0 .904-.02.904-.045 0-.248-.275-.646-.544-.786-.179-.094-.55-.094-.763-.002m7.6 1.339c-.278.07-.573.141-.655.159-.324.069-.453.597-.206.844.253.253.925.142 1.228-.203.221-.252.356-.942.182-.93-.023.002-.27.06-.549.13M8.214 20.76c.002 2.784.048 3.618.229 4.099.073.191.184.45.248.576l.116.227-.981-.018-.981-.017-.198-.151a1.804 1.804 0 0 1-.342-.37l-.145-.218-.016-3.191-.017-3.19h2.086l.001 2.253m4.478.853-.001 3.107-.151.293c-.191.372-.338.453-.673.368-.521-.131-1.024-.565-1.319-1.139-.104-.203-.11-.327-.136-2.974l-.028-2.761h2.309l-.001 3.106m12.819-.671.364.034-.019 1.525-.019 1.526-.156.316c-.181.366-.627.829-.95.985-.294.142-.988.218-1.998.218l-.813.001v-.398c0-.587.142-1.567.3-2.068.264-.837.598-1.358 1.069-1.672.634-.42 1.28-.556 2.222-.467" fill="#A12577" fill-rule="evenodd"/></svg>