<svg xmlns="http://www.w3.org/2000/svg" xml:space="preserve" viewBox="0 0 32 32"><path fill="#A12577" fill-rule="evenodd" d="M11.92 4.278c-.205.026-1.477.065-2.827.088-2.308.038-2.474.047-2.8.155a3.313 3.313 0 0 0-2.19 2.347c-.1.39-.103.679-.102 9.207.001 7.502.012 8.859.078 9.171.237 1.119 1.092 2.029 2.268 2.413.262.086.565.098 2.835.115 1.894.014 2.615.002 2.827-.047.213-.05 1.818-.074 6.418-.098l6.133-.031.399-.123c1.483-.455 2.59-1.612 2.936-3.068.105-.444.107-.597.093-8.629L27.973 7.6l-.125-.373c-.243-.724-.527-1.189-1.046-1.712-.753-.759-1.502-1.13-2.513-1.246-.591-.068-11.831-.06-12.369.009m12.73 2.27c.44.216.84.638 1.013 1.066l.124.306.015 5.407.015 5.407-.475-.037c-.934-.073-2.016.135-2.782.535-.972.508-1.764 1.47-2.229 2.708-.323.86-.544 2.097-.544 3.045v.402h-2.564c-2.417 0-2.562-.006-2.534-.094.116-.37.138-.94.138-3.7V18.56h9.546v-7.787h-9.587l-.024-1.826c-.023-1.781-.027-1.837-.157-2.215l-.134-.387 4.913.014 4.912.014.354.175m-16.035.105c-.021.052-.113.31-.206.574l-.168.48-.018 1.533-.017 1.533H6.133V9.061c0-1.901.008-1.948.354-2.225.291-.231.469-.268 1.345-.272.76-.004.817.003.783.089m3.415.008c.311.141.593.493.662.826.034.166.051.877.042 1.82l-.014 1.546-1.164.015-1.163.014.017-1.509.017-1.509.175-.356c.244-.495.756-.932 1.105-.942.058-.002.204.041.323.095m-4.449 5.121c.122.099.126.128.142 1.041l.017.939.218-.186c.447-.382 1.275-.495 1.834-.249.324.142.675.485.799.78.119.282.167 1.31.079 1.663-.079.315-.36.97-.469 1.094-.044.05-.271.155-.505.233-.634.211-.966.171-1.676-.204a.638.638 0 0 1-.199-.196c-.085-.137-.085-.137-.086-.014-.002.167-.141.422-.265.489-.211.113-.533.04-.682-.154-.087-.113-.097-4.918-.01-5.079.067-.126.335-.254.536-.257a.49.49 0 0 1 .267.1m9.371.294c.209.108.275.295.275.78v.424h.282c.317 0 .411.062.411.27 0 .196-.236.417-.488.457l-.205.033v1.116c0 1.429 0 1.431.55 1.431.438 0 .516.046.516.302 0 .247-.16.369-.625.479-.379.089-.416.089-.751.002-.193-.051-.395-.132-.447-.179-.177-.161-.216-.451-.242-1.818l-.026-1.346h-.205c-.215 0-.37-.139-.37-.329 0-.129.205-.258.412-.258h.174v-.556c0-.52.009-.566.138-.72.156-.185.357-.214.601-.088m-2.68 1.096c.41.202.549.376.734.922.181.531.184.836.012 1.036l-.129.15-1.258.016-1.258.016.003.197c.003.243.114.568.246.715.13.147.593.361.78.362.232.001.624-.23.943-.555.334-.342.526-.389.672-.167.194.297-.112.785-.659 1.054-.34.168-.382.175-.944.17-.724-.007-1.077-.124-1.443-.48-.357-.347-.514-.728-.545-1.323-.032-.596.069-1.036.339-1.48.373-.613.898-.86 1.747-.821.337.016.486.053.76.188m7.032.214c.116.036.288.142.382.236.273.273.341.6.341 1.659 0 .658.022.989.079 1.177.123.406.105.593-.075.773-.086.086-.204.156-.263.156-.136 0-.415-.234-.519-.435l-.08-.154-.173.132c-.285.217-.769.412-1.096.442-.327.03-.818-.081-1.057-.237-.289-.189-.463-.824-.336-1.221.137-.429.507-.656 1.252-.768.234-.035.57-.107.747-.16.176-.053.401-.113.498-.133l.178-.037-.036-.275c-.068-.518-.247-.645-.857-.608-.456.028-.647.13-.839.447-.153.253-.323.351-.524.302-.221-.054-.313-.175-.31-.41.008-.698.586-1.007 1.811-.97.366.011.761.049.877.084m-12.699.585c-.501.119-.765.493-.806 1.143-.031.473.041.72.29.996.135.149.25.217.436.256.702.151 1.176-.281 1.224-1.115.038-.66-.122-.982-.598-1.204-.292-.136-.294-.136-.546-.076m4.448.023c-.333.122-.416.221-.545.649l-.071.237h1.8l-.031-.173c-.1-.551-.656-.894-1.153-.713m7.694 1.338a3.691 3.691 0 0 0-.444.128.998.998 0 0 1-.311.06c-.346 0-.571.419-.412.767.121.265.62.338.995.145.336-.173.488-.377.546-.73.084-.512.114-.483-.374-.37m-12.52 6.041c.022 3.17.013 3.082.388 3.894l.178.386h-.9c-.495 0-.958-.022-1.03-.049-.202-.077-.511-.372-.626-.597-.099-.194-.104-.34-.104-3.352v-3.148h2.074l.02 2.866m4.466.243v3.11l-.139.28c-.194.388-.323.464-.648.383a2.024 2.024 0 0 1-1.337-1.113l-.142-.303-.016-2.733-.015-2.733h2.297v3.109m12.846-.675.328.034v1.457c0 1.346-.009 1.48-.111 1.754-.14.373-.38.69-.711.941-.447.337-.659.381-1.965.407l-1.16.023v-.492c0-.665.133-1.524.327-2.104.295-.888.668-1.386 1.272-1.703.587-.309 1.191-.404 2.02-.317"/></svg>
