<svg xmlns="http://www.w3.org/2000/svg" xml:space="preserve" viewBox="0 0 32 32"><path fill-rule="evenodd" d="M15.707 4.087c-.088.046-2.7 2.619-5.804 5.718C4.257 15.443 4 15.714 4 16.052c0 .06.03.163.066.229.036.065 2.61 2.671 5.72 5.789 5.659 5.676 5.928 5.93 6.266 5.93a.58.58 0 0 0 .229-.066c.065-.036 2.671-2.61 5.789-5.72 5.676-5.659 5.93-5.928 5.93-6.266a.58.58 0 0 0-.066-.229c-.036-.065-2.61-2.671-5.72-5.789-5.62-5.637-5.935-5.935-6.252-5.928a.778.778 0 0 0-.255.085m3.36 5.193 3.039 3.04-1.173 1.173c-.644.646-1.196 1.174-1.226 1.174-.029 0-.777-.724-1.661-1.608-1.216-1.215-1.659-1.625-1.814-1.679-.256-.09-.362-.091-.513-.007-.065.036-.857.798-1.759 1.693l-1.64 1.627-1.2-1.2-1.2-1.199 3.026-3.027C14.611 7.602 15.985 6.24 16 6.24c.015 0 1.395 1.368 3.067 3.04m-1.814 5.493L18.479 16l-1.239 1.24L16 18.48l-1.24-1.24L13.521 16l1.226-1.227c.674-.674 1.238-1.226 1.253-1.226.015 0 .579.552 1.253 1.226M9.813 17.2l-1.199 1.2-1.2-1.2-1.2-1.2 1.199-1.2 1.2-1.2 1.2 1.2 1.2 1.2-1.2 1.2m14.774 0-1.2 1.2-1.2-1.2-1.2-1.2 1.2-1.2 1.199-1.2 1.2 1.2 1.2 1.2-1.199 1.2m-10.614 1.758c1.471 1.468 1.651 1.63 1.874 1.689.21.055.273.052.426-.022.099-.048.9-.808 1.78-1.689.88-.882 1.624-1.603 1.654-1.603.03 0 .582.528 1.227 1.174l1.172 1.173-3.053 3.053L16 25.786l-3.04-3.039-3.04-3.04 1.186-1.187c.653-.653 1.199-1.187 1.213-1.187.015 0 .759.731 1.654 1.625"/></svg>
