<svg xmlns="http://www.w3.org/2000/svg" xml:space="preserve" viewBox="0 0 32 32"><path fill-rule="evenodd" d="M14.507 6.115c-3.3.505-6.151 2.621-7.548 5.6a10.005 10.005 0 0 0 1.973 11.353 9.984 9.984 0 0 0 14.136 0c3.91-3.909 3.908-10.243-.003-14.138-1.557-1.551-3.451-2.499-5.632-2.82-.712-.105-2.228-.102-2.926.005m2.9 2.019c4.075.71 6.927 4.454 6.542 8.586-.243 2.614-1.685 4.894-3.922 6.204-1.136.665-2.67 1.074-4.027 1.074-3.898 0-7.18-2.765-7.878-6.638-.116-.648-.116-2.072 0-2.72.593-3.288 3.039-5.808 6.289-6.477.823-.17 2.118-.182 2.996-.029m-3.824 1.433c-.426.159-.57.414-.57 1.01v.394l-.458.032c-.498.035-.709.123-.896.374-.094.127-.112.226-.112.623s.018.496.112.623c.194.259.421.355.91.38l.444.024v5.944l-.458.032c-.498.035-.709.123-.896.374-.094.127-.112.226-.112.623s.018.496.112.623c.193.259.421.355.905.38l.439.023.019.47c.014.375.041.5.13.62.196.263.432.364.848.364s.652-.101.848-.364c.09-.12.116-.245.131-.626l.018-.477H16l.001.387c.002.666.246 1.004.784 1.085.507.076.922-.098 1.112-.465.044-.085.094-.344.112-.575l.033-.421.299-.036a3.058 3.058 0 0 0 2.6-2.386 3.045 3.045 0 0 0-.455-2.28l-.22-.322.22-.322a3.018 3.018 0 0 0 .197-3.026c-.364-.746-1.344-1.492-2.078-1.582-.604-.075-.559-.036-.596-.512-.018-.233-.069-.493-.113-.579-.176-.34-.594-.521-1.07-.461-.576.072-.823.395-.825 1.082l-.001.387h-1.003l-.018-.477c-.021-.527-.098-.692-.412-.875-.222-.131-.723-.165-.984-.068m4.833 3.533c.242.123.354.232.47.458.184.362.09.914-.2 1.169-.287.252-.351.26-2.07.26h-1.629v-1.974h1.629c1.396 0 1.654.013 1.8.087m0 4c.242.123.354.232.47.458.184.362.09.914-.2 1.169-.287.252-.351.26-2.07.26h-1.629v-1.974h1.629c1.396 0 1.654.013 1.8.087"/></svg>
