<svg xmlns="http://www.w3.org/2000/svg" xml:space="preserve" viewBox="0 0 32 32"><path fill="#A12577" fill-rule="evenodd" d="M14.907 4.056a11.905 11.905 0 0 0-4.308 1.261A12.013 12.013 0 0 0 4.621 19.84c1.461 4.414 5.33 7.567 10.019 8.163.617.078 2.215.079 2.8 0 1.882-.251 3.736-.927 5.2-1.896 2.977-1.971 4.879-5.044 5.363-8.667.079-.587.079-2.193.001-2.773-.323-2.394-1.248-4.539-2.718-6.3a12.129 12.129 0 0 0-7.259-4.187c-.879-.15-2.315-.207-3.12-.124m1.84 2.505c4.515.35 8.138 3.762 8.715 8.209a8.959 8.959 0 0 1-.152 3.177c-.321 1.404-1.078 2.924-2.003 4.023l-.187.221-6.657-6.659-6.658-6.66.371-.299a9.077 9.077 0 0 1 5.016-2.008c.804-.061.816-.061 1.555-.004M14.72 17.309l6.533 6.537-.16.132c-.266.221-1.616.856-2.24 1.054-2.3.73-4.779.543-7.013-.53-2.642-1.269-4.54-3.725-5.13-6.639-.109-.54-.123-.756-.121-1.89.003-1.431.066-1.862.429-2.96.266-.803.989-2.24 1.128-2.24.022 0 2.981 2.942 6.574 6.536"/></svg>
