<svg width="32" height="32" xmlns="http://www.w3.org/2000/svg"><path d="M14.72 4.062c-1.301.123-2.83.564-4.048 1.169-3.541 1.757-5.943 5.093-6.544 9.089-.197 1.307-.117 3.099.198 4.453.286 1.228.951 2.779 1.647 3.836 1.868 2.84 4.873 4.773 8.166 5.252.728.105 1.701.166 1.7.106-.002-.152-.175-.75-.271-.938-.167-.326-.611-.77-.922-.92-.15-.073-.513-.183-.806-.246a9.468 9.468 0 0 1-2.202-.746C7.484 23.14 5.219 18.561 6.14 14c.765-3.792 3.688-6.891 7.327-7.768.352-.085.76-.19.907-.232.752-.218 1.313-.899 1.44-1.749L15.852 4l-.313.007c-.172.004-.54.029-.819.055m1.461.21c.083.655.605 1.396 1.216 1.728.146.08.623.237 1.059.349 2.59.666 4.553 2.067 5.992 4.276 1.159 1.779 1.691 3.865 1.57 6.162-.228 4.324-3.401 8.104-7.618 9.074-.808.186-1.031.261-1.298.438a2.145 2.145 0 0 0-.87 1.248c-.127.479-.162.453.614.453 1.099 0 2.376-.267 3.589-.75 4.107-1.635 6.964-5.395 7.486-9.853.528-4.517-1.575-9.004-5.388-11.493-1.707-1.114-3.658-1.752-5.754-1.881l-.635-.038.037.287M8.2 14.796c-.293.104-.45.221-.628.467a1.287 1.287 0 0 0 .212 1.763c.119.101.308.211.422.245.152.046 2.19.062 7.8.062l7.594-.001.267-.124c.342-.159.587-.439.691-.79.103-.347.102-.437-.002-.787a1.171 1.171 0 0 0-.31-.508c-.434-.434.197-.403-8.296-.401-6.157.002-7.587.016-7.75.074" fill="#A12577" fill-rule="evenodd"/></svg>
