<svg xmlns="http://www.w3.org/2000/svg" viewBox="0 0 22 22">
    <path fill="#A12577" fill-rule="evenodd" d="M9.707.259A10.512 10.512 0 0 0 2.07 4.641C1.129 5.959.512 7.507.252 9.203c-.117.762-.118 2.169-.002 2.915.294 1.897 1.006 3.536 2.179 5.016a12.558 12.558 0 0 0 1.635 1.634 10.49 10.49 0 0 0 5.343 2.223c.596.07 1.19.075 1.189.01a2.5 2.5 0 0 0-.056-.281c-.125-.531-.519-1.059-.954-1.279a3.033 3.033 0 0 0-.585-.188 10.11 10.11 0 0 1-1.466-.412 8.76 8.76 0 0 1-4.696-4.153 8.952 8.952 0 0 1-.911-2.876 11.469 11.469 0 0 1 0-2.284c.069-.536.285-1.412.474-1.922a9.67 9.67 0 0 1 1.516-2.595 8.776 8.776 0 0 1 5.01-2.957c.528-.106.82-.246 1.105-.53.253-.253.427-.565.508-.909.096-.404.1-.396-.228-.39a10.35 10.35 0 0 0-.606.034m1.183.069c0 .39.242.903.59 1.253.317.319.7.509 1.28.637a8.373 8.373 0 0 1 2.952 1.249c2.072 1.37 3.427 3.486 3.819 5.967.093.587.093 2.006.001 2.591a8.749 8.749 0 0 1-2.463 4.861 9.452 9.452 0 0 1-1.637 1.292c-.808.488-1.864.9-2.8 1.092-.62.127-.884.252-1.195.563-.317.319-.545.8-.547 1.155v.106l.688-.021c2.726-.081 5.552-1.527 7.392-3.781 1.22-1.494 1.952-3.147 2.266-5.119.112-.707.122-2.229.018-2.896-.295-1.888-.931-3.438-1.991-4.851a10.441 10.441 0 0 0-7.87-4.192L10.89.209v.119M3.85 9.594c-.491.173-.77.566-.77 1.087 0 .357.142.659.41.871.347.274-.201.255 7.24.255h6.684l.209-.079c.266-.099.497-.312.627-.576a1.125 1.125 0 0 0 0-.965 1.23 1.23 0 0 0-.572-.557l-.17-.078-6.746-.008c-6.064-.007-6.764-.002-6.912.05"/>
</svg>
