<svg xmlns="http://www.w3.org/2000/svg" viewBox="0 0 22 22">
    <path fill="#A12577" fill-rule="evenodd" d="M17.786.258c-.47.098-.911.31-1.291.618-.148.12-.697.647-1.219 1.17l-.948.952-.243-.111c-.824-.375-1.891-.654-2.902-.759a12.672 12.672 0 0 0-2.097.016A9.582 9.582 0 0 0 4.73 3.825a9.517 9.517 0 0 0-3.942 6.486c-.072.51-.072 1.968 0 2.478.08.558.224 1.166.424 1.786.318.987.415 1.745.331 2.585-.051.504-.059.541-.485 2.211-.184.721-.327 1.319-.317 1.328.009.01.568-.146 1.242-.345 1.471-.434 1.644-.474 2.188-.515.832-.062 1.456.043 2.366.398 1.364.532 2.284.706 3.766.712.924.005 1.331-.043 2.169-.253a9.437 9.437 0 0 0 5.613-3.994c.807-1.231 1.295-2.578 1.48-4.089.082-.671.056-1.915-.054-2.548a10.268 10.268 0 0 0-.828-2.644l-.229-.473.998-1.008c1.097-1.107 1.285-1.348 1.483-1.894.479-1.325-.052-2.818-1.239-3.485-.409-.23-.729-.312-1.271-.326a4.196 4.196 0 0 0-.639.023m1.061 1.571c.342.179.49.337.709.756.197.379.199.804.005 1.137-.047.08-.545.601-1.106 1.156-.561.555-3.074 3.048-5.585 5.54s-4.615 4.556-4.675 4.587c-.116.06-2.694.908-2.759.908-.032 0 .669-2.218.857-2.713.044-.116.184-.29.473-.587a7.29 7.29 0 0 0 .443-.481c.027-.05 8.363-8.502 9.671-9.807.572-.57.623-.592 1.343-.586.406.003.478.014.624.09m-7.595 2.04c.433.063 1.137.228 1.522.358l.251.085L9.204 8.16c-2.102 2.117-3.891 3.941-3.977 4.055-.085.114-.19.296-.233.404-.234.591-1.511 4.464-1.511 4.582 0 .193.057.322.211.481.147.151.3.216.512.216.154 0 4.269-1.38 4.575-1.535a4.96 4.96 0 0 0 .404-.239c.14-.094 1.629-1.554 4.113-4.035l3.893-3.888.051.126c.456 1.101.649 2.055.651 3.213.001 1.29-.251 2.358-.827 3.493a7.352 7.352 0 0 1-1.524 2.073c-1.676 1.624-3.887 2.364-6.236 2.09-.792-.093-1.349-.245-2.408-.658a7.498 7.498 0 0 0-1.325-.358c-.421-.074-1.694-.063-2.103.019-.179.036-.33.06-.335.054a2.636 2.636 0 0 1 .061-.36c.049-.239.078-.572.092-1.065.032-1.065-.044-1.587-.409-2.812-.231-.776-.326-1.236-.388-1.879-.103-1.071.099-2.434.516-3.486a7.625 7.625 0 0 1 3.703-4.03c.86-.431 1.398-.589 2.677-.784.265-.04 1.509-.019 1.865.032"/>
</svg>
