<svg xmlns="http://www.w3.org/2000/svg" xml:space="preserve" viewBox="0 0 32 32"><path fill-rule="evenodd" d="M6.2 4.113c-.111.032-.251.148-.388.321l-.214.271.015 9.528c.015 8.827.022 9.546.107 9.785.114.323.889 2.056 1.165 2.605.248.494.622.884 1.046 1.092.279.137.36.151.842.148.874-.006 1.245-.249 1.863-1.219l.35-.549.28-.035c.155-.019.401-.057.547-.084.724-.135 1.468-.025 2.393.354 1.211.497 2.395.693 3.868.641 1.203-.042 2.185-.288 3.353-.84 1.332-.629 2.571-1.659 3.504-2.912.609-.818 1.291-2.312 1.519-3.326.03-.133.055-.979.055-1.897l.002-1.658-.182-.662c-.746-2.721-2.507-4.993-4.762-6.145a8.72 8.72 0 0 0-7.35-.307c-.761.311-1.568.805-2.04 1.247l-.173.163V8.682c0-2.256-.032-2.534-.375-3.229-.264-.536-.65-.947-1.088-1.161-.292-.142-.38-.157-1.147-.192-1.169-.054-2.984-.046-3.19.013m3.385 2.111c.09.137.096.612.111 8.627.012 6.208 0 8.561-.044 8.776-.064.306-1.01 2.108-1.07 2.037a33.58 33.58 0 0 1-.533-1.077l-.502-1.04-.014-8.734-.015-8.733h1.973l.094.144m8.975 4.413c.975.147 1.783.462 2.637 1.028 1.492.989 2.65 2.791 2.997 4.664.129.694.128 2.138-.001 2.789-.304 1.538-.982 2.8-2.063 3.837-1.145 1.099-2.471 1.706-4.023 1.841-1.164.101-2.119-.063-3.259-.56-.835-.363-1.253-.457-2.168-.489l-.787-.027V13.437l.627-.628c1.736-1.741 3.852-2.502 6.04-2.172"/></svg>
