<svg width="32" height="32" xmlns="http://www.w3.org/2000/svg"><path d="M23.906 4.107c-.861.226-1.099.39-2.386 1.649-.558.545-1.125 1.095-1.26 1.222l-.247.232-.368-.162c-1.521-.668-3.538-.996-5.298-.862a10.947 10.947 0 0 0-4.134 1.117c-3.839 1.88-6.218 5.628-6.212 9.789.002 1.236.163 2.176.61 3.548.254.78.402 1.614.402 2.267 0 .672-.136 1.398-.585 3.117a51.46 51.46 0 0 0-.413 1.634c.006.005.66-.18 1.452-.411 1.682-.491 2.059-.576 2.745-.616.922-.055 1.67.091 2.892.562 2.133.824 4.634.973 6.843.407 4.445-1.139 7.677-4.79 8.237-9.305.072-.58.072-1.875 0-2.456a11.664 11.664 0 0 0-1.011-3.449l-.309-.65 1.235-1.217c1.319-1.3 1.529-1.571 1.748-2.256.151-.476.186-1.201.08-1.7-.261-1.226-1.258-2.231-2.467-2.488a3.582 3.582 0 0 0-1.554.028m1.483 1.788c.317.16.581.457.797.896.15.305.171.394.15.661a1.709 1.709 0 0 1-.119.509c-.063.132-1.385 1.453-3.81 3.811a2213.76 2213.76 0 0 0-6.553 6.398c-1.562 1.533-2.916 2.826-3.008 2.874-.14.072-3.238 1.089-3.318 1.089-.059 0 1.04-3.179 1.159-3.355.072-.105.678-.749 1.348-1.431 2.19-2.23 11.347-11.275 11.556-11.416.371-.25 1.338-.27 1.798-.036m-8.38 2.42c.674.15 1.451.386 1.433.436-.009.022-2.043 2.043-4.522 4.491-2.479 2.449-4.557 4.521-4.618 4.605-.206.281-.278.47-1.17 3.064-.94 2.736-.956 2.801-.747 3.12.109.166.373.332.599.374.133.025.754-.162 2.826-.854 2.19-.73 2.721-.926 3.021-1.116.27-.171 1.541-1.385 4.928-4.706 2.509-2.462 4.58-4.483 4.601-4.491.063-.025.429.987.587 1.62.216.867.286 1.587.252 2.567-.048 1.361-.336 2.451-.976 3.695a8.932 8.932 0 0 1-1.767 2.351c-1.761 1.701-4.076 2.579-6.549 2.484-1.248-.048-1.964-.197-3.265-.68-.933-.347-1.538-.5-2.303-.584-.661-.072-1.551-.041-2.152.076-.198.038-.36.064-.36.057 0-.007.042-.201.093-.432.072-.324.093-.665.093-1.512-.001-1.258-.043-1.531-.447-2.891-.417-1.403-.458-1.665-.458-2.949-.001-1.204.073-1.731.381-2.709 1.005-3.195 3.782-5.529 7.246-6.089.725-.118 2.606-.076 3.274.073" fill="#A12577" fill-rule="evenodd"/></svg>
