<svg xmlns="http://www.w3.org/2000/svg" xml:space="preserve" viewBox="0 0 32 32"><path fill-rule="evenodd" d="m21.36 4.956-.96.955-.533-.211c-.644-.255-1.709-.539-2.507-.669-.448-.073-.895-.096-1.893-.097-1.414-.001-1.718.033-2.615.29-4.122 1.182-7.204 4.337-8.127 8.323-.225.972-.268 1.369-.266 2.453.003 1.41.186 2.425.685 3.804.248.684.349 1.288.349 2.083 0 .874-.08 1.314-.615 3.387-.252.977-.45 1.783-.441 1.791.009.008.808-.21 1.776-.483.968-.274 1.921-.522 2.117-.553.969-.151 2.017.008 3.359.51 1.275.477 2.361.691 3.79.749 4.268.172 8.389-2.34 10.337-6.301a11.486 11.486 0 0 0 1.045-3.256c.13-.751.131-2.669.001-3.409a11.412 11.412 0 0 0-.842-2.818 8.079 8.079 0 0 1-.207-.492c0-.012.21-.164.467-.337.541-.365.743-.597 1.016-1.169l.197-.413v-1.6l-.185-.373c-.161-.325-.36-.551-1.542-1.747L24.408 4H22.32l-.96.956m2.927 2.293c.775.778.944.975.918 1.066l-.058.205c-.014.051-2.48 2.544-5.48 5.54l-5.454 5.446-.88.088c-1.254.125-1.305.122-1.387-.076-.059-.143-.038-.285.187-1.24.14-.593.281-1.128.314-1.189.059-.11 10.806-10.789 10.862-10.794.015-.001.456.428.978.954m-6.951.24c.25.044.62.132.821.194l.365.113-4.024 4.035-4.024 4.036-.222.48c-.157.337-.304.812-.495 1.6-.399 1.64-.406 2.148-.04 2.892.395.803 1.464 1.455 2.382 1.454.195-.001.849-.083 1.453-.183 1.749-.29 1.107.213 6.089-4.765 3.425-3.422 4.266-4.236 4.309-4.172.293.433.544 1.139.667 1.876.121.721.08 2.118-.084 2.898-.851 4.034-4.268 6.982-8.293 7.155-1.395.06-2.527-.141-4.189-.743-1.459-.529-2.963-.68-4.117-.414-.356.082-.346.098-.272-.385.097-.635.093-2.093-.007-2.763-.092-.616-.142-.833-.416-1.811-.319-1.138-.381-1.601-.381-2.826.001-1.228.074-1.789.341-2.618.22-.683.83-1.887 1.267-2.502.462-.649 1.392-1.579 2.041-2.04.92-.654 2.213-1.222 3.306-1.451.932-.195 2.608-.224 3.523-.06"/></svg>
