<svg xmlns="http://www.w3.org/2000/svg" viewBox="0 0 42 42"><path fill-rule="evenodd" d="M2.205 2.758a2.643 2.643 0 0 0-1.168.719C.164 4.377-.106 5.746.064 8.4c.216 3.352.667 8.191.914 9.8.344 2.238 1.349 3.989 3.006 5.237 1.751 1.319 4.112 1.968 6.877 1.888l1.175-.034-.9.23c-4.139 1.06-6.518 3.162-6.532 5.769-.008 1.645.82 3.248 2.606 5.043 2.96 2.974 5.638 3.924 7.974 2.827.735-.345 1.286-.76 1.986-1.496 1.304-1.371 2.449-3.493 3.447-6.391.182-.53.355-.963.383-.963.028 0 .201.433.383.963 1.003 2.913 2.138 5.015 3.452 6.396.696.731 1.247 1.146 1.981 1.491 2.324 1.091 5.004.148 7.939-2.793 1.818-1.822 2.65-3.42 2.641-5.077-.014-2.61-2.428-4.736-6.556-5.772l-.908-.228 1.191.034c2.233.065 4.082-.309 5.721-1.155a7.754 7.754 0 0 0 4.142-5.721c.385-2.401.961-9.15.968-11.343.004-1.298-.013-1.533-.145-2.005-.312-1.117-.853-1.833-1.664-2.206-.345-.159-.544-.198-1.117-.222-.838-.035-1.446.064-2.383.389-1.347.467-2.929 1.387-4.375 2.545-.841.674-2.56 2.328-3.598 3.462-2.604 2.845-5.402 6.721-7.112 9.849-.289.529-.542.961-.562.962-.02.001-.237-.369-.482-.821-1.549-2.857-3.896-6.2-6.4-9.118-.93-1.083-3.54-3.665-4.386-4.338C7.88 4.13 5.911 3.096 4.318 2.761c-.581-.123-1.731-.124-2.113-.003"/></svg>