<svg xmlns="http://www.w3.org/2000/svg" xml:space="preserve" viewBox="0 0 32 32"><path fill-rule="evenodd" d="M8.562 4.059c-1.355.198-2.085.809-2.414 2.021-.089.325-.095.932-.095 9.867 0 8.97.006 9.54.095 9.866.297 1.082.877 1.693 1.857 1.956.306.082.782.094 4.608.112 4.308.02 5.211-.004 6.774-.181 1.138-.129 1.837-.325 2.72-.763 1.135-.563 1.828-1.135 2.558-2.111.549-.735 1.057-1.953 1.232-2.959.129-.742.082-1.921-.104-2.637-.408-1.564-1.459-2.844-3.069-3.737-.264-.146-.481-.28-.482-.296-.001-.016.156-.146.349-.287.78-.573 1.578-1.528 1.917-2.294.486-1.1.613-2.573.319-3.708a7.312 7.312 0 0 0-1.005-2.182c-.269-.389-.958-1.056-1.422-1.374-.392-.269-1.165-.635-1.707-.807-.596-.189-1.897-.417-2.8-.491-.783-.064-8.887-.059-9.331.005m8.27 4.549c.811.116 1.6.324 1.845.486.271.179.505.512.617.876.138.45.121 1.376-.032 1.769-.266.68-.758 1.16-1.409 1.376-.701.233-1.242.271-3.84.271l-2.44.001v-2.418c0-1.33.018-2.436.04-2.459.077-.079 4.576.006 5.219.098m1.181 9.355c.76.175 1.273.41 1.592.729.66.659.885 1.854.552 2.933-.326 1.054-1.404 1.687-3.13 1.839-.345.03-1.713.055-3.04.055l-2.414.001v-5.714l2.974.022c2.802.02 3.001.027 3.466.135"/></svg>
