<svg xmlns="http://www.w3.org/2000/svg" viewBox="0 0 16 22">
    <path fill="#A12577" fill-rule="evenodd" d="M7.453.177a2.713 2.713 0 0 0-.857.369c-.205.133-.545.461-2.605 2.517-1.365 1.362-2.435 2.452-2.526 2.572a2.647 2.647 0 0 0-.443.915 1.98 1.98 0 0 0-.07.61c-.001.389.05.652.193.997.193.466.201.475 2.785 3.06 1.61 1.61 2.459 2.44 2.573 2.516.37.247.8.403 1.25.453.62.07 1.312-.141 1.874-.569.141-.108 1.096-1.045 2.536-2.488 2.48-2.487 2.5-2.51 2.692-2.972.144-.346.194-.608.193-.997a2.007 2.007 0 0 0-.072-.613 2.63 2.63 0 0 0-.48-.96c-.094-.118-1.226-1.266-2.514-2.551C9.947 1.004 9.609.679 9.404.546a2.65 2.65 0 0 0-.876-.371 3.62 3.62 0 0 0-1.075.002m.975 1.802c.19.094.301.2 2.496 2.4 2.214 2.219 2.298 2.307 2.355 2.461a.913.913 0 0 1-.023.667c-.093.196-4.726 4.829-4.923 4.922a.91.91 0 0 1-.666.024c-.155-.057-.24-.139-2.51-2.409C3.263 8.149 2.795 7.667 2.745 7.56c-.09-.189-.092-.558-.006-.733.043-.087.702-.762 2.4-2.459 2.15-2.147 2.355-2.345 2.514-2.421a.595.595 0 0 1 .375-.075.786.786 0 0 1 .4.107M.587 15.109v5.643l.093.177c.196.374.456.631.8.794.275.131.462.17.801.17.334 0 .482-.034.772-.179.173-.086.342-.248 2.294-2.193 2.404-2.397 2.235-2.254 2.68-2.254.444 0 .283-.135 2.613 2.187 1.927 1.921 2.051 2.039 2.236 2.132.4.199.817.25 1.218.147.605-.155.993-.515 1.19-1.106l.063-.187.007-5.376.007-5.376-.167.026a1.744 1.744 0 0 0-.993.513 1.757 1.757 0 0 0-.521 1.052c-.015.103-.026 1.715-.026 3.929-.001 3.73-.001 3.755-.055 3.861a.519.519 0 0 1-.429.264.701.701 0 0 1-.202-.028c-.041-.015-.933-.884-1.995-1.943-1.809-1.805-1.931-1.92-2.113-2.01a1.89 1.89 0 0 0-1.705.05c-.084.048-.8.742-2.062 1.999-1.557 1.552-1.953 1.932-2.036 1.959a.827.827 0 0 1-.26.021.547.547 0 0 1-.436-.261c-.054-.093-.054-.122-.068-4.16l-.014-4.067-.062-.199a1.568 1.568 0 0 0-.443-.735 1.456 1.456 0 0 0-.392-.3c-.201-.098-.54-.192-.693-.192H.587v5.642"/>
</svg>
