<svg width="32" height="32" xmlns="http://www.w3.org/2000/svg"><path d="M15.277 4.072c-.638.208-.836.371-2.555 2.114-3.41 3.457-3.782 3.85-3.958 4.187a2.799 2.799 0 0 0-.347 1.35c0 .792.234 1.381.795 1.994.89.976 5.071 5.179 5.29 5.319.969.619 2.097.606 3.083-.036.339-.221 5.359-5.317 5.602-5.688.23-.35.382-.773.452-1.257.072-.503-.028-1.056-.288-1.588-.195-.398-.308-.519-3.777-4.046-1.879-1.909-1.898-1.927-2.37-2.16-.471-.232-.482-.234-1.093-.247-.4-.008-.694.013-.834.058M16.52 6.04c.213.117 4.954 4.913 5.144 5.203a.865.865 0 0 1 .055.818c-.152.339-5.107 5.389-5.403 5.508-.553.221-.534.236-3.376-2.672-1.375-1.407-2.537-2.627-2.581-2.712-.113-.216-.105-.677.016-.863.144-.22 5.038-5.187 5.225-5.303.228-.14.645-.131.92.021M8 20.474v6.196l.139.274c.332.656.943 1.024 1.701 1.025.757.001.783-.018 2.79-2.061.959-.976 1.948-1.988 2.197-2.249.596-.623.839-.779 1.215-.779.159 0 .368.038.465.084.098.046 1.165 1.089 2.371 2.317 2.546 2.593 2.468 2.533 3.309 2.532.445-.001.543-.019.811-.15.372-.182.69-.53.854-.935l.121-.301.015-5.954.014-5.953-.236.044c-.812.152-1.439.817-1.58 1.676-.031.189-.053 2.014-.054 4.453-.002 4.4.01 4.201-.264 4.389-.331.229-.278.272-2.615-2.09-2.054-2.077-2.175-2.189-2.475-2.297-.561-.202-1.26-.132-1.705.17-.109.074-1.1 1.056-2.201 2.182-1.102 1.125-2.055 2.075-2.118 2.111a.614.614 0 0 1-.561-.008c-.318-.164-.297.137-.326-4.825L9.84 15.76l-.123-.304c-.245-.607-.831-1.073-1.44-1.145L8 14.278v6.196" fill="#A12577" fill-rule="evenodd"/></svg>
