<svg xmlns="http://www.w3.org/2000/svg" viewBox="0 0 24 24">
    <path fill="#A12577" fill-rule="evenodd" d="M11.351 1.235a1.708 1.708 0 0 0-.655.484c-.068.087-.588 1.008-1.155 2.049L8.509 5.66 6.574 6.716C4.463 7.868 4.346 7.948 4.138 8.388c-.265.559-.096 1.317.376 1.686.08.063 1.013.586 2.073 1.163l1.926 1.05 1.05 1.926c.577 1.06 1.1 1.993 1.163 2.073.151.192.438.371.732.456.581.167 1.217-.082 1.57-.615.084-.127.593-1.041 1.132-2.033l.98-1.802 1.94-1.056c1.34-.73 1.999-1.11 2.13-1.231.429-.397.558-1.073.311-1.631a1.722 1.722 0 0 0-.309-.403c-.199-.194-.502-.373-2.149-1.269L15.145 5.66 14.077 3.7c-1.147-2.106-1.214-2.205-1.624-2.405-.302-.148-.814-.176-1.102-.06m1.504 3.805c.785 1.411.979 1.731 1.14 1.88.138.128.68.442 1.864 1.08.918.495 1.695.918 1.727.94.043.031-.364.271-1.695 1-1.267.695-1.807 1.012-1.953 1.148-.173.162-.331.427-1.134 1.91-.514.948-.947 1.732-.965 1.742-.017.011-.451-.758-.965-1.709-.712-1.319-.977-1.772-1.114-1.911-.14-.142-.553-.383-1.866-1.094a97.878 97.878 0 0 1-1.752-.959c-.054-.04.219-.207 1.722-1.047 1.406-.787 1.817-1.034 1.931-1.165.08-.091.566-.943 1.081-1.893.753-1.389.945-1.717.985-1.675.027.029.474.818.994 1.753M4.48 16.927v5.658l.14.237c.373.63 1.126.988 1.814.861.553-.102.555-.103 2.886-2.424l2.14-2.13.227-.047a.988.988 0 0 1 .653.068c.066.032 1.047.98 2.18 2.107 1.888 1.878 2.081 2.058 2.309 2.158.36.157.672.204.993.148.701-.123 1.185-.556 1.364-1.223.076-.285.08-10.86.004-10.859-.119.001-.565.125-.701.195-.381.194-.716.604-.85 1.037-.076.247-.079.387-.081 4.081-.002 2.855-.015 3.861-.05 3.965-.1.289-.497.415-.733.231-.063-.049-.943-.905-1.955-1.901-2.023-1.992-2.046-2.011-2.613-2.099a1.495 1.495 0 0 0-.558.006c-.566.101-.531.072-2.669 2.204-1.702 1.696-1.979 1.958-2.107 1.981a.606.606 0 0 1-.643-.274c-.039-.067-.055-1.03-.07-4.227l-.02-4.14-.137-.292a1.651 1.651 0 0 0-1.313-.957l-.21-.022v5.658"/>
</svg>
