<svg xmlns="http://www.w3.org/2000/svg" viewBox="0 0 16 18">
    <path fill="#A12577" fill-rule="evenodd" d="M3.707.494c0 .037.018.161.041.274a1.682 1.682 0 0 0 1.23 1.315c.208.054.228.054 3.795.032 4.765-.029 4.339-.032 4.467.036a.679.679 0 0 1 .305.329c.054.12.054.141.054 6.234.001 6.765.015 6.263-.17 6.34-.07.03-.111.032-.168.011-.041-.015-1.009-.96-2.154-2.103l-2.08-2.076-.227-.108a1.794 1.794 0 0 0-1.597-.002l-.23.111-1.318 1.336c-.725.736-1.662 1.682-2.081 2.104l-.762.766h-.133a.373.373 0 0 1-.327-.162c-.042-.06-.046-.451-.059-5.584l-.013-5.52-.063-.187a1.635 1.635 0 0 0-.432-.71C1.5 2.642 1.179 2.492.74 2.439l-.153-.018v13.775l.083.149c.342.608.87.95 1.517.981.337.016.51-.015.776-.142.19-.091.277-.173 2.357-2.248 1.718-1.714 2.187-2.167 2.293-2.218.115-.055.173-.064.414-.064.254-.001.293.006.426.074.119.061.528.455 2.147 2.071 1.433 1.43 2.049 2.027 2.171 2.106.268.171.545.25.882.252.325.002.534-.045.814-.182.439-.216.709-.559.84-1.068.052-.206.053-.296.053-6.878 0-6.613-.001-6.671-.055-6.896A2.214 2.214 0 0 0 14.097.655c-.49-.234.037-.213-5.49-.222l-4.9-.007v.068"/>
</svg>
