<svg width="32" height="32" xmlns="http://www.w3.org/2000/svg"><path d="M16.124 4.048c-.229.059-.599.283-.776.469-.08.084-.668 1.086-1.307 2.226L12.88 8.816l-2.069 1.105c-1.138.608-2.159 1.177-2.268 1.264-.44.354-.634 1.007-.469 1.576.168.579.328.695 2.71 1.963l2.118 1.127 1.159 2.085c.788 1.415 1.227 2.149 1.367 2.285.61.592 1.687.532 2.25-.126.095-.112.649-1.06 1.23-2.109a101.628 101.628 0 0 1 1.143-2.03c.051-.073.95-.586 2.165-1.236 1.142-.611 2.17-1.189 2.284-1.284.234-.196.443-.607.493-.966.052-.381-.092-.782-.401-1.121-.234-.256-.477-.401-2.35-1.401-1.36-.726-2.122-1.162-2.184-1.251a95.713 95.713 0 0 1-1.175-2.084c-.594-1.07-1.155-2.026-1.248-2.124-.348-.368-1.026-.566-1.511-.441m1.459 4.044c.66 1.156 1.131 1.923 1.253 2.04.118.113.943.582 2.066 1.175 1.029.542 1.87 1 1.871 1.017 0 .017-.845.485-1.879 1.04-1.087.584-1.973 1.095-2.103 1.212-.169.154-.452.619-1.171 1.92-.521.945-.988 1.784-1.037 1.866l-.088.149-1.024-1.856c-.648-1.174-1.097-1.926-1.221-2.049-.127-.126-.847-.538-2.037-1.167l-1.912-1.011c-.046-.025.625-.42 1.849-1.09 1.48-.809 1.97-1.103 2.127-1.275.112-.123.621-.979 1.131-1.903.979-1.776 1.062-1.92 1.096-1.92.012 0 .498.834 1.079 1.852M8.48 20.715v5.956l.114.224c.377.746 1.133 1.168 1.939 1.084.629-.065.716-.135 3.112-2.482 1.214-1.19 2.287-2.22 2.383-2.288.266-.191.732-.215 1.024-.054.125.069 1.205 1.083 2.4 2.254 2.522 2.469 2.434 2.405 3.295 2.404.483 0 .562-.015.843-.157.356-.18.64-.47.803-.823.114-.246.114-.249.128-6.049l.014-5.803-.201.037c-.658.119-1.175.502-1.438 1.062l-.149.32-.027 4.216c-.024 3.864-.034 4.227-.118 4.355-.119.182-.403.278-.599.203-.081-.03-1.047-.925-2.148-1.988-1.102-1.063-2.065-1.976-2.142-2.028a1.997 1.997 0 0 0-1.367-.305c-.63.103-.711.167-2.879 2.293-1.115 1.093-2.099 2.032-2.187 2.087-.194.121-.355.127-.579.02-.346-.164-.325.115-.354-4.746l-.027-4.427-.182-.335c-.1-.185-.267-.41-.371-.501a2.099 2.099 0 0 0-1.016-.453l-.271-.033v5.957" fill="#A12577" fill-rule="evenodd"/></svg>
