<svg fill="currentColor" viewBox="0 0 32 32"><path d="M16.957 8c-1.074 1.91-2.925 2.805-4.894 2.447l-.18 1.193c.359.06.717.12 1.015.12 2.09 0 3.94-1.134 5.074-3.164L16.957 8Z"/><path d="M25.135 12.894c2.089-2.388 3.163-4.954 2.03-6.865C26.626 5.074 25.432 4 22.687 4c-1.373 0-2.925.298-4.597.776-.776-.239-1.552-.418-2.447-.418-3.7 0-6.805 2.627-7.58 6.089-.836.895-1.612 1.67-2.269 2.507-1.79 2.387-2.268 4.536-1.313 6.148.537.895 1.731 1.97 4.417 1.97 1.731 0 3.7-.418 5.79-1.194.239.06.537.06.776.06v7.819l6.566-4.179 5.97 3.94V12.894h-2.865Zm1.73 12.415-4.774-3.163-5.373 3.402v-11.46h10.148v11.221ZM22.868 9.193a6.013 6.013 0 0 0-.717-1.373c.776 0 1.075.18 1.075.239.12.179 0 .537-.358 1.134Zm-.597 2.985c0 .238 0 .477-.06.716h-4.536c1.253-.955 2.387-2.268 3.223-3.88l-1.075-.537c-2.029 3.82-5.55 5.73-9.49 5.193l-.18 1.194c.538.06 1.015.119 1.493.119 1.313 0 2.567-.239 3.76-.776v4.596a6.538 6.538 0 0 1-6.327-6.566 6.547 6.547 0 0 1 6.566-6.566 6.473 6.473 0 0 1 6.626 6.507ZM9.735 17.072c-.239.06-.478.06-.716.06-.776 0-1.075-.18-1.075-.239-.12-.179.12-.776.657-1.612.298.657.656 1.254 1.134 1.791ZM22.688 5.194c1.611 0 2.865.477 3.402 1.373.895 1.492-.239 3.88-2.567 6.267h-.06c0-.239.06-.477.06-.716 0-.537-.06-1.015-.179-1.552 1.015-1.254 1.373-2.388.955-3.164-.298-.597-1.074-.835-2.149-.835-.298 0-.596 0-.895.06-.418-.418-.895-.777-1.433-1.135 1.015-.179 2.03-.298 2.866-.298ZM8.899 19.878c-1.612 0-2.865-.478-3.402-1.373-.836-1.492.179-3.82 2.447-6.148 0 .537.06 1.074.18 1.611-1.195 1.433-1.732 2.746-1.254 3.522.298.597 1.074.836 2.148.836.538 0 1.075-.06 1.732-.18.537.478 1.193.836 1.85 1.135-1.373.358-2.626.597-3.7.597Z"/></svg>