<svg xmlns="http://www.w3.org/2000/svg" viewBox="0 0 42 42"><path fill="#A22678" fill-rule="evenodd" d="M16.195 3.994c-1.461.19-2.808 1.423-3.212 2.939-.067.253-.102.74-.102 1.442l-.001 1.061-.507.048c-3.393.322-6.029 2.472-6.902 5.628l-.186.673v16.17l.155.58c.769 2.884 2.734 4.795 5.681 5.526.416.103 1.421.118 9.669.141 9.784.027 10.065.02 11.184-.304a7.37 7.37 0 0 0 4.912-4.703c.395-1.18.376-.76.405-8.94.029-8.061.018-8.431-.306-9.547-.315-1.088-.827-1.979-1.626-2.825a7.168 7.168 0 0 0-4.104-2.19 7.992 7.992 0 0 0-.915-.103h-.285l-.083-1.172c-.045-.645-.125-1.331-.177-1.523-.412-1.54-1.729-2.703-3.291-2.906-.604-.078-9.702-.074-10.309.005M25.97 8.68v.77h-9.31V7.91h9.31v.77m4.73 4.906c1.248.228 2.312 1.214 2.632 2.438.099.38.121.802.124 2.392l.004 1.931-2.642.437a132.35 132.35 0 0 0-2.765.471c-.102.029-.123-.012-.123-.239 0-.15-.066-.475-.146-.722-.43-1.318-1.323-2.252-2.624-2.742-.404-.153-.499-.158-3.585-.178-3.501-.023-3.602-.013-4.495.418-.318.154-.625.391-1.021.787-.639.64-.87 1.054-1.097 1.975-.129.523-.159.58-.291.551-.08-.018-1.264-.239-2.631-.49a511.835 511.835 0 0 1-2.677-.497l-.193-.039.001-1.587c.001-.873.031-1.787.066-2.032.194-1.343 1.327-2.556 2.663-2.853.52-.115 18.175-.135 18.8-.021m-6.83 7.824c0 .218-.223.678-1.147 2.363-1.074 1.961-1.159 2.093-1.353 2.113-.123.013-.243-.023-.297-.087-.239-.289-2.453-4.202-2.453-4.336 0-.32.027-.323 2.709-.323h2.541v.27m-11.356 3.159c1.666.27 3.102.491 3.192.491.456 0 .539.091 1.304 1.417.882 1.528 1.206 1.981 1.691 2.365.827.654 1.648.935 2.719.931.888-.003 1.612-.21 2.29-.655.658-.432 1.102-.981 1.905-2.354.402-.687.739-1.26.749-1.274.01-.014.453-.082.984-.152.774-.101 5.239-.853 6.06-1.02l.192-.039-.001 3.348c-.002 3.737-.022 3.953-.451 4.766-.484.919-1.224 1.56-2.117 1.836-.447.138-.638.141-9.671.14-7.471-.001-9.281-.018-9.565-.094-1.298-.347-2.367-1.553-2.553-2.88-.038-.269-.07-2.042-.071-3.939l-.001-3.449.158.036c.086.02 1.52.257 3.186.526"/></svg>
