<svg xmlns="http://www.w3.org/2000/svg" xml:space="preserve" viewBox="0 0 32 32"><path fill-rule="evenodd" d="M18.998 4.321c-.737.193-1.486.686-2.072 1.363-.256.297-.838 1.125-.889 1.266-.028.079-.02.088-.325-.376-.576-.88-1.525-1.682-2.34-1.98-.347-.127-.457-.14-1.105-.138-.643.002-.759.017-1.08.14-1.053.402-1.883 1.22-2.511 2.473-.326.65-.477 1.115-.432 1.324.061.285.18.461.373.553.16.076.229.08.484.026.407-.085.607-.251.761-.632.371-.917 1.049-1.764 1.647-2.058.306-.151.411-.175.757-.175.335 0 .453.025.717.155.394.194.983.767 1.351 1.317l.272.405-.138.288c-.198.412-.2.936-.006 1.283l.139.249-.224.161c-.841.604-1.782 1.932-2.273 3.208-.096.25-.189.471-.207.492-.033.039-2.451.172-2.487.136a45.6 45.6 0 0 1-.368-1.617c-.191-.879-.387-1.676-.437-1.772-.232-.45-.875-.547-1.292-.196-.318.268-.316.298.129 2.264.434 1.917.516 2.147.895 2.489.115.104.358.259.54.344.381.178.541.19 1.809.128.812-.039.844-.037.817.059-.036.124-.138 1.1-.187 1.786l-.036.513-.773-.364c-1.043-.492-1.376-.599-1.867-.603-.443-.004-.79.1-1.147.343-.117.081-.789.748-1.493 1.485-1.361 1.423-1.463 1.566-1.391 1.949.052.275.456.709.704.756.427.08.458.056 1.84-1.38.711-.74 1.347-1.367 1.412-1.393.095-.039.387.066 1.476.533l1.359.582.035.266c.07.541.257 1.381.407 1.828.085.254.144.471.131.483-.012.013-.415-.001-.895-.031-1.24-.076-1.694.015-2.154.431-.343.31-.454.624-.864 2.447-.209.929-.379 1.733-.379 1.786.003.196.209.549.383.655.373.228 1.014.091 1.285-.274.069-.094.229-.689.472-1.759.202-.889.399-1.648.437-1.686.056-.057.306-.06 1.319-.015.687.03 1.287.055 1.332.055.045 0 .224.194.397.431 1.467 2.005 3.314 2.413 4.965 1.096.368-.294.887-.871 1.168-1.3.131-.2.172-.227.349-.227.11 0 .805-.025 1.545-.056.74-.031 1.353-.049 1.363-.039.009.009.176.725.371 1.59.213.946.4 1.655.47 1.78.156.278.407.405.803.405.298 0 .325-.011.541-.227.388-.388.388-.395-.031-2.265-.203-.903-.42-1.753-.483-1.89-.147-.321-.528-.691-.9-.877-.383-.191-.844-.217-1.887-.105a25.13 25.13 0 0 1-.887.084c-.084 0-.075-.063.086-.621.099-.342.257-.994.351-1.449l.172-.827 1.043-.502c.573-.276 1.103-.514 1.177-.529.12-.024.282.126 1.414 1.31.702.736 1.353 1.374 1.445 1.418.407.194.862.009.946-.384.096-.452.077-.479-1.325-1.943-1.334-1.394-1.543-1.577-1.953-1.715-.654-.219-.97-.166-2.048.342-.441.208-.831.39-.868.405-.049.02-.066-.075-.066-.377 0-.222-.038-.672-.083-.998-.046-.327-.074-.604-.063-.615.01-.011.426.006.923.038.496.031 1.034.042 1.196.024.57-.066 1.157-.442 1.388-.889.16-.309.921-3.763.89-4.038a.892.892 0 0 0-.558-.7c-.281-.099-.605-.011-.838.229-.153.157-.188.278-.53 1.821-.202.91-.39 1.684-.419 1.72-.06.077-.489.085-1.752.032l-.833-.034-.094-.299c-.403-1.284-1.342-2.805-2.21-3.582l-.367-.329.128-.274c.227-.487.119-1.163-.243-1.525l-.113-.113.186-.305c.438-.712.922-1.197 1.455-1.456.377-.183.903-.174 1.291.023.159.08.385.222.503.316.303.24.824.917 1.129 1.466.371.668.444.761.688.872.315.143.491.128.733-.064.552-.437.496-.884-.272-2.148-1.143-1.885-2.626-2.685-4.204-2.272m-2.271 6.639c1.199.229 2.16 1.141 2.15 2.042-.003.327-.138.593-.37.729-.182.106-.249.109-2.427.092-2.581-.02-2.537-.013-2.716-.451-.095-.23-.098-.286-.038-.587.181-.891 1.032-1.632 2.098-1.825.524-.095.809-.095 1.303 0"/></svg>
