<svg xmlns="http://www.w3.org/2000/svg" viewBox="0 0 32 32" xml:space="preserve"><path d="M17.813 4.076c-1.966.353-3.33 1.314-4.132 2.911-.515 1.025-.722 1.971-.757 3.466-.013.572-.048 1.103-.078 1.18-.029.076-1.788 1.822-3.909 3.879-4.164 4.038-4.023 3.884-4.343 4.755-.312.85-.39 1.807-.203 2.506.192.719.659 1.523.85 1.463.088-.029.094-.019.043.076-.05.093-.033.128.116.241.286.218.937.504 1.362.599.534.119 1.524.078 2.091-.086.448-.129 1.175-.461 1.404-.641.082-.065 1.699-1.717 3.594-3.671l3.702-3.819.257-.264 1.108-.01c1.634-.016 2.584-.208 3.669-.742 1.513-.745 2.574-2.25 2.913-4.132.096-.532.096-2.194-.001-2.719-.063-.344-.574-2.294-.61-2.33-.008-.008-1.059.823-2.337 1.844-2.546 2.035-2.623 2.085-3.274 2.085h-.345l-.005-.227c-.009-.406.01-.65.064-.822.029-.092.904-1.232 1.944-2.533 1.039-1.301 1.89-2.377 1.89-2.392 0-.026-1.405-.417-2.053-.571-.459-.109-2.434-.14-2.96-.046m.736 2.444c-1.141 1.404-1.367 1.761-1.614 2.547-.171.544-.217 1.114-.163 2.041l.039.679h1.109V12.902l.173.026c.096.015.534.04.974.056 1.465.054 2.021-.16 3.507-1.348.417-.333.772-.614.789-.625.046-.028-.05.646-.144 1.015-.25.978-.971 1.802-1.886 2.156-.692.268-1.144.337-2.506.379-.69.021-1.326.062-1.414.091a5.343 5.343 0 0 0-.506.226c-.311.154-.748.573-4.16 3.975-2.098 2.092-3.889 3.84-3.981 3.886-.268.134-.93.301-1.195.301a2.19 2.19 0 0 1-.511-.079c-.216-.064-.282-.114-.354-.264-.203-.426-.166-1.041.099-1.632.128-.286.469-.631 3.942-3.995 2.434-2.358 3.874-3.791 4.002-3.984.11-.166.262-.472.337-.681.129-.359.136-.438.144-1.552.004-.645.036-1.329.071-1.52.208-1.131.665-1.941 1.343-2.379.542-.351 1.384-.64 1.909-.655l.18-.006-.184.227m2.762 10.479c-.016.052-.109.452-.207.889l-.177.795-.233.069-.232.069-.753-.451c-.413-.247-.8-.45-.858-.45-.102 0-1.198 1.043-1.198 1.14 0 .024.214.4.475.834l.476.789-.085.237-.085.236-.777.172c-.427.095-.82.185-.872.2-.086.024-.093.102-.08.888l.015.862.842.193c.464.106.863.214.887.241a.99.99 0 0 1 .105.232c.059.178.047.207-.393.942-.25.417-.454.804-.454.86 0 .088 1.104 1.241 1.189 1.241.017 0 .374-.206.791-.458l.76-.458.243.078.243.077.187.821c.103.451.206.85.23.887.031.048.268.066.864.066h.822l.053-.2c.029-.11.103-.428.164-.707.203-.92.186-.885.444-.957l.23-.064.759.457c.418.252.777.458.798.458.048 0 1.236-1.19 1.236-1.238 0-.02-.212-.389-.471-.819l-.471-.782.084-.236c.095-.264.017-.23 1.098-.474.352-.08.67-.169.707-.198.047-.038.066-.269.066-.812 0-.656-.012-.769-.093-.838-.051-.045-.458-.161-.904-.259l-.81-.178-.078-.236-.077-.235.477-.793c.377-.626.466-.813.426-.888-.082-.15-1.117-1.146-1.165-1.12l-.82.486-.778.463-.235-.1-.236-.1-.188-.848-.188-.849-.861-.014c-.786-.014-.864-.007-.892.08m.993 2.988c.044.051.245.41.447.796l.367.704.816.47c1.061.611 1.061.585.028 1.134l-.759.402-.472.744c-.5.786-.596.891-.736.802-.047-.03-.262-.389-.478-.799l-.393-.746-.756-.434c-.758-.435-.874-.531-.818-.675.016-.043.379-.267.807-.498l.778-.42.406-.7c.545-.941.587-.984.763-.78" fill="#A12577" fill-rule="evenodd"/></svg>
