<svg xmlns="http://www.w3.org/2000/svg" viewBox="0 0 42 42"><path fill-rule="evenodd" d="M9.835 4.122a6.122 6.122 0 0 0-3.979 3.206c-.102.2-.271.641-.378.98l-.193.617-.019 14.508-.018 14.507 15.278-.017 15.279-.018V9.065l-.158-.595c-.548-2.059-2.001-3.598-4.042-4.281l-.49-.164-10.395-.013c-9.721-.012-10.427-.005-10.885.11M30.711 8.04c.45.204.864.641 1.041 1.099.129.336.133.716.133 12.596v12.25h-4.97l-.039-2.31c-.038-2.256-.043-2.324-.228-2.926-.762-2.479-2.721-4.158-5.29-4.532-2.058-.3-4.394.681-5.692 2.392-.526.694-.776 1.159-1.047 1.951l-.227.665-.039 2.38-.038 2.38h-5.11l-.018-12.144c-.019-13.36-.044-12.563.408-13.132.299-.377.809-.718 1.185-.793.177-.035 4.546-.057 9.94-.052l9.625.011.366.165m-16.536 2.25c-1.591.234-2.931 1.434-3.287 2.947-.151.641-.152 4.104 0 4.746.341 1.448 1.659 2.691 3.118 2.939.634.108 1.754.096 2.322-.025 1.373-.291 2.591-1.459 2.958-2.838.15-.561.148-4.279-.002-4.855-.187-.72-.451-1.164-1.047-1.766-.585-.59-1.133-.919-1.789-1.074-.441-.104-1.773-.148-2.273-.074m11.305-.004a4.338 4.338 0 0 0-3.546 3.049c-.11.362-.128.678-.128 2.275-.001 1.603.016 1.912.128 2.275.413 1.349 1.435 2.437 2.702 2.878.676.235 1.721.295 2.454.141 1.604-.339 2.929-1.664 3.262-3.264.087-.419.104-.878.082-2.275-.025-1.599-.041-1.789-.186-2.205-.464-1.326-1.578-2.391-2.882-2.754-.475-.133-1.378-.19-1.886-.12m-9.395 2.727c.658.335.715.543.715 2.597 0 1.8-.032 2.005-.371 2.368-.312.334-.522.396-1.355.396-.756.001-.792-.006-1.085-.21a1.613 1.613 0 0 1-.464-.525c-.157-.307-.16-.356-.14-2.104.02-1.778.021-1.793.195-2.052.096-.143.301-.338.455-.431.251-.153.359-.171 1.035-.171.604-.001.808.026 1.015.132m10.745-.039c.333.14.666.446.841.772.146.273.154.374.154 1.864 0 1.402-.014 1.602-.13 1.82-.35.655-.83.939-1.585.936-.775-.004-1.311-.328-1.571-.951-.15-.359-.159-3.229-.012-3.582.121-.29.552-.727.84-.853.283-.123 1.174-.126 1.463-.006m-5.231 15.34c.496.243 1.022.816 1.21 1.318.141.378.151.527.151 2.361v1.957h-4.696l.021-2.082c.019-2.024.025-2.092.184-2.417.302-.613.954-1.146 1.602-1.309.421-.106 1.121-.027 1.528.172"/></svg>
