<svg xmlns="http://www.w3.org/2000/svg" xml:space="preserve" viewBox="0 0 32 32"><path fill="#A12577" fill-rule="evenodd" d="M5.543 5.46c-.556.149-1.074.593-1.337 1.143a2.075 2.075 0 0 0 .634 2.542c.614.45 1.486.531 2.161.199.415-.205.791-.59.989-1.012.127-.27.143-.369.143-.865 0-.47-.019-.603-.121-.823-.436-.946-1.485-1.45-2.469-1.184m4.75.776a1.348 1.348 0 0 0-.659.437c-.244.285-.318.515-.29.902.048.663.552 1.132 1.287 1.197.21.019 3.97.027 8.356.018 8.834-.018 8.124.012 8.553-.365a1.233 1.233 0 0 0 .063-1.839c-.432-.431.274-.4-8.959-.395-4.52.003-8.277.023-8.351.045M5.402 14.13c-.736.27-1.211.838-1.355 1.623-.251 1.363.942 2.565 2.353 2.372.658-.09 1.293-.571 1.59-1.207.126-.267.143-.371.143-.838 0-.467-.017-.571-.143-.838a2.224 2.224 0 0 0-.992-1.014c-.302-.148-.411-.172-.833-.185-.372-.011-.549.009-.763.087m4.986.694c-.314.061-.688.324-.861.604-.388.628-.151 1.456.519 1.814l.221.118 8.291.014c9.334.016 8.598.048 9.042-.395.648-.649.433-1.696-.427-2.083-.202-.091-.639-.096-8.4-.104-4.502-.004-8.276.01-8.385.032m-4.84 7.608c-.405.109-.688.287-1.004.633-.583.638-.692 1.562-.281 2.369.163.318.579.7.958.877 1.351.632 2.939-.371 2.939-1.858a2.066 2.066 0 0 0-2.612-2.021m4.745.764a1.348 1.348 0 0 0-.659.437c-.244.285-.318.515-.29.902.048.663.552 1.132 1.287 1.197.21.019 3.97.027 8.356.018 8.834-.018 8.124.012 8.553-.365a1.233 1.233 0 0 0 .063-1.839c-.432-.431.274-.4-8.959-.395-4.52.003-8.277.023-8.351.045"/></svg>
