<svg xmlns="http://www.w3.org/2000/svg" viewBox="0 0 32 32" xml:space="preserve"><path d="M5.543 5.46c-.556.149-1.074.593-1.337 1.143a2.075 2.075 0 0 0 .634 2.542c.614.45 1.486.531 2.161.199.415-.205.791-.59.989-1.012.127-.27.143-.369.143-.865 0-.47-.019-.603-.121-.823-.436-.946-1.485-1.45-2.469-1.184m4.653.794c-.257.083-.676.481-.783.746a1.283 1.283 0 0 0 .363 1.454c.428.367-.112.346 8.864.346 9.231 0 8.492.037 8.961-.445.414-.425.506-.896.273-1.397a1.37 1.37 0 0 0-.701-.672c-.203-.093-.589-.097-8.506-.093-5.708.003-8.349.022-8.471.061m-4.729 7.844c-.94.311-1.525 1.173-1.452 2.14a2.082 2.082 0 0 0 2.824 1.788 2.133 2.133 0 0 0 1.219-1.269c.16-.477.13-1.088-.075-1.53a2.25 2.25 0 0 0-.97-1.001c-.281-.146-.381-.168-.826-.182-.319-.01-.586.01-.72.054m4.817.749a1.297 1.297 0 0 0-.818 1.846c.114.22.525.559.764.631.156.047 2.29.063 8.458.063 7.286 0 8.272-.01 8.444-.082.472-.197.794-.605.85-1.079.062-.522-.228-1.03-.745-1.306l-.224-.12-8.24-.01c-6.518-.008-8.292.004-8.489.057m-4.698 7.558c-.572.134-1.125.598-1.395 1.168-.147.311-.164.399-.164.854 0 .456.016.541.165.856.281.592.681.945 1.294 1.144.448.145 1.073.094 1.515-.123.415-.205.791-.59.989-1.012.127-.27.143-.369.143-.865 0-.47-.019-.603-.121-.823a2.142 2.142 0 0 0-2.426-1.199m4.61.809c-.257.083-.676.481-.783.746-.202.5-.052 1.099.365 1.456.426.365-.11.344 8.862.344 9.231 0 8.492.037 8.961-.445.414-.425.506-.896.273-1.397a1.37 1.37 0 0 0-.701-.672c-.203-.093-.589-.097-8.506-.093-5.708.003-8.349.022-8.471.061" fill="#A12577" fill-rule="evenodd"/></svg>