<svg xmlns="http://www.w3.org/2000/svg" viewBox="0 0 20 22">
    <path fill-rule="evenodd" d="M5.519.783a.64.64 0 0 0-.386.32c-.081.143-.083.168-.094.905l-.011.759h-.339c-1.176 0-1.994.244-2.778.828A4.051 4.051 0 0 0 .501 5.56C.291 6.19.3 5.872.3 12.333c0 6.479-.01 6.149.206 6.784.47 1.38 1.673 2.419 3.09 2.667.429.076 9.414.073 9.933-.002a6.842 6.842 0 0 0 5.805-6.129c.025-.276.033-1.916.026-5.203l-.01-4.8-.089-.321c-.346-1.254-1.272-2.153-2.537-2.464-.206-.051-.438-.073-.932-.088l-.659-.02v-.656c0-.779-.031-.931-.229-1.11-.169-.153-.333-.205-.637-.203-.382.003-.595.115-.745.395-.066.123-.073.192-.083.859l-.01.725H6.738l-.011-.759c-.01-.701-.016-.768-.082-.891A.628.628 0 0 0 6.27.784C6.09.721 5.695.72 5.519.783M5.033 5.25v.783H2.56l.024.175c.083.608.398 1.078.891 1.329.405.206.071.195 6.275.195 6.143.001 5.813.01 6.196-.179.475-.236.825-.748.884-1.295l.024-.225h-1.721V4.457l.575.018c.643.021.867.071 1.158.258.21.135.49.437.611.659.194.36.189.211.188 5.208 0 2.587-.014 4.723-.031 4.903a5.104 5.104 0 0 1-2.821 4.107 4.876 4.876 0 0 1-1.478.476c-.441.072-9.291.069-9.598-.004-.581-.137-1.225-.659-1.499-1.215-.252-.514-.237-.085-.237-6.519-.001-4.001.01-5.83.035-5.967.116-.635.55-1.243 1.135-1.59.383-.228.773-.311 1.504-.32l.358-.004v.783m8.4 0v.783h-6.7V4.467h6.7v.783M4.717 9.769a1.407 1.407 0 0 0-1.094.825 1.128 1.128 0 0 0-.117.494c-.039.753.453 1.359 1.21 1.488.587.101 1.221-.248 1.487-.818.105-.224.113-.265.112-.575 0-.268-.015-.37-.077-.525-.242-.607-.888-.985-1.521-.889m4.883.003c-.758.124-1.298.864-1.174 1.609.053.321.175.559.405.788.962.962 2.585.149 2.398-1.202A1.428 1.428 0 0 0 9.6 9.772m4.717-.003a1.407 1.407 0 0 0-1.094.825 1.128 1.128 0 0 0-.117.494c-.039.753.453 1.359 1.21 1.488.587.101 1.221-.248 1.487-.818.105-.224.113-.265.112-.575 0-.268-.015-.37-.077-.525-.242-.607-.888-.985-1.521-.889m-9.834 4.622a1.432 1.432 0 0 0-.859.768 1.44 1.44 0 0 0 .141 1.414 1.41 1.41 0 0 0 2.156.161c.7-.707.477-1.867-.44-2.29-.26-.12-.739-.145-.998-.053m4.884.011a1.42 1.42 0 0 0-.94 1.127c-.159.926.695 1.773 1.626 1.614a1.39 1.39 0 0 0 1.032-.756c.199-.402.211-.836.034-1.235a1.697 1.697 0 0 0-.565-.631c-.331-.193-.839-.245-1.187-.119m4.716-.011a1.432 1.432 0 0 0-.859.768 1.44 1.44 0 0 0 .141 1.414 1.41 1.41 0 0 0 2.156.161c.7-.707.477-1.867-.44-2.29-.26-.12-.739-.145-.998-.053"/>
</svg>
