<svg width="32" height="32" xmlns="http://www.w3.org/2000/svg"><path d="M10.546 3.063c-.268.096-.358.177-.473.43-.082.179-.098.359-.098 1.107l-.002.893H9.34a7.74 7.74 0 0 0-1.08.079c-2.125.372-3.743 1.912-4.161 3.962-.097.473-.101.808-.086 7.947l.015 7.452.122.4c.52 1.708 1.725 2.92 3.477 3.5l.453.15 5.966.017c6.659.019 6.68.018 7.858-.337 1.409-.424 2.554-1.113 3.62-2.179 1.232-1.232 1.951-2.544 2.326-4.244l.123-.56V8.933l-.152-.463a4.324 4.324 0 0 0-2.92-2.82c-.305-.088-.595-.121-1.281-.142l-.886-.028-.025-.833c-.029-.986-.107-1.239-.449-1.452-.173-.108-.275-.128-.633-.128-.541 0-.795.118-.972.452-.112.214-.122.297-.122 1.103v.871h-8.426v-.9c0-.949-.041-1.162-.259-1.359-.256-.232-.896-.316-1.302-.171m-.573 5.55v.934H6.866l.036.28c.087.673.554 1.3 1.194 1.604l.357.169H23.28l.32-.149c.623-.291 1.102-.927 1.192-1.584l.044-.32H22.72V7.68l.653.001c.657 0 1.036.064 1.354.229.303.157.739.604.902.925l.158.312.014 6.024c.015 6.56.02 6.449-.286 7.363-.734 2.199-2.747 3.88-5.088 4.248-.358.056-1.657.071-6.16.071-5.386 0-5.725-.005-6.027-.098-.911-.278-1.68-1.026-1.947-1.89-.104-.335-.106-.511-.106-7.553 0-7.88-.015-7.503.307-8.108.21-.394.826-.996 1.228-1.198.477-.241.852-.316 1.598-.322l.653-.004v.933m10.56 0v.934h-8.426V7.68h8.426v.933M9.248 14.209c-.5.157-.95.603-1.119 1.11-.12.363-.086.947.075 1.278.17.347.498.668.854.835.257.12.374.141.782.141.445 0 .504-.013.815-.181.611-.331.94-.866.941-1.529.002-.965-.789-1.736-1.771-1.726a2.477 2.477 0 0 0-.577.072m6.078.035c-.626.241-1.091.896-1.097 1.549-.009.823.398 1.411 1.177 1.703.86.324 1.93-.154 2.248-1.003.443-1.183-.395-2.366-1.669-2.357-.25.002-.482.04-.659.108m6.061-.061c-.457.14-.878.495-1.112.937-.189.36-.202 1.04-.026 1.423.162.352.512.71.863.883.262.128.365.147.781.147.417 0 .52-.019.781-.147a1.99 1.99 0 0 0 .863-.883c.165-.359.16-.999-.01-1.38-.167-.374-.591-.768-.984-.915-.315-.118-.879-.149-1.156-.065m-12.056 5.62c-.518.146-1.041.63-1.2 1.112-.123.37-.087.998.076 1.314a1.824 1.824 0 0 0 2.463.783c.333-.169.713-.601.831-.947a1.742 1.742 0 0 0-1.576-2.312 2.24 2.24 0 0 0-.594.05m6.162.002a1.688 1.688 0 0 0-.76.461c-1.002 1.002-.456 2.665.962 2.927 1.065.197 2.069-.62 2.071-1.685.001-.737-.382-1.326-1.055-1.624-.316-.141-.915-.179-1.218-.079m5.856.022c-1.279.429-1.654 1.97-.704 2.892.876.85 2.349.581 2.867-.524a1.787 1.787 0 0 0-.007-1.457c-.378-.769-1.352-1.181-2.156-.911" fill-rule="evenodd" fill="#000"/></svg>
