<svg xmlns="http://www.w3.org/2000/svg" viewBox="0 0 32 32" xml:space="preserve"><path d="M14.86 4.059c-3.649.384-6.493 2.716-7.995 6.554a8.674 8.674 0 0 0-.279.8c-.024.116-.139.294-.302.467a2.719 2.719 0 0 0-.407.587l-.144.306-.016 2.075c-.015 1.968-.011 2.092.094 2.436.177.585.548 1.011 1.122 1.293.32.156.389.17.881.17.496 0 .561-.013.889-.175.448-.22.891-.685 1.066-1.117.123-.305.124-.329.124-2.468v-2.16l-.17-.36c-.213-.449-.564-.803-1.07-1.076-.212-.115-.386-.227-.386-.249 0-.079.384-.937.571-1.275.609-1.101 1.575-2.243 2.46-2.907.829-.622 1.858-1.08 2.959-1.316.795-.171 2.423-.172 3.264-.003 2.666.535 4.584 2.194 5.81 5.025.133.308.242.563.242.568 0 .005-.126.08-.28.167-.347.197-.752.624-.908.959-.115.246-.119.311-.134 2.405-.013 1.859-.004 2.193.071 2.453.114.395.348.757.679 1.046l.268.234-.116.197c-.425.72-1.894 1.987-3.073 2.65-.523.294-1.235.61-1.475.654-.169.032-.185.021-.308-.213-.442-.844-1.519-1.369-2.477-1.208-1.289.216-2.2 1.418-2.021 2.665.188 1.313 1.436 2.263 2.734 2.082.775-.108 1.47-.622 1.864-1.379.201-.387.236-.424.47-.509a12.435 12.435 0 0 0 3.731-2.122c.897-.75 1.81-1.79 2.254-2.566.093-.163.258-.361.366-.44.611-.446.883-.879.973-1.55.033-.242.049-1.185.039-2.279l-.017-1.867-.15-.307c-.103-.208-.267-.41-.512-.63-.343-.307-.372-.351-.56-.866-.477-1.303-1.337-2.798-2.159-3.754-.696-.808-1.743-1.629-2.677-2.099-1.468-.738-3.519-1.086-5.295-.898m-.293 2.32c-.798.134-1.856.553-2.514.997-.775.522-1.551 1.318-2.119 2.171-.29.436-.654 1.101-.654 1.194 0 .033.128.158.284.278.333.257.679.751.845 1.207.094.257.126.303.159.222.297-.744.418-.989.688-1.399a5.839 5.839 0 0 1 3.236-2.389c.409-.123.591-.144 1.442-.167.869-.023 1.027-.014 1.477.09 1.756.406 3.164 1.798 3.62 3.577.107.419.116.579.114 2.107-.002 1.646-.003 1.655-.148 2.122-.539 1.745-1.913 3.003-3.675 3.366a5.075 5.075 0 0 1-.533.089c-.067.001.01.038.171.08a3.242 3.242 0 0 1 1.453.832l.367.367.49-.233c.741-.352 1.709-1.028 2.351-1.641.311-.297.566-.562.566-.588 0-.025-.078-.149-.174-.274a3.74 3.74 0 0 1-.333-.574l-.16-.346-.017-2.294c-.013-1.64 0-2.377.046-2.586.099-.455.363-.939.723-1.327l.329-.353-.267-.534c-1.131-2.258-2.859-3.611-5.103-3.994-.623-.106-2.03-.106-2.664 0m10.003 6.443.15.129v3.912l-.15.128c-.195.168-.43.168-.599-.002l-.131-.131v-3.903l.131-.131c.169-.169.404-.17.599-.002m-16.516.014c.288.17.293.202.293 2.18 0 1.751-.005 1.831-.107 1.944-.224.248-.491.32-.748.203-.282-.129-.292-.201-.292-2.204 0-1.159.02-1.884.055-1.948.13-.243.534-.332.799-.175m2.597 4.086c-.062.666-.458 1.404-.984 1.833l-.272.221.3.366a7.828 7.828 0 0 0 3.037 2.268c.277.116.511.203.518.194.008-.01.095-.171.194-.359.209-.398.718-.936 1.093-1.158.144-.084.451-.216.683-.292l.421-.138-.581-.033c-1.783-.1-3.344-1.147-4.153-2.786l-.225-.455-.031.339m6.088 5.357c.379.283.476.903.199 1.266-.226.297-.383.375-.753.375-.276 0-.357-.023-.523-.149-.778-.595-.237-1.807.73-1.633.114.02.27.084.347.141m-4.154.418c-.984.472-1.884 1.239-2.425 2.069-.548.841-.77 1.538-.812 2.554l-.029.68H11.398l.035-.504c.044-.623.183-1.088.451-1.5.25-.386.823-.929 1.209-1.147l.286-.162-.154-.327c-.209-.441-.279-.815-.257-1.38l.017-.473-.4.19m7.602 1.103c-.059.035-.321.15-.583.256-.473.191-.479.196-.697.554l-.221.362.287.272c.386.365.787.977.918 1.401.059.191.123.574.143.851l.035.504h2.078l-.027-.707c-.022-.574-.054-.791-.173-1.16a5.833 5.833 0 0 0-1.264-2.165c-.225-.244-.316-.275-.496-.168" fill="#A12577" fill-rule="evenodd"/></svg>