<svg xmlns="http://www.w3.org/2000/svg" xml:space="preserve" viewBox="0 0 32 32"><path fill="#A12577" fill-rule="evenodd" d="M14.86 4.059c-3.649.384-6.493 2.716-7.995 6.554a8.674 8.674 0 0 0-.279.8c-.024.116-.139.294-.302.467a2.719 2.719 0 0 0-.407.587l-.144.306v2.187c0 2.171.001 2.189.126 2.497.176.436.653.935 1.086 1.135.299.138.392.155.87.155.495 0 .56-.013.888-.175.448-.22.891-.685 1.066-1.117.123-.305.124-.329.124-2.468v-2.16l-.17-.36c-.213-.449-.564-.803-1.07-1.076-.212-.115-.386-.227-.386-.249 0-.079.384-.937.571-1.275.609-1.101 1.575-2.243 2.46-2.907.829-.622 1.858-1.08 2.959-1.316.795-.171 2.423-.172 3.264-.003 2.666.535 4.584 2.194 5.81 5.025.133.308.242.563.242.568 0 .005-.126.08-.28.167-.347.197-.752.624-.908.959-.115.246-.119.311-.134 2.405-.013 1.859-.004 2.193.071 2.453.114.395.348.757.679 1.046l.268.234-.116.197c-.425.72-1.894 1.987-3.073 2.65-.523.294-1.235.61-1.475.654-.169.032-.185.021-.308-.213-.442-.844-1.519-1.369-2.477-1.208-1.289.216-2.2 1.418-2.021 2.665.188 1.313 1.436 2.263 2.734 2.082.775-.108 1.47-.622 1.864-1.379.201-.387.236-.424.47-.509a12.435 12.435 0 0 0 3.731-2.122c.897-.75 1.81-1.79 2.254-2.566.093-.163.258-.361.366-.44.611-.446.883-.879.973-1.55.033-.242.049-1.185.039-2.279l-.017-1.867-.15-.307c-.103-.208-.267-.41-.512-.63-.343-.307-.372-.351-.56-.866-.477-1.303-1.337-2.798-2.159-3.754-.696-.808-1.743-1.629-2.677-2.099-1.468-.738-3.519-1.086-5.295-.898m-.27 2.32c-.524.095-1.403.385-1.852.612-1.321.667-2.539 1.926-3.283 3.394l-.202.398.133.089c.451.3.85.823 1.03 1.352l.109.318.117-.312c.653-1.736 2.165-3.131 3.891-3.588a6.904 6.904 0 0 1 2.238-.172c2.033.222 3.613 1.535 4.227 3.514l.146.469.001 1.734c.001 1.525-.01 1.775-.097 2.08-.235.83-.584 1.45-1.149 2.041-.821.86-1.793 1.369-2.884 1.511l-.291.038.318.087c.502.138.977.42 1.377.815l.366.361.674-.348a9.012 9.012 0 0 0 2.213-1.58c.533-.512.535-.515.443-.64-.293-.402-.425-.646-.531-.979-.113-.36-.117-.452-.117-2.586 0-2.135.004-2.227.117-2.587a2.85 2.85 0 0 1 .723-1.184l.27-.276-.089-.23c-.142-.367-.514-1.017-.876-1.529-1.082-1.529-2.643-2.514-4.452-2.807-.623-.101-1.996-.098-2.57.005m9.98 6.443.15.129v3.912l-.15.128c-.195.168-.43.168-.599-.002l-.131-.131v-3.903l.131-.131c.169-.169.404-.17.599-.002m-16.516.014c.288.17.293.202.293 2.18 0 1.751-.005 1.831-.107 1.944-.224.248-.491.32-.748.203-.282-.129-.292-.201-.292-2.204 0-1.159.02-1.884.055-1.948.13-.243.534-.332.799-.175m2.612 4.004c-.002.581-.316 1.24-.841 1.764l-.391.391.222.288c.346.449 1.208 1.247 1.706 1.578.482.321.992.59 1.543.814.399.162.375.158.375.063 0-.134.528-.87.798-1.112.306-.275.877-.588 1.255-.688l.267-.07-.533-.034a6.34 6.34 0 0 1-.907-.126c-.427-.106-1.235-.47-1.603-.723-.663-.456-1.338-1.256-1.684-1.997-.09-.191-.173-.348-.185-.348-.012 0-.022.09-.022.2m6.073 5.439c.379.283.476.903.199 1.266-.226.297-.383.375-.753.375-.276 0-.357-.023-.523-.149-.778-.595-.237-1.807.73-1.633.114.02.27.084.347.141m-4.154.418c-.984.472-1.884 1.239-2.425 2.069-.548.841-.77 1.538-.812 2.554l-.029.68h2.079l.035-.504c.044-.623.183-1.088.451-1.5.25-.386.823-.929 1.209-1.147l.286-.162-.154-.327c-.209-.441-.279-.815-.257-1.38l.017-.473-.4.19m7.723 1.066a7.727 7.727 0 0 1-.602.263l-.572.233-.211.352-.211.352.394.419c.645.686.945 1.392.947 2.231V28h2.096l-.031-.68c-.056-1.25-.436-2.162-1.348-3.237-.273-.321-.384-.398-.462-.32"/></svg>
