<svg xmlns="http://www.w3.org/2000/svg" viewBox="0 0 42 42">
  <path fill="#a12577" fill-rule="evenodd" d="M20.807 2.178c-.545.269-1.153 1.021-1.657 2.047a19 19 0 0 0-.71 1.655 29 29 0 0 1-.521 1.365c-.146.347-.385 1-.532 1.452s-.288.798-.314.77c-.025-.029-.211-.603-.411-1.277a53 53 0 0 0-.378-1.239 22 22 0 0 0-.908-.165l-.895-.151-.258.3c-1.737 2.02-3.259 4.848-3.859 7.171-.521 2.017-.548 4.166-.075 6.013.194.759.201.734-.191.66-.655-.124-1.658.085-2.497.521-1.404.729-2.283 2.215-2.285 3.865-.002 1.248.468 2.344 1.382 3.227l.37.358-.414.332c-2.084 1.671-2.213 4.666-.283 6.555 1.04 1.017 2.527 1.49 3.86 1.228.326-.064 2.009-.671 4.291-1.545 2.066-.792 3.801-1.44 3.856-1.44s1.78.756 3.833 1.681c4.437 1.998 4.622 2.053 5.984 1.782 1.662-.331 3.051-1.643 3.477-3.285.138-.532.139-1.498.002-2.036a4.3 4.3 0 0 0-1.133-1.982l-.521-.53.198-.136c.469-.325 1.017-.997 1.321-1.619.795-1.627.641-3.33-.424-4.675-.59-.745-1.651-1.394-2.673-1.635l-.526-.124.044-.248c.229-1.316.262-1.702.227-2.698-.067-1.961-.561-3.595-1.88-6.221-.871-1.732-2.945-7.291-3.024-8.102-.076-.778-.23-1.178-.593-1.542-.497-.496-1.275-.634-1.883-.332m1.017 7.237a54 54 0 0 0 1.976 4.55c1.106 2.258 1.362 3.158 1.364 4.795.001 1.138-.078 1.642-.431 2.748-.221.693-.373.945-.373.619 0-.232-.286-1.074-.55-1.617-.187-.387-.406-.68-.829-1.113-.672-.688-.815-.992-1.42-3.017-.425-1.423-.472-1.526-.817-1.811-.317-.261-.736-.358-1.214-.283-.566.09-.905.334-1.417 1.023-.252.339-.778.989-1.168 1.445-1.511 1.765-2.192 3.128-2.405 4.813l-.092.728-.186-.316a9.1 9.1 0 0 1-1.105-3.143c-.121-.822-.048-2.736.132-3.511a13 13 0 0 1 .986-2.76l.407-.84.315.668c.53 1.124 1.198 1.574 2.328 1.57.452-.002.636-.038.953-.185.879-.406 1.237-.951 1.463-2.228.187-1.054.417-1.846.848-2.927.507-1.271.474-1.231.639-.779.076.21.344.917.596 1.571m-2.13 8.055c.227.804.67 1.94.927 2.379.103.176.328.451.501.613.682.636.818.797.982 1.155.195.425.357 1.314.256 1.404-.036.032-.877.363-1.869.737l-1.803.679-1.032-.465c-.567-.255-1.075-.507-1.129-.559-.163-.156-.189-1.377-.044-2.037.234-1.06.683-1.851 1.777-3.135.392-.459.814-.97.938-1.136.125-.165.245-.302.267-.303s.125.299.229.668M11.4 24.374c.861.373 1.255.584 1.511.81.19.168.427.348.527.4.269.139.669.198.817.121a.38.38 0 0 1 .27-.014c.127.049.121.061-.07.135l-1.937.745-1.727.664-1.038-.483c-.927-.432-1.055-.513-1.194-.755-.357-.62-.133-1.471.5-1.899.287-.194.399-.228.756-.228.366 0 .569.064 1.585.504m16.866.214c.156.102.372.303.481.446.177.233.198.316.198.796 0 .459-.026.574-.182.81-.1.151-.257.313-.35.36s-4.263 1.635-9.268 3.529c-5.738 2.171-9.222 3.454-9.429 3.474-.43.039-.78-.082-1.12-.389-.37-.334-.476-.563-.476-1.028 0-.661.349-1.151.995-1.397l9.155-3.469c8.552-3.241 8.87-3.355 9.284-3.338.328.014.497.063.712.206m-.943 6.99c1.001.465 1.205.609 1.351.952.142.334.122.955-.042 1.276-.274.537-.922.9-1.471.824-.285-.04-4.639-1.946-4.579-2.005.043-.044 3.667-1.458 3.761-1.469.033-.003.474.187.98.422"/>
</svg>
