<svg xmlns="http://www.w3.org/2000/svg" viewBox="0 0 22 22">
    <path fill="#A12577" fill-rule="evenodd" d="M9.662.758c-4.544.397-8.399 3.832-9.29 8.28-.179.893-.206 1.176-.204 2.164.002 1.057.066 1.583.307 2.526a10.437 10.437 0 0 0 9.584 7.819l.501.024v-.083c0-.333-.28-.933-.571-1.224-.287-.287-.551-.412-1.137-.538-1.778-.382-3.243-1.175-4.479-2.425-.715-.724-1.157-1.344-1.621-2.273a8.82 8.82 0 0 1-.848-2.836c-.056-.426-.056-1.628 0-2.054.338-2.606 1.734-4.878 3.866-6.292.971-.644 1.939-1.042 3.146-1.295.656-.138 1.039-.369 1.327-.804.15-.226.317-.691.317-.883V.733l-.376.006c-.207.004-.442.012-.522.019m1.192.058c.001.171.115.56.228.776.163.312.601.74.912.89.135.065.513.184.851.266.762.187 1.126.314 1.739.608 1.675.802 2.94 1.974 3.858 3.576a8.796 8.796 0 0 1 1.071 3.225c.069.515.058 1.758-.019 2.273a8.88 8.88 0 0 1-1.397 3.649c-1.317 1.953-3.197 3.204-5.573 3.707-.515.109-.799.241-1.071.499a1.885 1.885 0 0 0-.584 1.113l-.025.17.784-.018c.7-.016.841-.03 1.327-.134a10.396 10.396 0 0 0 3.985-1.758 10.271 10.271 0 0 0 3.264-3.873c.476-.967.769-1.872.956-2.952.1-.575.14-2.128.071-2.765-.24-2.227-1.17-4.283-2.704-5.975-1.037-1.143-2.576-2.183-4.019-2.717-1.067-.394-2.356-.643-3.331-.643-.311 0-.324.003-.323.083M6.71 6.658c-.478.272-.675.708-.495 1.097.045.098.603.684 1.683 1.769l1.615 1.623-1.637 1.641c-1.584 1.587-1.639 1.647-1.695 1.843-.053.184-.053.222-.002.393.102.345.542.704.861.704.299 0 .388-.075 2.068-1.763l1.609-1.616 1.636 1.633c1.166 1.164 1.676 1.648 1.777 1.69.301.123.598.031.885-.276.282-.302.344-.567.2-.855-.046-.092-.69-.774-1.684-1.781l-1.61-1.632 1.626-1.631c1.159-1.163 1.644-1.673 1.685-1.774.12-.293.056-.534-.218-.827-.289-.309-.587-.402-.889-.276-.093.039-.654.573-1.769 1.686l-1.632 1.63-1.576-1.579C8.143 7.35 7.505 6.739 7.388 6.671c-.238-.139-.449-.143-.678-.013"/>
</svg>
