<svg width="33" height="32" xmlns="http://www.w3.org/2000/svg"><path d="M14.822.056A16.109 16.109 0 0 0 5.85 3.663a20.781 20.781 0 0 0-2.081 2.063A16.021 16.021 0 0 0 .416 19.513c.764 3.426 2.694 6.556 5.469 8.867 1.16.966 3.109 2.09 4.528 2.611 1.142.42 2.382.726 3.572.883.856.113 3.291.11 4.122-.005 2.576-.357 5.014-1.298 7.028-2.711 1.169-.821 2.57-2.133 3.402-3.186 2.848-3.606 4.016-8.159 3.251-12.674-.443-2.614-1.565-5.122-3.25-7.26-.576-.73-1.958-2.099-2.661-2.634C23.458 1.561 20.904.499 18.021.138c-.828-.103-2.415-.144-3.199-.082m.243 12.376c.527.725.974 1.318.993 1.318.019 0 .466-.593.994-1.317l.96-1.317 1.719-.003c.946-.002 1.719.01 1.719.027 0 .016-.805 1.025-1.788 2.241-.983 1.216-1.776 2.243-1.761 2.281.014.038.831 1.083 1.815 2.324.984 1.24 1.789 2.267 1.789 2.282 0 .015-.786.026-1.746.025l-1.747-.001-.979-1.346c-.539-.74-.997-1.346-1.019-1.346-.021 0-.492.606-1.047 1.348l-1.009 1.347h-3.46l.324-.399c1.552-1.91 3.368-4.171 3.368-4.193 0-.015-.804-1.041-1.788-2.28-.983-1.24-1.787-2.267-1.787-2.283 0-.017.786-.029 1.746-.028l1.746.003.958 1.317" fill="#D84D4D" fill-rule="evenodd"/></svg>
