<svg width="32" height="32" xmlns="http://www.w3.org/2000/svg"><path d="M14.72 4.062c-1.301.123-2.83.564-4.048 1.169-3.541 1.757-5.943 5.093-6.544 9.089-.197 1.307-.117 3.099.198 4.453.286 1.228.951 2.779 1.647 3.836 1.868 2.84 4.873 4.773 8.166 5.252.728.105 1.701.166 1.7.106-.002-.152-.175-.75-.271-.938-.167-.326-.611-.77-.922-.92-.15-.073-.513-.183-.806-.246a9.468 9.468 0 0 1-2.202-.746C7.484 23.14 5.219 18.561 6.14 14c.765-3.792 3.688-6.891 7.327-7.768.352-.085.76-.19.907-.232.752-.218 1.313-.899 1.44-1.749L15.852 4l-.313.007c-.172.004-.54.029-.819.055m1.441.051c.007.679.551 1.515 1.225 1.881.152.083.634.243 1.07.355.436.112 1.016.292 1.289.4 2.324.918 4.217 2.694 5.315 4.984.384.803.6 1.438.793 2.339.137.635.145.754.144 2.035-.001 1.27-.01 1.404-.144 2.029-.826 3.871-3.715 6.865-7.453 7.725-.808.186-1.031.261-1.298.438a2.25 2.25 0 0 0-.918 1.448l-.036.253h.69c2.137 0 4.711-.971 6.629-2.501.504-.403 1.489-1.389 1.877-1.881a12.327 12.327 0 0 0 2.599-6.414c.354-3.638-.975-7.286-3.578-9.821-.958-.933-1.845-1.566-3.005-2.145-1.451-.723-2.915-1.112-4.573-1.214l-.627-.038.001.127m-4.564 6.677c-.603.234-.926.861-.684 1.329.047.092.899.996 1.893 2.009s1.807 1.856 1.807 1.872c0 .016-.813.859-1.807 1.872-.994 1.013-1.846 1.917-1.893 2.009a.9.9 0 0 0-.034.677c.085.224.518.607.759.672.432.116.5.063 2.52-1.986l1.843-1.868 1.841 1.868c2.014 2.043 2.088 2.102 2.513 1.988.26-.07.615-.367.731-.612a.842.842 0 0 0-.024-.776c-.062-.101-.908-.994-1.88-1.986-.973-.991-1.769-1.827-1.769-1.858 0-.031.796-.867 1.769-1.858.972-.992 1.818-1.885 1.88-1.986.376-.618-.364-1.562-1.083-1.381-.191.048-.461.299-2.099 1.952L16 14.623l-1.822-1.848c-1.002-1.016-1.884-1.88-1.96-1.918-.217-.111-.444-.135-.621-.067" fill="#A12577" fill-rule="evenodd"/></svg>
