<svg xmlns="http://www.w3.org/2000/svg" viewBox="0 0 42 42">
  <path fill="#a12577" fill-rule="evenodd" d="M21.07 4.095a2.2 2.2 0 0 1-.51.104c-.315.002-.718.248-.845.516-.101.212-.115.624-.115 3.459v3.218l-.625.115c-2.874.525-5.53 2.504-6.832 5.089-.314.623-.803 1.942-.803 2.165 0 .07-.106.193-.237.274-.316.195-.77.695-.948 1.046-.292.571-.355 1.012-.355 2.468v1.379l-1.558.028c-1.36.024-1.615.047-2.013.179-1.365.451-2.525 1.61-2.994 2.99l-.19.56v6.23l.216.603c.637 1.778 2.074 2.914 3.984 3.149.338.041 1.852.053 3.815.029 3.367-.041 13.506-.051 19.81-.019 4.018.02 3.975.024 5.005-.474 1.252-.606 2.23-1.857 2.519-3.22.15-.706.15-5.66 0-6.366-.293-1.383-1.287-2.636-2.584-3.254-.746-.356-1.176-.421-2.817-.422l-1.481-.001-.027-1.557c-.031-1.823-.084-2.031-.713-2.794-.309-.374-.405-.559-.529-1.009-.857-3.124-3.314-5.726-6.345-6.719a12 12 0 0 0-1.494-.358c-.648-.102-.774-.142-.774-.246 0-.079.071-.14.193-.167.484-.107.789-.244 2.385-1.068.936-.484 1.799-.976 1.916-1.093.349-.35.555-.873.555-1.413 0-.613-.302-1.263-.731-1.574-.278-.201-2.176-1.153-3.275-1.642-.636-.282-1.161-.35-1.603-.205m2.085 2.761c.782.38 1.421.718 1.422.75s-.662.38-1.473.772l-1.474.712V7.625c0-.806.024-1.464.053-1.463s.691.313 1.472.694m-.58 7.759c1.88.512 3.522 1.825 4.37 3.493.118.234.215.444.215.468s-2.821.044-6.27.044h-6.269l.047-.157c.025-.087.153-.351.283-.586.973-1.767 2.65-2.973 4.673-3.358.7-.133 2.301-.081 2.951.096m5.985 8.59v1.715H12.81v-3.43h15.75zm-17.811 3.819c.135.126.145.178.088.445-.036.169-.055 1.834-.043 3.777l.021 3.474H9.2c-1.796 0-2.12-.053-2.561-.418a2.1 2.1 0 0 1-.438-.576l-.181-.363v-5.137l.193-.368c.235-.451.603-.759 1.047-.878.221-.06.846-.092 1.835-.095 1.42-.005 1.509.003 1.654.139m23.814.095c.202.112.448.309.546.437.388.509.389.519.367 3.337-.024 2.917-.005 2.803-.558 3.34-.455.442-.712.487-2.773.487-1.671 0-1.776-.007-1.72-.122.033-.068.066-1.787.073-3.82.009-2.844.033-3.721.1-3.803.075-.09.344-.102 1.842-.083l1.755.023zm-6.059 4.049c.024 3.667.035 3.579-.505 4.064-.425.382-.718.468-1.6.468h-.709v-2.732c0-3.042.002-3.029-.475-3.518-.302-.31-.823-.495-1.202-.426-.61.11-1.117.561-1.257 1.115-.048.192-.076 1.269-.076 2.932V35.7H18.9l-.002-2.747c-.001-2.518-.012-2.772-.13-3.032-.261-.575-1.004-1.001-1.559-.895-.576.11-1.107.56-1.245 1.055-.045.163-.073 1.289-.074 2.942V35.7h-.849c-1.014 0-1.296-.073-1.72-.447-.594-.523-.578-.407-.579-4.085l-.002-3.238h15.742z"/>
</svg>
