<svg xmlns="http://www.w3.org/2000/svg" viewBox="0 0 42 42"><path fill="#A22778" fill-rule="evenodd" d="M13.16 5.328c-2.035.233-4.108 1.267-5.6 2.794-1.281 1.311-2.108 2.86-2.531 4.744-.146.65-.154.869-.18 5.078l-.028 4.398-.235.432a7.871 7.871 0 0 0-.431 1.026l-.196.595-.024 3.327c-.027 3.769-.008 3.967.468 4.933.584 1.183 1.743 2.02 3.1 2.238.222.036.269.078.342.302.335 1.035 1.249 2.215 2.232 2.883 2.333 1.584 5.31 1.32 7.341-.652a6.216 6.216 0 0 0 1.347-1.894l.282-.602h2.033c1.99 0 2.034.003 2.071.143.02.079.145.369.277.645 1.252 2.612 4.143 3.949 6.847 3.165 1.894-.549 3.416-1.969 3.99-3.721l.116-.358.467-.117c1.46-.365 2.651-1.474 3.142-2.927l.194-.575.001-3.29c0-3.002-.012-3.333-.132-3.78-.414-1.539-1.631-2.862-3.178-3.453a5.604 5.604 0 0 0-.83-.254l-.289-.048-.034-1.937c-.038-2.236-.146-3.016-.611-4.445a12.552 12.552 0 0 0-6.581-7.494c-1.373-.654-2.633-1.003-4.19-1.161-.864-.087-8.409-.083-9.18.005m2.45 9.162v5.32H8.82l.001-2.887c.002-3.098.028-3.398.372-4.251.506-1.253 1.484-2.296 2.746-2.928.81-.406 1.546-.55 2.884-.565l.787-.009v5.32m6.31-5.246c2.756.279 5.078 1.736 6.584 4.132.875 1.391 1.218 2.686 1.291 4.882l.047 1.412H19.53V9.17h.833c.458 0 1.158.033 1.557.074m11.575 15.039c.355.165.558.36.735.707.133.261.14.412.14 3.042 0 1.767-.025 2.768-.069 2.768-.038 0-.152-.164-.253-.365-.271-.533-.643-1.01-1.202-1.536a5.83 5.83 0 0 0-6.722-.901c-1.008.538-1.982 1.5-2.513 2.484l-.267.493-2.205.017-2.204.017-.257-.476c-1.629-3.024-5.348-4.105-8.28-2.407-.931.54-1.809 1.413-2.279 2.265l-.206.374-.002-2.936c-.001-2.919 0-2.937.154-3.162a1.47 1.47 0 0 1 .403-.37c.246-.143.28-.144 12.497-.144 11.79 0 12.261.005 12.53.13m-19.366 7.118c.699.291 1.202 1.048 1.2 1.808-.001.566-.221 1.033-.685 1.45-.983.884-2.394.578-3.037-.658-.218-.42-.215-1.156.007-1.591.502-.983 1.559-1.407 2.515-1.009m15.459.071c1.468.704 1.457 2.777-.019 3.499-1.289.631-2.756-.295-2.758-1.741-.001-.531.105-.843.421-1.242.572-.722 1.501-.926 2.356-.516"/></svg>
