<svg xmlns="http://www.w3.org/2000/svg" viewBox="0 0 42 42">
  <path fill="#a22778" fill-rule="evenodd" d="M14.386 11.908c-1.7.248-3.436 1.14-4.63 2.381-.236.245-1.02 1.202-1.741 2.126l-1.311 1.68-1.34.035c-1.112.03-1.378.057-1.571.162-.396.215-.798.628-.968.993l-.164.35v3.505c-.001 3.004.015 3.559.111 3.885.292.996 1.037 1.895 1.936 2.337.833.41 1.2.455 3.716.457l2.229.001.291.251c.366.315 1.433.833 1.922.933.529.108 1.454.094 1.942-.03 1.045-.266 2.12-1.045 2.669-1.935l.253-.409h7.731l.195.298c.582.888 1.348 1.532 2.239 1.883.72.283 1.765.353 2.485.165.613-.159 1.338-.549 1.793-.965l.374-.343 2.127.009c2.455.01 2.875-.045 3.817-.498a4.36 4.36 0 0 0 1.96-1.949c.45-.919.515-1.358.483-3.29-.026-1.542-.039-1.679-.208-2.187-.566-1.7-1.703-2.424-4.536-2.89a41 41 0 0 1-1.61-.308l-.875-.188-3.57-2.651c-4.32-3.209-4.797-3.486-6.502-3.779-.513-.088-1.335-.106-4.725-.098-2.257.004-4.291.036-4.522.069m9.204 4.036c.529.182.229-.03 4.553 3.227 1.859 1.401 3.481 2.607 3.606 2.681s.553.213.951.31c1.497.364 2.85.675 3.595.826l.77.156.019 1.201c.026 1.617.172 1.493-1.739 1.469l-1.471-.019-.16-.456c-.219-.627-.488-1.065-.976-1.586a5 5 0 0 0-1.868-1.22c-.655-.228-1.927-.234-2.625-.013-.966.306-1.94 1.06-2.431 1.881l-.227.379h-7.732l-.274-.402c-.328-.483-.959-1.09-1.463-1.409-1.086-.689-2.79-.836-3.971-.343a4.38 4.38 0 0 0-2.523 2.745l-.195.599H6.58v-3.92h.724c.817 0 1.243-.101 1.614-.384.138-.106.902-1.094 1.697-2.197s1.528-2.094 1.628-2.204c.306-.336.98-.825 1.468-1.065.879-.433 1.012-.443 5.434-.427 3.93.014 3.997.017 4.445.171m-9.036 9.159c.321.133.677.475.868.832.118.219.151.401.151.84 0 .657-.137.979-.585 1.384-.918.83-2.509.442-2.922-.713-.108-.302-.122-.932-.028-1.26.283-.987 1.496-1.509 2.516-1.083m15.75 0c.321.133.677.475.868.832.118.219.151.401.151.84 0 .657-.137.979-.585 1.384-.918.83-2.509.442-2.922-.713-.108-.302-.122-.932-.028-1.26.283-.987 1.496-1.509 2.516-1.083"/>
</svg>
