<svg xmlns="http://www.w3.org/2000/svg" xml:space="preserve" viewBox="0 0 32 32"><path fill="#A12577" fill-rule="evenodd" d="M5.173 3.353c-.95.316-1.258 1.292-.631 2.004.299.34.521.409 1.458.452.771.036.812.043 1.133.215.404.215.721.547.912.953l.142.303.028 3.84.028 3.84.146.47c.266.856.629 1.435 1.287 2.049.45.42 1.082.778 1.737.983l.4.125h11.36l.454-.153c.537-.181.771-.295 1.197-.584a4.55 4.55 0 0 0 1.603-2.031c.292-.778.293-.792.293-4.969V6.987h-6.984c-4.847 0-7.067.017-7.256.058a1.3 1.3 0 0 0-.843.636c-.178.344-.151.901.057 1.217.32.483.69.595 1.973.595h.786v2.08h-3.786l-.001-2.2c0-2.013-.009-2.237-.106-2.643-.387-1.612-1.63-2.878-3.208-3.265-.485-.119-1.935-.194-2.179-.112M19.2 10.587v1.093h-2.293V9.493H19.2v1.094m5.067 0v1.093h-2.614V9.493h2.614v1.094m-9.814 4.56v1.066l-.813-.001c-1.029-.003-1.464-.059-1.829-.238-.353-.172-.732-.541-.902-.876-.11-.216-.242-.735-.242-.948 0-.057.363-.07 1.893-.07h1.893v1.067m4.747.053v1.067h-2.293v-2.134H19.2V15.2m4.96-.987c0 .044.027.08.061.08.1 0 .011.522-.143.835-.195.399-.55.742-.973.941-.318.15-.423.171-.932.189l-.573.02v-2.145h1.28c1.102 0 1.28.011 1.28.08M9.67 19.676c-1.067.289-1.865.936-2.341 1.897-.716 1.445-.451 3.122.67 4.24.631.63 1.289.953 2.161 1.06 1.254.155 2.49-.347 3.31-1.343.59-.717.916-1.852.792-2.753l-.052-.377h6.67l.004.76c.003.674.02.808.146 1.187.468 1.407 1.644 2.365 3.109 2.531 1.751.199 3.34-.84 3.913-2.558.16-.478.199-1.285.088-1.813-.297-1.414-1.46-2.563-2.917-2.881-.5-.11-1.335-.047-1.81.136l-.4.154-5.44.002-5.44.002-.4-.156c-.537-.209-1.467-.248-2.063-.088m1.419 2.454c.093.066.234.138.313.158.098.026.2.131.318.326.287.477.229.934-.177 1.384-.338.373-.751.519-1.196.422-.988-.215-1.305-1.508-.525-2.14.4-.324.934-.387 1.267-.15m13.812-.079c.331.117.572.327.723.63.224.45.162.932-.172 1.321-.481.563-1.265.593-1.794.07-.629-.623-.364-1.718.489-2.023.263-.094.484-.093.754.002"/></svg>
