<svg xmlns="http://www.w3.org/2000/svg" viewBox="0 0 32 32" xml:space="preserve"><path d="M5.173 3.353c-.95.316-1.258 1.292-.631 2.004.299.34.521.409 1.458.452.771.036.812.043 1.133.215.404.215.721.547.912.953l.142.303.028 3.84.028 3.84.146.47c.266.856.629 1.435 1.287 2.049.45.42 1.082.778 1.737.983l.4.125h11.36l.454-.153c.537-.181.771-.295 1.197-.584a4.55 4.55 0 0 0 1.603-2.031c.292-.778.293-.792.293-4.969V6.987h-6.984c-4.847 0-7.067.017-7.256.058a1.3 1.3 0 0 0-.843.636c-.178.344-.151.901.057 1.217.32.483.69.595 1.973.595h.786v2.08h-3.786l-.001-2.2c0-2.013-.009-2.237-.106-2.643-.387-1.612-1.63-2.878-3.208-3.265-.485-.119-1.935-.194-2.179-.112M19.2 10.587v1.093h-2.293V9.493H19.2v1.094m5.067 0v1.093h-2.614V9.493h2.614v1.094m-9.814 4.56v1.066l-.813-.001c-1.029-.003-1.464-.059-1.829-.238-.353-.172-.732-.541-.902-.876-.11-.216-.242-.735-.242-.948 0-.057.363-.07 1.893-.07h1.893v1.067m4.747.053v1.067h-2.293v-2.134H19.2V15.2m4.96-.987c0 .044.027.08.061.08.1 0 .011.522-.143.835-.195.399-.55.742-.973.941-.318.15-.423.171-.932.189l-.573.02v-2.145h1.28c1.102 0 1.28.011 1.28.08M9.702 19.652c-1.162.293-2.141 1.164-2.549 2.268-.169.456-.226.785-.227 1.307a3.561 3.561 0 0 0 .393 1.68c.289.587.945 1.265 1.508 1.556 1.526.79 3.23.537 4.4-.652.416-.423.699-.889.891-1.464.127-.38.143-.511.146-1.187l.003-.76h6.621l-.024.581c-.075 1.813.984 3.313 2.685 3.802.612.176 1.486.167 2.06-.021a3.769 3.769 0 0 0 2.016-1.516c.371-.554.542-1.11.574-1.859.031-.723-.058-1.149-.372-1.787-.178-.362-.316-.545-.679-.907-.763-.76-1.427-1.065-2.415-1.108-.644-.028-1.078.037-1.546.234l-.306.129-5.374-.015-5.374-.014-.373-.155c-.335-.138-.445-.156-1.067-.171-.472-.011-.788.007-.991.059m1.424 2.508c.107.073.227.133.266.133.195 0 .499.535.5.88.001.448-.39.995-.848 1.187-.759.318-1.657-.303-1.657-1.148 0-.894 1.042-1.525 1.739-1.052m13.948-.021c.435.218.737.775.665 1.226-.17 1.059-1.415 1.441-2.113.649-.434-.494-.428-1.142.017-1.605.402-.42.933-.52 1.431-.27" fill="#A12577" fill-rule="evenodd"/></svg>