<svg xmlns="http://www.w3.org/2000/svg" viewBox="0 0 42 42">
  <path fill="#a12577" fill-rule="evenodd" d="M17.555 5.15c-.465.145-1.163.642-1.473 1.05-.472.62-.531.88-.8 3.565-.243 2.431-.244 2.454-.125 2.981.093.408.102.564.042.678-.044.081-.079.31-.079.509 0 .318-.015.356-.122.31-.502-.211-.959-.241-3.661-.242-2.946-.001-3.208.023-3.861.356-.405.207-.978.767-1.198 1.172-.274.503-.378 1.031-.466 2.356a27 27 0 0 1-.11 1.341c-.022.104-.171.216-.486.363a2.8 2.8 0 0 0-1.573 2.078c-.037.23-.2 2.93-.364 6-.25 4.69-.285 5.647-.214 5.985.12.579.523 1.355.863 1.662.346.313 1.015.638 1.497.729.205.038 6.435.085 15.05.113 14.561.048 14.704.047 15.137-.092 1.044-.333 1.816-1.135 2.045-2.126.083-.359-.297-11.69-.412-12.3-.135-.711-.59-1.388-1.232-1.829l-.301-.208-.027-1.558c-.024-1.412-.041-1.594-.182-1.943a3.02 3.02 0 0 0-1.693-1.696c-.378-.156-.445-.159-3.535-.178-3.148-.02-3.433-.004-3.972.227-.109.046-.123.007-.123-.33 0-.21-.036-.485-.08-.611-.064-.183-.055-.327.043-.728l.123-.499-.294-2.413c-.162-1.327-.342-2.556-.401-2.73-.289-.856-.775-1.422-1.545-1.803l-.533-.264-2.804-.014c-2.297-.011-2.864.005-3.134.089m5.154 3.058c.02.125.1.92.179 1.767s.16 1.674.182 1.838l.039.297h-5.122l.034-.157c.018-.087.135-1.016.259-2.065l.227-1.908h4.167zm-5.139 6.838c.518.116 5.627.095 6.092-.025.211-.055.393-.089.406-.076.02.019.215 3.228.22 3.614.002.088-.093.126-.4.163a5 5 0 0 0-.755.156c-.326.1-.378.099-.7-.019-.519-.189-3.777-.235-4.443-.062-.492.127-.681.139-1.032.065l-.228-.048v-.887c0-.488.047-1.265.105-1.725.162-1.289.166-1.304.301-1.263.066.02.261.068.434.107m-3.78 2.769v.875h-.372c-.538 0-1.148.127-1.574.328-.476.225-1.124.826-1.363 1.264-.403.741-.402.722-.364 5.89.019 2.603.049 5.229.067 5.836l.032 1.102H5.901l.026-.332c.014-.183.135-2.38.268-4.883.133-2.502.261-4.81.285-5.127l.043-.578h1.989l.16-2.187c.088-1.204.177-2.385.199-2.625l.039-.438h4.88zm18.97 1.714v2.448l.158.033c.086.017.435.046.774.063s.636.052.66.075c.044.044.459 10.894.418 10.935-.012.012-.977.044-2.143.071l-2.121.049.052-5.951.052-5.952-.15-.482c-.338-1.09-1.353-1.934-2.512-2.091l-.368-.05V17.08h5.18zm-16.574 3.169.019.997 1.243.019 1.242.019V21.7h2.866l.02.998.019.997 1.348.019 1.347.019V21.7h3.22v11.48H24.5v-2.19c0-1.729-.022-2.279-.106-2.608a3.8 3.8 0 0 0-3.184-2.84c-.772-.098-1.903-.028-2.421.15a3.91 3.91 0 0 0-2.423 2.443c-.141.425-.154.631-.18 2.718l-.028 2.257H13.23V21.7h2.936zm5.108 4.894c.359.108.883.574 1.045.93.115.255.128.5.129 2.471l.002 2.187H18.2v-2.082c.001-1.219.031-2.191.073-2.344.111-.399.481-.83.899-1.049.34-.177.44-.195 1.11-.195.405 0 .86.037 1.012.082"/>
</svg>
