<svg width="33" height="32" xmlns="http://www.w3.org/2000/svg"><path d="M21.309 4.488c-.38.135-.63.465-1.393 1.84l-.718 1.295-1.28.707c-.704.389-1.364.768-1.465.843-.431.319-.583 1.124-.313 1.657.074.146.209.328.299.404.091.076.692.43 1.337.787.644.356 1.236.692 1.316.747.088.061.405.572.82 1.324.372.674.748 1.317.835 1.429.486.626 1.582.655 2.076.056.083-.1.469-.76.86-1.467l.71-1.286 1.305-.728c.823-.459 1.387-.809 1.524-.948.507-.511.512-1.396.012-1.882-.111-.108-.794-.524-1.518-.925L24.4 7.612l-.761-1.372c-.464-.839-.828-1.431-.934-1.522-.347-.298-.932-.395-1.396-.23M8.223 5.814c-.699.098-1.639.461-2.265.877-1.024.68-1.837 1.84-2.173 3.101l-.124.466-.017 7.49c-.019 8.362-.038 7.917.367 8.735.352.712.997 1.28 1.795 1.581.313.119.405.124 2.279.134 1.074.006 4.014.041 6.535.078 5.949.087 7.509.028 8.862-.34.871-.237 1.696-.812 2.06-1.437.213-.367.446-1.084.549-1.694.187-1.113.215-1.825.179-4.62-.037-2.873-.073-3.424-.247-3.818-.232-.524-.797-.954-1.378-1.05l-.242-.039.037 1.752.07 3.43c.053 2.638-.085 4.191-.435 4.895-.282.567-.685.782-1.828.972-.466.077-1.144.094-4.445.114-2.143.012-3.937.007-3.987-.013-.068-.026-.007-.08.235-.21.403-.216.897-.666 1.13-1.029.097-.15.241-.452.321-.672l.147-.4.014-9.136.015-9.136-.256-.035c-.276-.038-6.924-.034-7.198.004m14.124 2.257c.289.507.595.987.68 1.067.086.08.533.349.994.597.462.248.827.471.811.495-.035.058-1.594.935-1.66.935-.124 0-.43.422-.871 1.202-.387.683-.491.83-.546.77-.036-.041-.26-.421-.497-.844-.237-.424-.522-.857-.633-.963-.112-.106-.577-.39-1.035-.633-.458-.242-.833-.456-.834-.477-.001-.021.339-.229.755-.462 1.304-.734 1.207-.636 1.881-1.879.217-.401.403-.729.412-.729.01 0 .254.415.543.921m-11.884-.267a5.631 5.631 0 0 0-1.091 2.261c-.092.384-.1.964-.117 8.374L9.236 26.4l-1.332-.004c-.873-.003-1.392-.027-1.507-.069a1.617 1.617 0 0 1-.814-.7l-.165-.299V17.93c0-8.088-.018-7.636.328-8.387a3.494 3.494 0 0 1 1.65-1.703c.614-.303.903-.35 2.188-.355l1.141-.005-.262.324m3.177 7.984c0 5.495-.018 7.829-.061 8-.141.561-.746.889-1.826.99l-.423.04v-7.09c0-7.761-.016-7.362.325-8.037a3.28 3.28 0 0 1 .957-1.149c.337-.249.826-.51.959-.511.055-.001.069 1.587.069 7.757" fill-rule="evenodd" fill="#000"/></svg>
