<svg xmlns="http://www.w3.org/2000/svg" viewBox="0 0 21 21">
    <path fill-rule="evenodd" d="M15.383.399c-.347.165-.393.229-1.154 1.606-.324.586-.553.961-.61 1-.05.035-.567.326-1.147.648-1.101.609-1.25.718-1.367.997-.124.296-.113.749.024 1.018.131.257.408.453 1.458 1.031.556.306 1.037.58 1.069.607.033.028.316.515.63 1.084.327.592.636 1.106.723 1.203.093.105.236.212.373.279.294.145.653.154.937.024.322-.148.452-.323 1.056-1.415.306-.555.585-1.05.62-1.1.04-.058.445-.303 1.101-.665 1.15-.636 1.335-.772 1.489-1.098.135-.284.142-.68.017-.948-.155-.333-.24-.395-1.398-1.037-.6-.333-1.123-.636-1.162-.675-.039-.039-.343-.562-.676-1.163C16.711.611 16.612.482 16.284.37c-.255-.087-.687-.073-.901.029M4.498 1.487c-1.7.271-3.045 1.405-3.569 3.01-.205.627-.197.337-.186 7.228l.01 6.318.082.227c.168.468.355.772.669 1.089.334.337.647.532 1.104.686l.28.094 4.095.035c5.817.048 8.08.046 8.715-.01 1.001-.086 1.693-.243 2.2-.496 1-.501 1.397-1.22 1.623-2.944.054-.406.061-.767.058-2.776-.003-2.34-.035-3.14-.138-3.505-.15-.532-.672-.973-1.24-1.049l-.183-.024.016.976c.009.537.037 1.715.063 2.617.064 2.274.004 3.598-.197 4.393-.115.452-.234.651-.501.834-.329.226-.794.346-1.666.433-.499.049-4.354.083-5.642.05l-.998-.026.257-.139c.359-.194.605-.391.818-.657.349-.435.517-.889.577-1.558.021-.236.035-3.173.035-7.587V1.505h-.138c-.076 0-.148-.016-.159-.035-.035-.056-5.63-.04-5.985.017m11.705 1.689c.42.749.603 1.029.746 1.136.062.047.417.25.787.45.371.2.674.372.674.382 0 .022-1.25.727-1.435.81-.182.081-.258.188-.698.971-.218.388-.406.705-.419.705-.013 0-.213-.335-.445-.744-.353-.624-.447-.763-.583-.866-.088-.068-.469-.288-.845-.49s-.684-.375-.684-.385c0-.01.334-.206.743-.437.508-.286.793-.469.901-.579.108-.11.272-.376.525-.849.202-.379.376-.689.386-.69.011 0 .167.264.347.586m-9.802-.035a4.32 4.32 0 0 0-.766 1.404c-.237.708-.221.204-.235 7.488l-.012 6.59-1.163-.01c-1.154-.01-1.164-.011-1.337-.097a1.408 1.408 0 0 1-.579-.578l-.086-.175-.01-6.125c-.009-5.499-.004-6.154.046-6.405.227-1.137 1.048-1.992 2.203-2.295.208-.054.39-.064 1.2-.066l.954-.002-.215.271m2.656 6.72-.009 6.537-.094.198c-.11.236-.316.401-.641.516a4.045 4.045 0 0 1-1.025.178h-.185l.01-5.924.01-5.923.08-.257a2.917 2.917 0 0 1 1.167-1.56c.192-.127.563-.299.652-.3.035-.001.042 1.282.035 6.535"/>
</svg>
