<svg xmlns="http://www.w3.org/2000/svg" viewBox="0 0 20 20">
    <path fill="#A12577" fill-rule="evenodd" d="M11.333.953c-.812.217-1.408.915-1.53 1.791-.049.349-.049 4.378-.001 4.812a3.713 3.713 0 0 0 2.704 3.161c.5.134.928.156 2.813.141 1.893-.016 1.945-.02 2.481-.227a2.673 2.673 0 0 0 1.603-1.676c.3-.872.143-1.773-.548-3.152-1.256-2.507-3.531-4.248-6.292-4.816-.481-.099-.937-.112-1.23-.034m-2.516.568c-.833.095-1.397.213-2.028.424-2.857.955-5.053 3.374-5.707 6.288-.159.711-.196 1.07-.197 1.917-.002 1.05.099 1.741.383 2.628.885 2.767 3.011 4.865 5.779 5.704.708.214 1.549.351 2.16.351h.326v-.109c0-.448-.344-1.08-.755-1.387-.265-.199-.452-.28-.969-.419-1.325-.358-2.37-.969-3.294-1.924a6.647 6.647 0 0 1-1.747-3.161c-.147-.6-.184-.95-.182-1.7.001-.773.067-1.248.265-1.933.652-2.26 2.529-4.117 4.766-4.716.926-.248 1.198-.391 1.5-.79.242-.32.414-.77.416-1.086V1.5l-.308.005c-.17.003-.353.01-.408.016m3.501 1.127a7.8 7.8 0 0 1 4.143 2.569c.77.919 1.499 2.428 1.423 2.946a1.218 1.218 0 0 1-.684.884l-.197.089-1.993-.01c-1.981-.01-1.995-.011-2.197-.087a2.073 2.073 0 0 1-1.238-1.286l-.091-.27V5.167c-.001-2.244.001-2.32.064-2.413a.466.466 0 0 1 .352-.186 2.94 2.94 0 0 1 .418.08m6.715 7.656a7.544 7.544 0 0 1-.501.362 3.966 3.966 0 0 0-.556.446c-.219.241-.439.691-.726 1.488-.122.339-.294.76-.381.935-.844 1.687-2.439 2.83-4.669 3.348a3.115 3.115 0 0 0-.533.192 1.95 1.95 0 0 0-1.087 1.531l-.023.205.466-.022c2.746-.132 5.176-1.36 6.681-3.377.596-.798 1.004-1.648 1.281-2.666.204-.749.327-1.883.251-2.311-.023-.129-.052-.234-.064-.234a.723.723 0 0 0-.139.103"/>
</svg>
