<svg width="32" height="32" xmlns="http://www.w3.org/2000/svg"><path d="M17.323 4.156c-.817.261-1.459.931-1.755 1.829l-.128.388.001 3.387.001 3.387.143.521c.147.536.443 1.188.729 1.603.624.907 1.613 1.608 2.702 1.914.413.116.495.119 3.117.12 2.989.002 2.959.005 3.76-.368 1.188-.553 1.945-1.706 2.037-3.098.038-.587-.053-1.084-.362-1.983-1.196-3.469-3.961-6.23-7.357-7.344-1.357-.445-2.262-.556-2.888-.356m-3.426.76c-1.597.182-3.36.83-4.718 1.734-4.234 2.82-6.127 8.11-4.693 13.112 1.061 3.702 3.923 6.665 7.487 7.752.885.269 2.197.486 2.947.486.165 0 .173-.01.173-.2-.002-.525-.338-1.251-.766-1.655-.392-.371-.667-.512-1.42-.732-1.138-.333-1.833-.654-2.724-1.261-2.608-1.774-4.119-4.861-3.978-8.125.147-3.412 1.986-6.377 4.895-7.892.678-.353 1.09-.512 1.878-.727.325-.088.705-.222.844-.298.68-.37 1.268-1.322 1.271-2.057v-.2l-.386.007a10.19 10.19 0 0 0-.81.056M18.721 6.4c3.256.832 5.95 3.369 6.953 6.549.162.516.173.747.05 1.108-.117.343-.593.827-.904.918-.157.047-.896.065-2.615.065-2.668 0-2.772-.011-3.33-.35-.593-.36-1.025-.97-1.194-1.686-.119-.504-.12-6.215-.001-6.444.154-.297.372-.331 1.041-.16m8.532 10.213c-.132.111-.468.363-.746.561-.743.527-.953.868-1.494 2.426-.562 1.62-1.011 2.376-1.997 3.365-1.18 1.185-2.501 1.889-4.548 2.425-.92.24-1.591.834-1.875 1.657-.129.377-.192.824-.121.868.03.018.397.008.818-.024 4.921-.368 8.787-3.521 9.937-8.104.245-.974.401-2.548.309-3.114l-.043-.26-.24.2" fill="#A12577" fill-rule="evenodd"/></svg>
