<svg xmlns="http://www.w3.org/2000/svg" viewBox="0 0 17 18">
    <path fill="#A12577" fill-rule="evenodd" d="M7.268.457C4.759.649 2.521 2.124 1.297 4.392.455 5.953.216 7.948.661 9.704a7.842 7.842 0 0 0 1.5 2.939 9.4 9.4 0 0 0 1.211 1.183c.163.129.301.244.305.254.004.011-.049.147-.117.302a7.062 7.062 0 0 0-.434 1.4c-.062.326-.075.486-.087 1.083l-.014.702h1.296l.002-.602c.001-.508.011-.648.063-.89.359-1.665 1.484-2.98 3.052-3.565a4.732 4.732 0 0 1 2.705-.172c1.605.357 2.967 1.601 3.484 3.184.171.525.213.807.213 1.457l.001.588h1.289l-.001-.56c-.001-1.106-.189-1.914-.669-2.867l-.234-.466.119-.098c.272-.223.903-.892 1.145-1.215.769-1.023 1.239-2.156 1.441-3.478.058-.376.067-1.513.015-1.885-.192-1.393-.663-2.554-1.478-3.644-.266-.356-1.036-1.128-1.386-1.389-1.278-.953-2.6-1.435-4.187-1.526L9.577.42v.124c0 .347.184.746.481 1.043.256.256.506.391.921.497a6.036 6.036 0 0 1 2.182 1.044c.276.207.749.663.994.955.422.506.86 1.294 1.072 1.931a6.085 6.085 0 0 1 .114 3.343c-.276 1.087-.93 2.187-1.772 2.979l-.23.216-.169-.149a6.409 6.409 0 0 0-2.34-1.31l-.177-.052.198-.108a4.386 4.386 0 0 0 1.694-1.636c.269-.454.334-.82.209-1.176-.148-.419-.561-.759-.975-.802l-.154-.016-.019.227a2.666 2.666 0 0 1-1.667 2.245c-.973.377-2.135.122-2.838-.624-.217-.23-.326-.39-.499-.736-.209-.417-.472-.692-.855-.893-.216-.114-.566-.212-.755-.212h-.127l.02.262c.054.727.289 1.415.689 2.017.36.541 1.043 1.14 1.594 1.396a.8.8 0 0 1 .17.094c0 .008-.111.052-.248.098a7.308 7.308 0 0 0-1.31.664 6.298 6.298 0 0 0-.956.777l-.29.281-.155-.12a6.916 6.916 0 0 1-1.48-1.587 8.475 8.475 0 0 1-.527-.992c-.762-1.789-.578-3.921.478-5.533.274-.418.412-.591.747-.937.788-.811 1.686-1.334 2.804-1.632.523-.139.721-.238.966-.483.277-.277.481-.724.481-1.051V.425l-.134.004a13.22 13.22 0 0 0-.446.028M8.24 3.13c-1.332.218-2.469 1.049-3.046 2.227-.154.315-.189.461-.173.731.024.422.273.794.657.982.12.058.267.105.364.116l.163.018v-.16c0-.214.071-.549.172-.811a2.65 2.65 0 0 1 2.002-1.645c.265-.05.904-.019 1.164.057.432.125.762.314 1.092.624.241.228.392.44.586.823.317.626.89 1.035 1.534 1.095l.192.018-.015-.196c-.059-.775-.271-1.43-.651-2.015a4.144 4.144 0 0 0-2.633-1.825c-.341-.074-1.066-.095-1.408-.039"/>
</svg>
