<svg width="32" height="32" xmlns="http://www.w3.org/2000/svg"><path d="M13.232 4.061a10.203 10.203 0 0 0-6.177 2.988c-.881.891-1.467 1.712-1.99 2.791-1.979 4.076-1.144 8.877 2.105 12.108.266.264.681.634.923.822.242.187.44.345.44.351 0 .006-.081.188-.181.405-.465 1.013-.708 2.147-.761 3.551L7.557 28h1.83v-.713c0-1.166.211-2.102.69-3.057.899-1.791 2.475-3.062 4.393-3.542.562-.141 1.867-.196 2.493-.104 2.74.401 4.965 2.521 5.548 5.286.088.417.119.755.123 1.343l.006.787h1.787v-.681c0-1.53-.315-2.881-.969-4.162l-.308-.603.198-.166c.419-.35 1.144-1.131 1.547-1.669a10.33 10.33 0 0 0 2.092-6.283c0-1.239-.153-2.166-.558-3.377a10.327 10.327 0 0 0-6.511-6.521C18.988 4.229 17.707 4 16.901 4c-.201 0-.208.006-.208.181 0 .317.205.862.448 1.192.291.396.774.725 1.279.872 1.338.39 1.965.667 2.858 1.261 1.121.745 2.11 1.861 2.74 3.095 1.668 3.267 1.071 7.13-1.514 9.794l-.567.585-.449-.375a8.748 8.748 0 0 0-2.739-1.563 6.484 6.484 0 0 1-.499-.187c-.011-.012.084-.074.211-.139.976-.496 1.989-1.54 2.506-2.584.195-.395.222-.492.222-.815 0-.421-.152-.818-.438-1.144-.214-.244-.755-.52-1.019-.52h-.197l-.034.367c-.089.956-.551 1.83-1.312 2.48-.835.712-2.078 1.002-3.15.734-.592-.148-1.145-.431-1.54-.788-.394-.357-.623-.666-.911-1.23-.272-.534-.566-.877-.984-1.146-.359-.232-.898-.417-1.218-.417h-.215l.034.467c.141 1.916 1.277 3.65 3.005 4.584.255.137.384.234.335.251-1.379.484-2.359 1.081-3.371 2.052l-.467.448-.209-.145c-.335-.232-1.036-.905-1.408-1.352-1.483-1.781-2.209-4.015-2.013-6.197.106-1.187.338-2.016.859-3.068 1.069-2.16 2.962-3.704 5.329-4.346.336-.091.726-.229.867-.305.579-.316 1.089-1.081 1.147-1.722l.029-.32-.314.007c-.173.004-.515.028-.762.054m1.34 3.784a5.703 5.703 0 0 0-3.961 3.066c-.222.446-.237.502-.234.902.002.339.029.482.131.694.245.506.719.865 1.261.957l.217.036.038-.387a3.653 3.653 0 0 1 1.07-2.259c.83-.829 1.966-1.212 3.093-1.041 1.217.185 2.136.863 2.746 2.027.36.685.729 1.077 1.269 1.347.32.16 1.103.363 1.153.298a4.246 4.246 0 0 0-.026-.499 5.746 5.746 0 0 0-1.242-3.098c-1.313-1.66-3.494-2.468-5.515-2.043" fill="#A12577" fill-rule="evenodd"/></svg>
