<svg xmlns="http://www.w3.org/2000/svg" viewBox="0 0 32 32" xml:space="preserve"><path d="M17.268 4.175c-.841.295-1.398.892-1.727 1.852-.095.275-.101.5-.101 3.733 0 3.433 0 3.441.124 3.893a5.004 5.004 0 0 0 1.43 2.402 4.466 4.466 0 0 0 2.27 1.194c.591.121 5.178.124 5.75.004.821-.172 1.636-.645 2.079-1.205.304-.385.679-1.18.78-1.653.117-.551.073-1.367-.106-1.976-.415-1.404-1.258-3.024-2.162-4.152-.738-.922-1.953-2.006-2.926-2.609-1.431-.888-3.259-1.533-4.492-1.585-.49-.021-.605-.008-.919.102m-3.348.737c-1.921.216-3.898 1.025-5.438 2.225-3.519 2.742-5.169 7.376-4.211 11.833.257 1.197.856 2.683 1.502 3.725a11.232 11.232 0 0 0 6.872 5.012c.6.146 1.7.293 2.195.293h.308l-.032-.227c-.102-.722-.329-1.187-.801-1.641-.396-.38-.672-.515-1.568-.77-.904-.257-2.075-.839-2.83-1.408-4.527-3.411-4.984-10.246-.953-14.247a9.001 9.001 0 0 1 3.998-2.29c.631-.169.935-.306 1.26-.57.447-.362.812-1.088.889-1.767l.026-.227-.409.007c-.224.004-.588.027-.808.052m4.879 1.516c1.447.376 2.853 1.135 4.028 2.175.954.845 1.693 1.828 2.292 3.05.655 1.335.804 2.024.545 2.519-.181.346-.437.606-.73.743l-.267.124h-2.431c-2.635.001-2.678-.003-3.275-.306-.626-.316-1.196-1.15-1.305-1.909-.031-.211-.054-1.599-.055-3.212-.001-3.065.007-3.154.277-3.263.197-.079.372-.064.921.079m8.371 10.268c-.137.119-.42.332-.63.474-.771.525-.986.881-1.606 2.67-.447 1.289-1.044 2.283-1.877 3.126-1.142 1.157-2.568 1.916-4.55 2.42-.532.136-.882.314-1.23.627-.452.406-.744.988-.826 1.644l-.039.305.581-.037c3.02-.196 5.51-1.265 7.455-3.2 1.865-1.855 2.9-4.219 3.101-7.079.038-.538-.008-1.166-.084-1.166-.025 0-.157.097-.295.216" fill="#A12577" fill-rule="evenodd"/></svg>
