<svg xmlns="http://www.w3.org/2000/svg" viewBox="0 0 20 20">
    <path fill="#A12577" fill-rule="evenodd" d="M14.567 4.369c-.117.052-.818.734-3.134 3.049L8.45 10.4 7.1 9.047c-1.486-1.49-1.514-1.513-1.883-1.513-.346 0-.447.071-1.256.887-.691.697-.725.738-.778.925-.064.222-.05.384.053.619.052.119.561.645 2.374 2.457 1.564 1.563 2.352 2.328 2.448 2.375.208.104.398.12.629.055l.196-.057 3.979-3.972c3.025-3.021 3.994-4.008 4.045-4.119a.893.893 0 0 0-.004-.69c-.058-.135-.219-.314-.78-.873-.498-.496-.751-.724-.856-.772-.2-.09-.5-.09-.7 0"/>
</svg>
