<svg width="33" height="32" xmlns="http://www.w3.org/2000/svg"><path d="M15.104 4.1c-2.019.275-3.995 1.076-5.556 2.25-.44.331-1.205 1.001-1.234 1.081-.03.081.21.262.592.447.273.132.448.177.77.195.548.031.918-.095 1.694-.575 2.578-1.596 5.571-1.964 8.375-1.029 1.549.516 2.79 1.316 4.015 2.587.564.586 1.21 1.41 1.21 1.544 0 .027-.365.361-.811.741-.446.381-1.17 1.02-1.609 1.42-2.042 1.862-6.126 5.473-6.825 6.035-.446.358-1.206.439-1.77.19-.146-.064-.462-.31-.739-.575-.95-.907-1.501-1.355-1.928-1.566-.405-.2-.44-.207-1-.207-.512 0-.617.017-.89.144-.17.08-.41.237-.533.348l-.224.203 1.435 1.275c.79.701 1.542 1.361 1.672 1.467.13.106.43.362.666.57.994.874 1.781 1.25 2.449 1.171.529-.062 1.101-.407 2.149-1.295a346.479 346.479 0 0 0 5.153-4.486c1.947-1.734 3.658-3.226 3.77-3.29.088-.05.245.431.416 1.273.146.714.198 2.23.105 3.018-.18 1.525-.7 2.966-1.543 4.277-.393.61-.515 1.002-.481 1.541.026.411.231.938.48 1.236l.115.137.299-.316a11.46 11.46 0 0 0 1.931-2.818 11.847 11.847 0 0 0 1.106-3.498c.128-.792.128-2.717 0-3.507-.471-2.913-1.897-5.477-4.048-7.277a11.943 11.943 0 0 0-6.156-2.708c-.819-.106-2.287-.107-3.055-.003M7.547 8.212c-1.606 1.828-2.571 3.934-2.902 6.335-.127.918-.087 2.768.078 3.63.319 1.669.878 3.082 1.749 4.422.461.707.854 1.182 1.581 1.906.981.979 1.81 1.579 3.002 2.172a11.903 11.903 0 0 0 13.381-1.871l.319-.291-.117-.125c-.21-.223-.754-.427-1.213-.454-.565-.033-.884.07-1.59.513-.745.468-1.58.87-2.293 1.103-3.332 1.092-6.989.34-9.658-1.985-2.319-2.02-3.608-5.161-3.348-8.16.148-1.707.653-3.256 1.484-4.551.5-.78.586-1.018.586-1.616 0-.447-.02-.566-.142-.825-.136-.292-.405-.66-.48-.66-.02.001-.217.206-.437.457" fill="#A12577" fill-rule="evenodd"/></svg>
