<svg width="33" height="32" xmlns="http://www.w3.org/2000/svg"><path d="M22.77 8.612c-.124.053-1.589 1.478-4.111 3.998l-3.918 3.916-1.802-1.798c-1.204-1.201-1.869-1.826-2.006-1.883a1.171 1.171 0 0 0-.856 0c-.128.053-.568.447-1.183 1.058-.888.885-.985 1.001-1.062 1.264-.093.316-.07.526.091.838.055.106 1.468 1.557 3.142 3.225 2.612 2.603 3.079 3.045 3.303 3.128.316.117.63.081.95-.11.12-.072 2.526-2.44 5.344-5.263 5.101-5.108 5.125-5.134 5.215-5.449.084-.294.084-.338-.001-.631-.085-.295-.153-.378-1.008-1.232-.53-.531-1.013-.965-1.147-1.032a1.222 1.222 0 0 0-.951-.029" fill="#4CAF50" fill-rule="evenodd"/></svg>
