<svg xmlns="http://www.w3.org/2000/svg" viewBox="0 0 42 42">
  <path fill="#ab007e" fill-rule="evenodd" d="M19.147 9.141c-1.826.284-3.334.874-4.874 1.909-2.605 1.75-4.352 4.352-5.048 7.518-.139.632-.158.911-.156 2.362.001 1.435.021 1.733.155 2.332.511 2.289 1.536 4.247 3.059 5.844 1.808 1.897 3.977 3.069 6.582 3.558 1.059.198 3.297.18 4.302-.036 1.709-.366 3.368-1.081 4.692-2.021.851-.605 2.143-1.897 2.748-2.748.94-1.324 1.653-2.98 2.022-4.692.134-.623.158-.951.162-2.202.003-1.27-.018-1.579-.158-2.27-1.021-5.041-4.948-8.799-9.989-9.559-.866-.13-2.641-.128-3.497.005m3.548 2.029a9.92 9.92 0 0 1 7.64 6.68c.335 1.011.465 1.864.465 3.04-.001 1.707-.285 2.945-1.014 4.415-2.159 4.351-6.991 6.463-11.691 5.109-.735-.211-1.999-.8-2.635-1.227-3.738-2.511-5.354-7.171-3.946-11.383 1.268-3.792 4.52-6.35 8.611-6.771.504-.052 1.977.027 2.57.137m-2.117 3.237a1.3 1.3 0 0 0-.509.431c-.108.158-.119.501-.119 3.804 0 4.055-.02 3.883.493 4.171.254.143.347.147 3.211.147 3.224 0 3.282-.007 3.563-.402a.973.973 0 0 0-.22-1.378c-.188-.138-.309-.147-2.625-.18l-2.427-.035-.035-2.978c-.039-3.301-.025-3.203-.511-3.5-.221-.135-.612-.172-.821-.08"/>
</svg>
