<svg xmlns="http://www.w3.org/2000/svg" viewBox="0 0 20 18">
    <path fill="#A12577" fill-rule="evenodd" d="M13.425.484c-1.09.206-2.009.938-2.421 1.928-.475 1.141-.296 2.357.49 3.331.1.125.229.263.285.307.056.044.095.086.087.095a7.868 7.868 0 0 0-1.355.973l-.172.152-.349-.052c-.388-.057-.633-.063-.857-.019-.143.028-.157.024-.316-.104a7.588 7.588 0 0 0-1.11-.71l-.274-.132.146-.152c.595-.615.94-1.563.873-2.395-.121-1.491-1.164-2.679-2.618-2.98-.261-.054-.398-.063-.767-.048-.836.034-1.46.291-2.029.837-.427.409-.673.821-.86 1.435-.083.275-.091.348-.092.867-.002.614.02.74.221 1.261.125.326.425.776.688 1.035l.201.197-.323.193a5.422 5.422 0 0 0-2.318 2.88c-.182.553-.227.829-.245 1.509l-.018.641h1.699l.019-.525c.011-.288.045-.637.075-.775a3.49 3.49 0 0 1 2.099-2.469c.737-.295 1.71-.311 2.461-.041.248.089.755.332.755.361 0 .01-.074.111-.164.226-.616.784-.778 1.971-.398 2.922.145.364.311.618.605.924l.261.272-.338.174a4.954 4.954 0 0 0-2.581 3.407 8.623 8.623 0 0 0-.118 1.266v.225h1.724l.019-.492c.021-.577.095-.917.288-1.328a3.12 3.12 0 0 1 .634-.924c.688-.722 1.689-1.096 2.646-.988.445.05.661.114 1.072.315a3.223 3.223 0 0 1 1.517 1.5c.249.505.303.736.324 1.375l.018.542h1.734l-.019-.542c-.022-.65-.083-1.009-.26-1.54-.422-1.266-1.397-2.364-2.578-2.904l-.189-.087.184-.188c.4-.412.685-.911.823-1.439.2-.766-.003-1.737-.5-2.399a1.133 1.133 0 0 1-.137-.208c0-.04.465-.374.7-.502.535-.291 1.065-.407 1.75-.381.588.022.914.1 1.4.338a3.334 3.334 0 0 1 1.623 1.641c.21.45.296.839.322 1.461l.021.533h1.634l.009-.547c.011-.637-.034-.952-.208-1.484a5.195 5.195 0 0 0-2.605-3.042l-.376-.187.206-.223c.221-.239.418-.55.562-.885.328-.766.326-1.609-.007-2.443-.372-.931-1.25-1.704-2.204-1.941-.369-.091-1.019-.114-1.369-.047m.991 1.723c.345.087.732.386.917.71.234.409.263.957.072 1.365-.298.638-1.052 1.007-1.735.849a1.636 1.636 0 0 1-1.154-1.113 1.54 1.54 0 0 1 .079-1c.313-.67 1.061-1.003 1.821-.811m-8.879.194c.805.152 1.362.933 1.238 1.735a1.544 1.544 0 0 1-1.279 1.3c-.451.081-.903-.071-1.246-.417a1.616 1.616 0 0 1-.457-1.36c.051-.349.175-.599.421-.844a1.444 1.444 0 0 1 1.323-.414m4.401 6.498c.413.128.75.44.896.826.101.269.083.677-.042.95a1.376 1.376 0 0 1-.996.764c-.538.095-1.143-.238-1.39-.765-.079-.169-.089-.23-.089-.541 0-.33.006-.361.11-.561.307-.588.913-.859 1.511-.673"/>
</svg>
