<svg width="32" height="32" xmlns="http://www.w3.org/2000/svg"><path d="M19.454 5.065c-2.21.404-3.704 2.547-3.262 4.684.161.78.454 1.341 1.006 1.924.294.31.313.345.224.4-.616.378-1.102.72-1.43 1.005l-.396.346-.425-.076a3.741 3.741 0 0 0-.868-.045l-.444.032-.223-.183c-.321-.263-1.122-.757-1.399-.863-.13-.049-.237-.099-.237-.11 0-.011.141-.188.314-.394 1.021-1.216 1.202-2.858.475-4.318-.183-.368-.321-.55-.734-.963-.436-.437-.581-.545-1.015-.758-.715-.349-1.067-.431-1.867-.433-.796-.003-1.149.077-1.842.417-1.888.927-2.652 3.323-1.677 5.257.173.344.705 1.041.855 1.121.16.086.129.135-.202.32-1.046.583-2.018 1.598-2.587 2.698-.464.899-.651 1.623-.71 2.754l-.038.733h2.201v-.589c0-.762.105-1.227.428-1.891.447-.92 1.096-1.557 2.032-1.996.667-.313 1.066-.396 1.887-.394.808.001 1.254.101 1.978.44l.454.212-.236.29c-.566.695-.858 1.742-.736 2.645.114.846.394 1.443.956 2.039.19.202.337.375.325.386a6.91 6.91 0 0 1-.394.207c-.848.427-1.783 1.243-2.277 1.986-.724 1.09-1.056 2.167-1.057 3.425v.6h2.118l.03-.653c.043-.932.244-1.527.762-2.258.471-.665 1.258-1.231 2.077-1.496.557-.18 1.471-.228 2.036-.108 1.94.413 3.271 2.054 3.271 4.033v.482h2.199l-.036-.626c-.019-.345-.07-.821-.113-1.057-.328-1.832-1.566-3.479-3.25-4.328a7.204 7.204 0 0 1-.394-.206c-.011-.01.121-.172.294-.361.819-.894 1.169-2.022.956-3.078-.101-.499-.405-1.193-.662-1.511-.092-.114-.168-.226-.168-.249 0-.058.35-.328.668-.516 2.161-1.272 5.023-.458 6.132 1.746.312.619.408 1.018.44 1.826l.029.734h2.075l-.022-.92c-.021-.867-.032-.951-.198-1.454-.582-1.76-1.786-3.147-3.401-3.915l-.383-.182.32-.349c.795-.868 1.128-2.183.848-3.352-.352-1.467-1.362-2.548-2.801-3-.418-.131-1.461-.191-1.906-.11m1.489 2.197c.395.147.777.511.989.94.154.315.174.405.172.784-.003.653-.252 1.124-.787 1.486a1.937 1.937 0 0 1-2.87-.789c-.269-.575-.208-1.298.153-1.788.522-.709 1.461-.963 2.343-.633m-10.85.329c.392.192.797.634.948 1.036.163.435.136 1.044-.065 1.453-.167.34-.515.713-.803.86-.59.302-1.191.316-1.741.041-.391-.195-.66-.487-.876-.948-.144-.308-.165-.411-.165-.809-.001-.394.02-.499.152-.768.179-.365.468-.671.788-.835.362-.185.466-.205.979-.191.401.012.533.039.783.161m5.245 7.928c.369.167.66.433.834.762.181.342.171.982-.022 1.346-.313.592-.824.903-1.483.905-.331.001-.453-.024-.702-.147-.578-.283-.907-.798-.911-1.423-.004-.606.298-1.13.811-1.409.496-.27.932-.281 1.473-.034" fill="#A12577" fill-rule="evenodd"/></svg>
