<svg xmlns="http://www.w3.org/2000/svg" viewBox="0 0 32 32" xml:space="preserve"><path d="M11.258 4.912C8.881 5.195 6.713 6.54 5.374 8.56c-2.59 3.908-1.355 9.155 2.722 11.564.846.5 2.019.906 3.018 1.045.252.035 1.482.058 3.141.058 1.565 0 2.705.02 2.676.046-.053.049-7.827 3.58-7.881 3.58-.017 0 .27-.618.638-1.373s.682-1.407.699-1.448c.025-.062-.066-.07-.552-.046-.945.048-1.625.357-2.244 1.024-.363.39-.702 1.005-.822 1.488-.222.897.328 2.008 1.21 2.442.266.131.426.17.785.193l.451.028 5.912-2.99c5.649-2.856 5.939-2.995 6.485-3.125 1.576-.376 2.778-1.056 3.965-2.242 1.433-1.433 2.19-3.039 2.378-5.045.278-2.966-1.143-5.869-3.699-7.555-.862-.569-1.768-.944-2.896-1.197-.528-.119-.579-.12-5.12-.131-2.523-.007-4.764.01-4.982.036m9.729 2.247c1.724.388 3.104 1.373 3.991 2.85.612 1.019.913 2.387.787 3.585-.271 2.59-2 4.65-4.474 5.329l-.518.142-4.58.016c-4.981.018-4.982.018-5.904-.284-1.9-.623-3.399-2.247-3.905-4.231-.101-.397-.117-.597-.114-1.473.003-.926.015-1.059.146-1.546.165-.614.616-1.557.97-2.027 1.009-1.339 2.524-2.239 4.081-2.422.22-.026 2.368-.041 4.773-.035 3.753.011 4.426.024 4.747.096m-10.11 2.404c-.789.416-.776 1.567.02 1.952.233.113.238.113 5.09.099l4.857-.014.229-.16a1.102 1.102 0 0 0 0-1.813l-.229-.16-4.865-.014-4.866-.015-.236.125m-.717 3.781c-.388.136-.771.63-.773.996-.001.235.122.539.302.75.347.405-.081.381 6.635.365l6.004-.015.197-.133c.578-.392.681-1.126.23-1.64a1.374 1.374 0 0 0-.381-.288c-.203-.092-.518-.097-6.134-.094-3.985.002-5.972.022-6.08.059" fill="#A12577" fill-rule="evenodd"/></svg>
