<svg width="32" height="32" xmlns="http://www.w3.org/2000/svg"><path d="M15.067 2.329c-2.992.246-5.449 1.153-7.546 2.785-.578.449-1.558 1.395-2.052 1.979-1.676 1.983-2.661 4.233-3.048 6.96-.126.886-.127 2.601-.003 3.497.111.796.305 1.644.635 2.77.344 1.172.431 1.725.43 2.747-.001 1.096-.093 1.629-.706 4.07-.309 1.233-.449 1.874-.403 1.857.4-.154 3.774-1.121 4.119-1.181.841-.147 2.118-.085 2.904.14.126.036.641.217 1.145.402 1.069.393 1.764.599 2.685.797.624.134.775.144 2.364.167 1.425.021 1.786.01 2.24-.065a16.127 16.127 0 0 0 2.47-.642c.687-.252 1.888-.834 2.526-1.222 1.727-1.052 3.495-2.817 4.517-4.51 2.944-4.878 2.578-10.934-.936-15.467-.42-.542-1.528-1.663-2.098-2.123-2.138-1.726-4.668-2.724-7.454-2.941a11.689 11.689 0 0 0-1.789-.02m2.613 2.39c2.458.45 4.37 1.435 6.055 3.119 2.155 2.155 3.305 4.941 3.305 8.008 0 5.06-3.338 9.44-8.293 10.884-1.036.302-1.652.385-2.827.383-1.686-.003-2.769-.21-4.56-.872a25.426 25.426 0 0 0-1.397-.479 8.946 8.946 0 0 0-4.096-.139c-.191.04-.355.065-.364.056-.01-.009.034-.312.098-.674.144-.818.196-2.25.112-3.027a12.942 12.942 0 0 0-.485-2.325c-.471-1.577-.584-2.214-.625-3.52-.096-3.055.979-5.901 3.047-8.071 1.917-2.01 4.143-3.078 7.177-3.443.442-.053 2.39.015 2.853.1m-4.097 2.094c.01.169.078 2.215.153 4.547.074 2.332.159 4.362.188 4.51a2.274 2.274 0 0 0 1.223 1.592c.337.16.37.165 1.234.182l.888.018.032-.498c.018-.273.094-2.255.169-4.403.102-2.935.122-3.982.079-4.212a2.542 2.542 0 0 0-1.694-1.932c-.288-.096-.461-.11-1.31-.11h-.978l.016.306m.406 12.634c-.331.163-.462.503-.383.993.177 1.098 1.221 1.859 2.312 1.685.881-.141 1.605-.886 1.791-1.843.058-.298.054-.35-.039-.528-.196-.379-.273-.394-1.989-.393-1.276.001-1.548.015-1.692.086" fill-rule="evenodd" fill="#000"/></svg>
