<svg xmlns="http://www.w3.org/2000/svg" xml:space="preserve" viewBox="0 0 32 32"><path fill-rule="evenodd" d="M22.766 4.08c-.349.112-.505.319-1.175 1.556l-.583 1.076-.411-.244c-.912-.543-2.044-.972-3.162-1.198-.528-.107-.766-.123-1.808-.123-1.041 0-1.281.016-1.805.122-3.706.751-6.646 3.518-7.55 7.105-.239.946-.314 1.709-.281 2.853.033 1.153.125 1.69.467 2.717a9.55 9.55 0 0 0 3.95 5.006c.293.183.402.28.387.345-.065.297-.669 4.609-.648 4.63.014.014 1.355-.75 2.98-1.698l2.954-1.723.639-.07c1.502-.164 3.065-.727 4.245-1.531l.441-.3.183.221c.341.41.841.559 1.368.406.447-.13.634-.337 1.167-1.293l.47-.844.859-.48c.473-.264.935-.553 1.026-.643.389-.386.398-1.237.019-1.697-.094-.114-.392-.316-.766-.518-.337-.183-.612-.362-.612-.399 0-.037.058-.339.129-.672.272-1.269.301-2.164.115-3.457l-.072-.507.232-.432c.128-.238.264-.458.301-.488.038-.03.584-.325 1.215-.654 1.176-.614 1.43-.792 1.6-1.122.191-.37.183-.52-.048-.933-.344-.615-.493-.73-1.86-1.438l-1.237-.64-.618-1.186c-.339-.653-.678-1.259-.753-1.348a1.297 1.297 0 0 0-1.358-.399m1.351 4.181c.089.09.529.361.979.601l.818.436-.57.4c-1.595 1.118-1.377.912-1.809 1.717-.212.394-.404.723-.427.731-.023.007-.233-.349-.468-.791-.242-.457-.5-.869-.595-.954-.093-.082-.521-.337-.952-.566-.911-.484-.923-.382.117-.931.386-.204.778-.447.87-.539.092-.092.36-.552.595-1.022l.428-.855.427.804c.234.442.498.878.587.969m-7.316-1.198c.309.042.764.127 1.013.19.49.126 1.653.579 1.653.645 0 .023-.18.14-.4.262-.685.378-.934.719-.934 1.281 0 .336.084.568.284.787.061.067.691.423 1.399.793l1.289.671.628 1.208c.345.663.702 1.285.792 1.381.246.261.58.404.865.372l.237-.027v.314c0 .172-.014.313-.031.313s-.106-.075-.199-.168a1.179 1.179 0 0 0-1.624-.07c-.13.111-.367.47-.68 1.028l-.48.857-.927.523c-1.047.591-1.126.67-1.267 1.274-.145.617-.152.935-.025 1.097.06.076.53.372 1.044.658.514.285.935.535.935.555 0 .067-.828.591-1.306.825a8.48 8.48 0 0 1-2.972.84l-.65.065-1.459.877c-.803.482-1.466.868-1.474.858-.008-.01.073-.499.18-1.085l.195-1.067-.693-.362c-.909-.474-1.436-.854-2.09-1.508-2.34-2.338-2.909-5.983-1.407-8.999.401-.804.862-1.439 1.542-2.12 1.776-1.78 4.125-2.592 6.562-2.268m-1.228 3.422c-.412.147-.53.283-1.064 1.225l-.511.902-.816.46c-.449.253-.889.514-.978.58-.482.356-.512 1.353-.057 1.829.078.082.527.365.998.629l.855.481.53.935c.474.836.555.949.769 1.075.285.167.749.218 1.097.12.399-.112.578-.314 1.109-1.255l.493-.874.873-.491c.996-.559 1.144-.67 1.297-.97.167-.327.126-.892-.09-1.242-.15-.242-.225-.294-1.119-.768L18 12.612l-.463-.822a19.263 19.263 0 0 0-.575-.972c-.251-.339-.923-.5-1.389-.333m.836 3.043c.286.51.296.52.891.843l.419.227-.477.273c-.262.15-.519.32-.571.378-.085.093-.296.451-.468.791-.033.066-.078.12-.1.12-.022 0-.156-.207-.298-.461-.284-.506-.289-.511-.891-.856l-.42-.24.526-.309c.484-.283.54-.333.695-.621.287-.536.361-.652.399-.629.02.013.153.23.295.484m6.205 4.234c.152.27.279.394.791.779l.61.458-.433.274c-.238.151-.5.311-.581.357a.67.67 0 0 0-.227.24c-.044.086-.168.311-.276.499l-.196.343-.078-.187a4.633 4.633 0 0 1-.118-.316c-.132-.425-.288-.624-.651-.826a24.141 24.141 0 0 1-.512-.293l-.15-.09.444-.254c.577-.329.586-.338.879-.86.137-.245.265-.446.284-.446.018 0 .115.145.214.322"/></svg>
