<svg width="32" height="32" xmlns="http://www.w3.org/2000/svg"><path d="M14.782 2.971C12.099 3.277 9.824 4.18 7.908 5.7c-.605.481-1.597 1.466-2.094 2.082-1.492 1.848-2.461 4.167-2.765 6.622-.093.746-.103 2.208-.021 2.964.084.779.291 1.737.596 2.765.374 1.258.465 1.822.463 2.857-.002 1.081-.063 1.439-.649 3.79-.259 1.04-.462 1.899-.452 1.91.011.01.801-.214 1.756-.5 2.041-.611 2.48-.702 3.371-.702.791 0 1.437.112 2.196.38 2.279.806 2.987.997 4.242 1.144.823.096 2.267.109 2.94.025a13.416 13.416 0 0 0 7.922-3.937c1.997-2.055 3.164-4.41 3.608-7.28.134-.868.136-2.808.003-3.647-.329-2.075-.959-3.75-2.023-5.377-1.293-1.976-3.041-3.512-5.193-4.563-1.811-.884-3.391-1.258-5.445-1.292-.636-.01-1.347.003-1.581.03m2.515 2.201c3.725.426 6.888 2.655 8.523 6.009.603 1.236.939 2.41 1.071 3.747.498 5.049-2.568 9.735-7.476 11.425-1.185.408-2.317.57-3.678.526-1.424-.045-2.4-.244-3.872-.789-1.717-.635-2.509-.805-3.751-.803-.663.001-1.502.09-1.986.212l-.117.029.1-.513c.148-.759.231-1.862.189-2.52-.07-1.098-.199-1.746-.656-3.295-.372-1.261-.444-1.791-.444-3.25 0-1.424.065-1.923.411-3.122.951-3.294 3.567-6.025 6.811-7.11 1.506-.503 3.395-.715 4.875-.546" fill-rule="evenodd" fill="#000"/></svg>
