<svg xmlns="http://www.w3.org/2000/svg" xml:space="preserve" viewBox="0 0 32 32"><path fill-rule="evenodd" d="M24.384 3.994c-.489.169-.624.325-1.157 1.328-.268.504-.501.929-.517.946-.017.017-.196-.075-.397-.205-1.811-1.168-4.221-1.781-6.404-1.629-6.801.473-11.213 7.3-8.763 13.557.724 1.85 2.229 3.657 3.96 4.752.337.214.407.281.386.372-.067.294-.769 4.799-.751 4.817.012.012 1.431-.784 3.153-1.769 2.839-1.622 3.154-1.79 3.372-1.79.132 0 .495-.037.805-.084 4.277-.635 7.622-3.758 8.53-7.966.136-.63.145-.752.147-2.056l.001-1.387.274-.445.273-.445 1.219-.657c.67-.361 1.317-.742 1.438-.845.411-.355.516-.748.347-1.306-.182-.597-.358-.746-1.788-1.52l-1.221-.66-.659-1.221c-.744-1.38-.97-1.658-1.471-1.806-.345-.103-.429-.101-.777.019m-6.067 2.563c.292.059.724.171.96.248.502.163 1.428.604 1.653.786l.156.127-.549.314c-.924.529-1.155.743-1.293 1.203-.046.157-.046.274.004.494.12.538.235.637 1.587 1.365.67.361 1.282.701 1.359.754.089.062.378.536.783 1.285.807 1.492 1.065 1.77 1.704 1.842l.232.026-.035.3c-.406 3.477-3.091 6.336-6.611 7.039-.678.135-1.45.193-1.632.123-.124-.049-.291.037-1.699.875-.858.511-1.579.929-1.601.929-.022 0-.02-.114.006-.254l.197-1.122.152-.868-.598-.285c-2.425-1.153-4.046-3.214-4.597-5.845-.072-.342-.095-.7-.095-1.466 0-1.151.093-1.714.438-2.64a8.335 8.335 0 0 1 6.495-5.306c.677-.11 2.265-.069 2.984.076m6.931.87c.231.447.471.87.533.939.062.069.514.327 1.006.573.491.247.893.458.893.469 0 .012-.4.258-.888.547-.602.356-.92.577-.987.685-.053.088-.272.49-.485.893-.212.403-.401.733-.419.733-.018 0-.246-.401-.507-.893l-.474-.893-.946-.48c-.521-.264-.946-.492-.946-.507-.001-.014.365-.216.812-.447.447-.232.861-.465.92-.517.059-.053.31-.506.559-1.006.248-.5.464-.91.48-.909.015 0 .217.366.449.813m-9.515.391a1.28 1.28 0 0 0-.601.582c-.085.163-.11.302-.104.587.014.766.387 5.554.447 5.748.035.11.148.3.251.42.559.653 1.542.527 1.94-.248.097-.188.133-.547.322-3.179.118-1.64.197-3.054.176-3.163-.046-.247-.358-.602-.644-.732-.284-.13-1.499-.139-1.787-.015m.36 9.037a1.552 1.552 0 0 0-1.059.875c-.142.312-.137.935.01 1.239.146.3.573.636.948.745.436.127 1.121.079 1.482-.104.628-.319.975-1.162.743-1.81-.123-.347-.328-.557-.742-.761-.315-.156-.464-.196-.785-.214a2.645 2.645 0 0 0-.597.03"/></svg>
