<svg xmlns="http://www.w3.org/2000/svg" viewBox="0 0 24 24">
    <path fill="#000" fill-rule="evenodd" d="M11.54 2.027c-1.618.133-3.144.57-4.36 1.248-1.712.956-3.228 2.536-4.091 4.265-.836 1.677-1.226 3.764-1.035 5.548.081.755.216 1.408.468 2.254.281.943.363 1.449.365 2.238.003.825-.041 1.077-.505 2.932a64.126 64.126 0 0 0-.369 1.513c.004.003.601-.172 1.327-.391 1.654-.497 1.955-.56 2.66-.56.635 0 1.153.092 1.751.31l.829.302a13.27 13.27 0 0 0 2.12.54c.38.059.7.073 1.54.072.98-.002 1.101-.01 1.6-.109 1.02-.2 1.849-.481 2.758-.933a9.75 9.75 0 0 0 2.722-1.974c.851-.858 1.373-1.59 1.899-2.662.509-1.039.774-1.876.948-3 .114-.736.122-2.077.018-2.8-.59-4.097-3.377-7.326-7.285-8.441-.993-.283-2.404-.431-3.36-.352m1.6 1.735c3.725.427 6.684 3.272 7.321 7.039.089.529.121 1.641.063 2.202a8.592 8.592 0 0 1-1.217 3.583c-1.248 2.014-3.355 3.454-5.736 3.921-.492.097-.637.108-1.351.106-1.261-.005-2.158-.176-3.424-.656-1.257-.476-1.782-.58-2.896-.571-.594.004-.838.023-1.12.085a2.919 2.919 0 0 1-.373.068 4.675 4.675 0 0 1 .073-.505c.049-.283.095-.768.108-1.136.038-1.047-.07-1.806-.429-3.018-.334-1.13-.437-1.785-.438-2.783-.002-1.574.438-3.138 1.249-4.433a8.048 8.048 0 0 1 1.108-1.398c1.387-1.429 2.951-2.201 5.033-2.485.476-.065 1.542-.075 2.029-.019"/>
</svg>
