<svg xmlns="http://www.w3.org/2000/svg" viewBox="0 0 22 22">
    <path fill-rule="evenodd" d="M9.817.789a13.1 13.1 0 0 0-1.923.387 10.017 10.017 0 0 0-6.646 6.472 9.763 9.763 0 0 0-.502 2.907c-.038 1.332.091 2.18.58 3.813.228.764.266 1.043.265 1.96-.001.973.002.954-.492 2.933a51.04 51.04 0 0 0-.356 1.479c.005.005.634-.177 1.396-.406 1.787-.535 2.158-.601 2.982-.526.572.052.982.156 1.78.454.7.26 1.332.452 1.849.561.73.154 1.006.177 2.166.177.96 0 1.175-.01 1.532-.071 3.517-.599 6.525-3.026 7.83-6.316.496-1.252.7-2.338.7-3.728 0-1.369-.197-2.457-.665-3.675a10.139 10.139 0 0 0-6.241-5.971 10.446 10.446 0 0 0-4.255-.45m1.723 1.678c1.586.078 3.281.748 4.625 1.828 1.356 1.09 2.383 2.681 2.841 4.403.204.766.257 1.207.259 2.152.002.94-.035 1.281-.223 2.049-.708 2.9-2.951 5.232-5.885 6.119a7.28 7.28 0 0 1-2.471.325c-1.152-.041-1.937-.206-3.178-.669-.946-.353-1.33-.455-2.061-.546-.481-.06-1.505-.023-1.962.07a2.268 2.268 0 0 1-.362.057.738.738 0 0 1 .027-.212 8.03 8.03 0 0 0 .164-1.474c.033-.996-.074-1.751-.409-2.884-.35-1.183-.458-1.849-.458-2.812 0-.913.091-1.576.335-2.431.536-1.879 1.744-3.508 3.448-4.651a8.35 8.35 0 0 1 2.147-.989c.814-.235 2.049-.405 2.648-.363l.515.028M9.188 4.292c.012.248.067 1.821.123 3.496.083 2.496.112 3.079.159 3.237.182.614.645 1.06 1.233 1.185.102.022.429.04.726.04.492 0 .541-.006.541-.061 0-.034.047-1.361.105-2.949.127-3.492.129-3.73.036-4.03a1.888 1.888 0 0 0-1.205-1.247c-.226-.08-.315-.089-.994-.105l-.745-.017.021.451m.38 9.256c-.149.043-.353.277-.384.439-.035.191.037.52.178.807.321.649 1.082.967 1.797.75.571-.173 1.022-.717 1.127-1.358.05-.307-.07-.542-.327-.639-.122-.046-2.232-.045-2.391.001"/>
</svg>
