<svg xmlns="http://www.w3.org/2000/svg" xml:space="preserve" viewBox="0 0 32 32"><path fill-rule="evenodd" d="M15.2 4.062c-2.784.134-5.405 1.289-7.488 3.296-2.374 2.288-3.658 5.284-3.658 8.537-.001 1.439.166 2.481.631 3.945.343 1.08.406 1.459.402 2.427-.004.971-.045 1.207-.625 3.573a73.96 73.96 0 0 0-.436 1.826c.005.008.867-.238 1.916-.546 1.532-.449 2.013-.569 2.447-.61 1.033-.097 2.273.103 3.399.548 1.473.582 2.834.835 4.494.835 5.346.001 10.062-3.786 11.364-9.124.241-.991.322-1.696.323-2.822 0-1.151-.083-1.845-.343-2.854-.809-3.142-2.952-5.966-5.689-7.499-2.054-1.15-4.261-1.652-6.737-1.532"/></svg>
