<svg xmlns="http://www.w3.org/2000/svg" viewBox="0 0 32 32">
  <path fill="#fff" fill-rule="evenodd" d="M14.068.093c-.194.223-.201.306-.201 2.199 0 1.965.017 2.122.242 2.208a.56.56 0 0 0 .512-.069c.124-.1.126-.12.152-1.289l.027-1.188.768 1.117c.423.613.829 1.182.904 1.262.178.194.472.202.685.018l.15-.129-.012-1.93C17.284.544 17.274.346 17.187.197c-.168-.287-.613-.25-.762.062-.049.102-.064.452-.056 1.261.007.701-.007 1.1-.039 1.067-.027-.03-.38-.534-.784-1.12S14.726.31 14.622.2c-.211-.222-.418-.262-.554-.107m-2.041 1.646C8.141 2.879 5.474 4.848 3.439 8.08c-.704 1.118-1.626 3.283-1.626 3.817 0 .21.21.423.417.423.291 0 .403-.155.675-.944 1.089-3.148 2.939-5.483 5.687-7.178 1.282-.791 2.34-1.232 3.934-1.639.458-.117.633-.498.356-.775-.154-.154-.433-.169-.855-.045m6.413.02c-.269.212-.228.586.079.716.096.04.62.218 1.165.395 1.5.486 2.782 1.136 3.924 1.991 2.205 1.651 3.899 4.028 4.762 6.686.191.587.334.773.595.773.21 0 .422-.21.422-.418 0-.2-.345-1.2-.694-2.017a14.8 14.8 0 0 0-1.912-3.218c-.433-.561-1.535-1.669-2.141-2.152-1.556-1.239-3.655-2.313-5.389-2.756-.52-.132-.643-.132-.811 0m-3.261 4.006a1 1 0 0 0-.216.256c-.042.08-.33 1.188-.642 2.462-.701 2.869-.66 2.717-.731 2.717-.033 0-.818-.461-1.745-1.024s-1.772-1.054-1.878-1.091c-.497-.171-1.034.286-.932.795.027.137 1.039 1.866 1.668 2.852.268.418.542.508.793.257.238-.239.191-.387-.481-1.494-.337-.555-.603-1.018-.592-1.029.044-.044 2.475 1.39 2.749 1.621.11.092.161.184.161.287 0 .253-.119.688-.212.772-.048.043-1.214.353-2.591.689-3.679.898-4.442 1.09-4.544 1.145-.476.257-.499.978-.039 1.242.129.074 3.56.94 4.84 1.221.169.037.333.098.365.136.042.052-.201.49-.983 1.768-.571.935-1.068 1.797-1.104 1.916a.715.715 0 0 0 .56.9c.258.049.49-.07 2.348-1.201l1.635-.995c.02-.011.303 1.078.63 2.42s.63 2.538.673 2.657.147.285.233.366c.316.304.874.206 1.078-.188.052-.1.373-1.322.713-2.715s.623-2.536.629-2.542c.005-.005.717.423 1.583.951.865.529 1.722 1.033 1.905 1.12.39.187.565.173.842-.07.24-.212.322-.463.235-.726-.036-.11-.497-.908-1.023-1.773l-1.061-1.744-.103-.17.202-.056c.112-.031.231-.057.265-.057.035 0 .137-.062.227-.138.125-.105.164-.182.164-.322 0-.221-.198-.447-.391-.447-.192 0-2.59.575-2.825.678a.86.86 0 0 0-.308.234c-.068.096-.365 1.225-.849 3.231-.41 1.696-.767 3.132-.794 3.191-.039.086-.054.091-.08.026-.027-.068-.382-1.52-1.347-5.512-.21-.865-.337-1.093-.675-1.204-.094-.031-1.251-.319-2.571-.639-3.624-.881-3.657-.889-3.669-.939-.01-.042 1.222-.354 4.942-1.252 1.806-.436 1.68-.325 2.031-1.792.463-1.935 1.257-5.167 1.289-5.248.026-.065.041-.06.079.026.039.089.699 2.774 1.362 5.545.156.652.263.877.499 1.049.081.059 1.363.396 3.27.86 1.725.42 3.141.785 3.147.813s-.464.164-1.043.303c-.579.14-1.111.292-1.183.339-.274.18-.217.614.097.746.171.071.266.055 1.693-.292 1.708-.414 1.734-.423 1.901-.602.356-.383.213-.973-.282-1.161-.133-.051-4.309-1.079-4.87-1.199-.097-.02-.189-.07-.204-.109-.016-.04.446-.847 1.025-1.795.58-.948 1.077-1.813 1.105-1.923.064-.254-.017-.463-.264-.681a.53.53 0 0 0-.423-.159c-.297 0-.187-.059-2.202 1.168-.92.56-1.68 1.018-1.687 1.018-.022 0-.143-.477-.721-2.853-.293-1.203-.56-2.253-.593-2.334a.9.9 0 0 0-.217-.28c-.209-.177-.651-.187-.863-.021m5.558 4.76c-.009.04-.401.701-.87 1.47l-.853 1.399-.187-.034c-.363-.065-.756-.21-.802-.296-.086-.161-.223-.861-.177-.904.108-.102 2.772-1.704 2.836-1.705.039-.001.063.031.053.07M.164 13.471c-.094.08-.164.19-.164.26 0 .214.693 3.623.772 3.8.109.241.305.357.542.318a.7.7 0 0 0 .292-.121c.056-.051.207-.433.344-.869.393-1.26.46-1.454.487-1.426.014.014.177.508.361 1.098.184.589.377 1.119.429 1.176.204.226.633.181.807-.084.082-.125.815-3.602.818-3.88.002-.157-.288-.41-.47-.41-.305 0-.395.193-.621 1.33-.112.563-.222 1.003-.245.98-.023-.024-.186-.511-.364-1.083-.341-1.098-.414-1.227-.697-1.227-.216 0-.409.181-.501.468l-.33 1.052c-.194.621-.26.775-.293.687-.042-.112-.251-1.033-.372-1.641-.108-.541-.445-.722-.795-.428m28.85-.069c-.257.13-.266.204-.267 2.181 0 1.099.021 1.907.053 1.989.089.236.329.295 1.212.294.689 0 .81-.013.96-.105.298-.181.308-.539.02-.733-.155-.104-.25-.121-.657-.121-.626 0-.682-.033-.682-.398 0-.453.003-.455.499-.459.239-.001.518-.031.62-.066.32-.11.419-.477.19-.706-.118-.119-.173-.131-.59-.131-.632 0-.665-.024-.665-.477 0-.284.018-.372.084-.398.046-.017.309-.032.583-.032.46 0 .511-.011.665-.14.138-.117.164-.173.15-.332-.012-.149-.056-.218-.197-.313-.169-.114-.235-.122-1.013-.121-.56.001-.876.023-.965.068M12.8 17.937c.293.099.361.145.438.303.05.103.107.319.126.481l.034.295-1.444.87c-.795.479-1.469.862-1.498.852-.049-.017 1.509-2.626 1.691-2.831.105-.119.224-.114.653.03m7.117 1.343c.514.845.849 1.446.81 1.455-.072.017-2.664-1.538-2.828-1.696-.094-.091-.097-.123-.034-.419.099-.466.215-.627.52-.722.14-.044.345-.075.455-.069l.201.011zM2 18.728c-.314.172-.311.37.018 1.309.729 2.075 1.568 3.544 2.891 5.059 1.811 2.075 4.726 3.808 7.439 4.424.322.073.66.133.751.133.324.001.56-.317.45-.606-.069-.181-.199-.242-.831-.385-1.659-.374-3.385-1.119-4.718-2.036-2.389-1.642-4.29-4.222-5.178-7.026-.276-.871-.462-1.069-.822-.872m26.649.276c-.064.068-.197.362-.296.653-.725 2.132-1.843 3.974-3.284 5.41-1.582 1.576-3.818 2.865-5.998 3.458-.663.18-.778.262-.778.552 0 .246.188.47.394.47.176 0 1.285-.322 1.936-.562 3.497-1.289 6.506-4.104 8.024-7.506.334-.751.74-1.936.74-2.164 0-.378-.484-.582-.738-.311m-13.317 7.663c-.696.099-1.153.597-1.153 1.258 0 .543.293.892.977 1.164 1.066.424 1.203.522 1.132.808-.051.201-.315.343-.635.342-.285-.001-.581-.116-.877-.34-.252-.191-.541-.19-.692.002-.269.341-.037.697.683 1.046.49.237 1.015.325 1.251.21a8 8 0 0 1 .355-.158c.675-.286 1.021-1.002.772-1.598-.098-.234-.329-.548-.404-.548-.03 0-.037.028-.016.062q.035.058-.024.023c-.035-.021-.051-.058-.036-.082.047-.076-.116-.17-.839-.481-.628-.269-.708-.318-.723-.442-.045-.382.525-.487 1.089-.2.415.21.611.209.79-.004.076-.09.138-.2.138-.243 0-.119-.105-.301-.233-.405-.134-.108-.216-.122-.162-.028q.033.06-.01.023a.17.17 0 0 1-.048-.107c0-.083-.527-.283-.827-.314a2.6 2.6 0 0 0-.508.012m.095.088a.2.2 0 0 1-.134 0c-.036-.014-.006-.027.067-.027s.103.013.067.027m.534 0a.3.3 0 0 1-.16.002c-.052-.014-.022-.026.066-.027s.13.01.094.025m-1.241.252c0 .011-.042.053-.093.093-.085.066-.087.065-.02-.02.069-.089.113-.117.113-.073m.615 1.249c-.017.017-.06 0-.096-.036-.052-.053-.046-.059.03-.03.053.02.082.05.066.066m.932.357c.073.042.109.077.08.077a.6.6 0 0 1-.187-.077c-.073-.042-.109-.076-.08-.076s.113.034.187.076m-1.686 1.244c.015.024-.044.033-.13.021s-.158-.033-.158-.044c0-.041.261-.02.288.023m.54.373c-.016.016-.059 0-.095-.037-.053-.052-.046-.059.03-.03.052.02.082.05.065.067"/>
</svg>
