<svg xmlns="http://www.w3.org/2000/svg" viewBox="0 0 42 42">
  <path fill="#a12577" fill-rule="evenodd" d="M18.865 5.15c-2.851.387-5.606 1.568-7.91 3.39-1.229.971-2.703 2.646-3.604 4.094-.84 1.35-1.712 3.57-2.022 5.146-.25 1.276-.309 1.889-.309 3.22 0 1.888.213 3.22.804 5.025 1.923 5.869 7.04 10.055 13.286 10.87.855.112 2.925.112 3.78 0 3.619-.472 6.907-2.073 9.42-4.585s4.113-5.801 4.585-9.42c.048-.366.087-1.216.087-1.89 0-1.874-.238-3.324-.841-5.137-1.908-5.733-7.016-9.922-13.067-10.715-1.012-.133-3.226-.132-4.209.002m4.546 2.825a13.3 13.3 0 0 1 9.411 7.355c.681 1.428 1.063 2.888 1.207 4.611.138 1.642-.101 3.586-.637 5.199-.265.797-.993 2.321-1.441 3.015-3.008 4.663-8.364 6.953-13.647 5.834a13.1 13.1 0 0 1-4.549-1.89c-.74-.493-1.854-1.398-1.902-1.545-.013-.039 2.886-1.441 6.443-3.115l6.467-3.044 2.668-6.364c1.468-3.501 2.659-6.374 2.647-6.386-.011-.012-2.823 1.242-6.247 2.787l-6.226 2.809-2.761 6.097c-1.519 3.353-2.856 6.3-2.971 6.548l-.209.45-.38-.415c-1.864-2.039-3.019-4.451-3.406-7.11-.139-.96-.141-2.882-.003-3.798.429-2.845 1.698-5.354 3.741-7.397 2.02-2.02 4.493-3.281 7.338-3.741.966-.156 3.472-.1 4.457.1m.251 11.75-1.069 2.509-2.587 1.244c-1.422.685-2.597 1.234-2.609 1.221s.517-1.21 1.177-2.66l1.201-2.637 2.45-1.113c1.348-.613 2.462-1.105 2.477-1.093.015.011-.453 1.149-1.04 2.529"/>
</svg>
