<svg xmlns="http://www.w3.org/2000/svg" viewBox="0 0 42 42">
  <path fill="#a12577" fill-rule="evenodd" d="M14.14 6.154c-2.322.495-4.07 2.104-4.874 4.486l-.201.595v9.94c0 9.585.005 9.958.134 10.43.331 1.207.863 2.133 1.713 2.983s1.776 1.382 2.983 1.713c.463.127.781.134 5.81.134h5.32l.75-.191c2.025-.514 3.429-1.309 4.858-2.751 1.925-1.942 3.114-4.585 3.319-7.379.084-1.152.084-13.422-.001-14.288-.256-2.629-2.034-4.752-4.671-5.578l-.615-.192-6.965-.014c-6.49-.013-7.006-.006-7.56.112m5.892 3.453c-.028.69.058 1.019.358 1.36.431.491 1.177.655 1.72.378.654-.334.972-.993.902-1.868l-.036-.447h2.54c2.335 0 2.575.011 2.989.139a3.6 3.6 0 0 1 2.098 1.777c.405.802.404.789.406 7.305l.001 5.967-.408-.043c-.508-.053-1.659.077-2.337.263-1.951.536-3.677 2.164-4.47 4.215-.403 1.042-.749 2.752-.772 3.813l-.007.329-.078-.245c-.107-.338-.665-.88-1.001-.974-.425-.118-.672-.091-1.082.117-.547.277-.78.639-.83 1.294l-.04.508-2.24.019c-2.543.022-2.994-.022-3.712-.368-.893-.429-1.571-1.203-1.852-2.115-.138-.447-.141-.639-.141-9.786s.003-9.339.141-9.786c.257-.831.848-1.553 1.65-2.012.67-.384.879-.407 3.669-.413l2.555-.004zm.823 4.096a1.6 1.6 0 0 0-.59.495c-.202.291-.211.338-.233 1.172-.022.805-.011.895.153 1.253.206.449.641.772 1.142.847.572.086 1.253-.296 1.501-.842.193-.424.189-1.892-.006-2.274a1.63 1.63 0 0 0-1.38-.844c-.114 0-.378.087-.587.193m.04 5.96c-.667.308-.876.749-.873 1.842.001.923.096 1.206.539 1.605.699.63 1.839.402 2.252-.45.208-.43.216-1.881.013-2.275-.378-.736-1.221-1.051-1.931-.722m.273 5.899c-.364.079-.847.487-1.016.859-.185.408-.185 1.773.001 2.174.534 1.155 2.087 1.16 2.679.01.122-.238.136-.382.116-1.202-.022-.906-.029-.94-.234-1.231a1.54 1.54 0 0 0-1.546-.61m9.492 2.142c-.609 2.197-2.201 4.159-4.18 5.153a3 3 0 0 1-.403.183c-.062 0-.042-.657.038-1.233.212-1.52.747-2.859 1.413-3.535.682-.692 1.536-1.025 2.655-1.036l.608-.006z"/>
</svg>
