<svg xmlns="http://www.w3.org/2000/svg" xml:space="preserve" viewBox="0 0 32 32"><path fill="#A12577" fill-rule="evenodd" d="M11.8 5.234c-1.693.177-3.367.926-4.737 2.12-1.385 1.205-2.436 3.029-2.846 4.939-.499 2.323-.108 4.794 1.078 6.809 1.071 1.821 2.841 3.273 4.758 3.904.963.316 2.417.519 2.885.401.436-.11.818-.573.821-.995a1.171 1.171 0 0 0-.282-.696c-.215-.232-.461-.311-1.157-.375-.815-.074-1.429-.217-2.026-.473-2.083-.893-3.543-2.701-4.062-5.032-.164-.733-.178-2.223-.028-2.923.31-1.451.897-2.598 1.832-3.581 1.22-1.282 2.631-1.944 4.378-2.057.81-.052 1.149-.268 1.299-.831.085-.315.007-.604-.235-.88-.332-.378-.642-.439-1.678-.33m7.106.039c-.349.158-.665.606-.665.94 0 .17.133.482.276.645.258.293.425.352 1.136.401 3.14.219 5.653 2.617 6.194 5.914.1.609.07 2.067-.054 2.614-.333 1.461-.971 2.647-1.952 3.627-1.164 1.164-2.543 1.802-4.144 1.917-.731.053-.952.13-1.187.415-.422.512-.275 1.23.317 1.549.226.121.277.127.88.102 1.996-.084 3.925-.93 5.432-2.384 2.367-2.282 3.336-5.545 2.614-8.8-.656-2.954-2.754-5.422-5.512-6.481a9.228 9.228 0 0 0-2.092-.503c-.725-.078-.996-.068-1.243.044m-.373 3.524c-.606.104-1.061.679-.961 1.215.043.23.365.589.641.715.138.063.341.098.571.098.83.003 1.425.253 2.021.85.726.727 1.034 1.476 1.031 2.512-.001.737-.092 1.126-.409 1.759-.412.824-1.075 1.351-1.921 1.527a2.786 2.786 0 0 0-.513.151c-.326.17-.594.6-.592.948.003.414.341.839.758.951.374.101 1.087-.05 1.793-.38 1.64-.766 2.733-2.409 2.878-4.327.109-1.44-.225-2.805-.951-3.889-.329-.491-1.077-1.202-1.576-1.498-.841-.5-2.001-.764-2.77-.632m-6.815.164c-2.419.607-4.151 3.21-3.885 5.839.197 1.937 1.274 3.643 2.778 4.399.535.269 1.061.426 1.553.464.61.047.961-.106 1.164-.508.214-.422.186-.809-.082-1.128-.19-.225-.371-.308-.925-.427-.511-.109-.795-.232-1.178-.51-.285-.208-.672-.685-.865-1.067-.532-1.053-.437-2.724.215-3.756.516-.819 1.372-1.333 2.219-1.334.476 0 .722-.086.975-.339.216-.217.339-.499.339-.783.001-.23-.224-.599-.47-.77-.22-.153-.26-.162-.827-.173-.445-.008-.701.015-1.011.093m3.414 2.266a3.843 3.843 0 0 0-2.467 2.025 3.619 3.619 0 0 0 .44 3.788c.341.423.905.842 1.414 1.051l.412.169.015 3.897c.013 3.698.019 3.907.115 4.099.205.414.731.65 1.161.521.297-.089.653-.441.732-.724.04-.147.059-1.405.059-4.056v-3.842l.2-.07c.635-.22 1.454-.902 1.82-1.517a3.652 3.652 0 0 0 .052-3.653c-.22-.388-.892-1.06-1.282-1.281-.57-.322-1.014-.442-1.723-.465-.447-.014-.733.003-.948.058m1.535 2.053c.304.147.571.405.732.708.101.188.121.308.121.732s-.02.544-.121.732a1.62 1.62 0 0 1-1.893.794 1.455 1.455 0 0 1-.932-.773c-.153-.294-.174-.387-.174-.749 0-.355.023-.46.163-.74.289-.578.833-.885 1.498-.846.224.013.447.065.606.142"/></svg>
