<svg xmlns="http://www.w3.org/2000/svg" xml:space="preserve" viewBox="0 0 32 32"><path fill-rule="evenodd" d="M15.6 3.965c-.147.038-.324.1-.394.138-.245.133-.603.508-.739.775-.075.148-1.141 2.993-2.367 6.322-1.227 3.329-2.251 6.088-2.276 6.13-.025.042-.184.108-.354.147a2.733 2.733 0 0 0-1.337.732c-.234.236-.782 1.038-2.017 2.95-1.422 2.2-1.724 2.702-1.863 3.093-.583 1.636.344 3.516 1.874 3.801.395.074 19.351.074 19.746 0 .883-.165 1.666-.935 1.981-1.946.143-.46.157-1.33.029-1.793-.115-.417-3.577-5.581-4.042-6.028a2.857 2.857 0 0 0-1.254-.691 2.475 2.475 0 0 1-.338-.095c-.039-.018-1.085-2.805-2.325-6.193-1.239-3.388-2.307-6.265-2.373-6.392-.367-.717-1.226-1.135-1.951-.95m1.222 5.72c.432 1.161.778 2.119.769 2.129-.075.075-.672.256-1.073.325a3.01 3.01 0 0 1-1.505-.09c-.602-.186-.623.045.214-2.361.405-1.163.753-2.115.773-2.115.02 0 .39.95.822 2.112M14.8 14.646c.299.081.544.1 1.227.095.807-.005.893-.016 1.6-.205.41-.109.778-.203.818-.207.059-.007.45 1.002.722 1.865.033.102-.007.132-.352.275-1.592.657-3.218.815-4.605.446-.433-.115-1.117-.396-1.292-.531l-.123-.095.345-.904.399-1.048.055-.143.417.176c.228.096.584.22.789.276m5.695 5.268.468 1.266-.121.101c-.413.343-1.204.616-2.255.779-.916.143-3.927.146-4.814.005-1.107-.176-1.922-.476-2.355-.867-.382-.345-.381-.362.05-1.443.209-.525.397-.973.418-.994.021-.022.301.067.622.198 1.177.476 2.155.644 3.492.598 1.174-.04 2.123-.244 3.383-.728.295-.114.561-.201.59-.194.03.008.264.583.522 1.279M9.014 21.733c.134.426.329.728.734 1.138 1.274 1.29 3.68 1.9 7.105 1.804 2.803-.079 4.565-.557 5.61-1.522.436-.403.619-.659.803-1.12l.136-.341.802 1.221c1.653 2.515 1.503 2.26 1.389 2.374-.097.097-.377.1-9.614.1H6.465l-.034-.136c-.019-.075-.017-.165.003-.2.278-.474 2.446-3.605 2.474-3.574.022.024.069.139.106.256"/></svg>
