<svg xmlns="http://www.w3.org/2000/svg" viewBox="0 0 42 42"><path fill="#000" fill-rule="evenodd" d="M25.165 5.498c-.76.192-2.444.745-2.768.909-.469.237-.996.742-1.582 1.516-.286.378-.545.687-.574.687-.03 0-.123-.092-.206-.205-.083-.112-.354-.304-.601-.426-.832-.41-1.631-.348-2.372.183-.183.131-.356.238-.384.238-.028 0-1.051-.411-2.274-.913-2.442-1.004-2.979-1.157-3.799-1.082-.863.079-2.376.697-2.771 1.131-.552.606-.666 1.139-.518 2.431.057.505.135 1.044.173 1.198.037.154.068.477.069.718l.002.437h-.403c-.345 0-.457.036-.763.242-.754.508-1.238 1.358-1.359 2.388-.041.344-.087.693-.104.777-.019.092-.255.308-.608.556-.767.536-1.221 1.015-1.47 1.547l-.205.437.025 1.209c.022 1.118.038 1.242.208 1.649.399.952 1.035 1.754 1.699 2.143.385.226 2.309.74 2.775.741 1.031.003 1.941-.622 3.326-2.281l.647-.776.759-.151c1.302-.26 1.327-.252 2.516.807 1.61 1.434 1.566 1.384 1.484 1.685-.19.702-.75 1.754-1.666 3.132-1.847 2.779-1.921 3.041-1.364 4.879l.26.861.876.656.876.655.624-.03.624-.029 1.274-.653c.701-.359 2.179-1.073 3.284-1.585 1.106-.513 2.177-1.044 2.38-1.181l.368-.248.115.336c.208.612.354.811 1.35 1.825 1.392 1.419 2.501 2.249 4.039 3.023.912.459 1.483.634 2.208.677.827.048 1.008-.015 2.232-.783a23.232 23.232 0 0 1 1.773-1c.651-.316.892-.478 1.269-.852.418-.415.503-.549.84-1.336.206-.481.371-.938.365-1.015-.03-.417-.372-1.666-.556-2.03-.295-.581-.754-1.188-1.341-1.768-.464-.46-.497-.513-.498-.797-.002-.678-.303-1.54-.786-2.253-.151-.224-.265-.418-.252-.43.013-.012.292-.075.619-.139 1.641-.322 2.308-.69 3.239-1.788.763-.899.914-1.24.946-2.135l.025-.7-.32-.652c-.286-.584-.32-.703-.32-1.137a3.9 3.9 0 0 1 .083-.796c.134-.499-.064-1.448-.474-2.275-.608-1.226-1.562-1.977-2.827-2.226-.579-.114-.585-.118-.765-.432-.307-.534-.833-1.019-1.287-1.187-.335-.124-.559-.15-1.295-.15-.49-.001-1.01-.034-1.157-.075-.457-.127-.749-.499-1.051-1.341-.513-1.43-1.323-2.27-2.631-2.726-.528-.184-1.461-.226-2.001-.09m1.177 2.557c.5.139.769.469 1.065 1.307.318.9.571 1.318 1.12 1.854.789.77 1.688 1.101 2.992 1.103l.754.001.191.328c.245.422.689.914.94 1.044.109.056.52.168.914.248.803.163.986.24 1.252.526.389.42.422.567.414 1.869-.008 1.331.058 1.716.415 2.423.116.23.211.455.211.5 0 .164-.804.995-1.083 1.118-.155.069-1.384.351-2.732.627-1.557.32-2.499.545-2.583.617-.308.265-.532.727-.53 1.091.003.763.329 1.121 1.573 1.726.952.463 1.057.537 1.306.922.191.296.222.417.268 1.05.071.962.208 1.238.996 2.002.737.715 1.091 1.205 1.216 1.686.085.328.079.38-.071.721-.174.393-.362.536-1.071.815-.201.079-.824.431-1.385.782-1.186.743-1.108.735-2.142.234-1.178-.571-2.154-1.286-3.171-2.322l-.916-.934-.04-.679c-.029-.491-.08-.756-.186-.959-.411-.791-1.261-1.183-2.197-1.013-.536.097-.675.165-1.567.767-.468.315-1.304.751-2.52 1.315-2.333 1.081-3.208 1.501-3.627 1.741-.421.242-.527.19-.698-.343l-.126-.389.559-.864c2.342-3.62 2.813-4.619 2.833-6.009.008-.591-.012-.708-.179-1.05-.241-.492-.204-.454-1.772-1.856-1.489-1.331-1.839-1.581-2.571-1.831-.708-.242-1.349-.232-2.679.042-1.615.333-1.623.339-3.091 2.098-.302.361-.659.746-.794.854l-.245.197-.735-.182c-.404-.1-.794-.233-.866-.295-.071-.061-.221-.269-.331-.462-.182-.316-.202-.413-.202-.998l-.001-.647.438-.313c.896-.64 1.094-.815 1.334-1.178.325-.489.513-1.072.573-1.781l.05-.578h.418c.364 0 .468-.033.8-.253 1.193-.792 1.585-2.238 1.152-4.25a9.58 9.58 0 0 1-.111-.729l-.048-.437.34-.147c.261-.112.444-.14.794-.12.394.023.77.157 2.792.992 1.286.53 2.499.991 2.697 1.023.579.094 1.075-.031 1.565-.398l.229-.171.306.315c.511.526.799.64 1.616.64 1.104 0 1.395-.205 2.612-1.831.715-.954.595-.877 2.113-1.35.976-.304 1.044-.314 1.422-.209m-9.68 23.729c.153.304.278.57.278.591 0 .021-.073-.009-.162-.068-.205-.134-.437-.553-.499-.901-.071-.397.057-.271.383.378"/></svg>
