<svg xmlns="http://www.w3.org/2000/svg" viewBox="0 0 32 32"><path fill="#A22778" fill-rule="evenodd" d="M19.988 5.203c-.498.121-.838.325-1.255.755-.454.467-.849 1.083-1.024 1.597-.103.3-.168.399-.364.555l-.24.189-.502-.202a10.111 10.111 0 0 0-2.016-.56c-.817-.142-2.876-.129-3.707.024-4.592.844-8.095 4.492-8.776 9.137-.071.483-.084.85-.062 1.782.031 1.281.078 1.591.389 2.527.988 2.974 3.719 4.622 8.316 5.017.826.071 3.282.071 4.106 0 3.634-.313 6.185-1.472 7.531-3.42.403-.582 1.277-2.282 1.474-2.864.065-.195.136-.38.156-.413.021-.034.512-.385 1.092-.78l1.055-.72.508.026c.932.049 1.809-.265 2.403-.859.412-.412.695-.875.887-1.447.127-.38.143-.51.145-1.174.004-.992-.105-1.368-.662-2.29-.221-.365-.285-.533-.369-.957-.125-.638-.317-.973-.841-1.472-.828-.789-1.995-1.046-3.137-.691-.204.063-.378.094-.387.069-.044-.134-.23-.423-.453-.708-.208-.265-.273-.404-.366-.784-.276-1.12-1.267-2.117-2.328-2.342-.449-.095-1.17-.093-1.573.005m.978 3.284c.107.812.263 1.158.633 1.406.152.102.374.512.374.691 0 .098.095.143.627.299.227.067.387.143.387.184 0 .039-.047.179-.103.311-.085.198-.207.319-.678.674l-.575.432-.066-.326c-.076-.372-.139-.482-.567-.993l-.309-.369-.758-.126c-.417-.069-.79-.142-.829-.163-.048-.025.055-.128.32-.321.215-.157.469-.341.563-.411.246-.179.438-.538.498-.93.076-.499.091-.547.216-.707.154-.195.205-.129.267.349m-6.646 2.048a7.61 7.61 0 0 1 3.552 1.695c.379.324.941.927.896.962a5.79 5.79 0 0 1-.475.11c-1.094.228-2.331.746-3.295 1.38-1.714 1.127-3.236 2.854-3.776 4.284-.245.649-.132 1.247.324 1.702.778.778 1.986.51 2.487-.552a7.623 7.623 0 0 1 1.013-1.535c.9-1.023 2.225-1.927 3.354-2.288.359-.116.592-.151 1.12-.172.39-.016.75-.004.869.029.299.083 1.423-.099 1.685-.274.106-.07.853-.588 1.659-1.151l1.467-1.023.304-.598c.167-.328.305-.652.307-.719.003-.133.183-.518.266-.57.074-.045.159.142.198.436.03.228.553 1.385.657 1.456a.91.91 0 0 1 .136.213c.12.23.121.617.004.844l-.088.169-.919.002-.918.001-1.62 1.13-1.62 1.13-.303.456c-.197.296-.336.576-.397.801-.183.675-.685 1.547-1.376 2.39-.267.325-.373.501-.398.657-.03.184-.075.24-.334.416-.862.584-1.959.932-3.659 1.159-.982.132-4.075.133-5.046.003-1.444-.194-2.558-.511-3.332-.948-.615-.346-1.224-.965-1.503-1.528-.341-.686-.412-1.088-.412-2.309 0-.8.022-1.144.096-1.493.725-3.404 3.41-5.923 6.762-6.344.529-.067 1.722-.026 2.315.079"/></svg>
