<svg width="32" height="32" xmlns="http://www.w3.org/2000/svg"><path d="M10.258 5.499c-1.354.038-1.62.087-2.376.44-1.437.672-2.323 1.688-2.853 3.272l-.202.604.027 4.236c.027 4.145.03 4.245.147 4.649.627 2.162 2.469 3.651 4.679 3.784l.633.039.041.543c.1 1.303.506 2.266 1.389 3.297.65.758 1.565 1.355 2.625 1.711.329.111.609.155 1.237.196 1.104.072 6.215.069 7-.004 1.353-.125 2.558-.726 3.553-1.772a5.253 5.253 0 0 0 1.147-1.768c.401-.996.386-.809.386-4.843 0-4.046 0-4.047-.387-5.051-.734-1.899-2.504-3.31-4.47-3.562-.29-.037-.546-.1-.59-.144-.053-.053-.079-.202-.079-.456 0-2.051-1.089-3.817-2.882-4.673-.843-.402-1.097-.449-2.701-.499-1.604-.05-4.501-.049-6.324.001m7.597 2.109c.483.135.961.425 1.373.833.62.615.847 1.213.847 2.231v.477l-2.296.033c-2.829.041-3.242.093-4.18.533-1.233.578-2.201 1.511-2.766 2.668-.525 1.074-.601 1.617-.602 4.307l-.001 1.887-.261-.038c-.499-.073-1.088-.245-1.444-.423-.494-.247-1.015-.778-1.281-1.306-.189-.376-.213-.474-.266-1.095-.036-.427-.049-2.019-.034-4.262.026-4.01.014-3.883.425-4.515a3.263 3.263 0 0 1 1.317-1.145l.463-.23 1.379-.035c.759-.018 2.654-.026 4.212-.016 2.252.013 2.89.033 3.115.096m2.935 6.733c.001 1.434.048 1.772.329 2.351a3.272 3.272 0 0 0 1.835 1.62c.404.135 1.843.212 2.36.127l.316-.052-.004 1.6c-.003.88-.023 2.058-.044 2.618l-.04 1.017-.231.468c-.446.899-1.073 1.496-1.959 1.865-.587.244-1.167.277-4.855.279l-3.09.001-.402-.143c-.666-.237-1.082-.498-1.563-.982a3.528 3.528 0 0 1-.938-1.57c-.11-.378-.159-3.756-.089-6.16l.045-1.567.256-.523c.485-.986 1.13-1.573 2.131-1.94.391-.143 1.176-.183 3.894-.195l2.049-.01v1.196m2.832-.757c.987.484 1.639 1.272 1.902 2.298.15.588.144.677-.045.643a20.258 20.258 0 0 0-1.016-.077c-.993-.059-1.184-.121-1.409-.461-.146-.221-.147-.224-.164-1.456l-.018-1.235.155.036c.086.02.354.133.595.252" fill="#1B1A1A" fill-rule="evenodd"/></svg>
