<svg xmlns="http://www.w3.org/2000/svg" viewBox="0 0 42 42"><path fill="#A22778" fill-rule="evenodd" d="M16.87 2.634a28.996 28.996 0 0 0-4.445.699c-1.045.258-1.536.428-2.317.801-1.114.531-1.814 1.274-2.169 2.299-.174.502-1.46 9.494-1.678 11.732-.246 2.525-.008 3.513 1.034 4.294.571.428.928.525 1.91.522.72-.002.955-.034 1.645-.223 2.66-.729 5.857-1.159 8.61-1.161 1.767-.001 2.379.066 3.308.358l.543.171-.039.26c-.021.142-.097.726-.169 1.297-.071.57-.141 1.047-.154 1.059-.013.011-.713.057-1.555.101-4.559.238-8.252 1.24-10.677 2.896-.698.478-1.655 1.447-1.986 2.014-.813 1.39-.853 3.055-.106 4.407.637 1.154 1.798 2.163 3.433 2.984 1.95.979 4.341 1.626 7.402 2.001 1.001.123 5.719.123 6.72 0 4.283-.525 7.459-1.642 9.477-3.332.555-.466 1.153-1.225 1.466-1.863l.292-.595.023-1.126c.023-1.101.019-1.138-.178-1.646-1.043-2.686-5.103-4.824-10.434-5.495-.203-.026-.381-.066-.395-.09-.014-.024.437-4.091 1.002-9.038.761-6.657 1.014-9.068.971-9.275-.099-.481-.483-1.173-.861-1.551-.599-.599-1.521-.986-3.533-1.482-2.914-.719-5.719-1.119-7.14-1.018m2.675 3.594c2.063.265 3.948.671 5.06 1.089.27.102.499.194.51.205.02.02-.539 3.415-.567 3.443-.008.009-.597-.077-1.309-.19-2.894-.459-5.044-.695-6.326-.694-1.039 0-2.14.124-4.406.496-.956.157-1.75.274-1.763.26-.014-.014.081-.765.211-1.669.269-1.869.244-1.816.994-2.098.763-.288 3.118-.759 4.501-.9a13.022 13.022 0 0 1 3.095.058m-.61 7.535c.949.093 4.356.53 4.918.632.125.022.227.076.227.12.001.153-.435 4-.456 4.023-.011.012-.378-.058-.815-.155-1.255-.28-2.173-.346-4.214-.303-1.811.037-2.863.13-4.63.409-1.422.225-3.192.601-3.537.752-.172.076-.432.16-.577.186l-.263.049.042-.515c.024-.284.117-.988.208-1.566.091-.577.22-1.424.288-1.882.146-.992.011-.89 1.672-1.261 2.865-.64 4.474-.75 7.137-.489m3.532 14.92c-.002.221-.03.824-.064 1.34-.088 1.376.086 1.804.918 2.247.828.441 1.66.23 2.233-.568.1-.139.174-.529.309-1.627a75.6 75.6 0 0 0 .177-1.517c0-.14 2.165.228 3.395.577 2.756.781 4.781 2.165 4.527 3.094-.087.317-.476.781-.963 1.146-1.394 1.046-3.992 1.901-6.994 2.302-1.333.179-5.208.178-6.58 0-3.418-.445-6.14-1.425-7.426-2.674-.549-.534-.675-.869-.484-1.292.151-.336.701-.871 1.264-1.231 1.957-1.252 5.553-2.136 8.904-2.188l.787-.012-.003.403"/></svg>
