<svg xmlns="http://www.w3.org/2000/svg" xml:space="preserve" viewBox="0 0 32 32"><path fill="#A12577" fill-rule="evenodd" d="M15.44 4.032c-1.048.106-1.974.358-2.827.769-2.361 1.14-4.002 3.36-4.459 6.031-.144.843-.119 2.173.056 2.99.203.949.662 2.085 1.153 2.853l.176.274-.099.206c-.054.113-.837 1.825-1.74 3.805-1.615 3.54-1.643 3.606-1.645 3.951-.001.299.022.389.16.612.099.161.26.322.42.421.428.264.731.252 2.205-.091 1.122-.262 1.246-.281 1.312-.204.04.046.353.498.697 1.004.782 1.153 1.033 1.347 1.736 1.347.247 0 .348-.029.541-.158.131-.086.289-.248.352-.36.062-.111.445-1.078.85-2.149.695-1.837.736-1.967.734-2.32a1.529 1.529 0 0 0-.459-1.13c-.198-.202-.497-.383-.545-.33-.011.011-.387.998-.836 2.194-.449 1.195-.831 2.173-.85 2.173-.018 0-.293-.362-.611-.804-.965-1.342-1.107-1.393-2.775-1.003-.516.12-.95.208-.963.194-.014-.014.592-1.37 1.346-3.013l1.372-2.988.35.281a8.057 8.057 0 0 0 3.469 1.63c.736.155 2.032.17 2.747.032 1.354-.262 2.661-.866 3.637-1.68.182-.151.353-.276.378-.276.049 0 2.749 5.494 2.716 5.526-.009.01-.386-.053-.836-.14-1.005-.195-1.324-.201-1.682-.033-.345.162-.378.201-1.04 1.247-.309.486-.579.886-.602.888-.023.003-.397-.762-.831-1.701l-.986-2.13-.196-.422-.181.174c-.42.408-.685 1.235-.579 1.807.059.315 1.503 3.591 1.748 3.965.366.558 1.334.552 1.884-.013.097-.099.49-.667.873-1.261.382-.594.712-1.08.732-1.08.02 0 .514.072 1.098.16.584.088 1.17.159 1.304.159.463-.002 1.009-.344 1.153-.722.191-.499.199-.478-1.674-4.294-.944-1.923-1.716-3.525-1.716-3.559 0-.034.071-.179.159-.321.25-.406.619-1.217.794-1.743a8.306 8.306 0 0 0-.229-5.821c-.438-1.03-.967-1.808-1.794-2.636a7.82 7.82 0 0 0-5.25-2.31 7.585 7.585 0 0 0-.747-.001m2.074 1.854c1.083.283 2.169.933 2.972 1.778 1.136 1.194 1.722 2.587 1.791 4.26.081 1.948-.631 3.697-2.045 5.03-1.874 1.765-4.558 2.208-6.832 1.126a6.357 6.357 0 0 1-2.597-2.232c-.765-1.149-1.106-2.29-1.104-3.699.001-1.026.222-2.018.633-2.842.924-1.854 2.622-3.159 4.575-3.519.675-.124 1.937-.077 2.607.098M13.258 8.6c-.325.086-.646.44-.727.803-.066.293-.062.311.296 1.555l.362 1.258-.36 1.233c-.288.985-.354 1.274-.326 1.444.073.457.341.793.737.925.337.112.429.095 1.694-.297.57-.177 1.081-.321 1.137-.321.056 0 .609.158 1.229.352.901.281 1.176.347 1.374.328.577-.054.947-.432.988-1.007.023-.313-.006-.431-.374-1.524l-.398-1.183.34-1.137c.187-.624.341-1.234.342-1.354.004-.595-.382-1.042-.966-1.12-.186-.024-.413.025-1.139.248-.499.153-1.039.314-1.2.358l-.294.08-1.109-.354c-1.137-.363-1.247-.382-1.606-.287m1.931 2.093.838.239.795-.239c.438-.132.812-.24.832-.24.02 0-.072.384-.204.854l-.24.853.24.853c.132.47.218.854.191.854-.027 0-.384-.096-.794-.214-.41-.117-.791-.213-.846-.213-.054 0-.452.109-.883.243-.43.134-.791.235-.802.224-.01-.01.089-.409.22-.885l.238-.867-.216-.757-.244-.851c-.016-.052-.013-.094.004-.094.018 0 .41.108.871.24"/></svg>
