<svg xmlns="http://www.w3.org/2000/svg" viewBox="0 0 16 20">
    <path fill="#A12577" fill-rule="evenodd" d="M7.307.898c-.298.023-.926.126-1.267.208-1.516.367-2.748 1.137-3.693 2.309C1.439 4.542.808 6.093.627 7.642c-.034.292-.04.926-.04 4.178v3.833l.1-.001c.055 0 .172-.017.26-.036.624-.139 1.081-.567 1.27-1.19l.061-.199.016-3.2c.016-3.133.018-3.207.074-3.501.273-1.422.82-2.56 1.635-3.395.778-.797 1.742-1.269 3.024-1.482.367-.061 1.751-.071 2.12-.015 1.101.168 1.894.465 2.645.993.28.197.752.64.986.926.631.771 1.119 1.875 1.287 2.914.036.221.041.852.042 4.966 0 3.011-.01 4.714-.026 4.714-.077 0-.303-.101-.458-.203-.377-.25-.565-.603-.596-1.121a2.448 2.448 0 0 0-.038-.346c-.118-.409-.494-.746-.952-.852-.151-.035-.306-.041-.877-.032-.616.01-.715.018-.889.07a2.188 2.188 0 0 0-1.576 1.969c-.026.302-.072.401-.223.479-.072.037-.151.04-.578.025a32.28 32.28 0 0 1-.711-.033l-.217-.017-.013-.509c-.009-.385-.023-.546-.059-.656a1.968 1.968 0 0 0-.996-1.189c-.357-.175-.396-.181-1.252-.192-.511-.007-.828-.001-.918.019-.426.091-.806.437-.955.868a2.323 2.323 0 0 0-.081.445c-.046.521-.23.851-.607 1.091-.146.092-.423.184-.558.184h-.094l.014.153c.041.436.332.811.753.972.13.05.212.061.442.061.278 0 .285-.001.51-.112.192-.096.265-.152.464-.362.396-.416.617-.861.769-1.546l.016-.073h.387c.533 0 .507-.03.525.602.017.572.041.694.199 1.025.225.471.681.833 1.19.946.168.038.335.043 1.114.034.874-.009.926-.012 1.104-.071.594-.197 1.063-.599 1.318-1.131.129-.267.186-.483.213-.805.024-.29.085-.413.244-.494.085-.044.157-.053.421-.053h.318l.018.127c.052.367.246.853.483 1.209.15.226.474.558.706.723.353.251.86.46 1.279.527.095.015.426.027.736.027l.562.001.163-.082a.785.785 0 0 0 .384-.389c.048-.11.05-.28.049-5.477-.001-4.673-.007-5.401-.042-5.661a7.958 7.958 0 0 0-.826-2.547 7.088 7.088 0 0 0-1.306-1.779C12.459 1.789 10.98 1.116 9.127.92a17.435 17.435 0 0 0-1.82-.022m.306 4.075a4.04 4.04 0 0 0-1.615.691c-.612.462-1.117 1.184-1.327 1.896a3.959 3.959 0 0 0-.09 1.787c.296 1.495 1.319 2.576 2.805 2.966.35.092 1.016.115 1.418.048a4.6 4.6 0 0 0 1.081-.343c1.042-.525 1.777-1.518 1.998-2.698a4.434 4.434 0 0 0-.012-1.418 3.61 3.61 0 0 0-.971-1.837 3.732 3.732 0 0 0-1.86-1.056c-.303-.071-1.115-.091-1.427-.036M8.787 6.72c.535.167.969.537 1.225 1.045.165.326.212.561.194.965-.025.57-.218.976-.658 1.383-.602.558-1.471.673-2.24.296a1.439 1.439 0 0 1-.48-.353 1.79 1.79 0 0 1-.491-.769c-.079-.223-.083-.252-.083-.647s.004-.424.083-.647c.108-.303.223-.493.436-.722a1.937 1.937 0 0 1 1.04-.591c.249-.056.73-.037.974.04"/>
</svg>
