<svg width="32" height="32" xmlns="http://www.w3.org/2000/svg"><path d="M14.636 4.078c-3.476.363-6.155 2.314-7.579 5.52-.376.847-.681 1.867-.878 2.943-.086.467-.098 1.071-.115 5.823l-.019 5.302.316-.033c.668-.069 1.328-.527 1.64-1.138.274-.536.267-.428.305-5.088.033-4.259.038-4.416.155-4.922.692-3.016 2.31-4.991 4.746-5.797 2.032-.673 4.735-.499 6.566.42.857.431 1.795 1.222 2.366 1.994a8.714 8.714 0 0 1 1.562 3.843c.039.286.059 2.462.059 6.556v6.129l-.124-.001c-.182 0-.655-.29-.864-.528-.272-.309-.399-.648-.45-1.198-.055-.596-.183-.882-.537-1.201-.432-.387-.699-.455-1.793-.454-.81.001-.986.017-1.326.123a2.785 2.785 0 0 0-1.587 1.251c-.244.407-.352.752-.411 1.31-.035.332-.073.46-.171.564-.12.127-.159.134-.769.134-.353 0-.794-.016-.98-.035l-.338-.036-.001-.501c-.002-.991-.259-1.674-.83-2.203-.626-.579-1.107-.708-2.525-.681-.916.019-.974.026-1.236.165-.576.306-.929.861-.993 1.559a3.78 3.78 0 0 1-.116.644c-.163.52-.854 1.086-1.325 1.087-.166.001-.179.014-.179.184 0 .535.443 1.144.96 1.32.396.135.877.119 1.219-.04.689-.321 1.35-1.291 1.578-2.316l.074-.329.5-.016c.458-.015.511-.005.615.106.102.11.114.191.114.774 0 .966.184 1.445.764 1.986.584.544 1.106.668 2.645.628 1.09-.029 1.373-.088 1.899-.396.359-.21.818-.706 1.032-1.114.224-.428.29-.66.343-1.194.031-.317.064-.407.193-.537.146-.146.183-.155.623-.155h.468l.064.316c.24 1.181 1.037 2.217 2.1 2.731.692.334 1.205.432 2.149.409.708-.018.746-.025.964-.176.13-.09.276-.257.34-.391.113-.233.113-.264.098-7.543l-.014-7.308-.129-.605c-.858-4.049-3.651-6.932-7.458-7.7a12.964 12.964 0 0 0-3.71-.185m.635 5.381c-2.381.431-4.053 2.429-4.055 4.846-.001 1.403.449 2.564 1.369 3.526a4.645 4.645 0 0 0 1.78 1.188c.694.27 1.276.366 1.948.319 2.148-.148 3.849-1.577 4.432-3.722.177-.65.175-1.901-.003-2.553-.461-1.692-1.817-3.066-3.457-3.5-.48-.127-1.573-.184-2.014-.104m1.606 2.371c1.051.36 1.768 1.385 1.768 2.527 0 1.177-.844 2.25-2.01 2.554-.432.112-.747.106-1.263-.026-1.281-.328-2.066-1.54-1.892-2.924.204-1.629 1.851-2.661 3.397-2.131" fill="#A12577" fill-rule="evenodd"/></svg>
