<svg xmlns="http://www.w3.org/2000/svg" xml:space="preserve" viewBox="0 0 32 32"><path fill-rule="evenodd" d="M17.859 5.093c-.9.171-1.425.502-1.708 1.078-.15.304-.178.42-.181.749-.002.213-.028.413-.058.443-.03.03-.244.1-.477.155-1.571.377-3.225 1.282-4.444 2.432-.209.197-.389.349-.399.338a14.725 14.725 0 0 1-.315-.613c-.163-.325-.358-.665-.434-.755-.316-.375-.962-.501-1.434-.279-.378.178-.587.452-1.2 1.572l-.583 1.067-.82.435c-1.47.78-1.598.865-1.751 1.164-.258.505-.129 1.184.3 1.582.083.077.601.386 1.151.686l1 .545.513.941c.283.517.574 1.034.647 1.149.091.142.149.335.182.613.133 1.085.452 2.151.952 3.178.543 1.114 1.114 1.887 2.096 2.834.771.745 1.42 1.204 2.387 1.691 2.416 1.217 5.054 1.419 7.649.586 3.642-1.17 6.307-4.379 6.769-8.151.377-3.076-.102-5.216-1.625-7.253-.346-.462-1.13-1.267-1.565-1.607l-.209-.163.07-.484c.093-.65.054-1.256-.098-1.533-.209-.379-.561-.821-.831-1.043-.739-.609-1.856-1.076-3.129-1.307-.656-.119-1.953-.146-2.455-.05m2.274 1.973c.818.172 2.222.791 2.13.939-.047.077-1.229.056-1.763-.031-.723-.117-1.819-.522-2.2-.812-.168-.128-.175-.145-.082-.185.162-.069 1.447-.01 1.915.089m-1.91 2.207a7.962 7.962 0 0 0 3.444.692c.344-.01.626-.006.625.008a321.66 321.66 0 0 1-.605 2.432c-.374 1.489-.652 2.495-.732 2.64-.262.479-1.058.848-1.825.848-.768 0-1.554-.334-2.121-.902-.383-.383-.529-.689-.529-1.11 0-.179.974-4.45 1.096-4.807.014-.039.055-.059.091-.044.037.015.287.125.556.243m-2.831.314c-.11.367-.839 3.694-.863 3.942-.044.452.095 1.073.361 1.614.187.38.314.547.761.993.305.306.685.626.882.743l.361.215c.008.005-.076.349-.187.764l-.2.755-.374.001c-2.016.005-3.32 1.533-2.724 3.192.372 1.034 1.269 1.729 2.564 1.985 1.37.27 2.559-.03 3.391-.856.491-.488.663-.854.663-1.415 0-.936-.572-1.769-1.723-2.51-.008-.006.075-.349.185-.763l.201-.754h.381c.512 0 1.242-.132 1.668-.303 1.047-.418 1.863-1.215 2.162-2.111.047-.139.263-1.036.482-1.992.218-.956.408-1.749.421-1.762.039-.039.609.668.951 1.182.554.83.977 1.824 1.192 2.8.118.532.166 2.118.083 2.749a8.609 8.609 0 0 1-1.104 3.212c-1.977 3.292-5.877 4.724-9.547 3.505-1.716-.57-3.289-1.802-4.296-3.365-.636-.988-1.241-2.853-1.148-3.542.017-.127.252-.618.593-1.242l.565-1.032.974-.529c.563-.307 1.08-.628 1.227-.764.469-.433.521-1.049.138-1.628-.159-.24-.282-.327-1.155-.815l-.282-.158.381-.36c.749-.707 1.619-1.284 2.465-1.636.566-.236.589-.241.551-.115m-6.085 2.35.373.676.771.394.772.394-.67.336c-.776.389-.934.545-1.358 1.342-.144.272-.276.494-.293.494-.018 0-.178-.27-.357-.6-.179-.33-.405-.675-.502-.768-.097-.092-.464-.311-.815-.486l-.64-.319.644-.323c.354-.177.715-.383.803-.457.088-.074.314-.421.503-.772.188-.351.354-.627.369-.613.014.014.194.33.4.702m7.712 8.867c.703.173 1.168.51 1.168.845 0 .311-.329.423-1.275.435-.569.007-.616-.001-.934-.158-.304-.149-.831-.619-.831-.74 0-.026.071-.114.157-.197.311-.298.971-.369 1.715-.185"/></svg>
