<svg xmlns="http://www.w3.org/2000/svg" viewBox="0 0 32 32" xml:space="preserve"><path d="M12.326 4.028c-1.588.348-2.868 1.332-3.585 2.757-.258.512-.467 1.224-.51 1.733l-.033.389H4v8.16h4.208l.017 3.4.017 3.4.146.468c.654 2.102 2.34 3.498 4.492 3.72.404.042 1.69.053 4.133.036 3.815-.027 3.875-.031 4.902-.327 2.985-.859 5.249-3.477 5.936-6.866l.122-.605V8.187l-.149-.478c-.57-1.82-1.89-3.103-3.744-3.641-.294-.086-.771-.094-5.867-.104-4.584-.008-5.605.003-5.887.064m11.381 2.413c.902.34 1.603 1.109 1.81 1.986.07.297.082 1.024.082 5.14l.001 4.794-.285-.033c-.349-.041-1.253.04-1.703.153a5.146 5.146 0 0 0-2.762 1.773c-.969 1.2-1.444 2.659-1.572 4.826l-.037.627-3.074-.001c-3.36-.001-3.442-.007-4.05-.314-.629-.318-1.192-.98-1.397-1.643-.102-.331-.107-.493-.107-3.541v-3.195h14.614V8.907H10.563l.028-.174c.161-.976.641-1.686 1.414-2.092.67-.352.487-.342 6.208-.331l5.174.011.32.12m-7.655 4.243c.395.166.642.382.775.677.102.226.085.361-.078.626-.099.159-.13.173-.383.173-.27 0-.281-.007-.637-.37-.413-.422-.584-.485-1.05-.387-.519.108-.736.387-.564.721.097.186.419.335 1.219.564.946.27 1.277.414 1.486.645.538.596.325 1.771-.385 2.128-.58.291-1.911.352-2.53.115-.808-.31-1.292-1.033-1.03-1.539.108-.209.232-.277.505-.277.196 0 .238.029.523.352.414.469.626.577 1.137.58.473.002.797-.129.874-.352.04-.115.022-.173-.105-.332-.178-.222-.454-.353-1.089-.515-1.045-.266-1.49-.526-1.736-1.013-.245-.486-.028-1.165.5-1.564.459-.347.719-.414 1.529-.394.613.015.734.034 1.039.162m-5.423.092c.549.183.778.327 1.052.659.241.292.287.448.212.727-.062.229-.202.351-.468.404-.158.031-.204-.001-.698-.48l-.53-.513H9.72c-.577 0-.761.096-.986.514-.361.671-.393 1.368-.093 2.036.227.503.447.65.969.65.598 0 .835-.135 1.199-.684.231-.347.463-.505.682-.464a.562.562 0 0 1 .435.439c.043.23-.223.793-.51 1.08-.368.368-1.016.589-1.723.589-1.12 0-1.899-.46-2.32-1.371-.127-.276-.145-.385-.163-1.029-.027-.95.096-1.459.458-1.893.212-.253.735-.651.951-.722.594-.196 1.312-.175 2.01.058m8.147-.075c.053.054.266.579.472 1.166.206.586.48 1.352.609 1.702l.234.636.088-.236c.049-.13.327-.881.618-1.671.594-1.612.655-1.711 1.04-1.711.428 0 .654.376.507.845-.116.373-1.271 3.294-1.44 3.643-.35.723-.857.859-1.289.346-.115-.136-1.103-2.54-1.516-3.688-.079-.22-.185-.448-.235-.506-.114-.134-.087-.215.156-.471.178-.189.211-.203.426-.18.128.014.276.07.33.125m6.579 10.139a8.3 8.3 0 0 1-.503 1.377c-.612 1.28-1.548 2.246-2.892 2.982l-.36.197v-.233c0-.8.282-2.06.613-2.743.569-1.171 1.43-1.679 2.921-1.72.252-.007.254-.005.221.14" fill="#A12577" fill-rule="evenodd"/></svg>