<svg xmlns="http://www.w3.org/2000/svg" viewBox="0 0 32 32" xml:space="preserve"><path d="M13.307 3.845c-.347.041-.648.181-4.257 1.98L5.168 7.76l-.295.347a4.55 4.55 0 0 0-.881 1.546c-.161.473-.173.555-.173 1.227-.001.853.073 1.181.428 1.904.163.332.35.609.577.854.294.318.445.422 1.222.842l.887.48.001 4.24c0 3.468.014 4.335.079 4.763.297 1.974 1.498 3.549 3.147 4.127l.427.15 4.906.015c5.299.017 5.348.014 6.027-.268.711-.296 1.468-.935 1.954-1.651.469-.69.859-1.76.93-2.549a4.26 4.26 0 0 1 .05-.408c.012-.04.358.038 1.022.232 1.168.341 1.503.373 1.9.181.476-.231.784-.745.784-1.308 0-.169-.133-.754-.351-1.551-.194-.704-.352-1.328-.351-1.386 0-.059.173-.683.384-1.387.411-1.373.464-1.742.306-2.111a1.534 1.534 0 0 0-.708-.724c-.451-.21-.708-.178-2.224.274l-1.337.399-.739-.199c-.407-.109-.739-.211-.739-.226.001-.014.675-.374 1.498-.8 1.362-.703 1.522-.8 1.772-1.075a4.377 4.377 0 0 0 .994-1.938c.107-.481.085-1.357-.046-1.867a4.493 4.493 0 0 0-.847-1.645l-.306-.365-3.874-1.96-3.874-1.96-.579-.035-1.352-.086c-.928-.059-1.969-.058-2.48.003m2.947 2.179.813.048 3.576 1.804c3.436 1.733 3.582 1.813 3.731 2.036.329.494.359 1.381.067 1.955-.089.176-.207.359-.262.407-.054.048-1.725.955-3.712 2.017l-3.612 1.931-.494.047a11.52 11.52 0 0 1-2.068-.001l-.506-.05-3.701-1.996c-3.412-1.841-3.713-2.015-3.85-2.22-.243-.361-.329-.696-.308-1.197.016-.379.045-.495.205-.81l.187-.368 3.573-1.796c1.966-.988 3.646-1.806 3.734-1.818.304-.043 1.816-.036 2.627.011m-5.47 10.917c.918.488 1.729.929 1.803.979.438.299 1.23.393 3.026.359 1.62-.032 1.832-.072 2.574-.488.937-.525 1.349-.729 1.389-.687.022.024.201.58.398 1.237l.359 1.194-.106.379c-.059.209-.244.847-.412 1.419-.253.867-.3 1.087-.277 1.319.053.539.44 1.038.944 1.215.322.114.482.102 1.184-.089.344-.094.64-.157.656-.14.057.057-.142.707-.338 1.107-.231.472-.714.99-1.09 1.17a2.567 2.567 0 0 1-.621.171c-.219.031-2.187.045-4.841.036l-4.472-.015-.304-.123c-.785-.317-1.429-1.306-1.585-2.434-.074-.529-.08-7.497-.007-7.497.028 0 .802.4 1.72.888m12.121.925c.439.118.871.214.96.213.089 0 .545-.106 1.014-.236.47-.129.858-.231.863-.225.006.005-.088.358-.209.783-.291 1.022-.29 1.3.005 2.318.119.41.211.75.205.756-.007.006-.39-.107-.853-.252-.462-.145-.931-.263-1.041-.263-.11 0-.577.105-1.038.233-.51.142-.837.209-.837.173.001-.033.097-.407.214-.832.116-.426.212-.882.212-1.014s-.096-.588-.212-1.014c-.235-.851-.245-.914-.148-.879.037.014.426.121.865.239" fill="#A12577" fill-rule="evenodd"/></svg>