<svg width="32" height="32" xmlns="http://www.w3.org/2000/svg"><path d="M8.379 4.701a5.108 5.108 0 0 0-2.76 1.466c-.63.636-1.072 1.433-1.307 2.358-.1.396-.104.722-.104 8.14v7.728l.124.428c.526 1.814 1.886 3.145 3.704 3.623.454.12.533.122 4.834.143 4.704.022 5.522-.006 6.614-.233 1.622-.336 3.254-1.097 4.524-2.109 2.007-1.6 3.344-3.767 3.915-6.348l.15-.674.018-5.473c.021-6.175.038-5.884-.401-6.755a4.417 4.417 0 0 0-2.693-2.246c-.31-.093-.804-.099-8.277-.109-6.348-.009-8.027.003-8.341.061M24.774 6.93c.368.187.803.594.977.916.27.498.273.574.248 5.931-.019 4.206-.036 5.076-.107 5.446-.467 2.427-1.806 4.471-3.782 5.774-1.159.763-2.26 1.179-3.645 1.376-.85.121-9.477.118-9.991-.003-1.075-.253-2.007-1.3-2.152-2.417-.038-.291-.052-2.872-.041-7.618l.017-7.177.124-.366c.301-.888 1.059-1.643 1.927-1.921.299-.096.692-.1 8.233-.09l7.921.012.271.137m-6.376 1.593c-1.145.135-2.136.981-2.484 2.12-.089.29-.101.537-.101 2.062 0 1.526.012 1.772.101 2.063.321 1.048 1.221 1.902 2.225 2.111.458.096 2.929.078 3.361-.024a2.864 2.864 0 0 0 1.354-.771c.378-.372.571-.669.751-1.156.112-.302.122-.443.142-1.966.014-1.087 0-1.767-.042-2.018-.175-1.036-1.015-1.993-2.031-2.315-.313-.099-.53-.117-1.627-.133-.695-.01-1.438.002-1.649.027m-8.593.193c-1.086.243-2.077 1.237-2.27 2.278-.084.45-.067 1.737.028 2.138.236 1 1.041 1.862 2.032 2.174.359.113.493.122 1.845.122 1.259 0 1.502-.014 1.785-.102.55-.169.864-.363 1.3-.8.452-.452.703-.893.814-1.425.094-.449.078-1.828-.026-2.231-.242-.939-.999-1.746-1.948-2.078-.331-.116-.462-.126-1.787-.139-1.067-.01-1.518.006-1.773.063m11.351 1.989c.105.05.251.18.325.288.134.197.134.198.134 1.7 0 1.646-.006 1.684-.332 1.958l-.171.144h-1.308c-1.268 0-1.313-.004-1.495-.125-.361-.241-.379-.335-.379-1.971 0-1.43.003-1.467.125-1.648a1.39 1.39 0 0 1 .311-.311c.179-.121.228-.125 1.393-.125 1.005 0 1.239.015 1.397.09m-8.285.199c.358.244.409.369.428 1.048.016.556.006.639-.109.86-.244.467-.257.471-1.74.471-1.276 0-1.306-.003-1.482-.129-.315-.224-.37-.395-.37-1.146-.001-.744.04-.851.411-1.104.176-.12.227-.124 1.431-.124s1.255.004 1.431.124m-3.156 5.298c-1.025.248-1.966 1.218-2.179 2.248-.042.2-.057.888-.045 2.049.017 1.642.025 1.768.139 2.07.235.626.77 1.27 1.321 1.59.534.311.878.379 2.076.41.621.016 1.352.003 1.677-.03.499-.051.638-.089 1.031-.284.782-.387 1.371-1.096 1.581-1.9.118-.453.121-3.593.004-4.033-.135-.508-.36-.889-.768-1.303-.433-.439-.869-.691-1.42-.821-.475-.112-2.949-.109-3.417.004m8.325 1.596c-.972.258-1.804 1.06-2.104 2.027-.102.33-.119.519-.119 1.268 0 .748.017.937.119 1.267a3.074 3.074 0 0 0 2.139 2.032c.388.101 2.868.118 3.331.023 1.072-.221 2.042-1.198 2.273-2.291.044-.204.079-.668.079-1.031 0-1.016-.157-1.586-.604-2.182-.424-.567-1.094-1.004-1.748-1.14-.449-.094-2.988-.074-3.366.027m-5.105.598c.354.241.383.401.364 2.048-.018 1.601-.016 1.592-.428 1.872-.176.119-.227.124-1.414.124-1.374 0-1.435-.013-1.705-.367l-.154-.202-.019-1.269c-.024-1.683-.007-1.808.292-2.107l.235-.235h1.314c1.308 0 1.316.001 1.515.136m8.313 1.586c.32.243.367.387.367 1.111 0 .723-.047.867-.367 1.11l-.202.155h-1.242c-1.38 0-1.468-.019-1.718-.371-.111-.154-.131-.259-.147-.748-.024-.705.007-.874.198-1.1.256-.304.447-.34 1.75-.325l1.159.014.202.154" fill-rule="evenodd" fill="#000"/></svg>
