<svg xmlns="http://www.w3.org/2000/svg" viewBox="0 0 8 22">
    <path fill-rule="evenodd" d="M3.927.753c-.145.037-.27.093-.391.172-.198.129-.207.141-.816 1.054-.313.47-.604.902-.646.96-.1.14-.174.295-.216.456-.029.112-.035.16-.035.318 0 .159.006.207.035.32.044.168.128.339.242.494.049.066.296.413.55.77.39.551.478.667.571.754.236.221.531.343.867.358.195.01.34-.009.497-.065a1.21 1.21 0 0 0 .326-.162c.091-.06.181-.153.707-.728.331-.363.641-.701.689-.751.112-.12.156-.183.216-.311a1.3 1.3 0 0 0 .055-.93 1.776 1.776 0 0 0-.177-.375c-.02-.03-.267-.452-.549-.938-.537-.928-.594-1.015-.756-1.143a1.376 1.376 0 0 0-.533-.26 1.661 1.661 0 0 0-.636.007m.576 2.477.291.499.033.056-.302.331-.324.355c-.022.023-.035.007-.29-.354a28.528 28.528 0 0 1-.277-.395c-.007-.011.095-.176.295-.476.167-.252.307-.459.311-.459.004 0 .122.199.263.443m-.551 4.297c-.286.062-.56.267-.685.512a67.561 67.561 0 0 1-.792 1.37c-.008.008-.336.193-.728.411-.393.218-.735.412-.76.431a1.1 1.1 0 0 0-.355.408l-.06.112.004.406.004.405.067.111c.084.141.225.286.346.356l.787.437.694.384.399.72c.22.396.428.758.462.803.223.296.594.468.956.443a.93.93 0 0 0 .396-.109c.195-.096.364-.257.453-.433.065-.129.77-1.342.791-1.362.012-.012.34-.197.729-.412.389-.216.74-.417.78-.447.152-.117.273-.266.354-.436.072-.154.086-.23.086-.465 0-.175-.005-.224-.028-.301a1.045 1.045 0 0 0-.415-.558 69.941 69.941 0 0 0-.783-.438l-.727-.402-.4-.72a22.28 22.28 0 0 0-.451-.789 1.421 1.421 0 0 0-.321-.295 1.157 1.157 0 0 0-.803-.142m.372 2.583c.069.126.146.269.169.317.113.227.262.353.698.593.173.095.315.176.315.18 0 .007-.417.237-.546.301-.204.101-.332.25-.56.646-.09.157-.171.294-.179.303-.012.013-.046-.037-.151-.226a6.214 6.214 0 0 1-.149-.281 1.067 1.067 0 0 0-.156-.237c-.1-.11-.244-.211-.533-.371a11.57 11.57 0 0 1-.318-.179c-.019-.015.011-.035.222-.15l.321-.173c.193-.099.319-.247.546-.643.097-.17.181-.309.186-.31.004 0 .065.104.135.23m-.199 5.323a1.333 1.333 0 0 0-.52.215c-.099.065-.176.145-.668.683-.305.335-.619.675-.696.756a1.376 1.376 0 0 0-.322.466c-.071.177-.086.264-.085.494a.866.866 0 0 0 .037.316c.044.144.1.265.175.373.031.046.289.498.573 1.004l.516.92.102.098c.197.187.401.299.667.365.166.041.469.041.624 0 .192-.052.322-.114.504-.242l.105-.074.596-.894a58.7 58.7 0 0 1 .667-.986c.09-.118.19-.327.227-.472a1.53 1.53 0 0 0 0-.706c-.056-.203-.127-.319-.7-1.128-.498-.703-.556-.779-.652-.861a1.913 1.913 0 0 0-.207-.152 1.454 1.454 0 0 0-.943-.175m.492 2.298.266.377-.329.494c-.181.272-.331.492-.334.489a91.366 91.366 0 0 1-.546-.969l-.021-.041.336-.367c.185-.203.341-.366.348-.364.008.003.133.174.28.381"/>
</svg>
