<svg width="32" height="32" xmlns="http://www.w3.org/2000/svg"><path d="M15.76 2.386c-.485.174-.633.338-1.585 1.765-.497.745-.938 1.45-.979 1.568-.121.343-.098.926.05 1.241.171.366 1.532 2.266 1.777 2.481.351.309.62.399 1.19.399.477 0 .526-.011.827-.18.189-.106.451-.325.64-.535.176-.196.604-.663.952-1.039.378-.409.676-.782.74-.928.144-.325.177-.822.077-1.145-.113-.364-1.623-2.947-1.876-3.208-.301-.313-.656-.465-1.145-.493-.297-.016-.471.003-.668.074m.967 3.341.381.659-.437.471-.437.471-.357-.499c-.196-.274-.357-.519-.357-.544 0-.056.763-1.215.8-1.217.015 0 .198.296.407.659m-1.074 5.757c-.146.071-.33.198-.408.283-.078.084-.396.597-.706 1.14l-.564.986-.965.534c-1.453.803-1.593.959-1.595 1.775-.003.8.128.948 1.504 1.706.62.342 1.034.603 1.096.693.055.08.321.545.59 1.033.558 1.009.786 1.268 1.24 1.402.487.145.881.083 1.269-.199.192-.14.343-.359.835-1.211l.599-1.039.994-.56c.547-.308 1.074-.625 1.173-.704.584-.469.611-1.562.052-2.078-.085-.078-.615-.398-1.179-.71l-1.025-.569-.514-.93c-.632-1.143-.752-1.31-1.067-1.495-.365-.214-.954-.239-1.329-.057m.906 3.558c.227.445.428.64.974.946.242.135.44.262.44.283 0 .02-.186.134-.413.253-.495.258-.721.484-1.04 1.041l-.24.419-.285-.517c-.314-.567-.439-.689-1.073-1.043l-.412-.23.145-.087c.08-.048.297-.169.483-.267.372-.198.581-.426.894-.975.237-.416.223-.421.527.177m-.393 6.886c-.53.086-.726.243-1.836 1.464-1.132 1.247-1.21 1.375-1.21 1.993 0 .368.064.567.319.988.106.176.454.788.772 1.36.318.572.673 1.139.788 1.259.57.599 1.517.714 2.22.271.243-.153.381-.333 1.231-1.602.527-.787.989-1.518 1.027-1.625.104-.297.077-.949-.051-1.236-.151-.341-1.412-2.112-1.71-2.405-.392-.383-.979-.56-1.55-.467m.622 2.992c.173.242.331.469.352.505.047.081-.813 1.378-.871 1.314a12.732 12.732 0 0 1-.389-.667l-.349-.622.434-.485c.239-.267.451-.485.471-.485.02 0 .178.198.352.44" fill-rule="evenodd" fill="#000"/></svg>
