<svg xmlns="http://www.w3.org/2000/svg" xml:space="preserve" viewBox="0 0 32 32"><path fill-rule="evenodd" d="M3.926.086C2.891.273 2.177.65 1.413 1.413.841 1.986.58 2.376.32 3.049-.017 3.921 0 3.245 0 16s-.017 12.079.32 12.951c.231.597.509 1.038.956 1.515.666.71 1.359 1.127 2.301 1.384l.45.123h23.946l.45-.123c.912-.249 1.615-.663 2.247-1.324.603-.63.944-1.239 1.18-2.103l.123-.45V4.027l-.123-.45c-.257-.942-.673-1.634-1.384-2.301C29.776.629 29.01.253 28.032.082 27.615.01 26.195.001 15.953.005 6.153.009 4.281.021 3.926.086m5.803 10.89c.884.33 1.519 1.053 1.763 2.009.12.47.12 5.56 0 6.03-.276 1.084-1.096 1.899-2.105 2.097-.376.073-.732.094-.78.046-.021-.021-.706-.038-1.523-.038H5.6V10.819l1.907.02c1.809.018 1.922.025 2.222.137m8.191.837v.88h-3.323l.035.889c.019.489.035 1.053.035 1.253v.365h2.026v1.813H14.72v2.4h3.253v1.819l-2.093-.016c-1.993-.015-2.105-.021-2.333-.127-.304-.142-.618-.487-.692-.763-.039-.146-.053-1.521-.043-4.363l.015-4.15.124-.233c.145-.272.344-.472.569-.572.124-.055.636-.071 2.28-.073l2.12-.002v.88m3.2-.857c0 .049 1.818 6.836 1.855 6.924.024.058.368-1.213.923-3.413l.885-3.507 1.001-.015 1.001-.014-.036.148c-.02.081-.55 2.08-1.178 4.441-.715 2.693-1.195 4.403-1.287 4.587a3.046 3.046 0 0 1-.472.621c-.336.34-.557.445-.932.445-.447-.001-1.064-.481-1.355-1.056-.085-.169-.554-1.906-1.258-4.66A725.578 725.578 0 0 0 19.121 11c-.019-.052.2-.067.987-.067.557 0 1.012.011 1.012.023m-13.4 1.768c-.022.022-.04 1.512-.04 3.312v3.271l.653-.002c.769-.001.978-.07 1.281-.425.302-.353.316-.491.297-3.013l-.018-2.24-.152-.31c-.104-.212-.219-.354-.367-.452-.201-.133-.263-.144-.915-.162-.384-.011-.717-.002-.739.021"/></svg>
