<svg width="32" height="32" xmlns="http://www.w3.org/2000/svg"><path d="M14.24 4.058c-2.124.126-4.205.477-5.653.955-.751.247-1.729.743-2.143 1.087-.636.529-.897 1.034-.897 1.739 0 1.158.816 1.983 2.673 2.7 2.052.792 5.887 1.256 9.073 1.098 5.158-.256 8.384-1.368 9.069-3.125.147-.377.144-.974-.007-1.365-.49-1.268-2.398-2.22-5.502-2.743-2.05-.346-4.468-.473-6.613-.346m4.053 2.24c2.413.181 4.954.815 5.705 1.423.112.09.121.12.062.19-.193.233-1.14.634-2.087.884-3.864 1.019-9.995.854-13.04-.352-.515-.204-.885-.401-.988-.525-.085-.103-.011-.192.307-.37 1.829-1.022 6.058-1.549 10.041-1.25m-4.746.745c-1.294.108-2.791.353-2.975.486-.054.039-.19.173-.301.297-.141.158-.181.234-.13.251.12.04 1.691.342 2.21.425l.484.077.615-.309c.671-.336 1.211-.502 1.909-.588 1.305-.16 2.446.026 3.609.588l.649.313.49-.079a16.66 16.66 0 0 0 1.826-.402c.275-.081.36-.13.36-.204a.23.23 0 0 0-.069-.156c-.172-.142-1.749-.464-3.077-.627-.833-.102-4.652-.152-5.6-.072m10.312 4.321c-.21.084-.663.224-1.006.312a7.57 7.57 0 0 0-.648.181c-.012.012.028.296.088.629.063.344.133 1.054.161 1.639.028.567.066 1.183.085 1.369l.035.338-.234.07c-.136.041-.477.069-.82.067-.605-.004-.59 0-1.493-.344-.842-.32-2.01-.124-2.67.448l-.21.182.26.233a6.756 6.756 0 0 0 2.386 1.401 5.33 5.33 0 0 0 2.032.288c.627-.022.829-.083 1.098-.329.154-.141.194-.088.273.367.136.781.036 1.945-.212 2.457-.142.293-4.922 4.876-5.154 4.941-.505.142-2.565.142-3.064 0-.176-.05-4.886-4.389-5.081-4.68-.287-.429-.378-.868-.378-1.813.001-.534.026-.938.069-1.078l.067-.225.332.171c.295.153.39.174.858.19.895.032 1.754-.149 2.644-.558.464-.213 1.302-.768 1.683-1.114l.267-.242-.21-.187c-.437-.387-1.082-.609-1.764-.609-.34.001-.518.034-.88.164-.249.089-.609.207-.8.262-.388.112-1.088.136-1.4.05-.168-.047-.196-.075-.175-.173.072-.326.135-1.006.135-1.452 0-.515.108-1.475.232-2.068l.071-.336-.591-.123a13.05 13.05 0 0 1-1.09-.281c-.274-.088-.506-.151-.516-.141-.038.038-.236 1.101-.287 1.537-.029.249-.068.837-.087 1.306-.04.998-.154 1.631-.446 2.48-.116.338-.249.8-.296 1.027-.323 1.582-.024 3.35.762 4.508.241.355 5.258 5.033 5.569 5.192.613.315 1.571.473 2.866.473 1.305 0 2.158-.142 2.792-.463.177-.089 1.036-.871 2.72-2.478 1.354-1.29 2.577-2.48 2.718-2.644.996-1.155 1.285-3.374.7-5.376-.332-1.136-.396-1.542-.448-2.799-.053-1.301-.155-2.035-.382-2.76-.03-.095-.083-.17-.117-.167a3.809 3.809 0 0 0-.444.158M9.73 15.762c.057.043.08.078.05.078a.376.376 0 0 1-.156-.078c-.057-.043-.08-.079-.051-.079.03 0 .1.036.157.079" fill="#A12577" fill-rule="evenodd"/></svg>
