<svg xmlns="http://www.w3.org/2000/svg" viewBox="0 0 16 20">
    <path fill="#A12577" fill-rule="evenodd" d="M6.573.897c-1.514.112-2.505.259-3.506.518C1.45 1.833.44 2.46.123 3.24c-.144.355-.15.783-.016 1.142.47 1.255 2.78 2.122 6.299 2.364 2.091.144 4.482-.042 6.214-.483 1.504-.382 2.449-.902 2.896-1.593.156-.241.22-.45.237-.764.025-.493-.138-.881-.538-1.28-.859-.857-2.655-1.419-5.375-1.682-.322-.031-.802-.045-1.787-.05a57.005 57.005 0 0 0-1.48.003m2.187 1.69c1.655.07 2.979.283 4.08.658.389.132.874.358 1.05.487l.116.086-.075.078c-.089.093-.501.309-.835.438-2.159.833-6.314 1.001-9.149.369-.922-.206-1.742-.515-2.086-.787-.124-.099-.119-.108.15-.276C3.18 2.912 6.004 2.471 8.76 2.587m-2.133.589c-.841.043-1.817.161-2.487.3-.328.068-.302.051-.587.386-.097.114-.107.136-.067.148.137.041 1.267.267 1.631.326l.421.069.145-.093c.886-.566 2.03-.772 3.195-.576.424.071.881.231 1.331.466l.383.199.327-.053c.48-.078.937-.178 1.342-.295.197-.056.363-.108.369-.114.015-.015-.032-.127-.078-.184-.068-.086-1.024-.308-1.805-.419-1.184-.169-2.751-.23-4.12-.16m7.36 3.306c-.17.081-.882.307-1.18.374-.203.045-.274.072-.274.103 0 .022.024.161.052.308.091.477.136.92.167 1.653.017.396.032.803.033.905l.002.186-.16.05c-.1.032-.277.056-.469.065-.384.018-.644-.03-1.037-.192a4.58 4.58 0 0 0-.454-.161 2.274 2.274 0 0 0-.908-.001 2.383 2.383 0 0 0-.848.42l-.169.141.196.185c.543.513 1.303.958 1.959 1.149.458.134.829.181 1.318.167.409-.012.454-.018.599-.084.085-.039.207-.113.269-.164.062-.052.119-.084.126-.073.038.062.105.489.12.767.033.607-.043 1.156-.208 1.494-.079.163-.376.462-3.339 3.369-.493.483-.45.465-1.2.516-.491.033-1.165.006-1.538-.062l-.169-.03-1.817-1.73c-1.179-1.121-1.852-1.78-1.914-1.874-.303-.459-.408-1.532-.221-2.252.022-.082.044-.154.05-.159.006-.006.047.014.09.046.044.031.162.095.262.143l.182.086.493-.002c.543-.001.821-.044 1.293-.201.658-.218 1.482-.733 1.928-1.203l.088-.093-.093-.082c-.26-.228-.64-.42-.963-.487a2.482 2.482 0 0 0-.847.011 3.986 3.986 0 0 0-.466.159c-.328.134-.468.172-.757.205-.21.024-.626-.004-.748-.051l-.064-.024.047-.33c.027-.181.06-.623.074-.982a8.19 8.19 0 0 1 .163-1.477 2.34 2.34 0 0 0 .046-.296 3.854 3.854 0 0 0-.248-.052 8.188 8.188 0 0 1-1.349-.379c-.033-.011-.051.016-.076.115-.134.529-.212 1.162-.243 1.969-.037.985-.093 1.307-.371 2.129a5.111 5.111 0 0 0-.285 1.951c.037.928.313 1.814.735 2.364.173.225 3.806 3.707 4.018 3.852.176.119.572.26.921.327.463.089.911.118 1.553.102.868-.021 1.424-.129 1.871-.361.167-.087.383-.292 2.066-1.949a208.57 208.57 0 0 0 1.976-1.96c.543-.619.827-1.617.79-2.775-.018-.552-.083-.943-.261-1.581-.222-.795-.291-1.247-.291-1.926a8.48 8.48 0 0 0-.241-2.034 9.392 9.392 0 0 1-.079-.328c0-.026-.1-.004-.2.044m-10.8 3.479c.058.036.097.065.085.066a.555.555 0 0 1-.217-.104c-.029-.046.016-.034.132.038"/>
</svg>
