<svg xmlns="http://www.w3.org/2000/svg" xml:space="preserve" viewBox="0 0 32 32"><path d="M12.48 6.565A9.964 9.964 0 0 0 9.069 7.58c-3.1 1.577-4.921 4.517-5.052 8.153-.057 1.565.232 2.984.884 4.347 1.321 2.762 3.755 4.65 6.788 5.264.593.12.667.123 4.044.123 3.663 0 3.667-.001 4.774-.276 2.906-.723 5.44-2.783 6.662-5.416.828-1.785 1.038-3.759.61-5.745-.871-4.038-4.306-7.006-8.644-7.468-.614-.066-6.067-.063-6.655.003m2.251.821a8.585 8.585 0 0 1 5.008 2.475c3.051 3.052 3.405 7.83.839 11.323-.433.591-1.343 1.48-1.966 1.921-.971.688-2.278 1.236-3.492 1.462-.746.139-2.294.139-3.04 0-1.214-.226-2.521-.774-3.492-1.462-.623-.441-1.533-1.33-1.966-1.921-2.568-3.495-2.214-8.27.839-11.323a8.639 8.639 0 0 1 7.27-2.475m.842 8.561c0 4.06.014 5.12.067 5.119.113-.001.609-.25.991-.496 2.265-1.466 3.108-4.553 1.925-7.05a5.367 5.367 0 0 0-2.382-2.443c-.266-.138-.51-.25-.542-.25-.042 0-.059 1.457-.059 5.12m-4.568-4.776c-2.298 1.156-3.429 3.906-2.656 6.464a5.678 5.678 0 0 0 2.836 3.371c.183.092.357.167.387.167.037 0 .055-1.647.055-5.12 0-4.35-.012-5.12-.075-5.12-.041 0-.287.107-.547.238" fill-rule="evenodd"/></svg>
