<svg xmlns="http://www.w3.org/2000/svg" viewBox="0 0 24 24">
    <path fill="#A12577" fill-rule="evenodd" d="M11.4 2.32a9.953 9.953 0 0 0-4.649 1.612 9.07 9.07 0 0 0-1.553 1.266c-1.523 1.52-2.492 3.457-2.825 5.642-.087.576-.098 2.006-.019 2.54.269 1.809.904 3.36 1.935 4.73.381.506 1.188 1.338 1.691 1.742a10.037 10.037 0 0 0 5.14 2.149c.552.063 1.699.053 2.26-.021 4.185-.549 7.567-3.646 8.454-7.744.258-1.189.283-2.623.066-3.796-.236-1.276-.765-2.606-1.449-3.64a10.119 10.119 0 0 0-5.08-3.974c-1.181-.411-2.717-.607-3.971-.506m-.854 2.25L9.347 6.741l-.951 1.72-2.128 1.165c-1.17.641-2.133 1.16-2.139 1.155-.027-.024.171-.836.297-1.221.173-.527.613-1.428.927-1.9a8.169 8.169 0 0 1 4.941-3.441c.223-.051.427-.095.453-.096.026-.002-.064.199-.201.447m3.634-.302c1.055.26 2.208.841 3.104 1.564.43.346 1.13 1.088 1.436 1.52a8.42 8.42 0 0 1 1.142 2.228c.133.396.311 1.126.289 1.179-.006.016-.983-.51-2.171-1.169l-2.16-1.196-1.15-2.111a120.417 120.417 0 0 1-1.15-2.136c0-.032.161-.003.66.121M13.173 7.07c.541 1.007.994 1.861 1.009 1.9.022.058.004.07-.1.07-.07 0-.514.1-.987.223l-.86.222-.907-.302c-.5-.167-.958-.303-1.018-.303-.061 0-.11-.016-.11-.036 0-.033 1.773-3.302 1.906-3.514.031-.05.063-.09.071-.09.008 0 .456.823.996 1.83m-4.132 3.14c0 .072.108.498.24.948.131.45.239.857.239.904 0 .046-.135.485-.3.975-.165.49-.3.925-.3.967 0 .042-.016.076-.036.076-.047 0-3.487-1.875-3.552-1.935-.035-.034.417-.298 1.8-1.053a86.585 86.585 0 0 1 1.878-1.01c.017-.001.03.057.031.128m8.238.976c.992.542 1.798.989 1.792.995-.028.024-3.628 1.98-3.686 2.003-.049.018-.065.001-.065-.07 0-.052-.099-.477-.22-.945-.121-.468-.22-.887-.22-.93 0-.044.126-.464.28-.933.154-.47.28-.911.28-.98 0-.069.008-.126.018-.126.009 0 .829.443 1.821.986m-5.77-.091c.247.08.526.145.619.145.093 0 .401-.056.683-.124.283-.069.521-.118.529-.109.015.014-.149.665-.267 1.064-.046.157-.038.22.093.75.096.386.128.579.097.579-.026 0-.261-.072-.523-.16-.262-.088-.523-.16-.58-.16-.058 0-.353.064-.656.143a5.62 5.62 0 0 1-.565.129c-.008-.007.057-.244.144-.526.086-.281.157-.587.156-.679 0-.092-.062-.407-.136-.7-.083-.325-.118-.526-.089-.515.025.01.248.083.495.163m-5.194 3.61 2.145 1.186 1.165 2.134c.641 1.174 1.145 2.135 1.12 2.134-.134-.002-.808-.176-1.229-.317A8.343 8.343 0 0 1 7 18.451a10.805 10.805 0 0 1-1.286-1.311 9.027 9.027 0 0 1-1.206-2.18c-.184-.494-.422-1.44-.362-1.44.014 0 .99.533 2.169 1.185m13.844-1.155c-.003.102-.172.772-.28 1.11a8.048 8.048 0 0 1-2.066 3.302c-.92.897-1.835 1.464-3.025 1.873-.479.166-1.217.35-1.253.313-.023-.023 2.277-4.212 2.361-4.299.052-.054 4.183-2.325 4.234-2.328.016 0 .03.013.029.029m-7.138 1.612c.461.155.907.295.989.31l.151.028-.99 1.809c-.544.995-1.001 1.796-1.016 1.78a118.32 118.32 0 0 1-1.027-1.889l-.999-1.86.185-.03c.102-.016.519-.119.926-.227.407-.109.785-.199.841-.2.056-.002.479.124.94.279"/>
</svg>
