<svg width="32" height="32" xmlns="http://www.w3.org/2000/svg"><path d="M14.64 4.037c-2.251.196-4.311.979-6.08 2.31-3.507 2.64-5.2 7.159-4.317 11.52.419 2.065 1.477 4.148 2.845 5.604l.273.289.165-.187c.24-.27.461-.769.536-1.213.09-.524.005-1.03-.257-1.533-.879-1.691-1.077-2.181-1.295-3.2-.533-2.489-.052-5.073 1.327-7.136 1.384-2.069 3.437-3.462 5.888-3.996.467-.101.707-.118 1.742-.12 1.289-.002 1.546.029 2.5.299a8.586 8.586 0 0 1 2.069.879c.33.189.706.391.836.449.331.146.847.208 1.261.15.386-.053.993-.321 1.272-.56l.179-.154-.499-.444c-.946-.844-1.711-1.359-2.792-1.882-1.691-.817-3.867-1.231-5.653-1.075m9.789 4.483c-.343.416-.534.984-.535 1.595-.001.51.121.873.551 1.645 1.146 2.055 1.511 4.371 1.047 6.644-.589 2.894-2.602 5.398-5.268 6.554-2.71 1.176-5.722 1.007-8.213-.459-.834-.491-1.03-.565-1.583-.594-.701-.036-1.235.13-1.725.54l-.222.186.439.393c.61.545.838.721 1.467 1.133 4.133 2.707 9.702 2.386 13.48-.779 2.214-1.854 3.596-4.346 4.034-7.271.104-.693.09-2.567-.024-3.275-.282-1.747-.912-3.381-1.843-4.782-.414-.623-1.307-1.73-1.395-1.73-.025 0-.119.09-.21.2m-7.442 1.882c-1.79.407-3.447.774-3.684.816-.959.17-1.619.704-1.947 1.576-.099.265-.13.622-.27 3.073-.087 1.525-.15 3.025-.141 3.333.015.515.032.592.208.963.237.499.613.888 1.078 1.116.607.299.738.304 3.698.141 1.462-.081 2.85-.169 3.084-.196 1.086-.125 1.918-.925 2.107-2.024.033-.191.372-1.799.755-3.573.667-3.096.694-3.248.675-3.738-.017-.445-.042-.556-.191-.859-.198-.403-.64-.868-1.019-1.074-.24-.131-.841-.306-1.02-.297-.044.002-1.544.337-3.333.743m3.402 1.68c-.006.058-.348 1.571-.76 3.363-.412 1.792-.749 3.31-.749 3.372 0 .075-.042.124-.12.142-.066.015-1.32.096-2.787.18-2.161.124-2.68.14-2.739.085-.062-.057-.05-.495.077-2.847.083-1.528.166-2.804.185-2.835.037-.059 6.691-1.597 6.824-1.576.045.006.075.058.069.116" fill="#A12577" fill-rule="evenodd"/></svg>
