<svg width="32" height="32" xmlns="http://www.w3.org/2000/svg"><path d="M15.093 4.033c-3.785.347-7.035 2.28-9.125 5.428-1.482 2.231-2.178 5.02-1.913 7.667C4.67 23.27 9.866 28 16 28c5.392 0 10.215-3.724 11.597-8.954 1.817-6.875-2.786-13.834-9.864-14.914-.525-.081-2.171-.142-2.64-.099m-.8 2.233c0 .014-.648 1.198-1.44 2.63L11.412 11.5l-2.563 1.401c-1.41.771-2.578 1.388-2.594 1.371-.052-.051.234-1.163.442-1.72a9.901 9.901 0 0 1 6.823-6.156c.576-.148.773-.182.773-.13m3.894.077c3.551.793 6.498 3.68 7.35 7.204.219.907.535.991-2.427-.646-1.432-.791-2.63-1.468-2.663-1.503-.135-.147-2.833-5.158-2.776-5.157.034.001.266.047.516.102m-.96 3.474c.66 1.233 1.207 2.276 1.217 2.319.012.055-.032.077-.157.077-.096 0-.635.12-1.197.265l-1.023.265-1.112-.371c-.612-.205-1.167-.372-1.234-.372-.066 0-.121-.015-.121-.033 0-.054 2.371-4.391 2.4-4.391.015 0 .567 1.009 1.227 2.241m-4.741 4.921.32 1.111-.376 1.129c-.207.621-.377 1.183-.377 1.249 0 .066-.007.12-.017.12-.029 0-4.327-2.354-4.367-2.392-.021-.019.975-.588 2.213-1.264 1.668-.91 2.256-1.207 2.268-1.146.009.045.16.582.336 1.193m9.581-.011c1.137.62 2.123 1.162 2.192 1.205.12.074.042.123-2.077 1.278-1.21.66-2.233 1.213-2.271 1.228-.039.015-.071-.008-.071-.05 0-.043-.131-.583-.291-1.201l-.291-1.124.344-1.03c.19-.566.345-1.121.345-1.231 0-.111.012-.202.027-.202s.957.507 2.093 1.127m-6.86-.034c.318.103.652.187.742.187.09 0 .453-.073.807-.162.354-.09.654-.153.667-.14.029.029-.176.852-.278 1.116-.112.287-.097.519.077 1.199.084.33.136.6.116.6-.02 0-.286-.084-.591-.186-.305-.103-.642-.187-.75-.187-.107 0-.476.074-.821.164-.344.09-.638.152-.652.137-.015-.014.06-.307.165-.651.105-.344.191-.695.191-.781 0-.085-.072-.44-.16-.789-.088-.349-.16-.647-.16-.664 0-.048.044-.038.647.157M11.282 20.4c.201.116.317.309 1.619 2.693.771 1.412 1.391 2.579 1.377 2.594-.043.042-.988-.195-1.548-.389a9.909 9.909 0 0 1-5.976-5.765 10.315 10.315 0 0 1-.486-1.704l-.037-.224 2.418 1.335c1.33.734 2.515 1.391 2.633 1.46m14.27-2.086a9.976 9.976 0 0 1-3.85 5.7c-.652.467-1.894 1.091-2.665 1.337-.555.178-1.381.378-1.412.343-.007-.008.638-1.192 1.434-2.632l1.448-2.618 2.586-1.416c1.423-.779 2.595-1.409 2.605-1.4.009.009-.056.317-.146.686m-8.46 1.321c.646.21 1.206.39 1.244.399.047.012-.011.165-.187.488l-1.189 2.187c-.513.943-.945 1.715-.96 1.715-.024 0-2.4-4.408-2.444-4.534-.01-.027.026-.051.08-.053.053-.002.577-.131 1.164-.287l1.092-.291c.014-.003.554.166 1.2.376" fill="#A12577" fill-rule="evenodd"/></svg>
