<svg width="33" height="33" xmlns="http://www.w3.org/2000/svg"><path d="M12.297 5.478c-1.782.407-2.853.733-4.165 1.265-1.196.486-1.084.393-1.693 1.405-1.859 3.092-2.944 6.021-3.474 9.381-.071.447-.097 1.171-.116 3.23-.024 2.523-.02 2.657.079 2.735.258.202 1.915 1.283 2.421 1.58 1.074.63 2.969 1.472 4.161 1.85l.416.131.107-.14c.129-.17 1.28-2.087 1.328-2.212.026-.07-.126-.161-.691-.414-.794-.355-1.555-.767-1.585-.859-.011-.033.108-.156.263-.275l.284-.216.492.212c3.528 1.515 7.293 1.797 10.864.814.756-.208 1.935-.631 2.371-.851.179-.09.357-.164.397-.164.04.001.196.107.348.237.26.223.27.241.17.316-.152.115-1.162.62-1.692.847-.25.106-.475.215-.501.24-.114.112 1.298 2.439 1.481 2.44.14 0 1.801-.64 2.583-.996 1.683-.766 4.092-2.227 4.368-2.648.102-.155.2-1.336.2-2.391-.003-4.682-1.212-8.816-3.817-13.046l-.461-.748-.737-.31a22.441 22.441 0 0 0-4.131-1.309 78.94 78.94 0 0 1-.805-.17c-.106-.024-.163.065-.482.742l-.362.77-.311-.038c-.95-.114-1.476-.14-2.862-.14-1.383 0-1.76.018-2.89.136l-.34.035-.371-.749c-.205-.412-.396-.755-.425-.762-.03-.006-.22.026-.422.072m.308 9.002c.353.057.879.354 1.192.675.335.343.67.951.76 1.38.078.375.079 1.203.002 1.54-.171.74-.799 1.561-1.432 1.871-.947.464-1.819.308-2.63-.471-1.217-1.169-1.209-3.192.019-4.368.332-.319.833-.585 1.221-.65.301-.05.433-.046.868.023m9.782.183a2.783 2.783 0 0 1 1.328 1.468c.125.308.163.507.186.974.034.722-.039 1.083-.336 1.659-.387.749-.719 1.048-1.441 1.299-.968.336-2.009-.038-2.673-.961-1.115-1.551-.519-3.867 1.17-4.548.206-.083.38-.102.831-.089.512.014.606.034.935.198" fill="#5165F6" fill-rule="evenodd"/></svg>
