<svg xmlns="http://www.w3.org/2000/svg" viewBox="0 0 24 24">
    <path fill="#A12577" d="M18.4572 6.0572c-.6286.6286-.7428 1.6-.2857 2.3429 1.7143 2.6857 1.4286 6.3428-.9143 8.6857-2.3428 2.3428-6 2.6857-8.6857.9142-.7429-.4571-1.7143-.3428-2.3429.2858 3.3715 3.3714 8.9143 3.3714 12.2858 0 3.3714-3.3715 3.3142-8.8-.0572-12.2286Zm-11.8286.5714c2.3429-2.3429 6-2.6857 8.6857-.9143.7429.4572 1.7143.3429 2.3429-.2857C14.2857 2 8.8 2 5.3715 5.3714 1.9429 8.743 2 14.2858 5.3715 17.6573c.6285-.6286.7428-1.6.2857-2.3429-1.7143-2.6857-1.4286-6.3428.9714-8.6857Z"/>
    <path fill="#A12577" d="M15.1428 7.0857 10 8.2287c-.9714.057-1.7143.857-1.7143 1.7713l-.2286 4.1143v.0572c0 1.0285.8 1.8285 1.8857 1.8285L14 15.7715c.9714 0 1.7714-.7429 1.8286-1.7143l1.0857-4.9714v-.1715c.0571-.9714-.8-1.8286-1.7715-1.8286Zm-1.0285 6.6858v.1714c0 .0571-.0572.1143-.1715.1143l-4.0571.2286c-.0571 0-.1143-.0572-.1143-.1143L10 10.0572c0-.0572.0571-.1143.1143-.1143L15.2 8.8c.0571 0 .0571.0572.0571.0572l-1.1428 4.9143Z"/>
</svg>
