<svg xmlns="http://www.w3.org/2000/svg" viewBox="0 0 24 18">
    <path fill-rule="evenodd" d="M7.897.485c-1.17.139-2.611.576-3.291.999-.744.462-1.439 1.469-2.188 3.173-.809 1.839-1.284 3.445-1.589 5.367-.293 1.846-.281 3.086.037 3.891.245.62.87 1.316 1.647 1.835.808.54 3.143 1.604 3.843 1.75.401.084.82-.029 1.156-.312.13-.109.969-1.345 1.085-1.597.036-.079.077-.237.09-.351.023-.192.031-.205.106-.177.144.055 1.025.226 1.519.295.356.049.739.066 1.495.067 1.248 0 1.555-.036 2.999-.347.1-.021.106-.015.106.116 0 .203.106.452.465 1.084.484.854.803 1.152 1.325 1.235.301.049.56-.004 1.264-.257a20.528 20.528 0 0 0 2.363-1.024c1.135-.567 1.369-.713 1.751-1.09.582-.577.766-1.066.788-2.09.007-.337.023-.682.035-.766.022-.161-.132-1.44-.326-2.703-.353-2.291-.848-4.007-1.576-5.461-.775-1.547-1.494-2.38-2.468-2.855-.644-.315-1.59-.544-2.682-.65-.978-.096-1.714.134-2.069.646l-.107.155H9.939l-.065-.169c-.098-.257-.335-.5-.627-.644-.245-.121-.276-.126-.736-.131a7.713 7.713 0 0 0-.614.011m.574 1.883c.123.286.337.514.586.627l.2.091 2.415.012c2.777.013 2.749.016 3.084-.286.103-.092.233-.246.288-.34l.101-.172h.276c.359 0 1.228.129 1.697.251 1.011.262 1.56.787 2.283 2.183.643 1.239 1.087 2.692 1.407 4.6.209 1.244.362 2.396.362 2.722-.002 1.584-.002 1.585-.296 1.88-.215.215-.397.322-1.343.796-.87.435-2.28 1.023-2.452 1.023-.042 0-.27-.363-.27-.429 0-.043.699-.636.912-.773.367-.235.649-.611.701-.933.053-.331-.164-.734-.491-.916-.189-.104-.228-.111-.604-.108-.495.004-.815.082-1.617.393-1.524.591-2.867.812-4.44.731-1.189-.061-2.034-.24-3.248-.69-.966-.358-1.531-.431-1.938-.251-.542.24-.745.66-.644 1.33.09.595.301.864.923 1.176l.303.153c.026.015-.187.317-.224.317-.078 0-1.109-.454-1.868-.823-.919-.448-1.38-.745-1.751-1.129-.53-.549-.606-1.032-.424-2.686.242-2.207.846-4.28 1.842-6.324.6-1.233.942-1.708 1.39-1.935.637-.323 1.791-.626 2.687-.705.036-.003.094.079.153.215m-.313 3.654c-1.098.144-1.993.973-2.296 2.129-.111.421-.11 1.06 0 1.527.236.992.881 1.715 1.807 2.026.463.155 1.141.158 1.572.006 1.239-.437 1.98-1.68 1.874-3.143-.044-.596-.209-1.031-.58-1.527a2.586 2.586 0 0 0-2.377-1.018m6.485-.005a2.629 2.629 0 0 0-1.464.687c-.914.845-1.199 2.177-.727 3.393.41 1.055 1.348 1.711 2.46 1.719.429.003.749-.069 1.131-.257.531-.262.909-.658 1.209-1.267.571-1.161.413-2.53-.393-3.41-.597-.652-1.418-.972-2.216-.865m-5.9 1.726c.21.059.439.28.575.556.116.236.12.263.103.603-.022.441-.126.731-.34.945-.426.426-1.089.339-1.403-.184-.301-.502-.251-1.204.118-1.639a.95.95 0 0 1 .947-.281m6.496.018a.953.953 0 0 1 .516.495c.1.202.117.28.12.561.004.367-.045.597-.18.829-.381.659-1.259.625-1.607-.063-.292-.575-.156-1.329.304-1.692.228-.179.595-.236.847-.13"/>
</svg>
