<svg xmlns="http://www.w3.org/2000/svg" xml:space="preserve" viewBox="0 0 32 32"><path fill-rule="evenodd" d="M15.867 13.995a1.698 1.698 0 0 0-.76.451c-.279.271-.36.43-.471.914-.18.791-.005 1.355.614 1.98.445.45.791.596 1.417.6 1.961.012 2.664-2.522 1.004-3.623-.544-.362-1.27-.491-1.804-.322m-6.507.13c-.519.247-.792.842-.61 1.325.091.242.368.487.658.584.572.19.802.321.906.518.085.161.091.215.036.346-.165.4-.805.404-1.183.007l-.194-.202-.232.237c-.227.231-.231.24-.152.382.118.212.542.475.881.545.466.097.966-.025 1.27-.31.438-.411.477-1.228.076-1.598-.072-.066-.37-.238-.66-.381-.637-.313-.815-.476-.727-.668.145-.32.664-.393 1.013-.144l.163.115.191-.232c.105-.129.191-.248.191-.266 0-.017-.113-.098-.25-.178-.336-.197-1.046-.239-1.377-.08m3.432-.027c-.834.311-1.331.972-1.369 1.822-.015.341.004.489.097.735.384 1.022 1.428 1.549 2.467 1.245l.306-.09v-.922l-.12.11c-.217.198-.45.282-.785.282-.179 0-.402-.032-.496-.072-.822-.344-1.045-1.475-.422-2.133.411-.434 1.091-.481 1.597-.11l.12.088v-.425c0-.41-.005-.427-.147-.494-.213-.102-1.01-.125-1.248-.036m5.625-.034c.014.024.306.727.649 1.563 1.056 2.576.917 2.293 1.124 2.293.121 0 .197-.033.233-.1.056-.105 1.55-3.743 1.55-3.775 0-.01-.176-.018-.393-.018h-.392l-.334.866-.494 1.287-.161.419-.489-1.273-.489-1.273-.415-.015c-.228-.009-.404.003-.389.026m8.996.016c0 .029.023.053.051.053.027 0 .065-.024.083-.053.018-.029-.005-.053-.051-.053-.045 0-.083.024-.083.053m.392.044c.049.054.088.129.088.168 0 .093-.161.211-.29.213-.078.001-.089.017-.043.063.089.089.384-.046.444-.204.037-.097.023-.15-.058-.232-.135-.134-.262-.142-.141-.008M3.893 16.027v1.893h.627c1.134-.001 1.701-.171 2.07-.621.751-.916.63-2.219-.26-2.81-.437-.29-.741-.356-1.646-.356h-.791v1.894m3.627 0v1.893h.693v-3.787H7.52v1.894m17.493 0v1.893h.694v-.747c0-.46.02-.746.053-.746.029 0 .275.335.546.745l.494.745.44.002c.242 0 .44-.012.44-.028 0-.015-.253-.364-.562-.774-.31-.41-.548-.77-.531-.798.018-.029.073-.052.123-.053.17 0 .432-.208.551-.437.088-.17.119-.326.122-.602.005-.517-.12-.751-.502-.947-.275-.141-.32-.147-1.077-.147h-.791v1.894m2.507-1.771c0 .101.028.131.124.131.168 0 .16-.219-.008-.244-.092-.014-.116.01-.116.113m-5.227 1.851v1.815l1.054-.014 1.053-.015.016-.278.016-.279-.709-.014-.71-.015-.015-.494-.015-.493h1.337v-.583l-.653-.015-.654-.015-.015-.385-.016-.386.709-.014.709-.015v-.587l-1.053-.014-1.054-.015v1.816m4.037-1.283c.225.137.329.452.223.676-.083.175-.47.393-.698.393h-.148V14.72h.226c.131 0 .299.044.397.104m-20.476.175c.525.347.673 1.033.359 1.662-.181.361-.42.546-.76.59l-.44.056-.213.028v-2.52l.417.019c.346.016.455.044.637.165"/></svg>
