<svg xmlns="http://www.w3.org/2000/svg" viewBox="0 0 20 19">
    <path fill-rule="evenodd" d="M9.775.915a1.568 1.568 0 0 0-.748.412c-.082.086-.537.764-1.01 1.506-.474.743-.924 1.44-1.001 1.55a1.663 1.663 0 0 0-.15 1.672c.124.256 2.089 2.645 2.317 2.818.286.216.503.277.984.277.413 0 .418-.001.666-.123a1.96 1.96 0 0 0 .385-.25c.127-.12 1.794-2.257 1.991-2.553.177-.266.235-.475.238-.857.003-.404-.052-.626-.222-.88-.06-.089-.513-.832-1.008-1.65-.874-1.444-.906-1.492-1.109-1.644A1.705 1.705 0 0 0 9.775.915m1.933 4.466c-.096.159-1.555 2.02-1.578 2.012-.063-.021-1.692-2.041-1.673-2.074.049-.084 1.496-2.349 1.585-2.48l.098-.145.795 1.326c.437.729.785 1.341.773 1.361M4.933 6.587a1.613 1.613 0 0 0-.56.262c-.049.04-.747.467-1.55.948-1.351.81-1.471.889-1.608 1.064a1.641 1.641 0 0 0-.319 1.25c.051.317.224.664.427.859.088.084.768.541 1.51 1.015.743.473 1.443.924 1.556 1.001.112.077.288.171.39.209.387.145.894.123 1.266-.056.256-.122 2.648-2.089 2.842-2.336.081-.103.186-.295.237-.436.12-.325.125-.745.011-1.041-.152-.398-.263-.504-1.642-1.565-.707-.544-1.346-1.02-1.421-1.058a1.754 1.754 0 0 0-1.139-.116m9.892-.004a2.065 2.065 0 0 0-.339.124c-.192.098-2.617 2.089-2.751 2.258a2.26 2.26 0 0 0-.207.353c-.089.189-.108.275-.121.545-.024.501.09.849.386 1.177.12.132 2.213 1.766 2.566 2.003.269.18.492.239.891.237.397-.003.607-.07.967-.312.128-.086.85-.526 1.605-.979 1.485-.89 1.577-.961 1.768-1.349.089-.182.093-.212.093-.673 0-.48-.001-.485-.107-.688-.177-.339-.353-.483-1.443-1.177-.559-.356-1.276-.819-1.594-1.028-.317-.21-.662-.411-.767-.448a1.983 1.983 0 0 0-.947-.043M6.412 9.08c.545.419.986.775.981.791-.005.015-.467.403-1.025.861l-1.016.833-.122-.074c-.373-.226-2.527-1.61-2.527-1.624-.002-.041 2.646-1.595 2.681-1.574.021.013.484.367 1.028.787m10.15.037c.717.458 1.303.841 1.303.85 0 .013-1.848 1.128-2.495 1.506l-.154.09-1.017-.781c-.558-.43-1.016-.796-1.016-.815 0-.038 2.023-1.704 2.055-1.692.011.005.607.383 1.324.842m-6.754 1.535a1.34 1.34 0 0 0-.617.343c-.341.318-2.244 2.416-2.336 2.573-.131.229-.188.468-.187.799 0 .329.095.645.26.87.056.076.482.8.945 1.608.943 1.643 1.013 1.738 1.433 1.939.24.115.247.116.694.116.448 0 .454-.001.684-.115.128-.063.295-.172.371-.241.081-.075.494-.674 1.006-1.461.477-.733.95-1.441 1.05-1.573.251-.33.338-.595.336-1.01-.003-.342-.067-.581-.217-.806-.547-.82-1.812-2.565-1.954-2.695a1.603 1.603 0 0 0-1.468-.347m1.158 2.781c.391.559.712 1.036.714 1.058.003.042-1.65 2.608-1.68 2.607-.019-.001-1.58-2.71-1.582-2.746-.002-.043 1.798-1.983 1.818-1.959.011.013.34.481.73 1.04"/>
</svg>
