<svg width="32" height="32" xmlns="http://www.w3.org/2000/svg"><path d="M15.495 4.118a1.833 1.833 0 0 0-1.076.533c-.121.126-.719 1.045-1.329 2.042a110.55 110.55 0 0 1-1.286 2.074c-.257.375-.351.75-.328 1.304.015.359.05.529.159.762.14.3 2.299 3.106 2.751 3.574.367.381.735.543 1.294.57.326.015.552-.004.76-.064.555-.161.75-.366 2.086-2.179.679-.922 1.275-1.761 1.324-1.866.28-.594.229-1.527-.109-2.005-.056-.079-.611-1.031-1.233-2.116-.77-1.342-1.194-2.029-1.327-2.146-.44-.39-1.05-.565-1.686-.483m1.381 4.138.99 1.723-1.018 1.384a55.828 55.828 0 0 1-1.034 1.384c-.03 0-2.109-2.662-2.138-2.738-.016-.041.43-.825.994-1.749 1.134-1.855 1.117-1.828 1.175-1.769.022.023.486.818 1.031 1.765m-7.478 3.375a2.108 2.108 0 0 0-.575.19c-.604.315-4.215 2.641-4.331 2.79-.593.761-.595 1.933-.004 2.679.182.229 3.692 2.629 4.354 2.977.334.175.386.186.863.186.778 0 .894-.071 2.775-1.691.865-.745 1.641-1.444 1.723-1.553.55-.724.577-1.641.072-2.427-.111-.172-3.13-2.649-3.541-2.905-.343-.213-.867-.31-1.336-.246m12.709-.018a2.35 2.35 0 0 0-.827.25c-.232.135-3.108 2.582-3.349 2.849-.606.672-.679 1.811-.165 2.587.221.333 3.266 2.801 3.716 3.011.263.123.374.142.811.142.564 0 .843-.095 1.362-.464a86.106 86.106 0 0 1 1.918-1.213c2.262-1.403 2.4-1.557 2.4-2.668 0-.56-.012-.637-.141-.88a2.781 2.781 0 0 0-.346-.49c-.247-.267-4.153-2.878-4.498-3.006a2.177 2.177 0 0 0-.881-.118m-11.04 3.268c.715.572 1.301 1.056 1.303 1.077.005.055-2.594 2.282-2.662 2.282-.119 0-3.426-2.25-3.378-2.298.098-.098 3.351-2.121 3.393-2.11.024.005.629.478 1.344 1.049m12.953.079c.926.616 1.685 1.132 1.685 1.147.002.034-3.299 2.101-3.392 2.123-.079.02-2.695-2.071-2.673-2.136.022-.065 2.621-2.278 2.661-2.265.019.006.792.515 1.719 1.131m-8.723 2.134c-.137.044-.38.182-.541.306-.406.315-2.957 3.228-3.148 3.595-.323.623-.269 1.545.125 2.098.06.084.59 1.024 1.179 2.09.589 1.065 1.13 2.016 1.204 2.113.202.267.641.531 1.049.632a2.015 2.015 0 0 0 1.752-.408c.129-.107.579-.776 1.302-1.935.607-.974 1.196-1.893 1.308-2.041.408-.541.566-1.12.47-1.723a2.197 2.197 0 0 0-.14-.508c-.173-.337-2.33-3.533-2.517-3.729a2.245 2.245 0 0 0-.533-.371c-.288-.142-.411-.17-.8-.183-.302-.01-.546.012-.71.064m1.585 3.622.948 1.41-1.083 1.735c-.596.954-1.101 1.725-1.122 1.711-.059-.036-1.983-3.538-1.991-3.624-.007-.072 2.196-2.638 2.266-2.64.019-.001.46.633.982 1.408" fill-rule="evenodd" fill="#000"/></svg>
