<svg xmlns="http://www.w3.org/2000/svg" viewBox="0 0 32 32" xml:space="preserve"><path d="M23.25 5.651c-.307.056-.746.24-1.09.457-.348.219-1.074.981-3.09 3.242l-1.65 1.85-3.283.005c-1.806.003-4.292.022-5.524.042l-2.24.037-.4.172a3.34 3.34 0 0 0-1.872 1.984c-.118.335-.123.42-.142 2.495-.018 1.917-.01 2.178.071 2.427.252.768.749 1.451 1.33 1.825.147.095.447.239.667.322.387.144.442.15 1.715.18.724.017 1.33.045 1.347.062.017.017-.174.785-.425 1.707-.252.921-.542 2.02-.646 2.441-.185.755-.187.77-.099 1a.737.737 0 0 0 .635.487c.256.029.769-.152 3.069-1.08 1.807-.73 2.206-.904 2.433-1.057.202-.137.942-.938 2.365-2.556l.875-.995 4.138-.016 4.139-.016.4-.153c.983-.378 1.618-1.053 1.981-2.108.09-.26.099-.471.097-2.16-.001-1.332-.022-1.987-.073-2.272a3.331 3.331 0 0 0-1.804-2.379l-.364-.184.282-.32c.434-.494.672-.889.823-1.372.123-.393.136-.503.113-1.013-.029-.634-.136-1.009-.427-1.494-.381-.632-1.195-1.283-1.839-1.47-.344-.1-1.185-.15-1.512-.09m1.103 1.681c.369.11.675.39.881.808.172.35.251.793.187 1.05-.043.169-.362.576-1.072 1.365l-.58.645h-4.253l.679-.813c1.922-2.301 2.335-2.77 2.548-2.894.38-.223 1.144-.299 1.61-.161m-13.141 5.837.175.156v4.728l-.146.248c-.164.28-.327.349-.602.259-.192-.064-.346-.252-.346-.424 0-.098-.023-.091-.238.073-.267.204-.755.404-.985.404-.201 0-.787-.184-.997-.314-.236-.145-.436-.589-.568-1.261-.099-.502-.105-.616-.05-.993.07-.477.259-.881.516-1.098.64-.542 1.626-.548 2.234-.013l.195.17.001-.712c0-.872.031-1.074.19-1.245.171-.184.4-.176.621.022m10.757-.007c.106.079.138.15.138.305 0 .24-.053.276-.466.321-.42.045-.52.139-.535.505l-.013.293.309.033c.354.039.518.156.518.372 0 .233-.125.316-.476.316h-.309l-.027 1.476c-.027 1.452-.029 1.478-.148 1.574-.241.195-.506.191-.765-.013l-.142-.112V15.32l-.302-.025c-.245-.021-.326-.053-.427-.17-.154-.179-.154-.197.001-.364.087-.095.206-.147.393-.172l.268-.037.026-.39c.04-.634.252-.929.77-1.076.358-.101 1.006-.059 1.187.076m1.392.1c.218.129.266.282.266.847v.504h.289c.321 0 .457.087.457.292 0 .2-.163.352-.414.385l-.226.031.001 1.126c.001 1.364.008 1.387.427 1.407.408.019.521.052.584.169.075.141.022.249-.183.376-.436.269-1.263.242-1.593-.052-.157-.141-.164-.165-.202-.753a29.236 29.236 0 0 1-.043-1.447l-.004-.84h-.138c-.298 0-.6-.309-.527-.538.028-.089.309-.208.492-.209.048 0 .066-.132.066-.483 0-.503.071-.74.254-.846.138-.081.324-.069.494.031m-10.358 1.353a.614.614 0 0 1 .231.262l.054.155.2-.2a1.021 1.021 0 0 1 1.421-.033c.223.21.24.403.053.59-.152.153-.183.156-.53.05-.5-.151-.729-.063-.949.366-.1.196-.118.351-.153 1.342-.022.616-.058 1.164-.079 1.217-.081.204-.567.265-.774.098-.085-.069-.133-.184-.162-.387-.058-.412-.056-2.623.004-3.035.074-.514.304-.657.684-.425m4.846.057c.405.071.642.219.799.498.146.261.168.415.232 1.659.028.563.085 1.127.127 1.266.075.249.074.253-.066.351-.253.179-.354.183-.542.025a1.466 1.466 0 0 1-.264-.295l-.09-.148-.263.168c-.407.261-.727.364-1.129.364-.467-.001-.719-.074-.951-.278a1.169 1.169 0 0 1-.418-.906c-.004-.583.317-.828 1.383-1.056.41-.088.869-.196 1.019-.24l.273-.079-.04-.22c-.074-.404-.381-.556-.961-.474-.367.052-.473.116-.693.42-.25.345-.59.41-.773.148-.191-.273.013-.833.37-1.015.458-.233 1.28-.311 1.987-.188m-8.616.582c-.419.098-.698.52-.741 1.118-.038.532.063.925.294 1.15.386.375.854.363 1.21-.031.234-.26.322-.53.319-.984-.002-.294-.033-.439-.148-.678-.144-.301-.402-.576-.54-.576a.589.589 0 0 1-.143-.021.695.695 0 0 0-.251.022m8.114 1.463c-.806.196-1.027.34-1.027.67 0 .322.336.572.683.507.261-.049.541-.2.711-.382.196-.211.347-.932.193-.92a9.399 9.399 0 0 0-.56.125m-2.396 4.096c-.059.066-.415.492-.791.947-1.096 1.327-.956 1.218-2.199 1.709-1.833.724-1.934.758-1.934.644 0-.217.799-2.998.94-3.273l.076-.147h4.016l-.108.12" fill="#A12577" fill-rule="evenodd"/></svg>