<svg xmlns="http://www.w3.org/2000/svg" xml:space="preserve" viewBox="0 0 32 32"><path fill="#A12577" fill-rule="evenodd" d="M23.307 5.637c-.465.078-1.026.334-1.428.652-.152.12-1.216 1.273-2.365 2.563l-2.089 2.345-5.392.017c-5.007.016-5.416.024-5.713.113-1.174.351-2.056 1.277-2.293 2.406-.06.287-.079.805-.079 2.229-.001 1.961.035 2.354.267 2.895.241.564.761 1.135 1.305 1.437.597.33.771.36 2.27.395l1.363.031-.653 2.373c-.36 1.306-.655 2.432-.657 2.503-.005.21.204.578.394.695.335.208.449.176 3.029-.855 1.328-.53 2.543-1.04 2.7-1.133.222-.131.631-.56 1.806-1.89l1.519-1.72 3.981-.001c4.37-.001 4.413-.003 5.058-.32.857-.421 1.441-1.186 1.64-2.15.117-.565.119-3.775.003-4.329-.2-.955-.896-1.866-1.747-2.286l-.414-.204.269-.294c.489-.535.759-1.01.902-1.589.09-.362.078-1.105-.023-1.488-.29-1.098-1.3-2.096-2.379-2.35a4.296 4.296 0 0 0-1.274-.045m1.213 1.748c.353.164.509.331.747.802.222.437.256.833.101 1.154-.052.106-.433.568-.848 1.026l-.753.833h-4.251l1.37-1.64c.754-.902 1.455-1.729 1.558-1.838.316-.335.673-.45 1.423-.462.292-.004.434.023.653.125m-13.373 5.708a.42.42 0 0 1 .21.28c.084.302.074 4.466-.011 4.709-.16.459-.357.593-.703.479-.217-.072-.35-.232-.35-.423v-.131l-.146.139c-.206.196-.803.467-1.029.467-.283 0-.8-.148-1.018-.292-.273-.18-.391-.4-.556-1.04-.24-.931-.133-1.715.302-2.208.601-.683 1.73-.741 2.381-.123l.173.164v-.84c0-.642.019-.876.08-.994.139-.269.378-.336.667-.187m10.711.003c.257.103.361.296.275.506-.056.133-.089.146-.435.171-.487.035-.599.134-.602.533l-.003.281.214.014c.468.031.613.127.613.405 0 .247-.083.301-.462.301h-.333l-.016 1.471-.016 1.471-.149.129a.532.532 0 0 1-.735-.027l-.156-.156v-2.888h-.205c-.292 0-.515-.091-.597-.244-.061-.116-.057-.15.038-.277.084-.114.175-.157.409-.195l.302-.048v-.298c.001-.843.396-1.219 1.292-1.228.209-.002.446.031.566.079m1.603.232c.165.154.166.156.166.72v.565h.309c.354 0 .437.058.437.3 0 .217-.206.394-.46.394h-.18v1.196c0 1.413-.019 1.364.529 1.364.289 0 .38.02.454.102.128.141.09.272-.12.413-.516.347-1.563.239-1.772-.183-.052-.107-.077-.511-.093-1.519l-.022-1.373h-.146c-.234 0-.507-.214-.526-.412-.019-.189.054-.249.377-.31l.199-.037v-.523c0-.485.01-.535.138-.688.19-.225.475-.229.71-.009m-10.472 1.264a.43.43 0 0 1 .241.271l.062.187.154-.187a.996.996 0 0 1 .88-.337c.651.089.993.609.595.905-.142.106-.155.106-.432.019-.539-.17-.774-.097-.985.307-.137.261-.142.306-.169 1.435-.028 1.143-.031 1.166-.154 1.266-.141.114-.483.137-.656.044-.231-.124-.258-.325-.258-1.927 0-1.583.031-1.849.227-1.987.148-.104.271-.103.495.004m4.926.085c.268.046.386.098.546.243.313.283.373.544.417 1.827.026.764.063 1.17.122 1.349l.084.255-.205.136c-.138.091-.242.124-.317.1-.139-.044-.482-.392-.482-.489 0-.098-.015-.093-.287.09-.412.278-.717.386-1.097.389-.666.006-1.06-.194-1.294-.658-.174-.346-.187-.628-.045-.942.124-.273.504-.51.954-.594.712-.134.909-.177 1.262-.272l.374-.1-.018-.179c-.044-.454-.291-.608-.886-.549-.396.039-.574.13-.722.368-.241.391-.511.494-.767.292-.165-.13-.189-.401-.062-.705.103-.247.297-.393.663-.501.586-.172 1.023-.187 1.76-.06m-8.758.592c-.284.09-.43.25-.57.623-.101.27-.116.397-.097.788.029.568.12.763.457.976.297.189.497.198.815.037.191-.096.269-.182.398-.436.136-.269.16-.377.16-.721 0-.357-.022-.45-.187-.777-.243-.486-.533-.631-.976-.49m8.171 1.45c-.838.183-1.008.303-1.008.713 0 .341.402.559.813.439.314-.092.63-.319.71-.511.085-.205.157-.775.096-.769-.025.003-.3.06-.611.128m-2.352 4.068c-.044.051-.477.574-.963 1.163-.673.815-.932 1.091-1.088 1.159-.492.216-2.952 1.142-2.951 1.111.001-.132.823-3.072.915-3.273l.116-.254h2.026c1.924 0 2.022.005 1.945.094"/></svg>
