<svg xmlns="http://www.w3.org/2000/svg" viewBox="0 0 14 14">
    <path fill-rule="evenodd" d="M.3.302 0 .603v4.482l1.951 3.483a1095.79 1095.79 0 0 0 2.034 3.624c.145.244.39.554.586.741l.188.18h4.482l.188-.18c.196-.187.441-.497.586-.741.046-.077.961-1.708 2.034-3.624L14 5.085V.637L13.849.46a3.643 3.643 0 0 0-.315-.318L13.369 0H.6L.3.302m11.021 1.964c.103.021.145.047.245.15.156.159.211.32.172.506-.019.093-.546 1.052-2.168 3.948-1.179 2.103-2.177 3.859-2.217 3.902a.492.492 0 0 1-.706 0c-.104-.109-4.351-7.697-4.383-7.831-.068-.288.138-.625.415-.679.15-.029 8.502-.025 8.642.004"/>
</svg>
