<svg width="32" height="32" xmlns="http://www.w3.org/2000/svg"><path d="M9.025 7.521a3.145 3.145 0 0 0-1.878 1.338 3.12 3.12 0 0 0-.301 2.856c.068.171 1.402 2.544 2.965 5.272 4.225 7.371 4.018 7.023 4.4 7.405 1.22 1.219 3.226 1.21 4.452-.02.373-.375.084.118 6.015-10.239.822-1.434 1.338-2.394 1.407-2.613.237-.759.169-1.573-.197-2.336-.149-.311-.295-.508-.602-.812-.466-.462-.878-.7-1.478-.853-.4-.103-.61-.106-7.403-.103-6.703.003-7.008.007-7.38.105m14.19 2.99c.041.066-.685 1.371-3.299 5.932-1.844 3.216-3.384 5.86-3.421 5.874a.215.215 0 0 1-.135.001c-.053-.021-6.542-11.262-6.728-11.655a.161.161 0 0 1 .02-.182c.061-.072.815-.08 6.789-.068 6.057.012 6.726.022 6.774.098" fill-rule="evenodd" fill="#000"/></svg>
