<svg width="32" height="32" xmlns="http://www.w3.org/2000/svg"><path d="M8.646 6.776c-.761.199-1.277.512-1.83 1.11-.336.362-.683 1.011-.819 1.527-.096.369-.111 1.199-.028 1.617.031.156.111.42.179.587.118.291 6.429 11.349 6.884 12.063a3.724 3.724 0 0 0 1.981 1.531c.371.123.515.142 1.094.142.579 0 .722-.019 1.093-.142.766-.254 1.453-.758 1.878-1.376.15-.218 6.714-11.641 6.918-12.038.282-.551.387-1.678.217-2.33a3.728 3.728 0 0 0-2.681-2.697c-.388-.1-.657-.103-7.447-.1-6.789.002-7.059.006-7.439.106" fill="#A12577" fill-rule="evenodd"/></svg>
