<svg xmlns="http://www.w3.org/2000/svg" viewBox="0 0 42 42">
  <path fill="#a12577" fill-rule="evenodd" d="M18.935 5.12c-1.121.143-2.996.71-3.543 1.072-.754.499-.762 1.812-.014 2.307.542.358 1.165.37 1.896.036.576-.264 2.945-.307 4.035-.074.381.082.822.15.98.151.157 0 .423.063.591.14.263.119.458.138 1.4.137 1.001 0 1.125-.014 1.448-.165.804-.374 1.076-1.193.664-2-.227-.445-.552-.666-1.378-.938-1.705-.561-2.839-.75-4.442-.737-.631.005-1.367.037-1.637.071m8.497 2.496c-.701.366-1.006 1.175-.702 1.863.169.382.473.755 1.452 1.783.79.831.938 1.025.938 1.232 0 .249.559 1.019.895 1.232 1.035.656 2.349-.051 2.238-1.204-.035-.369-.504-1.405-.978-2.162-.761-1.215-2.157-2.695-2.694-2.855-.438-.132-.742-.102-1.149.111M10.85 9.656c-.135.071-.53.424-.877.784-.975 1.011-1.628 1.916-2.25 3.118-.404.782-.466 1.135-.277 1.587.136.325.527.749.793.86.516.216 1.257.049 1.641-.369.101-.11.422-.579.713-1.041.29-.462.601-.933.69-1.046s.202-.301.252-.416c.049-.116.35-.465.668-.774.426-.416.599-.64.662-.852.136-.462.104-.814-.11-1.224-.158-.302-.266-.41-.568-.568-.449-.235-.962-.257-1.337-.059m9.187 3.247a1.7 1.7 0 0 0-.857.747c-.138.27-.14.416-.14 9.997v9.724l-.409.037c-.65.059-1.092.337-1.358.856-.401.783.076 1.819.952 2.063.2.056.986.074 2.53.059l2.24-.021.331-.194c.608-.358.896-1.129.656-1.757-.243-.638-.871-1.024-1.664-1.024h-.337l-.018-9.794-.018-9.794-.21-.303c-.381-.549-1.116-.807-1.698-.596m11.988 3.749a1.3 1.3 0 0 0-.697.724c-.09.217-.108.646-.106 2.624.001 2.651.011 2.711.508 3.147.686.603 1.878.348 2.283-.487.141-.291.147-.408.147-2.7 0-2.254-.008-2.412-.139-2.669-.339-.664-1.285-.967-1.996-.639m-24.002.251a1.8 1.8 0 0 0-.54.359c-.459.448-.483.603-.483 3.143v2.25l.193.38c.126.248.297.452.496.59.269.186.361.21.81.21.434 0 .547-.027.795-.191a1.9 1.9 0 0 0 .485-.525l.196-.334.023-2.17c.015-1.441-.004-2.292-.056-2.532a1.56 1.56 0 0 0-.849-1.099c-.413-.205-.667-.224-1.07-.081m17.782.906c-.333.123-.64.407-.839.776l-.151.28v15.12l.149.28c.113.213.134.321.084.453-.191.509.415 1.441 1.048 1.609.204.055 1.02.073 2.555.059 2.459-.023 2.442-.02 2.878-.452.607-.601.602-1.442-.014-2.074-.396-.407-.712-.47-2.338-.47H27.79V18.916l-.196-.374c-.345-.661-1.124-.98-1.789-.733m-11.523.609a1.6 1.6 0 0 0-.814.789l-.167.358v6.907l-.001 6.907-1.592.023c-1.583.023-1.595.024-1.913.211a2 2 0 0 0-.525.484c-.181.261-.205.356-.205.803 0 .451.024.542.21.811.138.199.342.37.59.497l.38.192h2.21c1.342-.001 2.315-.03 2.477-.075.353-.098.763-.477.922-.85.07-.165.193-.442.274-.615.146-.313.147-.367.169-7.665.015-5.333-.001-7.452-.059-7.722a1.41 1.41 0 0 0-1.413-1.129c-.203.003-.448.036-.543.074m-6.267 6.183c-.36.133-.841.641-.938.991-.101.363-.103 4.448-.002 4.81.083.299.479.775.77.926.575.297 1.206.178 1.686-.317.47-.486.495-.656.467-3.256l-.023-2.17-.194-.331c-.35-.594-1.136-.885-1.766-.653m24.247-.004c-.414.147-.669.372-.861.757l-.181.363v2.286c0 2.357.02 2.559.297 2.956.174.251.605.468 1.024.518.638.075 1.372-.402 1.55-1.008.052-.177.07-1.043.056-2.621l-.022-2.356-.21-.304a1.6 1.6 0 0 0-.59-.495c-.416-.211-.676-.235-1.063-.096"/>
</svg>
