<svg width="32" height="32" xmlns="http://www.w3.org/2000/svg"><path d="M19.707 7.07c-.31.161-.518.432-1.021 1.331l-.507.908-.948.492c-1.305.677-1.547.938-1.55 1.669-.001.403.169.812.429 1.031.085.071.561.34 1.058.596l.903.465.514.921c.558 1.001.787 1.271 1.218 1.436.495.189 1.171.029 1.509-.356.085-.098.371-.569.635-1.048l.48-.87.986-.497c1.386-.697 1.573-.897 1.573-1.681-.001-.502-.096-.757-.381-1.02-.083-.077-.585-.364-1.115-.638l-.963-.497-.477-.855c-.728-1.303-.925-1.471-1.734-1.47-.302 0-.502.028-.609.083M10.64 8.11c-.849.117-1.641.706-2.018 1.5-.259.547-.302.82-.301 1.926.001 1.449.135 1.875.799 2.545.405.408.861.666 1.372.774.484.102 1.791.101 2.281-.002 1.087-.229 1.961-1.102 2.16-2.154.071-.381.069-2.09-.004-2.489-.169-.923-.881-1.713-1.805-2.001-.277-.087-.535-.114-1.231-.13-.484-.011-1.048.003-1.253.031m9.925 2.347c.213.405.459.641.902.866l.266.135-.346.16c-.41.189-.668.443-.924.909l-.186.34-.099-.18a1.375 1.375 0 0 1-.125-.42l-.026-.24-.52-.267c-.286-.147-.52-.28-.52-.297 0-.016.146-.1.324-.185.376-.18.598-.406.852-.868.1-.182.187-.33.193-.33.006 0 .101.169.209.377m-7.978-.004c.098.099.106.178.106 1.006v.9l-.14.14c-.139.139-.151.141-.899.141-.731 0-.764-.005-.9-.131l-.141-.131v-.874c0-.855.003-.878.131-1.016.13-.141.134-.141.933-.141.732 0 .812.009.91.106m-1.431 5.699a1.525 1.525 0 0 0-.468.28c-.102.099-.416.594-.699 1.1l-.513.921-.938.483c-1.289.663-1.551.946-1.551 1.677 0 .743.216.975 1.543 1.66l.999.516.449.806c.692 1.244.896 1.415 1.685 1.417.24.001.497-.022.571-.05.307-.116.565-.442 1.076-1.355l.511-.916.948-.492c1.286-.667 1.493-.881 1.539-1.59.02-.298.003-.427-.08-.613-.19-.429-.337-.544-1.399-1.092l-1.013-.524-.482-.832c-.264-.457-.571-.924-.681-1.038a1.438 1.438 0 0 0-1.497-.358m7.783 1.106c-.675.181-1.353.741-1.649 1.362-.242.507-.291.904-.264 2.14.021.938.039 1.122.14 1.4a2.836 2.836 0 0 0 2.02 1.762c.475.1 1.842.101 2.314.001.985-.209 1.837-1.004 2.082-1.945.127-.485.136-2.296.015-2.829-.144-.631-.534-1.177-1.113-1.557-.557-.365-.836-.419-2.13-.415-.808.002-1.209.025-1.415.081m-7.072 2.286c.223.398.455.619.859.817.158.078.287.156.287.174 0 .017-.143.1-.318.184-.386.184-.567.367-.845.847l-.211.367-.201-.383c-.22-.419-.457-.65-.762-.741a1.223 1.223 0 0 1-.301-.135c-.097-.07-.083-.085.214-.236.385-.196.643-.461.883-.905.098-.183.185-.333.191-.333.006 0 .098.155.204.344m9.432-.031c.075.063.088.204.088 1.003v.929l-.141.131c-.136.126-.169.131-.899.131-.731 0-.763-.005-.899-.131l-.141-.131v-.899c0-.913.021-1.025.213-1.098.044-.016.442-.025.885-.019.591.008.829.03.894.084" fill-rule="evenodd" fill="#000"/></svg>
