<svg xmlns="http://www.w3.org/2000/svg" viewBox="0 0 21 21">
    <path fill-rule="evenodd" d="M2.607.784A2.926 2.926 0 0 0 .45 2.692c-.322.923-.115 2.047.512 2.784.625.736 1.46 1.099 2.405 1.046.806-.044 1.513-.398 2.054-1.027a2.934 2.934 0 0 0 .529-2.803A2.913 2.913 0 0 0 3.779.783c-.284-.06-.892-.06-1.172.001m13.88.002a2.818 2.818 0 0 0-1.393.741c-.599.572-.903 1.273-.905 2.09-.003 1.321.813 2.411 2.101 2.806.263.08.345.089.793.089.449 0 .531-.009.794-.089.879-.27 1.551-.865 1.887-1.671.168-.405.215-.652.213-1.135-.002-.535-.071-.826-.309-1.3-.347-.692-.923-1.187-1.681-1.444-.308-.104-.377-.115-.804-.126-.337-.009-.53.002-.696.039m-6.927.799c-.895.217-1.561 1.078-1.559 2.015.001.721.485 1.483 1.136 1.793.361.172.577.222.946.22a1.948 1.948 0 0 0 1.363-.55 1.91 1.91 0 0 0 .645-1.38 1.958 1.958 0 0 0-.588-1.552c-.399-.399-.89-.6-1.452-.595a2.777 2.777 0 0 0-.491.049m-5.86.952c.768.358.937 1.366.327 1.95-.499.478-1.229.46-1.697-.042a1.117 1.117 0 0 1-.323-.904c.034-.467.309-.843.754-1.03.263-.11.672-.099.939.026m13.912.012c.212.107.446.338.55.542.15.294.154.73.009 1.058-.091.204-.365.47-.596.578-.259.12-.705.127-.953.014-.33-.15-.603-.457-.689-.775a1.505 1.505 0 0 1 .017-.734c.106-.317.449-.65.783-.758.064-.021.246-.034.403-.029.239.007.318.024.476.104M9.957 6.381a1.006 1.006 0 0 0-.482.358c-.05.076-.325.552-.61 1.058l-.518.92-.975.55c-.536.302-1.025.591-1.088.641a1.09 1.09 0 0 0-.218.305.978.978 0 0 0 .191 1.159c.069.067.568.37 1.107.673l.982.551.555.987c.321.571.609 1.042.682 1.117a1 1 0 0 0 1.409-.01c.084-.086.347-.516.684-1.117l.549-.977.979-.55c.613-.344 1.032-.601 1.119-.686.401-.392.388-1.008-.03-1.417-.092-.09-.489-.335-1.106-.683l-.962-.543-.563-.999c-.31-.55-.604-1.041-.653-1.093a1.346 1.346 0 0 0-.288-.193.755.755 0 0 0-.418-.097 1.36 1.36 0 0 0-.346.046m.681 2.766c.276.529.543.92.628.92.031 0 1.172.596 1.212.633.016.015-.265.179-.624.365-.516.268-.679.37-.781.486-.071.08-.268.413-.438.739-.17.326-.321.606-.335.621-.014.015-.164-.24-.334-.567-.466-.896-.413-.841-1.219-1.262-.377-.196-.673-.368-.658-.382.015-.014.305-.17.644-.348.358-.187.67-.374.744-.445.083-.082.241-.344.461-.769.185-.354.347-.632.362-.616.014.015.166.297.338.625m-7.655-.578a2.06 2.06 0 0 0-1.768 1.521c-.068.25-.068.769-.001 1.018a2.087 2.087 0 0 0 1.071 1.321c.315.154.555.208.915.208.639 0 1.164-.246 1.588-.745.291-.343.449-.799.449-1.292 0-.361-.054-.598-.211-.925-.149-.309-.589-.751-.896-.898a2.085 2.085 0 0 0-1.147-.208m13.856.002a2.047 2.047 0 0 0-1.74 1.549c-.231.905.235 1.909 1.071 2.307.348.165.552.213.913.213.362 0 .565-.048.914-.214a2.047 2.047 0 0 0 1.087-1.38 2.005 2.005 0 0 0-.55-1.88 2.01 2.01 0 0 0-1.695-.595M2.705 15.104c-.848.141-1.651.728-2.078 1.518-.347.645-.424 1.561-.189 2.254a2.876 2.876 0 0 0 1.479 1.691c.499.243.673.282 1.283.282.609 0 .783-.038 1.283-.281a2.897 2.897 0 0 0 1.587-2.142 3.333 3.333 0 0 0-.086-1.276 2.928 2.928 0 0 0-3.279-2.046m13.908-.003c-.526.094-1.096.37-1.467.71-.638.585-.955 1.3-.956 2.156 0 .841.3 1.533.921 2.123.316.3.667.507 1.101.649.328.108.354.111.888.11.528-.001.562-.006.867-.108a2.91 2.91 0 0 0 1.701-1.458c.365-.728.422-1.496.168-2.24a2.912 2.912 0 0 0-1.959-1.863c-.327-.097-.949-.136-1.264-.079m-7.073.833a2.076 2.076 0 0 0-1.429 1.349c-.072.217-.089.333-.091.617-.004.586.174 1.025.58 1.436.276.279.499.419.85.536.326.108.865.11 1.2.004a2.044 2.044 0 0 0 1.233-1.058c.168-.351.217-.556.217-.911a2.049 2.049 0 0 0-2.56-1.973m-5.847.949c.465.212.736.669.7 1.179a1.219 1.219 0 0 1-.693 1.002c-.157.074-.229.086-.5.086s-.343-.012-.5-.086a1.369 1.369 0 0 1-.594-.594c-.15-.327-.134-.771.037-1.07a1.33 1.33 0 0 1 .782-.599c.206-.052.555-.015.768.082m13.89-.004c.223.102.498.37.588.572.145.328.141.764-.009 1.058a1.403 1.403 0 0 1-.553.543c-.175.089-.223.098-.526.098-.289 0-.355-.011-.5-.083-.256-.129-.525-.413-.613-.65-.086-.228-.102-.602-.035-.807.091-.281.35-.581.622-.722.281-.145.72-.149 1.026-.009"/>
</svg>
