<svg xmlns="http://www.w3.org/2000/svg" viewBox="0 0 14 16">
    <path fill-rule="evenodd" d="M10.052.76a1.187 1.187 0 0 0-.485.344c-.045.059-.25.424-.455.809l-.374.7-.723.39c-.642.345-.739.405-.866.533-.16.162-.246.32-.305.557-.078.32.036.707.28.947.098.097.262.196.807.489.376.203.697.383.714.401.017.017.202.351.412.742.449.837.517.925.831 1.081l.2.099h.27c.262 0 .276-.003.446-.084.291-.139.352-.219.807-1.063l.399-.741.733-.377c.661-.342.747-.393.889-.529a1.04 1.04 0 0 0 .329-.638c.069-.479-.153-.873-.634-1.126-.523-.274-1.232-.662-1.255-.687a18.628 18.628 0 0 1-.395-.714c-.465-.866-.571-.991-.955-1.123a1.418 1.418 0 0 0-.67-.01m-7.186.91c-.41.074-.723.244-1.048.568a2.119 2.119 0 0 0-.596 1.069c-.049.211-.072 1.395-.033 1.766.094.899.7 1.616 1.576 1.862.176.049.23.052.945.052.714 0 .769-.003.945-.052a2.8 2.8 0 0 0 .683-.312c.385-.263.687-.687.838-1.18.063-.204.063-.209.072-1.059.01-.953-.006-1.131-.135-1.463-.193-.502-.664-.967-1.159-1.147-.333-.12-.52-.141-1.253-.139-.449.002-.712.013-.835.035m7.692 1.753c.181.362.305.485.705.7l.291.156-.315.158c-.407.204-.516.311-.73.713a1.82 1.82 0 0 1-.169.287.632.632 0 0 1-.097-.158.707.707 0 0 1-.093-.328l-.012-.171-.431-.232a9.78 9.78 0 0 1-.449-.251c-.01-.01.114-.085.275-.167.368-.186.489-.309.709-.719.083-.155.157-.277.165-.272.008.004.076.132.151.284m-6.155-.026c.141.103.147.141.147.883 0 .64-.003.681-.049.778a.449.449 0 0 1-.145.164c-.094.063-.097.063-.586.07a6.61 6.61 0 0 1-.568-.007.503.503 0 0 1-.275-.224c-.027-.053-.034-.195-.033-.737 0-.605.005-.682.044-.768a.415.415 0 0 1 .212-.203c.019-.008.294-.012.611-.009.541.004.58.007.642.053M3.43 8.058c-.178.049-.33.138-.466.272-.11.109-.188.239-.523.865l-.395.737-.713.383c-.83.446-.941.532-1.091.849a.805.805 0 0 0-.097.406c-.008.188-.002.25.04.373.127.374.213.446 1.14.944l.763.411.359.668c.426.791.501.888.815 1.043l.199.099h.271c.262 0 .275-.002.445-.084.292-.14.353-.221.807-1.065l.398-.741.512-.275c.884-.477.936-.508 1.071-.641.33-.328.418-.827.219-1.238-.132-.27-.231-.344-1.059-.789l-.745-.401-.377-.673c-.483-.862-.591-.987-.974-1.115a1.08 1.08 0 0 0-.599-.028m6.113.867a2.017 2.017 0 0 0-1.186.671c-.21.245-.321.447-.416.757-.063.205-.063.209-.073 1.069-.01.942.001 1.078.113 1.407a2.14 2.14 0 0 0 1.14 1.242c.392.166.449.174 1.286.173.704-.001.771-.004.938-.051a2.152 2.152 0 0 0 1.425-1.243c.138-.328.159-.472.173-1.19.015-.77-.012-1.169-.1-1.45a2.035 2.035 0 0 0-1.421-1.354c-.172-.047-.248-.051-.945-.057-.578-.005-.8.001-.934.026m-5.637 1.822c.148.29.314.444.699.649l.276.147-.101.059c-.056.032-.19.103-.298.157-.269.135-.406.284-.6.649a2.045 2.045 0 0 1-.168.285c-.009 0-.083-.126-.164-.28a3.084 3.084 0 0 0-.206-.351.966.966 0 0 0-.369-.245c-.137-.05-.408-.195-.408-.217 0-.008.131-.082.291-.163.367-.186.483-.305.705-.724.179-.336.153-.339.343.034m7.168-.098c.148.089.149.099.149.893 0 .807.002.796-.177.933l-.087.067-.504.007c-.312.005-.535-.002-.588-.017a.394.394 0 0 1-.256-.222c-.039-.085-.043-.163-.044-.767 0-.709.008-.772.111-.864.083-.074.17-.083.752-.079.514.005.579.009.644.049"/>
</svg>
