<svg width="32" height="32" xmlns="http://www.w3.org/2000/svg"><path d="M6.625 4.108c-1.167.305-2.147 1.257-2.498 2.425-.133.443-.133 1.425 0 1.867.26.865.956 1.723 1.724 2.123a3.699 3.699 0 0 0 3.392 0c.767-.4 1.464-1.258 1.724-2.123.132-.442.132-1.424 0-1.867-.26-.865-.957-1.722-1.724-2.122-.78-.407-1.78-.523-2.618-.303m16.906-.003c-.956.258-1.82.957-2.243 1.816-.505 1.024-.505 2.067 0 3.092.289.586.899 1.212 1.469 1.51a3.699 3.699 0 0 0 3.392 0c.574-.299 1.182-.925 1.467-1.51.501-1.029.5-2.079-.003-3.092-.395-.792-1.213-1.493-2.066-1.769-.511-.166-1.492-.189-2.016-.047m-8.236.938a2.48 2.48 0 0 0-1.865 2.014c-.168 1.012.401 2.047 1.391 2.531.402.197.411.199 1.072.199.664 0 .669-.001 1.082-.203.989-.483 1.55-1.511 1.381-2.529a2.493 2.493 0 0 0-3.061-2.012M8.133 6.18c.302.137.539.351.708.639.124.211.145.307.144.648-.001.453-.105.708-.407.997-.279.266-.6.387-1.031.387-.432 0-.753-.121-1.032-.387-.303-.29-.406-.544-.406-.997 0-.307.027-.45.114-.614a1.56 1.56 0 0 1 .71-.662c.316-.143.9-.148 1.2-.011m16.976.038c.48.239.811.752.811 1.256 0 .508-.363 1.047-.853 1.269-.349.157-.902.15-1.254-.017a1.38 1.38 0 0 1 .027-2.535c.362-.164.91-.152 1.269.027m-9.369 4.54c-.128.045-.32.171-.427.28-.106.109-.487.713-.845 1.343l-.653 1.146-1.161.635c-.638.349-1.261.728-1.384.841-.5.459-.491 1.229.018 1.696.084.076.668.42 1.299.764.63.344 1.174.654 1.209.688.034.034.344.554.688 1.156.665 1.161.832 1.385 1.164 1.556.436.225 1.129.09 1.44-.279.071-.085.425-.671.785-1.303l.656-1.147 1.042-.569c1.49-.813 1.562-.863 1.728-1.197.256-.514.154-1.005-.293-1.408-.13-.117-.741-.488-1.358-.825l-1.12-.611-.682-1.188c-.736-1.284-.92-1.505-1.339-1.61-.304-.077-.481-.07-.767.032M16.587 14c.209.396.442.794.517.884.076.089.356.272.623.405.268.134.64.328.828.433l.341.189-.835.418c-.959.481-.947.469-1.505 1.52-.192.362-.365.657-.386.657-.02-.001-.205-.318-.41-.706-.205-.388-.441-.783-.524-.877-.091-.104-.467-.338-.946-.588-.438-.228-.796-.428-.796-.444-.001-.015.267-.159.595-.32.328-.16.733-.379.9-.486.292-.186.322-.228.724-.999.231-.443.437-.805.457-.806.02 0 .208.324.417.72m-9.701-.582c-1.083.291-1.819 1.239-1.819 2.342 0 1.418 1.161 2.493 2.608 2.414.77-.042 1.359-.339 1.832-.923.343-.423.477-.789.507-1.384.028-.565-.087-.984-.397-1.451-.569-.858-1.707-1.274-2.731-.998m16.914-.002c-1.098.295-1.827 1.231-1.827 2.345 0 1.417 1.162 2.492 2.608 2.413.763-.042 1.361-.34 1.819-.907.377-.467.507-.859.507-1.534 0-.536-.009-.577-.2-.977a2.505 2.505 0 0 0-2.907-1.34M6.625 21.174c-1.167.306-2.147 1.258-2.498 2.426-.133.442-.133 1.424 0 1.867.26.865.956 1.722 1.724 2.122 1.054.55 2.337.55 3.392 0 .767-.4 1.464-1.257 1.724-2.122.132-.443.132-1.425 0-1.867-.26-.865-.957-1.723-1.724-2.123-.78-.406-1.78-.522-2.618-.303m16.906 0c-.948.249-1.819.952-2.243 1.813-.505 1.025-.505 2.068 0 3.092.289.586.899 1.213 1.469 1.51 1.055.55 2.338.55 3.392 0 .574-.299 1.182-.925 1.467-1.51.501-1.028.5-2.075-.003-3.092-.432-.876-1.294-1.568-2.259-1.815a4.051 4.051 0 0 0-1.823.002m-8.264.935c-1.233.332-2.05 1.551-1.832 2.735.171.929.787 1.631 1.697 1.933.286.095.436.111.886.094.493-.02.578-.039.948-.218.992-.481 1.559-1.512 1.39-2.531-.238-1.44-1.694-2.389-3.089-2.013M8.16 23.258c.295.133.559.379.71.662.088.164.114.307.114.613 0 .454-.103.708-.406.997-.279.267-.6.388-1.031.388-.432 0-.753-.121-1.032-.388-.303-.289-.406-.543-.406-.997 0-.453.103-.707.406-.997.279-.266.6-.387 1.032-.387.261 0 .445.033.613.109m16.949.027c.153.076.36.234.461.353.617.72.364 1.777-.523 2.179-.328.149-.891.138-1.234-.024a1.38 1.38 0 0 1 .027-2.535c.362-.164.91-.152 1.269.027" fill-rule="evenodd" fill="#000"/></svg>
