<svg width="32" height="32" xmlns="http://www.w3.org/2000/svg"><path d="M8.599 2.137c-2.14.454-3.84 2.066-4.431 4.203l-.141.513V25.04l.118.442c.531 1.991 1.9 3.483 3.782 4.121.977.331.526.317 10.192.317h8.825l-.026-1.587c-.021-1.349-.041-1.654-.133-2.04-.41-1.714-1.172-2.616-2.58-3.051l-.392-.121-8.788-.015-8.787-.015.014-7.985c.014-7.598.02-8 .113-8.279.34-1.012.982-1.778 1.851-2.207.864-.427.45-.405 7.693-.406 7.242-.001 6.875-.02 7.744.398.847.406 1.39.943 1.785 1.761.391.812.375.516.375 7.008 0 4.07.018 5.899.06 6.096.192.913.91 1.599 1.821 1.74l.308.047-.014-7.205-.015-7.206-.152-.453c-.456-1.359-1.165-2.367-2.221-3.157a5.974 5.974 0 0 0-2.522-1.115c-.495-.096-.842-.101-6.84-.101H9.92l-.011.626-.01.627-.03-.613-.029-.614-.373-.01c-.21-.006-.59.035-.868.094m5.854 3.232c-3.261.422-6.018 2.656-7.034 5.699-.316.948-.399 1.494-.399 2.612 0 1.135.082 1.662.42 2.675.857 2.572 3.107 4.671 5.788 5.4 1.139.31 2.624.388 3.705.195 3.136-.561 5.611-2.63 6.637-5.547A8.194 8.194 0 0 0 23.162 10c-1.144-2.301-3.3-3.953-5.885-4.509-.451-.097-.756-.123-1.597-.133-.572-.008-1.124-.003-1.227.011m1.437 2.404c.319.331.65.976.914 1.781.117.356.204.655.194.666-.093.093-2.551.173-2.851.093-.141-.038-.138-.061.122-.854.376-1.145.897-1.937 1.274-1.939.057 0 .213.114.347.253m-3.897 1.403c-.119.365-.223.671-.232.68-.008.009-.214-.05-.456-.13l-.442-.146.349-.33c.299-.284.952-.779.986-.748a9.5 9.5 0 0 1-.205.674m7.26-.425c.162.109.412.321.557.469l.263.27-.193.081c-.258.108-.67.216-.702.185-.024-.024-.351-1.192-.351-1.253 0-.036.056-.003.426.248m2.258 3.076c.077.256.166.634.198.84.076.489.075 1.514 0 1.948-.093.536-.279 1.126-.344 1.098-.3-.131-.959-.372-1.322-.483l-.447-.136.002-1.589.002-1.588.827-.273c.454-.15.853-.275.885-.278.032-.004.121.204.199.461m-11.524-.284c.277.123.758.278 1.24.4l.213.054-.009 1.581-.009 1.581-.604.199c-.333.109-.732.254-.888.321-.163.071-.301.103-.326.075-.082-.09-.268-.903-.328-1.434a6.415 6.415 0 0 1 .064-1.758c.054-.307.3-1.149.336-1.149.009 0 .15.059.311.13m7.314.914c.017.045.047.557.067 1.136l.035 1.054-.368-.041c-.793-.088-2.444-.042-3.208.089l-.174.03v-2.3l.147.039c.204.056 2.359.035 2.813-.026.562-.076.652-.074.688.019m-.672 4.449.443.001-.037.2c-.064.359-.394 1.31-.606 1.746-.374.773-.748 1.152-1.031 1.044-.206-.078-.505-.47-.787-1.032-.29-.579-.669-1.693-.62-1.822.021-.053.106-.086.234-.09.111-.004.478-.025.815-.047.337-.022.733-.031.88-.02.147.011.466.02.709.02m-4.809.627c.02.081.114.423.21.76.096.338.164.624.152.636-.012.012-.16-.072-.328-.187-.381-.26-1.121-.959-1.069-1.011.046-.047.841-.337.934-.341.036-.002.082.063.101.143m7.94-.006c.235.077.451.163.48.191.061.059-.507.615-1.012.988-.508.376-.514.377-.399.074.054-.142.161-.483.238-.759.182-.652.176-.634.224-.634.023 0 .234.063.469.14m3.947 7.876c.565.255.877.884.965 1.945l.037.441-7.808-.015-7.808-.014-.346-.125c-.722-.26-1.232-.606-1.692-1.148-.214-.252-.549-.834-.626-1.088l-.037-.122 8.551.015c8.107.014 8.561.02 8.764.111" fill="#A12577" fill-rule="evenodd"/></svg>
