<svg xmlns="http://www.w3.org/2000/svg" xml:space="preserve" viewBox="0 0 32 32"><path fill-rule="evenodd" d="M15.837 4.744c-.221.147-.447.524-3.397 5.678-3.383 5.911-3.309 5.765-3.067 6.049.098.114 6.346 4.094 6.541 4.166a.465.465 0 0 0 .246.003c.179-.052 6.454-4.034 6.573-4.171.239-.274.307-.141-3.107-6.103-1.761-3.075-3.231-5.619-3.267-5.653-.145-.136-.285-.128-.522.031m-.223 6.591-.014 1.469-2.266 1.034c-1.246.569-2.274 1.027-2.284 1.017-.015-.016 4.05-7.127 4.436-7.762l.114-.186.014 1.48c.008.814.008 2.14 0 2.948m.013 5.176c0 1.425-.021 2.583-.045 2.573-.103-.04-4.751-2.953-4.752-2.977-.002-.034 4.639-2.174 4.73-2.181.052-.005.067.545.067 2.585m6.557 1.087c-.214.064-.234.076-3.277 2.001-1.584 1.002-2.911 1.84-2.948 1.862-.043.025-1.156-.648-3.014-1.823a293.344 293.344 0 0 0-3.061-1.924.46.46 0 0 0-.523.055c-.129.101-.143.142-.12.346.023.203.301.617 2.23 3.312 4.316 6.03 4.193 5.864 4.373 5.926.363.127.27.24 3.727-4.585 2.236-3.122 3.229-4.55 3.241-4.661.012-.115-.025-.208-.131-.329-.168-.191-.301-.239-.497-.18m-8.474 3.635 1.917 1.179v1.499c0 1.266-.012 1.486-.073 1.42a97.36 97.36 0 0 1-1.244-1.704c-.644-.895-1.487-2.065-1.874-2.6-.387-.536-.689-.974-.673-.974.017 0 .893.531 1.947 1.18"/></svg>
