<svg width="32" height="32" xmlns="http://www.w3.org/2000/svg"><path d="M10.577 3.042c-.231.071-.481.334-.548.574-.03.108-.055.419-.055.691l-.001.493h-.706c-1.071.001-1.712.142-2.547.561-1.227.616-2.213 1.851-2.574 3.226l-.119.453v14.773l.123.45c.479 1.753 1.751 3.046 3.53 3.587l.4.121 5.013.017c5.438.017 5.525.014 6.694-.281 1.969-.496 3.582-1.384 4.979-2.743 1.019-.991 1.584-1.763 2.167-2.964.414-.85.626-1.452.82-2.325.237-1.068.256-1.597.235-6.688-.022-5.27.001-4.934-.386-5.76-.232-.495-.424-.768-.834-1.184a4.143 4.143 0 0 0-2.12-1.166c-.214-.045-.675-.076-1.162-.076l-.808-.001-.02-.584c-.022-.643-.074-.769-.413-1-.331-.225-.958-.225-1.292 0-.303.205-.389.421-.412 1.037l-.02.547H12.118l-.02-.6c-.023-.677-.097-.871-.411-1.065-.206-.128-.828-.18-1.11-.093m-.604 5.145V9.44H6.172l.034-.253c.091-.686.771-1.568 1.486-1.928.502-.252.819-.316 1.601-.321l.68-.005v1.254m10.56 0V9.44h-8.426V6.933h8.426v1.254m4.11-1.061c.648.307 1.072.861 1.177 1.537.035.219.045 2.042.03 5.053-.026 4.948-.024 4.904-.272 5.857-.755 2.903-3.22 5.291-6.245 6.049-.934.235-1.187.245-6.093.243-3.018 0-4.765-.02-4.919-.056-.481-.111-.917-.368-1.339-.791-.473-.473-.708-.908-.794-1.475-.038-.248-.052-2.287-.042-6.183l.014-5.813 7.493-.027 7.494-.027.308-.151c.458-.225.79-.591 1.019-1.126l.193-.448V6.926l.813.017c.782.016.827.023 1.163.183m-9.421 5.748c-.15.07-.352.222-.449.337-.097.116-.506.785-.908 1.487l-.731 1.275-1.343.729c-.738.401-1.424.791-1.525.868-.45.344-.628 1.033-.402 1.558.064.148.206.358.316.466.12.116.759.496 1.574.935l1.373.739.743 1.299c.835 1.46 1.066 1.74 1.555 1.885.345.102.538.102.881.001.476-.142.677-.388 1.524-1.86l.762-1.328 1.358-.727c1.413-.758 1.691-.959 1.889-1.365.147-.3.142-.834-.01-1.122-.199-.378-.532-.614-1.909-1.351l-1.333-.713-.72-1.256c-.396-.691-.784-1.346-.862-1.454-.089-.123-.269-.261-.476-.364-.433-.216-.896-.23-1.307-.039m1.086 3.594c.269.463.568.917.664 1.009.096.092.559.376 1.028.631.469.256.87.48.891.499.021.019-.336.237-.792.485-1.018.554-1.157.696-1.772 1.807-.245.444-.463.796-.484.783-.022-.014-.252-.391-.512-.84-.26-.448-.55-.89-.644-.981-.095-.092-.593-.403-1.108-.693-.514-.289-.918-.542-.897-.561.021-.019.422-.243.891-.499.47-.255.922-.528 1.006-.606.083-.078.383-.532.665-1.009.282-.476.527-.866.544-.866.017 0 .251.378.52.841" fill="#A12577" fill-rule="evenodd"/></svg>
