<svg xmlns="http://www.w3.org/2000/svg" viewBox="0 0 20 22">
    <path fill="#A12577" fill-rule="evenodd" d="M5.519.783a.632.632 0 0 0-.385.32c-.075.133-.084.191-.095.622l-.013.475h-.398c-.79 0-1.438.128-2.011.396A4.095 4.095 0 0 0 .35 5.59C.307 5.836.3 6.694.3 11.763c0 6.408-.007 6.13.186 6.727.205.633.492 1.093.995 1.595.504.504.913.764 1.536.976.637.216.468.21 4.804.196 4.29-.014 4.027-.003 4.896-.204 2.331-.542 4.413-2.125 5.581-4.246.486-.884.803-1.823.99-2.94.053-.318.06-.725.07-4.434.011-3.631.006-4.118-.042-4.398a3.414 3.414 0 0 0-2.122-2.6c-.429-.164-.688-.205-1.402-.225l-.659-.019v-.373c0-.474-.054-.669-.229-.827-.169-.153-.333-.205-.637-.203-.383.003-.596.116-.744.395-.06.112-.073.205-.084.575l-.012.442H6.74l-.013-.475c-.013-.511-.052-.646-.233-.816-.179-.166-.68-.231-.975-.126m-.486 4.184v1.066H1.999l.021-.141c.038-.263.201-.682.358-.917.375-.565.987-.956 1.622-1.039.119-.015.4-.029.625-.032l.408-.004v1.067m8.4 0v1.066h-6.7V3.9h6.7v1.067m2.834-1.032c.119.018.312.08.428.136.275.134.631.47.766.723.212.398.205.249.205 4.356 0 2.345-.013 3.876-.035 4.117a6.927 6.927 0 0 1-6.008 6.249c-.33.043-.977.051-4.019.051-3.509 0-3.635-.002-3.885-.067-.407-.104-.691-.273-1.037-.617-.246-.244-.328-.353-.442-.585-.253-.513-.239-.176-.239-5.656L2 7.734l5.925-.009 5.925-.008.191-.077c.437-.177.712-.469.95-1.007l.126-.283.01-1.225.009-1.225h.457c.251 0 .555.016.674.035M9.272 8.803c-.331.131-.458.301-1.122 1.504l-.6 1.087-1.091.608c-1.184.659-1.336.771-1.489 1.098-.073.155-.087.23-.087.483 0 .279.008.315.115.512.063.116.177.265.253.331.076.066.623.391 1.216.722l1.079.602.521.94c.663 1.196.738 1.316.912 1.458.524.43 1.269.345 1.656-.188.055-.077.358-.604.672-1.17.479-.863.591-1.042.691-1.104a60.61 60.61 0 0 1 1.081-.605c1.059-.584 1.227-.711 1.381-1.039.076-.161.09-.237.09-.475 0-.241-.014-.311-.09-.467-.164-.332-.319-.446-1.49-1.096l-1.08-.6-.608-1.094c-.375-.675-.658-1.147-.74-1.232-.22-.229-.439-.322-.792-.334-.244-.009-.333.002-.478.059m.795 2.984c.241.426.46.772.535.844.07.068.451.308.848.533l.721.41-.61.339c-.847.47-.964.588-1.41 1.42-.182.339-.355.659-.386.709l-.055.093-.361-.643c-.198-.353-.398-.7-.444-.77-.108-.163-.34-.325-1.113-.773-.485-.281-.616-.372-.584-.401.023-.022.352-.214.732-.427.532-.3.718-.423.816-.538.07-.082.3-.457.511-.833.21-.375.385-.683.388-.683.003 0 .188.324.412.72"/>
</svg>
