<svg xmlns="http://www.w3.org/2000/svg" viewBox="0 0 32 32" xml:space="preserve"><path d="M9.067 4.028c-.044.009-.26.045-.48.081-2.055.333-3.835 1.965-4.389 4.024-.195.723-.203 1.09-.187 8.027l.017 6.8.141.511c.326 1.186.762 1.948 1.587 2.773.825.825 1.587 1.261 2.773 1.587l.511.141 6.8.017c4.695.011 6.94-.002 7.253-.042a5.595 5.595 0 0 0 4.639-3.84c.243-.747.267-1.155.268-4.547 0-1.753-.011-3.187-.024-3.187-.013 0-.128.071-.256.157-.402.271-.768.386-1.347.423l-.533.034-.028 3.093c-.03 3.356-.017 3.213-.342 3.874a3.444 3.444 0 0 1-1.548 1.531c-.711.346-.294.328-7.775.328-6.59 0-6.809-.003-7.208-.105-1.303-.333-2.311-1.36-2.647-2.697-.105-.421-.107-.558-.093-7.28l.014-6.851.119-.347a3.591 3.591 0 0 1 2.201-2.201c.34-.115.407-.118 3.453-.134l3.106-.015-.033-.385c-.04-.473.063-.927.326-1.438l.186-.36-3.212.006c-1.767.004-3.248.013-3.292.022m8.373.514c-.947.272-1.049 1.591-.16 2.078.107.059.733.079 3.138.1l3.005.027-3.245 3.291-3.245 3.292-2.72.003c-2.96.002-3.135.017-3.665.306-.372.202-.857.739-1.009 1.117l-.126.311-.015 3.306c-.018 3.744-.012 3.816.355 4.383.4.618.967.955 1.751 1.041.253.028 1.827.042 3.53.032l3.073-.018.32-.127c.796-.315 1.303-.898 1.467-1.688.083-.397.044-6.864-.042-7.118a3.427 3.427 0 0 0-.254-.504l-.19-.315 2.883-2.883 2.882-2.883v2.998c0 1.978.02 3.09.059 3.271.107.497.549.851 1.061.851.467 0 1-.354 1.107-.737.022-.079.04-2.221.04-4.76V5.298l-.162-.262a1.155 1.155 0 0 0-.4-.396l-.238-.133-4.507-.009c-2.89-.006-4.573.01-4.693.044m0 14.018v2.827h-5.653v-2.791c0-1.536.016-2.808.035-2.827.02-.02 1.292-.036 2.827-.036h2.791v2.827" fill-rule="evenodd"/></svg>
