<svg xmlns="http://www.w3.org/2000/svg" xml:space="preserve" viewBox="0 0 32 32"><path fill-rule="evenodd" d="M17.99 3.273c-.412.197-.74.524-.868.867-.091.244-.109.416-.109 1.082v.791l-.328.064c-2.302.453-4.927 2.364-7.019 5.11-.419.549-.532.662-.846.843-.442.255-1.066.835-1.333 1.236a2.589 2.589 0 0 0-.446 1.408c.001 3.561.093 10.184.142 10.322.179.499 1.141 1.585 1.929 2.178 1.079.81 2.494 1.362 4.115 1.605.752.113 2.368.128 3.093.029 2.806-.383 4.969-1.8 6.053-3.966l.245-.488-.027-2.27a168.25 168.25 0 0 1-.018-2.484c.014-.358-.006-4.617-.023-4.989l-.017-.35 2.072-1.826c1.605-1.415 2.094-1.818 2.173-1.793.076.024.115-.003.155-.109.077-.201.066-.64-.02-.846-.055-.133-.993-.939-3.737-3.212-2.014-1.669-3.775-3.093-3.913-3.163-.38-.196-.912-.212-1.273-.039m3.875 4.773c1.306 1.096 2.38 2.02 2.386 2.053.009.053-4.402 3.924-4.526 3.972-.025.01-.045-.501-.045-1.135 0-1.027-.011-1.175-.101-1.351-.156-.305-.418-.492-.793-.563-.281-.053-2.878.666-4.898 1.357-1.074.367-2.47.922-3.009 1.195-.146.074-.266.121-.266.105 0-.057.63-.963 1.018-1.466.5-.646 1.642-1.818 2.262-2.32 1.396-1.131 2.818-1.801 3.974-1.874.753-.047 1.07-.2 1.291-.622.097-.184.121-.335.139-.852.019-.569.029-.622.107-.56.047.038 1.154.965 2.461 2.061M17.6 14.444c0 1.053.052 1.336.328 1.788.087.143.149.268.139.279-.055.055-1.1.295-1.601.368a11.826 11.826 0 0 1-4.026-.108c-.631-.127-1.688-.451-1.782-.545-.088-.088 1.267-.764 2.599-1.296.958-.383 4.032-1.406 4.303-1.433.022-.002.04.424.04.947m2.637 3.996c.018.286.045.617.06.736.022.185-.004.261-.181.533-.762 1.168-2.124 1.983-3.788 2.267-.768.132-2.22.142-3.031.021-1.509-.224-2.745-.797-3.68-1.707l-.497-.483v-.89c0-.49.009-.89.02-.89.01 0 .244.106.52.236 2.688 1.27 7.275 1.224 9.993-.1a8.36 8.36 0 0 1 .515-.239c.02-.002.05.23.069.516m-4.876 1.303c-.292.199-.428.441-.428.764 0 .672.675 1.075 1.28.763.268-.138.48-.475.48-.763 0-.217-.203-.607-.386-.74-.092-.068-.258-.115-.453-.128-.257-.018-.338-.001-.493.104m4.829 4.656c-.693 1.182-2.162 2.087-3.862 2.377-.768.132-2.22.142-3.031.021-1.509-.224-2.745-.797-3.68-1.707l-.497-.483v-1.992l.36.233c1.214.782 2.597 1.186 4.493 1.314 2.244.15 4.118-.3 5.974-1.435l.346-.212.015.829c.014.799.01.837-.118 1.055m-4.615.252c-.418.116-.642.421-.641.877 0 .577.562.992 1.119.825.255-.076.569-.418.617-.67.122-.65-.466-1.205-1.095-1.032"/></svg>
