<svg xmlns="http://www.w3.org/2000/svg" xml:space="preserve" viewBox="0 0 32 32"><path fill="#A12577" fill-rule="evenodd" d="M20.027 5.38c-1.333.352-2.462.937-3.471 1.799-.584.499-.74 1.152-.414 1.732.294.524.771.78 1.356.727.36-.032.549-.125.985-.484a5.927 5.927 0 0 1 1.743-.986c.528-.185.574-.192 1.294-.192.645-.001.794.016 1.093.122 1.058.376 2.121 1.43 2.498 2.479.114.317.138.479.14.943.003.661-.115 1.074-.459 1.606-.397.614-4.998 5.12-5.827 5.707-.744.526-1.261.683-1.915.581-.687-.106-1.491-.591-2.138-1.288-.669-.723-.746-.792-.973-.878a1.138 1.138 0 0 0-.544-.061c-.778.07-1.306.626-1.309 1.377-.002.541.173.845.923 1.596.96.962 1.93 1.554 3.044 1.855.426.115.614.136 1.174.131 1.282-.01 2.303-.364 3.395-1.177.746-.556 4.648-4.316 5.798-5.587 1.671-1.847 2.034-4.284.953-6.387-.713-1.387-2.124-2.709-3.504-3.284-.831-.346-1.301-.44-2.322-.464-.896-.021-.957-.016-1.52.133M13.6 9.913c-.848.186-1.744.622-2.482 1.211-1.088.867-5.596 5.316-6.047 5.967-.828 1.199-1.211 2.747-1.015 4.109.124.87.567 1.916 1.129 2.667.592.791 1.619 1.716 2.388 2.149 1.926 1.086 4.235 1.03 6.374-.154.897-.497 1.82-1.268 2.006-1.675.15-.326.134-.845-.035-1.184-.284-.571-1.079-.86-1.731-.63-.125.044-.427.23-.672.413C12.401 23.62 11.453 24 10.491 24c-1.713 0-3.542-1.679-3.695-3.391-.043-.482.076-1.047.331-1.569.181-.372.32-.526 2.014-2.218 2.242-2.241 3.494-3.408 4.056-3.781.946-.628 1.736-.672 2.696-.15.651.353.992.673 2.048 1.922l.153.182-.249.222c-1.119.997-1.729 1.562-1.721 1.596.015.062 1.746 1.96 1.788 1.96.021 0 .545-.443 1.165-.985 1.23-1.077 1.477-1.371 1.674-1.993.222-.7.105-1.592-.285-2.164-.24-.354-1.269-1.533-1.76-2.018-.79-.78-1.799-1.379-2.786-1.654-.552-.154-1.718-.177-2.32-.046"/></svg>
