<svg width="32" height="32" xmlns="http://www.w3.org/2000/svg"><path d="M15.498 3.661c-1.895.199-3.347.601-4.873 1.35-3.794 1.86-6.222 5.108-6.949 9.297-.172.989-.188 3.163-.031 4.149.45 2.827 1.483 4.891 3.52 7.034.395.417.744.823.775.904.031.081.082.723.114 1.425.072 1.587.071 1.582.281 1.872.224.308.596.482.923.43.129-.02.892-.319 1.697-.664 1.694-.726 1.534-.705 2.966-.398 1.882.402 4.265.374 6.118-.073 2.536-.611 4.709-1.815 6.444-3.572a12.257 12.257 0 0 0 2.904-4.766c.449-1.366.646-2.629.646-4.143 0-4.467-2.012-8.283-5.638-10.696-1.547-1.029-3.649-1.812-5.553-2.069-.467-.063-2.94-.122-3.344-.08m9.131 9.019c.067.054.15.154.184.222.159.311.148.333-1.606 3.106-2.476 3.916-2.654 4.164-3.159 4.416-.254.126-.366.146-.838.146-.709 0-.759-.026-2.437-1.273-2.071-1.54-2.06-1.533-2.387-1.523-.272.008-.327.045-2.555 1.714-1.741 1.304-2.315 1.705-2.439 1.705-.341 0-.665-.28-.665-.574 0-.31 3.828-6.399 4.382-6.97.339-.349.661-.464 1.315-.469.548-.005.58.002.88.184.171.103.808.555 1.414 1.003 1.791 1.324 2.236 1.613 2.481 1.613.263 0 .511-.164 2.377-1.568 2.42-1.823 2.434-1.832 2.699-1.831a.646.646 0 0 1 .354.099" fill="#fff" fill-rule="evenodd"/></svg>
