<svg width="32" height="32" xmlns="http://www.w3.org/2000/svg"><path d="M15.64 4.316c-5.006.472-9.296 4.16-10.485 9.014-.285 1.163-.354 1.882-.32 3.302.032 1.323.097 1.778.409 2.861.956 3.326 3.216 6.025 6.288 7.509.688.333 1.607.7 1.971.787l.159.038-.017-4.481c-.015-3.908-.028-4.487-.102-4.534-.046-.029-.355-.054-.686-.054a9.367 9.367 0 0 1-.864-.037l-.263-.036v-3.084l.918-.038c.632-.026.932-.059.962-.108.025-.038.046-.453.047-.92.002-1.042.085-2.097.2-2.548.352-1.373 1.319-2.245 2.775-2.502.646-.114 3.564-.177 3.681-.08.074.061.086.277.081 1.439-.003.752-.023 1.431-.045 1.509l-.039.142-1.017.046c-1.09.049-1.407.129-1.585.4-.131.2-.203.867-.186 1.736l.016.821.284.038c.155.021.812.04 1.459.042l1.176.005v.159c0 .212-.279 2.734-.315 2.852-.042.137-.27.163-1.438.163-.747 0-1.078.02-1.126.068-.052.051-.068 1.181-.068 4.739v4.671l.354-.038c2.689-.288 5.214-1.425 7.064-3.182 1.176-1.117 1.936-2.148 2.604-3.538 1.4-2.909 1.613-5.957.628-8.972-.852-2.608-2.779-5.054-5.078-6.446-2.26-1.37-4.882-1.984-7.442-1.743" fill="#fff" fill-rule="evenodd"/></svg>
