<svg xmlns="http://www.w3.org/2000/svg" viewBox="0 0 19 24"><path fill="#A12577" fill-rule="evenodd" d="M9.057.019c-.748.083-1.23.253-1.774.627-.13.09-1.562 1.159-3.182 2.377-1.88 1.412-3.022 2.292-3.158 2.43a3.4 3.4 0 0 0-.841 1.476l-.086.307v9.532l.072.269c.093.341.336.842.538 1.108.086.113.273.316.415.452l.257.245.001.451c0 .51.059.827.22 1.182a2.664 2.664 0 0 0 1.414 1.33c.388.147.612.172 1.531.172h.848l.053.209c.211.84.884 1.523 1.711 1.737.286.074 4.175.073 4.46-.001a2.425 2.425 0 0 0 1.732-1.777l.033-.133 1.021-.011c1.126-.013 1.191-.022 1.63-.23a2.515 2.515 0 0 0 1.404-1.678c.052-.196.071-.38.084-.808l.015-.554.246-.253c.413-.427.683-.905.826-1.465.059-.232.061-.391.061-4.993-.001-5.115.006-4.889-.162-5.401a4.147 4.147 0 0 0-.457-.92c-.288-.434-.673-.777-1.708-1.525A3233.29 3233.29 0 0 1 13.3 2.029C10.965.336 10.769.219 10.042.082c-.258-.048-.803-.083-.985-.063m.682 2.088c.103.027.245.082.315.121.07.039 1.402.994 2.961 2.121 3.068 2.22 3.162 2.296 3.369 2.716.164.335.182.536.171 1.992l-.009 1.251-.107-.19c-.348-.613-.943-1.168-1.612-1.502-.639-.319-1.511-.458-2.134-.338-.895.172-1.682.841-1.968 1.672-.017.048-.042.045-.27-.038-.417-.153-.747-.2-1.272-.182-.435.015-.518.029-1.016.172-.035.01-.065-.025-.102-.123-.128-.333-.518-.812-.859-1.054a2.498 2.498 0 0 0-1.367-.482c-1.215-.072-2.439.509-3.187 1.515a3.3 3.3 0 0 0-.472.831l-.121.289.008-1.726.007-1.726.09-.183c.049-.1.156-.253.237-.339.15-.157 6.046-4.601 6.235-4.699.28-.144.76-.187 1.103-.098m-3.795 8.251a.498.498 0 0 1 .216.201c.073.126.078.162.078.578 0 .421-.004.455-.091.647-.11.245-.189.508-.239.802l-.038.221-.156.08c-.146.075-.186.081-.616.081-.416 0-.474-.008-.626-.076-.429-.194-.596-.638-.468-1.243.129-.611.665-1.16 1.277-1.308.274-.066.503-.06.663.017m7.564-.032c.591.107 1.126.595 1.315 1.201.092.293.095.725.007.921a.96.96 0 0 1-.451.45c-.18.081-.78.112-1.053.056a.856.856 0 0 1-.679-.659c-.05-.212-.06-1.374-.013-1.573.082-.355.374-.487.874-.396m-3.612 1.58c.144.069.282.168.396.284.802.821.368 2.161-.771 2.376-.571.108-1.207-.22-1.472-.759-.392-.798-.001-1.696.865-1.985.082-.027.238-.038.443-.032.282.01.341.022.539.116m-7.655 1.537c.168.332.455.683.776.95l.152.126-.555.554-.556.554.003-1.298c.001-1.1.008-1.281.043-1.187.022.061.084.197.137.301m14.321 1.194v1.052l-.467-.487a18.008 18.008 0 0 1-.507-.542c-.035-.049-.013-.075.182-.22.244-.181.554-.503.689-.717.048-.076.09-.138.095-.138.004 0 .008.473.008 1.052m-2.826 1.122c.04.01.421.384.847.83l.775.812v1.108c0 1.05-.003 1.114-.063 1.212a.596.596 0 0 1-.166.166c-.096.058-.161.063-.947.063h-.844l-.015-.594c-.016-.661-.06-.876-.258-1.27-.125-.248-.261-.426-.604-.79l-.248-.264.615-.618c.338-.34.643-.63.678-.645a.307.307 0 0 1 .23-.01m-8.455.088c.069.035 1.084 1.081 1.084 1.117 0 .01-.146.169-.325.354-.351.364-.521.637-.659 1.065-.062.193-.073.306-.085.878l-.014.657h-.776c-.871 0-.933-.012-1.072-.217l-.077-.114V17.3l.091-.124c.05-.068.367-.397.705-.73.646-.638.712-.684.945-.651a.698.698 0 0 1 .183.052m4.536 2.128c.357.09.687.289 1.039.628.18.173.348.354.372.402.037.071.045.328.045 1.406v1.319l-.107.107-.108.108H9.327c-1.213 0-1.752-.011-1.8-.035-.185-.095-.179-.044-.18-1.593v-1.422l.277-.274c.536-.53 1.091-.752 1.765-.707.139.009.332.037.428.061"/></svg>
