<svg xmlns="http://www.w3.org/2000/svg" viewBox="0 0 18 17">
    <path fill="#A12577" fill-rule="evenodd" d="M12.6.047c-.244.066-.736.318-.971.497-.35.265-.676.726-.839 1.185-.191.538-.18.275-.198 4.571l-.017 3.915-.069.15c-.123.268-.223.379-.754.843l-.523.456-.357-.318a7.136 7.136 0 0 1-.462-.439 1.975 1.975 0 0 1-.337-.701c-.023-.111-.033-1.419-.033-4.327 0-3.956.003-4.166.052-4.149.096.034.209.161.296.334l.087.171.009 2.261.009 2.261.181-.02a1.703 1.703 0 0 0 1.445-1.171c.065-.207.066-.241.065-1.816 0-1.572-.002-1.61-.068-1.845A2.807 2.807 0 0 0 9.418.697C8.934.207 8.404.041 7.406.065c-.401.009-.443.016-.603.095a.957.957 0 0 0-.435.457c-.05.111-.054.39-.062 4.678-.006 3.112.001 4.662.023 4.881.077.758.35 1.411.83 1.984.105.125.554.537 1.05.964.476.41.9.777.941.815l.076.069 1.034-.914a40.909 40.909 0 0 0 1.152-1.042c.324-.352.622-.844.749-1.238.157-.483.149-.275.167-4.469l.017-3.9.071-.134c.105-.197.38-.47.564-.56.146-.071.184-.077.423-.063.439.025.9.256 1.3.652.58.574.927 1.396 1.082 2.565.063.472.054 1.951-.015 2.379-.346 2.164-1.526 4.099-3.564 5.84-.665.569-1.596 1.232-1.958 1.397a3.061 3.061 0 0 1-2.477.032c-.382-.163-1.173-.7-1.951-1.325-1.985-1.595-3.188-3.275-3.578-4.997-.061-.271-.066-.371-.065-1.196.001-.969.033-1.327.182-2.055.247-1.208.773-2.171 1.391-2.546.131-.079.138-.079.165.004.012.037.032.897.043 1.912l.02 1.845.082.245c.212.64.81 1.113 1.46 1.154l.165.011-.001-2.415c-.001-2.078-.009-2.478-.053-2.869-.132-1.17-.42-1.693-.981-1.784-.199-.032-.708.023-1.011.11C1.909 1.142.762 3.043.493 5.865c-.065.681-.065 1.88.001 2.325.097.657.33 1.433.617 2.058.751 1.633 2.221 3.295 4.274 4.832.853.639 1.337.936 1.855 1.14.639.253 1.087.339 1.76.339.493 0 .731-.028 1.14-.133.674-.174 1.203-.438 1.957-.976 1.354-.966 2.514-2.082 3.389-3.259 1.134-1.527 1.782-3.099 2.02-4.901.067-.511.067-1.831 0-2.415-.264-2.283-1.153-3.777-2.696-4.53-.66-.322-.685-.328-1.415-.336-.484-.005-.668.003-.795.038"/>
</svg>
