<svg width="32" height="32" xmlns="http://www.w3.org/2000/svg"><path d="M18.125 4.131c-1.559.164-2.932.784-3.682 1.662-.356.418-.708 1.016-.861 1.463-.158.465-.161.461.414.559.754.127 1.49-.078 2.327-.65.93-.634 1.393-.758 2.817-.754 1.384.004 3.027.292 3.784.662 1.078.528 2.107 2.274 2.479 4.209.728 3.785-.425 7.284-3.466 10.519l-.46.489-2.715-2.873c-2.8-2.962-2.925-3.078-3.335-3.081a1.335 1.335 0 0 0-.714.226c-.096.066-1.151 1.316-2.343 2.777s-2.194 2.657-2.227 2.658c-.072.004-.904-.892-1.44-1.551-1.112-1.365-1.874-2.874-2.155-4.266-.154-.767-.186-1.453-.117-2.479.168-2.463.654-4.068 1.572-5.196.246-.301.829-.736.897-.668.021.02.046 1.684.056 3.697l.018 3.66.297-.035a2.32 2.32 0 0 0 1.95-1.618c.102-.329.109-.517.109-2.824 0-3.079-.078-3.911-.44-4.695-.29-.625-.637-.849-1.325-.851-1.092-.003-2.328.589-3.19 1.53-1.301 1.42-2.072 3.583-2.303 6.466-.2 2.5.098 4.22 1.076 6.192 1.045 2.109 2.739 4.086 5.155 6.017 1.901 1.519 3.041 2.167 4.339 2.466.686.158 1.947.17 2.628.025a7.874 7.874 0 0 0 3.025-1.357c4.588-3.312 7.211-7.32 7.649-11.688.08-.794.038-2.28-.087-3.107-.488-3.215-1.989-5.761-3.959-6.712-1.349-.651-4.029-1.056-5.773-.872m-.03 4.255a4.21 4.21 0 0 0-3.146 2.975c-.102.356-.125.564-.122 1.124.003.626.019.734.181 1.209.395 1.155 1.07 1.933 2.129 2.453 1.153.566 2.406.551 3.598-.044.374-.186.567-.332.963-.729.559-.559.845-1.007 1.044-1.634a4.185 4.185 0 0 0-.004-2.625 4.12 4.12 0 0 0-2.007-2.334 5.84 5.84 0 0 0-.821-.343c-.45-.121-1.385-.148-1.815-.052m1.508 2.522c.361.166.62.428.796.807.194.417.195 1.054.002 1.457-.596 1.25-2.381 1.287-3.005.062-.189-.372-.233-.949-.102-1.343.323-.973 1.364-1.415 2.309-.983m-2.029 10.679c.931.999 1.782 1.91 1.891 2.025l.198.209-.138.106c-.439.34-1.242.873-1.628 1.08-.624.334-1.169.467-1.919.47-1.197.005-1.965-.328-3.589-1.555l-.344-.26.512-.625 1.739-2.129 1.227-1.505.179.185c.099.101.941 1.001 1.872 1.999" fill="#A12577" fill-rule="evenodd"/></svg>
