<svg width="32" height="32" xmlns="http://www.w3.org/2000/svg"><path d="M20.88 5.116c-1.252.447-2.108 1.393-2.493 2.757-.118.419-.118.434-.146 6.154l-.028 5.733-.14.3c-.174.371-.375.595-1.146 1.279l-.607.539-.489-.446c-.601-.548-.853-.861-1.014-1.259l-.124-.306-.014-6.207-.014-6.208.121.08c.066.043.193.184.281.313l.16.235.014 3.322c.012 2.764.027 3.327.088 3.35.133.051.691-.082 1.018-.243.567-.28.995-.79 1.212-1.442.107-.324.116-.475.136-2.233.012-1.123-.003-2.098-.037-2.408-.113-1.038-.446-1.767-1.125-2.457-.674-.686-1.195-.863-2.56-.871-.814-.005-.83-.002-1.082.146a1.303 1.303 0 0 0-.62.841c-.078.363-.08 13.122-.002 13.756.142 1.163.584 2.145 1.327 2.948.375.405 2.645 2.438 2.723 2.438.032 0 .735-.622 1.563-1.382 1.737-1.596 2.081-2.004 2.431-2.889.314-.79.293-.376.325-6.636l.029-5.76.123-.232c.165-.308.548-.684.826-.81.419-.191 1.015-.085 1.67.295.346.201 1.07.939 1.292 1.317.445.76.727 1.641.896 2.802.128.882.129 2.747.001 3.609-.535 3.606-2.757 6.908-6.531 9.704-1.04.77-1.611 1.032-2.531 1.16-.764.106-1.658-.072-2.426-.483-1.246-.666-3.75-2.81-4.957-4.242-.981-1.164-1.886-2.722-2.248-3.869-.304-.962-.356-1.349-.349-2.611.014-2.511.461-4.458 1.323-5.754.259-.39.663-.797.924-.932.151-.078.166-.078.203.007.022.051.055 1.328.074 2.839.034 2.718.036 2.75.16 3.067.301.766.83 1.259 1.599 1.487.16.047.371.086.471.086h.181l-.022-3.773c-.019-3.128-.037-3.865-.108-4.307-.203-1.266-.554-1.916-1.136-2.108-.285-.094-1.13-.036-1.595.11-2.373.743-3.904 3.242-4.379 7.145-.113.933-.156 2.726-.081 3.408.391 3.556 2.53 6.874 6.452 10.011 2.396 1.915 3.636 2.478 5.474 2.484 1.869.006 3.198-.592 5.461-2.458.892-.735 2.36-2.215 3.031-3.054 1.917-2.4 3.044-4.95 3.436-7.778.093-.669.095-2.995.003-3.733-.407-3.266-1.635-5.369-3.775-6.464-.846-.432-1.013-.47-2.063-.466-.739.003-.972.023-1.186.099" fill="#A12577" fill-rule="evenodd"/></svg>
