<svg xmlns="http://www.w3.org/2000/svg" viewBox="0 0 18 17">
    <path fill="#A12577" fill-rule="evenodd" d="M10.39.105c-.643.082-1.326.299-1.78.566a3.223 3.223 0 0 0-1.368 1.695l-.071.199.113.051c.3.135.876.119 1.299-.035.283-.104.431-.186.762-.422.418-.299.878-.433 1.605-.468.656-.031 1.636.08 2.396.273.434.11.598.178.833.343.751.527 1.368 1.732 1.584 3.093.373 2.345-.295 4.546-1.985 6.547-.287.34-.85.928-.878.917-.012-.005-.854-.88-1.871-1.944S9.118 8.936 9.042 8.876a.749.749 0 0 0-.837-.09 1.109 1.109 0 0 0-.274.188c-.052.055-.765.911-1.585 1.901s-1.504 1.805-1.521 1.811c-.036.013-.466-.428-.843-.864-1.154-1.336-1.755-2.65-1.838-4.022-.022-.365.025-1.268.093-1.786.204-1.56.749-2.75 1.472-3.213a.97.97 0 0 1 .185-.101c.059 0 .097 1.226.096 3.172V7.89l.068-.001c.161-.001.504-.097.712-.198.287-.141.575-.425.711-.702.189-.385.189-.385.189-2.203 0-.908-.014-1.813-.031-2.011C5.499 1.148 5.095.666 4.026.852 2.355 1.142 1.141 2.66.661 5.058.506 5.835.468 6.287.466 7.365.465 8.479.48 8.625.662 9.321c.583 2.223 2.29 4.356 5.098 6.369.793.569 1.234.806 1.86 1.001 1.215.379 2.462.258 3.69-.357.83-.415 2.406-1.693 3.34-2.706 1.594-1.731 2.492-3.489 2.831-5.543.044-.269.054-.503.054-1.275 0-.991-.018-1.192-.17-1.935-.355-1.734-1.214-3.198-2.31-3.94-.528-.357-1.439-.632-2.65-.801C11.931.067 10.81.051 10.39.105m.41 2.944c-.701.1-1.102.264-1.574.644a2.972 2.972 0 0 0-1.067 1.966 2.93 2.93 0 0 0 .471 1.892c.246.373.723.798 1.118.998a2.943 2.943 0 0 0 2.342.119 3.146 3.146 0 0 0 1.335-1.033c.381-.537.591-1.261.542-1.87a2.94 2.94 0 0 0-1.939-2.558c-.367-.133-.91-.204-1.228-.158m.71 1.786c.329.122.628.456.702.786.058.259.026.633-.072.844-.109.236-.34.468-.572.575-.166.077-.214.085-.514.085-.312 0-.341-.005-.528-.097a1.256 1.256 0 0 1-.561-.571c-.072-.154-.08-.207-.08-.504 0-.323.003-.337.113-.56.125-.253.27-.399.516-.518.287-.14.682-.156.996-.04m-1.56 7.382 1.476 1.558.187.201-.356.253c-.745.53-1.068.703-1.562.837-.186.051-.322.063-.71.065-.529.003-.763-.041-1.205-.225-.229-.095-.852-.491-1.322-.84l-.281-.208.144-.173 1.238-1.499c.601-.729 1.096-1.326 1.098-1.326.003 0 .584.611 1.293 1.357"/>
</svg>
