<svg xmlns="http://www.w3.org/2000/svg" viewBox="0 0 32 32" xml:space="preserve"><path d="M15.307 4.031a87.26 87.26 0 0 0-.454.081c-1.081.193-2.261 1.004-2.928 2.012-.325.491-.458.84-.458 1.197.001.683.602 1.319 1.246 1.319.123 0 .14-.022.141-.173.003-.582.382-1.431.852-1.909.559-.569 1.268-.861 2.102-.863 1.162-.004 2.109.572 2.643 1.609.134.261.342.56.491.71.312.312.834.568 1.241.61l.297.031v-.25c0-.601-.297-1.557-.68-2.187-.246-.404-.85-1.043-1.266-1.338a4.479 4.479 0 0 0-2.507-.852 6.192 6.192 0 0 0-.72.003m-3.981 5.13c.132 1.586 1.177 3.071 2.652 3.77 2.104.997 4.607.27 5.913-1.716.44-.669.533-1.209.291-1.696-.095-.192-.126-.211-.443-.274a1.879 1.879 0 0 1-.546-.203 1.545 1.545 0 0 0-.226-.135c-.012 0-.039.113-.059.252-.18 1.199-1.164 2.244-2.348 2.494-.469.099-.704.099-1.173 0a2.98 2.98 0 0 1-2.024-1.52 3.64 3.64 0 0 0-.389-.594c-.155-.171-.221-.206-.393-.206-.285 0-.702-.168-.98-.396-.128-.105-.25-.19-.271-.19-.021 0-.023.186-.004.414m7.277 3.792c-.39.129-.727.324-1.17.678-.356.285-1.179 1.145-1.325 1.386-.044.071-.099.13-.123.13-.025 0-.409-.366-.855-.814-.829-.832-1.134-1.059-1.72-1.28-.462-.174-1.438-.16-2.171.032-.552.144-1.366.502-1.762.774a5.351 5.351 0 0 0-2.202 3.154c-.155.612-.141 1.928.028 2.614.367 1.484 1.128 2.76 2.472 4.143.88.906 1.729 1.574 3.703 2.914 2.035 1.381 2.11 1.423 2.541 1.422.395-.001.286.06 2.181-1.226 2.222-1.508 2.787-1.943 3.769-2.899 1.578-1.538 2.433-2.998 2.753-4.701.125-.67.087-1.91-.078-2.504-.505-1.818-1.992-3.25-3.891-3.746-.71-.186-1.714-.222-2.15-.077m-5.495 1.683c.139.072.389.246.556.387.321.27 1.163 1.153 1.163 1.218 0 .021-.232.446-.515.944-.584 1.027-.643 1.236-.46 1.647.143.32 1.352 1.822 1.582 1.964.265.164.668.201.964.088.201-.077.353-.228.988-.981.814-.966.952-1.226.877-1.647-.02-.111-.261-.594-.536-1.073s-.5-.905-.5-.948c0-.042.306-.385.68-.761.811-.816 1.065-.967 1.619-.967 1.38 0 2.77.759 3.451 1.885.571.943.616 1.949.147 3.263-.328.916-.785 1.606-1.695 2.559-.983 1.03-1.629 1.538-3.917 3.081l-1.555 1.049-1.458-.993c-1.969-1.34-2.631-1.839-3.486-2.629-1.173-1.084-1.94-2.222-2.267-3.362-.165-.578-.202-1.482-.081-1.986.277-1.156 1.178-2.133 2.384-2.586.536-.201.872-.266 1.419-.275.315-.005.437.018.64.123m3.397 3.31.246.452-.334.401c-.184.221-.351.401-.371.401-.054 0-.686-.744-.686-.808 0-.055.346-.707.442-.832.028-.037.142-.067.254-.067.199 0 .206.008.449.453" fill="#A12577" fill-rule="evenodd"/></svg>