<svg xmlns="http://www.w3.org/2000/svg" viewBox="0 0 24 24">
    <path fill="#A12577" fill-rule="evenodd" d="M5.375 2.338c-.035.092.058.467.18.725.127.268.394.556.66.712.399.234.177.225 5.815.225 5.778 0 5.506-.012 6.11.28.55.267.939.652 1.219 1.209.3.597.285.244.272 6.351l-.011 5.46-.112.32a2.977 2.977 0 0 1-.745 1.18c-.512.503-1.069.761-1.818.84-.486.051-10.005.051-10.492 0-.961-.101-1.743-.631-2.156-1.46-.296-.595-.272-.064-.296-6.6-.021-5.853-.021-5.881-.105-6.084-.25-.608-.75-.991-1.409-1.079l-.209-.028.013 6.616c.015 7.295-.005 6.731.266 7.473a4.295 4.295 0 0 0 1.098 1.672c.529.502 1.161.86 1.906 1.078l.379.11 5.56.013c3.978.009 5.65 0 5.876-.032a4.64 4.64 0 0 0 3.943-3.943c.032-.226.041-1.898.032-5.876l-.013-5.56-.11-.379a5.56 5.56 0 0 0-.629-1.366c-.222-.33-.828-.931-1.159-1.148a4.486 4.486 0 0 0-1.973-.724c-.255-.029-2.346-.043-6.227-.043-5.046 0-5.846.008-5.865.058m.565 3.038a1.1 1.1 0 0 0-.573.366c-.299.339-.292.268-.279 2.984L5.1 11.14l.112.229c.135.273.403.521.657.608.272.093 3.676.094 4.03.001.688-.179 1.287-.82 1.42-1.518.031-.166.042-.867.033-2.26l-.012-2.02-.107-.203a1.213 1.213 0 0 0-.649-.572c-.221-.083-.281-.085-2.356-.082-1.598.002-2.168.015-2.288.053m7.38.001a1.345 1.345 0 0 0-.888.734l-.132.267-.012 5.281c-.008 3.699.002 5.358.033 5.537a1.39 1.39 0 0 0 1.139 1.164c.166.032.697.042 1.72.031 1.39-.014 1.496-.021 1.74-.102a2.717 2.717 0 0 0 1.651-1.648l.089-.261.012-4.86c.01-3.568.001-4.918-.033-5.08a1.41 1.41 0 0 0-.961-1.044c-.228-.071-.384-.076-2.212-.072-1.439.002-2.014.017-2.146.053M9.671 8.603l-.011 1.564-.112.096-.112.097H6.8V7.04h2.883l-.012 1.563m7.279 3.014c-.01 4.554-.01 4.578-.093 4.688-.045.061-.15.165-.233.233l-.151.122-1.237.012-1.236.011V7.04h2.961l-.011 4.577M6.029 13.002c-.394.066-.759.387-.888.781-.058.179-.064.414-.053 1.98.012 1.712.015 1.784.097 1.957.108.23.345.467.575.575.174.082.243.085 2.04.097 2.123.013 2.255 0 2.667-.268.273-.177.572-.487.686-.71.201-.395.211-.501.199-2.12-.012-1.484-.014-1.517-.102-1.683-.105-.197-.323-.424-.485-.509a1.658 1.658 0 0 0-.37-.1c-.3-.049-4.077-.049-4.366 0m3.651 2.63c0 .687-.013.965-.048 1-.035.035-.411.048-1.44.048H6.8v-2h2.88v.952"/>
</svg>
