<svg width="32" height="32" xmlns="http://www.w3.org/2000/svg"><path d="M7.651 3.959c.103.533.165.71.345.988.247.382.466.57.911.782l.346.164 6.8.028c6.415.026 6.817.033 7.094.126 1.222.408 2.054 1.263 2.348 2.411.102.4.105.613.104 7.137-.001 7.56.022 7.11-.407 7.978-.207.421-.327.584-.708.962-.519.517-.977.777-1.682.958-.409.104-.584.107-7.198.107-6.693 0-6.785-.001-7.178-.11-1.147-.318-1.975-1.134-2.38-2.343-.092-.278-.099-.692-.125-7.707l-.028-7.413-.169-.358c-.308-.651-.964-1.13-1.641-1.2l-.296-.031v8.189c0 8.888-.011 8.531.291 9.422a5.642 5.642 0 0 0 1.725 2.462c.669.542 1.309.864 2.197 1.107l.507.139 6.586.018c4.231.012 6.826-.001 7.256-.037 1.47-.121 2.706-.682 3.707-1.682a5.768 5.768 0 0 0 1.677-3.623c.067-.754.068-12.931.001-13.66-.211-2.306-1.814-4.177-4.151-4.843l-.41-.116-7.778-.015-7.777-.015.033.175m.847 3.669a1.49 1.49 0 0 0-.843.49c-.363.422-.348.27-.348 3.639 0 3.509-.015 3.382.455 3.851.44.441.469.445 2.987.445 1.21 0 2.268-.023 2.43-.053.962-.18 1.796-1.039 1.967-2.027.04-.232.054-1.153.044-2.8-.016-2.367-.021-2.462-.129-2.697a1.718 1.718 0 0 0-.768-.763c-.233-.11-.314-.113-2.906-.122-1.467-.005-2.767.012-2.889.037m9.269.003a1.823 1.823 0 0 0-1.248.954l-.119.242-.015 6.853c-.012 5.196 0 6.91.048 7.086.083.3.399.72.709.94.429.305.557.321 2.645.32 2.082 0 2.236-.019 2.865-.341.829-.424 1.505-1.302 1.666-2.165.043-.229.056-2.08.045-6.48l-.016-6.16-.131-.255c-.156-.306-.534-.701-.799-.837a2.323 2.323 0 0 0-.508-.156c-.376-.07-4.789-.071-5.142-.001m-4.727 4.094v1.991l-.126.102c-.118.096-.231.102-1.8.102H9.44V9.705l1.8.014 1.8.014v1.992m9.187 3.732-.014 5.751-.146.222c-.278.419-.36.437-2.065.437h-1.495V9.707h3.734l-.014 5.75M8.234 17.313c-.311.11-.628.401-.789.724l-.138.277v2.296c.001 2.295.001 2.297.125 2.564.155.333.413.596.727.741.233.108.319.112 2.668.112 2.244 0 2.448-.008 2.72-.102.856-.295 1.473-1.01 1.605-1.858.032-.203.048-1.074.038-2.075l-.017-1.725-.158-.286c-.188-.34-.441-.561-.768-.673-.347-.118-5.678-.114-6.013.005m4.833 3.236c0 .854-.018 1.208-.064 1.254-.048.047-.524.064-1.814.064H9.44V19.36h3.627v1.189" fill="#A12577" fill-rule="evenodd"/></svg>
