<svg xmlns="http://www.w3.org/2000/svg" viewBox="0 0 20 19">
    <path fill="#A12577" fill-rule="evenodd" d="M8.833.948c-.498.059-.94.137-1.333.236C4.264 2 1.731 4.653 1.07 7.917.929 8.615.887 9.054.888 9.85c0 1.074.101 1.693.463 2.85.25.798.335 1.418.306 2.247-.022.658-.019.64-.412 2.229-.176.712-.312 1.301-.303 1.31.009.009.54-.141 1.181-.333 1.536-.46 1.583-.469 2.344-.469.829-.001.966.029 2.178.481.775.289 1.406.452 2.222.575.394.06 1.966.058 2.303-.002.224-.041.298-.039.65.014.522.077 1.431.079 1.913.003.343-.054.611-.121 1.217-.301a4.183 4.183 0 0 1 1.317-.191c.529-.001.514-.003 1.875.326.582.14 1.068.246 1.08.234.011-.012-.127-.536-.308-1.164l-.329-1.142-.011-.467c-.013-.535.036-.773.292-1.433.177-.456.314-.993.386-1.506.079-.571.054-1.76-.048-2.228a7.845 7.845 0 0 0-.303-1.083c-.073-.198-.1-.351-.129-.733-.171-2.222-1.123-4.214-2.727-5.703A9.14 9.14 0 0 0 11.093.981C10.613.909 9.324.89 8.833.948m2.25 1.548c2.286.395 4.171 1.731 5.295 3.754.102.183.208.388.236.456l.052.122-.325-.217c-1.053-.707-2.23-1.051-3.591-1.05-1.113.001-1.95.193-2.938.673-2.016.979-3.313 2.775-3.63 5.026-.069.496-.053 1.52.032 1.977a6.778 6.778 0 0 0 1.178 2.746c.122.165.388.471.59.679l.368.378-.167-.024a5.645 5.645 0 0 1-1.15-.289c-.918-.349-1.395-.469-2.106-.53a6.224 6.224 0 0 0-1.611.087c-.141.03-.261.049-.266.043A2.558 2.558 0 0 1 3.102 16c.24-1.236.146-2.386-.316-3.825a7.505 7.505 0 0 1-.352-3.058 7.126 7.126 0 0 1 1.158-3.334 7.45 7.45 0 0 1 5.332-3.334c.525-.067 1.64-.042 2.159.047m2.402 4.671a5.134 5.134 0 0 1 4.118 3.898c.046.198.078.519.105 1.055.049.998.025 1.133-.389 2.203a4.27 4.27 0 0 0-.272 1.01c-.052.322-.07 1.212-.028 1.381l.022.089-.179-.026a8.218 8.218 0 0 0-.779-.025c-.69.002-.926.038-1.75.264-.846.232-1.06.264-1.766.265-.72 0-1.001-.039-1.534-.213-.798-.262-1.406-.638-2.018-1.25-.433-.434-.712-.813-.957-1.301-.673-1.343-.722-3.019-.127-4.38.71-1.628 2.271-2.779 4.086-3.014.323-.042 1.101-.019 1.468.044m-.852 1.3a1.16 1.16 0 0 0-.627.332c-.079.083-.364.518-.633.966l-.49.815-.873.452c-.947.489-1.083.588-1.234.897-.117.239-.122.597-.013.878.126.322.273.445 1.199 1.002l.845.508.456.883c.494.954.589 1.086.882 1.217.358.161.758.128 1.097-.09.211-.135.253-.193.824-1.138l.484-.801.883-.457c.761-.394.904-.48 1.038-.626.191-.207.272-.431.27-.744a1.18 1.18 0 0 0-.31-.763c-.063-.066-.474-.335-.914-.597-.44-.263-.827-.5-.859-.528-.032-.028-.249-.426-.483-.886-.359-.705-.454-.865-.609-1.023a1.031 1.031 0 0 0-.933-.297m.385 2.803c.274.557.332.617.957.991.234.141.425.263.425.272 0 .009-.219.129-.487.266-.567.289-.597.319-.966.939-.14.236-.265.429-.277.429-.012 0-.134-.22-.271-.488-.288-.565-.3-.577-.962-.973l-.446-.268.497-.249c.516-.258.7-.404.83-.66.11-.215.424-.729.445-.729.012 0 .127.212.255.47"/>
</svg>
