<svg xmlns="http://www.w3.org/2000/svg" xml:space="preserve" viewBox="0 0 32 32"><path fill="#A12577" fill-rule="evenodd" d="M15.467 5.073c-3.578.208-6.889 2.247-8.737 5.38-1.17 1.984-1.699 4.433-1.447 6.696l.056.505-.395.386c-.865.846-1.141 2.058-.733 3.218.302.862 1.143 1.613 2.085 1.863.328.088 1.234.106 1.38.028.079-.042.208.06.756.602.742.731 1.23 1.114 2.058 1.611 1.672 1.004 3.569 1.518 5.607 1.518 1.76 0 3.247-.339 4.782-1.089 3.249-1.588 5.45-4.541 6.066-8.136.094-.548.114-.869.11-1.788-.003-.654-.035-1.307-.077-1.569l-.071-.448.293-.3a2.57 2.57 0 0 0 .745-1.819 2.582 2.582 0 0 0-.835-1.92c-.605-.565-1.203-.78-2.024-.726l-.487.031-.412-.472c-2.125-2.439-5.368-3.767-8.72-3.571m1.868 1.83a9.45 9.45 0 0 1 2.685.774c.951.437 2.139 1.292 2.823 2.03l.348.376-.184.305c-.963 1.599-.009 3.667 1.856 4.021.28.053.364.091.39.176.017.06.046.552.063 1.095.024.774.012 1.117-.058 1.591a9.28 9.28 0 0 1-7.525 7.775c-.407.075-.784.098-1.6.096-.944-.003-1.144-.019-1.738-.145a9.249 9.249 0 0 1-4.334-2.197c-.612-.545-.655-.609-.52-.781.334-.427.593-1.23.592-1.836-.004-1.51-1.054-2.713-2.597-2.973-.383-.065-.413-.08-.451-.223-.146-.545-.087-1.929.124-2.906a9.245 9.245 0 0 1 5.052-6.382c.798-.38 1.961-.711 2.868-.816.593-.069 1.605-.06 2.206.02M14.08 8.725c-.431.07-.757.156-1.037.273-.933.389-1.75 1.203-2.119 2.109-.311.764-.32.926-.298 5.311.018 3.571.03 4.015.112 4.298.248.852.813 1.399 1.625 1.571.193.041 1.409.06 3.842.06 3.045 0 3.605-.012 3.877-.083.893-.233 1.454-.908 1.574-1.895.035-.282.049-1.95.039-4.476l-.016-4.026-.149-.427a4.022 4.022 0 0 0-2.179-2.395c-.659-.302-.741-.311-3.031-.327-1.159-.008-2.167-.005-2.24.007m4.465 1.977c.381.155.683.388.928.713.367.489.367.489.367 3.581v2.764h-7.364l.016-2.867.015-2.866.146-.297a2.125 2.125 0 0 1 1.429-1.113c.131-.027 1.126-.044 2.211-.039 1.878.01 1.987.016 2.252.124m7.184.172c.374.209.53.923.283 1.29-.189.281-.439.423-.743.423-.446 0-.757-.254-.898-.732-.057-.192-.054-.259.025-.464.102-.268.385-.546.605-.595.08-.018.17-.039.199-.048.097-.028.371.037.529.126m-10.345 1.361c-.214.093-.439.365-.478.58-.018.094-.025.846-.016 1.669l.017 1.498.153.201c.279.365.436.401 1.74.401 1.002 0 1.174-.012 1.364-.098.67-.305.701-1.194.054-1.559-.188-.106-.31-.126-.898-.145l-.68-.021-.001-.967c-.001-.904-.009-.981-.121-1.18a.913.913 0 0 0-1.134-.379m-7.717 6.79c.26.133.523.527.6.899.163.782-.383 1.46-1.174 1.46-.867 0-1.441-.748-1.203-1.568.17-.583.696-.963 1.27-.917.169.013.397.07.507.126m12.109.506c.035.035.064.204.064.377 0 .304-.062.505-.181.585-.095.063-6.903.049-7.023-.015-.089-.048-.103-.115-.103-.498 0-.243.016-.458.036-.478.019-.019 1.635-.035 3.589-.035 2.693 0 3.57.015 3.618.064"/></svg>
