<svg width="32" height="32" xmlns="http://www.w3.org/2000/svg"><path d="M15.51 4.107c-3.402.348-6.313 2.029-8.283 4.785-2.084 2.914-2.767 6.93-1.755 10.308.477 1.591.613 2.473.563 3.646-.035.814-.112 1.223-.612 3.252a51.291 51.291 0 0 0-.344 1.438c.005.004.726-.214 1.604-.485 2.122-.654 2.742-.745 3.877-.569.586.091.823.158 1.458.414 1.065.429 2.145.745 3.108.907.784.133 2.491.168 3.115.065.449-.074.564-.074 1.045 0 .399.06.796.074 1.504.052 1.015-.031 1.378-.09 2.241-.367.67-.214.923-.268 1.522-.325.738-.07 1.294.009 2.896.411.792.198 1.446.353 1.453.344.007-.008-.168-.659-.39-1.445-.221-.787-.432-1.637-.469-1.89-.09-.624-.003-1.262.279-2.034.542-1.483.635-2.01.634-3.584-.001-1.374-.059-1.76-.43-2.877a4.052 4.052 0 0 1-.224-1.138c-.154-2.305-1.017-4.612-2.387-6.38-1.893-2.442-4.762-4.094-7.782-4.482-.584-.075-2.083-.101-2.623-.046m2.153 2.001a9.612 9.612 0 0 1 6.988 4.213c.309.461.897 1.549.859 1.588-.011.01-.216-.116-.455-.28-.902-.62-1.974-1.044-3.137-1.243-.877-.15-2.475-.121-3.246.059-2.619.611-4.705 2.219-5.858 4.517-1.274 2.538-1.29 5.496-.045 7.995.43.863.895 1.517 1.639 2.307l.303.321-.219-.039c-.658-.116-1.016-.21-1.473-.387-1.494-.581-2.101-.706-3.394-.703-.636.001-1.031.029-1.32.093-.227.05-.428.091-.447.091-.019 0-.002-.155.037-.344.333-1.597.221-3.198-.356-5.079-.563-1.833-.669-3.528-.334-5.305.387-2.052 1.549-4.051 3.189-5.485a9.463 9.463 0 0 1 7.269-2.319m3.675 6.297c2.424.393 4.473 2.176 5.257 4.575.223.682.304 1.293.316 2.39.013 1.129-.02 1.316-.406 2.306-.412 1.056-.58 2.004-.528 2.983l.031.597-.248-.037c-.432-.065-1.57-.035-2.078.054-.269.047-.789.171-1.155.275a13.58 13.58 0 0 1-1.153.273c-.601.103-1.786.106-2.344.006-2.435-.437-4.516-2.422-5.137-4.9a7.174 7.174 0 0 1-.081-3.296c.692-3.451 4.059-5.788 7.526-5.226m-1.342 1.838c-.425.171-.649.444-1.336 1.627l-.641 1.103-1.17.619c-1.302.688-1.497.85-1.648 1.371-.154.528.017 1.156.411 1.51.11.099.666.465 1.235.813l1.034.632.588 1.155c.323.635.675 1.251.781 1.37.52.58 1.543.574 2.103-.013.106-.111.48-.694.83-1.296l.637-1.093 1.144-.6c1.245-.654 1.479-.839 1.634-1.295.183-.537.058-1.14-.314-1.521-.128-.13-.71-.529-1.294-.886l-1.062-.65-.573-1.143c-.607-1.213-.787-1.473-1.147-1.657-.325-.166-.864-.187-1.212-.046m.795 3.646c.15.31.357.651.46.758.103.107.448.353.767.547.319.194.567.374.552.399-.016.025-.298.181-.628.346-.675.339-.811.477-1.286 1.306-.149.26-.288.464-.307.452-.02-.013-.166-.28-.324-.595-.34-.676-.498-.839-1.26-1.302l-.567-.345.237-.135c.131-.075.424-.23.653-.346.495-.249.696-.466 1.068-1.147.151-.276.294-.502.318-.502.025 0 .167.254.317.564" fill="#A12577" fill-rule="evenodd"/></svg>
