<svg xmlns="http://www.w3.org/2000/svg" viewBox="0 0 32 32" xml:space="preserve"><path d="M10.55 4.057A5.16 5.16 0 0 0 6.602 7.03a7.121 7.121 0 0 0-.301.863l-.14.507-.017 7.227c-.011 5.042.001 7.383.043 7.744.115 1.011.433 1.823 1.015 2.596.787 1.045 1.908 1.721 3.245 1.955.645.113 7.28.112 8.129-.001 1.678-.223 3.17-.921 4.356-2.038 1.381-1.3 2.288-2.952 2.732-4.976l.123-.56v-6.054c0-6.693.025-6.174-.344-7.131-.319-.826-1.05-1.735-1.81-2.251a6.016 6.016 0 0 0-1.665-.761c-.448-.119-.449-.119-5.781-.129-2.934-.005-5.47.011-5.637.036m10.943 2.416c.943.312 1.674 1.09 1.892 2.012.068.291.08 1.042.081 5.088v4.747l-.733.005c-.872.007-1.446.127-2.122.444-1.984.929-3.127 2.849-3.384 5.684-.03.323-.054.726-.054.896v.309l-3.213-.017c-3.143-.016-3.22-.019-3.517-.132-.941-.356-1.615-1.091-1.828-1.994C8.494 23 8.494 9 8.615 8.485a2.777 2.777 0 0 1 2.286-2.086c.15-.023 2.528-.037 5.286-.032 4.693.008 5.032.015 5.306.106m-8.991 3.736a1.17 1.17 0 0 0-.522 1.898c.353.391.206.378 4.211.361l3.577-.015.222-.147c.471-.312.662-.886.466-1.4-.116-.304-.486-.634-.8-.713-.358-.09-6.861-.076-7.154.016m-.042 3.949a1.36 1.36 0 0 0-.393.251c-.502.477-.513 1.158-.028 1.657.363.372.279.365 4.179.349 3.832-.016 3.617.002 3.962-.343.265-.265.367-.53.344-.894a1.1 1.1 0 0 0-.64-.959l-.278-.139-3.47.002c-2.811.002-3.509.017-3.676.076m10.847 6.584c0 .147-.348 1.075-.564 1.505-.502.999-1.086 1.706-1.917 2.318-.369.273-1.125.715-1.22.715-.059 0-.034-.536.05-1.103.3-2.02 1.139-3.144 2.557-3.429.3-.06 1.094-.065 1.094-.006" fill="#A12577" fill-rule="evenodd"/></svg>