<svg xmlns="http://www.w3.org/2000/svg" viewBox="0 0 42 42">
  <path fill="#a12577" fill-rule="evenodd" d="M19.46 3.084c-1.673.185-2.112.373-2.474 1.056-.4.757-.135 1.555.655 1.971.437.229.639.231 1.959.015.877-.143 2.544-.111 3.515.066 2.5.458 4.73 1.669 6.53 3.548 1.604 1.674 2.627 3.619 3.125 5.94.135.631.158.952.161 2.275.003 1.337-.017 1.644-.156 2.328-.685 3.381-2.693 6.241-5.615 7.997l-.582.35H15.422l-.582-.35a12 12 0 0 1-4.542-4.882c-1.122-2.238-1.476-4.457-1.156-7.251.132-1.146.094-1.365-.309-1.812-.64-.711-1.578-.729-2.23-.044-.321.337-.424.68-.508 1.688-.171 2.043-.05 4.034.339 5.556.624 2.446 1.994 4.962 3.654 6.709.276.291.49.536.475.545l-.567.284a3.38 3.38 0 0 0-1.777 2.165c-.152.571-.141 4.855.014 5.377.336 1.132 1.101 1.94 2.18 2.3.437.147.445.147 11.165.128l10.727-.018.547-.261a3.37 3.37 0 0 0 1.831-2.191c.151-.58.155-4.851.005-5.414-.335-1.26-1.348-2.226-2.593-2.473a5 5 0 0 1-.447-.102c-.014-.011.196-.257.468-.549 1.998-2.139 3.362-5.084 3.756-8.106.124-.947.142-2.75.036-3.621-.351-2.899-1.565-5.748-3.357-7.876-2.365-2.809-5.463-4.592-9.066-5.216-.97-.169-3.07-.237-4.025-.132m3.394 6.744c-.329.143-.641.546-.719.929-.038.186-.237 1.715-.442 3.398-.204 1.682-.382 3.049-.395 3.036s-.116-.605-.228-1.316c-.231-1.454-.237-1.473-.469-1.788-.492-.665-1.589-.584-1.935.144-.061.129-.365 1.759-.676 3.621s-.577 3.398-.59 3.411-.344-.569-.736-1.295c-.391-.725-.836-1.465-.989-1.644-.378-.441-1.032-.864-1.632-1.052-.451-.142-.639-.157-2.003-.157-1.632 0-1.778.028-2.049.395a1.2 1.2 0 0 0-.168.49c-.043.419.144.75.54.953.285.146.397.157 1.59.157 1.452 0 1.636.049 2.047.541.121.145.741 1.241 1.378 2.434 1.111 2.082 1.36 2.477 1.665 2.642.26.141.628.189.898.117.313-.084.77-.473.878-.747.041-.106.219-.995.394-1.977.384-2.142.462-2.539.494-2.507.013.014.154.764.312 1.668.326 1.855.437 2.163.896 2.481.569.394 1.427.204 1.731-.384.071-.136.271-1.466.562-3.728.248-1.933.452-3.56.452-3.614 0-.29.1.13.383 1.61.191 1.003.372 1.754.464 1.936.322.63 1.136 1.193 1.95 1.347.205.039 1.147.07 2.095.069 1.525-.001 1.756-.016 2.008-.131.504-.228.683-.934.36-1.413-.268-.398-.342-.412-2.185-.413-1.837-.002-2.129-.045-2.42-.356-.174-.187-.246-.496-.972-4.176-.84-4.254-.885-4.412-1.332-4.65-.286-.151-.847-.167-1.157-.031M18.616 31.81c.216.23.19.382-.374 2.21-.994 3.217-.944 3.119-1.531 3.062-.455-.043-.892-.472-.89-.871 0-.069-.18-.719-.401-1.444-.282-.927-.417-1.28-.455-1.19-.029.07-.213.723-.408 1.45-.402 1.496-.557 1.879-.808 1.993-.465.212-.974-.014-1.201-.532-.231-.529-1.418-4.062-1.418-4.223 0-.208.371-.555.593-.555.207 0 .527.3.527.494 0 .129.885 3.144.939 3.198.017.017.06-.074.096-.203.628-2.261.899-3.111 1.049-3.289s.214-.2.571-.2c.618 0 .617-.002 1.31 2.45.18.635.346 1.178.37 1.206.034.039.839-2.559 1.036-3.341.067-.264.237-.385.543-.385.218 0 .332.043.452.17m11.069.105c.229.228.256.365.1.495-.058.048-.105.127-.105.176s-.047.107-.105.129a.17.17 0 0 0-.105.149c0 .059-.273.777-.606 1.594a55 55 0 0 0-.759 1.942c-.127.377-.194.476-.392.577-.297.153-.682.158-.891.011-.088-.061-.24-.289-.339-.507-.414-.915-1.513-3.777-1.544-4.022-.035-.275.076-.473.348-.618.179-.096.647.048.771.237.056.087.363.866.681 1.732s.601 1.616.627 1.666c.027.051.253-.462.524-1.19.262-.705.57-1.509.685-1.789.322-.785.707-.986 1.11-.582m-6.412.148c.355.105.767.515.878.874.047.153.11.94.138 1.748.029.809.089 1.587.134 1.731.07.22.064.288-.035.44-.251.383-.604.416-.916.087a2.3 2.3 0 0 1-.298-.388l-.082-.161-.204.172a2.65 2.65 0 0 1-1.515.593c-1.172.06-1.838-.475-1.841-1.48-.004-.843.511-1.28 1.703-1.444.303-.042.76-.136 1.015-.21.256-.074.555-.154.666-.178.192-.042.199-.057.155-.338a1.3 1.3 0 0 0-.173-.469c-.118-.161-.177-.177-.766-.195-.716-.023-.978.064-1.179.389-.249.402-.461.576-.701.576-.331 0-.513-.207-.509-.577.008-.648.388-1.01 1.272-1.211.506-.115 1.812-.091 2.258.041m-.92 2.482a3.3 3.3 0 0 0-.573.169.8.8 0 0 1-.324.076c-.718 0-1.012.968-.386 1.274.337.164.604.153 1.015-.04.431-.204.629-.415.728-.779.087-.321.102-.808.025-.799-.029.003-.247.047-.485.099"/>
</svg>
