<svg xmlns="http://www.w3.org/2000/svg" viewBox="0 0 42 42">
  <path fill="#a12577" fill-rule="evenodd" d="M16.706 6.092c-2.553.436-4.716 2.471-5.23 4.921-.075.353-.153.76-.174.905l-.038.262H6.02v11.55h5.24l.026 3.588.027 3.587.18.666c.099.366.277.877.394 1.136.66 1.456 2.006 2.733 3.513 3.333 1.099.438 1.117.439 6.828.413l5.177-.024.733-.192a15 15 0 0 0 1.365-.442c2.995-1.186 5.264-3.778 6.3-7.2.471-1.553.464-1.403.442-9.8l-.02-7.56-.201-.595c-.756-2.24-2.331-3.751-4.629-4.437-.482-.144-.609-.146-7.42-.157-3.812-.006-7.082.015-7.269.046m14.109 3.077c1.169.361 2.111 1.377 2.392 2.58l.101.431H14.301l.063-.399c.187-1.193 1.223-2.312 2.443-2.64.317-.085 1.44-.103 6.968-.106 6.383-.005 6.604-.001 7.04.134m-7.618 4.408c.387.147.393.201.393 3.699v3.213l-.162.238c-.146.215-.193.238-.489.234-.394-.006-.654-.212-.722-.572l-.044-.239-.184.173c-.358.335-.918.565-1.374.565-.983-.001-1.494-.331-1.988-1.286-.344-.666-.458-1.205-.396-1.882.087-.96.501-1.664 1.178-2.002.298-.148.457-.178.939-.178.668 0 1.15.15 1.574.491l.268.216v-1.043c0-.582.034-1.141.077-1.265.124-.355.531-.514.93-.362m4.328.006c.321.089.475.236.475.453 0 .264-.247.384-.789.384-.416 0-.5.022-.653.175-.15.15-.172.229-.154.54l.021.365.399.079c.557.112.756.256.756.549 0 .311-.112.39-.641.448l-.444.049-.035 1.967c-.038 2.147-.035 2.129-.46 2.27-.209.069-.278.058-.537-.085l-.298-.165-.035-1.993-.035-1.994-.385-.022c-.274-.015-.43-.064-.542-.169-.338-.317-.12-.647.477-.726l.326-.044.041-.499c.081-.969.278-1.307.889-1.518.428-.148 1.211-.179 1.624-.064m-14.078 2.102c.144.102.216.225.248.424l.044.28.2-.243c.11-.133.339-.324.51-.424.268-.157.392-.182.893-.181.467 0 .653.033.933.166.774.368 1.233 1.141 1.283 2.166.037.777-.108 1.354-.493 1.957-.35.547-.474.646-1.025.82-.866.273-1.614.135-2.134-.393l-.317-.321-.022 1.273-.022 1.273-.205.176c-.164.141-.253.168-.45.137-.486-.079-.463.089-.487-3.495-.015-2.209.003-3.318.056-3.497.075-.259.082-.263.431-.263.245 0 .416.044.557.145m1.165.779c-.317.085-.694.498-.811.886-.147.493-.103 1.197.1 1.606.358.719.887.971 1.492.71.432-.185.666-.508.818-1.125.195-.79-.041-1.491-.638-1.889-.341-.227-.616-.281-.961-.188m5.863.186c-.355.162-.424.248-.595.746-.18.521-.183 1.227-.009 1.609.195.426.718.875 1.021.875.869 0 1.44-.817 1.35-1.933-.048-.599-.314-1.049-.75-1.269-.375-.19-.644-.197-1.017-.028m12.845 7.308v.227l-.893.011c-1.843.021-3.23.562-4.494 1.752-1.656 1.558-2.432 3.574-2.631 6.83l-.045.752-3.756-.001c-2.232 0-3.941-.029-4.211-.072-1.479-.234-2.726-1.496-2.937-2.972-.039-.269-.071-1.9-.072-3.622l-.001-3.133h19.04zm-.35 3.349c0 .21-.465 1.422-.783 2.042-.45.876-1.019 1.648-1.601 2.172-.498.449-1.508 1.152-2.046 1.424l-.347.176.049-.618c.238-2.961 1.272-4.671 3.118-5.162.465-.123 1.61-.147 1.61-.034"/>
</svg>
