<svg xmlns="http://www.w3.org/2000/svg" viewBox="0 0 42 42">
  <path fill="#a12577" fill-rule="evenodd" d="M19.775 3.058c-.634.055-1.763.252-2.012.352-.146.058-.387.244-.535.412-.79.898-.403 2.105.776 2.418.282.075.425.068 1.015-.049 1.052-.209 3.274-.193 4.32.03 2.058.438 3.828 1.308 5.476 2.69.797.669 1.498 1.467 2.163 2.464 3.68 5.513 2.198 12.911-3.328 16.605-1.079.722-.345.65-6.65.65-6.304 0-5.569.072-6.65-.648a11.92 11.92 0 0 1-5.312-9.128c-.059-.866-.001-2.193.135-3.089.098-.647.015-1.007-.326-1.406-.739-.863-1.97-.713-2.493.304-.348.677-.427 4.11-.133 5.777.521 2.958 1.982 5.85 4.022 7.961.195.201.34.376.323.389s-.251.129-.521.259a3.5 3.5 0 0 0-1.818 2.208c-.156.6-.156 4.716 0 5.316.301 1.152 1.159 2.024 2.338 2.374.334.099.974.113 5.231.113h4.851l-.069-.18c-.041-.107-.068-1.502-.068-3.471 0-3.669-.007-3.617.474-3.775.434-.144.84.138.906.628l.038.283.384-.342c.451-.402.856-.529 1.516-.476.537.043.907.228 1.291.644.754.818.898 2.194.349 3.324-.513 1.054-1.404 1.486-2.547 1.231-.452-.1-.574-.16-.799-.392l-.265-.274-.032 1.103c-.034 1.157-.094 1.416-.36 1.545-.105.051 1.443.074 5.138.077 5.734.005 5.676.009 6.454-.382a3.33 3.33 0 0 0 1.662-1.972c.129-.417.141-.65.141-2.746 0-1.89-.019-2.356-.112-2.67-.377-1.285-1.433-2.287-2.663-2.527a4 4 0 0 1-.436-.1c-.014-.011.204-.273.483-.581 3.969-4.373 4.965-10.713 2.539-16.15-.741-1.662-1.701-3.044-3.062-4.409-2.24-2.247-4.826-3.614-7.931-4.192-1.134-.211-2.787-.295-3.903-.198m1.99 6.81c-.406.215-.74.637-.827 1.047-.051.236-.078 1.528-.078 3.723 0 3.169-.007 3.359-.122 3.323-.623-.194-1.676-.164-2.368.067-.823.276-1.72.982-2.213 1.742-.561.865-.79 2.187-.554 3.19.381 1.615 1.696 2.922 3.275 3.256.262.056.612.102.777.103.516.002 1.358-.208 1.905-.474.698-.34 1.549-1.178 1.868-1.84.458-.951.46-.968.493-4.533.029-2.99.04-3.239.148-3.193.807.34 1.595.521 2.275.521 1.488 0 2.193-1.604 1.135-2.579-.325-.299-.668-.43-1.131-.431-.386 0-1.012-.224-1.394-.498-.536-.385-1.014-1.225-1.014-1.782 0-.746-.337-1.347-.92-1.645-.343-.175-.92-.174-1.255.003m-1.437 11.221c.719.412.729 1.514.019 2.04-.278.206-1.005.207-1.28.002-.754-.563-.728-1.683.048-2.078.34-.174.875-.158 1.213.036m9.953 8.979c.188.116.437.352.553.524.179.267.214.392.235.847.029.611-.094.977-.473 1.408l-.223.255.18.118c.099.065.32.327.492.582.25.373.324.556.377.935.081.566.021.827-.297 1.291-.785 1.148-2.638 1.419-3.811.557-.54-.396-.996-1.217-.897-1.614.065-.26.33-.526.569-.572.307-.058.55.166.869.802.217.43.32.56.525.657a1.34 1.34 0 0 0 1.58-.343c.185-.212.21-.291.21-.675 0-.891-.329-1.176-1.428-1.236-.662-.037-.709-.049-.793-.214a.6.6 0 0 1-.049-.35c.075-.318.211-.397.773-.444.814-.069 1.149-.345 1.202-.989.026-.309.005-.389-.155-.578-.23-.274-.727-.473-1.03-.413-.278.056-.616.403-.791.814-.199.466-.372.636-.592.583-.28-.067-.547-.282-.597-.482-.113-.452.619-1.304 1.344-1.564.325-.116.543-.14 1.143-.127.688.015.766.032 1.084.228m-17.8 1.618c.28.144.394.291.397.509l.002.169.158-.148c.323-.304.818-.467 1.417-.469.704-.002 1.146.154 1.373.486l.163.237.287-.266c.584-.538 1.624-.653 2.302-.255.573.335.562.285.589 2.644l.023 2.085-.21.211c-.373.373-.992.23-1.128-.262-.041-.146-.073-.973-.074-1.874 0-1.795-.012-1.847-.46-1.995-.22-.072-.287-.063-.57.083-.606.312-.61.327-.65 2.24l-.035 1.681-.196.169a.726.726 0 0 1-.938 0l-.196-.169-.035-1.824-.035-1.825-.194-.194c-.376-.375-1.172-.201-1.421.31-.111.228-.133.487-.156 1.806-.029 1.724-.048 1.797-.494 1.93-.353.106-.628-.017-.797-.355-.109-.217-.123-.484-.123-2.305 0-1.938.009-2.079.144-2.359.188-.388.453-.469.857-.26m10.248 1.041c-.65.239-.943.653-1.008 1.425-.097 1.163.569 1.969 1.485 1.797.545-.102 1.084-.872 1.084-1.547 0-.722-.38-1.504-.82-1.688-.275-.115-.398-.112-.741.013"/>
</svg>
