<svg xmlns="http://www.w3.org/2000/svg" viewBox="0 0 42 42">
  <path fill="#a12577" fill-rule="evenodd" d="M14.14 6.154c-2.322.495-4.07 2.104-4.874 4.486l-.201.595v9.94c0 9.585.005 9.958.134 10.43.331 1.207.863 2.133 1.713 2.983s1.776 1.382 2.983 1.713c.463.127.781.134 5.81.134h5.32l.75-.191c2.025-.514 3.429-1.309 4.858-2.751 1.925-1.942 3.114-4.585 3.319-7.379.084-1.152.084-13.422-.001-14.288-.256-2.629-2.034-4.752-4.671-5.578l-.615-.192-6.965-.014c-6.49-.013-7.006-.006-7.56.112m14.365 3.015a3.6 3.6 0 0 1 2.098 1.777c.405.802.404.789.406 7.305l.001 5.967-.408-.043c-.508-.053-1.659.077-2.337.263-1.951.536-3.677 2.164-4.47 4.215-.443 1.146-.764 2.832-.766 4.023 0 .296-.02.61-.043.697l-.042.157-3.755-.001c-2.282 0-3.932-.029-4.209-.074-.565-.091-1.336-.454-1.765-.832-.44-.387-.864-1.04-1.034-1.592-.138-.447-.141-.639-.141-9.786s.003-9.339.141-9.786c.257-.831.848-1.553 1.65-2.012.731-.419.512-.407 7.669-.412 6.348-.005 6.569-.001 7.005.134m-7.05.93c-.077.044-1.791 1.74-3.809 3.77l-3.669 3.69-.029.373-.029.373 3.712 3.706c2.042 2.038 3.785 3.746 3.873 3.795.448.248.305.369 4.273-3.599l3.693-3.693v-.336c0-.444-.101-.616-.731-1.237l-.53-.524-3.308 3.307-3.307 3.306-2.502-2.503-2.502-2.503 2.52-2.519 2.52-2.519.857.857.857.857-1.654 1.662-1.654 1.663.653.617c.359.339.736.682.839.762l.185.147 2.479-2.478 2.478-2.477-2.188-2.193c-1.203-1.206-2.272-2.237-2.376-2.293-.222-.118-.456-.122-.651-.011m9.205 17.605c-.609 2.197-2.201 4.159-4.18 5.153a3 3 0 0 1-.403.183c-.062 0-.042-.657.038-1.233.212-1.52.747-2.859 1.413-3.535.682-.692 1.536-1.025 2.655-1.036l.608-.006z"/>
</svg>
