<svg xmlns="http://www.w3.org/2000/svg" viewBox="0 0 16 22">
    <path fill-rule="evenodd" d="M4.884.81c.009.045.056.318.103.607.048.288.151.804.229 1.147.216.943.231 1.077.216 1.884-.015.783-.052 1.057-.208 1.53-.255.769-.597 1.164-1.526 1.76-.994.638-1.433.938-1.658 1.134a4.983 4.983 0 0 0-1.304 1.702c-.522 1.082-.773 2.522-.705 4.047.11 2.476 1.294 4.387 3.405 5.496.711.373 1.48.632 2.457.828.575.115 2.583.099 4.378-.035.778-.058 1.019-.098 1.449-.241 1.072-.356 2.29-1.318 3.176-2.507.641-.861 1.092-1.904 1.255-2.903.08-.492.079-1.514-.002-1.989-.178-1.049-.532-1.849-1.437-3.245-.476-.736-1.085-1.479-1.42-1.733-.353-.268-.559-.343-.892-.324-.389.022-.662.207-.838.568-.162.333-.17.555-.072 1.876.031.407.041.759.03 1.013-.022.485-.047.732-.073.716-.03-.019-.057-.511-.086-1.587-.03-1.109-.084-1.824-.182-2.416-.323-1.959-.857-3.387-1.766-4.724a7.78 7.78 0 0 0-.993-1.222c-.689-.691-1.255-1.08-1.869-1.284-.31-.103-.541-.135-1.178-.16l-.506-.02.017.082m2.731 3.029c.257.314.664.933.866 1.319.385.733.67 1.553.881 2.529.192.886.262 1.605.299 3.051.05 1.907.199 2.972.49 3.485.117.207.424.512.608.606a1.448 1.448 0 0 0 1.687-.274c.257-.261.436-.62.547-1.097.082-.351.213-1.508.23-2.037.016-.458.023-.514.058-.467.022.029.143.219.269.422.725 1.163.972 1.91.967 2.932-.003.814-.206 1.548-.635 2.295-.642 1.118-1.833 2.184-2.768 2.476-.372.117-1.686.208-3.393.235-1.15.019-1.279.011-1.87-.12-.717-.159-1.516-.486-2.064-.843a4.387 4.387 0 0 1-1.729-2.121c-.553-1.403-.415-3.783.295-5.081.356-.65.715-.988 1.727-1.627.701-.442 1.016-.658 1.331-.911.892-.718 1.442-1.706 1.646-2.962.053-.328.118-1.332.096-1.484a8.982 8.982 0 0 1-.023-.482l-.013-.411.168.185c.092.101.241.273.33.382"/>
</svg>
