<svg width="32" height="32" xmlns="http://www.w3.org/2000/svg"><path d="M13.201 4.056c.002.162.298 1.721.447 2.351.173.737.181.818.181 1.87 0 .949-.017 1.166-.121 1.58-.297 1.183-.696 1.654-2.296 2.709-1.282.846-1.703 1.173-2.113 1.641-.923 1.054-1.488 2.436-1.701 4.163-.307 2.488.12 4.587 1.275 6.266 1.308 1.9 4.002 3.258 6.638 3.345 1.51.05 4.661-.137 5.374-.319 1.829-.468 3.935-2.407 4.904-4.518.843-1.833.932-3.866.251-5.685-.389-1.038-1.371-2.671-2.237-3.719-.741-.898-1.15-1.175-1.721-1.168-.389.005-.594.1-.863.397-.365.404-.372.481-.293 2.959.033 1.017.028 1.391-.018 1.42-.044.027-.063-.049-.064-.254-.004-.776-.112-3.159-.166-3.647-.261-2.367-.997-4.5-2.137-6.194-1.072-1.595-2.225-2.617-3.413-3.027-.386-.133-1.929-.269-1.927-.17m3.628 4.224c.825 1.212 1.334 2.502 1.674 4.245.182.935.245 1.642.308 3.474.094 2.703.282 3.698.812 4.302.431.49 1.208.674 1.841.435.581-.219 1.012-.778 1.22-1.583.115-.442.306-2.11.307-2.68l.001-.441.276.431c.9 1.403 1.23 2.361 1.228 3.557-.003 1.54-.676 3.007-1.966 4.285-.802.795-1.564 1.293-2.182 1.427-.799.174-4.651.307-5.471.19-1.385-.199-2.754-.815-3.647-1.641a4.823 4.823 0 0 1-1.139-1.536c-.448-.927-.604-1.824-.561-3.218.039-1.284.237-2.216.644-3.035.42-.846.785-1.228 1.816-1.904 1.364-.893 1.525-1.005 1.883-1.302.94-.779 1.582-1.915 1.854-3.276.096-.484.165-1.68.134-2.337l-.028-.606.309.329c.17.18.479.579.687.884" fill-rule="evenodd" fill="#000"/></svg>
