<svg xmlns="http://www.w3.org/2000/svg" viewBox="0 0 32 32" xml:space="preserve"><path d="M9.787 4.962c-.494.1-.938.402-1.075.729-.06.143-.072 1.929-.072 10.393v10.221l.112.194c.155.269.386.441.707.524.413.107.794.006 1.119-.296.342-.317.327-.163.344-3.503l.016-3.043.278-.059c.265-.057 9.588-4.22 10.45-4.666.476-.247 1.068-.768 1.323-1.166.564-.879.617-1.958.143-2.927-.211-.432-.885-1.132-1.345-1.398-.457-.264-10.773-4.903-11.092-4.988a1.927 1.927 0 0 0-.908-.015m5.92 4.475c2.552 1.15 4.763 2.171 4.913 2.269.291.191.554.608.553.878-.001.405-.325.891-.765 1.146-.217.126-9.198 4.123-9.381 4.176-.089.025-.094-.252-.094-5.292 0-4.233.014-5.313.067-5.293.037.014 2.155.967 4.707 2.116" fill="#A12577" fill-rule="evenodd"/></svg>