<svg width="32" height="32" xmlns="http://www.w3.org/2000/svg"><path d="M9.997 5.041c-.32.11-.691.419-.792.66-.063.151-.075 1.871-.075 10.398v10.218l.117.192c.217.356.576.551 1.011.551.333 0 .568-.093.816-.323.322-.298.311-.179.311-3.484V20.21l.289-.067c.417-.097 10.458-4.624 10.856-4.894.453-.308.912-.821 1.13-1.262.178-.363.183-.391.2-1.186.02-.93-.027-1.147-.368-1.674a3.792 3.792 0 0 0-1.107-1.092c-.197-.127-2.771-1.316-5.72-2.643L11.303 4.98l-.523-.014c-.37-.01-.599.012-.783.075m6.211 4.397c2.596 1.168 4.829 2.202 4.963 2.297.678.484.65 1.292-.063 1.867-.182.146-9.271 4.227-9.599 4.309l-.124.031v-5.314c0-3.311.02-5.313.052-5.313.029 0 2.176.955 4.771 2.123" fill="#A12577" fill-rule="evenodd"/></svg>
