<svg width="32" height="32" xmlns="http://www.w3.org/2000/svg"><path d="M15.413 4.036c-3.495.248-6.375 1.65-8.515 4.144-2.294 2.675-3.302 6.331-2.707 9.82.099.582.236 1.133.482 1.947.381 1.258.491 2.554.313 3.68-.044.278-.275 1.293-.513 2.255-.238.963-.42 1.762-.404 1.778.015.015.756-.191 1.646-.458 1.73-.519 2.313-.642 3.032-.641.799.001 1.468.146 2.533.549a17 17 0 0 0 2.487.741c.555.112.745.122 2.26.122 1.607 0 1.672-.004 2.328-.147 1.454-.317 3.032-.983 4.234-1.788 2.9-1.939 4.754-4.862 5.286-8.331.128-.833.128-2.567 0-3.387-.512-3.284-2.165-6.055-4.755-7.971-1.846-1.366-3.9-2.118-6.267-2.295-.695-.052-.926-.055-1.44-.018m2.206 2.119c.26.043.488.094.507.113.019.019-.014.074-.074.123-.128.106-6.508 7.263-6.862 7.697a2.635 2.635 0 0 0-.358.602c-.15.402-.152.986-.004 1.383.192.511.406.691 1.618 1.363.606.336 1.101.626 1.101.646 0 .053-6.52 5.976-6.547 5.949-.013-.013.002-.266.035-.563.15-1.378.026-2.513-.454-4.151-.615-2.101-.7-3.453-.336-5.344.224-1.163.775-2.52 1.409-3.466 1.66-2.478 4.173-4.032 7.066-4.369l.693-.08c.36-.042 1.738.019 2.206.097m7.868 6.769a9.814 9.814 0 0 1 .468 3.449c-.017.426-.057.93-.087 1.12-.34 2.095-1.206 3.869-2.607 5.343-1.067 1.122-2.121 1.86-3.474 2.432-1.216.514-2.127.711-3.454.746-1.655.044-2.544-.119-4.44-.815-1.211-.444-1.596-.535-2.675-.632l-.676-.06 6.062-2.315c3.335-1.273 6.237-2.396 6.45-2.495.666-.312 1.012-.894.96-1.616-.044-.624-.166-.779-1.387-1.766-.949-.768-1.052-.866-.965-.924a588.02 588.02 0 0 1 2.518-1.528c1.678-1.014 2.496-1.54 2.667-1.712l.246-.25.119.267a9.3 9.3 0 0 1 .275.756" fill-rule="evenodd" fill="#000"/></svg>
