<svg xmlns="http://www.w3.org/2000/svg" viewBox="0 0 21 21">
    <path fill-rule="evenodd" d="M10.15.758c-1.532.147-2.754.488-3.963 1.105a10.019 10.019 0 0 0-4.939 5.785 9.763 9.763 0 0 0-.502 2.907c-.038 1.332.091 2.179.58 3.813.198.664.255 1.027.274 1.767.024.912-.021 1.198-.48 3.042a48.85 48.85 0 0 0-.376 1.564c.006.006.641-.178 1.41-.408.769-.23 1.54-.445 1.714-.477.414-.077 1.251-.076 1.68.002.43.077.662.147 1.435.433.703.26 1.222.416 1.767.532.726.154 1.005.177 2.166.177.96 0 1.175-.01 1.532-.071a10.419 10.419 0 0 0 4.374-1.857c3-2.205 4.557-5.814 4.089-9.479a10.167 10.167 0 0 0-3.761-6.687A9.92 9.92 0 0 0 10.885.741c-.337.003-.668.01-.735.017m1.356 1.707c.336.016.977.098 1.121.144.026.008-.257.351-.669.811-2.999 3.352-5.194 5.831-5.295 5.981a1.621 1.621 0 0 0-.284.823c-.021.311.028.56.168.836.175.346.351.482 1.316 1.018.487.271.894.506.905.522.01.017-.054.098-.142.181-.503.473-5.39 4.916-5.4 4.909a1.254 1.254 0 0 1 .027-.249c.022-.131.049-.524.061-.872.033-.996-.074-1.752-.409-2.884-.35-1.183-.458-1.849-.458-2.812 0-.913.091-1.576.335-2.431.372-1.306 1.034-2.44 2.013-3.45 1.236-1.276 2.66-2.047 4.393-2.38.66-.127 1.429-.199 1.82-.172.057.004.281.015.498.025m7.256 5.464c.177.47.327 1.043.424 1.609.103.609.114 1.96.02 2.556a8.398 8.398 0 0 1-.779 2.484c-1.279 2.614-3.842 4.411-6.772 4.745-.446.051-1.432.022-1.96-.057-.775-.117-1.318-.265-2.24-.611-.637-.24-1.032-.36-1.417-.433a5.63 5.63 0 0 0-1.076-.124l-.48-.02 5.258-2.01c2.891-1.106 5.345-2.054 5.453-2.107a1.58 1.58 0 0 0 .665-.721c.062-.157.08-.277.082-.536.002-.307-.006-.35-.111-.564-.133-.27-.167-.302-1.175-1.114-.417-.336-.759-.62-.759-.63.001-.01.95-.593 2.109-1.296 1.738-1.053 2.145-1.314 2.319-1.487l.21-.21.047.083c.026.046.108.245.182.443"/>
</svg>
