<svg width="32" height="32" xmlns="http://www.w3.org/2000/svg"><path d="M15.26 4.965c-.543.51-1.037 1.009-1.098 1.108-.06.099-.194.275-.296.392-.103.116-.239.33-.303.475l-.116.263-.878-.742c-.483-.407-.893-.741-.912-.741-.019 0-.073.043-.12.096-.467.532-.494 1.562-.058 2.222.079.119.888.85 1.798 1.624.911.775 1.705 1.455 1.764 1.511.108.102.098.114-.806 1.024-1.119 1.126-1.172 1.216-1.172 1.965 0 .52.01.569.184.891.335.617.123.743 2.264-1.352 1.696-1.66 2.109-2.03 3.904-3.495 1.104-.902 2.127-1.754 2.273-1.894a1.867 1.867 0 0 0 .581-1.644c-.041-.317-.291-.884-.411-.93-.062-.024-.696.468-1.746 1.352-.093.079-.13.054-.52-.354-1.251-1.306-2.424-2.467-2.567-2.541a1.702 1.702 0 0 0-.47-.121l-.307-.036-.988.927m1.763 1.96c.124.058.506.393.878.769.575.58.648.675.578.743-.192.184-1.775 1.463-1.811 1.463-.038 0-1.567-1.273-1.789-1.49-.108-.105-.104-.111.577-.798.378-.38.736-.712.797-.738.187-.08.539-.056.77.051m.777 5.694c-2.603 2.559-2.833 2.8-2.976 3.118-.197.439-.242.954-.12 1.372.094.324.394.84.472.811.026-.009 1.326-1.267 2.888-2.795 2.564-2.506 2.859-2.812 3.017-3.134.155-.313.176-.409.174-.797-.002-.336-.032-.507-.125-.713-.14-.309-.374-.636-.455-.636-.03 0-1.324 1.248-2.875 2.774m-8.78 1.32v2.349l.141.422c.696 2.083 2.743 3.46 5.382 3.621l.579.036.015 3.085.015 3.086.145.309c.08.17.237.411.35.535.262.29.796.554 1.203.596l.313.033-.015-4.009-.015-4.01-.133-.328c-.243-.604-.828-1.061-1.521-1.189-.18-.033-.339-.078-.354-.1-.015-.022-.312-.069-.66-.104a7.875 7.875 0 0 1-1.044-.179c-.925-.257-1.73-.865-2.126-1.606l-.212-.399-.034-1.457c-.031-1.321-.045-1.487-.154-1.771-.242-.629-.919-1.156-1.587-1.235l-.288-.034v2.349m14.467-2.191c-.577.155-1.02.537-1.282 1.104-.114.248-.124.363-.15 1.751l-.028 1.484-.187.386c-.37.761-1.153 1.372-2.188 1.709a3.729 3.729 0 0 0-.692.308c-.529.338-.907.943-.961 1.536l-.031.342.568-.038c2.525-.165 4.456-1.394 5.273-3.356l.171-.411v-2.452c0-2.779.056-2.511-.493-2.363" fill="#A12577" fill-rule="evenodd"/></svg>
