<svg xmlns="http://www.w3.org/2000/svg" viewBox="0 0 14 22">
    <path fill="#A12577" fill-rule="evenodd" d="M6.804.743a25.6 25.6 0 0 1-.58.565c-1.002.962-1.116 1.079-1.175 1.194-.031.061-.12.182-.198.268a1.412 1.412 0 0 0-.326.539c-.027.081-.059.144-.07.14a34.32 34.32 0 0 1-.767-.654l-.747-.647-.091.122a1.656 1.656 0 0 0 .053 2.05c.069.082.763.703 1.549 1.385a58.95 58.95 0 0 1 1.427 1.259c0 .012-.339.364-.754.782l-.756.759-.105.222a1.44 1.44 0 0 0-.169.583c-.042.403.131.92.418 1.248l.081.094L6.2 9.049l1.605-1.603 1.738-1.449c.956-.797 1.818-1.53 1.914-1.629.195-.199.313-.402.399-.681.069-.221.075-.607.013-.84a2.189 2.189 0 0 0-.29-.611l-.067-.084-.29.244-.76.639-.47.395-.174-.181c-.096-.099-.596-.627-1.112-1.172A34.748 34.748 0 0 0 7.647.986a.827.827 0 0 0-.568-.202C6.962.782 6.877.77 6.854.751 6.833.734 6.812.73 6.804.743m.481 2.41a.913.913 0 0 1 .443.234c.112.106.942.983.994 1.05.027.034-.055.111-.7.653l-.79.666-.061.051-.756-.653a79.309 79.309 0 0 1-.803-.699c-.045-.045-.042-.049.537-.634.32-.324.607-.603.637-.62.116-.067.318-.086.499-.048m.902 4.89c-1.291 1.293-2.381 2.402-2.422 2.463-.356.531-.412 1.254-.14 1.794.082.163.252.393.29.393.013 0 1.106-1.084 2.428-2.409 1.782-1.787 2.423-2.443 2.48-2.541.161-.276.256-.681.226-.963-.038-.355-.201-.744-.408-.973l-.106-.117-2.348 2.353M.729 9.278l.006 2.05.097.283c.394 1.143 1.184 2.028 2.301 2.576.701.344 1.468.528 2.39.574l.332.016.007 2.592.006 2.593.056.163c.125.371.294.627.549.832.272.22.625.359.947.374l.152.007v-6.743l-.05-.187a1.683 1.683 0 0 0-.814-1.072 1.646 1.646 0 0 0-.638-.201c-.197-.026-.213-.032-.213-.08 0-.05-.009-.052-.344-.065-1.472-.059-2.523-.694-2.988-1.804l-.087-.208L2.426 9.8c-.013-1.151-.014-1.182-.067-1.342-.147-.444-.388-.76-.745-.977a2.054 2.054 0 0 0-.722-.237l-.17-.017.007 2.051M12.95 7.351c-.573.148-.994.555-1.192 1.154-.053.16-.054.19-.068 1.353-.013 1.133-.016 1.197-.062 1.32a2.56 2.56 0 0 1-.612.956c-.351.348-.718.558-1.321.757-.18.06-.39.144-.467.187a1.874 1.874 0 0 0-.77.817c-.12.247-.171.432-.191.692l-.014.19.336-.016c.948-.047 1.724-.237 2.436-.596 1.057-.533 1.795-1.345 2.22-2.44l.09-.233.006-2.094.007-2.095-.112.002c-.061 0-.19.021-.286.046"/>
</svg>
