<svg xmlns="http://www.w3.org/2000/svg" viewBox="0 0 42 42">
  <path fill="#ab007e" fill-rule="evenodd" d="M33.782 8.138c-.129.125-.779 1.172-1.443 2.327-1.028 1.786-1.208 2.144-1.21 2.392a1 1 0 0 0 .115.472c.218.331.438.418 1.141.449l.655.029v8.086l-.655.029c-.703.031-.923.118-1.141.449a1 1 0 0 0-.115.472c.002.248.182.606 1.21 2.392.664 1.155 1.314 2.202 1.443 2.328.191.184.292.227.534.227.56-.001.631-.088 1.984-2.425 1.301-2.248 1.395-2.472 1.218-2.899-.161-.389-.436-.514-1.203-.545l-.685-.027v-8.085l.691-.034c.773-.037 1.038-.157 1.197-.541.177-.427.083-.651-1.218-2.899-1.353-2.337-1.424-2.424-1.984-2.425-.242 0-.343.043-.534.228M10.725 22.523l-5.334 11.97-.134.297h5.707l1.052-2.537 1.051-2.538 5.567-.018 5.567-.018 1.049 2.538 1.05 2.538 2.921.018c1.683.011 2.911-.008 2.898-.044-.013-.034-2.418-5.42-5.344-11.97l-5.32-11.908h-5.53zm9.847-1.622c1.005 2.429 1.828 4.453 1.828 4.498 0 .06-.956.081-3.787.081-3.158 0-3.782-.016-3.752-.095.053-.138 3.466-8.347 3.637-8.749q.145-.337.195-.245c.028.052.873 2.081 1.879 4.51"/>
</svg>
