<svg xmlns="http://www.w3.org/2000/svg" viewBox="0 0 42 42">
  <path fill="#ab007e" fill-rule="evenodd" d="M24.875 9.236c-.85.206-1.28 1.141-.864 1.881.178.316.412.51.762.631.175.06 1.948.082 6.729.082h6.492l.37-.193c.898-.47.941-1.732.077-2.24l-.326-.192-6.51-.011c-3.58-.006-6.609.013-6.73.042m-10.31.512c-.034.086-2.415 5.433-5.292 11.882S4.028 33.41 4.008 33.478c-.032.115.134.122 2.8.122h2.835l1.053-2.537 1.053-2.538H22.91l1.05 2.538 1.049 2.537h2.896c1.592 0 2.895-.02 2.895-.045 0-.053-10.382-23.312-10.58-23.702l-.133-.263h-5.46zm13.563 5.164c-.317.167-.517.44-.628.857-.108.401-.006.788.296 1.133.42.477.262.465 5.599.443l4.8-.02.284-.188c.657-.435.778-1.407.244-1.971-.392-.415-.139-.396-5.452-.393-4.696.003-4.896.008-5.143.139M19.25 19.67a814 814 0 0 0 1.867 4.498c.017.028-1.683.052-3.778.052h-3.81l1.892-4.552c1.041-2.504 1.915-4.528 1.942-4.498s.876 2.055 1.887 4.5m11.76.987c-.221.09-.546.395-.661.623-.238.468-.137 1.143.222 1.487.422.404.414.403 4.079.403 3.566 0 3.649-.007 4.012-.335.38-.343.512-1.086.275-1.55a1.7 1.7 0 0 0-.391-.455l-.269-.215-3.546-.014c-2.254-.009-3.61.012-3.721.056"/>
</svg>
