<svg xmlns="http://www.w3.org/2000/svg" viewBox="0 0 42 42"><path d="M19.661 5.101c-.368.079-.97.392-1.236.643-.289.274-.87 1.142-2.36 3.531l-1.192 1.909c-.007.011-.209-.073-.447-.186-1.003-.474-2.259-.289-3.09.456-.41.369-3.497 5.097-4.358 6.676-.427.783-.475 1.455-.173 2.441l.136.445-.495.71c-1.541 2.211-1.753 2.647-1.753 3.614 0 .764.145 1.211.586 1.811l.259.353-.608 1.023c-.334.563-.667 1.18-.74 1.373-.493 1.298.088 2.837 1.326 3.511.578.314 1.14.396 2.717.398l1.408.001.034.829c.031.743.055.866.233 1.195.214.392.512.664 1.002.912.298.151.357.154 2.345.132 1.972-.022 2.051-.028 2.372-.186.416-.205.848-.69.997-1.118.062-.181.132-.605.155-.941.023-.337.064-.613.092-.613.027 0 .065.292.084.648.051.98.377 1.574 1.097 1.997l.323.19h2.135c2.436 0 2.418.004 3.001-.628.412-.447.51-.722.552-1.557.02-.394.059-.702.086-.685.028.016.069.291.092.61.065.879.208 1.271.615 1.677.575.575.583.577 2.909.605 1.924.023 2.054.016 2.31-.115.51-.262.83-.548 1.033-.921.183-.337.206-.455.237-1.202l.034-.829 1.408-.001c2.078-.002 2.658-.167 3.429-.976.605-.634.884-1.343.884-2.249 0-.622-.108-.897-.812-2.068l-.597-.994.289-.424c.403-.59.566-1.094.567-1.753.002-.927-.068-1.082-1.347-2.985l-.909-1.35.145-.468c.17-.549.191-1.392.048-1.868-.235-.781-4.12-6.833-4.662-7.263a4.93 4.93 0 0 0-.681-.423c-.371-.189-.468-.206-1.131-.207-.7-.001-.744.008-1.325.281-.483.226-.618.264-.685.192-.047-.049-.597-.892-1.223-1.874-2.347-3.679-2.462-3.823-3.293-4.139-.41-.156-1.395-.231-1.823-.14m2.01 4.962c2.258 3.532 3.41 5.37 3.443 5.495.03.113-.06.122-1.197.122-.676 0-1.243.024-1.26.053-.017.028.521.855 1.194 1.837 2.967 4.321 3.869 5.658 3.869 5.732 0 .055-.467.08-1.592.085-.876.004-1.663.027-1.748.052-.146.043-.076.178 1.113 2.146l2.196 3.64.929 1.54-8.196.018c-4.507.01-8.212 0-8.233-.02-.054-.055-.004-.142 2.264-3.883 1.707-2.816 2.038-3.403 1.94-3.443-.065-.026-.869-.049-1.788-.052-1.351-.004-1.663-.023-1.635-.097.02-.051.914-1.366 1.988-2.923 3.283-4.758 3.177-4.598 3.058-4.644-.059-.022-.655-.041-1.324-.041h-1.216l1.91-2.992c2.671-4.186 2.92-4.568 2.985-4.568.032 0 .617.874 1.3 1.943m7.056 4.845a438.79 438.79 0 0 1 1.804 2.829l1.111 1.758-.909.039c-.5.021-.926.055-.946.075-.02.02.378.633.884 1.361 1.814 2.615 2.924 4.281 2.88 4.325-.024.025-.582.045-1.24.046-.658.001-1.233.024-1.277.053-.055.035.452.935 1.552 2.757.899 1.488 1.615 2.724 1.592 2.747-.023.023-.584.042-1.247.042-1.331 0-1.291.014-1.291-.463 0-.575-.328-1.245-1.576-3.215-.404-.638-.734-1.175-.734-1.194 0-.019.248-.277.55-.574.487-.477.57-.595.715-1.029.206-.617.219-1.368.033-1.947-.135-.422-.561-1.092-2.2-3.462l-.933-1.349.248-.366c.322-.475.415-.846.416-1.661.001-.516-.032-.751-.149-1.05-.169-.433-.202-.869-.062-.823.048.016.398.511.779 1.101m-16.199.302c-.066.378-.061.53.032.892.132.515.506 1.328.61 1.328.109 0-.114.349-1.407 2.203-1.324 1.897-1.552 2.277-1.722 2.868-.171.599-.112 1.494.134 2.032.25.545.613 1.025.956 1.263.168.116.27.236.249.291-.02.052-.406.684-.859 1.406-1.033 1.648-1.317 2.211-1.427 2.822l-.086.485H6.995l.084-.157a268.9 268.9 0 0 1 1.651-2.738c.862-1.42 1.547-2.601 1.523-2.625-.024-.025-.627-.055-1.339-.068-.952-.017-1.286-.045-1.263-.105.018-.045.89-1.322 1.938-2.838 1.447-2.093 1.883-2.771 1.811-2.817-.052-.033-.465-.06-.917-.061-.49-.001-.823-.029-.823-.07 0-.053 1.249-2.042 2.823-4.495.12-.188.13-.107.045.384m2.452 18.941c0 .188-.02.44-.044.56l-.043.219H11.76v-1.12h3.22v.341m7.28.219v.56h-1.567c-1.796 0-1.65.063-1.652-.717l-.001-.403h3.22v.56m7.21 0v.56h-3.08v-1.12h3.08v.56" fill="#a12577" fill-rule="evenodd"/></svg>