<svg xmlns="http://www.w3.org/2000/svg" xml:space="preserve" viewBox="0 0 32 32"><path fill="#A12577" fill-rule="evenodd" d="M14.88 4.032c-.073.012-.313.048-.533.079-1.779.257-3.583 1.305-4.758 2.764-.35.435-.708.971-.899 1.346-.065.128-.169.266-.231.307-.225.149-1.726 1.7-2.122 2.193-1.132 1.408-1.903 2.946-2.205 4.399-.135.648-.16 1.706-.055 2.344.227 1.388.878 2.627 1.971 3.755.923.952 1.697 1.511 2.878 2.08l.879.422.018 1.593c.017 1.543.022 1.601.145 1.875.212.47.686.81 1.132.811.226 0 .581-.148.817-.341.12-.099.942-.803 1.827-1.564l1.608-1.385.56-.034c.37-.023.664-.073.866-.149.33-.123.709-.436.905-.745.14-.222.29-.693.29-.912v-.15H14.73l-1.485 1.27-1.485 1.27-.014-1.371c-.011-1.01-.032-1.384-.08-1.42-.036-.028-.642-.31-1.346-.626-1.064-.479-1.364-.64-1.779-.952-1.31-.987-2.206-2.188-2.518-3.374-.131-.499-.156-1.452-.053-1.995.208-1.094.91-2.525 1.699-3.466l.154-.183.033.717c.136 2.928 1.84 5.586 4.375 6.823 1.079.527 2.052.746 3.309.747h.688l2.219 1.45c1.221.797 2.361 1.507 2.534 1.578.262.108.383.126.72.109.245-.013.484-.059.604-.118.327-.159.666-.496.825-.821l.15-.305.027-1.546c.029-1.701.021-1.661.38-1.925.297-.22.803-.344 1.62-.397.847-.056 1.246-.145 1.68-.376.352-.188.901-.715.824-.792-.07-.069-1.322-.508-1.651-.579-.894-.192-1.412-.242-1.889-.183-1.343.165-2.532 1.061-2.884 2.172a1.273 1.273 0 0 1-.113.271c-.025.031-.052.597-.06 1.256l-.014 1.199-2.101-1.431-2.101-1.431-1.019-.081a26.516 26.516 0 0 1-1.507-.157c-2.251-.359-4.127-2.224-4.641-4.613-.136-.632-.134-2.031.003-2.667.482-2.23 2.044-3.943 4.15-4.554.791-.229 1.288-.255 4.336-.232 2.331.019 2.887.037 3.173.106.529.128.84.241 1.307.477 1.411.709 2.402 1.891 2.98 3.552.103.297.228.619.277.715.267.525.833.975 1.431 1.137.511.138.532.12.487-.441-.179-2.233-1.218-4.356-2.787-5.694a7.576 7.576 0 0 0-3.387-1.692c-.468-.106-.661-.113-3.641-.124-1.731-.007-3.207-.002-3.28.009m-.899 7.12c-.434.221-.701.801-.619 1.347.054.365.303.752.593.922.475.279 1.167.157 1.473-.261.447-.607.332-1.545-.236-1.939-.306-.212-.866-.244-1.211-.069m4.179-.038c-.514.226-.791.942-.612 1.586.237.856 1.254 1.162 1.895.571.639-.589.49-1.787-.266-2.13-.256-.117-.781-.13-1.017-.027m4.034.041c-.43.213-.706.8-.626 1.332.054.366.311.764.6.934.432.253 1.103.169 1.417-.177.3-.333.413-1.052.232-1.484-.111-.265-.375-.549-.602-.646-.264-.114-.748-.094-1.021.041"/></svg>
