<svg xmlns="http://www.w3.org/2000/svg" viewBox="0 0 32 32" xml:space="preserve"><path d="M6 4.046c-.714.03-.818.047-.969.155-.252.179-.416.396-.606.797l-.17.36-.007 3.921L4.24 13.2l.142.303c.312.665 1.037.91 1.718.58.369-.178.516-.403.57-.869.025-.213.046-1.806.048-3.541L6.72 6.52l2.977-.022 2.976-.022.317-.158c.268-.134.34-.202.472-.448.264-.492.199-1.028-.176-1.455-.316-.36-.258-.354-3.534-.38C8.128 4.022 6.44 4.027 6 4.046m12.907.253c-.55.362-.752.708-.71 1.217.031.364.244.725.568.957l.232.167 3.083.018 3.083.019.022 3.448c.016 2.361.041 3.493.082 3.589.09.214.38.521.597.631.507.259.947.183 1.366-.235.441-.442.423-.244.423-4.697l-.001-3.893-.222-.373c-.225-.379-.575-.758-.817-.884-.105-.055-.912-.074-3.813-.087l-3.68-.017-.213.14M4.72 18.486a1.43 1.43 0 0 0-.592.619L4 19.356v7.208l.13.256c.162.319.383.516.906.805l.409.225 3.878-.025c2.867-.018 3.936-.042 4.103-.091.305-.09.622-.439.73-.805.103-.345.103-.339.002-.68-.106-.355-.331-.61-.692-.78l-.286-.136H6.507l-.001-2.973-.001-2.973-.177-.32a1.512 1.512 0 0 0-.404-.48c-.197-.139-.279-.162-.635-.174-.299-.011-.452.009-.569.073m21.427.289c-.414.237-.555.484-.605 1.054-.023.256-.043 1.63-.045 3.056l-.004 2.591-3.413.034c-3.808.038-3.598.016-3.984.419-.568.592-.409 1.453.351 1.9l.246.144 3.895.019 3.896.018.446-.172c.538-.207.869-.502.965-.858.044-.161.064-1.28.07-3.778.009-4.032.026-3.867-.419-4.258-.422-.372-.937-.434-1.399-.169" fill="#A12577" fill-rule="evenodd"/></svg>