<svg xmlns="http://www.w3.org/2000/svg" viewBox="0 0 20 20">
    <path fill="#A12577" fill-rule="evenodd" d="M3.05.916c-1.01.186-1.953.893-2.399 1.798-.081.167-.19.438-.241.603l-.093.3-.01 2.343-.01 2.344.127-.021.226-.037c.157-.026.454-.149.603-.25.197-.133.462-.435.56-.638C1.99 6.993 2 6.894 2 5.449c0-.816.014-1.414.036-1.535.102-.56.499-1.018 1.081-1.25l.2-.08 1.808-.011 1.808-.01V.867L5.108.87C3.77.872 3.221.884 3.05.916m9.483.799v.852h1.699c1.111 0 1.759.012 1.875.037a1.72 1.72 0 0 1 1.235 1.084c.07.187.074.257.093 1.729.018 1.472.022 1.541.092 1.73.196.528.6.906 1.137 1.066.1.029.246.054.325.054h.144V6.08c0-2.076-.003-2.203-.068-2.525a3.24 3.24 0 0 0-.897-1.693 3.337 3.337 0 0 0-1.585-.904c-.253-.067-.358-.071-2.158-.083L12.533.863v.852M.308 13.864c.01 2.262.012 2.326.082 2.575.297 1.052.985 1.856 1.925 2.253.605.255.582.253 2.693.266l1.892.012v-1.703H5.223c-1.061 0-1.75-.014-1.875-.036-.451-.083-.938-.441-1.156-.85-.182-.342-.192-.443-.193-1.913 0-1.466-.015-1.628-.183-1.983-.106-.225-.403-.555-.605-.673a1.842 1.842 0 0 0-.701-.241l-.213-.026.011 2.319m18.608-2.292c-.636.07-1.156.489-1.392 1.121-.067.181-.071.268-.089 1.724-.019 1.471-.023 1.541-.093 1.728-.211.563-.697.983-1.256 1.086-.126.022-.815.036-1.875.036h-1.678v1.7h1.763c1.897 0 2.069-.012 2.56-.18a3.313 3.313 0 0 0 2.227-2.61c.043-.246.05-.644.042-2.46l-.008-2.167-.201.022"/>
</svg>
