<svg width="32" height="32" xmlns="http://www.w3.org/2000/svg"><path d="M8.332 4.096c-.832.183-1.493.55-2.122 1.179-.551.551-.85 1.029-1.106 1.765l-.181.523-.016 3.155-.016 3.155.261-.039a2.23 2.23 0 0 0 1.766-1.424c.073-.189.094-.585.123-2.318.032-2 .039-2.103.158-2.408.158-.401.403-.724.751-.987.526-.397.502-.394 3.064-.414l2.296-.019V4.015l-2.324.004c-1.705.004-2.411.024-2.654.077M20.46 5.143V6.27h2.194c2.034 0 2.22.008 2.544.109a2.168 2.168 0 0 1 1.37 1.344c.097.276.107.465.109 2.024.002 1.907.043 2.394.241 2.826.145.318.55.785.824.952.208.127.586.253.899.301l.234.035v-2.853c0-3.152-.023-3.437-.336-4.251a4.39 4.39 0 0 0-2.399-2.441c-.681-.273-.995-.301-3.423-.301H20.46v1.128M4.895 21.091c0 2.296.017 3.022.077 3.338.306 1.592 1.37 2.826 2.893 3.356l.522.182 2.462.018 2.461.017v-2.258l-2.324-.016-2.324-.016-.312-.146c-.542-.254-.965-.725-1.192-1.33-.071-.187-.092-.608-.116-2.318l-.029-2.09-.173-.365c-.35-.738-.931-1.165-1.739-1.277l-.206-.029v2.934m23.54-2.867c-.769.166-1.383.732-1.636 1.508-.068.208-.092.682-.119 2.35l-.033 2.09-.161.331c-.206.42-.627.841-1.048 1.048l-.33.161-2.324.017-2.324.017v2.255l2.434-.019c2.742-.022 2.707-.018 3.596-.454 1.186-.582 2.057-1.789 2.301-3.193.113-.644.126-6.188.015-6.18a4.893 4.893 0 0 0-.371.069" fill="#A12577" fill-rule="evenodd"/></svg>
