<svg width="34" height="32" xmlns="http://www.w3.org/2000/svg"><path d="M24.516 7.092c-.501.044-.801.123-1.056.279-.183.112-.698.336-.774.336a.126.126 0 0 0-.109.076c-.016.043-.251.228-.522.411-.27.184-.607.445-.748.58-.14.135-.284.262-.32.283-.035.021-.17.172-.299.336-.477.605-1.563.986-3.116 1.093-1.011.07-1.93.011-2.709-.173-.482-.114-1.162-.392-1.23-.503-.022-.035-.088-.063-.147-.063s-.203-.119-.322-.266c-.678-.838-1.181-1.227-2.312-1.789-1.042-.517-1.24-.571-2.182-.596-.774-.021-.831-.015-.978.1-.126.099-.155.168-.155.362 0 .334.086.422.481.492.643.113 1.265.329 1.304.451.025.079.086.112.207.112.132 0 .252.078.524.34.393.377.388.368.693 1.162.217.566.217.568.218 1.417.001.795-.009.878-.161 1.289-.088.241-.181.439-.204.439-.024 0-.058.134-.077.297-.031.279-.058.321-.424.666a4.28 4.28 0 0 1-1.711.94c-.58.153-1.399.131-1.92-.053-.618-.219-1.076-.497-1.428-.868-.589-.621-.9-1.179-1.074-1.926-.064-.272-.143-.528-.177-.568-.037-.045-.184-.075-.366-.075-.273 0-.307.014-.337.136-.019.075-.005.332.031.571.135.887.445 1.523 1.084 2.223l.437.478-.025.435c-.014.24-.035.53-.047.646-.011.116 0 .716.026 1.332.049 1.199.064 1.268.454 2.087.09.188.279.639.42 1.001.391.998.694 1.396 2.202 2.89 1.123 1.114 1.34 1.303 1.601 1.401.369.138 1.864.882 2.08 1.035.103.073.397.149.85.221.382.061.924.173 1.207.25 1.281.347 3.353.433 4.87.202 1.196-.181 2.112-.384 2.32-.512.103-.064.228-.116.279-.116.104 0 .73-.263 1.298-.545.211-.105.412-.191.446-.191.068 0 .381-.193 1.171-.723.29-.195.547-.354.57-.354.023 0 .142-.104.265-.232.21-.216 1.158-.972 1.384-1.102.056-.032.175-.147.264-.255.09-.108.297-.336.46-.508.717-.75.763-.825 1.258-2.018.629-1.514.903-3.204.749-4.612-.055-.499-.051-.548.052-.68.981-1.247 1.226-1.736 1.386-2.766.027-.174.073-.26.159-.298.089-.039.025-.048-.233-.035-.195.01-.382.046-.416.08-.034.034-.085.267-.113.519-.062.555-.224 1.008-.465 1.301-.099.12-.244.33-.322.467-.46.804-1.525 1.299-2.794 1.299-.492 0-.766-.069-1.412-.358a2.547 2.547 0 0 1-.397-.207 8.527 8.527 0 0 0-.469-.319c-.434-.28-.675-.587-1.026-1.309-.248-.511-.326-.971-.283-1.663.047-.774.291-1.503.595-1.777.065-.059.119-.138.119-.174 0-.21.759-.865 1.347-1.162.44-.222.61-.273 1.143-.343.232-.03.442-.087.467-.125.063-.101.057-.393-.013-.594-.088-.253-.352-.283-1.548-.177m-8.125 8.025c.135.119.129.39-.011.464-.353.19-.85-.154-.621-.43.165-.199.428-.213.632-.034m1.392.234c.022.299-.06.402-.318.402-.239 0-.408-.134-.408-.324 0-.327.246-.505.538-.388.147.059.172.102.188.31m.338 1.793c1.014.105 1.927.24 2.081.307.062.028.39.065.729.083.339.018.709.057.822.087.113.03.326.07.474.089.389.049.331.127-.113.154a2.25 2.25 0 0 0-.722.171c-.765.329-1.904.457-4.137.462-1.575.004-1.783-.008-2.833-.156-1.359-.193-3.052-.47-3.287-.539l-.17-.05.198-.036c.737-.132 1.39-.226 2.447-.351.664-.078 1.451-.177 1.747-.219.735-.106 1.766-.106 2.764-.002" fill="#fff" fill-rule="evenodd"/></svg>
