<svg width="32" height="32" xmlns="http://www.w3.org/2000/svg"><path d="M6.838 5.249c-.32.1-.572.266-.832.548-.272.295-.384.505-.451.845-.076.389.091 3.746.206 4.132.162.542.74 1.108 1.22 1.195.108.02 1.026.27 2.039.556 1.977.558 2.081.573 2.629.383.713-.247 1.221-.939 1.221-1.662 0-.157-.137-1.012-.304-1.902-.167-.889-.329-1.775-.36-1.969a2.784 2.784 0 0 0-.192-.639c-.154-.325-.59-.762-.883-.885-.257-.107-3.495-.682-3.816-.677a2.047 2.047 0 0 0-.477.075m16.455.337c-.545.105-1.273.24-1.617.3-.345.06-.736.164-.87.23-.472.236-.89.807-.979 1.336-.021.121-.185 1-.367 1.953-.365 1.918-.385 2.25-.168 2.697.267.549.83.951 1.472 1.051.338.053.371.046 2.151-.467a74.445 74.445 0 0 1 2-.559c.438-.086.952-.508 1.189-.975.136-.267.146-.355.217-1.743.107-2.089.102-2.467-.033-2.829a1.81 1.81 0 0 0-.908-.975c-.515-.254-.861-.257-2.087-.019M9.598 7.763c.211.035.401.078.421.096.043.039.556 2.759.527 2.789-.011.011-.613-.149-1.337-.356l-1.316-.376-.035-.242a21.74 21.74 0 0 1-.075-1.239l-.04-.998.735.132c.404.073.908.16 1.12.194m14.581.363a50.19 50.19 0 0 0-.067 1.182l-.035.756-.2.055c-.11.029-.701.2-1.313.379-.613.179-1.114.309-1.114.29 0-.089.506-2.677.527-2.699.035-.035 1.89-.378 2.077-.384l.157-.005-.032.426m-8.57 1.418c-.498.159-.728.454-1.604 2.052l-.794 1.449-1.394.799c-1.438.824-1.736 1.043-1.929 1.417-.158.306-.19.823-.074 1.173.163.492.374.661 1.949 1.568l1.45.835.82 1.484c.452.817.887 1.553.967 1.637.552.576 1.6.566 2.156-.021.097-.101.539-.84.983-1.642l.809-1.457 1.441-.798c.793-.439 1.515-.868 1.605-.955.555-.536.553-1.574-.003-2.13-.103-.103-.818-.551-1.59-.996l-1.402-.809-.823-1.5c-.453-.825-.904-1.59-1.003-1.701-.345-.387-1.05-.569-1.564-.405m.893 3.628c.219.394.467.864.55 1.045.082.182.233.406.335.499.102.093.612.411 1.134.707.522.296.949.555.949.576 0 .02-.426.271-.946.556-.521.285-1.026.588-1.123.673-.102.09-.41.581-.734 1.171-.307.559-.575 1.015-.596 1.015-.021-.001-.274-.436-.561-.968-.488-.901-.809-1.348-1.035-1.44-.194-.079-1.824-1.03-1.824-1.064-.001-.02.438-.288.975-.597.537-.308 1.056-.637 1.154-.73.098-.093.367-.518.599-.943.527-.968.69-1.251.709-1.231.007.009.194.338.414.731m-7.344 6.355c-.817.242-1.695.492-1.952.556-.256.064-.553.172-.66.24-.47.3-.8.784-.856 1.253-.084.694-.184 3.522-.135 3.781.149.782.777 1.363 1.594 1.475.286.039.561.002 2.063-.275.953-.175 1.81-.359 1.904-.408.283-.146.655-.524.802-.816.077-.15.185-.526.24-.836.056-.309.229-1.227.385-2.039.31-1.621.317-1.798.087-2.299a1.822 1.822 0 0 0-1.599-1.054c-.352-.016-.529.024-1.873.422m11.601-.277c-.601.088-1.191.505-1.455 1.028-.232.462-.214.769.156 2.712.181.953.347 1.832.367 1.952.088.527.524 1.122.985 1.345.36.175 3.436.731 3.883.702.704-.045 1.346-.513 1.587-1.158.142-.379.147-.729.041-2.816-.062-1.227-.089-1.469-.186-1.689-.223-.503-.791-.975-1.282-1.065a65.48 65.48 0 0 1-1.978-.55 64.54 64.54 0 0 0-1.815-.509c-.013.004-.15.025-.303.048m-10.343 2.599-.251 1.319c-.097.507-.189.944-.207.971-.017.028-.464.129-.993.225a49.06 49.06 0 0 0-1.093.205l-.131.031.037-.929c.02-.51.05-1.053.067-1.206l.03-.277 1.246-.364c.686-.2 1.275-.366 1.309-.369.045-.003.041.106-.014.394m12.395.133 1.279.367.001.197c.001.108.026.64.056 1.181.03.542.048.991.04.999-.008.008-.51-.077-1.114-.188l-1.1-.203-.229-1.154c-.285-1.444-.305-1.566-.253-1.566.023 0 .617.165 1.32.367" fill-rule="evenodd" fill="#000"/></svg>
