<svg xmlns="http://www.w3.org/2000/svg" viewBox="0 0 17 17">
    <path fill="#000" fill-rule="evenodd" d="M1.144.042a1.5 1.5 0 0 0-.988.762c-.163.331-.165.366-.099 1.831.032.725.071 1.386.085 1.471.091.524.571 1.013 1.09 1.111.094.018.795.204 1.557.414l1.387.382.233-.03c.693-.09 1.21-.584 1.285-1.227.022-.196.008-.295-.242-1.625l-.295-1.573a1.556 1.556 0 0 0-.41-.75 1.236 1.236 0 0 0-.713-.371C3.171.276 1.516 0 1.427.002a1.94 1.94 0 0 0-.283.04M13.43.383c-.631.114-1.217.221-1.303.238-.49.096-.956.576-1.05 1.079l-.3 1.558c-.269 1.385-.272 1.406-.242 1.62.094.668.62 1.151 1.34 1.228.18.019.232.007 1.544-.361a53.604 53.604 0 0 1 1.521-.412c.265-.052.504-.187.713-.404a1.27 1.27 0 0 0 .384-.78c.033-.272.124-2.22.12-2.576a1.29 1.29 0 0 0-.45-1.005c-.257-.234-.688-.402-1.016-.394a25.9 25.9 0 0 0-1.261.209M2.649 1.928c.468.081.853.15.857.153.013.011.402 2.067.393 2.077a75.463 75.463 0 0 1-2.074-.568c-.003-.003-.02-.305-.037-.672-.018-.366-.04-.777-.05-.914-.014-.204-.01-.246.022-.235.022.007.422.079.889.159m11.791.133c-.009.059-.031.453-.05.876l-.034.77-1.007.285c-.554.156-1.011.28-1.016.276-.01-.011.377-1.999.392-2.014a35.328 35.328 0 0 1 1.65-.296c.077-.003.079.001.065.103m-6.56 1.24a1.162 1.162 0 0 0-.562.339c-.079.088-.364.56-.743 1.232l-.614 1.089-1.089.614c-1.198.675-1.332.772-1.473 1.058-.178.363-.178.721.001 1.085.12.242.279.374.824.683l1.102.623.637.36.614 1.091c.337.6.665 1.148.727 1.218.25.283.663.431 1.033.371.105-.017.264-.066.354-.108.295-.138.393-.271 1.011-1.37.311-.552.593-1.05.628-1.106.056-.089.213-.182 1.163-.694 1.207-.65 1.318-.729 1.463-1.038.042-.09.091-.25.108-.355a1.18 1.18 0 0 0-.36-1.023c-.109-.097-.524-.34-1.772-1.04l-.501-.281-.615-1.091a36.44 36.44 0 0 0-.705-1.218c-.262-.369-.799-.56-1.231-.439m.681 2.904c.18.319.35.643.379.719.076.202.296.427.537.551.314.161 1.316.726 1.316.742.001.007-.33.191-.734.407-.772.414-.998.573-1.092.775a62.964 62.964 0 0 1-.792 1.418c-.004.004-.2-.334-.435-.751-.452-.804-.562-.959-.751-1.067l-.742-.415a37.328 37.328 0 0 1-.674-.383c-.044-.029.047-.088.695-.453.409-.23.809-.473.888-.539.09-.076.179-.188.238-.301.052-.098.247-.45.434-.782.295-.524.344-.596.373-.552.019.027.181.312.36.631m-5.799 4.677c-.701.2-1.37.383-1.487.407-.599.122-1.049.575-1.133 1.138a33.95 33.95 0 0 0-.087 1.457C0 15.054-.001 15.16.041 15.341c.063.271.191.494.395.691.22.211.453.329.769.391l.247.049 1.25-.22c1.508-.265 1.457-.254 1.665-.359.402-.203.669-.606.761-1.148.028-.17.16-.864.293-1.542.223-1.145.239-1.246.217-1.431a1.297 1.297 0 0 0-.448-.865 1.602 1.602 0 0 0-1.025-.392c-.071.002-.693.164-1.403.367m8.911-.213c-.603.131-1.056.605-1.137 1.188-.031.227-.031.229.241 1.63l.299 1.551c.064.344.348.748.658.934.083.05.235.111.336.135.261.063 2.565.468 2.658.468.042-.001.165-.02.274-.043.685-.144 1.146-.687 1.156-1.36.004-.344-.091-2.381-.122-2.606-.078-.551-.548-1.048-1.09-1.153a54.085 54.085 0 0 1-1.517-.41c-.767-.215-1.396-.377-1.459-.376-.062.001-.195.02-.297.042m-7.83 1.734c-.008.027-.099.484-.203 1.015l-.188.965-.848.151c-.466.083-.854.145-.862.138-.013-.014.069-1.731.084-1.746.01-.01 1.975-.569 2.008-.571.013-.001.017.021.009.048m9.552.364.97.273.002.16c0 .087.018.478.038.867.021.39.033.714.026.721-.011.013-1.686-.28-1.706-.298a93.894 93.894 0 0 1-.383-1.92c-.018-.096-.015-.107.031-.093.028.009.488.139 1.022.29"/>
</svg>
