<svg xmlns="http://www.w3.org/2000/svg" viewBox="0 0 32 32">
    <path d="m16.807 3.343-.118.528c-.178.802-.652 1.611-1.972 3.367-1.701 2.265-1.967 2.788-1.967 3.879 0 .606.11 1.024.43 1.631.509.965 1.38 2.06 2.772 3.487.754.773.835.84.896.742.204-.328.827-1.039 1.768-2.018 1.649-1.715 1.903-2.061 2.247-3.059.179-.52.186-.57.187-1.445.002-1.037-.062-1.357-.421-2.097-.224-.464-.727-1.19-.824-1.19-.029 0-.072.106-.094.236-.041.243-.232.666-.326.725-.071.043-.103-.083-.148-.592a5.92 5.92 0 0 0-.336-1.557c-.164-.436-.425-.937-.488-.937-.024 0-.061.107-.083.238-.056.329-.228.812-.372 1.046-.067.108-.129.188-.138.178a8.756 8.756 0 0 1-.108-.679c-.147-1.066-.478-2.138-.769-2.497l-.103-.127-.033.141M8.243 18.834a1.21 1.21 0 0 0-.017.326c.021.147-.004.136 1.31.552 1.765.559 2.748 1.293 3.388 2.531l.251.486 3.513-.019c1.933-.011 3.553-.038 3.6-.061.048-.023.201-.25.34-.505.636-1.164 1.726-1.936 3.597-2.548.467-.153.904-.313.97-.357.128-.083.197-.309.15-.488-.028-.105-.225-.108-8.547-.108h-8.52l-.035.191m5.453 5.634c-.095.207.016.409.376.682.518.394.567.504.797 1.795.112.623.28 1.618.375 2.21.095.592.187 1.147.204 1.232l.031.156h2.532l.059-.184c.032-.101.124-.592.204-1.091.37-2.298.65-3.606.813-3.79.052-.058.229-.206.392-.327.282-.209.508-.559.437-.675-.058-.094-.423-.108-3.278-.123l-2.883-.015-.059.13" fill="#fff" fill-rule="evenodd"/>
</svg>
