<svg xmlns="http://www.w3.org/2000/svg" viewBox="0 0 16 18">
    <path fill="#FFDE50" fill-rule="evenodd" d="M5.114.571a2.359 2.359 0 0 0-.77.54c-.654.672-.97 1.363-.808 1.767.047.119.278.305.856.691.706.471 1.343.805 1.949 1.02l.407.144-3.121.007-3.12.007v3.946h1.146v8.347H7.2V4.747l.127-.001c.123-.001.114-.006-.314-.196-.835-.37-1.325-.64-1.773-.977-.462-.348-.825-.76-.894-1.016-.086-.319.178-.578.655-.642a.6.6 0 0 1 .356.031c.746.251 1.731 1.31 2.314 2.488.109.221.123.265.089.287-.026.016.074.025.293.025.21 0 .319-.009.295-.024-.054-.035-.008-.178.185-.575.4-.826.997-1.505 1.766-2.007.475-.31.912-.325 1.248-.042.096.08.185.251.186.355.001.225-.109.391-.506.762-.466.437-.836.693-1.475 1.021-.246.126-.929.436-1.085.492-.022.008.089.015.246.017l.287.002V17.04h5.547V8.693h1.146V4.747l-3.326-.001-3.327-.001.44-.158a9 9 0 0 0 2.324-1.27c.443-.335.531-.453.529-.707-.003-.393-.368-1.003-.924-1.547-.426-.415-.693-.556-1.054-.556-.197 0-.237.009-.36.079-.283.163-.454.376-.879 1.103-.397.677-1.049 2.037-1.264 2.638-.02.055-.043.1-.052.1-.009 0-.032-.045-.052-.1-.215-.601-.867-1.961-1.264-2.638-.425-.727-.596-.94-.879-1.103-.12-.068-.165-.079-.338-.078a.822.822 0 0 0-.353.063"/>
</svg>
