<svg width="32" height="32" xmlns="http://www.w3.org/2000/svg"><path d="M19.733 4.032c-.955.177-1.45.358-2.02.738-.747.498-1.33 1.225-1.755 2.191l-.158.358-.189-.393c-.24-.5-.664-1.149-.956-1.466-.855-.928-2.234-1.388-3.728-1.246-.715.068-1.239.216-1.806.509-.9.464-1.539 1.159-1.822 1.98-.179.519-.177 1.274.004 1.828.293.893 1.112 1.759 2.099 2.219l.278.129H7.853l-1.826.001v5.76h1.92V28h16.106V16.64h1.92V10.933h-2.146l-2.147-.001.47-.237c1.05-.529 1.765-1.186 2.142-1.968.378-.782.422-1.312.178-2.112-.358-1.171-1.458-2.109-2.88-2.457-.429-.104-1.559-.181-1.857-.126m1.36 1.809c.492.103.976.346 1.28.642.972.944.343 2.144-1.5 2.86-.8.31-1.935.543-3.206.656l-.387.034v-.767c0-.666.017-.816.126-1.137.43-1.264 1.265-2.118 2.259-2.308a4.208 4.208 0 0 1 1.428.02m-9.077.155c1.072.205 1.87.994 2.308 2.283.109.319.241.93.371 1.714l.025.153-.467-.035c-2.807-.213-4.721-.941-5.267-2.004-.281-.545.006-1.283.662-1.704.649-.416 1.529-.567 2.368-.407m2.757 7.764v1.12h-7.04v-2.24h7.04v1.12m9.494 0v1.12H17.28v-2.24h6.987v1.12m-9.494 7.68v4.8h-5.12v-9.6h5.12v4.8m7.574 0v4.8H17.28v-9.6h5.067v4.8" fill="#A12577" fill-rule="evenodd"/></svg>
