<svg xmlns="http://www.w3.org/2000/svg" xml:space="preserve" viewBox="0 0 32 32"><path fill-rule="evenodd" d="M15.04.031c-.103.012-.451.047-.773.079-.323.031-.936.127-1.363.211C6.889 1.516 2.015 6.233.508 12.32c-.375 1.515-.478 2.383-.48 4.053C.026 18.497.259 19.97.9 21.87c1.527 4.533 4.999 8.199 9.367 9.892.549.212.682.245.936.227.35-.025.583-.168.71-.436.074-.156.087-.419.087-1.814 0-.898-.006-1.632-.013-1.632-.008 0-.197.035-.421.078-.635.121-1.454.157-1.985.086-.985-.131-1.713-.466-2.312-1.063-.289-.288-.392-.447-.69-1.067-.594-1.239-1.076-1.854-1.92-2.45-.179-.126-.37-.312-.424-.413-.098-.183-.098-.185.02-.303.097-.098.193-.123.517-.14.502-.025.992.115 1.459.417.456.294.765.625 1.172 1.255.798 1.233 1.708 1.785 2.944 1.785.48 0 .952-.088 1.449-.271l.302-.111.037-.275c.046-.337.215-.9.351-1.166a3.46 3.46 0 0 1 .333-.483l.232-.285-.632-.091c-3.84-.557-5.921-2.497-6.474-6.037-.135-.864-.162-2.34-.056-3.059.164-1.109.551-2.063 1.173-2.889l.334-.445-.1-.376c-.134-.51-.196-1.366-.143-1.995.045-.528.231-1.362.388-1.737l.087-.208.475.031c.839.054 2.072.553 3.352 1.356l.548.344.641-.167a14.723 14.723 0 0 1 2.616-.402c1.005-.062 3.023.147 4.194.433l.547.133.546-.342c.76-.477 1.656-.916 2.326-1.14.469-.157.65-.191 1.047-.197l.48-.006.172.51c.215.64.334 1.365.334 2.03.001.523-.112 1.271-.236 1.567-.066.158-.057.178.259.598.622.827 1.019 1.804 1.182 2.902.106.719.079 2.195-.056 3.059-.553 3.54-2.635 5.48-6.477 6.037l-.636.092.199.243c.276.334.408.566.567.988.255.677.291 1.16.292 3.909 0 2.762-.002 2.746.317 3.014.258.217.656.202 1.297-.049 4.155-1.625 7.53-5.021 9.214-9.272a16.86 16.86 0 0 0 .877-9.281C30.392 6.323 24.828 1.009 17.966.132c-.63-.081-2.533-.146-2.926-.101"/></svg>
