<svg xmlns="http://www.w3.org/2000/svg" xml:space="preserve" viewBox="0 0 32 32"><path d="M10.529 3.009c-.452.197-.788.677-.79 1.129-.003.414.163.659 1.156 1.707l.894.945-.818.832c-.449.457-.946.987-1.104 1.178a9.74 9.74 0 0 0-1.625 2.93c-.591 1.718-.67 3.698-.215 5.426.862 3.28 3.33 5.821 6.595 6.791.296.088.547.16.558.16.011 0 .02.612.02 1.36v1.36h-2.539c-2.833 0-2.733-.012-3.084.375-.458.508-.327 1.281.278 1.637l.252.148 5.626.015c4.136.011 5.686-.001 5.851-.046.887-.244 1.091-1.412.34-1.943l-.226-.16-2.089-.026-2.089-.027-.014-1.237-.015-1.236.228-.028c.125-.016.464-.055.752-.088a9.332 9.332 0 0 0 4.729-1.999c1.085-.879 1.339-1.335 1.073-1.921-.173-.381-.715-.77-1.073-.77-.248 0-.509.144-.948.525-1.113.964-1.971 1.426-3.225 1.737-2.924.724-6.041-.466-7.681-2.933-.844-1.269-1.213-2.501-1.213-4.05 0-1.547.367-2.775 1.211-4.05.295-.445.643-.827 2.051-2.245l1.695-1.708-1.747-1.806c-1.149-1.186-1.829-1.848-1.985-1.931a.963.963 0 0 0-.829-.051m6.199 5.396c-3.466.626-5.668 4.165-4.692 7.541.799 2.764 3.509 4.619 6.317 4.325a6.057 6.057 0 0 0 5.383-5.119c.088-.604.038-1.723-.1-2.247-.442-1.679-1.485-3.037-2.97-3.867-.468-.262-1.264-.541-1.822-.638-.564-.098-1.556-.096-2.116.005m2.285 2.368c1.053.329 1.868 1.057 2.343 2.089.237.517.318.918.315 1.565-.004 1.083-.432 2.019-1.277 2.793-2 1.833-5.165.954-6.113-1.699-.152-.424-.19-1.495-.071-2 .324-1.379 1.474-2.512 2.871-2.831.482-.109 1.451-.068 1.932.083" fill-rule="evenodd"/></svg>
