<svg xmlns="http://www.w3.org/2000/svg" xml:space="preserve" viewBox="0 0 32 32"><path fill-rule="evenodd" d="M14.88.166a9.585 9.585 0 0 0-5.274 2.252C7.728 4.01 6.636 6.123 6.072 9.253c-.113.626-.125.847-.124 2.267.001 1.688.052 2.23.324 3.452.786 3.537 2.509 5.871 5.168 7.003 1.554.661 2.79.905 4.576.905 1.925-.001 3.095-.351 4.464-1.338a8.119 8.119 0 0 0 2.488-2.862c.139-.271.276-.493.303-.493.086 0 .005 4.305-.095 5.011-.231 1.629-.678 2.933-1.372 4.002-.792 1.22-2.203 2.04-4.097 2.382-.367.067-.802.092-1.574.093-1.271.001-2.041-.098-2.876-.368-1.994-.647-3.229-1.985-3.629-3.934l-.03-.146H6.811l.034.365c.087.928.453 1.937 1 2.753.759 1.133 1.577 1.845 2.804 2.439 1.862.902 3.652 1.266 5.884 1.198 1.959-.06 3.625-.395 4.827-.969 1.457-.696 2.643-1.812 3.374-3.173.59-1.098 1.083-2.929 1.241-4.608.038-.396.051-4.222.041-11.552L26 .72 24.653.706 23.307.692v1.947c0 1.241-.019 1.948-.053 1.948-.029 0-.116-.126-.194-.28-.357-.708-.668-1.101-1.558-1.971-.988-.965-1.267-1.159-2.401-1.668-.67-.301-1.091-.413-1.903-.506-.554-.063-1.664-.061-2.318.004m1.931 2.186c1.223.132 2.124.468 2.981 1.111.701.527 1.193 1.046 1.637 1.731.862 1.328 1.438 2.938 1.671 4.673.105.78.091 2.57-.025 3.28-.226 1.372-.487 2.259-.943 3.2-.76 1.567-1.698 2.61-3.078 3.422-.978.575-1.871.818-3.013.818-1.909 0-3.462-.649-4.848-2.024-1.286-1.276-2.069-2.949-2.37-5.07-.13-.912-.132-2.905-.004-3.84.288-2.101 1.104-4.036 2.204-5.225 1.472-1.593 3.504-2.321 5.788-2.076"/></svg>
