<svg xmlns="http://www.w3.org/2000/svg" xml:space="preserve" viewBox="0 0 32 32"><path fill-rule="evenodd" d="m15.307 4.139-.64.078c-2.989.367-5.814 1.906-7.775 4.236-.431.512-1.366 1.89-1.611 2.374-.453.895-.816 2.024-1.021 3.173-.107.601-.124.868-.124 2 0 1.128.017 1.4.122 1.99.154.859.37 1.631.654 2.338.122.304.244.646.27.76.051.215.542 1.107.91 1.65.854 1.258 2.09 2.463 3.429 3.34.515.337 1.75.951 2.372 1.178.617.225 1.711.501 2.454.618.862.136 2.91.135 3.813-.001.805-.122 1.885-.395 2.568-.649.982-.366 2.2-1.056 2.952-1.674.132-.109.326-.249.431-.312.254-.153 1.059-.993 1.494-1.558 1.916-2.491 2.722-5.827 2.264-9.375-.088-.681-.195-.928-.495-1.133l-.193-.132-5.55-.015c-3.053-.009-5.63-.002-5.728.016-.238.043-.581.362-.648.604-.033.119-.054 1.133-.054 2.595.001 2.215.009 2.416.099 2.613.054.118.148.258.209.312.26.232.399.244 2.878.246 1.341.001 2.36.023 2.36.05 0 .095-.469.679-.754.939-.427.389-1.557.94-2.313 1.129-.512.127-.692.146-1.413.147-.886.001-1.343-.08-2.087-.372-1.94-.76-3.446-2.84-3.55-4.904-.041-.803.045-1.334.249-1.547.084-.088.203-.286.263-.44a6.335 6.335 0 0 1 1.34-2.115c.879-.916 1.916-1.455 3.141-1.634.588-.086 1.602-.036 2.19.108.614.15 1.437.564 1.867.938.576.502.945.601 1.379.373.078-.041.937-.875 1.91-1.852 1.714-1.723 1.77-1.785 1.805-2.026.041-.281-.003-.545-.123-.728-.133-.203-1.06-.952-1.725-1.394a11.941 11.941 0 0 0-4.793-1.844c-.533-.081-2.424-.148-2.826-.1m2.241 1.942c1.625.197 3.068.744 4.261 1.617l.289.212-.556.525a64.02 64.02 0 0 1-.908.844l-.353.32-.23-.167c-.59-.427-1.634-.845-2.546-1.017-.567-.108-2.283-.09-2.838.029a7.66 7.66 0 0 0-3.684 1.942c-.472.449-1.081 1.203-1.335 1.654-.07.125-.157.216-.192.203-.1-.038-1.936-1.426-1.935-1.463.004-.116.815-1.095 1.356-1.637 1.136-1.137 2.232-1.862 3.692-2.443a11.062 11.062 0 0 1 2.098-.563l.533-.076c.303-.045 1.928-.03 2.348.02M7.76 13.493c.528.389.979.724 1.003.746.024.022.002.253-.048.513-.115.595-.127 1.676-.027 2.405.067.485.066.557-.008.67-.079.12-1.784 1.456-1.93 1.513-.038.014-.082-.017-.097-.07-.397-1.359-.52-2.131-.519-3.27.001-.951.081-1.641.287-2.48.175-.714.23-.852.313-.786.036.028.498.37 1.026.759M25.939 15.4c.062.377.034 1.928-.046 2.531-.254 1.915-.98 3.673-2.013 4.876l-.234.273-.963-.721-.962-.72.333-.413c.565-.7.907-1.4 1.169-2.397.17-.642.147-.825-.14-1.153-.313-.356-.193-.343-3.107-.343h-2.643V15.2h8.573l.033.2m-15.915 5.53c.896 1.123 2.291 2.043 3.734 2.462 1.665.483 3.747.361 5.448-.319.192-.077.368-.14.392-.14.052 0 1.99 1.377 2.031 1.444.041.067-.484.392-1.119.693-.928.44-1.852.699-3.043.854-.7.091-2.239.08-2.889-.022-2.31-.361-4.252-1.362-5.844-3.014-.408-.423-1.271-1.517-1.265-1.603.001-.017.413-.338.916-.711l.913-.68.234.356c.129.196.35.502.492.68"/></svg>
