<svg xmlns="http://www.w3.org/2000/svg" xml:space="preserve" viewBox="0 0 32 32"><path fill-rule="evenodd" d="M9.427 5.569a1.71 1.71 0 0 0-.32.154c-.066.046-1.428 1.345-3.027 2.888-2.089 2.017-2.944 2.877-3.04 3.056l-.133.25V23.44l.123.424c.198.684.455 1.117.968 1.631.49.489.896.739 1.575.966l.374.126 7.226.015c5.105.011 7.328-.002 7.571-.043 1.287-.221 2.307-.994 2.824-2.141.27-.599.325-.983.325-2.26v-1.154l.2.163c.11.089.904.76 1.764 1.49 1.834 1.557 1.886 1.584 2.541 1.339.329-.123.511-.318.641-.686.071-.201.081-1.105.081-7.244 0-5.168-.016-7.068-.062-7.22C28.931 8.42 28.401 8 27.994 8c-.417.001-.537.084-2.319 1.595l-1.755 1.488-.031-1.315c-.028-1.233-.039-1.339-.167-1.698-.496-1.396-1.597-2.317-3.014-2.522-.218-.032-2.492-.052-5.721-.051-4.333.001-5.399.015-5.56.072m11.289 2.239c.245.103.604.437.726.677.128.25.196.635.111.635-.044 0-.06 1.869-.06 7.11 0 7.875.022 7.378-.347 7.81a1.58 1.58 0 0 1-.464.339l-.282.128H6.213l-.24-.113a1.73 1.73 0 0 1-.729-.706c-.092-.184-.098-.498-.111-5.555l-.014-5.36 2.574-2.519 2.574-2.518 5.135-.002c4.287 0 5.164.012 5.314.074m6.057 8.218v4.452l-1.439-1.239L23.895 18v-4l1.399-1.21c.77-.665 1.417-1.211 1.439-1.213.022-.002.04 2 .04 4.449"/></svg>
