<svg xmlns="http://www.w3.org/2000/svg" viewBox="0 0 20 16">
    <path fill="#A12577" fill-rule="evenodd" d="M5.447 2.703C2.666 4.355.899 5.423.893 5.456c-.018.089.424.5.659.613.412.198.881.238 1.264.108.128-.044 1.461-.809 3.626-2.082 1.882-1.106 3.452-2.03 3.489-2.054.062-.038.315.115 3.277 1.983 1.766 1.114 3.289 2.055 3.385 2.09.095.036.282.081.415.101.577.084 1.261-.211 1.603-.692l.07-.098-4.326-2.705C11.975 1.233 10.02.013 10.01.009a473.7 473.7 0 0 0-4.563 2.694M9.423 4.02a.868.868 0 0 0-.432.388c-.059.114-.061.245-.061 4.411 0 4.719-.014 4.402.198 4.613.34.34.897.354 1.265.031.233-.205.215.169.215-4.623 0-2.661-.011-4.338-.03-4.387-.046-.122-.251-.333-.395-.407-.187-.097-.553-.109-.76-.026m3.603 1.865a.833.833 0 0 0-.477.378l-.088.15v3.119c0 2.981.002 3.124.059 3.23a.98.98 0 0 0 .384.387c.157.081.503.11.689.058.198-.055.416-.227.495-.389.067-.14.067-.141.067-3.27 0-3.119 0-3.132-.067-3.269-.119-.246-.481-.454-.786-.451-.062 0-.186.026-.276.057m-7.453.089c-.18.07-.267.129-.334.229l-.077.113v6.563l.071.105c.125.183.273.235.704.248.42.011.564-.017.713-.142.202-.171.19.053.19-3.518V6.316l-.077-.113c-.13-.191-.258-.233-.73-.24a3.357 3.357 0 0 0-.46.011m-1.9 8.382c0 .202.111.599.229.821.146.274.387.51.648.633l.216.103h10.07l.217-.103c.478-.227.834-.777.922-1.425l.023-.167H3.673v.138"/>
</svg>
