<svg width="32" height="32" xmlns="http://www.w3.org/2000/svg"><path d="M10.174 9.064c-3.366 1.956-6.133 3.57-6.149 3.587-.058.058.555.662.816.804.597.325 1.332.373 1.933.125.161-.066 2.365-1.314 4.899-2.773 2.533-1.46 4.639-2.641 4.68-2.625.04.015 1.988 1.209 4.327 2.653s4.373 2.673 4.52 2.732c.401.16 1.221.156 1.657-.01.352-.134.849-.494 1.029-.746l.113-.159-5.826-3.56a4195.808 4195.808 0 0 0-5.853-3.573c-.015-.006-2.78 1.589-6.146 3.545m5.319 1.756c-.33.151-.546.406-.612.722-.039.186-.052 2.039-.042 5.766.013 5.156.02 5.503.11 5.666.132.243.473.475.806.549.574.129 1.223-.222 1.361-.735.043-.158.056-1.801.045-5.758-.013-5.169-.021-5.548-.108-5.708-.288-.528-1.002-.757-1.56-.502m4.88 2.435c-.283.094-.423.204-.609.478l-.137.202v4.096c0 2.764.018 4.144.056 4.246.27.713 1.431.891 1.98.303.079-.084.169-.221.2-.303.039-.102.057-1.468.057-4.197s-.018-4.095-.057-4.197c-.194-.513-.918-.819-1.49-.628m-10.188.198c-.455.23-.428-.081-.412 4.769l.014 4.276.133.143c.233.249.378.292.987.292.626 0 .776-.048 1.007-.322l.139-.166v-8.628l-.164-.187c-.203-.231-.423-.296-1.011-.296-.367-.001-.502.023-.693.119m-2.38 11.13c.077.742.543 1.452 1.145 1.748l.303.149H22.8l.293-.138a2.55 2.55 0 0 0 .462-.281c.355-.3.71-.992.793-1.543l.037-.251H7.771l.034.316" fill="#A12577" fill-rule="evenodd"/></svg>
