<svg xmlns="http://www.w3.org/2000/svg" xml:space="preserve" viewBox="0 0 32 32"><path fill-rule="evenodd" d="M8.309 4.057c-1.536.229-2.827 1.179-3.479 2.561-.389.822-.377.668-.377 4.769v3.68l.18.518c.422 1.22 1.253 2.172 2.317 2.654.344.156.348.16.459.495.174.523.471.982.942 1.455l.43.434-.312.124a5.674 5.674 0 0 0-.777.425c-1.605 1.039-2.572 2.776-2.572 4.621v.5h2.293v-.45c0-.595.074-.927.32-1.444.378-.792 1.084-1.411 1.959-1.718.369-.129.491-.145 1.108-.146.592-.001.751.018 1.086.128.644.212 1.3.688 1.662 1.208l.151.218-.28.559c-.467.932-.656 1.649-.709 2.696l-.033.656h2.288l-.021-.653c-.067-2.109.911-3.464 2.779-3.85.46-.095 1.516-.112 1.863-.03l.574.134c.476.109 1.243.5 1.62.826.918.792 1.353 1.697 1.406 2.92l.028.653h2.279v-.468c0-1.745-.642-3.314-1.851-4.525-.431-.431-1.236-1.012-1.735-1.253-.14-.067-.254-.141-.254-.163 0-.023.083-.084.184-.136.255-.131.702-.514.999-.857.304-.348.653-1.005.839-1.578l.138-.424.356-.12c1.773-.596 2.991-2.058 3.187-3.824.024-.212.033-.403.02-.425-.012-.022-.519-.04-1.126-.04h-1.103v.386c0 .274-.03.447-.102.593-.143.286-.559.681-.924.876l-.308.164-.24-.459c-.559-1.067-1.656-1.88-2.906-2.152-.464-.101-1.414-.086-1.867.029-.438.111-1.14.426-1.497.672-.581.4-1.176 1.134-1.485 1.831l-.135.306-.248-.017-.247-.016-.121-.332c-.19-.527-.446-.912-.934-1.405-.379-.384-.536-.499-.96-.707-.671-.33-1.069-.427-1.76-.429-.687-.002-1.076.093-1.76.429-.428.21-.581.323-.989.733-.335.336-.538.594-.666.844-.102.198-.2.354-.218.347-.105-.042-.558-.651-.703-.947l-.17-.346v-3.254c0-3.681-.016-3.526.428-4.13.28-.381.678-.661 1.137-.804.331-.103.52-.106 7.549-.106 7.873 0 7.542-.012 8.081.304.503.295.961.923 1.043 1.433.082.504-.062.45 1.203.45h1.119l-.001-.307c-.002-.564-.252-1.363-.627-2.004-.234-.4-.853-1.053-1.255-1.327a5.503 5.503 0 0 0-1.504-.694l-.427-.12-7.52-.008c-4.136-.005-7.657.012-7.824.037m2.862 6.052a1.437 1.437 0 0 0-.729.629c-.159.307-.161.882-.004 1.182.304.579.927.811 1.568.585.499-.176.764-.592.766-1.2.002-.754-.397-1.233-1.053-1.261a1.593 1.593 0 0 0-.548.065m4.44-.005c-.772.275-1.11 1.078-.765 1.818.227.487.628.702 1.211.65.712-.064 1.117-.521 1.116-1.26 0-.409-.081-.667-.282-.895a1.164 1.164 0 0 0-1.28-.313m4.36.005a1.437 1.437 0 0 0-.729.629c-.159.307-.161.882-.004 1.182.304.579.927.811 1.568.585.499-.176.764-.592.766-1.2.002-.754-.397-1.233-1.053-1.261a1.593 1.593 0 0 0-.548.065m-7.915 5.839c.334.17.62.459.782.79.124.252.148.369.146.702-.004.459-.121.746-.443 1.085-.336.353-.548.435-1.128.435-.456 0-.531-.015-.754-.146-.537-.315-.846-.838-.846-1.432 0-.607.505-1.274 1.133-1.498a1.498 1.498 0 0 1 1.11.064m8.424-.03c.575.199 1.101.791 1.259 1.415.228.903-.227 1.855-1.087 2.277-.276.135-.36.15-.865.15-.494 0-.596-.017-.86-.141a1.824 1.824 0 0 1-.913-.89c-.163-.331-.174-.389-.174-.915 0-.507.014-.59.15-.866a2.145 2.145 0 0 1 1.356-1.107c.264-.066.833-.028 1.134.077m-4.992 2.921c.21.756.753 1.549 1.419 2.074l.364.289c.01.008-.197.126-.459.261-.261.135-.636.353-.831.484l-.356.239-.439-.441a5.384 5.384 0 0 0-1.332-1l-.252-.138.33-.264c.53-.422.844-.852 1.156-1.583.158-.371.282-.347.4.079"/></svg>
