<svg xmlns="http://www.w3.org/2000/svg" viewBox="0 0 24 24">
    <path fill-rule="evenodd" d="M11.185 2.321A4.772 4.772 0 0 0 7.408 5.03c-.137.287-.148.337-.147.67 0 .296.017.394.095.551.214.435.639.751 1.093.814l.178.024.025-.316c.1-1.305 1.122-2.44 2.436-2.71 1.458-.299 2.785.404 3.472 1.837.158.33.55.742.867.911.231.124.753.269.963.269h.138l-.026-.29c-.111-1.222-.58-2.24-1.417-3.074-.563-.561-1.089-.894-1.812-1.149a4.95 4.95 0 0 0-2.088-.246M7.04 7.355c0 .462.188 1.223.442 1.79.065.144.118.27.118.279 0 .009-.68.016-1.51.017-1.619 0-1.808.018-2.289.212-.962.389-1.701 1.268-1.903 2.266-.129.638-.024 1.39.271 1.921.365.661 1.068 1.239 1.703 1.402.114.029.208.063.208.076 0 .012-.114.064-.254.114-.554.199-1.231.714-1.634 1.246-.25.329-.523.885-.64 1.302-.087.311-.09.381-.103 2.59l-.013 2.27h1.617c1.96 0 2.179-.027 2.955-.365.709-.308 1.333-.826 1.821-1.513.007-.009.043.027.08.08.136.199.6.653.891.873a4.791 4.791 0 0 0 2.015.863c.298.052.801.062 3.089.062h2.734l.011-.65.011-.65.18.165c.453.416 1.145.753 1.828.893.373.076.545.082 2.192.082h1.787l-.018-2.35c-.015-2.036-.026-2.385-.084-2.61-.289-1.112-.906-1.881-1.883-2.345l-.298-.142.315-.157a3.02 3.02 0 0 0 1.329-1.419c.159-.372.206-.667.205-1.277-.001-.974-.21-1.5-.852-2.141-.43-.431-.751-.625-1.269-.767-.293-.081-.423-.087-2.165-.102-1.709-.016-1.851-.022-1.825-.083.168-.399.191-.487.191-.747a1.305 1.305 0 0 0-.365-.935c-.208-.221-.556-.404-.828-.435l-.168-.019-.028.274c-.17 1.676-1.615 2.916-3.264 2.8a2.793 2.793 0 0 1-1.18-.323c-.639-.316-1.054-.743-1.427-1.473-.256-.501-.566-.833-.953-1.021-.298-.145-.668-.248-.888-.248H7.04v.195m8.933 5.865c.037.132.143.393.236.58.135.272.241.413.53.703.305.308.421.393.749.556l.388.193-.235.111a3.572 3.572 0 0 0-.885.585c-.109.101-.203.177-.21.168a2.093 2.093 0 0 1-.061-.242 4.701 4.701 0 0 0-.169-.54c-.549-1.431-1.743-2.479-3.256-2.859-.415-.105-1.339-.145-1.77-.077-1.691.264-3.046 1.23-3.799 2.707a5.67 5.67 0 0 0-.249.545c-.027.082-.058.15-.069.15a.601.601 0 0 1-.127-.075 4.13 4.13 0 0 0-.736-.363c-.082-.026-.15-.061-.15-.077s.104-.063.23-.106c.489-.165 1.075-.66 1.383-1.167.077-.128.192-.377.254-.552l.112-.32.013-1.453.013-1.454.368.354c.713.688 1.498 1.09 2.487 1.275.53.099 1.458.064 1.992-.076a4.992 4.992 0 0 0 1.45-.644c.403-.262 1.009-.847 1.241-1.199l.157-.236.023 1.636c.019 1.357.035 1.678.09 1.877m3.746-2.076c.164.048.269.117.444.293.278.277.357.497.357.989 0 .565-.193.909-.64 1.141-.165.085-.229.093-.78.092-.525 0-.623-.011-.785-.085a1.294 1.294 0 0 1-.596-.561c-.095-.185-.1-.229-.111-1.063l-.012-.87h.955c.756 0 .999.013 1.168.064m-13.26.836c-.002.761-.01.857-.084 1.02-.208.456-.509.632-1.141.667-.497.029-.9-.031-1.108-.164-.629-.404-.761-1.163-.31-1.778.144-.195.415-.412.61-.488.223-.087.483-.108 1.254-.103l.78.006-.001.84m6.343 2.184c.743.198 1.442.779 1.8 1.496.303.605.292.487.308 3.133l.014 2.373-1.912-.017c-2.096-.02-2.103-.02-2.641-.27-.852-.396-1.491-1.173-1.674-2.036-.08-.377-.077-1.75.005-2.144.239-1.162 1.191-2.193 2.327-2.523.517-.151 1.237-.156 1.773-.012m6.877 2.645c.576.149 1.087.705 1.2 1.306.023.119.041.809.041 1.533v1.318l-1.03-.014c-1.144-.016-1.226-.032-1.666-.325-.623-.414-.97-1.006-1.013-1.727-.039-.663.135-1.131.592-1.59.514-.517 1.154-.687 1.876-.501m-14.039.12c.63.189 1.118.76 1.191 1.395.114.984-.365 1.937-1.241 2.466-.476.288-.953.381-1.87.362l-.58-.012-.011-1.04c-.014-1.313.022-1.665.207-2.04a2.07 2.07 0 0 1 .674-.804c.487-.358 1.109-.483 1.63-.327"/>
</svg>
