<svg xmlns="http://www.w3.org/2000/svg" viewBox="0 0 32 32" xml:space="preserve"><path d="M8.945 2.831a4.477 4.477 0 0 0-3.396 2.476c-.473.969-.456.79-.456 4.826 0 3.925-.012 3.768.357 4.594.172.383.228.435.283.262.087-.276.624-.987 1.098-1.454l.526-.518.015-3.163.015-3.163.171-.348c.192-.391.54-.772.893-.979.532-.312.21-.3 8.06-.285l7.196.014.293.12c.598.244 1.03.69 1.29 1.334l.123.306v3.2c0 2.478-.015 3.255-.069 3.44l-.07.24.346.518c.361.539.667 1.135.783 1.523l.068.228.129-.121c.364-.341.854-1.344.998-2.039.124-.599.122-6.881-.002-7.484-.244-1.184-1.055-2.327-2.083-2.936-.448-.265-1.186-.515-1.744-.592-.505-.069-14.352-.068-14.824.001m2.5 6.213c-.461.169-.731.518-.807 1.044-.075.525.237 1.125.695 1.333.283.128.786.128 1.067-.001.435-.2.666-.543.707-1.05.079-.985-.762-1.656-1.662-1.326m4.382-.008c-.591.211-.88.68-.827 1.343.034.417.224.765.53.968.256.168.811.227 1.136.12.258-.085.539-.337.681-.609.161-.307.161-.929 0-1.236a1.225 1.225 0 0 0-1.52-.586m4.286.015c-1.025.362-1.058 1.964-.048 2.386.268.112.763.104 1.028-.017.285-.129.594-.481.67-.764.098-.361.036-.858-.144-1.152-.288-.473-.916-.661-1.506-.453m-9.991 3.539c-1.554.214-2.973 1.22-3.648 2.585-.159.322-.194.453-.197.729-.005.724.389 1.33.979 1.505.414.123.424.119.424-.161 0-.931.693-2.022 1.579-2.486.555-.291.924-.381 1.541-.379 1.253.005 2.303.672 2.887 1.833.321.64.969 1.106 1.614 1.161l.289.024-.031-.527c-.115-1.973-1.73-3.778-3.762-4.205-.495-.104-1.24-.139-1.675-.079m10.225.159a5.106 5.106 0 0 0-1.997.769c-.943.627-1.812 1.842-1.815 2.539-.003.578.4 1.167.92 1.344l.252.086v-.174c0-.292.108-.788.252-1.153a3.403 3.403 0 0 1 4.698-1.81c.54.266 1.071.748 1.358 1.231.206.347.465 1.071.465 1.299 0 .083.064.177.184.268.223.17.842.396 1.091.398l.181.001-.032-.414c-.133-1.703-1.333-3.354-2.923-4.022-.807-.34-1.855-.483-2.634-.362M5.995 17.947c.071.785.403 1.723.828 2.341 1.514 2.201 4.53 2.796 6.784 1.338a4.626 4.626 0 0 0 1.658-1.866c.196-.398.208-.452.188-.8-.032-.531-.125-.684-.465-.763a3.338 3.338 0 0 1-.596-.223 4.26 4.26 0 0 0-.344-.161c-.012 0-.021.082-.021.181 0 .1-.048.334-.106.52-.389 1.242-1.499 2.091-2.828 2.163a2.9 2.9 0 0 1-1.613-.337c-.501-.251-1.166-.91-1.423-1.407-.311-.603-.382-.673-.721-.708-.361-.037-.777-.222-1.088-.483a1.56 1.56 0 0 0-.26-.195c-.016 0-.013.18.007.4m10.354-.014c.127 1.219.61 2.234 1.467 3.08a4.825 4.825 0 0 0 4.728 1.229 4.784 4.784 0 0 0 2.714-1.976c.492-.76.593-1.191.406-1.728-.089-.256-.098-.264-.411-.35a3.242 3.242 0 0 1-.498-.182c-.098-.052-.184-.086-.192-.077a2.54 2.54 0 0 0-.078.284c-.268 1.118-1.28 2.172-2.403 2.502-1.003.295-2.151.078-3.025-.572-.532-.395-.99-1.059-1.139-1.651-.058-.23-.069-.24-.288-.265-.294-.033-.756-.245-.999-.459-.283-.248-.322-.225-.282.165m-7.958 5.185C5.666 24.038 4 26.184 4 28.777v.45h2.293v-.496c0-.59.096-.994.353-1.482.543-1.033 1.733-1.829 3.194-2.136.457-.096 1.62-.082 2.093.025a6.257 6.257 0 0 1 1.666.665l.452.259.226-.397c.253-.445.397-.645.784-1.095l.267-.309-.157-.127c-.472-.381-1.404-.837-2.121-1.038l-.396-.111-.447.11a5.482 5.482 0 0 1-2.796-.08c-.36-.11-.402-.105-1.02.103m10.356-.019c-2.71.899-4.454 3.103-4.454 5.628v.5h2.294v-.496c0-.935.289-1.611.986-2.304 1.74-1.733 4.831-1.873 6.785-.308.937.75 1.349 1.538 1.349 2.58v.528h2.309l-.031-.707c-.02-.438-.073-.862-.139-1.116-.52-1.998-2.129-3.594-4.369-4.335-.253-.083-.506-.135-.587-.12-.079.015-.395.079-.703.144-.705.147-1.704.126-2.369-.049a3.74 3.74 0 0 0-.507-.108c-.046.002-.3.075-.564.163" fill-rule="evenodd"/></svg>
