<svg width="32" height="32" xmlns="http://www.w3.org/2000/svg"><path d="M16.008 5.177a5.576 5.576 0 0 0-2.412.894c-.731.486-1.608 1.544-1.878 2.266-.301.804.028 1.627.793 1.983.152.071.353.129.447.129l.17.001.062-.441c.201-1.417 1.293-2.592 2.682-2.887 1.643-.348 3.215.426 3.927 1.932.195.413.577.847.922 1.05.31.181.846.346 1.126.346h.223l-.037-.413a5.317 5.317 0 0 0-1.609-3.331c-.931-.9-1.929-1.377-3.208-1.534-.519-.064-.622-.063-1.208.005m-4.623 5.688c0 .556.21 1.329.584 2.152.022.049-.423.07-1.803.085-1.819.02-1.837.021-2.273.168a3.655 3.655 0 0 0-2.062 1.824c-.251.527-.331.878-.331 1.452 0 .852.297 1.569.907 2.187.419.424.743.636 1.252.82l.328.119-.321.131c-.868.352-1.763 1.188-2.187 2.044-.405.816-.417.922-.418 3.775l-.001 2.494 1.939-.026c1.553-.021 2.01-.045 2.296-.117 1.106-.281 1.991-.82 2.65-1.614.157-.189.302-.344.322-.344.02 0 .142.126.273.281.478.567 1.341 1.16 2.105 1.446.851.318.905.322 4.344.348l3.176.024v-.747c0-.411.015-.747.032-.747.018 0 .166.118.328.263.367.327 1.022.68 1.565.844.393.119.517.125 2.626.145l2.214.02v-2.635c0-2.97-.013-3.091-.423-3.879-.297-.571-1.052-1.314-1.629-1.604l-.43-.216.347-.168c.231-.111.487-.306.762-.58.695-.691.931-1.298.931-2.392 0-1.11-.233-1.7-.958-2.42-.508-.505-.836-.701-1.437-.854-.387-.099-.613-.109-2.485-.109-1.941 0-2.057-.006-2.018-.096.187-.43.254-.722.225-.973-.045-.378-.274-.819-.535-1.025-.241-.191-.691-.381-.903-.381-.123 0-.137.022-.137.217 0 .813-.516 1.817-1.248 2.428-.324.272-1.043.624-1.436.705-.426.088-1.289.074-1.676-.026-.992-.258-1.774-.915-2.279-1.916-.228-.454-.63-.896-.996-1.095-.288-.156-.821-.313-1.067-.313-.149 0-.153.008-.153.305m10.082 6.508c.168.574.369.898.858 1.385.36.358.566.514.865.654l.393.185-.365.176a4.464 4.464 0 0 0-.718.459c-.194.155-.368.283-.387.283-.018 0-.078-.171-.131-.379-.192-.746-.642-1.53-1.246-2.17-.804-.854-1.826-1.372-3.077-1.56-1.06-.159-2.182.026-3.221.531-1.183.576-2.045 1.442-2.627 2.643-.154.318-.285.585-.291.594-.007.009-.157-.072-.334-.179a2.716 2.716 0 0 0-.358-.195c-.019 0-.128-.039-.243-.087l-.209-.087.3-.122c.858-.349 1.552-1.108 1.84-2.014.079-.249.1-.58.12-1.885l.025-1.583.393.373a5.296 5.296 0 0 0 2.834 1.419c1.399.245 2.98-.134 4.115-.987.368-.277 1.059-.99 1.214-1.252.093-.157.097-.105.129 1.67.027 1.43.053 1.897.121 2.128m4.491-2.22c.135.091.32.273.412.404.163.231.168.255.168.861 0 .605-.005.629-.168.861-.092.131-.278.3-.412.376-.228.128-.298.138-.988.138-.817 0-1.018-.06-1.327-.394-.315-.339-.346-.466-.368-1.494l-.021-.953 1.229.018 1.229.018.246.165m-15.233.705c0 1.049-.064 1.305-.407 1.621a1.428 1.428 0 0 1-.453.282c-.266.073-1.25.077-1.501.005a1.484 1.484 0 0 1-.753-.569c-.178-.266-.24-.779-.134-1.1.092-.279.353-.617.605-.784.397-.263.565-.293 1.639-.296l1.004-.002v.843M17.93 18.4c.933.277 1.777 1.064 2.14 1.997l.142.365.017 2.714.016 2.713-2.189-.022c-1.915-.019-2.226-.035-2.491-.121-1.211-.394-2.097-1.342-2.343-2.506-.067-.317-.081-.623-.062-1.32.022-.786.045-.967.17-1.352.417-1.287 1.592-2.309 2.937-2.555.371-.068 1.307-.019 1.663.087m8.003 3.048c.39.189.815.641.967 1.031.117.299.126.416.148 1.904l.023 1.586-1.202-.018-1.201-.018-.376-.178c-.479-.227-1.027-.762-1.226-1.197-.401-.874-.264-1.887.347-2.562.258-.286.457-.425.836-.585.268-.113.381-.127.859-.113.446.014.601.043.825.15m-15.915.124c.383.176.627.387.844.729.716 1.13.085 2.85-1.3 3.546-.532.267-.973.342-1.889.321l-.715-.016-.017-1.127c-.026-1.825.089-2.301.699-2.909.679-.676 1.621-.892 2.378-.544" fill-rule="evenodd" fill="#000"/></svg>
