<svg xmlns="http://www.w3.org/2000/svg" viewBox="0 0 32 32"><path fill="#A22778" fill-rule="evenodd" d="M14.187 4.059a9.662 9.662 0 0 0-6.673 3.797A9.51 9.51 0 0 0 5.619 13.2c-.033.802.033 1.26.242 1.67.118.231.088.323-.176.54-.454.372-.902.945-1.19 1.523-.91 1.821-.544 3.891.947 5.363l.462.455.038.336a5.76 5.76 0 0 0 4.298 4.77c.452.116.474.116 6.187.116 5.717 0 5.734 0 6.167-.116.6-.16 1.09-.36 1.593-.65.588-.341 1.557-1.308 1.901-1.9.416-.715.687-1.504.771-2.242.035-.311.047-.33.496-.798.938-.979 1.367-1.901 1.429-3.069.077-1.433-.507-2.719-1.711-3.769l-.257-.225.171-.495c.221-.64.262-1.324.137-2.282-.429-3.292-2.406-6.036-5.384-7.471-1.036-.5-1.991-.769-3.191-.9-.602-.065-3.774-.063-4.362.003m4.009 2.982c2.227.211 4.105 1.443 5.202 3.412a6.65 6.65 0 0 1 .773 2.812c.014.451.006.501-.106.613l-.121.122H8.856l-.121-.122c-.111-.112-.12-.164-.108-.607.09-3.166 2.686-5.914 5.88-6.226.66-.064 3.027-.067 3.689-.004m-8.436 8.96c-.227.179-.558.319-.754.319-.172 0-.632-.243-.716-.378-.017-.028.312-.048.787-.047l.816.001-.133.105m5.013-.089c0 .01-.126.098-.28.194-.384.24-.661.267-.957.091-.52-.308-.53-.3.397-.302.462-.001.84.007.84.017m4.614.113c-.473.387-.892.389-1.25.007l-.129-.139.769.001h.77l-.16.131m5.01-.085c-.138.129-.711.38-.866.38-.211 0-.418-.1-.594-.288l-.129-.139h.82c.475 0 .799.02.769.047m-12.438 1.731c.527.403.934.584 1.524.678.662.106 1.359-.078 2.075-.548.326-.214.473-.277.682-.295.235-.02.292-.003.48.143.767.595 1.089.719 1.867.719.678.001 1.028-.1 1.511-.435.803-.557.936-.572 1.481-.167.551.41 1.158.631 1.732.633.382.001 1.056-.194 1.399-.405.304-.188.312-.189.42-.093.312.279.471.712.476 1.296.004.459-.128.77-.445 1.041-.438.375.176.352-8.87.336l-8.158-.014-.213-.116a2.045 2.045 0 0 1-.781-.844c-.221-.496-.123-1.207.216-1.56a.572.572 0 0 1 .142-.12c.015 0 .141.058.28.129.475.24.828.311 1.417.285.636-.028.957-.135 1.54-.516.473-.309.489-.315.769-.32.174-.004.273.034.456.173m11.524 6.125c-.161.282-.614.701-.956.883-.643.341-.483.333-6.127.333s-5.484.008-6.127-.333c-.348-.185-.832-.632-.966-.892l-.083-.16h14.355l-.096.169"/></svg>
