<svg xmlns="http://www.w3.org/2000/svg" xml:space="preserve" viewBox="0 0 32 32"><path fill-rule="evenodd" d="M13.82 5.101c-1.136.175-2.502.6-3.447 1.072-1.296.648-1.718 1.15-1.668 1.987.026.446.109.643.405.972.177.196.738.521.9.521.148 0 1.091.348 1.521.561.481.238 1.185.698 1.353.884.093.103.092.11-.034.233-.071.07-1.918 1.653-4.103 3.519-2.186 1.865-3.998 3.434-4.027 3.487a3.385 3.385 0 0 1-.226.312c-.094.119-.244.37-.333.557-.159.336-.161.352-.161 1.228v.887l.212.424c.258.515.54.845.964 1.128a2.918 2.918 0 0 0 2.042.486c.475-.066.985-.309 1.22-.58.187-.216 8.389-7.152 8.458-7.152.035 0 .434.438.638.699.057.073-.032.17-.654.709-.396.343-.72.646-.72.674 0 .027.501.571 1.112 1.21 1.014 1.058 1.15 1.18 1.528 1.374l.415.214.898 1.626c.494.895.899 1.639.899 1.654.001.015-.149.084-.332.155-.4.153-7.15 2.996-7.182 3.025-.012.011 3.087.02 6.888.02h6.91l.034-.36c.101-1.088.487-9.175.439-9.222-.011-.012-.732.865-1.6 1.949-.869 1.084-1.605 1.987-1.637 2.007-.033.02-.841-.188-1.798-.461-1.709-.489-1.736-.499-1.528-.559.484-.14.782-.352 1.586-1.129 2.276-2.201 2.811-2.742 2.925-2.956.102-.192.122-.312.122-.737.001-.44-.017-.542-.132-.761-.074-.139-.756-.947-1.516-1.796l-1.383-1.543-.418.377c-.23.207-.43.395-.444.418-.014.023-.17.167-.346.319l-.321.278-.086-.205c-.07-.166-.081-.328-.058-.838.046-1.004-.111-1.763-.491-2.384-.219-.357-1.984-2.353-2.507-2.835-.755-.695-1.674-1.225-2.479-1.429-.498-.126-1.104-.132-1.838-.019m1.622 2.342c.713.186 1.379.717 2.601 2.077.528.587.995 1.151 1.038 1.253.082.192.093.419.069 1.387-.021.845.196 1.578.613 2.074.079.094.135.177.124.186l-.207.154-.187.138-1.914-2.262c-1.054-1.245-2.086-2.434-2.294-2.644-.594-.598-1.223-1.05-2.247-1.616l-.528-.292.189-.079c.454-.19 1.332-.364 2.128-.423.132-.009.253-.022.268-.027.016-.005.172.028.347.074m.064 6.151c.084.119.083.131-.017.213-.058.047-1.929 1.624-4.157 3.504-2.229 1.88-4.104 3.446-4.168 3.48a.566.566 0 0 1-.661-.094c-.127-.126-.156-.201-.156-.397 0-.212.025-.265.2-.425.11-.101 2.012-1.736 4.226-3.633l4.027-3.45.309.337c.169.186.348.395.397.465m7.909 1.528.183.188-1.441 1.439-1.441 1.438h-.245c-.155 0-.288-.035-.36-.094-.113-.092-.106-.101 1.074-1.274 1.076-1.069 1.94-1.876 2.018-1.883.016-.001.112.082.212.186m2.841 8.603-.145 1.662-2.536-.003-2.535-.002.773-.283c.696-.256 1.706-.659 1.751-.7.01-.009-.223-.431-.517-.939-.294-.508-.528-.93-.521-.938.008-.007.588.178 1.29.412.701.234 1.305.426 1.341.426.037 0 .324-.3.638-.666.314-.366.58-.657.589-.648.01.01-.048.766-.128 1.679"/></svg>
