<svg xmlns="http://www.w3.org/2000/svg" fill="none" viewBox="0 0 42 42">
  <path fill="#a12577" fill-rule="evenodd" d="M20.208 8.051a6 6 0 0 0-3.827 2.113c-.472.578-.94 1.546-1.126 2.331-.213.892-.167 2.185.107 3.045.492 1.542 1.517 2.759 2.914 3.46.33.165.763.343.962.394l.362.092v11.725l-.262-.04c-.541-.082-1.609-.387-2.289-.653-2.885-1.129-5.189-3.569-6.225-6.59-.101-.295-.184-.582-.184-.638 0-.055.128-.19.285-.299 1.148-.795 1.717-2.38 1.358-3.779-.168-.652-.434-1.129-.916-1.64-.729-.773-1.592-1.139-2.687-1.139-1.034 0-1.798.299-2.541.995-.898.839-1.314 2.12-1.07 3.292.238 1.146.986 2.163 1.958 2.666.448.231.466.252.571.624.992 3.543 3.152 6.446 6.206 8.343 4.256 2.644 9.837 2.709 14.162.163 3.043-1.791 5.264-4.629 6.298-8.048.139-.461.259-.842.267-.848.008-.005.24-.127.517-.271.829-.431 1.428-1.099 1.713-1.909.606-1.723.05-3.526-1.37-4.443-1.205-.779-2.843-.76-4.057.045-.981.652-1.648 1.897-1.653 3.089-.001.341.224 1.257.389 1.582.265.523.894 1.189 1.417 1.5.059.035-.453 1.394-.754 2.002-1.503 3.029-4.427 5.277-7.66 5.887l-.534.101.018-5.914.018-5.914.438-.164c1.351-.508 2.638-1.788 3.232-3.214 1.04-2.5.176-5.438-2.048-6.96-1.124-.769-2.663-1.15-3.989-.986m1.226 3.018c.831.176 1.602.784 1.985 1.566.188.384.206.483.206 1.155 0 .652-.021.78-.189 1.138a3.2 3.2 0 0 1-1.381 1.402c-.425.208-.514.225-1.16.225-.642 0-.739-.019-1.171-.223a2.82 2.82 0 0 1-1.343-1.352c-.199-.419-.216-.514-.216-1.19 0-.69.014-.761.221-1.155.427-.809 1.037-1.317 1.844-1.533.476-.127.729-.134 1.204-.033M9.516 19.142c1.146.795.37 2.577-1.009 2.318-.64-.12-1.125-.921-.949-1.571.232-.862 1.238-1.245 1.958-.747m24.652-.03c.419.274.587.584.587 1.084 0 .36-.033.478-.2.72-.534.77-1.621.748-2.139-.042-.723-1.102.652-2.483 1.752-1.762"/>
</svg>
