<svg xmlns="http://www.w3.org/2000/svg" viewBox="0 0 33 24"><path fill="#A12577" fill-rule="evenodd" d="M.44 11.688v11.687h2.19c1.839 0 2.238-.014 2.489-.087A2.133 2.133 0 0 0 6.5 22.014l.128-.316.015-3.754.016-3.754h9.122l.016 3.809.016 3.809.127.316c.178.441.582.865 1.011 1.064l.346.16 2.352.015 2.351.016V0l-1.966.001c-2.165.001-2.435.031-2.953.327a2.675 2.675 0 0 0-1.235 1.696c-.041.193-.061 1.393-.061 3.562v3.27l-4.579-.014-4.578-.014L6.6 5.253l-.028-3.576-.171-.357C6.183.868 5.923.57 5.547.346 5.004.021 4.822 0 2.518 0H.44v11.688m24.451.701c-.015.098-.14 1.428-.276 2.956a317.6 317.6 0 0 1-.273 2.956l-.025.179h1.725c1.799 0 2.383.046 2.863.225.33.124.663.423.778.7.097.23.107.799.018 1.027-.175.453-.683.796-1.347.912-.497.086-1.451.033-2.062-.115-.441-.107-1.267-.466-1.624-.706l-.165-.111-.51.982-.51.982.322.196c1.595.968 4.341 1.27 6.07.666 1.168-.408 1.99-1.2 2.338-2.251.127-.383.148-.539.15-1.132.002-.56-.019-.759-.118-1.075-.238-.761-.831-1.448-1.573-1.822-.719-.362-1.874-.568-3.182-.568h-.595v-.169c0-.196.098-1.398.142-1.742l.03-.234h4.668V12.21H24.92l-.029.179"/></svg>
