<svg xmlns="http://www.w3.org/2000/svg" viewBox="0 0 35 24"><path fill="#A12577" fill-rule="evenodd" d="M.7 11.697V23.4l2.26-.022c1.965-.019 2.295-.035 2.523-.123a2.282 2.282 0 0 0 1.271-1.277c.089-.224.101-.634.117-4.026l.017-3.777h9.15l.017 3.865.016 3.864.152.321c.181.381.558.768.925.949.259.127.314.131 2.671.147l2.406.016V0h-1.971c-1.583 0-2.039.018-2.314.089-.872.227-1.531.846-1.792 1.681-.098.313-.106.612-.106 3.689v3.349H6.883l-.001-3.223c0-1.772-.025-3.391-.055-3.597C6.711 1.19 6.149.451 5.439.165 5.113.034 5.046.03 2.902.012L.7-.006v11.703m26.021 4.026-2.629 3.531V21H30.1v2.333h2.508V21h1.809v-2.1h-1.809v-2.042h-2.45V18.9h-2.983l.135-.19c.073-.104 1.146-1.581 2.384-3.283a613.479 613.479 0 0 0 2.294-3.165c.034-.054-.262-.07-1.297-.07h-1.34l-2.63 3.531"/></svg>
