<svg xmlns="http://www.w3.org/2000/svg" viewBox="0 0 33 24"><path fill="#A12577" fill-rule="evenodd" d="M.88 11.69v11.689l2.324-.016 2.323-.015.31-.152a2.158 2.158 0 0 0 1.203-1.575c.033-.179.055-1.706.055-3.864V14.19h9.126l.016 3.809.016 3.809.126.313c.178.44.544.827.99 1.046l.366.181 2.352.015 2.353.016V0l-1.966.001c-1.563 0-2.039.018-2.32.084-.813.192-1.467.784-1.782 1.614-.115.301-.118.394-.135 3.732l-.017 3.424H7.095l-.001-3.231c-.001-1.873-.024-3.393-.057-3.617-.103-.715-.488-1.325-1.05-1.661C5.444.021 5.262 0 2.958 0H.88v11.69m23.43 1.538v1.017h2.365c1.301 0 2.365.019 2.365.041 0 .023-.507.616-1.128 1.318l-1.127 1.277v1.697l1.031.024c1.22.028 1.53.111 1.921.514.49.506.428 1.373-.132 1.835-.35.289-.728.399-1.472.429-1.103.045-2.151-.209-2.985-.723l-.385-.238-.503.978-.503.978.153.108c.485.343 1.398.701 2.315.907.461.104.699.12 1.77.12 1.431.001 1.789-.065 2.668-.491.786-.382 1.308-.888 1.646-1.597.251-.524.331-.896.329-1.512-.004-.877-.235-1.462-.828-2.09-.428-.453-1.064-.806-1.745-.966-.231-.055-.419-.113-.418-.13 0-.017.557-.662 1.237-1.433l1.236-1.401v-1.68h-7.81v1.018"/></svg>
