<svg xmlns="http://www.w3.org/2000/svg" viewBox="0 0 34 24"><path fill="#A12577" fill-rule="evenodd" d="M.453 11.735v11.734l2.224-.021c2.146-.02 2.236-.025 2.545-.148.606-.241 1.002-.63 1.266-1.247.109-.255.114-.407.13-4.047l.017-3.783h9.172l.016 3.896.015 3.896.14.283c.177.361.574.758.937.937l.283.14 2.394.016 2.395.017V0h-1.953c-1.241 0-2.061.023-2.252.064a2.528 2.528 0 0 0-1.97 2.089c-.034.216-.058 1.676-.058 3.528l-.001 3.159H6.63V5.567c-.001-1.83-.025-3.419-.055-3.606C6.463 1.278 6.044.646 5.488.32 4.986.026 4.742 0 2.51 0H.453v11.735m28.407.337c-2.505.314-4.167 1.807-4.728 4.244-.073.317-.123.8-.144 1.392-.052 1.447.122 2.417.612 3.413.629 1.279 1.773 2.119 3.229 2.372.756.131 2.021.088 2.573-.089.783-.25 1.21-.501 1.733-1.02.762-.755 1.013-1.368 1.014-2.477.001-.52-.024-.714-.139-1.077-.476-1.499-1.867-2.396-3.713-2.396-1.025 0-1.856.248-2.465.736l-.227.181-.017-.194c-.027-.31.141-.997.355-1.447.35-.738 1.05-1.294 1.874-1.491.155-.037.575-.068.933-.069.734-.002 1.191.092 1.727.354.186.091.343.161.348.155.045-.053.931-1.868.918-1.88-.076-.066-.597-.295-.917-.404-.819-.279-2.11-.411-2.966-.303m.922 6.488c.402.205.725.602.822 1.008.085.352.041.918-.092 1.199-.316.665-1.197 1.038-2.117.896-.989-.153-1.555-.748-1.559-1.638-.002-.531.209-.97.613-1.275.419-.317.699-.391 1.399-.375.541.013.634.032.934.185"/></svg>
