<svg xmlns="http://www.w3.org/2000/svg" viewBox="0 0 22 23"><path fill="#A12577" fill-rule="evenodd" d="M0 11.497v11.496l2.319-.011 2.319-.01.275-.106c.67-.257 1.146-.758 1.348-1.421.054-.175.062-.592.073-3.836l.013-3.639h9.346l.001 3.639c0 4.011-.006 3.888.229 4.332.173.325.502.643.834.805.487.239.532.243 3.016.243L22 22.99V-.004l-2.117.012c-2.103.012-2.12.013-2.375.097-.468.156-.746.326-1.083.663a2.424 2.424 0 0 0-.645 1.029c-.063.188-.069.427-.086 3.538l-.019 3.337h-9.35l-.018-3.447-.019-3.447-.098-.27A2.322 2.322 0 0 0 4.421.04C4.281.014 3.452 0 2.102 0H0v11.497"/></svg>
