<svg xmlns="http://www.w3.org/2000/svg" viewBox="0 0 32 24"><path fill="#A12577" fill-rule="evenodd" d="M0 11.703v11.71l2.04-.001c1.122 0 2.193-.023 2.38-.05.67-.097 1.295-.573 1.596-1.215l.144-.307.015-3.8.015-3.8h9.167l.015 3.827.015 3.826.153.332c.202.438.645.864 1.062 1.02.299.111.381.115 2.627.115h2.318V0L19.56.003c-1.699.003-2.037.016-2.338.095a2.494 2.494 0 0 0-1.78 1.797c-.069.266-.082.824-.082 3.636v3.322H6.187V5.469c0-2.304-.019-3.474-.06-3.666C5.978 1.104 5.523.538 4.854.218L4.453.027 2.227.01 0-.006v11.709m26.15.43c-1.164.211-2.073.687-2.812 1.473-.223.236-.404.446-.404.465 0 .02.413.304.918.632l.917.595.35-.329c.604-.568 1.32-.818 2.188-.765 1.119.068 1.645.57 1.589 1.515-.03.494-.179.845-.562 1.321-.142.176-1.308 1.313-2.591 2.527l-2.332 2.207.014.806.015.807h8.427l.014-1.027.015-1.027h-2.402c-1.32 0-2.401-.018-2.4-.04 0-.022.71-.708 1.578-1.526 1.656-1.56 2.15-2.111 2.447-2.727.279-.579.367-.981.37-1.68.002-.488-.022-.691-.116-.993-.359-1.153-1.506-2.016-3-2.257-.47-.076-1.753-.063-2.223.023"/></svg>
