<svg xmlns="http://www.w3.org/2000/svg" viewBox="0 0 28 23"><path fill="#A12577" fill-rule="evenodd" d="M0 11.481v11.481l2.368-.012 2.369-.013.316-.15a2.089 2.089 0 0 0 1.152-1.577c.027-.191.047-1.751.047-3.768L6.253 14h9.194v3.591c0 2.461.016 3.669.052 3.838a1.943 1.943 0 0 0 1.065 1.363l.306.145 2.415.013 2.415.012V0l-1.972.001c-1.534 0-2.042.016-2.288.068-.976.206-1.771 1.008-1.943 1.958-.033.18-.05 1.393-.05 3.465V8.68h-9.24V5.278c0-3.249-.004-3.415-.092-3.698A2.25 2.25 0 0 0 4.476.072C4.233.015 3.786.001 2.088.001L0 0v11.481m23.147 1.539v1.027h2.24v8.913H28V11.993h-4.853v1.027"/></svg>
