<svg xmlns="http://www.w3.org/2000/svg" viewBox="0 0 32 32" xml:space="preserve"><path d="M14.37 5.252c-2.987.456-5.421 2.216-7.067 5.11-.401.707-.78 1.545-1.044 2.312-.11.319-.276.687-.37.819-.511.723-.556.961-.555 2.968.001 1.983.048 2.237.539 2.886.763 1.012 2.259 1.352 3.451.786a2.717 2.717 0 0 0 1.501-2.054c.067-.516.067-2.735 0-3.252a2.691 2.691 0 0 0-1.194-1.877c-.34-.22-.895-.417-1.174-.417-.095 0-.188-.015-.206-.033-.019-.019.132-.361.335-.76 1.143-2.251 2.754-3.744 4.747-4.4 1.589-.523 3.685-.516 5.28.019 1.985.665 3.559 2.134 4.583 4.275.421.881.425.899.227.899-.276 0-.841.207-1.177.431a2.602 2.602 0 0 0-1.098 1.567c-.118.461-.118 3.384 0 3.844.128.5.333.865.686 1.224.334.34.601.507 1.072.667l.267.091-.426.442a11.616 11.616 0 0 1-2.764 2.107c-.257.139-.475.244-.484.234a2.726 2.726 0 0 1-.087-.283c-.094-.346-.522-.981-.84-1.246-.607-.505-1.19-.716-1.977-.713-1.682.007-2.96 1.287-2.962 2.969-.002 1.144.645 2.192 1.644 2.663.492.232.808.303 1.344.305a2.785 2.785 0 0 0 2.048-.856c.193-.194.41-.456.481-.583.118-.211.178-.251.668-.458 2.275-.958 4.41-2.761 5.545-4.682.156-.263.405-.607.554-.765a2.93 2.93 0 0 0 .696-1.41c.041-.243.055-.902.041-1.957-.019-1.467-.029-1.615-.135-1.899-.135-.363-.265-.564-.578-.892-.189-.197-.267-.349-.441-.853-.676-1.958-1.611-3.484-2.894-4.721-1.03-.993-2.042-1.62-3.349-2.075-1.059-.369-1.677-.465-3.124-.487-.908-.013-1.42.003-1.763.055m-5.751 9.143c.12.055.276.18.346.279l.128.179v1.61c0 1.542-.004 1.615-.11 1.756-.229.308-.367.368-.85.368-.482 0-.62-.06-.85-.367-.104-.14-.11-.228-.125-1.719-.016-1.539-.013-1.576.102-1.782.224-.399.86-.55 1.359-.324m15.851.043c.075.056.186.168.247.249.104.14.11.228.125 1.695.015 1.482.011 1.558-.096 1.78-.158.327-.465.471-.935.442-.366-.024-.538-.113-.741-.384-.104-.139-.111-.231-.127-1.57-.009-.783-.002-1.526.017-1.652.041-.275.283-.575.525-.65.263-.081.825-.03.985.09m-7.537 8.341c.294.074.651.376.78.658.281.618-.058 1.409-.694 1.622-.412.138-.896.038-1.197-.248-.536-.509-.483-1.428.107-1.843.329-.23.621-.286 1.004-.189" fill="#A12577" fill-rule="evenodd"/></svg>