<svg xmlns="http://www.w3.org/2000/svg" viewBox="0 0 42 42"><path fill-rule="evenodd" d="M12.635 4.102c-3.683.652-6.844 3.141-8.61 6.783-2.003 4.127-1.807 8.477.573 12.739 2.31 4.14 6.832 8.458 12.622 12.054 1.935 1.201 3.27 1.874 3.891 1.959.73.1 2.64-.865 5.699-2.879 3.961-2.607 7.476-5.769 9.636-8.666 1.737-2.33 2.857-4.679 3.322-6.964.191-.94.262-3.143.133-4.112-.426-3.184-2.003-6.186-4.334-8.25-1.388-1.23-3.16-2.138-5.029-2.576-.898-.21-3.099-.262-4.092-.096a10.663 10.663 0 0 0-4.638 1.952l-.417.305-.658-.449c-1.327-.906-2.943-1.557-4.468-1.8-.884-.14-2.838-.141-3.63 0m3.076 3.885c.889.125 1.936.548 2.79 1.127.223.152.713.566 1.089.922.874.826 1.061.919 1.83.918.752-.002.863-.06 1.79-.942 1.427-1.357 2.66-1.954 4.331-2.095 2.418-.204 4.557.682 6.219 2.577 1.308 1.49 2.101 3.366 2.292 5.425.043.459.057.985.032 1.169l-.046.336-4.107.02c-4.506.023-4.379.011-4.78.45-.101.11-.647 1.067-1.214 2.126-.566 1.059-1.055 1.952-1.086 1.984-.065.069-.054.116-1.293-5.579-1.003-4.606-1.003-4.609-1.476-4.918-.602-.395-1.505-.149-1.837.5-.04.077-.567 1.511-1.17 3.185a185.923 185.923 0 0 1-1.148 3.133c-.031.055-.17-.207-.355-.665-.617-1.53-.814-1.888-1.146-2.083a1.416 1.416 0 0 0-1.296-.042c-.296.151-.431.338-1.029 1.423l-.415.753-3.536-.018-3.535-.018.008-1.19c.007-1.092.026-1.257.222-1.995.842-3.159 2.99-5.562 5.665-6.338 1.007-.291 1.953-.34 3.201-.165m7.393 18.412c.166.402.737.763 1.201.759.335-.002.78-.228.981-.498.096-.129.939-1.66 1.872-3.402l1.697-3.168h6.562l-.067.175c-.152.399-.772 1.583-1.138 2.174-1.547 2.492-4.373 5.34-7.717 7.775-1.546 1.126-3.363 2.299-4.741 3.061l-.472.261-.753-.435c-3.312-1.912-6.318-4.186-8.774-6.638-1.4-1.399-2.22-2.373-3.062-3.643-.481-.723-1.343-2.303-1.343-2.459 0-.034 1.633-.061 3.713-.061 3.552 0 3.724-.006 3.982-.138.148-.075.33-.22.404-.321l.134-.184.654 1.585c.55 1.332.693 1.617.897 1.786.28.23.77.375 1.049.309.334-.078.719-.329.862-.56.076-.123.529-1.305 1.006-2.628.478-1.322.906-2.498.951-2.614.075-.19.178.223 1.054 4.234.534 2.445 1.005 4.528 1.048 4.63"/></svg>
