<svg xmlns="http://www.w3.org/2000/svg" viewBox="0 0 22 18">
    <path fill="#A12577" fill-rule="evenodd" d="M6.417.461a14.9 14.9 0 0 1-.367.055C4.301.767 2.629 1.837 1.666 3.318a5.703 5.703 0 0 0-.64 1.335c-.245.737-.274.94-.274 1.91 0 .754.01.914.084 1.279.295 1.455.929 2.741 1.98 4.015.389.471 1.476 1.548 2.051 2.031.55.463 1.523 1.198 2.228 1.683 1.094.754 2.945 1.988 3.093 2.064.402.203.862.214 1.314.03.196-.08 2.43-1.564 3.55-2.358 2.675-1.899 4.312-3.621 5.219-5.493.517-1.065.734-1.965.765-3.159.022-.856-.04-1.335-.261-2.01-.804-2.453-3.276-4.199-5.954-4.204-.967-.002-1.743.367-2.699 1.282a16.414 16.414 0 0 0-1.161 1.281l-.094.124-.077-.13c-.116-.198-.91-1.073-1.259-1.389C8.944 1.077 8.38.726 7.828.55 7.621.483 7.469.465 7.04.456a7.928 7.928 0 0 0-.623.005m1.151 1.991c.435.215.916.642 1.64 1.458l.362.408-.502.875c-.653 1.14-.704 1.241-.742 1.48-.04.255.01.584.125.812.102.204 1.533 1.954 1.733 2.12.189.157.583.274.835.248.216-.023.475-.125.69-.274.171-.118 1.549-1.795 1.666-2.027.132-.263.178-.583.122-.853-.05-.248-.036-.219-.731-1.437-.265-.464-.482-.86-.482-.88-.001-.048.635-.768.99-1.12.349-.347.646-.576.953-.736l.238-.124.513.003c.414.002.592.021.919.097 1.691.393 2.969 1.567 3.381 3.104.083.312.094.423.095.976 0 .504-.015.694-.08.997-.243 1.131-.83 2.191-1.818 3.284-.948 1.048-2.023 1.959-3.67 3.112-.954.667-2.816 1.914-2.86 1.914-.049 0-2.599-1.711-3.41-2.288-1.221-.868-2.166-1.688-3.011-2.611-.842-.922-1.186-1.398-1.54-2.135-.527-1.099-.684-2.297-.433-3.308.205-.822.84-1.75 1.556-2.272a5.035 5.035 0 0 1 2.374-.924c.514-.057.825-.028 1.087.101m3.82 3.845c.15.268.272.504.272.525 0 .044-.739.951-.775.951-.043 0-.783-.929-.771-.969.016-.053.485-.907.531-.966.025-.032.108-.044.254-.037l.217.011.272.485"/>
</svg>
