<svg xmlns="http://www.w3.org/2000/svg" viewBox="0 0 22 19">
    <path fill="#A12577" fill-rule="evenodd" d="M10.446.524c-.383.162-.522.296-.83.801l-.215.354-.2-.166c-.48-.399-1.024-.698-1.489-.819C7.49.637 7.313.62 6.93.621a6.057 6.057 0 0 0-2.672.612C2.449 2.085 1.242 3.597.82 5.537c-.056.256-.068.469-.067 1.191.001.819.008.913.102 1.357.279 1.31.923 2.648 1.802 3.74.972 1.208 2.347 2.438 4.126 3.691.782.551 3.211 2.185 3.365 2.263.421.215.895.239 1.319.066.207-.084 1.857-1.172 3.31-2.182 1.568-1.091 2.752-2.087 3.711-3.123 1.319-1.423 2.146-2.977 2.457-4.614.069-.363.082-.556.082-1.271.001-.75-.008-.885-.083-1.222-.456-2.036-1.801-3.586-3.802-4.381-.969-.385-2.377-.548-3.104-.36-.454.118-.967.403-1.452.807l-.214.178-.237-.385c-.13-.211-.303-.442-.383-.513-.365-.319-.904-.425-1.306-.255M7.42 2.568c.248.093.554.29.876.563l.247.21-.2.373-.199.372-1.551.849c-.937.512-1.62.909-1.724 1.002a1.345 1.345 0 0 0-.293.398c-.108.219-.121.278-.121.558.001.265.016.343.102.518.192.394.328.49 1.995 1.419 1.36.758 1.543.87 1.61.99.042.074.43.769.861 1.544.862 1.546.943 1.657 1.354 1.851a.93.93 0 0 0 .516.112.91.91 0 0 0 .519-.12c.399-.196.505-.345 1.434-2.016l.838-1.507 1.505-.836c1.671-.929 1.819-1.035 2.016-1.434.106-.216.12-.278.118-.538-.002-.247-.019-.33-.108-.514-.195-.406-.334-.506-2.006-1.43l-1.524-.844-.197-.375-.196-.375.165-.148c.268-.239.784-.573.992-.643.346-.114 1.236-.026 1.891.187 1.481.484 2.615 1.653 2.948 3.041.192.796.097 1.876-.245 2.786-.578 1.539-1.968 3.147-4.12 4.766-1.089.82-3.863 2.71-3.978 2.711-.071.001-2.555-1.657-3.502-2.337-1.079-.775-1.959-1.532-2.74-2.357-.888-.938-1.353-1.57-1.709-2.325-.336-.713-.48-1.243-.534-1.964-.059-.779.055-1.425.361-2.052.525-1.076 1.465-1.869 2.695-2.271.711-.233 1.53-.304 1.904-.164m4.186 1.264c.358.645.7 1.244.759 1.33.141.206.274.289 1.642 1.016.635.337 1.166.624 1.18.637.013.013-.559.335-1.273.717-.949.507-1.337.734-1.444.843-.12.124-.809 1.355-1.474 2.634-.052.099-.061.083-.73-1.173-.445-.836-.73-1.33-.83-1.439-.125-.135-.392-.293-1.456-.862-.717-.383-1.292-.707-1.277-.72.014-.013.553-.3 1.199-.637.985-.514 1.206-.645 1.377-.812.179-.174.293-.365.899-1.498.523-.979.704-1.287.735-1.254.022.024.334.572.693 1.218"/>
</svg>
