<svg xmlns="http://www.w3.org/2000/svg" viewBox="0 0 22 18">
    <path fill="#A12577" fill-rule="evenodd" d="M6.532.499a6.768 6.768 0 0 0-4.957 3.285C.423 5.717.456 8.311 1.661 10.65c.467.907 1.075 1.723 1.95 2.618 1.082 1.107 1.946 1.779 4.712 3.669 1.538 1.052 1.723 1.141 2.402 1.167.459.018.757-.036 1.127-.204.334-.151 3.26-2.162 4.245-2.916 1.061-.813 2.15-1.841 2.764-2.609.723-.904 1.359-2.038 1.67-2.976.394-1.192.511-2.677.296-3.77-.54-2.74-2.882-4.816-5.812-5.151-1.502-.171-2.584.228-3.81 1.406l-.326.314-.374-.357C9.71 1.083 8.917.645 8.067.492 7.718.429 7.022.433 6.532.499m1.501 1.148c.15.038.354.105.455.149.507.219 1.233.836 1.901 1.614.181.212.348.397.37.412.11.075.2.018.464-.293.851-1.002 1.587-1.592 2.281-1.831.286-.098.333-.103.924-.101.496.002.697.019.981.082 1.142.251 2.109.771 2.886 1.55 1.119 1.12 1.653 2.563 1.54 4.16-.099 1.397-.647 2.75-1.661 4.099-.76 1.011-1.889 2.058-3.397 3.147-.686.496-3.025 2.096-3.233 2.212-.298.166-.869.194-1.216.059-.181-.07-3.015-2.022-3.801-2.618-1.561-1.183-2.617-2.25-3.415-3.453-.539-.811-.945-1.758-1.133-2.64-.113-.532-.141-1.56-.056-2.077.382-2.324 2.298-4.145 4.737-4.501.414-.06 1.08-.046 1.373.03M6.875 3.269c-.641.081-1.446.39-1.943.745-.749.534-1.249 1.246-1.472 2.096-.169.644-.124 1.483.121 2.264.451 1.436 1.731 2.975 3.697 4.447.455.341 3.428 2.384 3.52 2.419.057.022 2.634-1.723 3.461-2.343 2.311-1.732 3.546-3.306 3.951-5.032.053-.23.068-.428.065-.917-.002-.566-.011-.652-.101-.945a4.571 4.571 0 0 0-.23-.587c-.639-1.276-2.079-2.15-3.571-2.167-.359-.004-.401.004-.623.109-.326.155-.731.49-1.159.96l-.46.504-.102.11.493.878c.521.929.597 1.127.553 1.448-.049.361-.122.487-.739 1.269-.73.923-.816 1.015-1.057 1.122-.338.15-.84.084-1.099-.145-.159-.14-1.433-1.761-1.504-1.914-.061-.129-.077-.237-.077-.495-.001-.3.009-.348.112-.532l.509-.907.396-.705-.105-.138c-.23-.304-1.07-1.124-1.326-1.295-.423-.283-.674-.33-1.31-.249m3.768 2.973c-.02.026-.139.232-.265.459l-.228.413.231.266c.127.146.294.335.37.42l.139.155.331-.412c.181-.226.326-.429.32-.45a7.814 7.814 0 0 0-.248-.467l-.238-.429h-.188c-.107 0-.204.019-.224.045"/>
</svg>
