<svg width="32" height="32" xmlns="http://www.w3.org/2000/svg"><path d="M15.487 6.091c-.323.104-.676.43-.953.88-.147.238-.284.45-.304.47-.019.02-.181-.085-.359-.233-.634-.528-1.378-.88-2.026-.957-.525-.063-1.518.016-2.167.173-2.802.674-4.862 2.74-5.53 5.543-.171.718-.17 2.26.002 3.117.328 1.635 1.061 3.161 2.219 4.623.51.642 1.935 2.079 2.669 2.69.894.744 2.262 1.743 4.189 3.06 1.476 1.008 1.911 1.28 2.201 1.374.444.143.859.121 1.276-.07.155-.071 1.015-.63 1.909-1.242 3.251-2.223 4.332-3.066 5.707-4.449 2.047-2.059 3.153-4.059 3.527-6.377.104-.642.09-2.086-.026-2.64-.306-1.463-.905-2.577-1.953-3.63-1.173-1.178-2.609-1.893-4.281-2.132-.591-.085-1.562-.071-1.928.027-.448.12-1.063.455-1.52.827-.215.176-.408.31-.429.297-.02-.012-.161-.227-.314-.477-.292-.478-.472-.65-.864-.828-.261-.118-.754-.14-1.045-.046m-3.406 2.55c.299.157.899.604 1.041.775.061.073.038.148-.16.521l-.232.436-1.856 1.03c-1.582.877-1.891 1.069-2.098 1.299-.557.619-.52 1.515.086 2.106.119.116.962.629 2.005 1.219l1.8 1.019.99 1.81c.792 1.447 1.046 1.866 1.265 2.086.607.61 1.523.6 2.126-.023.128-.132.584-.901 1.211-2.045l1.006-1.834 1.758-.987c.967-.542 1.863-1.077 1.991-1.188.663-.574.714-1.545.116-2.207-.134-.148-.716-.507-2.024-1.246l-1.836-1.038-.232-.438c-.232-.437-.233-.437-.129-.553.174-.194.698-.578 1.015-.745.27-.142.349-.158.788-.156 2.547.01 4.827 1.855 5.205 4.211.183 1.143-.097 2.635-.723 3.846-.53 1.026-1.122 1.792-2.286 2.956-1.22 1.221-2.433 2.158-5.545 4.281l-1.33.908-.217-.148c-2.644-1.809-3.76-2.584-4.206-2.919-1.844-1.386-3.503-3.042-4.372-4.364-.956-1.455-1.383-3.139-1.155-4.56.377-2.351 2.633-4.184 5.178-4.208.474-.005.539.008.82.156m4.854 1.649c.41.746.818 1.43.907 1.52.089.09.853.539 1.698.997l1.536.834-1.511.818c-.834.451-1.6.902-1.709 1.006-.135.13-.441.655-.98 1.682-.431.821-.8 1.511-.819 1.533-.02.022-.403-.655-.853-1.505-.643-1.217-.864-1.589-1.04-1.747-.123-.111-.875-.549-1.672-.975-.797-.425-1.449-.789-1.45-.808-.001-.019.628-.367 1.398-.773 1.044-.551 1.461-.8 1.641-.979.183-.183.435-.611 1.061-1.801l.822-1.561.113.201.858 1.558" fill="#A12577" fill-rule="evenodd"/></svg>
