<svg xmlns="http://www.w3.org/2000/svg" viewBox="0 0 32 32">
    <path d="M9.894 4.619a8.389 8.389 0 0 0-3.046.882C4.452 6.695 2.833 8.84 2.384 11.412c-.12.689-.074 2.314.086 3.059.491 2.276 1.552 4.182 3.398 6.1 1.77 1.84 3.09 2.866 7.332 5.702 1.817 1.215 2.016 1.308 2.709 1.272.366-.019.521-.057.785-.188.357-.179 3.986-2.616 5.126-3.443 4.259-3.09 6.558-6.057 7.282-9.394.163-.752.206-2.568.079-3.3-.584-3.359-3.481-6.059-7.016-6.537-1.748-.237-2.688-.02-3.919.903-.485.364-1.762 1.643-2.206 2.209l-.268.341-.145-.213c-.079-.118-.408-.507-.73-.865-1.164-1.292-2.282-2.096-3.268-2.348-.428-.11-1.145-.147-1.735-.091m1.608 2.706c.401.201.56.33 1.235 1.004.426.425.892.915 1.036 1.088l.262.314-.701 1.226c-1 1.748-.932 1.592-.932 2.133 0 .316.032.548.097.715.06.154.507.744 1.183 1.563 1.305 1.581 1.401 1.655 2.158 1.655.41 0 .501-.019.742-.155.405-.226.477-.3 1.486-1.528 1.077-1.31 1.205-1.538 1.207-2.148.001-.488.009-.471-1.026-2.281l-.632-1.107.326-.378c.564-.655 1.431-1.51 1.793-1.768.682-.488 1.064-.573 2.028-.452 1.448.182 2.689.767 3.674 1.732 1.131 1.107 1.622 2.253 1.622 3.784 0 1.115-.2 1.969-.713 3.045-.929 1.952-2.792 3.919-5.772 6.095A232.38 232.38 0 0 1 16 24.989l-.142.092-2.225-1.502c-3.313-2.237-4.281-2.989-5.713-4.436-1.397-1.411-2.081-2.299-2.602-3.371-.529-1.092-.722-1.94-.717-3.149.004-.957.1-1.413.456-2.157a5.66 5.66 0 0 1 2.005-2.3c1.098-.715 2.176-1.048 3.45-1.064.518-.007.541-.002.99.223m4.966 5.042c.199.359.362.666.362.682 0 .058-.994 1.224-1.043 1.224-.039 0-.66-.721-1.005-1.167-.035-.045.069-.28.321-.728l.372-.663h.632l.361.652" fill="#A12577" fill-rule="evenodd"/>
</svg>
