<svg width="32" height="32" xmlns="http://www.w3.org/2000/svg"><path d="M9.723 4.096c-4.031.576-7.08 3.485-7.635 7.282-.099.676-.039 2.301.111 3.005.7 3.286 2.779 6.02 6.793 8.935.889.646 4.403 3.008 4.813 3.235.954.53 2.045.576 3.006.126.371-.173 3.853-2.49 5.052-3.36 4.017-2.918 6.087-5.641 6.794-8.936.17-.793.214-2.595.083-3.393-.265-1.611-1.042-3.095-2.257-4.307-1.359-1.356-2.945-2.172-4.938-2.538-.785-.145-2.19-.133-2.763.024-.917.25-1.859.816-2.815 1.69l-.46.421-.357-.321c-1.027-.924-2.063-1.547-2.968-1.784-.571-.149-1.714-.186-2.459-.079m2.103 1.517c.976.269 1.905.99 3.276 2.541.153.174.318.316.367.316.048 0 .348-.291.667-.646.9-1.002 1.624-1.605 2.364-1.966.555-.27.953-.358 1.628-.358 3.294.001 6.264 2.232 7.079 5.319.194.734.242 2.103.102 2.939-.356 2.126-1.435 4.046-3.353 5.963-.933.933-1.4 1.339-2.487 2.158-.762.574-4.783 3.296-5.143 3.482-.294.151-.956.202-1.358.106-.214-.051-.763-.392-2.398-1.489-2.816-1.888-3.792-2.617-5.017-3.745-2.127-1.959-3.412-4.003-3.878-6.172-.148-.686-.175-2.191-.051-2.813.549-2.759 2.807-4.988 5.65-5.577.709-.147.761-.153 1.507-.163.49-.006.727.018 1.045.105m-1.734 2.093c-2.66.383-4.589 2.405-4.592 4.813-.001 1.181.539 2.711 1.361 3.862.889 1.243 2.251 2.553 3.891 3.746.666.483 4.621 3.138 4.676 3.138.072 0 4.052-2.693 4.742-3.208 3.185-2.379 4.793-4.527 5.133-6.858.079-.539.039-1.361-.09-1.842-.565-2.11-2.737-3.676-5.111-3.683-.5-.001-.577.013-.852.156-.446.233-.959.667-1.602 1.354-.314.335-.578.633-.588.66-.009.028.271.551.624 1.163.683 1.187.788 1.469.718 1.932a1.928 1.928 0 0 1-.187.534c-.209.386-1.676 2.173-1.942 2.366a1.45 1.45 0 0 1-1.573.048c-.167-.103-1.703-1.919-2.026-2.394a1.767 1.767 0 0 1-.196-.494c-.112-.5-.029-.738.689-1.986.351-.608.638-1.132.638-1.163 0-.032-.365-.423-.811-.87-.789-.79-1.182-1.09-1.649-1.256-.231-.083-.753-.09-1.253-.018m4.785 4.372c-.181.32-.323.599-.315.619.037.094.913 1.055.95 1.041.046-.017.878-1.015.878-1.053 0-.013-.151-.286-.335-.607l-.334-.583h-.257l-.257.001-.33.582" fill="#A12577" fill-rule="evenodd"/></svg>
