<svg xmlns="http://www.w3.org/2000/svg" viewBox="0 0 22 16">
    <path fill-rule="evenodd" d="M9.87.683c-.332.051-1.061.226-1.26.302l-.098.038.263.79c.188.567.278.79.318.79.03 0 .156-.032.278-.07.191-.06.57-.136 1.032-.208.105-.016.116-.029.101-.117a22.651 22.651 0 0 1-.073-.705c-.078-.837-.086-.88-.158-.876a9.124 9.124 0 0 0-.403.056m2.377.003c0 .037-.18 1.439-.199 1.552-.016.091-.008.094.353.16.203.037.526.116.717.175.191.06.361.096.377.079.026-.027.317-.796.514-1.361l.068-.194-.099-.038c-.211-.08-.849-.252-1.205-.324-.394-.079-.526-.092-.526-.049m-5.94 1.422c-.252.17-.587.416-.745.546l-.286.238.554.625c.304.345.563.626.574.626.012 0 .147-.101.301-.224s.424-.317.599-.431c.222-.143.314-.223.301-.261a42.41 42.41 0 0 0-.835-1.43c-.003.001-.211.14-.463.311m9.018.551c-.247.394-.442.721-.434.728.008.007.138.095.289.197.151.102.424.31.605.462.249.208.34.266.37.233l.474-.539c.238-.272.474-.539.522-.592l.089-.097-.306-.261c-.289-.247-1.097-.847-1.14-.847-.011 0-.222.322-.469.716M11.44 3.733c0 .139-.011.527-.024.863l-.024.611.125.001c.232.002.611.114.905.266.106.055.165.068.183.041.321-.483.852-1.379.834-1.408-.035-.056-.471-.269-.778-.379a5.02 5.02 0 0 0-1.028-.225l-.193-.022v.252m-2.2.291-.335.22c-.92.605-1.61 1.748-1.747 2.897l-.031.266.149.003c.082.001.465.022.852.045l.703.043.024-.195a2.456 2.456 0 0 1 1.048-1.677l.256-.17-.087-.152c-.049-.084-.224-.42-.391-.748-.166-.328-.313-.595-.326-.594a.498.498 0 0 0-.115.062m-5.848.642c-.323.306-.592.569-.599.584-.006.014.248.3.565.633l.577.607.205-.192.616-.581.41-.387-.564-.602a12.24 12.24 0 0 0-.594-.61c-.016-.005-.294.242-.616.548m14.575.157c-.293.334-.532.623-.532.643 0 .04 1.185 1.097 1.23 1.097.037 0 1.098-1.198 1.098-1.24 0-.037-1.197-1.107-1.238-1.106-.015 0-.266.273-.558.606m-3.785 1.256c-.551.299-.718.406-.7.448.115.268.231.684.251.905l.026.268h1.688l-.021-.357a4.145 4.145 0 0 0-.343-1.373c-.074-.158-.144-.286-.156-.285-.012.001-.347.178-.745.394m-13.073.744-.376.369v1.262l.198.195.197.195.286-.298.285-.298.094.09.095.09.401-.376.401-.376-.581-.611c-.319-.337-.59-.611-.602-.611a5.64 5.64 0 0 0-.398.369m19.411.271c-.295.332-.537.619-.537.636 0 .017.164.174.363.348.322.281.369.31.412.258.043-.052.079-.025.311.228l.262.287.243-.213.243-.214-.004-.664-.003-.665-.342-.302c-.188-.167-.357-.303-.377-.303-.019 0-.277.272-.571.604M18.266 9.28l-.629.553.119.137c.924 1.065.995 1.138 1.052 1.09.628-.529 1.207-1.065 1.187-1.099a42.79 42.79 0 0 0-1.09-1.234c-.005 0-.293.249-.639.553m-9.989-.148-.725.366.061.118c.118.229.417.646.621.867.212.229.643.592.7.589.017-.001.24-.312.495-.69l.464-.688-.251-.228a2.842 2.842 0 0 1-.405-.465c-.085-.131-.172-.237-.195-.236-.022.001-.367.167-.765.367m-5.311.277-.57.611.332.316.612.583.279.267.574-.605c.316-.333.574-.618.574-.634 0-.028-1.155-1.12-1.205-1.138-.015-.006-.283.265-.596.6m10.268-.271c-.397.545-.999.875-1.742.953l-.406.044-.045.588c-.024.324-.054.7-.066.836l-.022.248h.347c.856 0 1.771-.298 2.437-.793.314-.233.76-.689.955-.974.094-.137.164-.256.155-.265a79.766 79.766 0 0 0-1.393-.829c-.044-.024-.095.02-.22.192m2.459 2.399c-.558.495-.87.749-1.302 1.061l-.106.076.326.529c.18.291.382.616.45.723l.123.194.246-.173a14 14 0 0 0 .482-.359c.358-.281 1.523-1.307 1.523-1.342 0-.022-1.09-1.293-1.098-1.28l-.644.571m-10.241.214-.571.607.319.304c.532.508.944.868.992.868.026 0 .922-1.134 1.007-1.275.022-.036-.015-.09-.128-.185a27.157 27.157 0 0 1-.575-.52 8.149 8.149 0 0 0-.444-.395c-.016-.006-.285.262-.6.596m3.042 1.366c-.245.483-.649 1.415-.624 1.439.094.087 1.048.414 1.541.527l.225.052.16-.83.16-.83-.422-.116a7.581 7.581 0 0 1-.693-.23 5.238 5.238 0 0 0-.283-.112.344.344 0 0 0-.064.1m4.101.271a7.355 7.355 0 0 1-.693.131l-.436.062.025.515c.013.284.034.66.047.836l.023.321h.132a8.415 8.415 0 0 0 1.054-.149c.343-.081.673-.184.672-.21-.002-.086-.502-1.562-.532-1.568a1.507 1.507 0 0 0-.292.062"/>
</svg>
