<svg width="32" height="32" xmlns="http://www.w3.org/2000/svg"><path d="M14.48 6.121c-.541.056-2.127.44-2.228.54-.037.036.625 2.012.702 2.093.018.019.225-.024.459-.095.235-.071.667-.172.96-.224l.534-.095-.017-.183a66.36 66.36 0 0 0-.238-2.048 1.369 1.369 0 0 0-.172.012m2.746.021c0 .01-.06.486-.133 1.058a45.765 45.765 0 0 0-.133 1.099c0 .032.222.102.493.154.271.052.704.161.961.242.257.08.478.129.491.107.052-.084.771-2.05.756-2.066-.142-.142-2.433-.701-2.435-.594M9.52 8.009c-.349.237-1.05.779-1.384 1.07l-.21.184.766.832.765.833.405-.334c.222-.184.573-.451.778-.594.205-.142.39-.272.411-.289.043-.036-1.08-1.882-1.159-1.904-.028-.008-.196.083-.372.202m11.818.824c-.332.517-.581.955-.555.974.464.32.635.447.95.703.206.167.419.354.475.417.056.062.12.113.142.113.023 0 .377-.369.788-.819l.748-.819-.25-.238c-.42-.401-1.555-1.271-1.658-1.271-.02 0-.308.423-.64.94m-5.092 1.901c-.019.418-.049.927-.065 1.133l-.03.373.451.087c.252.048.6.161.786.256.274.139.347.157.399.1.035-.038.319-.46.63-.937l.567-.867-.224-.141c-.559-.353-1.345-.608-2.26-.734l-.22-.03-.034.76m-3.095.07c-.948.571-1.79 1.554-2.222 2.594-.299.722-.516 1.802-.361 1.802.04.001.538.036 1.109.079.57.044 1.042.073 1.05.065.008-.008.053-.204.101-.437.17-.82.745-1.68 1.416-2.115.144-.093.263-.179.263-.19 0-.02-1.012-1.949-1.035-1.973-.006-.007-.15.072-.321.175m-7.734.883c-.43.415-.774.772-.766.793.009.021.356.393.773.826l.756.788.804-.766c.441-.422.803-.789.803-.817 0-.057-1.496-1.578-1.552-1.578-.021 0-.389.34-.818.754m19.436.077c-.64.7-.746.839-.689.908.037.044.414.396.838.782l.771.702.114-.139c.062-.076.389-.443.726-.815.338-.371.62-.695.629-.717.008-.023-.356-.381-.809-.795l-.823-.754-.757.828m-4.986 1.76c-.559.29-.956.527-.949.567.006.038.072.24.146.449.074.209.15.547.169.752l.034.373.433.034c.238.019.75.034 1.138.034h.705l-.028-.36a6.718 6.718 0 0 0-.247-1.426c-.129-.426-.352-.936-.405-.928-.02.003-.468.23-.996.505m8.361 1.338-.752.835.276.249c.741.67.723.658.81.585.049-.04.1-.048.126-.019l.34.377.298.328.323-.293.324-.293v-1.732l-.475-.436a7.778 7.778 0 0 0-.498-.436c-.011 0-.359.375-.772.835m-25.736-.341-.468.439.001.882.002.882.292.289.293.289.381-.414c.349-.379.388-.406.471-.33.083.075.131.044.58-.385l.49-.466-.787-.813-.787-.813-.468.44m9.496 3.016-.998.46.19.348c.105.192.318.519.474.728.285.38.993 1.06 1.104 1.06.053 0 1.238-1.562 1.306-1.722.017-.039-.068-.153-.194-.261a3.666 3.666 0 0 1-.716-.91c-.05-.095-.107-.171-.129-.169-.021.003-.488.212-1.037.466m13.247.311c-.446.401-.805.746-.797.768.03.076 1.442 1.624 1.482 1.624.056 0 1.653-1.429 1.653-1.479 0-.053-1.439-1.641-1.487-1.641-.022 0-.404.328-.851.728m-20.162.215c-.414.434-.753.804-.753.823 0 .051 1.544 1.541 1.597 1.541.024 0 .386-.361.805-.802l.761-.802-.789-.758a22.787 22.787 0 0 0-.828-.774c-.022-.008-.378.339-.793.772m13.474-.382a3.131 3.131 0 0 1-2.437 1.269c-.256.006-.429.033-.429.066-.001.03-.049.521-.108 1.091a78.718 78.718 0 0 0-.106 1.077c0 .024.258.042.573.042 1.442-.002 2.775-.565 3.824-1.616.379-.381.926-1.085.874-1.126-.01-.008-.258-.153-.551-.323l-.965-.563-.432-.253-.243.336m3.373 3.149c-.396.365-.964.859-1.262 1.097l-.542.435.617.925c.34.51.631.926.649.926.091 0 1.049-.783 1.879-1.534l.94-.852-.747-.834c-.411-.458-.762-.832-.781-.83-.018.002-.357.302-.753.667m-13.559.42-.784.818.491.473c.533.514 1.267 1.156 1.29 1.129.008-.009.32-.412.692-.895l.678-.877-.364-.321c-.2-.176-.556-.506-.791-.733l-.428-.412-.784.818m3.633 2.745-.46 1.011.273.118c.653.283 2.071.696 2.142.625.028-.028.398-2.001.398-2.122 0-.062-.092-.105-.329-.154a7.466 7.466 0 0 1-.84-.255 8.57 8.57 0 0 0-.618-.211c-.092-.02-.168.112-.566.988m5.686-.569a8.942 8.942 0 0 1-.933.189l-.347.04.006.201c.004.111.037.622.074 1.136l.068.934.299-.035c.75-.088 2.034-.386 2.155-.5.041-.039-.625-2.03-.698-2.086-.02-.016-.301.038-.624.121" fill-rule="evenodd" fill="#000"/></svg>
