<svg xmlns="http://www.w3.org/2000/svg" viewBox="0 0 42 42"><path fill="#A12577" fill-rule="evenodd" d="m33.705 6.721-1.75 1.675-8.47.02-8.47.021-.525.161c-1.662.509-2.921 1.746-3.491 3.431l-.181.536-.021 7.36-.021 7.36-1.101.03c-.905.024-1.174.056-1.515.181-1.208.442-2.109 1.344-2.534 2.534-.174.487-.19.626-.217 1.925-.035 1.592.038 2.109.401 2.869.253.532.831 1.183 1.358 1.533.205.136.621.335.925.443l.552.195 12.478.019 12.477.019V17.665l.774-.751c.845-.821 1.283-1.431 1.605-2.236.664-1.658.794-4.008.356-6.453-.14-.782-.778-3.187-.844-3.182-.02.001-.823.756-1.786 1.678m.494 4.619c-.059 1.483-.276 2.399-.721 3.045-.106.154-1.579 1.655-3.273 3.335-2.685 2.664-3.12 3.068-3.389 3.147-.269.08-.419.073-1.176-.055-.477-.081-.89-.169-.917-.195-.026-.027-.048-.369-.048-.76 0-.624.022-.753.175-1.043.129-.244 1.372-1.487 4.724-4.72l4.549-4.389.058.31c.032.171.04.767.018 1.325m-6.584 1.341a362.29 362.29 0 0 0-3.259 3.203c-1.148 1.151-1.328 1.362-1.553 1.826-.421.871-.493 1.271-.457 2.547l.031 1.112-1.448 1.325c-.862.789-1.494 1.423-1.563 1.568-.134.28-.151.738-.037.96.255.498.897.811 1.39.678.22-.059 1.487-1.128 3.34-2.818l.154-.14.844.149c1.389.245 2.094.177 2.998-.289.346-.178.719-.506 1.733-1.522l1.292-1.295V34.72h-.691l-.025-2.117c-.023-1.956-.036-2.153-.178-2.578-.295-.883-.94-1.673-1.782-2.185-.889-.539-.317-.502-8.193-.524l-7.054-.019.019-7.191.019-7.191.162-.402c.296-.732 1.082-1.436 1.828-1.637.243-.066 2.013-.088 7.355-.091l7.034-.005-1.959 1.901m-.477 17.246c.355.177.64.501.788.895.045.12.074.92.074 2.049v1.851l-9.572-.019-9.573-.018-.331-.194a1.5 1.5 0 0 1-.525-.525c-.187-.318-.195-.374-.218-1.451-.015-.675.007-1.262.055-1.477.108-.488.42-.888.86-1.108l.361-.18h17.726l.355.177"/></svg>
