<svg xmlns="http://www.w3.org/2000/svg" viewBox="0 0 19 17">
    <path fill-rule="evenodd" d="M10.755.162c.05.488.23.88.552 1.203.257.258.589.43 1.091.564a6.54 6.54 0 0 1 2.295 1.108c.307.229.873.776 1.118 1.079 1.389 1.72 1.816 4.026 1.128 6.097-.64 1.924-2.226 3.51-4.161 4.16-1.571.527-3.326.404-4.851-.342a6.426 6.426 0 0 1-2.734-2.526c-.317-.532-.475-.924-.772-1.91a1.952 1.952 0 0 0-.191-.435c-.06-.092-.102-.167-.093-.167.009 0 .329.187.71.416l.694.416.064-.075c.036-.042.099-.14.14-.218.299-.569.208-1.21-.233-1.648-.132-.131-.409-.312-1.11-.725l-.958-.563c-.013-.007-.476.258-1.03.588-.672.4-1.046.642-1.121.726a1.395 1.395 0 0 0-.176 1.66c.172.293.126.302.828-.147.38-.242.627-.381.635-.358.006.022.02.118.031.213.066.576.31 1.458.577 2.088a8.238 8.238 0 0 0 5.018 4.591c.809.26 1.384.353 2.307.374.968.022 1.696-.064 2.486-.293a8.595 8.595 0 0 0 2.885-1.504 11.24 11.24 0 0 0 1.215-1.215A8.349 8.349 0 0 0 18.76 9.8c.206-1.031.194-2.35-.032-3.37-.258-1.17-.839-2.381-1.61-3.358-.294-.373-1.043-1.098-1.443-1.396a7.257 7.257 0 0 0-1.335-.82 8.372 8.372 0 0 0-3.248-.843l-.355-.021.018.17M9.4 3.811c-.236.052-.386.16-.493.353l-.088.159-.009 2.848c-.007 2.537-.003 2.867.042 3.009.077.242.237.4.466.462.084.023.735.033 1.936.032 2.045-.003 2.049-.004 2.25-.227.276-.304.274-.927-.003-1.234-.192-.212-.252-.22-1.711-.22h-1.277V6.735c0-2.56.006-2.494-.233-2.734-.191-.19-.54-.266-.88-.19"/>
</svg>
