<svg width="32" height="32" xmlns="http://www.w3.org/2000/svg"><path d="M17.187 5.858c.065.72.594 1.458 1.289 1.796.208.101.617.246.911.323 3.122.815 5.505 3.202 6.21 6.218a7.973 7.973 0 0 1-.528 5.138c-.964 2.077-2.949 3.823-5.179 4.555-1.741.572-3.774.562-5.543-.027-.563-.188-1.521-.656-2.011-.983-1.762-1.177-2.931-2.779-3.506-4.802-.078-.276-.214-.62-.302-.763-.087-.143-.151-.268-.142-.277.009-.009.424.22.922.509 1.03.598.977.595 1.234.069.203-.416.23-.945.068-1.374-.202-.535-.486-.771-1.925-1.595l-1.262-.724-1.321.756c-1.342.767-1.637.988-1.832 1.369-.236.464-.223 1.145.032 1.613.258.475.209.479 1.133-.09.451-.277.825-.498.83-.49.005.008.074.349.153.758.92 4.735 4.927 8.196 9.915 8.563 4.448.327 8.663-2.029 10.607-5.929 1.96-3.932 1.165-8.598-2.003-11.752-1.891-1.882-4.485-3.05-7.012-3.156l-.768-.033.03.328m-1.952 4.501c-.279.074-.539.346-.614.645-.043.171-.061 1.305-.06 3.833.001 3.376.007 3.602.1 3.803.115.25.289.422.512.508.198.076 4.969.074 5.256-.002.225-.061.494-.33.577-.581.149-.445.026-1.113-.248-1.357-.25-.222-.441-.243-2.208-.246l-1.691-.002-.016-2.947c-.018-3.251-.01-3.175-.357-3.467-.287-.241-.774-.314-1.251-.187" fill-rule="evenodd" fill="#000"/></svg>
