<svg xmlns="http://www.w3.org/2000/svg" viewBox="0 0 16 20">
    <path fill="#A12577" fill-rule="evenodd" d="M6.547 2.109 3.694 4.366l-.558.443.195.182a1.698 1.698 0 0 0 1.909.277c.14-.068.597-.419 1.807-1.386a84.543 84.543 0 0 1 1.641-1.295c.049 0 3.319 3.312 3.52 3.565a7.563 7.563 0 0 1 1.442 3.035c.155.705.147.46.156 4.7l.009 3.9H2.295l-.008-3.994L2.28 9.8l-.063-.187c-.157-.469-.455-.824-.858-1.023-.208-.102-.534-.19-.708-.19H.587v9.871l.067.201c.152.451.48.779.946.946l.173.062H7.84c5.78 0 6.075-.002 6.24-.048a1.966 1.966 0 0 0 1.392-1.367l.061-.212v-3.88c0-3.87 0-3.881-.06-4.313-.263-1.912-.954-3.479-2.15-4.873C13.157 4.593 8.878.292 8.854.295c-.008 0-1.046.817-2.307 1.814"/>
</svg>
