<svg width="32" height="32" xmlns="http://www.w3.org/2000/svg"><path d="M14.152 6.151a4528.927 4528.927 0 0 1-3.808 2.821l-.92.679.208.193c.695.643 1.819.786 2.687.343.116-.059 1.162-.818 2.327-1.688 1.164-.869 2.145-1.583 2.18-1.586.089-.009 4.014 3.655 4.552 4.249a9.306 9.306 0 0 1 2.153 4.19c.115.507.117.586.135 5.515l.018 5H8.32l-.001-4.734c-.001-2.863-.022-4.88-.054-5.106-.134-.939-.783-1.612-1.751-1.817a4.965 4.965 0 0 0-.421-.076c-.053 0-.066 1.271-.066 6.184v6.185l.115.308c.156.418.596.858 1.032 1.034l.319.128 8.096.014c8.941.016 8.458.033 9.124-.321a2.57 2.57 0 0 0 1.056-1.09l.178-.363.016-4.96c.014-4.38.006-5.034-.072-5.6a11.146 11.146 0 0 0-2.849-6.021c-.245-.266-5.957-5.636-5.986-5.628-.009.003-1.316.969-2.904 2.147" fill="#A12577" fill-rule="evenodd"/></svg>
