<svg xmlns="http://www.w3.org/2000/svg" viewBox="0 0 18 20">
    <path fill="#A12577" fill-rule="evenodd" d="M1.936 1.173c-.39.058-.611.319-.639.756-.026.398.111.688.395.84.118.063.161.066 1.094.075.897.008.969.013.953.06-.217.657-.238.872-.221 2.234.016 1.221.032 1.346.265 2.047.3.902.658 1.403 1.425 1.995.096.074.211.189.256.255.344.503.398 1.517.117 2.206-.213.525-.478.829-1.075 1.234-.983.666-1.519 1.468-1.833 2.74-.152.621-.22 1.499-.144 1.89.025.132.055.263.066.291.019.047-.051.052-.95.06-.901.008-.979.013-1.09.069l-.12.06-.008.638-.008.637h17.062l.057-.127c.045-.1.057-.196.057-.457 0-.378-.051-.519-.238-.662-.198-.15-.308-.164-1.312-.164-.509 0-.925-.006-.925-.013 0-.007.022-.105.048-.218.056-.236.061-1.003.011-1.419-.102-.829-.385-1.633-.795-2.251-.217-.328-.689-.787-1.079-1.051-.548-.37-.85-.725-1.064-1.251-.276-.677-.264-1.523.03-2.107.103-.205.165-.271.452-.487.269-.202.601-.544.769-.792.342-.504.634-1.295.726-1.971.019-.137.032-.784.031-1.56 0-1.307-.006-1.412-.104-1.797l-.022-.083h.885c1.012 0 1.111-.016 1.309-.214.164-.164.225-.378.206-.721-.013-.227-.029-.288-.103-.408a.726.726 0 0 0-.396-.314c-.086-.029-1.587-.038-7.009-.042-3.831-.002-6.98.008-7.079.022m10.142 1.764a.889.889 0 0 1 .389.381c.055.111.058.192.058 1.512l-.001 1.395-.083.27c-.191.616-.399.933-.827 1.257-.313.237-.505.433-.672.686-.399.603-.6 1.344-.595 2.194.006.794.14 1.355.487 2.03a4.21 4.21 0 0 0 1.422 1.587c.431.294.523.381.73.69.296.443.458.985.514 1.729.045.579.006.751-.215.963-.211.202.102.189-4.42.189s-4.208.013-4.421-.189a.808.808 0 0 1-.243-.576c-.001-.422.097-1 .245-1.447.189-.575.503-.973 1.056-1.341.915-.611 1.435-1.28 1.758-2.264.168-.51.221-.921.2-1.533-.042-1.23-.493-2.166-1.312-2.722-.433-.295-.743-.86-.884-1.616-.071-.375-.051-2.301.025-2.502.108-.283.429-.607.696-.702.101-.036.591-.044 3.045-.045 2.791-.002 2.931.001 3.048.054m-3.483 10.32a1.178 1.178 0 0 0-.411.202c-.139.107-1.689 2.053-1.766 2.216a.735.735 0 0 0 .003.573c.124.255.425.462.823.566.266.069 3.217.069 3.482-.001.57-.148.899-.64.722-1.078-.027-.066-.437-.606-.911-1.2-.855-1.071-.864-1.081-1.067-1.184-.187-.095-.231-.105-.495-.111a2.099 2.099 0 0 0-.38.017"/>
</svg>
