<svg xmlns="http://www.w3.org/2000/svg" viewBox="0 0 42 42">
  <path fill="#a12577" fill-rule="evenodd" d="M12.064 7.103c-2.4.44-4.24 2.146-4.871 4.517l-.158.595v17.57l.156.595c.085.327.319.921.518 1.32.753 1.503 2.144 2.617 3.876 3.106l.56.158 8.638.02c7.515.017 8.72.006 9.262-.088 1.309-.226 2.374-.808 3.334-1.822.666-.704 1.064-1.34 1.367-2.188l.219-.611v-18.55l-.219-.611c-.544-1.523-1.58-2.701-3.001-3.415a8.5 8.5 0 0 0-1.26-.507l-.56-.156-8.68-.013c-6.906-.01-8.782.007-9.181.08m17.823 2.456c1.202.274 2.306 1.362 2.626 2.589.093.358.107 1.493.107 8.793 0 5.849-.023 8.494-.077 8.753-.275 1.319-1.502 2.546-2.785 2.786-.24.044-3.429.069-8.785.066-7.714-.004-8.446-.014-8.869-.124-.858-.224-1.685-.872-2.191-1.716-.48-.802-.463-.446-.463-9.706s-.017-8.904.463-9.706c.506-.844 1.333-1.492 2.191-1.716.423-.11 1.155-.12 8.882-.124 7.385-.004 8.48.009 8.901.105m-3.725 4.237c-.701.165-1.445.781-1.748 1.446-.121.264-.153.47-.155.998-.004.591.019.714.199 1.105.258.559.797 1.066 1.355 1.277.56.211 1.356.171 1.916-.096.485-.232.988-.757 1.237-1.291.157-.336.186-.495.185-.996-.002-.519-.03-.654-.219-1.05-.338-.707-.799-1.119-1.496-1.336a2.3 2.3 0 0 0-1.274-.057m-7.577 3.905a2 2 0 0 0-.36.297c-.273.303-5.689 10.397-5.736 10.691-.025.152-.009.385.035.516.101.308.473.668.78.756.353.101 16.323.092 16.691-.009.368-.102.756-.514.871-.924.076-.27.074-.367-.016-.621-.058-.166-.767-1.452-1.575-2.857-1.715-2.983-1.708-2.975-2.5-2.975-.723 0-.857.124-1.729 1.61-.385.655-.72 1.211-.745 1.237s-.912-1.53-1.971-3.458-2.01-3.641-2.114-3.806c-.339-.54-1.137-.764-1.631-.457"/>
</svg>
