<svg width="24" height="24" viewBox="0 0 24 24" xmlns="http://www.w3.org/2000/svg">
<g clip-path="url(#clip0_7859_97013)">
<path d="M21.3713 6.22755V5.46109C21.3713 5.02311 20.7999 4.74937 20.457 5.07785L14.1713 10.3336C13.3142 11.1001 11.9999 11.1001 11.1427 10.3884L6.22845 6.17281C5.8856 5.89907 5.37131 5.95382 5.02845 6.2823C4.74274 6.61079 4.74274 7.10352 5.14274 7.432L10.057 11.5928C10.7999 12.2498 11.7142 12.5235 12.6856 12.5235C13.657 12.5235 14.6285 12.195 15.3713 11.4833L21.3713 6.22755Z" fill="#A12577"/>
<path d="M12.7428 20.5714H6.28564C4.05707 20.5714 2.28564 18.8742 2.28564 16.7391V6.17279C2.28564 4.03763 4.11422 2.28571 6.34279 2.28571H17.9999C17.9999 3.21642 17.2571 3.92813 16.2856 3.92813H6.34279C5.08564 3.92813 3.99993 4.96834 3.99993 6.17279V16.7391C3.99993 17.9435 5.0285 18.929 6.28564 18.929H12.6856C16.5142 18.929 19.6571 15.9179 19.6571 12.2498V6.994C19.6571 6.06329 20.3999 5.35157 21.3714 5.35157V12.3045C21.3714 16.8486 17.4856 20.5714 12.7428 20.5714Z" fill="#A12577"/>
</g>
<defs>
<clipPath id="clip0_7859_97013">
<rect width="19.0857" height="18.2857" fill="white" transform="translate(2.28564 2.28571)"/>
</clipPath>
</defs>
</svg>
