<svg width="32" height="32" xmlns="http://www.w3.org/2000/svg"><path d="M8.223 4.096c-1.963.362-3.497 1.783-4.06 3.758l-.12.423-.016 7.536c-.01 5.177.003 7.655.044 7.919a6.16 6.16 0 0 0 .62 1.788c.318.567 1.232 1.481 1.799 1.799a6.28 6.28 0 0 0 1.76.618c.488.078 9.276.078 9.998 0 2.094-.228 4.125-1.071 5.719-2.374a10.928 10.928 0 0 0 3.97-7.35c.088-.871.077-10.17-.012-10.346-.155-.307-.604-.472-.88-.324-.065.035-1.935 1.65-4.155 3.589-2.219 1.939-4.168 3.616-4.331 3.727-.89.606-2.175.616-3.077.023-.151-.099-1.68-1.441-3.398-2.98-1.719-1.54-3.203-2.843-3.3-2.896-.246-.135-.713-.126-1.015.021-.479.231-.688.824-.468 1.322.092.207.587.668 3.153 2.937 3.559 3.148 3.672 3.244 4.098 3.502 1.602.967 4.053.817 5.468-.334.218-.178 5.084-4.603 5.627-5.118l.209-.199-.021 3.548c-.023 3.974-.018 3.919-.462 5.225-.995 2.932-3.508 5.133-6.603 5.785-.585.124-.65.125-5.316.142-3.325.013-4.812-.001-5.02-.044-1.041-.216-2.001-1.174-2.216-2.211-.042-.203-.056-2.5-.045-7.687l.015-7.397.123-.328a3.44 3.44 0 0 1 .729-1.13 3.44 3.44 0 0 1 1.13-.729l.328-.123 6.792-.029c4.726-.02 6.843-.047 6.959-.089.55-.199.976-.537 1.203-.955.16-.294.306-.758.307-.976l.001-.124-7.576.005c-5.942.004-7.66.02-7.961.076" fill="#A12577" fill-rule="evenodd"/></svg>
