<svg xmlns="http://www.w3.org/2000/svg" viewBox="0 0 32 32" xml:space="preserve"><path d="M15.093 4.833c-1.613.148-2.963.518-4.349 1.192-2.422 1.177-4.288 3.03-5.489 5.451A12.085 12.085 0 0 0 4 16.8c0 3.519 1.608 6.972 4.277 9.186 1.494 1.239 3.342 2.147 5.179 2.543 3.615.78 7.387-.155 10.267-2.543 2.786-2.311 4.399-5.939 4.26-9.586-.038-.98-.132-1.66-.354-2.541-.936-3.721-3.703-6.836-7.333-8.255-.669-.262-1.761-.549-2.536-.668-.547-.084-2.188-.147-2.667-.103m1.467 4.626c.323.15.538.436.609.811.089.467-.039.973-.306 1.215-.249.225-.904.318-1.355.193-.576-.16-.937-.93-.727-1.55.107-.313.264-.482.6-.641.417-.197.798-.206 1.179-.028m-.107 3.628c.323.152.463.297.624.647L17.2 14v8.114l-.161.316c-.484.949-1.754.949-2.238 0l-.161-.316V14l.123-.266c.067-.146.175-.323.24-.394.185-.201.615-.379.917-.379.169 0 .364.046.533.126" fill="#08B9FF" fill-rule="evenodd"/></svg>