<svg width="32" height="32" xmlns="http://www.w3.org/2000/svg"><path d="M13.94 2.1c-2.907.076-5.558.3-6.385.539-2.015.584-3.62 2.098-4.263 4.021-.266.797-.52 3.125-.636 5.835-.085 1.986-.03 7.288.089 8.698.275 3.238.408 3.978.889 4.952.655 1.328 1.933 2.501 3.302 3.031.739.287 1.143.373 2.386.513 2.129.238 2.59.254 7.14.257 4.628.002 4.869-.007 7.423-.285 1.441-.157 2.347-.45 3.278-1.059 1.169-.765 2.117-2.009 2.558-3.361.547-1.672.847-6.552.714-11.593-.033-1.257-.099-2.669-.145-3.136-.314-3.158-.452-3.827-.996-4.835-.862-1.598-2.636-2.873-4.417-3.174-.994-.168-3.507-.333-6.177-.406-2.174-.06-2.341-.059-4.76.003m10.817 4.98c.26.133.61.511.73.789.136.316.119.889-.035 1.209-.352.727-1.267 1.039-1.981.674-.481-.245-.862-.873-.86-1.418.001-.418.394-1.016.813-1.233.404-.211.944-.22 1.333-.021m-7.022 1.848c1.873.303 3.678 1.469 4.735 3.057a6.999 6.999 0 0 1 1.216 4.023 6.977 6.977 0 0 1-.761 3.242 7.204 7.204 0 0 1-5.03 3.837c-.511.105-2.076.122-2.652.03-.547-.088-1.481-.417-2.096-.739-1.803-.943-3.066-2.557-3.638-4.651-.116-.424-.129-.598-.129-1.719 0-1.369.048-1.659.43-2.625.917-2.316 2.992-4.025 5.405-4.452.615-.109 1.858-.111 2.52-.003m-1.84 2.24c-1.066.089-2.393.802-3.108 1.669-.86 1.043-1.229 2.174-1.146 3.519.046.752.144 1.119.481 1.806 1.284 2.614 4.525 3.529 7.01 1.98 1.042-.649 1.904-1.86 2.15-3.022.111-.526.106-1.798-.01-2.27-.205-.834-.736-1.736-1.39-2.358a4.459 4.459 0 0 0-1.371-.932c-.767-.357-1.584-.479-2.616-.392" fill="#fff" fill-rule="evenodd"/></svg>
