<svg xmlns="http://www.w3.org/2000/svg" viewBox="0 0 32 32" xml:space="preserve"><path d="M11.896 4.058c-.13.026-.414.131-.631.234a2.66 2.66 0 0 0-1.504 2.361l-.001.334h2.933c2.759 0 2.934.005 2.931.093-.001.051-.716 4.053-1.587 8.893l-1.585 8.8-2.186.028c-2.085.026-2.2.033-2.498.144-1.07.402-1.704 1.265-1.822 2.482l-.034.36h7.361c5.134 0 7.447-.018 7.644-.059.432-.089 1.014-.39 1.355-.701a2.933 2.933 0 0 0 .958-1.902l.037-.325H20.22c-2.16 0-3.047-.017-3.047-.058 0-.205 2.904-16.626 3.027-17.118l.153-.611 2.184-.029c2.365-.033 2.347-.03 2.966-.354.858-.448 1.533-1.515 1.536-2.43l.001-.2-7.453.006c-4.1.003-7.56.027-7.691.052" fill="#A12577" fill-rule="evenodd"/></svg>