<svg width="32" height="32" xmlns="http://www.w3.org/2000/svg"><path d="M12.613 4.032c-.058.012-.238.049-.4.08-1.277.253-2.504 1.291-3.016 2.551-.15.37-.29 1.115-.29 1.545v.3l-.36.169c-1.68.788-2.953 2.408-3.388 4.31-.105.457-.111.674-.132 4.533-.023 4.225.005 5.042.194 5.76.624 2.361 2.449 4.069 4.912 4.596.422.091.834.097 5.867.097s5.445-.006 5.867-.097c2.463-.527 4.288-2.235 4.912-4.596.19-.719.217-1.533.193-5.76-.019-3.42-.036-4.112-.106-4.431-.435-1.966-1.646-3.54-3.384-4.398l-.393-.194-.018-.635c-.02-.766-.079-1.023-.379-1.649a3.983 3.983 0 0 0-2.422-2.061c-.401-.121-.426-.121-3.977-.132-1.965-.005-3.621 0-3.68.012m7.142 2.348c.31.106.799.552.912.833l.081.2h-9.392l.064-.12a1.964 1.964 0 0 1 1.002-.875l.298-.122 3.39-.001c2.991-.002 3.421.009 3.645.085m1.978 4.035c1.314.383 2.389 1.408 2.808 2.678.121.367.123.423.14 3l.018 2.627h-.24c-.207 0-.707-.23-3.643-1.673-1.872-.921-3.521-1.714-3.665-1.763-.589-.2-1.294-.217-1.977-.047-.189.047-1.779.79-3.87 1.808-2.959 1.441-3.587 1.728-3.776 1.728h-.227l.018-2.653c.017-2.606.019-2.66.14-3.027.38-1.15 1.352-2.162 2.461-2.562.633-.228.688-.23 6.213-.219 4.852.009 5.306.017 5.6.103m-1.858 8.693c1.882.926 3.542 1.721 3.69 1.764.147.044.461.097.698.118l.43.037v.582c0 .323-.037.764-.084.991-.303 1.467-1.561 2.713-3.059 3.031-.517.109-10.583.109-11.1 0-1.498-.318-2.756-1.564-3.059-3.031a5.954 5.954 0 0 1-.084-.971v-.562l.253-.001c.636-.003.867-.098 4.54-1.884a585.262 585.262 0 0 1 3.633-1.76c.044-.018.224-.025.4-.016.299.015.55.129 3.742 1.702" fill-rule="evenodd" fill="#000"/></svg>
