<svg xmlns="http://www.w3.org/2000/svg" xml:space="preserve" viewBox="0 0 32 32"><path fill-rule="evenodd" d="M6.132 6.927c-.814.26-1.492.81-1.833 1.488-.385.765-.371.575-.392 5.283-.013 3.043-.002 4.252.041 4.303.078.095.887.385 1.357.487.206.044.663.084 1.015.089.576.007.664-.005.88-.117.326-.17.569-.408.738-.727l.142-.266.016-2.041.016-2.041 1.344.014 1.344.014v2c0 2.215-.018 2.362-.357 2.895-.618.97-2.172 1.412-4.455 1.266-.738-.047-1.608-.157-1.975-.249l-.12-.03v5.985l2.334-.001c2.644-.001 2.796-.017 3.524-.376.746-.368 1.326-1.042 1.619-1.881.128-.365.124-.128.165-11.782l.015-4.413-2.562.003c-2.298.002-2.592.012-2.856.097m8.401.001c-1.059.309-1.782.986-2.143 2.007l-.15.425-.016 2.879-.016 2.879.206-.319c.426-.658 1.092-1.097 2.036-1.343 1.02-.266 2.889-.208 4.243.131l.374.093.015.651.015.65-.409-.189a4.835 4.835 0 0 0-2.048-.466c-.453-.002-.684.021-.886.09-.607.209-.968.554-1.203 1.15-.171.433-.17 1.441.002 1.883a1.85 1.85 0 0 0 1.246 1.141c.744.217 1.942.059 2.859-.377a6.52 6.52 0 0 1 .414-.186c.012 0 .021.287.021.638v.638l-.201.054c-.307.082-.982.201-1.692.298-1.226.167-2.691-.033-3.653-.5-.471-.229-.984-.703-1.19-1.102l-.139-.266-.002 3.749-.003 3.749 2.467-.016 2.467-.017.438-.148c.607-.204 1.177-.597 1.514-1.041.337-.445.556-.906.627-1.316.036-.206.066-3.012.086-7.84.016-4.136.044-7.646.063-7.8l.033-.28-2.527.003c-2.243.004-2.564.015-2.848.098m8.454-.001c-1.103.357-1.863 1.136-2.168 2.22-.075.266-.094.65-.112 2.278l-.023 1.958 2.791.015c3.104.017 3.054.012 3.574.389.873.634.641 2.146-.376 2.445l-.233.069.353.095c.775.21 1.207.718 1.207 1.422 0 .618-.411 1.186-1.043 1.441l-.317.128-2.92.016-2.92.015v5.755h2.365c2.179 0 2.397-.008 2.776-.105a3.236 3.236 0 0 0 2.113-1.655l.239-.453.014-8.067.014-8.066-2.52.003c-2.268.002-2.55.012-2.814.097m-.054 8.001c0 .724.003.741.12.769.066.015.504.043.974.062.805.033.863.028 1.03-.077.457-.288.422-1.085-.062-1.383-.166-.103-.259-.112-1.121-.112h-.941v.741m0 2.779v.8l1-.001c.904 0 1.017-.01 1.174-.106.503-.307.51-1.034.013-1.373-.167-.114-.226-.12-1.181-.12h-1.006v.8"/></svg>
