<svg xmlns="http://www.w3.org/2000/svg" viewBox="0 0 32 32" xml:space="preserve"><path d="M12.737 4.057a5.237 5.237 0 0 0-3.966 2.95 5.156 5.156 0 0 0-.438 1.583l-.04.397-2.093.014-2.093.014v8.158h4.209l.017 3.4c.017 3.363.019 3.405.139 3.8.169.558.533 1.3.825 1.685.594.785 1.502 1.467 2.369 1.78.894.324.995.33 5.307.308 3.792-.019 3.922-.023 4.424-.137 1.646-.372 2.826-1.023 4.019-2.219 1.321-1.324 2.103-2.805 2.545-4.823.11-.502.113-.647.131-6.389.018-5.623.014-5.897-.084-6.374a5.04 5.04 0 0 0-1.362-2.596c-.824-.853-1.869-1.395-2.99-1.551-.492-.068-10.453-.068-10.919 0m10.835 2.401c.972.223 1.866 1.137 2.075 2.118.042.197.06 1.72.06 5.045v4.763l-.76.031c-.933.037-1.571.189-2.263.537-1.924.966-3.119 3.108-3.248 5.821-.015.323-.04.69-.055.816l-.028.23-3.183-.018c-3.131-.016-3.189-.019-3.538-.136-.842-.283-1.488-.924-1.816-1.803-.116-.31-.119-.365-.137-3.555l-.019-3.24h14.673V9.014L18.014 9l-7.32-.013.018-.211c.07-.818.626-1.642 1.378-2.043.636-.339.393-.326 6.07-.328 3.369-.002 5.257.017 5.412.053M8.481 9.264c.182.124.211.176.212.379 0 .208-.121.464-.242.511-.282.108-.787-.078-.846-.311-.039-.156.088-.503.22-.603.127-.096.502-.082.656.024m.082 1.478c.1.073.104.172.119 2.494.014 2.115.005 2.445-.07 2.642-.222.58-.917.791-1.702.514-.308-.109-.403-.216-.403-.452 0-.259.096-.313.559-.313.303 0 .371-.019.483-.131l.131-.131v-2.111c0-2.228.016-2.392.248-2.527.142-.082.514-.073.635.015m11.091.045c.093.08.149.193.169.34l.029.221.201-.201c.265-.265.657-.396 1.174-.393.455.002.714.106.997.402.314.326.344.503.337 1.987-.006 1.445-.034 1.609-.299 1.73-.271.123-.645.027-.688-.175-.013-.061-.033-.639-.046-1.285-.03-1.612-.089-1.76-.703-1.76-.398 0-.58.105-.745.43-.094.186-.11.35-.134 1.41-.019.807-.05 1.239-.094 1.318a.564.564 0 0 1-.849.154l-.15-.129-.015-1.855c-.011-1.333.002-1.898.047-2.007a.499.499 0 0 1 .769-.187m-7.467.119c.57.254.808.592.663.942-.068.164-.23.259-.44.259-.076 0-.229-.124-.437-.351-.276-.303-.351-.355-.547-.381-.26-.033-.638.088-.788.254-.075.082-.083.131-.04.226.074.162.313.268.922.411.619.144.861.246 1.203.506.366.278.466.489.442.93-.017.3-.048.392-.203.608-.23.319-.414.433-.872.539-.814.189-1.645.069-2.162-.31-.301-.221-.328-.27-.328-.6 0-.309.072-.437.299-.531.233-.098.325-.051.57.291.232.322.68.594.977.594.253 0 .538-.138.676-.327.092-.125.095-.157.031-.291-.101-.207-.31-.315-.928-.479-.836-.221-1.503-.664-1.604-1.064-.1-.399.102-.929.445-1.167.285-.199.537-.243 1.241-.22.466.015.613.042.88.161m4.47-.043c.594.165 1.067.775 1.239 1.595.084.401.088.512.032.842-.07.413-.276.896-.526 1.234-.427.579-1.599.799-2.408.451-.299-.129-.684-.505-.85-.831-.606-1.189-.161-2.914.837-3.245.607-.202 1.071-.215 1.676-.046m-1.103.575a1.23 1.23 0 0 0-.36.221c-.315.302-.47 1.06-.315 1.544.112.351.378.774.554.882.201.122.666.136.876.026.679-.354.92-1.596.44-2.26-.166-.228-.627-.493-.853-.489a1.41 1.41 0 0 0-.342.076m9.83 9.73a6.586 6.586 0 0 1-3.042 3.955 5.152 5.152 0 0 1-.497.262c-.138.052-.138.051-.138-.219 0-.15.037-.523.082-.829.354-2.383 1.398-3.515 3.261-3.533l.437-.004-.103.368" fill="#A12577" fill-rule="evenodd"/></svg>