<svg xmlns="http://www.w3.org/2000/svg" viewBox="0 0 42 42">
  <path fill="#a12577" fill-rule="evenodd" d="M20.771 5.6a1.06 1.06 0 0 0-.447.217c-.342.316-.374.497-.377 2.178l-.004 1.56-2.09 3.675-2.09 3.675-2.194.035c-2.306.037-2.327.04-2.646.381-.136.145-.177.274-.196.619-.029.505.112.8.49 1.03.21.128.355.139 1.828.14 1.252 0 1.592.019 1.565.088-.02.048-.383.733-.808 1.522l-.773 1.435-3.312.035c-3.152.033-3.323.042-3.55.175-.334.197-.507.457-.548.827-.053.465.175.904.567 1.094.285.137.416.144 2.874.144 2.257 0 2.57.013 2.535.105-.022.057-1.277 2.333-2.787 5.057s-2.793 5.079-2.848 5.233c-.194.537.039 1.235.494 1.484.211.115.503.128 3.368.146 1.948.013 3.285-.007 3.527-.052.876-.162 1.619-.705 1.949-1.424.091-.201.244-.742.338-1.204.206-1.008.38-1.494.734-2.04.481-.745 1.238-1.296 2.238-1.632 1.365-.457 4.204-.475 5.682-.034.884.263 1.833.909 2.277 1.552.352.507.647 1.309.804 2.189.177.983.334 1.328.833 1.826.334.335.576.508.881.63l.42.169h3.325c3.13 0 3.341-.008 3.594-.133.578-.288.837-1.097.553-1.729-.076-.17-1.448-2.513-3.049-5.208l-2.911-4.9 2.429-.035c2.268-.033 2.445-.044 2.666-.175.349-.206.513-.548.479-1-.03-.394-.167-.639-.498-.886-.187-.14-.288-.145-3.321-.165l-3.128-.022-.839-1.47a67 67 0 0 1-.863-1.536c-.014-.04.534-.066 1.39-.066 1.305 0 1.434-.011 1.675-.147.355-.199.513-.49.513-.941 0-.428-.189-.793-.491-.947-.15-.078-.675-.108-2.326-.135l-2.132-.035-2.186-3.659-2.186-3.659-.022-1.626c-.02-1.486-.034-1.647-.164-1.869-.238-.404-.707-.59-1.242-.492m1.838 8.96 1.379 2.398c.017.028-1.229.052-2.769.052H18.42l.982-1.767 1.368-2.457c.212-.379.409-.662.437-.63s.66 1.114 1.402 2.404m3.621 6.09.859 1.505-2.905.018c-1.597.01-4.211.01-5.809 0l-2.904-.018.776-1.365c.428-.751.822-1.436.877-1.523l.1-.158 4.073.018 4.073.018zm5.141 8.68 2.917 4.9-2.182-.001c-1.199-.001-2.223-.028-2.274-.06s-.168-.415-.26-.849c-.466-2.202-1.276-3.545-2.727-4.527-.832-.562-1.64-.885-2.886-1.152-.978-.21-3.177-.263-4.273-.102-3.575.526-5.633 2.453-6.285 5.886-.069.363-.166.667-.229.718-.082.065-.645.087-2.265.087-1.187 0-2.157-.016-2.157-.036 0-.03 4.811-8.623 5.301-9.466l.172-.298h7.116l7.116.001z"/>
</svg>
