<svg xmlns="http://www.w3.org/2000/svg" viewBox="0 0 42 42">
  <path fill-rule="evenodd" d="M20.435 3.118c-.498.154-.797.525-1.634 2.029l-.764 1.372-1.417 12.158c-.78 6.687-1.454 12.324-1.499 12.527-.222 1.006-1.053 2.067-1.975 2.521-.249.122-1.269.502-2.267.845l-1.814.622-.019 2.004-.018 2.004h23.664l-.018-1.932-.019-1.932-1.785-.716c-.982-.394-1.944-.798-2.139-.898-.949-.485-1.721-1.456-1.998-2.513-.077-.293-.612-5.151-1.4-12.709L24.059 6.266l-.894-1.338c-.491-.736-1.008-1.433-1.148-1.548q-.661-.546-1.582-.262m1.16 3.022.546.821 1.243 11.937c.684 6.565 1.264 12.063 1.29 12.217.073.43.376 1.349.574 1.745.376.748 1.147 1.661 1.842 2.179.374.279 1.318.732 2.538 1.217l1.102.439v.545H10.99v-.615l.753-.263c1.565-.547 2.093-.753 2.467-.961 1.548-.863 2.631-2.431 2.934-4.251.042-.25.693-5.76 1.447-12.244l1.371-11.788.502-.898c.275-.493.52-.898.543-.899.023 0 .287.368.588.819"/>
</svg>
