<svg xmlns="http://www.w3.org/2000/svg" viewBox="0 0 24 24"><path d="M20.241 2.445a5.994 5.994 0 0 0-2.033.591c-.563.286-1.305.925-1.643 1.417a4.718 4.718 0 0 0-.804 2.027c-.026.166-.041 2.641-.041 6.846 0 6.34.003 6.596.075 6.829.106.338.239.549.513.81.51.487.703.526 2.472.505 1.503-.018 1.594-.03 2.12-.289a2.958 2.958 0 0 0 1.501-1.845c.077-.302.079-.479.079-8.622V2.4l-.93.006c-.512.003-1.1.02-1.309.039m.559 9.028c0 8.247.026 7.556-.303 7.921a1.28 1.28 0 0 1-.386.29c-.204.092-.25.096-1.378.109-.811.009-1.192 0-1.251-.032l-.084-.045.012-6.568c.014-7.331-.011-6.707.293-7.328.478-.977 1.643-1.681 2.807-1.696l.29-.004v7.353m-7.78-6.907c-.649.072-1.522.401-2.093.789-1.116.758-1.923 1.983-2.144 3.253-.03.174-.066.329-.08.343-.014.014-.799-.035-1.744-.108-1.867-.145-2.111-.142-2.687.036-.275.085-.667.305-.845.474-.179.169-.458.614-.566.9-.201.535-.25.953-.602 5.207-.379 4.575-.387 4.769-.206 5.145.203.423.539.728.968.879.495.174 2.677.261 3.396.135.761-.132 1.288-.533 1.472-1.118.021-.066.205-2.002.41-4.301l.372-4.18.005 3.76c.004 2.256.022 3.87.045 4.036.11.761.717 1.377 1.484 1.506.173.029.736.039 1.62.029 1.278-.015 1.371-.021 1.635-.107.457-.149.769-.345 1.142-.72.386-.388.585-.724.729-1.232l.088-.312.012-7.23.011-7.23-1.051.005c-.578.003-1.195.022-1.371.041m.698 7.944c-.001 5.103-.012 6.338-.054 6.457-.08.225-.276.445-.511.575l-.213.118h-2.52V8.9l.094-.299c.443-1.412 1.634-2.34 3.076-2.396l.13-.005-.002 6.31M6.22 10.473l.84.067.011.1c.021.191-.789 9.254-.831 9.296-.067.067-1.072.079-1.89.024-.721-.049-.75-.054-.75-.136 0-.321.692-8.383.739-8.614.106-.519.244-.7.586-.767.243-.048.341-.045 1.295.03" fill-rule="evenodd"/></svg>