<svg width="32" height="32" xmlns="http://www.w3.org/2000/svg"><path d="M26.62 3.227c-1.343.215-2.24.548-3.159 1.172a6.094 6.094 0 0 0-2.432 3.383c-.237.823-.237.825-.238 10.068-.001 9.468-.012 9.09.273 9.647.292.574 1.018 1.132 1.64 1.262.473.099 3.495.08 4.015-.025 1.425-.288 2.655-1.559 2.921-3.018.042-.227.06-3.694.06-11.426V3.19l-1.471.007c-.809.005-1.533.018-1.609.03m.812 12.242-.014 10.023-.12.22c-.16.297-.487.603-.788.739-.23.104-.358.112-1.823.113-1.386.001-1.579-.009-1.609-.086-.018-.048-.033-3.984-.033-8.747 0-9.46-.013-9.06.313-9.838.259-.617.788-1.246 1.406-1.669.653-.448 1.624-.766 2.365-.775l.317-.004-.014 10.024M16.786 6.165c-1.958.411-3.642 1.777-4.545 3.686-.271.573-.494 1.285-.555 1.773-.026.207-.069.331-.123.352-.046.017-.94-.037-1.987-.122-1.047-.084-2.176-.151-2.509-.149-1.099.009-1.86.299-2.456.936-.523.559-.832 1.321-.977 2.412-.122.913-.947 11.504-.925 11.869.052.867.653 1.639 1.499 1.926.532.181 3.344.327 4.151.216.802-.111 1.41-.385 1.789-.806.459-.511.426-.285.939-6.313.254-2.98.468-5.467.475-5.527.008-.061.027 2.265.042 5.169l.029 5.28.176.372a2.41 2.41 0 0 0 1.585 1.332c.457.119 3.612.12 4.179.002 1.006-.211 1.984-.973 2.437-1.899.459-.937.419.071.437-10.875l.016-9.749-1.583.004c-1.348.003-1.658.02-2.094.111m1.391 10.637v8.526l-.128.26c-.155.315-.555.68-.827.756-.113.031-.89.056-1.781.056H13.86l.001-7.136c.001-6.047.013-7.195.081-7.522.302-1.446 1.457-2.774 2.828-3.25.356-.124 1.035-.24 1.297-.222.11.007.11.047.11 8.532m-9.763-2.786 1.072.091-.017.248c-.084 1.207-1.053 12.392-1.077 12.416-.016.017-.297.053-.622.08-.438.037-.879.028-1.689-.037-.604-.048-1.108-.098-1.121-.111-.042-.042.875-11.259.956-11.682.087-.462.262-.862.411-.942.329-.176.654-.186 2.087-.063" fill-rule="evenodd" fill="#000"/></svg>
