<svg width="32" height="32" xmlns="http://www.w3.org/2000/svg"><path d="m4.735 5.26-.225.255v1.05l.234.208c.128.114.971.762 1.872 1.439C8.184 9.391 8.473 9.57 8.809 9.57c.211 0 .614-.289.805-.578.306-.461.298-.826-.024-1.183-.103-.114-.962-.792-1.907-1.506l-1.72-1.298H4.959l-.224.255m22.545.533c-.257.093-.339.152-2.11 1.518-.84.648-1.611 1.275-1.712 1.394-.251.293-.29.554-.136.912.162.378.568.753.868.804.181.03.286.011.517-.097.272-.128 3.124-2.287 3.577-2.708l.206-.192v-.512c0-.509-.001-.514-.198-.744-.315-.367-.669-.499-1.012-.375m-11.88.475c-.6.129-.901.232-1.519.523-.673.316-1.108.619-1.688 1.179-.759.731-1.248 1.435-1.647 2.37-.618 1.448-.768 3.223-.371 4.4.057.17.684 1.386 1.394 2.702 1.134 2.106 1.296 2.436 1.346 2.755.116.744.487 1.439 1.132 2.117.505.531.902.757 1.49.849.567.088 2.508.031 2.87-.084.36-.115.797-.44 1.133-.845.359-.431.784-1.311.89-1.841.072-.358.289-.832 1.371-3.003.99-1.985 1.308-2.672 1.379-2.985.307-1.345.07-2.987-.638-4.413-.881-1.774-2.343-3.042-4.139-3.588-.857-.26-2.15-.319-3.003-.136m2.024 2.124c1.483.305 2.73 1.398 3.348 2.938.212.528.286.845.339 1.452.085.984.114.904-1.39 3.938-1.11 2.24-1.355 2.776-1.382 3.025a2.531 2.531 0 0 1-.441 1.084l-.139.181h-1.991l-.198-.209c-.3-.317-.477-.7-.552-1.193-.064-.422-.125-.547-1.396-2.912-.731-1.359-1.364-2.559-1.407-2.667-.104-.267-.096-1.397.015-1.908.361-1.661 1.546-3.069 3.013-3.579.72-.25 1.449-.3 2.181-.15m-7.729 9.677c-.147.043-.82.508-1.897 1.31-1.809 1.347-1.999 1.508-2.118 1.791-.254.604.555 1.606 1.176 1.457.286-.069.464-.19 2.221-1.508 1.547-1.162 1.757-1.338 1.867-1.564.181-.374.094-.73-.283-1.159-.29-.331-.599-.435-.966-.327m13.13.86c-.228.064-.574.381-.715.654-.241.466-.181.817.201 1.173.116.108.954.741 1.861 1.407 1.772 1.3 1.987 1.419 2.377 1.313.414-.112.896-.755.896-1.196 0-.16-.179-.5-.338-.644-.203-.182-3.227-2.385-3.508-2.555-.303-.183-.517-.226-.774-.152m-8.283 5.257c.065.557.391 1.119.759 1.311.216.113 3.171.114 3.388.001.379-.198.723-.885.725-1.449l.001-.179h-4.91l.037.316m.858 2.313c0 .529.413 1.256.806 1.421.123.051.419.075.927.075.8 0 1.004-.047 1.22-.282.194-.211.399-.718.437-1.084l.036-.339H15.4v.209" fill-rule="evenodd" fill="#000"/></svg>
