<svg width="32" height="32" xmlns="http://www.w3.org/2000/svg"><path d="M16.087 4.051c-3.245.262-5.883 2.517-6.711 5.739-.334 1.297-.317 2.855.04 3.706.065.155.767 1.457 1.559 2.894 1.274 2.309 1.445 2.65 1.48 2.933.077.632.34 1.214.858 1.903.555.736 1.211 1.193 1.891 1.319.422.078 2.553.078 2.977 0 .715-.131 1.475-.74 1.954-1.567.352-.607.599-1.276.6-1.626 0-.082.611-1.326 1.402-2.855.771-1.491 1.45-2.839 1.508-2.995.189-.503.28-1.091.28-1.798a7.682 7.682 0 0 0-2.159-5.358c-1.021-1.068-2.144-1.736-3.498-2.083-.476-.122-1.567-.262-1.85-.239l-.331.027m1.843 2.357c1.389.446 2.464 1.348 3.176 2.667.563 1.042.812 2.461.594 3.382-.053.224-.551 1.242-1.547 3.163-1.397 2.692-1.473 2.855-1.538 3.278-.077.497-.276.955-.561 1.288l-.188.219h-2.358l-.233-.215c-.385-.356-.583-.744-.694-1.361-.054-.298-.143-.628-.198-.734-.054-.106-.736-1.343-1.513-2.75-.778-1.407-1.441-2.644-1.474-2.75-.108-.349-.13-.789-.068-1.389.237-2.309 1.706-4.161 3.798-4.79.627-.188.681-.194 1.566-.175.659.014.838.039 1.238.167m-3.706 2.417c-.429.154-.859.71-.859 1.109 0 .325.208.601 1.076 1.423l.811.769-.83.798c-.899.865-1.056 1.073-1.057 1.392 0 .601.785 1.292 1.302 1.144.299-.085.406-.17 1.275-1.002l.856-.819.277.262.855.817c.75.722.98.843 1.391.733.415-.112.919-.713.919-1.096 0-.35-.158-.566-1.028-1.404l-.858-.827.833-.792c.525-.499.873-.876.943-1.019.198-.41.122-.736-.267-1.146-.258-.272-.462-.376-.744-.381-.334-.005-.54.128-1.242.804-.349.335-.735.703-.857.818l-.223.208-.863-.824c-1.07-1.021-1.26-1.129-1.71-.967m-.069 14.906c.076.648.441 1.293.843 1.492.189.094.371.106 1.887.121 1.44.013 1.71.003 1.91-.073.456-.175.799-.756.873-1.481l.037-.36H14.12l.035.301m.988 2.663c.048.454.223.887.477 1.176.347.393.458.425 1.493.424.829-.001.916-.01 1.115-.124.392-.223.688-.8.776-1.511l.036-.289h-3.931l.034.324" fill-rule="evenodd" fill="#000"/></svg>
