<svg xmlns="http://www.w3.org/2000/svg" viewBox="0 0 20 20">
    <path fill-rule="evenodd" d="m1.037.619-.17.186v.831l.141.132c.21.197 2.684 2.02 2.859 2.107.18.09.466.098.619.017.157-.083.373-.323.472-.524.106-.214.118-.461.031-.626-.109-.207-.185-.266-2.438-1.924L2.028.433h-.821l-.17.186M18.8.998a1.48 1.48 0 0 0-.197.084c-.113.058-2.215 1.63-2.643 1.975-.241.195-.393.438-.393.627 0 .171.092.389.248.588.288.367.666.453 1.021.233.263-.164 2.724-2.036 2.796-2.128.06-.076.068-.134.068-.496V1.47l-.187-.201c-.147-.159-.222-.212-.356-.252-.185-.055-.231-.057-.357-.019m-8.65.293a5.214 5.214 0 0 0-1.017.161c-.959.242-1.757.721-2.482 1.489a5.543 5.543 0 0 0-1.416 2.836c-.163.966-.107 1.763.167 2.373.049.11.526.993 1.059 1.962.844 1.537.971 1.786.991 1.95.087.715.64 1.608 1.258 2.034.484.332.781.386 2.007.361 1.015-.02 1.136-.051 1.601-.401.495-.372.968-1.191 1.085-1.879.033-.195.169-.482.98-2.06.519-1.009.968-1.894.999-1.967.289-.685.33-1.672.111-2.633-.31-1.358-1.169-2.612-2.31-3.372a5.103 5.103 0 0 0-3.033-.854m.867 1.759c1.472.307 2.592 1.527 2.871 3.129.063.363.047.959-.033 1.188-.029.082-.516 1.052-1.082 2.155l-1.03 2.005-.016.246c-.018.281-.15.592-.35.825l-.116.135H9.707l-.178-.193c-.264-.286-.35-.467-.41-.866a2.194 2.194 0 0 0-.106-.449c-.031-.06-.51-.935-1.065-1.945-.555-1.01-1.024-1.895-1.042-1.967-.094-.368-.067-1.012.064-1.53.31-1.224 1.223-2.236 2.36-2.617.162-.054.375-.112.474-.128.29-.049.956-.042 1.213.012m-6.086 7.415a1.04 1.04 0 0 0-.166.069c-.145.076-2.675 1.946-2.793 2.063-.164.164-.251.379-.226.558.042.31.296.662.575.799.233.114.448.096.693-.056.304-.189 2.632-1.912 2.758-2.042.314-.321.287-.723-.074-1.134-.216-.245-.496-.339-.767-.257m10.213.718c-.272.137-.524.492-.565.795-.025.181.062.395.23.562.165.165 2.611 1.92 2.859 2.052.344.182.611.132.898-.166.195-.202.301-.433.301-.653 0-.216-.061-.355-.226-.515-.166-.162-2.685-1.972-2.871-2.063-.228-.112-.421-.116-.626-.012m-6.401 3.975c.034.406.21.754.502.989l.128.103 1.238.01c.682.005 1.274.001 1.316-.01.117-.029.369-.278.456-.45.101-.198.177-.474.19-.683l.01-.167-1.93-.009-1.929-.008.019.225m.671 1.841c.048.425.261.839.526 1.023l.137.095.659.01c.605.009.67.005.79-.056.314-.161.572-.662.574-1.113V16.8H9.391l.023.199"/>
</svg>
