<svg width="32" height="32" xmlns="http://www.w3.org/2000/svg"><path d="M14.655 3.968c-1.89.251-3.436.715-5.022 1.509-2.589 1.296-4.494 3.129-5.584 5.375-.992 2.045-1.225 4.125-.703 6.265.761 3.114 3.084 5.776 6.429 7.367 1.378.655 2.366.972 4.132 1.328 1.108.223 1.546.389 1.74.661.106.15.123.247.121.719-.002.301-.057.929-.122 1.396-.135.957-.115 1.148.132 1.268.48.233 2.004-.521 4.764-2.359 5.434-3.618 8.386-6.626 9.429-9.608.285-.814.394-1.325.461-2.165.108-1.338-.025-2.437-.447-3.699-.927-2.773-3.092-5.092-6.147-6.585-1.945-.95-3.806-1.43-5.924-1.53-1.623-.075-2.346-.063-3.259.058m-5.647 8.155c.038.071.059.958.059 2.493V17h1.353c1.19 0 1.362.011 1.431.094.054.066.077.26.075.658-.002.493-.016.574-.113.645-.093.068-.443.079-2.104.065-1.096-.009-2.014-.038-2.04-.064-.058-.058-.064-6.146-.007-6.286.036-.085.124-.099.664-.099.558 0 .629.012.682.11m5.147-.042c.098.098.098 6.226 0 6.324-.101.102-1.125.092-1.267-.012-.106-.078-.11-.177-.11-3.136 0-2.507.014-3.073.078-3.15.063-.076.187-.094.655-.094.373 0 .6.024.644.068m3.787 1.764 1.353 1.832.036-.316c.02-.174.041-.877.047-1.563.006-.685.028-1.361.049-1.501l.038-.255h1.303l.046.623c.025.343.036 1.766.026 3.163-.017 2.144-.033 2.547-.103 2.591-.045.029-.337.053-.649.053l-.566.001-1.378-1.848c-.758-1.016-1.395-1.83-1.417-1.808-.021.021-.051.828-.067 1.793-.024 1.475-.042 1.763-.113 1.811-.124.082-1.168.041-1.258-.05-.059-.058-.074-.698-.074-3.116 0-1.674.018-3.088.041-3.143.035-.086.125-.099.687-.099h.646l1.353 1.832m8.187-1.676c.082.212.044 1.121-.051 1.216-.055.055-.414.078-1.437.091l-1.364.018.035.174c.019.095.035.32.035.501v.327l1.355.02c.745.01 1.377.04 1.403.066.025.026.055.294.065.595.027.822.126.769-1.501.803l-1.351.028v.964l1.377.028c1.14.023 1.385.043 1.43.113.087.139.068 1.094-.025 1.222-.077.105-.167.11-2.094.11-1.555 0-2.03-.016-2.086-.072-.056-.057-.072-.732-.072-3.145 0-1.69.02-3.105.045-3.144.034-.054.518-.071 2.11-.071h2.066l.06.156" fill="#fff" fill-rule="evenodd"/></svg>
