<svg xmlns="http://www.w3.org/2000/svg" xml:space="preserve" viewBox="0 0 32 32"><path fill-rule="evenodd" d="M5.887 4.45c-.225.098-.324.243-1.092 1.603-.631 1.12-.662 1.188-.662 1.476 0 .224.029.343.112.454.175.236.439.39.67.39h.205v8.96c0 5.938.018 8.96.053 8.96.03 0 .054.048.054.107 0 .106.035.107 9.432.107h9.433l.029.322c.051.561.423.889.95.839.202-.02.465-.157 1.453-.758.663-.404 1.237-.772 1.274-.817.041-.05.069-.228.068-.444 0-.566-.106-.68-1.359-1.448-1.556-.953-1.675-.998-2.103-.788-.302.147-.46.401-.496.797l-.029.323h-.892v-5.037c0-3.472-.019-5.125-.059-5.32-.186-.893-.897-1.699-1.786-2.025-.28-.103-.45-.118-1.529-.138L18.4 11.99v12.437h-.693l-.001-3.614c0-2.162-.022-3.752-.054-3.96-.116-.75-.663-1.546-1.344-1.959-.497-.301-.976-.387-2.157-.387H13.12v9.92h-.32v-2.604c0-1.652-.021-2.719-.058-2.92-.182-.987-.947-1.853-1.911-2.164-.301-.097-.52-.117-1.538-.139l-1.186-.026v7.746h-1.12V8.373h.445c.375 0 .474-.019.626-.121.277-.187.422-.439.422-.736 0-.233-.064-.36-.765-1.52-.786-1.3-.925-1.492-1.143-1.575-.18-.068-.492-.055-.685.029m14.785 9.358c.261.119.425.332.498.651.034.148.055 1.919.055 4.834l.002 4.6H20V13.707l.227.001c.124 0 .325.046.445.1m-5.243 2.706c.119.084.272.258.34.388l.124.235V24H14.72v-7.694l.246.028c.15.017.331.087.463.18m-5.042 2.083c.428.346.411.23.429 2.91l.016 2.386H9.6v-5.506l.294.024c.225.019.34.062.493.186"/></svg>
