<svg xmlns="http://www.w3.org/2000/svg" xml:space="preserve" viewBox="0 0 32 32"><path fill-rule="evenodd" d="M5.6 4.597c-.148.1-.337.4-.917 1.458-.402.732-.746 1.408-.765 1.502-.095.462.375 1.03.854 1.03h.135v9.146c0 6.063.018 9.147.053 9.147.029 0 .053.048.053.107 0 .106.036.106 9.44.106h9.44l.001.227c.001.666.414 1.153.928 1.094.305-.035 2.772-1.531 2.917-1.769.195-.319.104-.827-.199-1.107-.254-.235-2.631-1.644-2.785-1.651-.406-.016-.601.064-.854.352-.144.165-.168.232-.168.483v.291H6.773V8.587h.402c.46 0 .678-.076.903-.315.132-.141.16-.219.176-.5l.02-.332-.795-1.358c-.437-.747-.859-1.405-.936-1.463-.09-.067-.253-.113-.449-.127-.257-.018-.338-.001-.494.105m17.398 3.648a.873.873 0 0 0-.27.229c-.076.111-1.635 4.871-2.898 8.848-.114.36-.23.641-.257.625-.027-.017-.703-.883-1.504-1.924l-1.456-1.894-.099.122c-.055.067-1.025 1.414-2.155 2.992l-2.056 2.87-.112-.174c-.061-.097-.7-1.124-1.42-2.284l-1.309-2.108-.287-.147c-.345-.176-.481-.182-.788-.034a.87.87 0 0 0-.507.765c-.003.23.122.454 2.098 3.737 1.156 1.92 2.114 3.491 2.129 3.49.014-.001 1.07-1.405 2.346-3.119 1.276-1.715 2.332-3.119 2.347-3.119.015 0 .843 1.019 1.84 2.264.997 1.244 1.825 2.264 1.84 2.266.046.006 3.908-12.331 3.931-12.557.029-.278-.161-.654-.4-.791-.248-.143-.787-.173-1.013-.057"/></svg>
