<svg width="32" height="32" xmlns="http://www.w3.org/2000/svg"><path d="M5.338 2.946c-.89.193-1.774.888-2.206 1.736-.303.594-.405 1.496-.246 2.173.417 1.769 2.234 2.908 3.936 2.467 1.507-.391 2.524-1.686 2.527-3.219.002-.889-.323-1.638-.985-2.27-.871-.832-1.896-1.132-3.026-.887m16.909 8.61c-.759.108-1.819.538-2.549 1.033a5.725 5.725 0 0 0-1.377 1.352l-.307.438-.039-.218c-.021-.12-.04-.683-.042-1.25l-.003-1.031h-5.445v18.26h5.65l.032-5.019c.019-3.097.054-5.18.091-5.439.254-1.816.926-2.738 2.261-3.107.54-.148 1.673-.134 2.114.027.9.329 1.443 1.006 1.719 2.145.077.319.092 1.073.119 5.866l.032 5.5 2.848.014 2.849.014-.019-6.119c-.018-5.506-.029-6.177-.116-6.697-.333-2.007-.823-3.186-1.709-4.118-.857-.899-2.184-1.505-3.633-1.658-.595-.063-2.017-.059-2.476.007m-19.032.393c-.014.038-.019 4.14-.012 9.116l.014 9.048 2.847.014 2.846.014V11.88H6.076c-2.217 0-2.84.015-2.861.069" fill="#fff" fill-rule="evenodd"/></svg>
