<svg xmlns="http://www.w3.org/2000/svg" xml:space="preserve" viewBox="0 0 32 32"><path fill-rule="evenodd" d="M7.124 4.062c-.752.144-1.513.705-1.865 1.374-.372.708-.351.135-.352 9.481 0 5.918.017 8.522.058 8.72.198.955.905 1.712 1.915 2.049.274.091.608.099 5.115.115l4.821.017.379.351c.933.866 2.158 1.469 3.469 1.71.669.123 2.088.118 2.668-.009 1.443-.315 2.623-.93 3.571-1.862 1.211-1.189 1.894-2.622 2.052-4.304.168-1.779-.723-3.993-2.177-5.409l-.271-.264-.001-4.669c0-2.94-.02-4.797-.055-5.015-.176-1.112-1.139-2.088-2.261-2.29-.407-.073-16.681-.068-17.066.005m16.925 2.111c.371.19.378.233.378 2.406v1.94l-.147-.043c-.215-.064-16.752-.089-16.933-.026l-.147.051V8.432c0-2.271-.016-2.158.321-2.292.085-.034 3.026-.054 8.239-.057 7.617-.003 8.118.003 8.289.09m-.048 6.601a.601.601 0 0 1 .221.2c.057.104.208 1.672.165 1.715-.009.009-.154-.03-.322-.085-.912-.302-2.504-.374-3.515-.159-1.074.229-2.084.672-2.856 1.253-.393.296-1.12 1.016-1.295 1.283l-.091.139h-9.1l-.111-.141c-.107-.136-.11-.199-.11-1.976 0-1.533.013-1.861.08-1.991.174-.336-.419-.314 8.576-.317 7.214-.001 8.221.008 8.358.079m-1.074 3.762a5.593 5.593 0 0 1 1.589.695c.141.097.422.333.623.526a4.622 4.622 0 0 1 1.295 2.121c.196.652.208 1.685.027 2.361a4.845 4.845 0 0 1-2.541 3.067c-.61.3-1.184.448-1.897.49-1.421.082-2.636-.375-3.627-1.366-.576-.576-.937-1.172-1.196-1.977-.197-.608-.245-1.626-.109-2.297.4-1.977 2.052-3.47 4.129-3.73.479-.061 1.167-.016 1.707.11M20.8 18.131a4.687 4.687 0 0 0-1.387.518c-.415.227-.962.661-1.162.922a.693.693 0 0 0 .561 1.122c.214 0 .299-.05.822-.487 1.059-.885 2.686-1.048 3.929-.394.196.103.532.331.746.506.463.379.645.43.988.278.377-.167.516-.556.328-.919-.101-.195-.76-.726-1.221-.984a6.199 6.199 0 0 0-1.622-.591c-.535-.103-1.426-.09-1.982.029m-5.621 1.056c-.148.481-.205.892-.23 1.677-.033 1.022.047 1.626.3 2.256l.15.373-3.887.014c-4.273.015-4.168.022-4.337-.304-.075-.144-.084-.398-.07-1.972.014-1.72.02-1.812.122-1.925a.721.721 0 0 1 .213-.162c.059-.024 1.83-.045 3.937-.047 3.624-.003 3.829.001 3.802.09m6.314.97c-.649.198-1.063.712-1.065 1.325-.002.363.109.621.388.909.298.307.579.444.975.476a1.43 1.43 0 0 0 1.15-.4c.593-.554.59-1.413-.006-1.949-.386-.347-.992-.499-1.442-.361"/></svg>
