<svg width="32" height="32" xmlns="http://www.w3.org/2000/svg"><path d="M5.358 7.097c-.369.107-.574.451-.574.964 0 .471.127.724.444.886l.235.12h10.915c11.915 0 11.153.02 11.404-.299.252-.322.279-.971.054-1.335a.834.834 0 0 0-.338-.291c-.21-.096-.601-.1-11.098-.096-6.11.002-10.951.024-11.042.051m2.402 4.121a3.598 3.598 0 0 0-.4.165c-.231.117-2.71 2.621-2.966 2.997-.242.354-.345.702-.346 1.17-.001.788.199 1.066 2.173 3.017.957.945 1.09 1.058 1.379 1.164a2.22 2.22 0 0 0 1.44 0c.295-.108.424-.22 1.627-1.416l1.307-1.299 7.253-.015 7.253-.014.221-.119c.591-.316.603-1.463.019-1.8-.184-.107-.27-.108-7.174-.122l-6.987-.014-.127-.276c-.096-.21-.45-.61-1.483-1.678-1.253-1.296-1.387-1.418-1.754-1.599-.335-.166-.463-.2-.81-.214-.246-.011-.498.011-.625.053m1.666 3.142c.594.593 1.08 1.103 1.078 1.133-.001.029-.492.558-1.091 1.174l-1.089 1.12-1.082-1.115c-.595-.612-1.091-1.136-1.101-1.164-.018-.046 2.114-2.228 2.177-2.228.015 0 .514.486 1.108 1.08m-4.198 8.693c-.318.163-.444.415-.444.891 0 .464.151.755.469.909.219.106.328.107 11.124.106 10.514-.001 10.911-.005 11.121-.101.275-.124.447-.395.485-.764.056-.544-.167-.98-.559-1.098-.158-.047-2.904-.063-11.086-.063H5.463l-.235.12" fill-rule="evenodd" fill="#000"/></svg>
