<svg xmlns="http://www.w3.org/2000/svg" viewBox="0 0 28 27"><path fill="#A12577" fill-rule="evenodd" d="M.373.63v.63h1.354v5.507h1.54V0H.373v.63m7.451 1.776c-.41.15-.803.567-.917.974-.084.301-.043.797.086 1.064.15.308.483.62.796.747l.261.106h9.357c10.624 0 9.616.04 10.097-.4.345-.315.47-.606.471-1.094.001-.624-.277-1.066-.838-1.335l-.28-.135-9.427.004c-7.982.002-9.454.013-9.606.069m-5.826 7.07c-.623.086-1.395.455-1.719.821-.32.36-.344.291.228.664.281.183.525.332.543.332.018 0 .138-.094.266-.209.512-.461 1.439-.533 1.882-.147.331.289.32.799-.031 1.318-.071.106-.75.786-1.508 1.511L.28 15.083v.924h4.853v-1.212l-1.367-.013-1.367-.012.922-.878c1.353-1.289 1.53-1.563 1.568-2.435.024-.56-.071-.871-.379-1.25-.459-.563-1.513-.87-2.512-.731m5.772 3.006a1.348 1.348 0 0 0-.498.349c-.584.628-.542 1.539.099 2.115.438.394-.487.361 10.079.361h9.407l.28-.133c.318-.151.594-.43.738-.748.14-.31.136-.881-.009-1.179-.16-.33-.4-.581-.696-.726l-.267-.131-9.426-.011-9.427-.011-.28.114M.327 20.976v.583l1.384.012 1.385.012-.661.755-.662.754v.974l.58.027c.925.044 1.239.235 1.277.777.024.348-.1.537-.476.725-.253.126-.317.138-.747.135-.638-.003-1.226-.17-1.685-.478l-.142-.095-.289.58-.289.581.174.118c.239.163.801.374 1.234.463.483.1 1.64.101 2.022.003 1.042-.269 1.647-.946 1.693-1.893.023-.483-.06-.815-.287-1.145-.208-.301-.648-.596-1.089-.73l-.355-.108.729-.838.728-.838.001-.478.001-.479H.327v.583m7.529 1.697c-1.264.438-1.337 2.181-.116 2.753l.263.124h9.38c10.651 0 9.64.04 10.121-.4.335-.305.465-.604.47-1.071.002-.306-.017-.391-.151-.663-.164-.333-.36-.527-.708-.701l-.212-.105-9.403-.01c-8.934-.01-9.415-.007-9.644.073"/></svg>
