<svg xmlns="http://www.w3.org/2000/svg" viewBox="0 0 20 20">
    <path fill-rule="evenodd" d="M9.405.89a3.777 3.777 0 0 0-3.181 2.671 3.312 3.312 0 0 0-.148 1.078c.002 1.06.402 1.983 1.179 2.724.468.447.947.711 1.667.92.031.009.04.32.04 1.418v1.406l-.357.021c-2.766.169-5.062.765-6.421 1.668-.397.264-.858.729-1.037 1.046-.356.631-.373 1.277-.051 1.928.13.261.194.345.485.637.184.184.444.408.576.497 1.267.845 3.236 1.398 5.855 1.643.829.077 3.033.077 3.863 0 2.619-.245 4.587-.798 5.858-1.646.131-.087.389-.31.573-.494.294-.295.354-.375.491-.65l.156-.313.009-.527c.01-.492.005-.54-.067-.739-.121-.333-.267-.55-.592-.878-.33-.334-.691-.591-1.194-.849-1.416-.727-3.588-1.209-5.994-1.33l-.427-.022-.009-1.397-.008-1.398.273-.085a3.753 3.753 0 0 0 2.641-3.584A3.76 3.76 0 0 0 10.235.89a2.958 2.958 0 0 0-.83 0m.844 1.722c.742.141 1.405.775 1.578 1.511.07.296.062.783-.017 1.071a2.084 2.084 0 0 1-.847 1.153c-.601.41-1.482.449-2.124.093-.455-.253-.871-.783-1.004-1.278-.066-.251-.075-.768-.017-1.014.162-.681.764-1.313 1.429-1.499a2.113 2.113 0 0 1 1.002-.037m1.705 10.276c1.665.152 3.365.564 4.325 1.046.47.237.873.551.984.769.093.182.048.311-.189.537-.734.7-2.432 1.267-4.566 1.524-.951.115-1.238.129-2.565.129-1.326 0-1.613-.014-2.565-.129-2.134-.257-3.831-.824-4.565-1.524-.236-.225-.282-.355-.191-.535.164-.32.738-.697 1.546-1.013 1.11-.434 2.786-.757 4.422-.854l.372-.022v2.764h1.71v-1.372c0-.755.006-1.378.013-1.386.018-.018.792.023 1.269.066"/>
</svg>
