<svg width="32" height="32" xmlns="http://www.w3.org/2000/svg"><path d="M15.274 6.136c-.486.063-.749.143-1.221.371-1.047.505-1.909 1.554-2.223 2.704-.159.586-.16 1.682-.002 2.263.368 1.347 1.41 2.48 2.679 2.909l.346.118v3.232l-.64.038c-2.573.15-5.209.869-6.64 1.811-.523.345-1.063.913-1.271 1.339-.801 1.638.308 3.258 2.889 4.221 1.137.425 2.444.733 3.876.915 1.056.134 3.952.163 5.12.052 2.124-.202 4.025-.68 5.355-1.348 1.957-.981 2.703-2.418 1.998-3.85-.291-.591-1.079-1.288-1.963-1.736-1.379-.699-3.743-1.268-5.764-1.389a24.75 24.75 0 0 1-.787-.059l-.281-.028.014-1.601.014-1.6.373-.13c1.208-.423 2.273-1.592 2.617-2.875.13-.485.16-1.458.06-1.983-.158-.832-.485-1.461-1.099-2.11-.716-.756-1.459-1.138-2.458-1.264-.494-.062-.52-.062-.992 0m1.419 2.057c.926.446 1.456 1.492 1.287 2.54-.126.781-.609 1.444-1.287 1.768-.32.153-.39.166-.909.166-.536 0-.58-.009-.924-.183a2.384 2.384 0 0 1-1.184-1.438c-.096-.317-.096-1.082 0-1.401.218-.717.774-1.314 1.444-1.549.192-.067.4-.09.747-.081.413.01.527.035.826.178M14.88 21.2v1.573h1.867v-3.146h.348c.441 0 1.771.136 2.398.246 1.239.217 2.515.612 3.294 1.021.529.278 1.016.684 1.097.914.219.63-1.241 1.51-3.362 2.027-2.607.635-6.462.649-9.082.032-2.004-.471-3.493-1.291-3.493-1.922 0-.558 1.412-1.359 3.192-1.81 1.002-.253 2.593-.488 3.408-.502l.333-.006V21.2" fill-rule="evenodd" fill="#000"/></svg>
