<svg width="32" height="32" xmlns="http://www.w3.org/2000/svg"><path d="M14.283 4.057a5.063 5.063 0 0 0-2.862 1.404c-.713.688-1.164 1.467-1.433 2.475-.137.508-.139.555-.162 2.696-.026 2.457-.001 2.321-.45 2.433-.864.217-1.291.453-1.883 1.042-.474.471-.732.902-.941 1.573l-.125.4v4.213c0 3.929.006 4.237.098 4.56.344 1.218 1.112 2.16 2.195 2.696.92.455.384.424 7.36.424 6.996 0 6.417.035 7.387-.44.433-.212.579-.321 1.014-.757.296-.297.591-.654.708-.856.243-.42.451-1.055.523-1.598.034-.249.047-1.868.036-4.269l-.017-3.866-.149-.479c-.433-1.393-1.383-2.322-2.748-2.686-.216-.058-.432-.144-.48-.192-.077-.077-.091-.373-.117-2.605-.032-2.71-.03-2.697-.34-3.463-.219-.541-.469-.907-.964-1.408-.72-.728-1.52-1.147-2.48-1.299-.408-.064-3.728-.062-4.17.002m3.986 2.212c.632.165 1.125.56 1.445 1.159l.206.385.015 2.462.016 2.461-.143.112c-.142.111-.163.112-3.864.112h-3.721l-.138-.164-.138-.164v-1.729c0-1.118.019-1.73.053-1.73.029 0 .053-.103.053-.228 0-.6.369-1.412.865-1.903.367-.364.921-.673 1.39-.775.51-.11 3.534-.109 3.961.002m4.091 9.106c.461.228.724.492.94.945l.14.293v7.734l-.142.302a2.017 2.017 0 0 1-.944.964l-.352.174H9.998l-.352-.174a2.017 2.017 0 0 1-.944-.964l-.142-.302v-7.734l.145-.295c.292-.594.751-.961 1.375-1.099.222-.049 1.707-.063 6.083-.055l5.789.009.408.202m-6.653.407c-.56.138-.798.388-1.425 1.497l-.498.878-.932.594c-1.197.762-1.384.993-1.385 1.705 0 .336.194.746.469.994.109.097.573.387 1.032.645.46.258.859.498.888.534.029.035.273.472.542.971.533.991.743 1.24 1.16 1.382.53.181 1.063.057 1.453-.338.15-.151.425-.572.722-1.106l.48-.861.907-.491c1.155-.626 1.23-.684 1.427-1.104.191-.409.181-.689-.039-1.154-.195-.413-.47-.636-1.473-1.197l-.885-.495-.515-.952c-.283-.523-.593-1.029-.688-1.124-.302-.301-.86-.471-1.24-.378m.58 3.485c.286.459.478.648.926.915.184.11.334.21.334.224 0 .014-.154.094-.342.178-.44.198-.713.449-.993.911a3.631 3.631 0 0 1-.241.372c-.009 0-.125-.175-.258-.387-.286-.459-.478-.649-.926-.916-.184-.109-.334-.208-.334-.221 0-.012.155-.092.345-.178.503-.228.681-.387.97-.861.142-.233.263-.424.268-.424.005 0 .118.174.251.387" fill="#A12577" fill-rule="evenodd"/></svg>
