<svg xmlns="http://www.w3.org/2000/svg" viewBox="0 0 16 20">
    <path fill="#A12577" fill-rule="evenodd" d="M6.947.882a4.073 4.073 0 0 0-1.857.669c-.326.218-.864.753-1.072 1.067-.213.321-.37.646-.495 1.022-.196.592-.199.629-.21 2.438-.008 1.321-.017 1.624-.047 1.684-.047.09-.179.172-.319.197a3.163 3.163 0 0 0-.746.263C1.305 8.686.732 9.548.639 10.57c-.034.381-.032 5.684.003 6.079.069.794.395 1.504.935 2.038.468.462.886.701 1.541.882l.255.071 4.694.008c5.164.008 4.954.014 5.456-.154a3.282 3.282 0 0 0 2.116-2.17l.068-.237v-6.873l-.084-.26a3.09 3.09 0 0 0-.817-1.318 2.895 2.895 0 0 0-1.286-.704c-.304-.077-.404-.131-.449-.245-.02-.05-.033-.653-.039-1.914-.011-2.045-.01-2.032-.205-2.586-.398-1.131-1.38-1.991-2.574-2.256-.254-.056-.332-.059-1.68-.066-.777-.004-1.509.004-1.626.017m2.925 1.733c.21.043.602.245.776.401.18.16.366.411.457.618.143.323.148.408.148 2.268v1.717l-.06.09c-.132.197.082.184-3.082.184-3.142 0-2.964.01-3.074-.171-.047-.077-.05-.159-.05-1.449 0-.751.01-1.366.022-1.366.013 0 .03-.099.039-.22A2.3 2.3 0 0 1 6.333 2.8c.414-.204.46-.209 2.019-.211.886-.002 1.429.008 1.52.026m2.915 7.025c.526.111.978.522 1.14 1.035l.06.192v5.84l-.063.173c-.169.47-.507.814-.967.981l-.197.072-4.526.007c-5.033.008-4.733.019-5.114-.173a1.57 1.57 0 0 1-.786-.996c-.06-.256-.06-5.739 0-5.995a1.557 1.557 0 0 1 1.159-1.134c.267-.058 9.022-.059 9.294-.002m-4.867.441a1.477 1.477 0 0 0-.284.106c-.275.135-.425.325-.846 1.073-.203.362-.389.675-.413.695-.024.021-.344.227-.71.459-.367.231-.713.463-.769.516a1.275 1.275 0 0 0-.2.295c-.094.191-.098.21-.098.481 0 .265.005.293.088.46.151.306.302.428 1.083.87l.69.391.376.694c.479.884.475.877.664 1.016.333.245.773.292 1.123.119.306-.15.428-.302.869-1.082l.391-.692.745-.402c.834-.451.946-.536 1.082-.829a.901.901 0 0 0 .053-.695c-.073-.238-.227-.496-.377-.63-.067-.06-.445-.291-.84-.515l-.72-.407-.4-.736a13.79 13.79 0 0 0-.472-.825c-.211-.264-.694-.432-1.035-.362m.461 2.759c.22.354.309.444.647.655.168.105.312.2.318.211.007.011-.092.066-.22.122-.445.195-.563.304-.859.793-.113.186-.149.228-.173.2a4.916 4.916 0 0 1-.208-.314c-.214-.34-.325-.449-.679-.665a1.97 1.97 0 0 1-.273-.184c0-.01.11-.065.244-.124.135-.058.315-.157.401-.22.151-.112.183-.153.486-.631.116-.184.099-.192.316.157"/>
</svg>
