<svg xmlns="http://www.w3.org/2000/svg" xml:space="preserve" viewBox="0 0 32 32"><path fill-rule="evenodd" d="M13.253 4.031c-1.338.189-2.294.608-3.241 1.424-.76.654-1.446 1.781-1.726 2.838-.124.467-.142.637-.143 1.36-.001.944.082 1.349.43 2.102l.2.432.015 2.12.014 2.12H6.827v6.666h1.958l.031.707c.037.827.119 1.173.437 1.827a4.015 4.015 0 0 0 1.92 1.92c.892.433.74.417 4.187.44 3.289.021 3.738-.001 4.637-.234.57-.148 1.416-.531 1.93-.874.479-.32 1.364-1.239 1.753-1.821.835-1.248 1.284-2.516 1.386-3.913.072-.976.069-8.378-.003-9.024-.152-1.362-.799-2.504-1.836-3.241-.432-.306-.68-.426-1.236-.594-.428-.13-.578-.146-1.633-.174l-1.162-.032-.178-.441c-.708-1.756-2.311-3.113-4.149-3.51-.389-.084-1.314-.14-1.616-.098m1.334 2.077c.599.133 1.195.457 1.685.915.269.252.355.409.141.259a.917.917 0 0 0-.726-.137c-.284.076-.472.236-1.813 1.536l-1.169 1.134-.393-.329c-.413-.346-.647-.473-.872-.473-.436 0-.987.544-.986.972 0 .351.119.55.659 1.1.559.571.78.721 1.234.843.351.093.585.09.937-.013.271-.079.377-.172 1.695-1.48.773-.767 1.499-1.51 1.612-1.652.25-.31.341-.603.269-.864-.028-.102-.042-.186-.03-.186.061 0 .364.703.454 1.055.456 1.784-.524 3.651-2.292 4.365-.426.172-.781.234-1.333.233-1.127-.003-2.13-.465-2.831-1.306-.949-1.139-1.092-2.941-.336-4.24.246-.423.898-1.084 1.305-1.324.822-.484 1.804-.628 2.79-.408m6.912 4.026c.642.119 1.302.596 1.61 1.161.315.579.315.574.226 4.038a432.295 432.295 0 0 1-.113 3.905l-.033.757-.448-.011-.447-.011-.001-1.773v-1.773h-1.374l-.063-.254c-.057-.23-.175-.365-1.312-1.507l-1.25-1.255.282-.374c.515-.684.925-1.665 1.057-2.527l.065-.43h.757c.417 0 .886.024 1.044.054m-9.206 4.96c1.312.334 2.567.228 3.91-.331l.395-.164.914.914.914.914H10.72v-2.003l.573.281c.316.154.766.329 1 .389m-1.419 2.919c.109.091.113.141.126 1.534l.013 1.44.851.014c.697.012.868.031.947.102.12.108.123.272.007.399-.079.089-.188.098-1.138.098-1.152 0-1.344-.035-1.437-.26-.094-.226-.054-3.214.044-3.332.097-.118.442-.115.587.005m4.33-.011c.327.113.713.408.887.678.08.125.204.299.275.386.125.155.128.179.099.827-.032.713-.113 1-.386 1.357-.284.373-1.02.535-1.827.404-1-.162-1.409-.776-1.328-1.99.06-.906.281-1.324.85-1.608.23-.114.347-.136.734-.136.274 0 .555.033.696.082m4.465.072c.301.154.622.448.704.644.055.133.049.188-.034.36-.08.164-.132.205-.272.219-.115.011-.174-.007-.174-.053 0-.097-.454-.509-.698-.633a1.108 1.108 0 0 0-.429-.104c-.255 0-.679.183-.725.313a.673.673 0 0 1-.096.167 1.713 1.713 0 0 0-.159.368c-.175.538-.034 1.221.32 1.552.124.116.199.135.578.149.366.013.487-.006.756-.117.32-.133.32-.133.336-.376l.017-.243h-.401c-.344 0-.417-.017-.51-.117-.139-.149-.137-.246.007-.4.109-.116.155-.123.776-.123.927 0 .922-.005.922.773 0 .415-.021.618-.067.656-.037.03-.259.131-.493.224-.235.093-.439.188-.453.21-.069.104-.288.164-.597.164-.433 0-1.142-.136-1.329-.255-.177-.112-.446-.443-.595-.732-.205-.396-.173-1.53.056-2 .091-.187.774-.711.998-.766.058-.015.382-.02.72-.012.507.013.653.035.842.132m-5.385.648c-.154.081-.236.187-.387.5-.231.482-.257.915-.082 1.384.15.401.554.781.83.781.377 0 .599-.107.805-.387.164-.223.195-.313.217-.623.028-.393-.109-1.351-.218-1.516-.157-.238-.826-.319-1.165-.139m-5.035 2.255c.054.039.128.162.167.273.065.192.062.209-.068.33a.494.494 0 0 1-.565.065c-.217-.114-.246-.249-.119-.553.069-.166.099-.185.283-.185.113 0 .249.031.302.07m13.576.888c.067.042.069.087.013.296-.322 1.204-1.176 2.416-2.142 3.041-.364.235-.957.529-.994.491-.035-.034.137-1.111.246-1.545.062-.243.186-.603.277-.801l.164-.36h1.691v-.535c0-.505.007-.538.12-.584.159-.064.527-.066.625-.003m-4.425 1.15c0 .016-.033.108-.074.205-.168.404-.26.99-.293 1.873L18 26l-2.427.015c-1.477.009-2.567-.007-2.786-.041a2.231 2.231 0 0 1-1.297-.665c-.51-.507-.715-1.069-.716-1.962l-.001-.36h3.814c2.097 0 3.813.012 3.813.028"/></svg>
