<svg xmlns="http://www.w3.org/2000/svg" xml:space="preserve" viewBox="0 0 32 32"><path fill-rule="evenodd" d="M14.16 4.056c-3.008.407-5.379 2.601-6.008 5.559-.139.657-.165 1.916-.052 2.545a7.049 7.049 0 0 0 4.718 5.468c.818.273 1.456.361 2.409.33.666-.022.902-.053 1.413-.188.671-.178.812-.23 1.51-.557l.469-.22 1.264 1.263 1.263 1.264H6.187V28h19.52v-8.48h-2.013l-.034-.227c-.031-.213-.132-.324-1.746-1.909l-1.712-1.682.291-.386a7.814 7.814 0 0 0 1.293-2.676c.194-.747.244-2.006.111-2.773-.504-2.896-2.695-5.14-5.598-5.732-.518-.106-1.636-.147-2.139-.079m2.101 2.185c1.724.415 3.117 1.788 3.594 3.546.165.606.163 1.833-.004 2.453a5.209 5.209 0 0 1-1.699 2.59c-.454.361-1.311.796-1.832.93-.535.138-1.58.165-2.16.055-1.898-.357-3.376-1.774-3.849-3.689-.142-.572-.128-1.731.027-2.309.533-1.984 2.122-3.399 4.141-3.685.459-.065 1.261-.016 1.782.109m1.325 1.942c-.222.079-.388.23-2.295 2.08-.727.706-1.346 1.292-1.376 1.302-.029.011-.239-.148-.465-.353-.719-.649-.972-.766-1.399-.651-.245.066-.603.364-.729.607-.109.212-.107.656.004.872.11.212 1.53 1.526 1.821 1.684.184.1.297.116.826.116.562 0 .636-.012.884-.143.185-.097.855-.71 2.113-1.932 1.689-1.64 1.848-1.81 1.913-2.041.093-.334.084-.864-.018-1.06-.239-.46-.774-.661-1.279-.481m-.301 13.245c.481.159.781.365 1.038.714.46.626.556 1.273.32 2.176-.207.795-.384 1.154-.714 1.45-.372.335-.641.419-1.341.419-1.101 0-1.668-.268-2.151-1.016-.116-.179-.251-.898-.249-1.331.004-1.405.53-2.309 1.457-2.508.341-.073 1.297-.017 1.64.096m5.004.126c.453.077.821.262 1.138.569.229.223.253.269.253.49 0 .319-.114.481-.336.479-.21-.002-.3-.073-.437-.34-.204-.4-.729-.537-1.514-.395-.339.062-.368.079-.713.44-.198.207-.387.458-.42.558-.084.253-.032 1.15.082 1.418.199.472.631.763 1.199.811.299.025.439.005.848-.123l.491-.152v-.76l-.486-.031c-.555-.036-.687-.111-.687-.386 0-.094.049-.234.11-.311l.111-.141h.826c.799 0 1 .033 1.099.181.021.033.039.353.04.712v.654h-.133c-.104 0-.133.027-.133.125 0 .194-.155.461-.268.461-.055 0-.287.099-.516.221-.372.196-.466.223-.876.246-.636.036-1.275-.058-1.6-.235-.331-.18-.688-.559-.878-.931-.125-.245-.15-.37-.171-.851-.032-.753.054-1.373.24-1.714.246-.452.801-.885 1.281-.998.292-.068 1.044-.067 1.45.003m-10.822.106c.19.057.201.073.233.333.018.151.033 1 .033 1.887v1.613h.937c.515 0 1.043.027 1.173.06.211.053.237.077.237.211 0 .109-.05.189-.182.289l-.181.139-1.447-.016c-1.217-.013-1.455-.029-1.498-.096-.029-.047-.051-.945-.051-2.161-.001-2.339-.004-2.319.356-2.319.105 0 .28.027.39.06m4.543.732c-.35.124-.538.3-.736.691-.138.273-.154.355-.152.81.002.401.028.572.126.818.362.913 1.212 1.163 1.899.558.415-.366.601-1.055.498-1.85-.082-.626-.174-.771-.602-.942-.456-.183-.699-.202-1.033-.085m-6.59 3.002c.127.061.156.111.169.295.009.121-.019.307-.063.413-.073.172-.101.191-.283.191-.36 0-.598-.095-.638-.252-.045-.182.066-.607.184-.698.105-.082.403-.058.631.051"/></svg>
