<svg xmlns="http://www.w3.org/2000/svg" xml:space="preserve" viewBox="0 0 32 32"><path fill="#A12577" fill-rule="evenodd" d="M15.823 4.805c-3.889.289-7.441 2.711-9.182 6.262-.325.661-.717 1.766-.853 2.401-.05.234-.102.467-.116.519-.024.086.055.093 1.124.093 1.06 0 1.151-.007 1.151-.093.001-.052.096-.377.213-.723 1.047-3.111 3.592-5.375 6.827-6.072.764-.165 2.516-.178 3.333-.026 5.002.933 8.261 5.783 7.225 10.75-.238 1.14-.782 2.376-1.48 3.364-.438.619-1.487 1.68-2.065 2.087a9.306 9.306 0 0 1-4.205 1.648c-.737.093-2.143.039-2.835-.108-3.26-.692-5.807-2.977-6.82-6.119-.106-.33-.193-.636-.193-.68 0-.07-.157-.081-1.148-.081H5.651l.026.12c.506 2.381 1.519 4.3 3.109 5.889.92.919 1.837 1.574 3.019 2.154 3.851 1.891 8.385 1.423 11.848-1.223.458-.35 1.312-1.184 1.761-1.72 3.334-3.985 3.458-9.784.3-14.02-.378-.507-1.354-1.515-1.87-1.931a11.33 11.33 0 0 0-8.021-2.491m-.73 3.973a1.21 1.21 0 0 0-.691 1.371c.063.27.125.338 2.271 2.492 1.214 1.219 2.207 2.233 2.207 2.254 0 .021-3.158.038-7.019.038-7.841 0-7.208-.032-7.563.383-.215.251-.325.604-.273.879.086.459.417.849.824.971.148.044 2.118.061 7.224.061 3.861 0 7.02.018 7.02.04 0 .022-1.034 1.072-2.298 2.333-1.529 1.525-2.333 2.365-2.399 2.507-.435.928.566 2.001 1.471 1.577.301-.141 6.924-6.781 7.038-7.056a1.283 1.283 0 0 0 0-.883c-.113-.274-6.63-6.808-6.932-6.949a1.162 1.162 0 0 0-.88-.018"/></svg>
