<svg width="24" height="24" viewBox="0 0 24 24" xmlns="http://www.w3.org/2000/svg">
<path fill-rule="evenodd" clip-rule="evenodd" d="M16.3999 21.3714H7.42847C5.1999 21.3714 3.42847 19.6 3.42847 17.3714V6.34285C3.42847 4.11428 5.25704 2.28571 7.48561 2.28571H17.5999C18.9713 2.28571 19.9999 3.37142 19.9999 4.68571V8.05713C19.0285 8.05713 18.2856 7.31428 18.2856 6.34285V4.68571C18.2856 4.28571 17.9999 3.99999 17.5999 3.99999H7.48561C6.22847 3.99999 5.14275 5.08571 5.14275 6.34285V17.3714C5.14275 18.6286 6.17132 19.6571 7.42847 19.6571H16.3999C17.3713 19.6571 18.1713 18.8571 18.1713 17.8857V17.6C18.1713 16.6286 18.9142 15.8857 19.8856 15.8857V17.8857C19.8856 19.8286 18.3428 21.3714 16.3999 21.3714ZM17.0856 15.7143C16.9142 15.7143 16.6856 15.6571 16.5142 15.4857C16.1713 15.2 16.1142 14.6286 16.457 14.2857L17.7713 12.7428C18.1713 12.2857 18.1713 11.6 17.7713 11.0857L16.3428 9.42856C15.9999 9.14285 16.057 8.57142 16.3999 8.28571C16.7428 7.99999 17.3142 7.99999 17.5999 8.39999L19.7142 10.8571C19.7482 10.8996 19.7847 10.9434 19.8224 10.9886L19.8224 10.9886C20.0384 11.2474 20.2941 11.5537 20.3428 11.9428C20.3428 12.4 19.9999 12.8 19.7713 13.0286L17.7142 15.4286C17.5428 15.6 17.3142 15.7143 17.0856 15.7143ZM8.45704 11.0286H16.7999C17.257 11.0286 17.657 11.4286 17.657 11.8286C17.657 12.2857 17.257 12.6857 16.7999 12.6857H8.3999C8.05704 12.6857 7.77132 12.4 7.77132 12.0571V11.7143C7.77132 11.3143 8.05704 11.0286 8.45704 11.0286Z" fill="#A12577"/>
</svg>
