<svg width="32" height="32" xmlns="http://www.w3.org/2000/svg"><path d="M10.285 4.052c-1.159.182-2.041.632-2.893 1.475-.598.592-.909 1.053-1.178 1.745-.347.896-.334.511-.317 8.981l.015 7.7.158.467c.581 1.725 1.728 2.863 3.42 3.393l.492.155h13.036l.51-.174a4.43 4.43 0 0 0 1.636-.964c.603-.563.997-1.208 1.242-2.028.111-.373.124-.556.145-2.054l.024-1.644-.321.037c-.689.081-1.36.572-1.643 1.201-.126.282-.16.455-.196 1.021-.061.941-.189 1.298-.638 1.778a2.105 2.105 0 0 1-1.003.62c-.267.079-.939.089-6.243.088-6.547-.001-6.31.011-6.983-.343-.706-.371-1.325-1.204-1.464-1.97-.037-.199-.051-2.879-.041-7.672l.014-7.366.124-.328A3.149 3.149 0 0 1 9.62 6.524c.722-.379.363-.362 7.677-.362h6.601l.219.123c.385.217.413.332.414 1.745.001 1.739.1 2.099.74 2.684.338.309.769.5 1.175.521l.257.013-.001-2.365-.001-2.365-.152-.431c-.274-.781-.761-1.36-1.451-1.728-.67-.357-.337-.343-7.856-.336-3.751.004-6.881.017-6.957.029m12.128 7.356c-.205.091-.442.34-.52.544-.089.238-.07.651.039.816.052.08.529.645 1.058 1.255.529.61 1.024 1.225 1.1 1.367.116.219.137.331.137.753.001.627-.007.64-1.159 1.989-.486.57-.923 1.097-.972 1.173-.226.353-.16.858.158 1.21.349.387.871.479 1.303.232.246-.141 3.26-3.668 3.43-4.014.174-.355.161-.732-.038-1.131-.174-.349-3.353-4.05-3.586-4.176-.214-.115-.712-.125-.95-.018m-10.639 3.703c-.327.167-.414.344-.433.884-.021.59.072.802.431.986l.241.124h5.365c3.574-.001 5.434-.02 5.572-.058.404-.113.806-.61.809-1.003.003-.352-.255-.74-.616-.924-.196-.101-.405-.105-5.692-.105-5.117 0-5.501.007-5.677.096" fill="#A12577" fill-rule="evenodd"/></svg>
