<svg xmlns="http://www.w3.org/2000/svg" xml:space="preserve" viewBox="0 0 32 32"><path fill-rule="evenodd" d="M14.64 4.059c-3.962.413-7.309 3.429-8.314 7.49-.243.986-.273 1.27-.27 2.611.002 1.189.013 1.33.149 1.973.209.985.477 1.75.925 2.64.526 1.045.962 1.641 1.855 2.537.763.765 1.311 1.196 2.095 1.65.242.14.44.281.44.314 0 .151.326.721.525.92.122.121.583.433 1.024.693l.802.473.461.906c.678 1.335 1.072 1.696 1.856 1.704.319.003.426-.022.73-.172.195-.096.419-.25.496-.342.078-.092.355-.594.615-1.114l.474-.947.848-.509c1.08-.65 1.362-.954 1.506-1.626.054-.253.074-.276.487-.544a9.083 9.083 0 0 0 1.73-1.453 9.212 9.212 0 0 0 1.59-2.228c.776-1.502 1.101-2.703 1.204-4.448.149-2.537-.435-4.68-1.814-6.652-.496-.71-1.593-1.79-2.312-2.276-1.435-.97-2.97-1.502-4.723-1.636l-.502-.038.031.335c.039.437.327 1.028.641 1.318.338.311.642.47 1.211.632 1.374.391 2.502 1.077 3.529 2.146 2.126 2.216 2.828 5.464 1.821 8.437-.552 1.632-1.602 3.025-2.966 3.936-.317.211-.614.384-.659.384-.045 0-.404-.193-.797-.43l-.715-.43-.429-.848c-.523-1.035-.741-1.323-1.146-1.522l-.301-.147.286-.089c1.118-.345 2.031-1.337 2.339-2.54.22-.863.104-1.92-.294-2.676-.47-.894-1.144-1.484-2.069-1.812-.329-.117-.476-.137-.999-.137s-.67.02-.999.137c-.925.328-1.599.918-2.069 1.812-.27.513-.399 1.068-.398 1.718.001.686.101 1.106.411 1.734.457.925 1.298 1.619 2.266 1.867.365.094.38.104.245.156-.348.135-.547.406-1.053 1.436l-.494 1.005-.878.438-.879.438-.292-.167c-1.529-.875-2.884-2.559-3.509-4.361-.338-.977-.428-1.547-.425-2.702.002-1.14.087-1.673.426-2.69.843-2.529 3.006-4.533 5.559-5.149.483-.117.943-.412 1.212-.778.233-.318.448-.895.449-1.209L15.573 4l-.253.007c-.139.004-.445.027-.68.052m2.046 8.59c.312.151.593.437.755.767.107.219.129.346.131.744.001.409-.019.524-.138.778-.473 1.008-1.687 1.276-2.493.552-.767-.689-.703-2.035.126-2.668a1.58 1.58 0 0 1 1.619-.173m-.036 8.131c.249.439.549.888.685 1.027.133.135.509.401.836.59.957.553.95.441.061.989-.421.26-.861.571-.979.692-.117.122-.393.55-.613.951-.219.402-.416.731-.436.731-.02 0-.21-.306-.422-.68-.602-1.061-.661-1.126-1.487-1.623a40.075 40.075 0 0 1-.815-.497c-.082-.056.001-.121.64-.51.709-.432 1.164-.785 1.233-.959A36.68 36.68 0 0 1 16.196 20c.006 0 .21.351.454.78"/></svg>
