<svg xmlns="http://www.w3.org/2000/svg" viewBox="0 0 24 24">
    <path fill="#A12577" fill-rule="evenodd" d="M9.435 2.922c-.24.057-.561.217-.809.402-.436.326-.809.943-1.001 1.656-.102.38-1.304 8.606-1.335 9.14a2.727 2.727 0 0 0 .399 1.504c.195.299.595.667.898.826.48.252.955.332 1.612.273.231-.021.423-.034.426-.03.003.004-.128.547-.291 1.207-.317 1.284-.373 1.662-.296 2.031.187.899 1.058 1.603 1.982 1.601.503-.001 1.036-.231 1.419-.612.238-.237 5.003-6.928 5.174-7.267.266-.524.293-1.129.077-1.714-.193-.525-.441-.859-.827-1.115-.356-.236-.585-.304-1.238-.367a10.307 10.307 0 0 1-.605-.067 71.2 71.2 0 0 1 .727-1.61c.404-.88.778-1.708.831-1.84.499-1.248-.205-2.958-1.498-3.637-.441-.232-.611-.254-2.66-.342-1.977-.086-2.745-.095-2.985-.039m2.954 1.759c2.103.087 2.04.075 2.328.439.201.255.323.581.323.864 0 .206-.08.394-1.146 2.689-.814 1.752-1.151 2.519-1.164 2.647-.013.142.003.209.077.318.182.268.241.283 1.607.41.685.064 1.317.138 1.405.164.205.062.353.269.334.468-.019.194-4.876 7.109-5.019 7.145-.112.028-.28-.07-.338-.198-.032-.071.052-.459.402-1.857.243-.973.442-1.843.442-1.935a.995.995 0 0 0-.523-.876c-.199-.102-.457-.102-1.509.003-.941.094-1.055.078-1.284-.184-.232-.263-.232-.26.035-2.408l.539-4.35c.297-2.405.337-2.626.536-3.002.199-.376.351-.458.804-.432.166.01 1.134.052 2.151.095"/>
</svg>
