<svg width="32" height="32" xmlns="http://www.w3.org/2000/svg"><path d="M12.534 3.606c-.725.194-1.417.779-1.858 1.567-.207.372-.526 1.323-.571 1.707-.02.161-.384 2.765-.811 5.787-.828 5.866-.864 6.227-.689 6.906.164.637.434 1.104.909 1.574.756.747 1.388.968 2.605.91.588-.028.728-.021.709.034-.014.038-.196.789-.406 1.669-.505 2.115-.512 2.459-.068 3.345.263.526.872 1.026 1.526 1.253.498.174 1.182.158 1.64-.038.4-.17.901-.53 1.127-.809.384-.474 6.469-9.362 6.59-9.627.379-.825.349-1.658-.095-2.62-.332-.719-1.01-1.306-1.73-1.496a7.818 7.818 0 0 0-.875-.113c-.365-.031-.672-.065-.682-.076-.011-.01.451-1.08 1.027-2.377 1.166-2.629 1.226-2.816 1.18-3.633-.061-1.053-.515-2.033-1.31-2.827-.543-.542-1.097-.853-1.693-.949-.384-.062-4.998-.278-5.779-.27a3.633 3.633 0 0 0-.746.083m3.653 2.316c2.881.123 2.812.111 3.201.544.302.336.467.762.469 1.214.001.341-.024.401-1.483 3.627-.889 1.965-1.493 3.367-1.508 3.497-.04.359.201.701.574.812.103.031.871.119 1.707.196.836.077 1.613.169 1.728.204a.578.578 0 0 1 .429.588c-.003.205-.253.589-3.191 4.889l-3.188 4.667-.204.016c-.242.019-.374-.121-.374-.396 0-.093.252-1.207.56-2.476.308-1.268.56-2.382.56-2.476 0-.446-.314-.951-.71-1.143-.289-.14-.433-.14-1.882.003l-1.178.116-.249-.12c-.354-.171-.543-.502-.536-.937.003-.176.309-2.84.68-5.92.578-4.803.694-5.657.813-5.996.263-.753.51-1.017.949-1.018.15-.001 1.425.048 2.833.109" fill="#A12577" fill-rule="evenodd"/></svg>
