<svg width="32" height="32" xmlns="http://www.w3.org/2000/svg"><path d="M10.773 4.802c-.822.029-1.129.062-1.466.154-1.227.338-2.191.916-3.112 1.868-.933.965-1.488 1.992-1.859 3.441l-.137.535-.025 5.372-.025 5.372.145.628c.381 1.641.98 2.75 2.059 3.813.82.807 1.5 1.223 2.606 1.592.495.166.758.221 1.26.262.814.068 10.233.069 11.097.001 1.484-.115 2.832-.778 4.02-1.976.789-.796 1.349-1.735 1.733-2.908.312-.953.316-1.029.315-6.743 0-5.799.013-5.555-.377-6.679-.377-1.083-.791-1.813-1.394-2.456-.892-.951-1.656-1.502-2.571-1.856-.784-.303-1.125-.37-2.161-.425-1.03-.054-8.528-.051-10.108.005m10.986 2.553c1.482.443 2.727 1.825 3.073 3.411.102.469.156 3.08.103 5.031l-.04 1.478-.168-.029c-.284-.048-1.131-.48-4.034-2.058a337.103 337.103 0 0 0-3.236-1.743c-.68-.346-1.492-.459-2.292-.32-.401.07-1.173.454-4.392 2.183-2.982 1.601-3.823 2.025-4.016 2.025h-.161l.034-3.16c.038-3.575.037-3.566.473-4.441.554-1.112 1.437-1.921 2.55-2.336.412-.154 1.574-.182 7.147-.17 4.554.009 4.561.009 4.959.129m-5.105 8.465c.648.325 1.23.635 3.693 1.967 3.295 1.782 3.452 1.853 4.26 1.929l.368.034-.029.832c-.058 1.678-.431 2.642-1.397 3.606-.768.766-1.454 1.114-2.377 1.206-.806.081-10.94.028-11.279-.059-1.138-.291-2.226-1.235-2.798-2.428-.353-.738-.479-1.43-.481-2.654l-.001-.466.227-.001c.125-.001.395-.036.6-.078.431-.088.859-.301 4.293-2.134 3.608-1.926 3.864-2.054 4.109-2.054.153 0 .383.085.812.3" fill="#1B1A1A" fill-rule="evenodd"/></svg>
