<svg width="32" height="32" xmlns="http://www.w3.org/2000/svg"><path d="M14.685 2.147c-2.141.116-5.432.615-6.711 1.019a6.398 6.398 0 0 0-2.641 1.612c-1.4 1.413-2.304 3.558-2.484 5.892-.069.91-.021 6.915.064 7.947.146 1.756.543 4.061.914 5.3.581 1.938 1.254 3.169 2.304 4.216 1.331 1.326 2.845 1.97 5.828 2.475.435.073 1.059.159 1.387.19.774.074 3.365.073 4.097 0 1.253-.126 3.315-.631 3.866-.946.296-.17.44-.43.431-.781-.007-.297-.194-1.223-.297-1.475-.079-.194-.256-.197-.825-.016-1.022.327-3.695.508-5.3.359-1.864-.173-2.893-.528-3.638-1.256-.552-.539-.924-1.28-1.005-2.005-.052-.464-.025-.723.087-.816.121-.1.566-.068 1.621.116 1.546.27 2.081.328 3.691.397 3.038.132 6.099-.126 8.043-.677 1.865-.528 3.694-1.594 4.632-2.697.703-.828.901-1.532 1.227-4.361.208-1.804.28-4.471.167-6.221-.158-2.448-1.206-4.689-2.787-5.963-1.121-.903-2.009-1.287-3.816-1.652a35.755 35.755 0 0 0-8.855-.657m7.096 5.765 2.339.035.28.18c.396.255.854.756 1.03 1.128.246.523.272.8.231 2.515-.051 2.142-.105 2.816-.245 3.042-.161.261-.739.707-1.244.96l-.44.22-2.145.026c-1.648.019-2.195.043-2.364.102-.299.105-.413.339-.413.848 0 .211-.017.7-.036 1.086l-.036.701H15.84v-5.144c0-5.548-.006-5.427.284-5.589.272-.152 1.411-.174 5.657-.11m-7.541.215.152.151.036 1.87c.02 1.028.037 2.984.037 4.346v2.477l-.534.7-.535.7-.561.219-.562.22H9.99c-2.24 0-2.283-.002-2.318-.111-.019-.061-.039-.68-.045-1.377-.008-1.024.005-1.275.066-1.313.042-.026.846-.058 1.788-.072.941-.013 1.753-.043 1.803-.065a.302.302 0 0 0 .134-.133c.023-.05.055-1.725.073-3.721.024-2.767.048-3.659.101-3.751.157-.275.237-.292 1.404-.292h1.092l.152.152m5.043 2.54c-.439.089-.556.438-.505 1.505.043.875.079 1.009.291 1.066.085.022.785.042 1.556.043 1.36.001 1.41-.002 1.663-.127.334-.164.387-.344.363-1.222-.021-.748-.054-.81-.507-.98-.579-.216-2.336-.391-2.861-.285" fill="#fff" fill-rule="evenodd"/></svg>
