<svg xmlns="http://www.w3.org/2000/svg" xml:space="preserve" viewBox="0 0 32 32"><path d="M11.093 8.623a9.246 9.246 0 0 0-1.784.344 7.224 7.224 0 0 0-2.833 1.712c-1.107 1.065-1.81 2.34-2.139 3.881-.137.64-.137 2.24 0 2.88.308 1.445.941 2.65 1.928 3.673 1.108 1.149 2.426 1.863 4.01 2.174.648.128 1.958.129 2.591.003a7.996 7.996 0 0 0 2.848-1.212l.388-.264.392.282c.773.554 1.683.944 2.723 1.166.724.155 1.964.165 2.703.022a7.393 7.393 0 0 0 2.779-1.125 7.36 7.36 0 0 0 2.467-9.524 7.61 7.61 0 0 0-4.261-3.651c-.751-.252-1.411-.354-2.292-.355-1.617-.001-2.993.409-4.198 1.251l-.304.213-.416-.266a7.516 7.516 0 0 0-3.421-1.185 5.153 5.153 0 0 0-1.181-.019m1.814.778c.278.073.704.211.946.307.443.175 1.354.686 1.384.777.009.026-.131.216-.311.422a9.61 9.61 0 0 0-1.138 1.68c-.199.394-.561 1.34-.561 1.464 0 .065.067.082.324.082h.324l.088-.226c.176-.454.556-1.19.836-1.619.3-.461 1.007-1.248 1.121-1.248.11 0 .816.78 1.1 1.216a8.3 8.3 0 0 1 .768 1.531l.12.32.28.016c.432.025.435.021.309-.426-.275-.97-.892-2.047-1.597-2.79l-.389-.41.131-.099c.448-.338 1.489-.803 2.225-.991.722-.186 1.999-.234 2.762-.104 2.826.479 5.007 2.683 5.414 5.471.082.557.035 2.061-.08 2.586-.651 2.973-3.068 5.127-6.071 5.41-1.341.126-2.879-.223-4.039-.916-.623-.373-.609-.301-.152-.774a6.7 6.7 0 0 0 1.449-2.2c.306-.752.314-.693-.096-.693-.35 0-.353.001-.413.173-.136.394-.65 1.34-.938 1.73-.332.446-.824.977-.906.977-.097 0-.741-.733-1.035-1.178-.315-.476-.678-1.17-.785-1.502l-.065-.2h-.343c-.188 0-.342.02-.342.045 0 .084.198.62.367.991.243.534.785 1.322 1.262 1.833.241.259.393.463.365.491-.135.135-.994.604-1.373.751-1.363.526-2.765.634-4.118.317-2.596-.61-4.657-2.791-5.115-5.415-.11-.624-.11-1.777-.001-2.4.486-2.773 2.674-4.958 5.498-5.491.672-.127 2.141-.078 2.795.092m6.373 4.939c-.677.179-1.124.744-1.254 1.589-.073.466-.007.89.187 1.222.152.26.335.404.633.501.254.082.811.049.91-.056.04-.042.088-.212.108-.379l.036-.303-.277.106c-.634.241-1.057-.134-.997-.883.066-.823.679-1.242 1.327-.907.139.072.143.069.172-.098.105-.611.104-.667-.018-.732-.15-.08-.621-.114-.827-.06M5.663 15.96a61.291 61.291 0 0 1-.258 1.656c-.025.086.008.094.337.08l.364-.016.19-1.173.189-1.174.037.614c.021.337.038.796.038 1.02 0 .223.015.483.034.576.033.163.042.168.274.153l.241-.016.416-1.147c.229-.63.417-1.11.418-1.066.001.044-.078.566-.174 1.16l-.176 1.08h.71l.196-1.614c.107-.887.195-1.631.195-1.653 0-.022-.247-.04-.548-.04h-.547l-.32.918-.319.918-.015-.918-.014-.918H5.893l-.23 1.56m20.236-1.024-.092.429-.179-.157c-.53-.465-1.27-.1-1.529.753-.199.653-.074 1.342.292 1.609.212.155.594.149.822-.014.141-.1.174-.107.174-.04 0 .068.068.084.36.084l.36-.001.297-1.546.297-1.546h-.71l-.092.429m-12.725-.283c0 .022-.058.4-.13.84-.249 1.529-.267 1.709-.189 1.896.112.271.569.402.928.266.124-.048.137-.08.137-.347 0-.289-.003-.295-.153-.295-.268 0-.295-.093-.197-.678.121-.723.115-.708.324-.708.214 0 .217-.004.265-.36l.038-.28h-.194c-.193 0-.194-.001-.159-.187l.035-.187h-.353c-.194 0-.352.018-.352.04m-1.58.302c-.217.101-.295.174-.386.363-.248.512-.072.981.457 1.215.176.078.228.13.228.227 0 .069-.028.154-.064.189-.077.078-.481.084-.732.012a.679.679 0 0 0-.197-.039 2.265 2.265 0 0 0-.05.289l-.036.275.233.063c.128.035.393.052.589.038.601-.043.897-.298.939-.811.034-.405-.051-.583-.339-.719a1.375 1.375 0 0 0-.287-.11c-.1 0-.17-.206-.109-.32.048-.09.112-.107.398-.107.375 0 .364.011.428-.406l.034-.219-.251-.034c-.413-.057-.569-.04-.855.094m-2.407.033c-.066.027-.12.094-.12.15 0 .056-.015.175-.033.265l-.033.163.526-.01.526-.009.016.165.017.166-.346.028c-.715.057-1.126.422-1.124.995.001.347.11.549.348.647.206.086.559.036.749-.104.19-.141.207-.139.207.023 0 .126.016.133.293.133.162 0 .294-.014.294-.031 0-.016.065-.406.145-.866.207-1.197.178-1.426-.215-1.665-.137-.084-.265-.104-.65-.101-.264.002-.534.025-.6.051m5.715.046c-.441.269-.688.798-.687 1.473.001.539.146.838.501 1.034.281.155.896.214 1.197.115l.194-.064v-.673l-.348.106c-.532.163-.932.032-.932-.305v-.133h1.384l.041-.147c.023-.081.04-.317.038-.524-.003-.437-.111-.671-.394-.862-.234-.158-.75-.169-.994-.02m5.993-.064c-.057.015-.104.099-.125.22a3.89 3.89 0 0 1-.058.289c-.023.084.019.089.49.058.55-.036.609-.014.611.229 0 .1-.039.115-.369.143-.739.062-1.124.414-1.124 1.027 0 .272.018.319.181.483.225.224.483.241.85.055l.249-.126v.126c0 .117.021.126.291.126.331 0 .28.097.403-.773a6.45 6.45 0 0 1 .137-.69c.144-.501.065-.868-.232-1.07-.178-.121-.245-.133-.705-.127a5.141 5.141 0 0 0-.599.03m-4.095.041c0 .105-.241 1.658-.323 2.082-.057.294-.103.552-.104.574 0 .022.163.04.363.04h.362l.143-.739c.174-.905.21-1.002.409-1.116.115-.066.19-.179.275-.412l.141-.387c.017-.044-.028-.066-.131-.066-.11 0-.216.059-.353.195l-.195.196v-.391h-.294c-.161 0-.293.011-.293.024m6.004.682c-.051.389-.139.947-.195 1.24-.155.81-.166.774.244.774.191 0 .347-.006.347-.014.002-.088.282-1.445.326-1.577a.58.58 0 0 1 .22-.276c.12-.073.201-.198.309-.476l.147-.377h-.152c-.095 0-.225.063-.341.165l-.189.166v-.331h-.624l-.092.706m-7.188-.109c.035.035.064.143.064.24V16h-.352c-.3 0-.348-.013-.32-.084a.526.526 0 0 0 .032-.134c0-.193.432-.342.576-.198m9.951.124c.309.309.015 1.202-.42 1.282-.265.049-.373-.074-.358-.407.026-.61.214-.956.518-.956.098 0 .215.036.26.081m-15.594.919c0 .149-.195.428-.357.511-.239.122-.389.034-.389-.227 0-.27.14-.378.492-.378.207 0 .254.018.254.094m11.734-.065c0 .182-.292.557-.488.626-.14.049-.312-.107-.312-.284 0-.251.163-.371.506-.371.162 0 .294.013.294.029" fill-rule="evenodd"/></svg>
