<svg width="32" height="32" xmlns="http://www.w3.org/2000/svg"><path d="M13.515 2.301c-2.819.194-5.016.642-6.286 1.281-1.264.635-2.531 2.013-3.226 3.506-.441.948-.73 1.924-.828 2.8-.074.661-.074 8.057 0 9.407.233 4.23 1.313 7.472 3.113 9.342 1.191 1.237 2.507 1.923 4.592 2.391 1.768.398 2.079.431 4.309.462 2.269.032 3.006-.011 4.114-.238.84-.171 1.922-.494 2.343-.699.465-.225.476-.266.402-1.526-.033-.581-.085-1.08-.115-1.11-.035-.035-.452.032-1.148.182-1.412.306-1.847.346-3.728.345-1.698-.001-2.105-.036-3.004-.256-1.909-.469-2.772-1.439-3.008-3.387-.034-.275-.047-.514-.031-.531.017-.017.383.036.813.118 3.683.699 7.045.779 10.755.257 1.687-.238 3.091-.698 4.393-1.441.998-.569 1.669-1.127 2.278-1.891.583-.731.738-1.145.946-2.528.204-1.346.231-1.988.231-5.505 0-3.836-.002-3.864-.374-5-.479-1.461-1.305-2.797-2.298-3.717-.789-.731-1.853-1.272-3.166-1.61-.697-.179-2.382-.473-3.314-.578-.525-.059-7.076-.122-7.763-.074m-.061 4.982c1.292.225 2.034.799 2.947 2.28.177.288.345.524.373.524.066 0 .252-.258.627-.873.437-.718.987-1.255 1.586-1.551.643-.317 1.034-.413 1.824-.451.78-.036 1.354.041 1.971.266.592.215.858.395 1.42.961.404.407.535.587.772 1.061.164.326.344.798.42 1.103l.134.532v8.897l-1.478.015-1.479.015-.037-.605c-.021-.332-.039-1.895-.041-3.472-.002-1.577-.023-3.224-.047-3.66-.038-.698-.062-.829-.195-1.089-.212-.414-.448-.665-.788-.834-.263-.131-.356-.145-.947-.144-.534.001-.701.022-.908.116-.746.339-1.153 1.005-1.225 2.004-.018.251-.05 1.405-.071 2.563-.02 1.159-.058 2.128-.085 2.154-.08.08-2.803.052-2.885-.03-.053-.053-.079-.691-.107-2.547-.04-2.756-.044-2.784-.434-3.387-.229-.354-.442-.544-.861-.767-.222-.118-.331-.136-.85-.136-.522 0-.633.018-.907.147-.509.241-.846.669-1.022 1.299-.053.187-.08 1.327-.105 4.306l-.034 4.052-1.491.015-1.49.015.018-4.634.018-4.633.133-.397c.568-1.696 1.691-2.787 3.208-3.118.468-.102 1.444-.101 2.036.003" fill="#fff" fill-rule="evenodd"/></svg>
