<svg xmlns="http://www.w3.org/2000/svg" xml:space="preserve" viewBox="0 0 32 32"><path fill-rule="evenodd" d="M8.428 8.061c-3.015.36-5.655 2.52-6.608 5.406a8.095 8.095 0 0 0 0 5.066c.836 2.532 2.978 4.534 5.561 5.198a7.998 7.998 0 0 0 9.325-4.491 8.072 8.072 0 0 0 0-6.48 8.022 8.022 0 0 0-5.767-4.604c-.618-.123-1.878-.171-2.511-.095m13.692-.003c-.604.142-1.392.766-1.871 1.481-1.057 1.577-1.635 3.881-1.635 6.514.001 3.053.867 5.787 2.263 7.141 1.105 1.071 2.375 1.064 3.474-.021 2.702-2.667 3.023-10.039.593-13.653-.287-.427-.908-1.032-1.242-1.212-.507-.271-1.096-.365-1.582-.25m7.012 1.395c-.293.312-.578 1.25-.756 2.485-.199 1.381-.24 2.077-.24 4.062 0 2.414.141 3.986.476 5.306.228.898.494 1.361.784 1.361.347 0 .647-.611.894-1.82.266-1.304.377-2.727.377-4.847 0-2.986-.291-5.242-.806-6.252-.216-.422-.501-.537-.729-.295"/></svg>
