<svg xmlns="http://www.w3.org/2000/svg" xml:space="preserve" viewBox="0 0 32 32"><path fill-rule="evenodd" d="M18.478 6.581c-.43.105-.73.276-1.233.708-.623.534-.866.697-1.228.821-.584.201-1.067.111-1.884-.352-1.178-.667-2.003-.938-2.88-.946-.586-.005-.966.073-1.407.289-.635.312-1.19.827-1.677 1.557-.549.822-.849 1.466-1.547 3.318-.265.703-.579 1.536-.7 1.851-.12.316-.396 1.207-.614 1.982-.217.774-.526 1.85-.687 2.391-.464 1.56-.539 1.962-.54 2.893-.002 1.269.181 1.782.819 2.304.344.281.901.561 1.367.685.875.233 2.483.105 3.195-.255.319-.161.683-.57.897-1.009.193-.395.483-1.285.544-1.669.148-.936.693-2.531 1.23-3.602.125-.25.468-1.054.763-1.787 1.166-2.898 1.32-3.211 1.697-3.444.433-.267 1.201-.081 1.443.35.366.652.114 1.799-.922 4.197-1.154 2.674-1.408 3.381-1.407 3.93 0 .474.086.697.376.978.614.596 1.694.535 2.39-.134.73-.701 1.249-1.544 2.286-3.717.414-.865.982-2.05 1.263-2.633.281-.583.511-1.085.511-1.114 0-.095.653-1.209 1.067-1.821.331-.49.451-.623.693-.769.265-.16.326-.175.627-.158.293.018.355.042.519.2.239.232.311.459.286.902-.024.415-.285 1.015-.73 1.673-.146.218-.51.822-.808 1.343-.297.52-.635 1.1-.75 1.289a10.503 10.503 0 0 0-1.183 2.739c-.153.567-.167.685-.17 1.496-.004.78.01.925.121 1.28.181.58.47 1.096.827 1.478.403.431.711.654 1.319.956 1.025.509 1.892.712 3.036.711 1.037-.001 1.714-.216 2.196-.697.467-.466.456-.919-.036-1.413-.358-.36-.686-.478-1.787-.64-.985-.145-1.332-.273-1.592-.589-.46-.558-.442-1.706.048-3.175.265-.794.614-1.583 1.488-3.375 1.249-2.556 1.709-3.74 1.898-4.878.272-1.635-.262-2.726-1.539-3.147-1.141-.376-2.234-.352-3.486.078-.508.175-.561.183-.796.124-.157-.04-.521-.244-.963-.54-1.039-.697-1.57-.846-2.34-.659"/></svg>
