<svg xmlns="http://www.w3.org/2000/svg" xml:space="preserve" viewBox="0 0 32 32"><path fill-rule="evenodd" d="M20.32 4.074c-.688.193-.974.455-1.598 1.463l-.397.643-3.816.019-3.816.019-.507.138c-.922.251-1.584.615-2.206 1.212-.656.63-1.091 1.342-1.327 2.174l-.119.418-.015 6.798c-.013 6.041-.005 6.848.07 7.252.315 1.679 1.516 3.036 3.198 3.613.755.259 1.137.283 4.59.283 1.934.001 3.436-.022 3.787-.058a7.608 7.608 0 0 0 3.794-1.458c.475-.357 1.383-1.327 1.767-1.889.431-.628.919-1.646 1.123-2.34.32-1.087.325-1.191.325-6.345v-4.69l.336-.214c.622-.396.922-.906.98-1.669.044-.567-.061-.869-.447-1.287-.264-.285-.403-.372-1.324-.835l-1.029-.517-.524-.897c-.714-1.218-1.068-1.569-1.824-1.802-.385-.119-.674-.128-1.021-.031m1.189 3.125c.654 1.09.568 1.01 1.836 1.712.447.247.806.47.798.495-.007.026-.421.274-.918.551-1.109.619-1.211.695-1.367 1.019-.157.325-.915 1.608-.952 1.61-.014 0-.286-.433-.604-.962-.419-.698-.633-1.003-.778-1.107a20.203 20.203 0 0 0-1.06-.623c-.473-.264-.843-.495-.822-.515.021-.019.458-.27.971-.556.939-.524 1.251-.75 1.313-.953.045-.146.932-1.63.975-1.63.018 0 .292.432.608.959M15.36 8.42c0 .026-.059.152-.13.28-.396.71-.232 1.588.416 2.224.215.212.483.373 1.248.752 1.104.547.951.396 1.696 1.681.465.802.823 1.197 1.294 1.429.321.158.399.174.835.173.427 0 .52-.019.836-.168.423-.2.694-.459.968-.925.24-.411.348-.56.379-.528.013.013.028 1.739.033 3.836.011 4.189.021 4.028-.322 4.97a5.909 5.909 0 0 1-.806 1.49c-.388.525-.396.529-.494.195-.111-.378-.459-1.089-.729-1.487-.448-.659-1.325-1.477-1.994-1.86l-.299-.171.281-.307c.62-.677.952-1.492.989-2.431.027-.688-.055-1.115-.326-1.697-.725-1.555-2.519-2.551-4.195-2.329-1.441.191-2.608 1.009-3.231 2.266-.385.778-.483 1.517-.313 2.363.115.568.524 1.388.903 1.808l.299.332-.229.115c-.7.355-1.594 1.158-2.041 1.836-.483.731-.84 1.655-.951 2.466-.033.242-.073.44-.089.44-.051 0-.368-.502-.472-.748-.221-.524-.223-.564-.223-7.296 0-7.096-.012-6.791.309-7.392.339-.634 1.147-1.201 1.86-1.305.415-.061 4.498-.072 4.498-.012m1.244 7.284c.359.182.692.522.854.873.167.363.164 1.11-.005 1.454a1.793 1.793 0 0 1-.854.86c-.335.165-.391.176-.918.176-.515 0-.586-.013-.87-.157a2.053 2.053 0 0 1-.847-.838c-.106-.198-.124-.31-.124-.765 0-.476.015-.563.144-.806.182-.346.608-.731.965-.872.227-.089.375-.107.812-.095.469.013.573.034.843.17m-.093 6.216c1.486.377 2.611 1.633 2.77 3.093.018.162.042.344.055.406.02.099-.026.127-.378.231-.852.253-1.05.266-4.152.268l-2.928.002.029-.6c.054-1.128.51-2.022 1.387-2.722.869-.694 2.117-.957 3.217-.678"/></svg>
