<svg xmlns="http://www.w3.org/2000/svg" viewBox="0 0 32 32" xml:space="preserve"><path d="M10.693 4.482c-1.636.083-2.988.704-4.201 1.93-.986.997-1.562 2.044-1.943 3.533l-.137.535-.024 5.387-.024 5.386.169.694c.301 1.231.74 2.175 1.388 2.986.355.445 1.131 1.187 1.546 1.478.717.504 1.769.93 2.627 1.066.619.098 11.297.101 11.857.004.868-.151 2.022-.651 2.723-1.18.572-.431 1.373-1.272 1.741-1.827.53-.799.977-1.921 1.119-2.811.098-.613.094-10.875-.004-11.396-.093-.49-.393-1.411-.629-1.931-.604-1.329-1.999-2.738-3.288-3.32-.59-.266-1.334-.475-1.904-.533-.613-.063-9.776-.064-11.016-.001M21.92 7.003c1.375.407 2.564 1.613 3.035 3.079.182.565.216 1.22.217 4.091l.001 2.734h-.21c-.253 0-.835-.293-3.843-1.93-3.494-1.903-3.698-2.009-4.028-2.097-.463-.123-1.16-.159-1.616-.082-.491.083-.835.252-4.409 2.162-3.155 1.686-3.882 2.053-4.066 2.053h-.13l.019-3.24.02-3.24.149-.426c.534-1.532 1.487-2.556 2.834-3.047.383-.139 1.546-.165 7.067-.153 4.133.009 4.7.02 4.96.096m-4.56 8.756c.587.301 1.631.853 2.32 1.227 2.8 1.519 4.147 2.213 4.438 2.288.168.044.477.096.687.117l.383.038-.029.859c-.031.922-.109 1.382-.338 2-.412 1.114-1.566 2.261-2.634 2.621-.212.071-.595.136-.986.167-.881.071-10.624.023-11.014-.054-.162-.032-.538-.179-.836-.327-1.115-.552-2.005-1.665-2.369-2.962-.077-.273-.114-.624-.138-1.313l-.034-.939.364-.039c.794-.085.986-.176 5.396-2.543 2.639-1.416 3.342-1.756 3.552-1.718.094.017.651.277 1.238.578" fill="#1B1A1A" fill-rule="evenodd"/></svg>