<svg width="32" height="32" xmlns="http://www.w3.org/2000/svg"><path d="m7.14 6.973 7.591 8.045c8.655 9.172 10.417 11.028 10.562 11.123.515.337 1.266.022 1.367-.573.085-.506.05-.551-1.656-2.143a5069.561 5069.561 0 0 1-9.818-9.205c-4.594-4.318-9.705-9.092-9.82-9.172-.068-.048.73.819 1.774 1.925m4.68-.056a7162.133 7162.133 0 0 1 9.102 9.805c3.136 3.385 5.81 6.247 5.942 6.36.424.363.893.336 1.262-.072.231-.256.303-.535.211-.813-.08-.244-.253-.41-4.168-4.009-1.745-1.604-4.142-3.81-5.327-4.902-3.487-3.213-6.382-5.864-6.833-6.256-.336-.292-.374-.315-.189-.113m5.718 1.808c.433.53 9.486 10.248 10.025 10.761.357.34.391.359.589.328.249-.04.578-.362.578-.567 0-.292-.153-.443-4.193-4.146a3230.317 3230.317 0 0 1-4.534-4.166c-2.243-2.068-2.638-2.422-2.465-2.21m-10.71 2.556c.156.172 2.081 2.25 4.279 4.618 2.197 2.368 5.268 5.682 6.825 7.364 3.169 3.424 4.176 4.473 4.418 4.6.215.112.67.071.873-.08.338-.25.498-.775.341-1.118-.036-.08-.553-.597-1.149-1.15-2.21-2.052-15.559-14.307-15.712-14.425-.087-.067-.031.019.125.191m16.58.14c.345.395 2.959 3.219 3.446 3.723.557.577.734.668.856.439.087-.162.027-.245-.607-.853-.643-.617-3.348-3.079-3.643-3.316l-.198-.159.146.166M8.697 16.887c.539.626 9.572 10.322 9.911 10.639.318.297.412.354.581.354.294 0 .588-.302.588-.604 0-.204-.044-.262-.609-.82-.583-.574-3.866-3.596-8.175-7.526a8842.981 8842.981 0 0 1-2.264-2.066l-.252-.232.22.255m2.753 5.531c.131.191 2.389 2.64 3.222 3.494.772.792.962.921 1.121.763.078-.078.076-.106-.019-.268-.058-.099-.82-.835-1.692-1.635-2.324-2.13-2.723-2.487-2.632-2.354" fill="#D84D4D" fill-rule="evenodd"/></svg>
