<svg xmlns="http://www.w3.org/2000/svg" xml:space="preserve" viewBox="0 0 32 32"><path fill-rule="evenodd" d="M8.652 4.196c-.321.113-.777.549-.956.914l-.149.303-.015 3.896-.015 3.896-.355.061c-1.397.24-2.485 1.681-2.339 3.101a3.018 3.018 0 0 0 1.657 2.41c.651.321 1.181.388 1.837.234.574-.136.999-.377 1.449-.822.423-.42.589-.683.744-1.176l.091-.293 2.797-.014 2.798-.014.09.326c.141.508.34.845.721 1.226.596.595 1.41.891 2.273.829.776-.056 1.387-.332 1.928-.874.351-.35.669-.911.741-1.306l.036-.2h.335c.712 0 1.936.483 2.419.953.436.425.514.625.514 1.314 0 .532-.013.614-.147.886-.211.43-.616.812-1.129 1.062-.543.266-.878.35-1.581.398l-.56.039-.202-.304c-.563-.849-1.407-1.306-2.407-1.306-.952 0-1.809.441-2.382 1.226l-.271.372h-1.866c-1.659 0-1.923.012-2.392.108-.81.165-1.569.463-2.097.824-.196.134-.222.139-.469.079-.538-.129-1.449.065-2.017.429-.335.215-.783.7-.974 1.052-.184.341-.359 1.01-.359 1.375 0 .152.047.462.106.689.31 1.212 1.274 2.045 2.534 2.188 1.063.121 2.311-.548 2.789-1.495.458-.908.469-1.973.028-2.734-.074-.128-.114-.252-.089-.277.025-.026.274-.111.552-.191.496-.142.542-.146 2.24-.165l1.733-.02.127.336c.404 1.072 1.38 1.763 2.593 1.839.888.056 1.611-.227 2.269-.886.307-.308.453-.507.612-.836l.208-.433.563-.032a6.857 6.857 0 0 0 1.095-.168c.659-.167 1.693-.666 2.12-1.025a3.847 3.847 0 0 0 1.272-2.02c.149-.559.164-1.597.032-2.103-.366-1.396-1.497-2.478-3.177-3.041-.72-.241-1.178-.319-1.868-.319h-.627l-.217-.267c-.595-.732-1.397-1.121-2.306-1.119-.962.002-1.829.421-2.296 1.109l-.186.274-3.138.001-3.138.002-.367-.387-.366-.387-.002-.622-.003-.623.194-.064c.107-.035 1.212-.655 2.456-1.378 2.415-1.404 2.626-1.557 2.884-2.082.292-.593.152-1.407-.318-1.851-.214-.202-4.601-2.822-4.906-2.93-.277-.098-.857-.091-1.151.013m2.665 3.123c.812.477 1.46.884 1.44.904-.052.05-3.308 1.964-3.342 1.964-.016 0-.028-.902-.028-2.003V6.181l.226.135 1.704 1.003m-3.232 7.876c.34.154.475.385.475.814 0 .414-.095.584-.432.777-.599.342-1.314-.085-1.314-.786 0-.681.645-1.089 1.271-.805m11.33.018c.334.169.489.45.465.844-.022.357-.17.592-.469.744-.404.206-.833.099-1.14-.285-.14-.175-.163-.248-.163-.516s.023-.341.163-.516c.314-.393.714-.488 1.144-.271m.214 6.51c.267.141.478.48.478.768 0 .382-.354.799-.761.898-.495.121-1.053-.355-1.053-.899 0-.287.211-.626.478-.767a.845.845 0 0 1 .858 0m-9.971 2.612c.401.27.539.763.334 1.195-.211.444-.86.606-1.29.322-.724-.479-.372-1.639.498-1.639.2 0 .328.034.458.122"/></svg>
