<svg width="32" height="32" xmlns="http://www.w3.org/2000/svg"><path d="M12.713 2.706a645.12 645.12 0 0 0-2.525 2.743L8.284 7.527l-.033.472c-.018.26-.073 1.123-.121 1.918-.048.794-.142 2.12-.208 2.946-.17 2.137-.169 2.183.046 2.494.097.14.3.459.45.708.151.249.938 1.446 1.748 2.66l1.473 2.206.276.907c.152.499.318.985.368 1.08.079.148.099.54.14 2.664.034 1.741.069 2.534.117 2.633.096.201.364.339 1.655.85 1.371.543 2.429.912 2.616.912.076 0 .36-.092.631-.205a68.72 68.72 0 0 1 1.343-.53c1.063-.408 2.646-1.072 2.716-1.14.033-.031.006-.101-.07-.182-.124-.132-.124-.144-.124-2.456V23.14l.342-1.091.343-1.09 1.839-2.759 1.839-2.758-.001-.624c0-.342-.038-1.069-.083-1.615-.085-1.019-.155-2.161-.256-4.193-.077-1.542-.116-1.765-.363-2.06-.671-.803-3.723-3.994-4.276-4.472l-.507-.438h-6.849l-.622.666m5.533.489c-1.188 1.154-3.979 3.729-4.082 3.766-.033.011-.054-.74-.054-1.97V3.003h4.333l-.197.192M20 4.93c.164.732.54 2.386.835 3.674.295 1.289.528 2.352.518 2.362-.016.016-2.452-.958-5.897-2.358-.49-.2-.892-.39-.892-.423-.001-.063 1.348-1.325 2.662-2.491.421-.374 1.132-1.018 1.582-1.432.45-.414.835-.732.856-.708.02.024.172.644.336 1.376m-7.137.793c0 1.635-.007 1.757-.099 1.758-.229.001-2.847-.538-2.847-.586 0-.065 2.836-2.928 2.9-2.928.026 0 .046.79.046 1.756m9.719.114c1.423 1.424 1.469 1.477 1.39 1.6a4284.112 4284.112 0 0 1-1.347 2.187c-.14.228-.275.394-.299.368-.025-.026-.318-1.271-.653-2.767-.334-1.496-.62-2.752-.635-2.791-.015-.039-.005-.071.022-.071s.712.663 1.522 1.474M10.57 8.215c1.768.335 1.865.355 1.908.392.022.02-.233.406-.566.86-.732.995-2.716 3.618-2.826 3.736-.067.072-.074.015-.047-.397.058-.872.254-4.455.254-4.638 0-.098.02-.178.044-.178.025 0 .579.101 1.233.225m13.935 2.835.121 2.097.03.538-.963-.992c-.897-.924-.958-.999-.884-1.105.043-.062.349-.551.679-1.086.33-.535.655-1.043.722-1.128l.122-.155.041.136c.023.075.082.838.132 1.695m-6.632-.288c1.462.594 2.671 1.093 2.687 1.109.072.073-.437.508-2.427 2.075-1.627 1.282-1.881 1.474-1.909 1.447-.012-.012-.109-.35-.215-.752-.106-.401-.463-1.647-.793-2.769-.329-1.122-.614-2.135-.633-2.252l-.034-.211.333.136 2.991 1.217m-4.471-1.03c.07.435 1.541 5.524 1.766 6.111.045.117-.043.106-1.205-.144-.978-.211-2.008-.391-3.917-.685l-.805-.124.081-.158c.045-.086.389-.549.765-1.027.564-.719 1.616-2.105 2.95-3.888.122-.163.247-.297.277-.297.03 0 .07.096.088.212m8.075 3.437c0 .106-.025.444-.056.751-.075.746-.219 2.998-.287 4.466-.03.653-.073 1.205-.097 1.227-.039.038-4.221-2.971-4.247-3.056-.016-.05.518-.469 2.335-1.836.81-.609 1.652-1.251 1.87-1.426.218-.175.416-.318.439-.318.024 0 .043.086.043.192m2.114.991c.489.495.889.936.889.98 0 .044-.117.27-.26.503-.471.767-1.799 2.774-1.82 2.752-.012-.011.005-.298.037-.637a61.03 61.03 0 0 0 .173-3.804c0-.382.021-.694.046-.694.026 0 .446.405.935.9m-13.09 2.072c.473.077 1.23.218 1.682.314 1.13.241 1.895.384 2.281.426.179.02.326.057.326.083 0 .062-2.659 2.835-2.718 2.835-.025 0-.287-.351-.581-.779-1.202-1.747-2.028-2.966-2.028-2.991 0-.047.157-.03 1.038.112m6.714 2.037c1.232.933 1.849 1.388 2.469 1.819.269.187.489.368.489.403 0 .034-.542.223-1.204.419-.662.196-1.931.584-2.819.862-2.177.68-2.38.735-2.38.644 0-.04.316-.72.702-1.512.386-.791.823-1.72.97-2.062.423-.981.646-1.398.724-1.354.038.022.51.373 1.049.781m-3.937 2.493c-.211.424-.4.771-.42.771-.042 0-.221-.451-.221-.556 0-.083.956-1.056.998-1.015.015.016-.145.376-.357.8m7.208 1.352-.184.581-1.92.009c-1.757.009-1.899.002-1.665-.074.484-.157 3.768-1.086 3.86-1.091.079-.005.066.079-.091.575m-.993 1.549c0 .139-.952 1.782-1.293 2.234a3.825 3.825 0 0 0-.26.442c-.154.305-.33.599-.901 1.501l-.315.499-.191-.3a55.354 55.354 0 0 1-.575-.94 12.907 12.907 0 0 0-.578-.893 1.781 1.781 0 0 1-.193-.286c0-.083-.448-.911-.827-1.53-.231-.377-.42-.703-.42-.723 0-.02 1.25-.037 2.777-.037 1.527 0 2.776.015 2.776.033m-5.877 1.596c.171.273.371.605.445.737l.134.242-.198.155a9.397 9.397 0 0 0-.433.368c-.228.209-.234.211-.268.086-.038-.142-.05-2.084-.013-2.084.013 0 .163.223.333.496m6.671.581c0 .661-.022 1.077-.056 1.077-.08 0-.851-.675-.851-.745 0-.033.134-.243.297-.467.164-.224.362-.528.44-.675a2.11 2.11 0 0 1 .155-.267c.008 0 .015.485.015 1.077m-1.094 1.635c.181.152.377.329.435.395.105.119.105.121-.028.17l-.475.178c-.187.071-.514.188-.726.261l-.385.133.038-.121c.09-.281.664-1.291.735-1.291.042 0 .225.124.406.275m-4.276-.079c.174.239.732 1.174.713 1.193-.025.025-1.581-.633-1.639-.692-.055-.057.62-.641.739-.639.049.001.133.063.187.138" fill="#FAF4F8" fill-rule="evenodd"/></svg>
