<svg xmlns="http://www.w3.org/2000/svg" viewBox="0 0 42 42">
  <path fill="#a12577" fill-rule="evenodd" d="M24.439 4.069c-.527.087-1.284.504-1.639.902-.162.182-.774 1.162-1.36 2.178a83 83 0 0 1-1.16 1.977c-.087.119-.131.066-.504-.615-.481-.881-.795-1.255-1.306-1.561-1.166-.697-2.615-.543-3.645.387-.294.265-1.414 2.092-2.841 4.633-1.063 1.894-1.064 1.896-1.064 2.072 0 .131-.051.158-.375.199-.875.109-1.761.771-2.153 1.609-.418.893-.418.889.176 5.08.291 2.06.575 3.893.629 4.075.078.262.081.345.012.402-.179.148-.329.645-.739 2.444-.303 1.333-.42 1.987-.42 2.349 0 1.522 1.141 2.804 2.635 2.96l.36.038.047.534c.127 1.462.78 2.51 1.914 3.07l.532.263h1.053c1.041 0 1.06-.003 1.527-.224.26-.123.645-.387.856-.586.724-.685 1.048-1.396 1.131-2.487l.046-.588h6.839v.417c0 1.367.755 2.629 1.929 3.225l.479.243h2.18l.488-.239c1.174-.575 1.921-1.794 1.923-3.138l.001-.508h.239c.378 0 1.081-.25 1.483-.527.369-.254.821-.779 1.035-1.203.193-.381.334-1.123.282-1.48-.027-.179-.357-1.228-.734-2.332l-.686-2.007.126-.338c.084-.228.27-1.613.568-4.247.496-4.377.497-4.399.069-5.268-.265-.538-.693-.931-1.367-1.255l-.495-.238-2.692-4.638c-1.617-2.785-2.797-4.742-2.953-4.9-.345-.348-.849-.595-1.395-.684-.499-.081-.51-.081-1.031.006m2.656 6.536 2.072 3.553c.017.028-1.358.052-3.056.052h-3.088l-.103-.262a17 17 0 0 0-.458-.964l-.354-.7.199-.494c.219-.546 2.618-4.727 2.698-4.701.027.009.968 1.591 2.09 3.516m-8.98 1.278 1.27 2.292-1.293.019c-.71.011-1.874.011-2.584 0l-1.293-.019 1.27-2.292c.698-1.261 1.29-2.293 1.315-2.293s.617 1.032 1.315 2.293m13.665 5.4c0 .122-.631 5.995-.669 6.22l-.037.227h-9.587c-5.273 0-9.587-.018-9.587-.04 0-.09-.844-6.167-.877-6.312l-.036-.158h10.397c6.138 0 10.396.026 10.396.063m-.48 11.172c.264.924.48 1.704.48 1.733 0 .028-4.66.052-10.356.052s-10.368-.024-10.383-.052c-.015-.029.147-.817.361-1.751l.388-1.697 9.515.017 9.516.018z"/>
</svg>
