<svg xmlns="http://www.w3.org/2000/svg" xml:space="preserve" viewBox="0 0 32 32"><path fill="#A12577" fill-rule="evenodd" d="M8.067 8.006c-.599.296-.828 1.01-.521 1.627.073.146.206.32.296.386.388.287.004.274 8.125.274 4.877 0 7.594-.019 7.719-.054.481-.133.85-.561.889-1.031.03-.369-.058-.633-.301-.903-.402-.446.346-.409-8.301-.41l-7.68-.002-.226.113M4.915 14.89c-.324.072-.775.512-.862.841-.157.591.215 1.261.796 1.435.291.087 22.011.087 22.302 0 .581-.174.953-.844.796-1.435-.094-.354-.534-.766-.902-.845-.361-.077-21.784-.074-22.13.004m3.363 6.895a1.165 1.165 0 0 0-.726.624c-.241.484-.151.989.241 1.362.38.36-.216.336 8.207.336s7.827.024 8.207-.336c.392-.373.482-.878.241-1.362a1.15 1.15 0 0 0-.747-.627c-.363-.109-15.073-.106-15.423.003"/></svg>
