<svg xmlns="http://www.w3.org/2000/svg" viewBox="0 0 32 32" xml:space="preserve"><path d="M8.067 8.006c-.599.296-.828 1.01-.521 1.627.073.146.206.32.296.386.388.287.004.274 8.125.274 4.877 0 7.594-.019 7.719-.054.481-.133.85-.561.889-1.031.03-.369-.058-.633-.301-.903-.402-.446.346-.409-8.301-.41l-7.68-.002-.226.113m-3.148 6.873c-.619.148-1.038.854-.872 1.471.075.28.396.652.67.776.208.095.646.098 11.283.098 10.637 0 11.075-.003 11.283-.098.274-.124.595-.496.67-.776.134-.498-.097-1.047-.564-1.335l-.261-.162-11.017-.008c-6.06-.004-11.096.011-11.192.034m3.414 6.879c-.475.114-.869.565-.908 1.039-.03.364.059.629.301.898.402.446-.342.409 8.274.409s7.872.037 8.274-.409c.517-.574.384-1.379-.298-1.8l-.261-.162-7.604-.008c-4.182-.005-7.683.01-7.778.033" fill="#A12577" fill-rule="evenodd"/></svg>