<svg width="32" height="32" xmlns="http://www.w3.org/2000/svg"><path d="M13.947 5.051c-.434.059-1.437.313-1.992.503-.754.259-1.649.686-2.215 1.058-.232.151-.437.256-.457.232a11.631 11.631 0 0 1-.181-.243 1.534 1.534 0 0 0-.383-.338c-.398-.233-.911-.211-2.399.102-.675.142-1.293.283-1.373.313-.23.086-.772.699-.851.962a2.753 2.753 0 0 0-.066.627c.001.391.013.425.526 1.555.385.848.587 1.227.757 1.421l.232.266-.158.347c-.471 1.039-.8 2.734-.8 4.117 0 1.216.245 2.634.643 3.726l.159.434-.133.296c-.117.261-.143.441-.219 1.52-.048.674-.074 1.336-.058 1.474.059.518.468 1.068.967 1.303.442.207.608.207 1.736-.002l1.036-.192.161.12a11.311 11.311 0 0 0 4.508 2.037c.677.136 2.163.286 2.225.224.069-.07-.159-.835-.339-1.135-.406-.677-.828-.962-1.767-1.193-1.053-.258-1.883-.603-2.709-1.124l-.329-.208.044-.2c.083-.378.368-2.6.368-2.87 0-.798-.676-1.521-1.501-1.606-.247-.025-.41.009-1.146.243-.472.151-.885.273-.917.273-.158 0-.551-1.688-.621-2.666-.038-.523.04-1.573.16-2.173.154-.767.636-2.061.885-2.372.056-.07.281-.118.953-.203.484-.061.94-.125 1.014-.141.389-.089.886-.532 1.075-.958.229-.519.182-1.029-.142-1.537l-.185-.289.306-.194c.168-.106.609-.345.98-.529.618-.307 1.011-.453 2.12-.786.892-.267 1.514-1.018 1.684-2.032l.033-.2-.736.008c-.404.005-.807.018-.895.03m2.726.154c.094.665.31 1.102.757 1.527.389.371.705.532 1.441.732.75.204 1.138.352 1.796.684.812.411.744.249.588 1.399-.164 1.205-.169 1.546-.024 1.866.159.353.603.78.943.908.429.16.709.136 1.548-.134.41-.132.757-.24.771-.24.045 0 .457.927.599 1.35.202.603.34 1.302.409 2.08a8.785 8.785 0 0 1-.41 3.403l-.135.407-.465.058c-.255.032-.836.097-1.291.144-.455.047-.911.107-1.014.133-.642.164-1.151 1.081-1.011 1.821.038.2.175.469.503.985l.451.708-.489.327c-.866.579-1.796 1-2.831 1.282-.325.088-.707.223-.848.3-.297.162-.707.578-.908.922-.145.247-.306.777-.306 1.004V27l.893-.028c.99-.032 1.572-.142 2.615-.493.969-.326 2.285-1.017 3.094-1.624.124-.093.188-.114.215-.07.064.104.321.175.637.175.249 0 2.149-.359 2.85-.539.292-.075.631-.36.786-.66.122-.237.136-.327.136-.853v-.588l-.524-1.159-.525-1.159.185-.521c.389-1.099.569-2.194.569-3.454 0-1.657-.311-3.1-.971-4.513l-.237-.508.124-.156c.23-.289.282-.571.373-2.02l.088-1.39-.118-.305c-.213-.554-.793-1.004-1.402-1.088-.174-.024-.588.031-1.462.193-.671.124-1.325.257-1.454.295-.223.065-.245.061-.485-.086-1.227-.756-3.182-1.325-4.865-1.417l-.625-.035.029.208M7.977 8.916l.394.569-.145.028c-.344.066-1.304.2-1.319.184-.041-.042-.506-1.129-.49-1.145.029-.029 1.017-.221 1.095-.213.039.004.249.264.465.577m16.873-.209a4.374 4.374 0 0 1-.04.593l-.037.207-.658.21c-.363.116-.669.2-.682.187-.027-.027.186-1.381.224-1.419.023-.023.806-.135 1.103-.158.081-.006.093.043.09.38m-9.777-.168c-.336.079-.814.363-1.068.634-.236.253-.512.725-.512.878 0 .046-.144.153-.333.248-.827.414-1.616 1.11-2.007 1.771-.58.981-.679 2.214-.272 3.399l.157.457-.118.29c-.104.256-.118.389-.119 1.117-.001.77.01.86.154 1.299.339 1.037 1.172 1.911 2.142 2.252l.271.094.063.367c.142.828.65 1.426 1.438 1.691.277.094.46.111 1.178.111 1.193 0 1.665-.159 2.212-.744a1.95 1.95 0 0 0 .552-1.245l.029-.388.39-.206c.41-.217 1.037-.738 1.402-1.165 1.101-1.288 1.274-3.278.404-4.658-.164-.26-.169-.284-.117-.56.068-.366.016-1.337-.095-1.764a3.85 3.85 0 0 0-.685-1.334c-.291-.358-.863-.799-1.238-.956-.237-.099-.29-.151-.414-.404a2.27 2.27 0 0 0-1.439-1.169c-.313-.083-1.642-.093-1.975-.015m1.682 2.58c.025.686.089.754.818.856.657.091.932.246 1.161.653.129.231.163.363.186.734l.028.451h-.16c-.088 0-.313-.069-.501-.154-.272-.123-1.282-.379-1.494-.379-.026 0-.046.3-.046.666 0 .648.003.666.12.688 1.502.282 2.175.631 2.503 1.298.156.317.177.41.176.787 0 .358-.025.482-.155.763-.267.581-.873 1.046-1.793 1.374-.811.29-.917.455-.948 1.477l-.022.734h-.948v-1.848l-.721-.089c-.853-.104-1.163-.221-1.469-.553-.281-.305-.373-.532-.409-1.014l-.03-.39h.158c.087 0 .409.094.715.208a6.51 6.51 0 0 0 1.116.297c.308.05.602.102.653.116.086.024.094-.033.094-.693v-.719l-.174-.055a12.807 12.807 0 0 0-.602-.163c-.501-.125-1.263-.465-1.51-.672a1.676 1.676 0 0 1-.317-.419c-.13-.246-.144-.328-.144-.833 0-.487.017-.595.131-.826.328-.666 1.239-1.175 2.309-1.29l.307-.033v-1.478h.949l.019.506m-1.448 2.224c-.24.068-.355.174-.427.389-.114.348.132.591.707.696l.2.037V13.28l-.147.005a1.655 1.655 0 0 0-.333.058m1.28 3.617c0 .352.018.64.04.64.161-.001.444-.132.57-.264.177-.184.255-.629.129-.733-.073-.06-.624-.283-.699-.283-.022 0-.04.288-.04.64m-8 4.141c0 .07-.221 1.324-.236 1.339a4.536 4.536 0 0 1-.463.094c-.247.043-.514.092-.595.11l-.146.031.003-.391c.001-.215.019-.483.04-.597l.037-.206.64-.203c.699-.222.72-.227.72-.177m16.766.72c.137.298.243.546.235.553-.008.006-.272.059-.586.117l-.571.104-.388-.564c-.213-.31-.383-.576-.377-.591.01-.023.92-.13 1.299-.152.126-.007.162.042.388.533" fill="#A12577" fill-rule="evenodd"/></svg>
