<svg width="32" height="32" xmlns="http://www.w3.org/2000/svg"><path d="M14.822 3.933c-1.94.275-3.608.876-5.048 1.819-3.342 2.19-5.298 5.688-5.414 9.684-.045 1.52.104 2.597.58 4.199.263.888.321 1.146.394 1.759.14 1.166.043 1.92-.547 4.285-.245.98-.434 1.792-.421 1.805.012.013.726-.187 1.586-.443 1.95-.583 2.247-.645 3.095-.645.762 0 1.308.093 2.008.343 2.654.946 3.356 1.09 5.308 1.09 1.254.001 1.801-.06 2.757-.303a12.091 12.091 0 0 0 5.486-3.051c1.966-1.897 3.207-4.317 3.578-6.974.113-.811.114-2.5.003-3.301-.413-2.954-1.908-5.679-4.145-7.553-1.646-1.378-3.452-2.222-5.644-2.638-.796-.152-2.753-.193-3.576-.076m2.366 1.955c2.493.216 4.607 1.233 6.352 3.058a9.196 9.196 0 0 1 1.649 2.348c.755 1.499 1.06 2.766 1.067 4.436.007 1.69-.247 2.892-.917 4.345-.729 1.578-2.049 3.102-3.559 4.105-1.579 1.05-3.255 1.594-5.088 1.652-1.525.048-2.616-.141-4.231-.733-1.622-.595-2.571-.775-3.766-.715a9.557 9.557 0 0 0-1.101.117c-.225.045-.418.073-.43.062-.011-.012.017-.219.063-.461.15-.794.209-1.803.147-2.522-.075-.863-.179-1.392-.471-2.404-.503-1.738-.637-2.788-.526-4.098.212-2.486 1.098-4.481 2.75-6.189 1.914-1.979 4.084-2.897 7.208-3.049.106-.005.49.017.853.048m-1.64.737a3.044 3.044 0 0 0-1.853 1.528c-.121.242-.22.472-.22.511 0 .039-.183.171-.407.294-1.271.698-2.181 1.864-2.517 3.224-.172.7-.172 1.79.001 2.437.142.533.315.94.59 1.394l.199.327-.294 1.056c-.277.998-.293 1.092-.292 1.689.002.763.102 1.2.438 1.898.399.827 1.035 1.496 1.764 1.857l.335.165.117.396a2.396 2.396 0 0 0 1.508 1.568c.292.103.453.111 2.214.111h1.899v-2.348l.232-.105c.352-.158.856-.496 1.236-.828 1.167-1.02 1.801-2.571 1.704-4.167-.093-1.537-.703-2.722-1.88-3.658-.211-.169-.392-.326-.4-.35-.009-.024.135-.158.319-.296.778-.585 1.15-1.251 1.51-2.701.137-.552.249-1.017.249-1.032 0-.068-1.994-1.004-2.453-1.152l-.5-.161-.067-.25c-.142-.532-.602-1.056-1.153-1.315-.288-.135-.368-.145-1.162-.156-.585-.007-.935.013-1.117.064m1.511 1.991c.084.076.101.177.101.601 0 .467.012.524.141.677a.549.549 0 0 0 .316.192c.712.102 1.018.171 1.537.346.325.11.591.227.591.26 0 .152-.338.74-.53.924-.266.255-.726.465-1.12.512-.166.02-.55.009-.853-.024-1.066-.117-1.83.095-2.061.572-.365.754.083 1.181 2.034 1.936 1.634.633 2.493 1.33 2.835 2.301.125.353.168 1.248.083 1.694-.209 1.085-1.017 1.936-2.285 2.407-.686.254-.763.379-.798 1.288l-.027.716h-.755c-1.011 0-.999.011-1.024-.937l-.018-.686h-.157c-.299 0-.951-.167-1.218-.312-.36-.196-.79-.663-.967-1.049-.149-.326-.234-1.052-.158-1.355l.034-.137.454.213c1.578.739 3.352.791 3.962.116.347-.384.315-.873-.084-1.307-.259-.28-.792-.555-1.692-.873-1.553-.549-2.363-1.145-2.797-2.057-.179-.375-.196-.457-.218-1.026-.02-.517-.005-.681.091-.997.309-1.016 1.215-1.829 2.429-2.179l.468-.134.027-.598c.023-.51.046-.624.155-.776.21-.294.451-.387 1.023-.394.282-.004.407.019.481.086" fill-rule="evenodd" fill="#000"/></svg>
