<svg xmlns="http://www.w3.org/2000/svg" viewBox="0 0 20 18">
    <path fill="#A12577" fill-rule="evenodd" d="M10.467.545c0 .15.114.587.194.745.184.36.532.703.906.893.083.043.353.129.6.193 2.059.533 3.677 1.846 4.601 3.732 1.548 3.161.532 6.899-2.401 8.835-.67.442-1.311.724-2.182.961-.477.13-.704.254-.961.527-.312.331-.522.826-.524 1.23v.145l.325-.022c2.293-.153 4.208-1.028 5.778-2.638a8.267 8.267 0 0 0 1.547-2.196c.397-.808.62-1.499.788-2.433.07-.387.078-.535.078-1.384.001-.998-.017-1.199-.17-1.9a9.313 9.313 0 0 0-1.109-2.716c-1.154-1.836-2.991-3.205-5.054-3.764-.714-.194-1.569-.32-2.175-.32h-.241v.112M9.133.556C6.926.657 4.86 1.603 3.283 3.237 1.965 4.602 1.151 6.33.914 8.268c-.081.658-.052 1.742.064 2.399A8.647 8.647 0 0 0 3.367 15.3 8.59 8.59 0 0 0 8 17.734c.38.068 1.536.152 1.626.117.104-.04-.064-.679-.256-.98-.151-.235-.492-.548-.727-.666a4.94 4.94 0 0 0-.715-.235c-1.359-.349-2.463-.984-3.382-1.945-1.519-1.59-2.208-3.728-1.893-5.875a6.953 6.953 0 0 1 1.956-3.856C5.521 3.388 6.57 2.801 7.9 2.45c.528-.14.725-.246 1.002-.541.234-.25.405-.589.479-.949.063-.312.066-.429.011-.42-.023.003-.14.011-.259.016m.784 4.089c-.207.096-.317.284-.317.544a.566.566 0 0 1-.213.459 1.806 1.806 0 0 1-.42.166c-.44.124-.758.289-1.022.531-.25.229-.506.596-.611.877-.235.629-.13 1.387.25 1.808.173.191.499.444.709.55.203.103.802.28 1.307.387 1.072.227 1.367.368 1.367.652 0 .11-.148.253-.322.31-.327.109-1.057.078-1.628-.067-.368-.094-.758-.076-1.025.046-.315.145-.52.368-.755.824-.113.218-.194.403-.179.411.091.054 1.27.37 1.642.441.247.047.502.112.567.145.163.084.253.232.276.453.022.213.097.362.234.465.134.099.684.119.854.03.187-.098.241-.204.271-.525.041-.456.087-.506.671-.73.423-.163.642-.304.964-.622.226-.222.317-.342.425-.557.419-.835.363-1.508-.175-2.072a2.189 2.189 0 0 0-.782-.54 21.815 21.815 0 0 0-1.172-.318 17.773 17.773 0 0 1-1.107-.302c-.165-.071-.237-.156-.233-.275.004-.153.066-.237.231-.309.173-.077.469-.088 1.193-.045.49.029.699-.008 1.077-.188.254-.12.614-.45.763-.699.173-.289.174-.278-.059-.396-.243-.123-.774-.3-1.132-.379-.434-.095-.555-.21-.6-.574-.029-.233-.087-.342-.245-.461-.075-.055-.15-.07-.398-.077-.207-.006-.339.006-.406.037"/>
</svg>
