<svg xmlns="http://www.w3.org/2000/svg" viewBox="0 0 20 18">
    <path fill="#A12577" fill-rule="evenodd" d="M8.495.501a8.347 8.347 0 0 0-2.345.767 9.88 9.88 0 0 0-.814.447c-.282.187-.336.211-.336.154 0-.06-.367-.428-.479-.481-.145-.069-.602-.12-.79-.087-.694.119-2.12.441-2.216.5a2.107 2.107 0 0 0-.312.287c-.264.288-.32.45-.318.912l.002.35.392.867c.307.677.435.921.586 1.117l.193.251-.076.17a8.191 8.191 0 0 0-.618 2.454c-.057.614-.023 1.76.067 2.291.092.537.233 1.096.388 1.526l.122.341-.075.175c-.123.286-.13.333-.201 1.368-.063.921-.064 1.008-.015 1.199.103.401.368.725.735.897.34.159.491.158 1.396-.008l.785-.144.142.107a8.622 8.622 0 0 0 4.351 1.723c.252.027.567.049.701.049h.243l-.021-.125c-.079-.473-.276-.871-.581-1.176-.297-.296-.513-.401-1.155-.56a6.896 6.896 0 0 1-2.13-.921c-.175-.112-.175-.112-.146-.24.076-.334.303-2.2.291-2.392-.037-.58-.598-1.128-1.205-1.177-.188-.015-.272.004-.914.21-.389.125-.715.22-.723.211-.044-.043-.291-.981-.357-1.352-.109-.616-.109-1.64.001-2.259.126-.71.289-1.219.578-1.802.091-.183.169-.337.174-.342.004-.005.35-.053.769-.107.669-.086.786-.11.967-.199.525-.258.841-.9.72-1.461a1.512 1.512 0 0 0-.187-.407l-.151-.236.258-.166c.607-.391 1.326-.708 2.144-.945.579-.168.789-.282 1.073-.585.279-.297.525-.848.525-1.176V.433l-.541.003a5.328 5.328 0 0 0-.897.065m2.306.002c.001.184.106.563.22.795.168.34.505.676.846.842.137.066.425.167.638.224.647.17 1.2.394 1.753.71.202.115.242.152.242.224 0 .047-.045.415-.1.819-.055.403-.1.826-.1.94 0 .305.099.537.34.795.266.284.535.42.869.438.222.012.289-.002.851-.185l.609-.198.111.222c.267.533.495 1.249.605 1.904.029.174.061.594.071.934a6.425 6.425 0 0 1-.157 1.733c-.082.35-.265.933-.294.934l-1.107.13c-1.194.141-1.256.158-1.496.405-.297.306-.445.871-.333 1.275.019.07.179.355.355.632.176.278.325.529.332.557.015.064-.367.339-.848.607-.584.327-1.021.503-1.77.714-.542.153-.705.239-.992.526-.334.334-.577.851-.579 1.232v.096l.625-.017c.658-.019 1.073-.085 1.758-.281a9.176 9.176 0 0 0 2.639-1.282c.26-.187.344-.227.344-.167 0 .057.19.113.434.128.217.014.371-.01 1.176-.186.51-.112.96-.203 1-.203.129-.001.416-.157.568-.309.236-.236.296-.444.283-.974l-.011-.434-.407-.897-.406-.897.163-.486c.338-1.009.451-1.785.424-2.92-.017-.703-.054-1.042-.175-1.6a8.674 8.674 0 0 0-.639-1.83l-.132-.263.111-.164c.06-.09.133-.241.161-.335.062-.209.196-2.069.167-2.315-.064-.533-.569-1.018-1.16-1.117-.189-.031-.275-.021-.99.119-.431.084-.886.169-1.011.188-.125.02-.284.056-.353.079-.121.042-.134.039-.372-.099-1.079-.622-2.498-1.028-3.842-1.1L10.8.423l.001.08M3.975 3.512c.164.236.285.44.27.454-.048.044-1.079.181-1.109.148-.027-.03-.403-.878-.392-.884a8.37 8.37 0 0 1 .853-.152c.064.004.145.098.378.434m13.276-.237-.036.458-.02.25-.508.159a9.02 9.02 0 0 1-.542.158c-.026 0 .106-1.084.137-1.125.01-.013.728-.101.861-.105l.126-.003-.018.208M9.6 3.217c-.585.132-1.088.572-1.253 1.095-.053.168-.064.179-.304.303-.664.342-1.244.855-1.555 1.376-.479.805-.551 1.777-.204 2.771l.108.313-.078.171c-.115.252-.159.605-.136 1.087.023.484.104.841.273 1.197.316.667.835 1.149 1.545 1.437l.217.088.044.264c.119.71.603 1.237 1.284 1.397.281.067 1.258.067 1.569.002.3-.064.627-.229.843-.426.338-.309.505-.658.542-1.125l.022-.283.25-.135c.379-.203.548-.33.9-.679.675-.668.956-1.288.991-2.18.029-.768-.109-1.322-.457-1.84-.079-.117-.086-.149-.059-.267.016-.073.023-.395.014-.716-.012-.464-.03-.634-.087-.828-.225-.774-.823-1.465-1.544-1.784-.168-.074-.189-.097-.286-.303-.189-.405-.601-.756-1.062-.906-.233-.076-1.283-.095-1.577-.029m1.267 1.986c0 .372.048.528.192.623.045.029.262.08.481.112.545.08.738.2.935.575.058.111.075.21.086.516l.013.379-.112-.016a2.479 2.479 0 0 1-.4-.138c-.239-.1-.986-.287-1.15-.287-.036 0-.045.104-.045.529v.529l.325.058c.874.156 1.483.479 1.719.912.119.219.2.603.172.821-.089.711-.573 1.201-1.531 1.548-.425.155-.567.257-.672.482-.074.158-.079.211-.08.729v.558h-.733v-1.49l-.285-.024c-.813-.066-1.153-.166-1.429-.42-.238-.219-.332-.447-.348-.84l-.013-.326h.099c.054 0 .292.074.529.163.312.119.549.183.863.234.239.039.475.08.525.09l.092.019V9.405l-.175-.05a20.568 20.568 0 0 0-.458-.12c-.356-.09-1.046-.419-1.196-.571-.179-.182-.308-.496-.329-.8-.049-.709.239-1.192.901-1.513.31-.15.708-.264 1.063-.304l.194-.022v-.557c0-.306.01-.567.022-.579.012-.012.185-.022.384-.022h.361v.336M9.736 7.019c-.184.058-.293.159-.34.314-.047.156.026.342.161.412.082.042.462.155.523.155.011 0 .02-.21.02-.467v-.466l-.108.003c-.06.002-.175.024-.256.049m.997 2.852v.504l.142-.022c.167-.027.378-.163.44-.284a.955.955 0 0 0 .067-.223c.019-.116.01-.151-.055-.223-.072-.08-.45-.256-.549-.256-.035 0-.045.107-.045.504m-6.356 3.787c-.067.42-.098.544-.14.555-.119.032-.908.161-.917.149-.021-.023.049-.877.073-.901a14.922 14.922 0 0 1 1.063-.347c.004.002-.032.247-.079.544m13.428.48c-.034.034-.83.172-.88.153-.057-.022-.636-.858-.611-.883.01-.01.262-.043.561-.074l.542-.055.204.419c.113.23.196.428.184.44"/>
</svg>
