<svg width="32" height="32" xmlns="http://www.w3.org/2000/svg"><path d="M17.051 4.221c.002.649.415 1.437 1.013 1.93.302.25.585.373 1.347.584 1.087.302 1.982.748 2.928 1.46 1.897 1.425 3.187 3.525 3.685 5.995.111.55.128.794.128 1.87 0 1.071-.017 1.321-.126 1.861-.726 3.594-3.188 6.35-6.556 7.335-.318.093-.698.23-.846.304-.62.31-1.129 1.082-1.254 1.898-.035.234-.054.435-.041.447.058.052 1.4-.089 2.001-.211 4.241-.859 7.71-4.293 8.779-8.691.648-2.669.448-5.395-.575-7.848-1.334-3.196-3.948-5.627-7.136-6.637-.909-.289-2.195-.503-3.016-.503h-.332l.001.206m-2.641.042c-5.641.774-9.9 5.869-9.9 11.843 0 4.152 1.992 7.919 5.363 10.144 1.637 1.081 3.762 1.745 5.58 1.745h.545l-.028-.206c-.165-1.197-.878-2.034-1.959-2.301a11.948 11.948 0 0 1-1.829-.627c-2.241-1.032-4.088-3.149-4.916-5.638-.404-1.214-.468-1.637-.471-3.136-.002-1.065.017-1.415.097-1.814.4-1.978 1.247-3.64 2.535-4.97 1.231-1.271 2.532-2.038 4.268-2.513.64-.175.879-.31 1.256-.708.412-.436.724-1.185.724-1.74V4.18l-.371.006a9.294 9.294 0 0 0-.894.077m2.015 5.529c-.333.099-.469.307-.532.81-.061.493-.192.618-.878.838-.544.175-.982.42-1.308.732-.24.23-.599.787-.731 1.135-.246.649-.243 1.508.009 2.093.134.311.837 1.023 1.185 1.2.276.141 1.315.458 1.917.587.888.189 1.195.302 1.416.523.114.114.207.245.207.292 0 .156-.278.419-.513.487-.402.116-1.258.075-1.954-.092-.916-.219-1.405-.117-1.925.402-.257.257-.772 1.252-.688 1.33.089.082 1.478.487 2.083.607.332.066.688.17.79.233.206.126.337.383.337.664 0 .216.191.526.387.63.087.045.288.065.561.055.393-.015.439-.029.598-.188.153-.153.177-.221.217-.619.06-.603.142-.708.726-.93.607-.23 1.036-.514 1.453-.962.392-.42.633-.883.797-1.533.101-.4.107-.495.05-.84-.091-.554-.269-.898-.679-1.317-.531-.541-.626-.579-3.189-1.273-.641-.173-.778-.229-.894-.367-.16-.189-.164-.218-.057-.424.156-.301.308-.323 1.955-.279.616.016.979-.075 1.43-.36.285-.18.749-.694.891-.988.122-.251.123-.259.022-.334-.189-.137-.885-.402-1.494-.568-.742-.201-.869-.313-.926-.822-.027-.242-.077-.383-.177-.501-.207-.247-.679-.343-1.086-.221" fill="#A12577" fill-rule="evenodd"/></svg>
