<svg width="32" height="32" xmlns="http://www.w3.org/2000/svg"><path d="m14.987 4.834-.614.078c-1.434.175-3.092.796-4.364 1.634-1.648 1.084-2.904 2.528-3.795 4.361-.96 1.973-1.254 3.176-1.254 5.125 0 1.931.293 3.215 1.117 4.901 1.093 2.235 2.717 3.862 4.994 5.002 1.804.903 3.665 1.288 5.592 1.159 1.316-.089 2.307-.309 3.364-.748.293-.122.6-.246.682-.276.132-.049.141-.066.075-.143-.04-.048-.267-.459-.504-.914a71.999 71.999 0 0 0-.636-1.2l-.205-.373-.72-.413-.719-.413-.56.109c-2.143.416-4.366-.099-6.187-1.433a9.655 9.655 0 0 1-.889-.78c-.269-.268-.475-.462-.458-.432.297.514.957 1.295 1.475 1.745 1.079.935 2.311 1.616 3.832 2.12a5.9 5.9 0 0 1 .52.186c0 .021-.575-.022-1.048-.079-1.525-.184-3.242-.993-4.552-2.144-2.242-1.972-3.355-5.231-2.77-8.11.301-1.479 1.067-3.018 2.083-4.182 1.075-1.233 2.944-2.323 4.538-2.648.556-.113 2.006-.207 2.544-.165 1.873.148 3.803.967 5.072 2.153l.293.274-.426-.314a9.421 9.421 0 0 0-1.654-.996c-.735-.343-.818-.337-.144.011 2.212 1.142 3.734 3.095 4.251 5.458.117.536.164 1.926.084 2.524-.08.6-.271 1.335-.486 1.866l-.169.417.125.235c.327.616.427.691 2.157 1.604l.644.34.166-.52c.5-1.56.573-2.038.571-3.773-.001-1.37-.008-1.474-.149-2.133-.426-1.996-1.247-3.619-2.607-5.154-.419-.473-1.57-1.517-2.097-1.903a10.816 10.816 0 0 0-5.057-2.01c-.577-.071-1.761-.097-2.115-.046m.746 6.225v.607l-.253.034c-.702.095-1.407.48-1.806.988-.335.425-.463.788-.463 1.312 0 .597.145.954.54 1.336.36.348.598.471 1.342.697l.56.17.015.885.015.885h-.125c-.407 0-1.279-.311-1.756-.627-.112-.074-.211-.125-.219-.114-.009.012-.144.307-.3.657-.33.738-.364.645.37 1.015a5.299 5.299 0 0 0 1.694.486l.333.037v1.106H16.743l.015-.597.015-.597.369-.068c.845-.155 1.582-.69 1.913-1.388.156-.331.172-.408.171-.87-.002-.678-.128-.97-.582-1.347-.376-.314-.667-.456-1.351-.659l-.493-.146v-1.796l.147.03c.406.085.663.166 1.041.326l.416.176.046-.118c.025-.066.096-.245.158-.399l.218-.546.105-.266-.264-.135c-.531-.268-1.319-.504-1.694-.506H16.8v-1.174H15.733v.606m-.053 2.78v.772l-.132-.05c-.5-.19-.668-.366-.668-.699 0-.258.143-.463.441-.634a1.99 1.99 0 0 1 .319-.161c.022 0 .04.347.04.772m1.44 2.721c.306.155.391.286.391.6 0 .311-.225.548-.644.677l-.12.037v-.724c0-.462.02-.723.055-.723.03 0 .173.06.318.133m3.867 2.493-.587 1.076-1.057.57-1.057.57.897.492 1.091.599a.897.897 0 0 1 .3.3l.599 1.091.493.898.599-1.084.599-1.085 1.033-.574a25.322 25.322 0 0 0 1.074-.616c.024-.023-.452-.315-1.058-.648-1.247-.687-1.079-.518-1.833-1.859-.249-.444-.465-.807-.48-.806-.015 0-.291.484-.613 1.076" fill="#A12577" fill-rule="evenodd"/></svg>
