<svg xmlns="http://www.w3.org/2000/svg" viewBox="0 0 21 21">
    <path fill-rule="evenodd" d="M10.15.758c-1.532.147-2.754.488-3.963 1.105a10.019 10.019 0 0 0-4.939 5.785 9.763 9.763 0 0 0-.502 2.907c-.038 1.332.091 2.179.58 3.813.198.664.255 1.027.274 1.767.024.912-.021 1.198-.48 3.042a48.85 48.85 0 0 0-.376 1.564c.006.006.641-.178 1.41-.408.769-.23 1.54-.445 1.714-.477.414-.077 1.251-.076 1.68.002.43.077.662.147 1.435.433.703.26 1.222.416 1.767.532.726.154 1.005.177 2.166.177.96 0 1.175-.01 1.532-.071 4.025-.686 7.297-3.714 8.251-7.636.36-1.482.389-2.954.087-4.473a10.493 10.493 0 0 0-1.219-3.15C17.705 2.572 14.426.711 10.885.741c-.337.003-.668.01-.735.017m1.356 1.707c.217.01.58.05.806.089 3.539.603 6.258 3.362 6.871 6.968.106.626.118 1.969.023 2.572a8.398 8.398 0 0 1-.779 2.484c-1.279 2.614-3.842 4.411-6.772 4.745-.446.051-1.432.022-1.96-.057-.775-.117-1.317-.265-2.24-.611-.893-.336-1.309-.443-2.03-.527-.504-.058-1.484-.023-1.94.07a2.268 2.268 0 0 1-.362.057.738.738 0 0 1 .027-.212 8.03 8.03 0 0 0 .164-1.474c.033-.996-.074-1.751-.409-2.884-.35-1.183-.458-1.849-.458-2.812 0-.913.091-1.576.335-2.431.372-1.306 1.034-2.44 2.013-3.45 1.236-1.276 2.66-2.047 4.393-2.38.66-.127 1.429-.199 1.82-.172.057.004.282.015.498.025m-1.163.597c-.852.188-1.566.814-1.839 1.613-.071.206-.073.209-.376.374-.986.539-1.719 1.4-2.052 2.406-.264.799-.27 1.826-.016 2.653.081.264.331.781.487 1.007a.734.734 0 0 1 .103.185c0 .019-.101.397-.225.84-.265.947-.317 1.304-.263 1.823.089.87.457 1.642 1.074 2.254.317.314.486.437.829.604l.242.117.064.252c.166.656.663 1.18 1.343 1.418l.279.098 1.583.012 1.584.013v-1.009l.001-1.009.327-.17c1.642-.848 2.555-2.594 2.328-4.45-.144-1.181-.675-2.1-1.648-2.854l-.305-.236.238-.178a3.43 3.43 0 0 0 1.029-1.26c.083-.181.567-1.963.539-1.987l-.682-.343c-.734-.366-1.055-.504-1.509-.649l-.294-.093-.073-.225a1.784 1.784 0 0 0-1.284-1.204c-.283-.067-1.186-.068-1.484-.002m1.188 1.741c.041.059.054.172.054.476 0 .602.074.708.525.758.46.05.801.136 1.359.342.334.123.33.11.148.503a1.418 1.418 0 0 1-.522.605c-.35.224-.378.229-1.492.23-.989 0-1.021.003-1.225.084-.474.19-.69.612-.512 1.003.143.315.62.597 1.772 1.049.726.285 1.112.484 1.5.775.352.264.569.522.759.905.326.654.326 1.548 0 2.24-.327.695-.855 1.147-1.71 1.465-.395.147-.535.249-.641.467-.071.147-.083.233-.095.701l-.015.534H10.18l-.103-.102-.102-.103v-1.16h-.137c-.251 0-.79-.13-1.02-.246-.438-.221-.811-.688-.961-1.202-.059-.205-.066-.86-.009-.917.014-.014.166.039.337.119 1.865.867 3.728.608 3.597-.5-.057-.484-.485-.8-1.632-1.206-1.855-.657-2.625-1.464-2.625-2.75 0-1.305.854-2.243 2.406-2.642l.149-.039v-.437c0-.473.027-.583.191-.778.177-.209.3-.249.778-.25.402-.002.43.002.482.076"/>
</svg>
