<svg xmlns="http://www.w3.org/2000/svg" viewBox="0 0 42 42">
  <path fill="#a12577" fill-rule="evenodd" d="M23.668 7.076c-.467.091-1.152.438-1.5.76-.651.599-.679.688-2.363 7.366a655 655 0 0 1-1.562 6.129c-.019.019-.281-.841-.623-2.046-.21-.741-.897-1.542-1.612-1.881-.486-.23-1.166-.346-1.678-.287-.929.108-2.019.902-2.477 1.807-.607 1.197-6.762 14.625-6.818 14.873-.131.587.224 1.227.875 1.576l.285.152h29.47l.312-.175c.39-.219.692-.688.746-1.159.038-.328-.205-1.002-4.659-12.911-3.512-9.39-4.763-12.658-4.951-12.933-.677-.993-2.132-1.529-3.445-1.271m.976 3.092c.039.086 1.94 5.166 4.225 11.287l4.154 11.13-12.078.018c-6.643.009-12.089.007-12.102-.006-.029-.03 5.708-12.308 5.793-12.397.034-.036.076-.052.093-.035s.334 1.039.705 2.271.743 2.377.827 2.545c.224.445.695.901 1.154 1.116.341.161.492.188 1.03.187.545 0 .677-.025.983-.186.447-.235.888-.711 1.03-1.112.061-.171.937-3.587 1.946-7.591 1.01-4.004 1.849-7.304 1.865-7.332.063-.113.308-.045.375.105"/>
</svg>
