<svg width="32" height="32" xmlns="http://www.w3.org/2000/svg"><path d="M12.349 5.338c-1.197.178-2.26.827-3.004 1.835-.313.424-.512.827-.691 1.398l-.147.469-.027 7.147-.027 7.146-.128.32c-.419 1.05-1.583 1.173-2.016.213-.09-.2-.097-.603-.122-6.693-.027-6.361-.029-6.483-.134-6.657-.157-.26-.405-.391-.802-.423-.646-.052-1.064.185-1.197.677-.039.147-.052 2.211-.041 6.681.014 5.968.022 6.493.108 6.78.29.97.902 1.75 1.662 2.116.237.114.55.235.697.269.373.086 1.224.086 1.572 0 1.198-.297 2.048-1.21 2.465-2.649l.121-.42.029-7.12c.023-5.476.045-7.166.096-7.316.276-.813 1.026-1.456 1.856-1.592.42-.069 10.822-.069 11.242 0a2.338 2.338 0 0 1 1.899 1.874c.041.237.053 1.959.04 5.674-.017 5.194-.02 5.343-.128 5.733-.225.819-.53 1.413-1.021 1.989-.669.785-1.495 1.3-2.563 1.599-.397.11-.527.114-4.728.143-3.114.021-4.359.046-4.458.091-.311.14-.528.553-.528 1.005 0 .537.263.919.712 1.032.316.08 7.731.085 8.522.006 1.89-.188 3.543-1.075 4.8-2.575.672-.802 1.182-1.868 1.441-3.011.117-.514.118-.575.137-6.027.021-6.084.024-6.029-.312-6.898-.413-1.073-1.391-2.075-2.441-2.501-.901-.366-.434-.342-6.806-.352-3.168-.006-5.903.011-6.078.037m.564 5.443c-.27.078-.428.2-.536.414-.337.664-.084 1.489.506 1.653.287.079 10.684.082 10.972.002.276-.077.541-.323.616-.574.14-.469.029-1.063-.247-1.308-.277-.247-.202-.243-5.824-.241-3.27.002-5.376.023-5.487.054m-.086 3.843c-.396.139-.577.451-.581 1.003-.004.517.138.796.497.973l.244.12h10.826l.238-.133c.355-.2.456-.412.456-.96 0-.55-.116-.784-.473-.957-.226-.109-.271-.11-5.638-.106-3.624.003-5.462.023-5.569.06m-.082 4.163c-.295.149-.453.38-.5.732-.071.534.102.972.468 1.181l.22.127h11.254l.237-.134c.13-.073.283-.212.34-.309.13-.224.178-.78.09-1.056-.087-.271-.348-.542-.585-.608-.118-.033-2.261-.053-5.738-.053h-5.548l-.238.12" fill-rule="evenodd" fill="#000"/></svg>
