<svg xmlns="http://www.w3.org/2000/svg" viewBox="0 0 20 18">
    <path fill-rule="evenodd" d="M7.255.487c-.729.131-1.4.49-1.907 1.019-.587.613-.903 1.296-.981 2.121-.021.223-.034 2.288-.034 5.518 0 5.606.01 5.307-.179 5.733-.159.357-.385.52-.721.521-.275.001-.422-.053-.584-.215a.76.76 0 0 1-.207-.346l-.062-.202-.044.151c-.038.13-.055.149-.115.133l-.754-.178-.683-.159.499-.02c.275-.012.632-.023.793-.025l.292-.005-.009-4.925-.009-4.925-.074-.137c-.145-.272-.363-.383-.756-.385-.281-.002-.468.056-.617.19-.254.23-.239-.151-.228 5.533l.009 5.066.076.25c.042.138.146.392.232.567.13.265.204.366.457.62.247.25.352.328.584.441.388.189.615.244 1.084.262.51.02.794-.036 1.209-.241.796-.393 1.317-1.213 1.492-2.349.041-.268.048-1.137.048-5.605.001-5.173.002-5.293.067-5.5.186-.599.782-1.125 1.39-1.226.163-.027 1.438-.035 4.56-.028l4.334.009.2.076c.523.199.969.655 1.136 1.162.061.189.064.343.064 4.445 0 3.986-.004 4.268-.061 4.532a3.53 3.53 0 0 1-.364 1.007 3.81 3.81 0 0 1-2.709 1.976c-.258.044-.742.052-3.452.052-3.469 0-3.376-.005-3.613.203-.159.14-.234.356-.232.668.003.347.117.589.341.721l.156.091h6.867l.35-.076c2.401-.526 4.1-2.37 4.398-4.773.023-.184.035-1.736.035-4.461 0-4.057-.002-4.189-.067-4.508A3.51 3.51 0 0 0 17.071.598c-.536-.168-.448-.165-5.154-.162-3.646.003-4.445.011-4.662.051m.557 4.211a.721.721 0 0 0-.437.33c-.084.142-.092.185-.092.491 0 .316.006.346.101.498a.627.627 0 0 0 .265.248l.166.085h8.502l.137-.074c.272-.145.387-.371.387-.759 0-.279-.059-.466-.192-.614-.227-.251.047-.237-4.594-.233-2.276.002-4.185.015-4.243.028m-.029 2.981a.637.637 0 0 0-.409.317c-.082.14-.091.185-.091.487 0 .294.01.351.084.482a.7.7 0 0 0 .429.334c.078.022 1.589.034 4.259.034 4.64 0 4.368.014 4.594-.236.133-.148.192-.335.192-.614 0-.388-.115-.614-.387-.759l-.137-.074-4.2-.006c-3.317-.006-4.229.002-4.334.035m0 3.201a.633.633 0 0 0-.409.316c-.082.14-.091.185-.091.487 0 .294.01.351.084.482a.7.7 0 0 0 .429.334c.166.046 8.642.046 8.808 0a.7.7 0 0 0 .429-.334c.074-.131.084-.188.084-.484 0-.316-.006-.346-.101-.498a.627.627 0 0 0-.265-.248l-.166-.085-4.334-.006c-3.421-.005-4.363.002-4.468.036"/>
</svg>
