<svg width="32" height="32" xmlns="http://www.w3.org/2000/svg"><path d="M23.899 4.568a3.82 3.82 0 0 0-1.98.943l-.359.329-4.139-.019c-4.577-.02-4.477-.027-5.604.342-2.302.752-4.119 2.546-4.852 4.79-.476 1.459-.399 2.767.225 3.842.29.5.99 1.192 1.517 1.499.416.242 1.106.495 1.544.565l.214.034-2.007 2.017c-1.773 1.783-2.027 2.059-2.179 2.375-.216.45-1.988 6.018-1.989 6.248 0 .372.2.72.506.88.082.042.304.077.495.077.298 0 .593-.084 2.117-.609l1.771-.609 3.922.229c2.595.152 4.087.218 4.41.194 3.162-.229 5.796-2.267 6.737-5.212.227-.71.303-1.234.263-1.807-.117-1.664-1.291-3.141-2.903-3.652l-.367-.116 3.091-3.133c1.7-1.723 3.172-3.252 3.272-3.397a4.41 4.41 0 0 0 .562-1.248c.093-.371.092-1.419-.001-1.76-.108-.394-.473-1.1-.745-1.443-.464-.584-1.249-1.093-1.97-1.276-.422-.107-1.146-.146-1.551-.083m1.276 2.619c.25.119.426.485.384.798-.103.766-1.106.972-1.393.286-.311-.745.312-1.414 1.009-1.084m-7.089 1.006c-.037.105-6.068 5.958-6.273 6.087a2.409 2.409 0 0 1-.553.221c-.637.163-1.355-.072-1.829-.599-.396-.441-.521-.975-.385-1.647.406-2.005 1.998-3.591 4.044-4.03.431-.092 5.027-.122 4.996-.032m3.694.202c0 .237.27.957.475 1.266.397.598 1.28 1.229 1.846 1.32.117.018.206.051.197.073-.008.021-1.859 1.858-4.113 4.082-3.118 3.076-4.468 4.366-5.647 5.398-.852.746-1.563 1.356-1.579 1.356-.017 0-.122-.142-.233-.316-.233-.366-.868-1.015-1.239-1.267a7.012 7.012 0 0 0-.651-.373l-.396-.198.983-.999c.54-.55 3.069-3.146 5.621-5.77 2.551-2.624 4.661-4.757 4.687-4.741.027.017.049.093.049.169m-.66 10.949c.637.311 1.045.935 1.045 1.6 0 .621-.384 1.622-.879 2.292-.259.35-.816.896-1.196 1.172-.362.263-1.289.697-1.72.806-.572.145-1.399.162-3.163.065a64.61 64.61 0 0 1-1.892-.122l-.242-.031.682-.69c.829-.838 5.482-4.929 5.777-5.08.5-.255 1.082-.26 1.588-.012M9.446 21.918c.752.186 1.453.873 1.538 1.507.027.197.02.205-.85.962l-.878.764-1.149.404c-.632.222-1.166.404-1.186.404-.044.001 1.123-3.445 1.253-3.698.05-.098.165-.245.255-.326.145-.132.194-.145.446-.118.155.016.412.062.571.101" fill="#A12577" fill-rule="evenodd"/></svg>
