<svg width="32" height="32" xmlns="http://www.w3.org/2000/svg"><path d="M23.913 4.159c-.431.113-.861.316-1.147.541l-.195.153h-6.9c-4.416 0-7.058.02-7.339.055A4.971 4.971 0 0 0 4.099 8.84c-.097.474-.101.808-.087 7.814l.015 7.319.149.48c.282.904.566 1.395 1.18 2.043.681.718 1.564 1.198 2.584 1.407.477.097.732.101 5.307.082 5.265-.023 4.957-.005 6.312-.358 3.502-.911 6.393-3.746 7.4-7.254.38-1.323.367-1.119.399-6.373l.029-4.747.175-.33c.701-1.321.407-3.045-.689-4.036a3.225 3.225 0 0 0-2.96-.728m1.433 1.718c.588.253.931.879.882 1.612-.038.568-.172.792-.952 1.595l-.682.703-1.124-1.12c-.618-.616-1.123-1.135-1.123-1.154 0-.074 1.257-1.342 1.488-1.501.465-.32.974-.366 1.511-.135m-5.112 1.336c-.148.154-2.572 2.632-5.386 5.507-2.814 2.875-5.203 5.335-5.309 5.467-.106.132-.253.36-.326.506-.073.147-.489 1.371-.925 2.72-.851 2.638-.891 2.821-.685 3.172.157.268.355.39.675.415.253.02.538-.065 2.806-.833 1.388-.47 2.636-.92 2.773-1 .137-.08.478-.38.756-.666l5.574-5.749 5.066-5.228.016 3.025c.02 3.774-.025 4.334-.443 5.592-.943 2.842-3.319 4.931-6.399 5.626-.528.119-.582.121-5.19.139-5.081.02-4.956.026-5.597-.285-.611-.296-1.194-.997-1.415-1.699l-.118-.375V9.36l.118-.376c.298-.948 1.134-1.738 2.083-1.968.25-.06 1.376-.075 6.25-.078l5.945-.005-.269.28m3.116 3.778c.02.051-10.213 10.497-10.409 10.626-.132.086-3.291 1.117-3.324 1.084-.032-.031 1.048-3.195 1.14-3.341.054-.084 2.413-2.518 5.243-5.409l5.147-5.257 1.093 1.127c.601.62 1.101 1.147 1.11 1.17" fill="#A12577" fill-rule="evenodd"/></svg>
