<svg xmlns="http://www.w3.org/2000/svg" viewBox="0 0 20 20">
    <path fill="#A12577" fill-rule="evenodd" d="M16.637.385a2.684 2.684 0 0 0-.936.4l-.269.18-5.808.01-5.807.011-.334.076C2.065 1.384.925 2.388.488 3.7c-.201.602-.191.231-.181 6.667l.01 5.883.09.326a3.92 3.92 0 0 0 2.102 2.508c.329.156.769.295 1.102.349.129.021 1.636.033 4.024.033 3.253.001 3.877-.007 4.216-.051 3.544-.459 6.436-2.996 7.28-6.386.222-.89.212-.679.225-4.762l.013-3.717.166-.333c.219-.439.301-.769.303-1.217.003-.733-.218-1.315-.698-1.836a2.616 2.616 0 0 0-1.389-.779 3.306 3.306 0 0 0-1.114 0m1.105 1.411c.503.24.793.817.698 1.39-.065.395-.163.541-.768 1.156-.303.307-.567.558-.587.558-.019 0-.44-.405-.935-.9l-.899-.9.583-.585c.763-.767.925-.861 1.437-.835.198.01.304.036.471.116m-8.48 5.362c-3.88 3.884-4.54 4.558-4.656 4.759-.101.173-.262.617-.623 1.716l-.673 2.046c-.205.625-.22.807-.084 1.073.12.236.312.344.615.347.213.002 4.021-1.244 4.409-1.443.321-.164.24-.084 4.951-4.856 1.801-1.824 3.543-3.587 3.872-3.917l.598-.6-.015 2.734c-.014 2.542-.02 2.759-.081 3.1-.224 1.239-.698 2.263-1.486 3.207-1.167 1.398-2.877 2.289-4.751 2.475-.211.021-1.68.034-3.793.034-3.895 0-3.725.011-4.277-.256a2.273 2.273 0 0 1-1.216-1.551C2.006 15.8 2 15.116 2 10.25c0-6.179-.015-5.79.242-6.317.112-.229.195-.34.441-.587.258-.26.349-.326.618-.457.552-.266.194-.25 5.632-.253l4.85-.003-4.521 4.525m5.946-2.2c.491.49.892.907.892.925 0 .046-8.354 8.387-8.497 8.485-.12.082-2.713.907-2.728.868-.012-.029.813-2.448.88-2.583.045-.089 8.5-8.586 8.545-8.586.009 0 .418.401.908.891"/>
</svg>
