<svg xmlns="http://www.w3.org/2000/svg" viewBox="0 0 18 18">
    <path fill="#A12577" fill-rule="evenodd" d="M14.34.508a2.753 2.753 0 0 0-1.323.712l-.198.191-2.712-.034c-2.874-.037-3.086-.031-3.672.096-1.781.388-3.243 1.595-3.92 3.237-.54 1.309-.506 2.421.102 3.347a3.129 3.129 0 0 0 2.058 1.334l.219.039-1.151 1.158C2.159 12.179 2.048 12.3 1.9 12.587c-.088.17-.31.835-.778 2.323-.709 2.255-.716 2.286-.599 2.565.113.269.296.375.652.375.242 0 .278-.011 1.509-.44l1.261-.441 2.715.157c1.493.086 2.846.156 3.006.155a5.506 5.506 0 0 0 2.942-.911 4.96 4.96 0 0 0 .991-.856 5.346 5.346 0 0 0 1.254-2.299c.429-1.601-.414-3.169-1.989-3.698l-.256-.087 1.229-1.257c2.855-2.921 3.197-3.278 3.313-3.449a2.81 2.81 0 0 0 .387-.815c.069-.234.078-.316.078-.729s-.009-.495-.079-.735C17.127 1.043 15.752.21 14.34.508m1.047 1.845c.225.117.334.365.29.66-.04.263-.215.415-.516.447-.144.015-.163.009-.278-.09-.169-.144-.217-.249-.218-.47-.001-.285.092-.46.29-.548a.606.606 0 0 1 .432.001m-5.76.727.728.02-.475.477c-.261.263-1.265 1.256-2.23 2.208C5.747 7.662 5.773 7.639 5.368 7.71c-.485.084-1.063-.177-1.336-.605a1.765 1.765 0 0 1-.134-.3c-.155-.458.024-1.259.433-1.93a3.804 3.804 0 0 1 2.764-1.794c.16-.021 1.784-.022 2.532-.001m3.497.728c.26.617.825 1.118 1.477 1.307l.215.063-2.975 2.974c-2.68 2.678-3.084 3.069-4.063 3.936-.598.529-1.097.961-1.11.96-.013-.001-.097-.117-.188-.258-.303-.469-.836-.923-1.381-1.176l-.236-.109 4.04-4.208 4.04-4.208.05.264c.028.145.087.35.131.455m-.727 7.35c.383.146.688.468.81.854.12.38.009.958-.301 1.56a3.83 3.83 0 0 1-1.671 1.631c-.505.252-1.015.367-1.631.367-.339 0-2.078-.091-2.641-.137l-.221-.019.536-.54c.438-.44 1.893-1.756 3.663-3.314.318-.28.48-.382.705-.445.21-.059.532-.041.751.043M4.176 13.08c.495.152.928.558 1.056.989.026.089.048.178.048.198 0 .019-.289.29-.642.602l-.641.566-.806.283-.842.295c-.037.013.78-2.476.874-2.663.03-.058.109-.164.178-.235l.124-.131.231.019c.127.01.316.044.42.077"/>
</svg>
