<svg width="24" height="24" viewBox="0 0 24 24" xmlns="http://www.w3.org/2000/svg">
<g clip-path="url(#clip0_7863_96969)">
<path d="M19.7141 16.4571C19.4284 16.0571 19.0856 15.7714 18.6856 15.4285C18.5713 15.3143 18.457 15.2 18.457 15.0285V13.3143C18.457 7.08569 14.2856 5.82855 12.6284 5.59997V3.71426C12.6284 3.25712 12.2284 2.85712 11.7713 2.85712C11.3141 2.85712 10.9141 3.25712 10.9141 3.71426V5.65712C9.99984 5.82855 8.45699 6.22855 7.19984 7.48569C5.82841 8.85712 5.1427 10.8571 5.1427 13.3714V15.0857C5.1427 15.2571 5.08556 15.3714 4.91413 15.4857C4.51413 15.7714 4.17127 16.1143 3.88556 16.5143C3.31413 17.2571 3.25699 18.3428 3.88556 19.1428C4.28556 19.7143 5.02841 20.0571 5.71413 20.0571H10.057L10.5141 20.6857L10.5713 20.7428C10.857 21.0857 11.3141 21.2 11.7141 21.2C12.1141 21.2 12.5141 21.0285 12.7998 20.7428L13.4284 20H17.8856C18.6284 20 19.3141 19.7143 19.7141 19.0857C20.3427 18.2857 20.3427 17.2571 19.7141 16.4571ZM10.3427 17.5428L11.7713 15.1428L13.257 17.5428L11.7141 19.3714L10.3427 17.5428ZM18.3998 18C18.3998 18.0571 18.2856 18.2857 17.9998 18.2857H15.0856C15.0284 18.2857 14.9713 18.2857 14.9141 18.2857C15.1998 17.7143 15.1427 17.0285 14.7427 16.5143L13.0856 13.8857L12.9713 13.7143C12.6856 13.4285 12.2856 13.2571 11.8856 13.2571C11.4284 13.2571 11.0856 13.4285 10.7427 13.7143L9.02841 16.4571C8.51413 17.0285 8.45699 17.7143 8.79984 18.2857H5.65699C5.37127 18.2857 5.25699 18.0571 5.19984 18C5.1427 17.8857 5.08556 17.7143 5.25699 17.5428C5.42841 17.3143 5.71413 17.0857 5.9427 16.8571C6.51413 16.4571 6.85699 15.7714 6.85699 15.0857V13.3714C6.85699 11.3143 7.37127 9.7714 8.45699 8.68569C9.82841 7.31426 11.7713 7.25712 11.7713 7.25712H11.9427H11.9998C13.1427 7.31426 16.7998 7.88569 16.7998 13.3143V15.0285C16.7998 15.7143 17.1427 16.4 17.7141 16.8C17.9998 16.9714 18.2284 17.2571 18.3998 17.4857C18.5141 17.7143 18.457 17.8857 18.3998 18Z" fill="#A12577"/>
</g>
<defs>
<clipPath id="clip0_7863_96969">
<rect width="16.7429" height="18.3429" fill="white" transform="translate(3.42847 2.85712)"/>
</clipPath>
</defs>
</svg>
