<svg width="32" height="32" xmlns="http://www.w3.org/2000/svg"><path d="M15.46 8.149c-.207.108-.329.22-.446.409l-.161.26-.015 1.424-.016 1.424-.331.068c-.57.117-1.511.418-2.055.657-2.525 1.111-4.206 3.26-4.859 6.21-.246 1.108-.286 1.575-.319 3.66l-.031 2.021-.267.216c-.474.384-1.328 1.288-1.517 1.606a2.826 2.826 0 0 0-.418 1.328c-.09 1.442.967 2.742 2.46 3.025.145.027 1.603.05 3.242.05h2.979l.364.493c.411.556.655.75 1.13.898a2.136 2.136 0 0 0 1.772-.227c.138-.088.448-.392.688-.676l.437-.515 3.231-.031c2.76-.026 3.274-.043 3.518-.117.73-.219 1.2-.572 1.65-1.239.355-.525.491-.96.491-1.573 0-.963-.34-1.58-1.441-2.622-.378-.358-.712-.712-.741-.788-.029-.076-.064-.971-.077-2.03-.026-1.948-.053-2.286-.276-3.394-.546-2.714-2.003-4.802-4.222-6.049a9.733 9.733 0 0 0-1.03-.484c-.588-.231-1.666-.526-1.921-.526h-.15l-.018-1.374c-.018-1.289-.026-1.386-.135-1.591-.22-.413-.618-.661-1.063-.662-.092 0-.296.067-.453.149m1.847 5.744c2.706.561 4.486 2.468 5.037 5.396.169.898.216 1.622.217 3.324.001 1.703.033 1.981.297 2.538.2.423.505.782.948 1.115.376.283.748.672.879.917.132.249.033.686-.203.897-.115.102-.207.107-2.248.122-1.17.009-2.127.009-2.127 0 .001-.008.049-.167.107-.353.227-.725.103-1.302-.468-2.183-.204-.315-.785-1.228-1.291-2.028-.542-.857-.99-1.508-1.09-1.585a3.27 3.27 0 0 0-.487-.275c-.413-.189-1.072-.205-1.496-.036-.616.245-.686.325-1.704 1.951-.519.829-1.123 1.774-1.341 2.101-.219.327-.432.709-.474.849a2.14 2.14 0 0 0 .03 1.197c.057.161.104.311.105.333.003.061-3.995.049-4.208-.012-.246-.07-.475-.301-.516-.518-.046-.248.12-.482.734-1.036.922-.831 1.11-1.067 1.338-1.69.102-.279.114-.464.15-2.277.039-2.022.085-2.611.273-3.49.275-1.287.873-2.478 1.697-3.379.831-.91 2.296-1.661 3.761-1.93.525-.097 1.478-.073 2.08.052m-.357 11.77c.503.812.921 1.498.929 1.525.014.049-1.983 2.436-2.009 2.403l-.897-1.197-.884-1.179.81-1.354.931-1.562c.067-.114.141-.186.164-.16.024.026.454.712.956 1.524" fill="#A12577" fill-rule="evenodd"/></svg>
