<svg xmlns="http://www.w3.org/2000/svg" xml:space="preserve" viewBox="0 0 32 32"><path fill-rule="evenodd" d="M16.215 4.059a1.24 1.24 0 0 0-.589.529c-.098.191-.106.315-.106 1.557v1.35l-.493.125c-1.754.444-3.398 1.467-4.326 2.692-1.284 1.694-1.827 3.819-1.784 6.984l.016 1.163.974-.729c.963-.722.973-.731.973-.932 0-.111-.025-.211-.056-.221-.081-.027.035-1.544.168-2.204.493-2.441 1.869-4.058 4.032-4.739.72-.226 1.675-.369 2.203-.33.857.065 1.68.318 2.282.704l.287.183.719-.549c.396-.302.771-.591.835-.643l.117-.094-.16-.135c-.271-.228-1-.65-1.466-.849a8.764 8.764 0 0 0-1.854-.539l-.494-.089v-1.23c0-1.13-.008-1.247-.109-1.455-.217-.448-.77-.708-1.169-.549m10.367 2.976c-.12.054-5.211 3.843-11.312 8.419-10.247 7.686-11.1 8.337-11.182 8.541-.11.275-.112.485-.006.738.111.265.219.375.516.526.291.147.425.157.723.052.127-.045 4.75-3.477 11.318-8.403 10.492-7.87 11.109-8.342 11.211-8.572.226-.512.029-1.143-.415-1.328a1.138 1.138 0 0 0-.853.027m-3.266 6.513c-.479.346-.879.638-.889.647-.01.01.018.27.062.578.051.357.094 1.266.118 2.507.035 1.793.047 1.971.15 2.25.171.46.469.867.889 1.213.643.529.994.946.994 1.18 0 .095-.059.208-.164.313l-.164.164h-3.933l-.128-.173a69.101 69.101 0 0 1-.996-1.534c-1.002-1.57-1.211-1.807-1.743-1.972a2.655 2.655 0 0 0-.636-.108c-.276 0-.312.018-.976.494l-.689.493-.927 1.44-.927 1.44-1.027.014-1.027.015-.838.621-1.343.995c-.428.316-.488.379-.4.413.058.023 1.071.043 2.252.045l2.148.004.059.128a.4.4 0 0 0 .155.173c.053.025.485.585.959 1.245.944 1.316 1.107 1.509 1.386 1.653.284.147.812.233 1.183.195.331-.035.835-.23 1.022-.397.138-.123 2.283-2.666 2.404-2.851l.096-.146h1.929c2.089 0 2.254-.018 2.835-.302.31-.152.819-.631 1.02-.961.335-.547.436-1.45.235-2.094-.094-.302-.358-.799-.692-1.304-.076-.114-.31-.362-.521-.552-.211-.189-.408-.408-.438-.486-.031-.081-.065-.889-.078-1.901-.02-1.417-.045-1.896-.133-2.455-.086-.556-.306-1.569-.348-1.607-.004-.004-.4.276-.879.623m-5.481 8.741c.461.745.842 1.371.848 1.391.013.047-1.73 2.187-1.782 2.187-.051 0-1.662-2.085-1.669-2.16-.003-.032.367-.697.821-1.479.617-1.059.842-1.405.886-1.358.032.035.435.673.896 1.419"/></svg>
