<svg xmlns="http://www.w3.org/2000/svg" viewBox="0 0 32 32" xml:space="preserve"><path d="M4.32 5.733v.294h.587v2.506h.8V5.44H4.32v.293m6.266 1.086c-.26.119-.526.411-.613.674-.036.11-.056.367-.044.588.016.332.044.427.181.622.089.127.268.29.399.364l.238.133 8.095.014 8.095.014.267-.115c.949-.408 1.055-1.667.185-2.205l-.261-.161-8.164-.013c-7.806-.012-8.173-.008-8.378.085m-5.599 6.804c-.03.012-.189.062-.355.111A1.131 1.131 0 0 0 4.16 14l-.17.175.241.166c.133.091.26.166.282.166.023 0 .105-.061.182-.136a.626.626 0 0 1 .716-.102c.245.116.326.3.234.527-.036.09-.385.476-.775.858-.69.675-.71.7-.71.92v.226h2.4v-.583l-.68-.015-.68-.015.463-.513c.255-.283.513-.595.573-.694.231-.377.08-1.069-.272-1.252-.163-.084-.844-.158-.977-.105m5.782 1.65c-.696.249-1.05 1.077-.738 1.723.137.282.458.566.735.649.153.046 2.291.061 8.227.06 7.652-.001 8.03-.005 8.234-.098.236-.108.528-.382.645-.606.308-.588.007-1.372-.642-1.674l-.27-.126-8 .002c-6.372.001-8.039.016-8.191.07M4.16 23.627v.32H5.517l-.332.334c-.313.316-.332.35-.332.587v.252h.232c.295 0 .556.09.623.215a.428.428 0 0 1-.079.507c-.107.108-.184.131-.426.131-.166 0-.418-.046-.576-.106a2.047 2.047 0 0 0-.336-.107c-.031 0-.109.109-.174.243l-.118.242.307.142c.354.164.88.217 1.224.124.121-.033.337-.139.479-.237.205-.141.278-.234.359-.455.087-.239.092-.308.036-.495-.084-.277-.409-.628-.627-.675l-.167-.036.341-.426c.3-.374.342-.455.342-.654v-.226H4.16v.32m6.468.378a1.472 1.472 0 0 0-.635.669c-.102.246-.089.698.027.955.128.281.533.634.819.712.17.047 2.25.059 8.228.048l8-.016.218-.117c.902-.482.943-1.669.075-2.189l-.289-.174H10.853l-.225.112" fill="#A12577" fill-rule="evenodd"/></svg>