<svg xmlns="http://www.w3.org/2000/svg" viewBox="0 0 32 32" xml:space="preserve"><path d="M4.373 5.733v.294h.587v2.506h.747V5.44H4.373v.293m6.213 1.086c-.26.119-.526.411-.613.674-.036.11-.056.367-.044.588.016.332.044.427.181.622.089.127.268.29.399.364l.238.133 8.095.014 8.095.014.267-.115c.949-.408 1.055-1.667.185-2.205l-.261-.161-8.164-.013c-7.806-.012-8.173-.008-8.378.085m-5.599 6.814c-.529.134-.934.361-.934.525 0 .037.099.133.219.213l.219.145.151-.144c.288-.276.874-.215 1.02.107.11.241.004.404-.733 1.126-.714.7-.716.702-.716.948v.247H6.566l-.017-.28-.016-.28-.673-.027-.674-.026.507-.56c.278-.308.539-.638.58-.732.171-.398.008-.982-.321-1.153-.194-.1-.751-.163-.965-.109m5.826 1.631c-.28.075-.705.472-.816.763-.205.536.024 1.177.534 1.492l.261.161 8.03.015c5.937.011 8.09-.001 8.256-.046.508-.139.89-.652.891-1.196 0-.481-.241-.869-.689-1.111l-.213-.115-8.027-.009c-5.226-.005-8.097.011-8.227.046M4.16 23.627v.32H5.517l-.332.334c-.31.314-.332.351-.332.581v.246l.344.021c.422.027.563.132.563.417a.394.394 0 0 1-.123.311c-.166.156-.668.16-1.05.01a2.191 2.191 0 0 0-.312-.107c-.022 0-.091.104-.153.231l-.112.232.295.144c.627.308 1.385.224 1.808-.199.388-.388.406-.8.053-1.231-.127-.154-.254-.248-.378-.278l-.187-.046.319-.4c.289-.362.319-.424.32-.653v-.253H4.16v.32m6.462.405c-.57.285-.858.985-.629 1.534.105.25.388.554.642.69l.218.117 7.92.017c5.676.012 7.999-.001 8.196-.043.702-.151 1.161-.866.977-1.521-.083-.299-.431-.702-.717-.832-.206-.094-.573-.098-8.272-.099l-8.056-.002-.279.139" fill="#A12577" fill-rule="evenodd"/></svg>