<svg xmlns="http://www.w3.org/2000/svg" xmlns:xlink="http://www.w3.org/1999/xlink" viewBox="-289 380 32 33" xml:space="preserve"><defs><path id="a" d="M-289 380.5h32v32h-32z"/></defs><clipPath id="b"><use xlink:href="#a" overflow="visible"/></clipPath><g clip-path="url(#b)"><path class="st1" d="M-257.1 396.3c-.2-.5-.4-.8-1-.8-1.6 0-3.2.3-4.8.4-.7.1-1.3.3-2 .2-2.4-.4-4.3-1.5-5.8-3.4s-2.3-3.9-1.8-6.4c.3-1.6.5-3.2.5-4.8 0-.6-.2-.9-.8-1-.7 0-1 .3-1 1.1v.4c.1 1.5.3 2.9.5 4.4.1.7.3 1.3.2 2-.7 3.4-2.6 5.9-5.8 7.3-.9.4-1.9.7-2.9.6-.9-.1-1.8-.3-2.7-.4-1.1-.1-2.2-.3-3.3-.2-.4 0-.7.2-.8.6 0 .1 0 .2-.1.2v.2c.2.7.7.9 1.4.9 1.5-.1 3-.3 4.6-.5.6-.1 1.2-.3 1.7-.2 3.6.6 6 2.6 7.4 6 .3.9.6 1.7.5 2.7-.1.7-.2 1.4-.3 2.2-.2 1.3-.3 2.5-.3 3.8 0 .6.2.8.8 1v.1h.3v-.1c.5-.2.8-.4.8-1 0-1.6-.3-3.3-.5-4.9-.1-.6-.2-1.3-.1-1.9.4-2.1 1.3-4 2.9-5.4 2-1.7 4.1-2.7 6.9-2.2 1.6.3 3.2.5 4.8.5.6 0 .9-.2 1-.8-.2-.4-.2-.5-.3-.6.1 0 .1 0 0 0z"/><path class="st1" d="M-284 386.8c1.8 1.6 3.8 3.1 5.8 4.5 0 0 .1.1.2 0-.8-1.1-1.6-2.2-2.4-3.2-.8-1-1.5-2-2.4-2.9-.4-.4-.9-.4-1.3 0s-.4.9-.1 1.3c0 .2.1.3.2.3zm16.3 4.5c1.3-.9 2.6-1.9 3.8-2.9.7-.6 1.5-1.2 2.1-1.8.4-.4.4-1 0-1.4-.4-.4-.9-.4-1.4.1-.7.7-1.3 1.5-1.9 2.3-1 1.3-1.9 2.5-2.9 3.8.2 0 .2 0 .3-.1zm-10.6 10.4-3.6 2.7c-.8.6-1.5 1.2-2.2 1.9-.2.2-.4.4-.4.7 0 .4.2.8.6 1 .4.2.8.1 1.1-.2 1-1 1.9-2.1 2.7-3.3.7-.9 1.4-1.9 2.2-2.9-.3-.1-.3 0-.4.1zm15.9 4c-1.7-1.5-3.5-2.8-5.3-4.1-.1 0-.1-.1-.2-.1 0 .1.1.1.1.2l2.7 3.6c.7.8 1.3 1.7 2.1 2.4.4.4 1 .4 1.3 0 .4-.4.4-.9 0-1.4-.3-.1-.5-.4-.7-.6z"/></g></svg>
