<svg xmlns="http://www.w3.org/2000/svg" xml:space="preserve" viewBox="0 0 32 33"><path fill-rule="evenodd" d="M15.628.627c-.347.175-.402.354-.396 1.293.003.455.046 1.175.096 1.6.164 1.396.353 2.789.462 3.408.121.689.14 1.353.048 1.741-.77 3.249-2.561 5.525-5.418 6.886a8.642 8.642 0 0 1-1.991.689c-.586.117-1.252.084-2.589-.131-1.253-.202-2.764-.371-3.68-.413-.868-.039-1.319.028-1.526.226-.158.151-.314.532-.314.766 0 .241.279.612.567.754.234.115.326.127.926.123.367-.003.931-.034 1.254-.071 1.816-.204 3.313-.399 3.752-.489.823-.169 1.376-.122 2.54.215 3.03.878 5.27 3.183 6.301 6.483.192.617.2.668.202 1.44.002.645-.035 1.069-.194 2.186-.279 1.976-.308 2.271-.341 3.494-.026.991-.02 1.11.069 1.276.172.322.34.404.835.404.371 0 .462-.019.61-.125.307-.219.356-.379.345-1.129-.013-.881-.08-1.548-.363-3.636-.29-2.137-.299-2.538-.077-3.446.412-1.687 1.171-3.129 2.224-4.226 1.082-1.127 2.485-2.05 3.774-2.481 1.3-.435 2.354-.477 4.189-.167 1.664.281 2.556.372 3.716.378.96.005 1.031-.002 1.173-.107.144-.107.152-.135.167-.598.014-.448.003-.509-.144-.8-.187-.371-.412-.578-.684-.629-.296-.056-1.611.017-2.921.162-.645.071-1.377.145-1.627.164-.249.019-.729.084-1.066.144-1.064.191-1.661.137-2.907-.263-1.447-.463-2.562-1.161-3.657-2.289-1.069-1.101-1.856-2.337-2.264-3.557-.395-1.182-.447-2.213-.188-3.727.23-1.346.362-2.4.433-3.455.069-1.035.045-1.563-.082-1.809-.176-.342-.841-.492-1.254-.284M5.2 4.995a1.08 1.08 0 0 0-.513.525.869.869 0 0 0 .006.8c.059.115.107.236.107.269 0 .064 1.15 1.053 2.24 1.926 1.241.994 3.769 2.845 3.886 2.845.033 0 .061-.018.06-.04-.001-.107-2.818-3.817-3.836-5.052C6.098 4.992 5.699 4.732 5.2 4.995m21.128-.024c-.257.069-.733.509-1.323 1.222-.93 1.126-3.988 5.194-3.916 5.21.215.047 4.792-3.534 5.88-4.602.502-.493.6-.713.494-1.107-.149-.554-.627-.858-1.135-.723M8.767 23.158c-2.332 1.753-3.066 2.352-3.76 3.063-.525.54-.578.668-.453 1.098.18.62.817.952 1.346.701.343-.163 1.8-1.804 2.552-2.873.211-.3 2.173-2.929 2.548-3.414.089-.115.089-.122-.007-.147-.071-.018-.722.441-2.226 1.572m12.437-1.465c.236.362 2.704 3.617 3.317 4.374.818 1.011 1.522 1.741 1.787 1.851.39.163.764.068 1.038-.264.229-.278.292-.557.197-.877a.992.992 0 0 0-.196-.367c-.888-.847-2.021-1.801-3.347-2.818-.933-.715-2.778-2.045-2.837-2.045-.03 0-.012.066.041.146"/></svg>
