<svg xmlns="http://www.w3.org/2000/svg" viewBox="0 0 24 22">
    <path fill="#A12577" fill-rule="evenodd" d="M11.787.805c-.462.064-.888.271-1.303.633-.211.184-.254.204-.517.247a8.636 8.636 0 0 0-1.607.446c-2.433.964-4.253 2.999-5.006 5.597-.262.905-.395 2.149-.326 3.052.021.28.039.536.039.568 0 .034-.092.104-.214.164-.211.104-.471.356-1.585 1.536-.423.448-.594.769-.663 1.246-.037.251-.034.353.018.614.119.608.197.72 1.186 1.715.953.959 1.103 1.072 1.568 1.181.452.107.932.051 1.357-.156.279-.137 1.956-1.818 2.1-2.105.315-.626.318-1.269.009-1.876l-.136-.268 2.042-2.041 2.042-2.042.191.094c.106.052.214.095.24.095.038.001.048.553.048 2.626v2.625l-.278.189c-.34.231-1.749 1.647-1.844 1.854l-.066.143-.336-.168c-.43-.216-.603-.261-1.004-.26-.481.002-.915.163-1.232.458l-.103.095.233.216c.571.53 1.239.993 2.007 1.392l.501.261.898.903c.494.497.977.954 1.074 1.016l.176.113h1.758l.153-.1c.083-.056.471-.417.861-.804l.709-.703.48-.158c.898-.295 2.205-1.009 2.877-1.571.099-.084.193-.152.208-.152.015 0 .105.069.201.153.477.42 1.224.562 1.831.349.41-.145.613-.306 1.471-1.172 1.067-1.076 1.091-1.118 1.11-1.912.012-.499.006-.553-.09-.822a2.909 2.909 0 0 0-.198-.445c-.053-.086-.431-.493-.839-.904l-.743-.748.042-.364c.058-.506.018-1.632-.079-2.204a8.876 8.876 0 0 0-1.12-3.082 10.917 10.917 0 0 0-1.066-1.422l-.232-.25-.118.135c-.25.284-.455.838-.456 1.238-.002.325.114.663.391 1.145.709 1.23 1.011 2.371.98 3.708l-.011.513-.23.064c-.3.082-.688.291-.81.436l-.097.115-1.874-1.874-1.875-1.874.74-.749c.812-.822.886-.909 1.054-1.247.213-.43.301-1.03.219-1.504-.028-.162-.027-.163.088-.163.18 0 .503-.078.72-.173.188-.083.512-.339.512-.404 0-.067-.885-.789-1.322-1.079a9.067 9.067 0 0 0-1.879-.935c-.411-.141-.429-.152-.768-.474-.518-.492-.966-.699-1.608-.744a2.91 2.91 0 0 0-.499.014m.666 1.731c.188.11 2.227 2.219 2.318 2.396a.664.664 0 0 1-.052.635c-.137.192-2.206 2.185-2.347 2.26a.684.684 0 0 1-.515.03c-.126-.047-2.366-2.265-2.452-2.428-.069-.13-.075-.444-.011-.569.087-.17 2.196-2.259 2.355-2.333.214-.1.526-.096.704.009M7.759 4.637c-.071.274-.069.808.004 1.095.032.126.121.358.198.516.123.251.232.38.88 1.036l.739.75-2.047 2.047-2.048 2.048-.222-.212a2.715 2.715 0 0 0-.288-.248c-.045-.025-.086-.146-.133-.4-.085-.459-.096-1.787-.018-2.222.271-1.518.912-2.766 1.939-3.774.257-.252 1.018-.878 1.04-.856.006.006-.014.105-.044.22m7.379 6.649 1.932 1.932-.183.243c-.22.292-.315.499-.391.856-.109.509.018 1.08.333 1.496l.188.249-.276.229c-.299.247-.92.632-1.265.784l-.215.095-.125-.276c-.113-.251-.201-.354-.97-1.133-.465-.47-.918-.899-1.008-.952l-.163-.096V9.442l.086-.042a.662.662 0 0 1 .106-.044c.01-.001.889.867 1.951 1.93M4.634 13.701c.659.657.71.717.71.845 0 .129-.051.19-.707.846-.54.541-.73.708-.803.708-.073 0-.269-.173-.834-.738-.467-.466-.738-.765-.738-.814 0-.048.271-.348.737-.815.558-.558.761-.738.832-.738.071 0 .269.174.803.706m15.9.109c.6.598.703.716.702.814 0 .097-.113.232-.712.853-.579.6-.732.738-.816.738-.083 0-.243-.14-.821-.721-.601-.605-.717-.739-.717-.833 0-.093.115-.227.72-.831.602-.603.738-.72.831-.72.092 0 .226.116.813.7m-7.645 3.123c.557.556.719.741.719.816 0 .076-.166.263-.74.834-.436.434-.77.737-.812.737-.043 0-.377-.303-.813-.737-.571-.568-.74-.758-.74-.833 0-.074.166-.263.719-.816.613-.614.735-.719.833-.719.098 0 .221.106.834.718"/>
</svg>
