<svg width="32" height="32" xmlns="http://www.w3.org/2000/svg"><path d="M15.84 5.125c-.355.07-.866.34-1.185.627-.257.232-.318.259-.697.321-1.996.326-4 1.556-5.337 3.277a8.355 8.355 0 0 0-1.069 1.75c-.69 1.457-.983 2.931-.922 4.637l.031.884-.179.064c-.209.076-.327.187-1.352 1.277-.819.872-.979 1.123-1.089 1.715-.045.245-.044.407.006.679.123.666.255.862 1.298 1.917 1.201 1.215 1.299 1.274 2.148 1.274.855 0 .938-.05 2.147-1.27 1.069-1.079 1.203-1.279 1.306-1.947.067-.435-.004-.832-.226-1.273l-.153-.302 2.183-2.223 2.183-2.223.267.132.267.133v5.673l-.227.126c-.264.148-1.888 1.79-2.03 2.053l-.096.18-.429-.223c-.421-.219-.438-.223-.971-.223-.503 0-.568.012-.892.172-.192.095-.394.221-.449.282-.097.107-.095.113.137.352.458.471 1.51 1.2 2.323 1.61.258.131.522.365 1.279 1.135.525.534 1.061 1.039 1.192 1.123.236.152.24.153 1.109.153.699 0 .906-.018 1.043-.087.094-.047.543-.451.997-.897l.827-.811.453-.147c.888-.289 1.968-.86 2.762-1.462l.467-.352c.045-.034.135.005.281.121.56.443 1.31.593 1.926.384.487-.166.671-.311 1.643-1.296C27.899 21.339 28 21.16 28 20.342c0-.573-.095-.96-.329-1.347-.065-.107-.471-.555-.902-.995l-.784-.8.055-.613c.129-1.466-.21-3.269-.888-4.717-.397-.847-1.158-1.959-1.674-2.448l-.16-.151-.174.253c-.283.412-.387.74-.385 1.223.001.498.06.679.433 1.329a7.664 7.664 0 0 1 1.021 3.89v.619l-.146.032c-.31.067-.689.246-.894.421l-.213.183-2.009-2.006-2.009-2.006.824-.861c.453-.473.887-.954.965-1.068.305-.45.472-1.185.396-1.743l-.041-.303.269-.037c.148-.02.361-.069.473-.109.254-.09.679-.39.679-.48 0-.094-.651-.668-1.206-1.064a10.074 10.074 0 0 0-2.128-1.118c-.473-.175-.576-.238-.913-.558-.709-.674-1.512-.92-2.42-.743m1.048 1.982c.136.124.709.708 1.274 1.298 1.11 1.157 1.187 1.274 1.082 1.662-.043.161-.295.436-1.289 1.412-1.287 1.263-1.446 1.379-1.777 1.298-.191-.048-2.61-2.435-2.717-2.682-.091-.211-.092-.429-.003-.591.122-.219 2.315-2.444 2.498-2.534.097-.048.292-.088.432-.089.226-.001.282.024.5.226m-5.203 2.225c-.074.348-.074.668.001 1.025.119.567.288.82 1.148 1.716l.816.85-.582.619c-.319.34-1.309 1.343-2.198 2.23l-1.617 1.611-.309-.298-.309-.299-.083-.54c-.109-.711-.069-1.942.086-2.619a7.465 7.465 0 0 1 1.658-3.326c.303-.358 1.38-1.31 1.427-1.262.012.011-.006.143-.038.293m8.01 7.217 1.976 2.016-.114.144c-.663.845-.709 1.949-.113 2.691l.168.208-.153.161c-.289.304-1.63 1.117-1.711 1.037a4.152 4.152 0 0 1-.194-.351c-.125-.242-.393-.552-1.056-1.221-.489-.494-.963-.928-1.054-.965l-.164-.069v-5.73l.12-.056c.093-.042.143-.035.219.032.055.048.989.994 2.076 2.103m-11.299 2.57c.587.619.728.797.714.902-.021.16-1.496 1.685-1.631 1.686-.114.001-1.662-1.594-1.664-1.715-.001-.048.337-.438.75-.866.666-.69.773-.779.926-.779.154 0 .255.086.905.772m16.977.094c.545.544.76.794.76.884 0 .167-1.469 1.716-1.628 1.716-.07 0-.382-.274-.867-.764-.626-.631-.758-.791-.758-.919 0-.129.131-.286.759-.916.472-.472.8-.761.866-.761.066 0 .397.289.868.76m-8.157 3.364c.553.559.757.799.757.893 0 .095-.208.338-.786.916-.432.433-.823.787-.869.787-.101 0-1.705-1.605-1.705-1.706 0-.04.353-.428.785-.863.608-.613.815-.791.922-.791.107 0 .309.173.896.764" fill="#A12577" fill-rule="evenodd"/></svg>
