<svg width="32" height="32" xmlns="http://www.w3.org/2000/svg"><path d="M12.492 11.54c-1.819 3.867-3.307 7.047-3.307 7.068 0 .021.735.032 1.633.024l1.634-.015.576-1.388.576-1.389 2.864.002 2.864.001.608 1.387.607 1.387 1.64.015c1.548.014 1.638.009 1.604-.082-.02-.054-1.526-3.234-3.347-7.068l-3.311-6.971h-.667L15.8 4.51l-3.308 7.03m4.971-.155.947 2.461c.021.054-.387.069-1.932.069-1.077 0-1.958-.015-1.958-.034 0-.026 1.373-3.628 1.903-4.994.04-.103.041-.103.08 0 .021.058.453 1.182.96 2.498M9.535 21.51c-.345.1-.699.4-.873.739l-.164.321V27.363l.128.26c.07.143.239.358.374.477.473.416-.03.39 7.496.39 4.419-.001 6.811-.02 6.944-.057a1.47 1.47 0 0 0 .896-.737l.167-.326v-2.396c0-2.647.008-2.576-.36-2.995a1.922 1.922 0 0 0-.461-.354l-.28-.148-6.847-.009c-4.026-.005-6.919.012-7.02.042m1.85 2.47v1.045H12.87v-2.09h1.43V25.74H15.785V22.935h1.43v2.09H18.7v-2.09h1.43V25.74H21.615V22.935h1.431l-.014 2.076-.014 2.076-6.532.014-6.531.014v-4.18h1.43v1.045" fill="#0575BC" fill-rule="evenodd"/></svg>
