<svg width="32" height="32" xmlns="http://www.w3.org/2000/svg"><path d="M12.748 4.1c-2.024.315-3.933 1.716-4.869 3.574a8.323 8.323 0 0 0-.599 1.731c-.094.428-.102.75-.102 3.767 0 3.645 0 3.656.37 4.703a6.693 6.693 0 0 0 5.214 4.37c.764.124 6.712.124 7.476 0a6.696 6.696 0 0 0 3.758-1.998 6.743 6.743 0 0 0 1.728-3.347c.088-.431.099-.828.099-3.728 0-3.586-.007-3.671-.366-4.69-.818-2.317-2.864-4.025-5.255-4.385-.746-.112-6.728-.11-7.454.003m7.333 9.039c1.086 2.886 1.974 5.28 1.974 5.321 0 .061-.239.075-1.288.075h-1.288l-.087-.234c-.047-.128-.244-.679-.436-1.223l-.349-.991h-4.21l-.352.991c-.193.544-.39 1.095-.438 1.223l-.086.234h-1.288c-1.044 0-1.288-.014-1.288-.074 0-.041.879-2.411 1.954-5.266 1.074-2.856 1.965-5.224 1.978-5.262.02-.054.375-.066 1.627-.055l1.603.015 1.974 5.246m-3.769-2.455-.71 1.994-.566 1.595.732.015c.403.008 1.061.008 1.464 0l.732-.015-.703-1.98a382.618 382.618 0 0 1-.705-1.994c0-.008-.023-.014-.05-.014-.028 0-.114.179-.194.399M8.305 25.021a2.017 2.017 0 0 0-.656.367c-.48.404-.618 1.201-.307 1.772.187.342.471.585.855.731.264.1.559.104 8.303.104 7.744 0 8.039-.004 8.303-.104.384-.146.668-.389.855-.731.132-.242.16-.359.162-.677.004-.601-.283-1.05-.871-1.364l-.226-.122-8.141-.009c-4.477-.005-8.202.01-8.277.033" fill="#0575BC" fill-rule="evenodd"/></svg>
