<svg xmlns="http://www.w3.org/2000/svg" viewBox="0 0 42 42"><path d="M16.551 10.058c-.115.022-.333.45-1.043 2.038-3.379 7.565-5.031 11.27-5.084 11.407l-.061.157h3.256l.585-1.424.585-1.425 1.157-.045c.636-.025 2.061-.046 3.166-.046h2.01l.613 1.47.613 1.47h1.597c.878 0 1.611-.024 1.629-.052.037-.061-.178-.552-3.536-8.085l-2.457-5.513-1.443.01c-.794.005-1.508.022-1.587.038m8.391.923c-.568.035-.753.074-.91.191-.293.218-.381.433-.351.855.035.496.278.751.811.852.516.097 6.956.094 7.309-.004.147-.04.367-.164.49-.274.208-.185.224-.231.224-.653 0-.355-.03-.487-.14-.608-.339-.375-.325-.373-3.64-.389-1.694-.008-3.401.005-3.793.03m-6.373 3.562c.821 1.928 1.521 3.643 1.521 3.724 0 .049-.684.073-2.1.073-1.633 0-2.1-.019-2.1-.087.001-.181 2.021-4.953 2.097-4.953.029 0 .292.559.582 1.243m9.284 1.323c-.1.017-.289.121-.42.23-.226.189-.238.222-.238.656 0 .39.026.484.175.646.332.36.475.382 2.43.376 1.986-.006 2.337-.055 2.561-.356.191-.258.237-.813.09-1.096-.236-.458-.279-.466-2.453-.477-1.08-.006-2.045.004-2.145.021m1.351 4.497a.964.964 0 0 0-.525.276c-.203.202-.224.264-.224.648 0 .398.015.438.255.657.321.295.619.337 2.129.305.967-.021 1.143-.042 1.318-.161.244-.165.393-.496.393-.872 0-.373-.107-.586-.373-.745-.192-.115-.386-.135-1.447-.147-.674-.008-1.361.01-1.526.039m-18.099 5.659c-.657.029-.835.126-.995.547-.135.352-.101.645.108.938.291.409-.322.388 11.132.388 9.798 0 10.55-.008 10.753-.119.274-.151.447-.508.447-.924 0-.271-.04-.365-.253-.602l-.253-.28-10.195.014c-5.607.008-10.441.025-10.744.038m.091 3.861c-.717.05-.916.16-1.082.596-.154.401-.095.739.174 1.008.163.163.285.211.637.247.24.026 5.087.046 10.772.046h10.337l.179-.192c.363-.39.436-.802.223-1.253-.246-.518.607-.479-10.596-.487-5.525-.004-10.314.011-10.644.035" fill="#ab007e" fill-rule="evenodd"/></svg>