<svg width="32" height="32" xmlns="http://www.w3.org/2000/svg"><path d="M15.121 6.253c-.099.213-1.576 3.351-3.282 6.974a1035.524 1035.524 0 0 0-3.131 6.68c-.026.089.067.094 1.611.08l1.638-.014.575-1.386.576-1.387 2.849-.014 2.85-.014.616 1.401.617 1.4 1.633.014c.899.008 1.634-.002 1.634-.023 0-.021-1.505-3.201-3.343-7.068l-3.343-7.029H15.3l-.179.386m1.834 6.48c.531 1.386.965 2.532.965 2.547 0 .036-3.921.034-3.957-.002-.016-.015.407-1.125.94-2.466a897.35 897.35 0 0 0 1.007-2.54c.022-.055.048-.091.059-.08.011.012.455 1.155.986 2.541M9.432 23.147c-1.024.541-1.009 2.336.023 2.85l.273.136 6.269-.001c5.957-.001 6.28-.006 6.484-.098 1.092-.496 1.139-2.347.073-2.89-.198-.101-.37-.104-6.565-.102-6.177.003-6.368.006-6.557.105" fill="#0575BC" fill-rule="evenodd"/></svg>
