<svg xmlns="http://www.w3.org/2000/svg" xml:space="preserve" viewBox="0 0 32 32"><path d="M9.743 4.054c-.233.07-.507.305-.624.535-.081.159-.482 2.604-1.685 10.289l-1.578 10.08.111.229c.205.423.141.413 2.588.413 1.246 0 2.165-.02 2.165-.048 0-.054 1.267-7.318 1.312-7.525.016-.074.145-.245.285-.38.406-.392.501-.408 2.563-.44 1.851-.029 2.307-.064 3.253-.253 2.492-.498 4.258-1.794 5.259-3.861.512-1.057.86-2.348.981-3.642.161-1.724-.38-3.148-1.547-4.074-.348-.276-1.095-.669-1.645-.865-.523-.187-1.54-.385-2.337-.455-.774-.068-8.875-.07-9.101-.003M25.584 11.2a16.34 16.34 0 0 0-.173.587c-.46 1.621-1.191 2.93-2.208 3.951-1.751 1.759-4.156 2.526-8.282 2.644-1.043.03-1.216.047-1.238.12-.013.046-.41 2.149-.881 4.671-.47 2.523-.868 4.641-.883 4.707l-.028.12h1.763c1.933 0 1.996-.009 2.253-.314.211-.251.282-.557.577-2.459.619-4.006.572-3.782.885-4.2.213-.284.333-.316 1.324-.351 2.51-.089 4.215-.674 5.458-1.872.889-.857 1.418-1.833 1.832-3.379.161-.602.168-.666.17-1.718.003-.974-.01-1.14-.116-1.519-.146-.522-.412-1.101-.453-.988" fill-rule="evenodd"/></svg>
