<svg width="32" height="32" xmlns="http://www.w3.org/2000/svg"><path d="M10.67 4.441c-.696.719-.995 1.443-.995 2.407 0 .615.107 1.068.377 1.595.16.312.348.534.999 1.175a73.572 73.572 0 0 0 1.358 1.306l.556.516h.89l.759-.773c.417-.426.825-.887.906-1.026.294-.506.308-1.26.032-1.802-.112-.22-.68-.824-2.625-2.793l-1.018-1.031h-.826l-.413.426m11.891-.309c-.316.157-.399.276-1.1 1.588l-.602 1.128-1.132.632c-.622.348-1.21.707-1.306.797-.513.485-.508 1.334.012 1.827.102.098.69.456 1.307.798l1.12.621.585 1.101c.322.606.642 1.182.711 1.279.275.386.877.586 1.356.452.462-.129.656-.369 1.34-1.657l.624-1.175 1.181-.658c1.463-.814 1.613-.97 1.613-1.688 0-.396-.14-.74-.386-.947-.087-.073-.662-.411-1.279-.751l-1.122-.619-.6-1.131c-.645-1.215-.804-1.441-1.129-1.607-.297-.152-.876-.147-1.193.01m-9.818 3.506 1.055 1.091-.214.209-.213.209-.743-.7c-.835-.788-.978-1.008-1.014-1.558-.012-.189 0-.344.026-.343.026 0 .522.491 1.103 1.092m10.662-.529c.445.852.535 1.008.646 1.128.063.069.444.304.846.523.402.219.731.41.732.425 0 .015-.33.208-.734.428-.403.22-.785.455-.847.522-.063.068-.275.431-.472.809-.197.377-.378.692-.403.7-.025.008-.206-.298-.403-.68-.197-.383-.426-.765-.509-.848-.083-.084-.461-.317-.839-.518-.378-.2-.687-.384-.687-.408 0-.025.337-.227.749-.45.845-.458.847-.461 1.344-1.438.165-.325.315-.591.334-.591.019-.001.128.178.243.398M13.31 13.071c-6.691 6.786-7.782 7.906-8.023 8.232-.781 1.058-1.133 2.395-1 3.799.083.879.32 1.398.904 1.98.415.414.961.709 1.53.826.658.135 2.151.121 2.685-.026.566-.156 1.244-.492 1.656-.824.19-.152 2.754-2.733 5.696-5.734l5.35-5.457-.672-.673c-.37-.371-.686-.674-.703-.674-.026 0-7.648 7.747-10.228 10.397-.595.61-.744.732-1.101.902-.514.244-1.027.317-1.726.248a9.03 9.03 0 0 1-.638-.082c-.263-.061-.546-.308-.689-.601-.124-.252-.14-.356-.14-.859.001-.853.195-1.476.642-2.064.174-.23 10.177-10.416 10.228-10.416.008 0 .067.083.13.185.232.376.116.811-.398 1.494-.136.182-1.46 1.58-2.943 3.107l-2.694 2.777.667.673c.367.371.685.674.706.674.053 0 5.11-5.216 5.524-5.698 1.012-1.179 1.4-2.253 1.156-3.205-.178-.693-.426-1.062-1.325-1.969l-.826-.834-3.768 3.822m9.515 3.34c-.489.109-.645.222-1.499 1.086l-.811.821.003.425.002.425.904.989c1.29 1.412 1.638 1.736 2.121 1.974a3.43 3.43 0 0 0 4.032-.736l.253-.27-.002-.456-.002-.457-1.749-1.768c-1.035-1.046-1.838-1.813-1.966-1.878-.192-.098-.767-.239-.925-.226a4.898 4.898 0 0 0-.361.071m1.508 3.045c1.129 1.153 1.098 1.09.527 1.06-.425-.022-.84-.371-1.947-1.638l-.108-.124.187-.194c.103-.106.214-.186.246-.178.031.009.524.492 1.095 1.074" fill-rule="evenodd" fill="#000"/></svg>
