<svg width="32" height="32" xmlns="http://www.w3.org/2000/svg"><path d="M21.779 4.445c-.23.245-.5.581-.598.746-.883 1.479-.841 3.234.112 4.659.21.314.584.684 1.845 1.832l1.582 1.438h.862l.97-.983c1.058-1.072 1.191-1.268 1.299-1.917a2.136 2.136 0 0 0-.182-1.246c-.156-.314-.356-.533-2.698-2.961L23.03 4h-.832l-.419.445M24.363 8.1c1.268 1.319 1.61 1.703 1.61 1.812 0 .102-.11.25-.412.553-.226.228-.432.415-.457.415-.076 0-2.138-1.905-2.261-2.091-.305-.457-.363-.672-.363-1.349 0-.493.022-.687.093-.845.051-.112.112-.196.136-.186.024.01.769.771 1.654 1.691M12.72 14.298c-3.256 3.282-6.079 6.15-6.274 6.374-.588.677-.978 1.426-1.229 2.358-.083.306-.116.626-.134 1.263-.025.939.048 3.362.103 3.417.019.019.918.096 1.998.171 2.157.15 2.642.136 3.403-.097.466-.142 1.115-.462 1.451-.714.14-.106 2.892-2.849 6.114-6.096l5.858-5.904-.67-.659-.67-.659-4.199 4.231-5.829 5.873c-.896.903-1.742 1.715-1.88 1.804-.64.412-1.182.492-2.64.388-.551-.039-1.029-.072-1.063-.073-.092-.003-.152-1.698-.075-2.135.133-.752.39-1.329.833-1.867.157-.19 2.658-2.734 5.559-5.652l5.273-5.305.15.227c.231.349.242.676.037 1.091a4.847 4.847 0 0 1-.463.706c-.164.205-1.575 1.677-3.136 3.271a288.615 288.615 0 0 0-2.851 2.934c-.007.02.282.33.642.69l.656.654 2.107-2.148c4.045-4.123 4.141-4.228 4.588-4.989.634-1.081.648-2.22.039-3.173-.276-.433-1.649-1.969-1.744-1.953-.019.003-2.698 2.691-5.954 5.972" fill-rule="evenodd" fill="#000"/></svg>
