<svg xmlns="http://www.w3.org/2000/svg" viewBox="0 0 22 22">
    <path fill-rule="evenodd" d="M16.089.368c-.517.466-.962 1.209-1.154 1.925-.087.324-.098.432-.098.952s.011.628.098.952c.12.449.395 1.015.657 1.358.127.165.701.712 1.607 1.531l1.409 1.274h.736l.902-.907c.937-.942 1.018-1.047 1.145-1.474.077-.26.078-.806.001-1.068-.104-.355-.267-.578-.89-1.222l-2.017-2.085L17.073.147h-.739l-.245.221m2.184 3.463c1.128 1.165 1.49 1.561 1.49 1.628 0 .063-.111.202-.392.486-.215.219-.407.398-.425.398-.045 0-1.778-1.569-1.957-1.772a1.866 1.866 0 0 1-.398-.742c-.069-.258-.079-.849-.019-1.08.065-.249.156-.479.185-.468.015.006.697.703 1.516 1.55M7.495 9.652c-4.315 4.322-5.654 5.683-5.796 5.895-.383.57-.603 1.051-.761 1.662-.17.655-.184.923-.133 2.664.026.877.057 1.606.07 1.619.049.05 3.461.26 3.855.238 1.008-.058 1.914-.421 2.632-1.054.176-.155 2.63-2.594 5.453-5.419l5.133-5.137-.605-.605-.604-.605-5.335 5.33c-4.105 4.1-5.382 5.356-5.537 5.442-.306.17-.735.301-1.104.335-.328.03-2.137-.066-2.222-.118-.053-.033-.087-1.451-.044-1.804.069-.56.294-1.151.598-1.571.09-.124 2.376-2.437 5.08-5.139l4.917-4.913.072.091c.108.137.22.381.244.528.043.264-.166.7-.589 1.227-.123.153-1.399 1.467-2.835 2.919l-2.61 2.641.6.603.601.602 1.972-1.996c3.602-3.646 3.532-3.572 3.919-4.14.248-.365.427-.724.54-1.082.109-.348.117-1.072.014-1.375a4.185 4.185 0 0 0-.519-.972c-.183-.244-1.326-1.485-1.367-1.485-.015 0-2.552 2.529-5.639 5.619"/>
</svg>
