<svg xmlns="http://www.w3.org/2000/svg" viewBox="0 0 42 42"><path fill="#A12577" fill-rule="evenodd" d="M18.9 5.424c-2.31.638-4.12 1.718-4.933 2.943-.501.754-.481.586-.533 4.653-.031 2.47-.073 3.778-.129 3.99-.147.557-.545 1.279-1.062 1.925-.947 1.183-1.71 2.462-2.139 3.586-.244.64-.301 1.573-.131 2.157.29.999 1.019 1.762 2.06 2.155.376.142.528.149 3.84.171l3.447.023v4.206c0 2.949.024 4.285.08 4.472.383 1.279 2.105 1.399 2.726.19.128-.247.134-.466.134-4.602V26.95h3.625c3.95 0 4.073-.01 4.8-.405.5-.271 1.001-.787 1.221-1.256.183-.391.189-.444.189-1.631V22.43l-.372-.764c-.429-.883-1.038-1.833-1.751-2.731a8.914 8.914 0 0 1-.74-1.085c-.432-.819-.462-1.134-.462-4.855 0-3.102-.009-3.349-.137-3.765-.247-.799-.742-1.437-1.624-2.093-.976-.726-2.528-1.427-3.874-1.751-.469-.113-.809-.134-2.1-.13-1.391.004-1.597.02-2.135.168m4.199 3.046c.808.264 1.93.837 2.324 1.186l.302.268.041 3.595c.039 3.364.051 3.63.188 4.121.372 1.333.682 1.915 1.746 3.277.589.753 1.114 1.616 1.417 2.328.243.571.256.663.102.723-.061.023-3.724.042-8.141.042-6.732 0-8.053-.016-8.164-.097-.129-.094-.127-.11.056-.577.267-.679.787-1.525 1.586-2.581.799-1.055 1.047-1.476 1.339-2.278.425-1.164.428-1.199.465-4.988l.033-3.485.232-.225c.307-.298.992-.699 1.663-.974.302-.124.542-.265.542-.318 0-.052.027-.078.061-.058.033.021.198-.006.367-.059.216-.067.738-.098 1.753-.103 1.426-.007 1.455-.004 2.088.203"/></svg>
