<svg xmlns="http://www.w3.org/2000/svg" viewBox="0 0 42 42"><path fill="#A12577" fill-rule="evenodd" d="M22.718 6.093c-1.239.195-2.154.687-2.665 1.431-.132.193-.932 1.548-1.776 3.011-.994 1.722-1.66 2.8-1.89 3.056-.478.533-1.03.888-1.941 1.248-1.654.653-3.186 1.55-3.942 2.308a3.892 3.892 0 0 0-.659.922c-.23.455-.275.618-.306 1.119-.063 1.013.252 1.848.958 2.544.217.214 1.205.826 3.118 1.932 1.54.89 2.823 1.64 2.852 1.667.029.028-.85 1.608-1.951 3.512-1.102 1.904-2.065 3.598-2.14 3.763-.431.954.16 2.016 1.168 2.099.487.041.934-.118 1.207-.429.108-.123 1.137-1.853 2.286-3.844 1.149-1.991 2.109-3.609 2.134-3.596l3.049 1.758c1.653.953 3.181 1.793 3.395 1.868 1.074.374 2.299.146 3-.558.427-.429 1.201-1.839 1.289-2.347.132-.761.09-2.625-.083-3.757-.181-1.181-.159-1.792.091-2.508.09-.257.884-1.711 1.764-3.232.88-1.521 1.656-2.912 1.724-3.092.402-1.053.121-2.48-.786-3.988-.478-.795-.83-1.242-1.633-2.073-.654-.677-.77-.762-1.995-1.47-1.447-.835-1.644-.915-2.883-1.171-.974-.201-2.664-.287-3.385-.173m2.556 3.034c.175.014.419.048.541.075.123.027.238.047.258.045.019-.002.596.321 1.281.717 1.322.764 1.577.979 2.302 1.94.437.578.934 1.548.934 1.82 0 .131-.528 1.111-1.551 2.879-.853 1.475-1.642 2.88-1.752 3.123-.572 1.252-.725 2.615-.484 4.301.147 1.034.187 2.492.088 3.238-.038.289-.073.354-.199.372-.1.014-2.528-1.349-7.035-3.948-3.785-2.184-6.937-4.018-7.004-4.075-.204-.175-.141-.334.245-.619.809-.6 1.481-.963 2.645-1.426 1.289-.514 2.019-.977 2.82-1.79.638-.648.772-.854 2.532-3.902 1.812-3.139 1.512-2.866 3.08-2.81.539.019 1.123.046 1.299.06"/></svg>
