<svg width="32" height="32" xmlns="http://www.w3.org/2000/svg"><path d="M13.2 2.885c-2.554.375-4.697 1.275-6.737 2.83-.444.337-1.596 1.462-2.067 2.017-.87 1.024-1.84 2.711-2.333 4.058-.533 1.451-.797 2.981-.798 4.608 0 1.3.063 1.981.275 2.949.576 2.636 1.807 4.889 3.725 6.818a13.432 13.432 0 0 0 4.039 2.824c.334.153.615.27.624.261a6.7 6.7 0 0 0-.031-.65c-.063-.873-.061-2.096.005-2.557.07-.487.518-2.505 1.18-5.312l.515-2.184-.13-.411c-.295-.928-.317-2.17-.053-3.005.164-.521.577-1.174.917-1.453.395-.323.717-.44 1.285-.467.426-.02.539-.005.783.099.341.147.634.455.821.865.133.289.137.335.111 1.107-.024.717-.048.878-.222 1.465-.554 1.872-.81 2.798-.86 3.108-.097.603.082 1.139.538 1.613.738.768 1.813.857 3.066.256.386-.186.522-.294 1.023-.817.466-.486.63-.703.841-1.111.59-1.143.868-2.343.872-3.764.006-1.817-.459-3.059-1.556-4.155-1.102-1.103-2.342-1.565-4.183-1.558-1.03.004-1.73.121-2.461.411-1.791.712-3.158 2.346-3.562 4.258-.141.663-.132 1.792.019 2.409.149.61.4 1.218.713 1.727.282.459.282.46.008 1.549-.185.733-.278.909-.454.856-.505-.154-1.318-.875-1.783-1.584-.855-1.304-1.18-2.701-1.064-4.578.198-3.205 2.335-5.909 5.511-6.971 1.698-.569 3.729-.68 5.487-.303 2.828.608 5.086 2.534 5.987 5.107.335.956.372 1.221.371 2.695-.001 1.201-.015 1.413-.13 1.953-.473 2.223-1.539 4.013-3.082 5.173-1.152.866-2.34 1.257-3.828 1.259-.596.001-.783-.02-1.127-.127a3.893 3.893 0 0 1-1.601-.931c-.28-.264-.442-.382-.458-.334-.014.041-.162.611-.33 1.267-.626 2.444-.921 3.232-1.773 4.735-.365.645-.377.691-.196.762.432.169 1.91.433 2.762.494 2.367.168 4.489-.187 6.609-1.106 2.322-1.008 4.675-3.023 6.025-5.163 1.392-2.206 2.162-4.816 2.162-7.326 0-4.015-1.746-7.852-4.742-10.42-1.981-1.698-4.135-2.71-6.739-3.166-.854-.15-3.18-.196-3.974-.08" fill="#fff" fill-rule="evenodd"/></svg>
