<svg xmlns="http://www.w3.org/2000/svg" xml:space="preserve" viewBox="0 0 32 32"><path d="M5.998.055c-.726.072-1.7.357-2.371.694C2.487 1.322 1.429 2.38.856 3.52c-.245.488-.396.918-.58 1.653l-.14.56-.017 9.814c-.011 6.386.002 9.99.037 10.32.19 1.776.957 3.264 2.252 4.367.805.686 1.618 1.085 2.817 1.383l.562.14 9.959.016c10.84.018 10.422.028 11.478-.28 1.126-.327 1.931-.803 2.751-1.624.979-.98 1.47-1.928 1.796-3.469.09-.427.096-1.031.096-10.507 0-9.468-.006-10.08-.096-10.524-.287-1.409-.859-2.504-1.801-3.446C29.037.99 28.084.487 26.602.145l-.495-.114-9.84-.009C10.855.017 6.234.032 5.998.055m12.876 6.156c3.568.527 6.455 2.62 7.576 5.493.409 1.05.554 1.866.55 3.096-.004.957-.103 1.59-.38 2.416-.689 2.057-2.367 3.89-4.484 4.9-2.346 1.118-5.264 1.383-8.343.758-.792-.16-2.098-.513-2.456-.663l-.19-.079v3.551l.343.15c.19.082.406.206.48.276.158.146.179.369.048.513-.082.092-.222.098-2.21.098H7.686l-.083-.119c-.107-.152-.105-.305.004-.461.099-.141.678-.433.86-.433h.12v-15.37l-.28.228c-.539.439-1.564 1.519-1.868 1.968l-.307.454.059.316c.105.571-.031.936-.378 1.012-.123.027-.188-.056-.9-1.156l-.766-1.185.544-.52c3.244-3.103 6.975-4.909 10.989-5.321.64-.065 2.536-.019 3.194.078m-3.191 1.26c-1.549.174-3.058.663-4.23 1.368l-.413.249V20.59l.253.11c.731.318 1.958.642 3.107.822.746.117 2.777.166 3.369.082 2.151-.306 3.888-1.35 4.984-2.996.861-1.294 1.246-2.867 1.094-4.473-.178-1.868-.671-3.011-1.956-4.534-1.192-1.413-2.78-2.101-4.984-2.16-.426-.012-.976.002-1.224.03" fill-rule="evenodd"/></svg>
