<svg xmlns="http://www.w3.org/2000/svg" viewBox="0 0 19 19">
    <path fill-rule="evenodd" d="M9.009.887c-1.522.136-2.98.643-4.196 1.458a9.257 9.257 0 0 0-2.468 2.468 8.89 8.89 0 0 0-1.408 6.043 8.865 8.865 0 0 0 5.65 7.137 8.92 8.92 0 0 0 5.268.308 8.92 8.92 0 0 0 3.218-1.544c.438-.328 1.255-1.131 1.607-1.579.139-.178.298-.361.352-.406.154-.13.568-.637.757-.927a5.745 5.745 0 0 0 .766-1.9c.055-.269.065-.436.065-1.096 0-.429-.012-.779-.027-.779s-.036-.289-.046-.641a8.053 8.053 0 0 0-.437-2.505C17.034 3.687 14.239 1.39 10.82.932 10.38.873 9.43.85 9.009.887m1.758 1.757c.826.126 1.799.457 2.434.829l.14.082-.076.06a5.992 5.992 0 0 1-.931.572c-.553.244-.88.316-1.425.315-.947-.003-1.687-.313-2.656-1.111a4.245 4.245 0 0 0-.515-.373.65.65 0 0 1-.17-.109c0-.055.945-.26 1.431-.31.401-.041 1.362-.016 1.768.045M6.853 4.493c.071.031.265.168.43.304.759.623 1.588 1.054 2.438 1.268.391.099.748.141 1.209.141 1.249.002 2.358-.419 3.463-1.314l.344-.28.186.204a7.587 7.587 0 0 1 1.369 2.103c.209.491.209.455.007.724-.29.385-.752.904-1.109 1.244-.761.726-1.461 1.171-2.191 1.392-.247.074-.342.086-.712.088-.496.002-.696-.04-1.103-.234-.428-.204-.714-.425-1.351-1.045-.83-.808-1.27-1.139-1.932-1.456-1.476-.705-3.004-.658-4.668.144-.233.113-.431.198-.44.189-.02-.02.202-.716.284-.891.143-.306 1.15-1.386 1.705-1.829.912-.728 1.581-.971 2.071-.752m-.427 4.421c.463.097.984.348 1.455.702.133.1.477.411.764.691.788.769 1.088 1.004 1.654 1.294 1.121.574 2.332.639 3.533.191.897-.335 1.701-.872 2.586-1.727l.429-.414v.328c-.001.602-.154 1.42-.397 2.118-.233.667-.676 1.494-.908 1.692-.134.115-.486.313-.722.406-.403.159-.929.196-1.306.091-.399-.111-.593-.267-1.139-.923a3.414 3.414 0 0 0-2.06-1.172c-.361-.058-1.032-.023-1.448.075-1.121.265-2.409.943-3.933 2.07l-.402.297-.126-.138c-.91-.987-1.561-2.367-1.76-3.732-.085-.585-.092-.562.212-.778.918-.656 1.731-1.016 2.525-1.119a3.88 3.88 0 0 1 1.043.048m3.787 4.999c.388.105.678.322 1.085.812.526.633 1.014.98 1.653 1.174l.234.071-.267.133c-.984.493-1.867.709-3.009.735-.801.019-1.29-.03-1.945-.196-.66-.167-1.416-.48-1.927-.799l-.154-.096.399-.282c1.202-.846 2.245-1.384 2.996-1.546.267-.057.733-.06.935-.006"/>
</svg>
