<svg width="32" height="32" xmlns="http://www.w3.org/2000/svg"><path d="M14.603 3.771c-3.533.48-6.57 2.393-8.51 5.359-.886 1.354-1.463 2.847-1.787 4.62-.139.762-.138 2.931.002 3.761.643 3.819 3.014 7.054 6.442 8.79.976.494 2.097.866 3.303 1.096.762.145 2.553.202 3.367.107 3.105-.361 6.008-1.924 7.88-4.244.227-.281.631-.743.898-1.027a7.266 7.266 0 0 0 1.876-3.694c.099-.527.124-2.424.031-2.424-.034 0-.055-.28-.055-.729-.001-1.752-.489-3.663-1.358-5.321-1.82-3.468-5.221-5.812-9.145-6.301-.774-.097-2.206-.093-2.944.007m2.899 2.308a9.44 9.44 0 0 1 1.955.496c.693.258 1.511.674 1.484.756-.039.118-.936.693-1.354.868-.757.317-1.205.398-2.012.365-.811-.034-1.175-.118-1.828-.424-.554-.258-.92-.499-1.589-1.043-.284-.231-.617-.472-.742-.535-.124-.063-.204-.128-.178-.144.095-.059.963-.262 1.433-.335.674-.106 2.141-.107 2.831-.004m-5.341 2.453c.102.035.36.202.571.373 1.434 1.153 2.644 1.725 4.095 1.934.566.081 1.799.035 2.313-.087 1.252-.297 2.245-.794 3.293-1.647l.461-.375.269.296a10.098 10.098 0 0 1 1.594 2.318c.193.384.488 1.089.488 1.167 0 .092-1.018 1.276-1.563 1.817-1.633 1.622-3.139 2.346-4.519 2.171-.983-.124-1.594-.479-2.745-1.594-1.186-1.148-1.728-1.567-2.596-2.005-1.106-.558-2.1-.778-3.281-.728-1.105.046-2.018.288-3.161.837l-.623.298.038-.177c.021-.098.119-.405.218-.683.21-.591.514-.995 1.485-1.973.935-.943 1.923-1.656 2.639-1.905.319-.111.755-.126 1.024-.037m-.359 6.044c.989.253 1.719.731 3.005 1.965.973.933 1.466 1.31 2.183 1.667a5.346 5.346 0 0 0 2.561.602c1.875 0 3.702-.874 5.571-2.665.333-.319.617-.58.632-.58.014 0 .017.179.005.399-.079 1.47-.388 2.692-.993 3.923-.537 1.094-.746 1.319-1.574 1.701-.98.452-1.959.389-2.69-.173a4.664 4.664 0 0 1-.55-.573c-.876-1.055-1.728-1.604-2.858-1.842-1.77-.372-4.143.511-7.12 2.649-.437.314-.813.571-.835.571-.063 0-.457-.428-.735-.798A10.14 10.14 0 0 1 6.77 18.01c-.108-.427-.28-1.455-.28-1.669 0-.072.204-.242.662-.551.984-.662 1.83-1.057 2.666-1.241.527-.116 1.473-.103 1.984.027m5.364 6.861c.395.197.658.433 1.158 1.038.607.733 1.26 1.196 2.073 1.468l.405.136-.487.23c-1.422.672-2.627.942-4.2.942-1.613 0-2.897-.301-4.345-1.018a6.606 6.606 0 0 1-.66-.363c-.165-.125-.233-.061.8-.765 1.398-.954 2.666-1.592 3.569-1.797.188-.042.551-.069.834-.061.436.013.546.038.853.19" fill-rule="evenodd" fill="#000"/></svg>
