<svg xmlns="http://www.w3.org/2000/svg" viewBox="0 0 42 42"><path fill="#AB007E" fill-rule="evenodd" d="M18.622 6.668a66.36 66.36 0 0 1-.466 1.442c-.01.014-1.071-.281-2.359-.655l-2.341-.68-2.843 1.631c-1.564.897-2.843 1.649-2.843 1.671 0 .022.953.21 2.118.417 1.164.207 2.159.392 2.21.411.051.019-.17.119-.49.222-1.565.504-2.946 1.522-3.832 2.826-.356.523-.767 1.455-.972 2.203l-.185.679-.023 4.853c-.024 5.334-.008 5.639.402 7.26.974 3.856 3.537 6.944 6.366 7.669.491.126.866.133 7.184.133h6.666l.617-.179c1.214-.351 2.151-.963 3.294-2.15 1.674-1.738 2.765-4.05 3.221-6.828.09-.548.118-1.489.144-4.913.035-4.474-.008-5.583-.253-6.527-.603-2.321-2.187-4.063-4.483-4.928l-.591-.222.311-.083c1.613-.427 2.438-.684 3.087-.959.42-.178.739-.349.709-.378-.03-.03-1.405-.675-3.055-1.432l-2.999-1.378-2.099.679c-1.155.374-2.108.669-2.119.656a41.893 41.893 0 0 1-.39-1.44l-.37-1.418H19.07l-.448 1.418m9.518 8.128c1.247.419 1.969 1.157 2.273 2.322.154.59.158 8.965.005 9.972-.364 2.399-1.741 4.724-3.288 5.552l-.285.153-6.223.019-6.224.019-.436-.204c-.544-.255-1.355-1.011-1.849-1.726-.808-1.168-1.366-2.712-1.538-4.251-.12-1.084-.1-8.658.025-9.314.176-.92.606-1.604 1.302-2.068a3.642 3.642 0 0 1 1.451-.569c.183-.031 3.498-.052 7.367-.045 6.639.01 7.057.018 7.42.14m-8.211 4.275c-.683.244-1.16.776-1.312 1.465-.052.238-.071 1.102-.055 2.564.026 2.471.026 2.47.544 3.033.411.446.874.629 1.503.594.574-.032.94-.186 1.301-.547.529-.529.525-.503.525-3.325 0-2.465-.003-2.526-.155-2.809-.443-.829-1.514-1.273-2.351-.975m-5.982 1.689a2.037 2.037 0 0 0-.951 1.006c-.191.42-.205 1.775-.023 2.198.182.424.496.771.899.995.326.18.444.206.933.206.496 0 .604-.025.945-.216.269-.152.469-.338.665-.619l.28-.403.024-.931c.021-.805.006-.972-.112-1.239-.335-.756-.979-1.177-1.802-1.177-.394 0-.573.037-.858.18m11.848-.02c-.391.187-.829.634-1.003 1.02-.086.192-.115.473-.116 1.13-.001.775.017.909.157 1.171.235.439.524.737.903.931.465.237 1.317.246 1.748.017.401-.212.718-.547.911-.963.143-.306.163-.453.159-1.156-.005-.881-.058-1.095-.39-1.564-.343-.485-.767-.697-1.453-.728-.485-.022-.616-.001-.916.142"/></svg>
