<svg xmlns="http://www.w3.org/2000/svg" viewBox="0 0 42 42">
  <path fill="#a12577" fill-rule="evenodd" d="M11.356 6.168c-1.106.548-1.113 2.034-.013 2.652.305.171.351.176 1.975.197l1.662.022v3.884l-.183.367c-.153.307-.31.462-.962.95-2.836 2.119-4.55 5.267-4.802 8.818-.241 3.407.934 6.518 3.389 8.969 1.084 1.083 1.918 1.692 3.153 2.305 1.43.709 2.505 1.017 4.177 1.196 2.894.31 5.993-.649 8.493-2.63.545-.431 1.514-1.443 1.973-2.059.741-.994 1.457-2.446 1.804-3.659.373-1.304.42-1.693.422-3.485.001-1.917-.072-2.444-.529-3.838-.8-2.439-2.19-4.286-4.452-5.918-.386-.279-.544-.446-.683-.724l-.18-.362V9.044l1.138-.024c1.102-.024 1.147-.031 1.475-.224.385-.226.713-.687.783-1.1.096-.568-.289-1.236-.887-1.542-.256-.13-.521-.134-8.859-.134h-8.595zm12.248 5.47c.026 1.562.035 1.649.222 2.187.372 1.073.877 1.714 2.039 2.591 1.989 1.502 3.14 3.321 3.614 5.714.131.656.112 2.416-.033 3.155a9.34 9.34 0 0 1-2.028 4.2c-.41.484-1.468 1.358-2.122 1.752-2.821 1.698-6.49 1.62-9.248-.197-.828-.546-2.043-1.767-2.59-2.605a9.6 9.6 0 0 1-1.19-2.658c-.166-.619-.184-.805-.188-2.012-.003-.883.027-1.471.09-1.75.534-2.357 1.779-4.232 3.719-5.599.698-.492 1.187-1.038 1.498-1.674.429-.877.477-1.157.514-3.034l.033-1.698h5.643zm2.288 10.643c-.446.188-.529.244-1.777 1.188-1.465 1.109-2.277 1.431-3.43 1.36-.841-.052-1.411-.241-2.637-.875-1.018-.526-1.031-.531-1.656-.56a9 9 0 0 0-1.458.082 29 29 0 0 1-1.074.131l-.245.018.022.735c.055 1.768.67 3.188 1.884 4.348.884.844 1.881 1.388 3.225 1.758.76.209 2.935.225 3.724.028 2.487-.622 4.272-2.292 5.105-4.778.223-.666.425-1.748.423-2.266a1.56 1.56 0 0 0-.483-1.084c-.197-.186-.277-.211-.726-.229-.404-.017-.582.012-.897.144"/>
</svg>
