<svg xmlns="http://www.w3.org/2000/svg" viewBox="0 0 32 32" xml:space="preserve"><path d="M10.19 1.717c-.507.194-.679.43-1.573 2.148L7.813 5.41l-1.493.783c-.891.467-1.594.872-1.744 1.003a1.93 1.93 0 0 0-.399.526c-.127.258-.15.369-.148.731.002.497.12.816.404 1.093.099.097.897.575 1.774 1.062l1.594.885L8.1 12l.3.507.028 4.906c.027 4.829.03 4.914.143 5.316.614 2.174 2.254 3.626 4.388 3.883.616.074 10.013.074 10.607-.001 2.098-.263 3.792-1.764 4.36-3.864.096-.356.101-.655.101-6.4V10.32l-.12-.453c-.151-.568-.526-1.354-.865-1.811-.304-.41-.934-1.029-1.299-1.278-.398-.271-1.194-.629-1.692-.76-.445-.118-.511-.12-4.958-.149l-4.506-.029-.41-.229-.41-.23-.864-1.584c-.475-.871-.939-1.665-1.03-1.764-.389-.42-1.075-.55-1.683-.316m1.251 4.043c.375.676.654 1.115.798 1.253.121.118.669.464 1.218.77.548.306.996.57.996.586 0 .017-.495.331-1.101.698-.82.496-1.14.72-1.255.877-.084.116-.399.65-.699 1.186-.408.732-.558.959-.598.904a38.818 38.818 0 0 1-.613-1.074c-.394-.704-.624-1.057-.774-1.187-.117-.101-.666-.429-1.219-.728s-1.007-.566-1.008-.594c-.001-.028.448-.304.998-.612.549-.309 1.087-.636 1.194-.726.134-.113.394-.518.828-1.295.348-.622.638-1.123.645-1.114.007.009.273.484.59 1.056m12.095 2.533a2.852 2.852 0 0 1 2.038 2.038c.068.261.079 1.126.079 5.977v5.673l-.135.404c-.29.864-.865 1.447-1.762 1.788l-.316.12-5.04.015c-3.613.012-5.143-.001-5.405-.045-.958-.16-1.822-.888-2.179-1.836-.12-.319-.121-.338-.137-3.72l-.017-3.4h.187c.294 0 .769-.205.984-.424.115-.117.549-.848 1.066-1.797l.873-1.599 1.572-.874c1.285-.715 1.615-.922 1.804-1.132.238-.265.364-.566.424-1.014l.035-.254h2.812c2.318 0 2.865.014 3.117.08M17.28 11.44c-1.726.349-3.19 1.659-3.724 3.333a4.985 4.985 0 0 0 .575 4.198c1.312 1.99 3.816 2.733 6.048 1.794 1.281-.538 2.296-1.707 2.737-3.15.13-.426.143-.548.144-1.348.001-.808-.01-.919-.143-1.349-.568-1.845-2.049-3.174-3.9-3.502-.423-.075-1.308-.063-1.737.024m1.392 2.214c.893.17 1.668.861 1.97 1.759.098.294.113.431.093.894-.023.511-.039.575-.246.993a2.592 2.592 0 0 1-1.914 1.428c-1.172.201-2.427-.595-2.794-1.773-.126-.405-.133-1.092-.016-1.492a2.609 2.609 0 0 1 1.261-1.546c.551-.294 1.056-.374 1.646-.263" fill="#A12577" fill-rule="evenodd"/></svg>