<svg xmlns="http://www.w3.org/2000/svg" viewBox="0 0 42 42">
  <path fill="#a12577" fill-rule="evenodd" d="M14.709 6.127c-1.324.29-2.594 1.271-3.23 2.493-.457.879-.559 1.406-.559 2.896v1.273l-.577.046c-1.629.128-3.058.771-4.264 1.92-1.161 1.107-1.84 2.456-2.024 4.025-.049.419-.066 2.021-.047 4.565.031 4.367.014 4.197.538 5.257.541 1.094 1.629 2.04 2.811 2.443.554.189.67.203 1.991.23l1.403.029.077.642c.147 1.236.565 2.115 1.422 2.988.584.594 1.176.96 2.018 1.248l.537.183h12.11l.56-.19a4.97 4.97 0 0 0 2.978-2.664c.202-.431.368-1.118.457-1.888l.039-.333h1.294c1.438 0 1.988-.085 2.746-.427a4.82 4.82 0 0 0 2.354-2.246c.538-1.071.536-1.048.511-5.972-.02-3.878-.035-4.384-.144-4.75-.858-2.886-3.141-4.754-6.087-4.981l-.613-.047v-1.186c0-1.454-.104-2.031-.524-2.896-.598-1.234-1.566-2.089-2.871-2.538l-.56-.192-5.95-.013c-4.874-.011-6.031.005-6.396.085m12.136 3.034a1.9 1.9 0 0 1 .93.876c.18.342.19.413.213 1.566l.024 1.207H13.93l.001-1.172c0-1.088.012-1.198.166-1.523.201-.423.53-.748.953-.94.308-.139.433-.142 5.915-.142 5.27 0 5.616.008 5.88.128m5.348 6.767c1.354.319 2.486 1.505 2.732 2.862.099.548.104 7.574.005 7.635-.038.024-.07.137-.07.251 0 .502-.501 1.167-1.085 1.439-.324.151-.44.164-1.557.164l-1.208.001V23.1H10.92v5.191l-1.318-.023-1.319-.023-.344-.212c-.381-.235-.756-.735-.871-1.162-.05-.183-.068-1.594-.054-4.211l.021-3.935.178-.456c.461-1.184 1.374-2.029 2.525-2.338.58-.156 21.794-.159 22.455-.003m-6.083 3.567V21h3.36v-3.01h-3.36zm1.875 9.573-.02 2.957-.21.379c-.236.427-.688.795-1.12.915-.196.054-1.948.071-5.845.056l-5.565-.02-.287-.153c-.345-.185-.7-.575-.876-.962-.119-.262-.129-.517-.13-3.207l-.002-2.923h14.076z"/>
</svg>
