<svg xmlns="http://www.w3.org/2000/svg" viewBox="0 0 24 24">
    <path fill-rule="evenodd" d="M11.26 1.761a4.948 4.948 0 0 0-2.488 1.118C8.06 3.487 7.4 4.564 7.4 5.12c0 .362.243.853.535 1.083.146.115.499.264.689.292l.164.024.023-.272a3.097 3.097 0 0 1 1.624-2.461c.5-.262.789-.326 1.465-.326.669 0 .907.054 1.42.323.595.313.97.708 1.337 1.41.428.822.953 1.2 1.819 1.309l.217.027-.027-.342a4.736 4.736 0 0 0-.92-2.483c-.334-.449-.547-.667-.963-.982-.592-.449-1.127-.701-1.881-.886-.372-.092-1.266-.133-1.642-.075M7.218 6.894c.1 1.19.575 2.223 1.401 3.046.199.198.455.423.57.5.115.077.209.152.21.167.001.015-.067.049-.149.075-.414.135-1.117.536-1.65.942a7.012 7.012 0 0 0-2.056 2.516c-.501 1.059-.686 1.944-.652 3.12.03 1.046.174 1.649.613 2.577.956 2.016 2.852 3.354 5.103 3.6.249.028 1.87.043 4.512.043h4.123l-.013-3.93c-.013-3.919-.014-3.931-.104-4.33-.287-1.261-.873-2.333-1.754-3.207a6.113 6.113 0 0 0-2.282-1.45c-.137-.051-.25-.109-.25-.128 0-.019.015-.035.033-.035.076 0 .704-.63.93-.933.134-.18.336-.514.45-.743.201-.404.207-.425.206-.76 0-.292-.016-.377-.108-.565-.209-.426-.633-.744-1.05-.787l-.208-.022-.026.3a3.112 3.112 0 0 1-.793 1.77 2.85 2.85 0 0 1-.913.682c-.838.414-1.916.412-2.738-.005-.636-.323-1.02-.717-1.384-1.419-.275-.53-.534-.83-.892-1.033a2.895 2.895 0 0 0-.962-.298l-.195-.018.028.325m6.702 5.085c1.938.44 3.399 2.081 3.596 4.039.027.268.044 1.456.044 3.089v2.653h-3.395c-3.715 0-3.719 0-4.42-.238a4.674 4.674 0 0 1-2.687-2.381c-.551-1.135-.635-2.31-.253-3.557.589-1.925 2.27-3.352 4.295-3.647.532-.078 2.417-.05 2.82.042"/>
</svg>
