<svg xmlns="http://www.w3.org/2000/svg" viewBox="0 0 42 42"><path fill="#A22678" fill-rule="evenodd" d="M14.735 3.604c-.308.055-.836.18-1.174.278-.605.176-.903.29-3.087 1.185-.612.25-1.346.511-1.633.578-.614.145-.603.154-.729-.551l-.084-.474h-.273c-.469 0-1.267.15-1.579.297-.633.297-.986.987-.906 1.767.107 1.035.939 1.662 2.343 1.764l.578.043-.018 8.932-.018 8.932-1.26.035-1.26.035-.02.91c-.011.5-.003.98.018 1.066.068.274.847 1.039 1.224 1.201.743.32 1.673.24 2.551-.217.52-.272 1.515-1.25 1.853-1.824.129-.22.333-.675.453-1.013l.217-.613.037-2.216.037-2.216.455.344c.25.189.623.407.828.484 1.343.507 3.196.175 4.711-.844.618-.416 1.663-1.45 2.226-2.202 2.486-3.323 3.294-7.173 2.235-10.64-.773-2.528-2.541-4.332-4.807-4.907-.863-.22-2.116-.277-2.918-.134m1.23 2.528c.951.279 1.626.976 2.248 2.322.967 2.094.991 4.941.063 7.715-.573 1.714-1.323 2.874-2.141 3.313-.405.218-1.28.214-1.697-.007-.164-.087-.298-.193-.298-.235 0-.043.091-.239.202-.436.235-.418.331-.713.393-1.202l.044-.353-.494-.128c-.669-.173-1.603-.134-2.023.085l-.295.153.019-4.462.019-4.462.169-.35c.243-.502 1.117-1.342 1.73-1.663.788-.412 1.368-.494 2.061-.29m18.398 10.902c-.547.243-1.393.777-1.393.878 0 .158.29.864.479 1.167.187.299.2.349.096.365-.066.011-1.091-.186-2.277-.437-1.186-.251-2.31-.457-2.498-.457-.899 0-2.202.306-3.135.738-2.689 1.242-5.14 4.505-5.782 7.697-.49 2.437-.114 5.369.961 7.5 1.289 2.556 3.39 4.461 5.891 5.343 1.197.422 1.734.505 3.5.542 1.41.03 1.716.016 2.465-.111 1.149-.195 2.287-.65 3.987-1.595l.433-.24-.173-.505a22.759 22.759 0 0 1-.733-2.849c-.13-.704-.153-1.146-.182-3.535l-.034-2.73.601-1.184c.331-.651.601-1.194.601-1.207 0-.075-2.111-.006-2.85.093-1.068.142-1.417.099-2.925-.363-1.483-.454-2.26-.579-2.918-.468-1.715.288-2.915 1.798-2.759 3.472.059.636.249 1.046.69 1.495l.362.367h2.7v-1.814l.442.167c.747.281 1.243.342 1.741.214.235-.06.445-.092.466-.071.021.021.03 1.053.02 2.294-.02 2.459.04 3.359.318 4.762.098.493.165.91.148.926-.016.017-.269.063-.562.104-.597.083-1.71-.001-2.402-.181-2.019-.526-3.821-2.074-5.09-4.371-1.115-2.02-1.457-4.846-.864-7.157.203-.792.433-1.338.892-2.118 1.375-2.335 3.283-3.158 5.766-2.485l1.61.437c.575.155.984.217 1.615.244 2.232.097 3.53-.691 3.813-2.313.107-.615-.028-1.092-.46-1.622-.642-.788-1.121-1.121-1.716-1.192-.254-.031-.41.006-.844.2"/></svg>
