<svg xmlns="http://www.w3.org/2000/svg" viewBox="0 0 32 32" xml:space="preserve"><path d="M15.986 4.295c-2.944.402-5.466 1.915-7.199 4.321l-.194.27.372-.121c.776-.253 2.031-.393 2.688-.299l.32.045.374-.303a7.024 7.024 0 0 1 1.177-.784l.218-.11-.173.436c-.096.24-.209.559-.253.71l-.079.272.541.272c.298.149.733.416.967.592l.426.322.194-.599c.484-1.494 1.11-2.519 1.699-2.784.418-.189.815.054 1.313.802.348.523.684 1.258.931 2.036l.173.547h1.17c1.088 0 1.168-.007 1.144-.093-.263-.959-.393-1.38-.569-1.856a7.964 7.964 0 0 1-.213-.616c0-.065.757.376 1.292.754.262.185.696.544.964.798l.486.462-.474.171c-1.12.405-2.367.718-3.681.922-.517.08-1.071.115-2.173.136-.814.016-1.48.049-1.48.072 0 .024.024.059.054.077.089.055.559.776.73 1.12.088.176.227.493.309.705l.149.386.646-.032c.355-.017.986-.072 1.402-.121l.757-.09.034.323c.043.404.011 3.261-.037 3.308-.019.02-.259.011-.533-.019a24.79 24.79 0 0 0-1.379-.088l-.881-.034-.004.391c-.005.442-.169.883-.588 1.574-.128.21-.233.39-.233.4 0 .009.522.01 1.16.001 1.279-.017 2.181.061 3.273.284 1.054.214 2.276.605 2.943.941l.202.102-.107.15c-.198.277-1.04 1.081-1.48 1.411-.486.366-1.286.864-1.324.825-.014-.014.083-.333.216-.71.224-.634.61-1.993.61-2.147.001-.084-2.267-.098-2.318-.015a6.455 6.455 0 0 0-.186.6c-.191.678-.515 1.478-.814 2.01-.295.523-.857 1.103-1.118 1.152-.622.116-1.499-1.043-2.045-2.703l-.202-.614-.335.254a7.524 7.524 0 0 1-1.461.79l-.187.066.42.155c2.005.74 3.58 2.162 4.28 3.865.21.511.187.504 1.072.352a10.839 10.839 0 0 0 5.909-3.07c.866-.868 1.474-1.73 2.033-2.882a10.472 10.472 0 0 0 .849-6.758 10.624 10.624 0 0 0-9.006-8.334c-.755-.098-2.049-.098-2.771 0M10.23 9.12a6.002 6.002 0 0 0-2.288.882c-.788.522-1.594 1.451-2.002 2.308-.189.397-.234.995-.104 1.386.173.521.711.967 1.264 1.05l.244.037.031-.376c.043-.509.288-1.193.59-1.648a3.596 3.596 0 0 1 2.968-1.625c.659-.008 1.039.076 1.627.358.769.37 1.34.956 1.779 1.826.092.182.245.42.341.529.378.433 1.194.82 1.726.82h.234v-.207a5.81 5.81 0 0 0-.081-.68c-.31-1.803-1.427-3.311-3.039-4.104-.791-.39-1.454-.556-2.32-.583a7.21 7.21 0 0 0-.97.027m14.834 2.474c.535 1.248.769 2.959.585 4.28a9.786 9.786 0 0 1-.422 1.686l-.111.296-.759-.309a19.044 19.044 0 0 0-1.957-.67c-.069-.019-.08-.247-.08-1.636 0-.888-.012-1.923-.027-2.3l-.026-.686.704-.206c.388-.114.976-.313 1.307-.442.331-.129.621-.238.644-.241.023-.003.087.099.142.228M5.547 15.152c0 .384.191 1.273.376 1.755.376.973 1.227 2.047 2.071 2.612 1.408.943 3.234 1.212 4.831.711a6.36 6.36 0 0 0 1.695-.868c.762-.577 1.544-1.582 1.805-2.322a1.51 1.51 0 0 0-.094-1.241c-.15-.29-.155-.293-.551-.407a3.799 3.799 0 0 1-.66-.26 2.778 2.778 0 0 0-.28-.145c-.011 0-.02.078-.021.173-.003.615-.42 1.555-.941 2.117-1.717 1.855-4.657 1.426-5.856-.854a5.945 5.945 0 0 0-.403-.646c-.215-.29-.226-.297-.541-.329a1.985 1.985 0 0 1-1.015-.41c-.108-.087-.246-.158-.307-.158-.096 0-.109.033-.109.272M8.613 20.8c.018.029.057.053.087.053.029 0 .038-.024.02-.053-.018-.029-.057-.053-.086-.053-.03 0-.039.024-.021.053m1.494.571c-2.092.19-4.113 1.332-5.179 2.925-.59.882-.861 1.719-.912 2.811l-.032.68h2.309v-.451c0-.561.074-.921.274-1.347.662-1.404 2.407-2.364 4.295-2.362 1.947.003 3.751 1.062 4.376 2.57.115.278.143.445.164.963l.024.627h2.296l-.03-.707c-.035-.82-.156-1.337-.467-2.003-.521-1.113-1.335-1.997-2.483-2.697-1.244-.758-3.057-1.153-4.635-1.009" fill="#A12577" fill-rule="evenodd"/></svg>