<svg xmlns="http://www.w3.org/2000/svg" xml:space="preserve" viewBox="0 0 32 32"><path fill-rule="evenodd" d="M8.339 3.946c-.676.142-1.077.537-1.566 1.54l-.346.712-.741.372c-1.212.608-1.55 1.024-1.551 1.91-.001.386.021.502.15.78.202.439.44.657 1.299 1.193l.727.454.472.773c.528.863.766 1.116 1.208 1.283.247.093.385.11.756.092.827-.041 1.222-.338 1.894-1.424l.448-.725.563-.28a7.8 7.8 0 0 1 .598-.279c.019 0-.014.054-.075.12-.176.191-.569.838-.723 1.189-.23.523-.32.999-.32 1.677 0 .757.121 1.255.478 1.974.213.428.331.585.761 1.015.399.399.605.559.953.738.244.127.436.237.427.246-.01.009-.209.081-.444.159-1.171.392-2.354 1.278-2.995 2.243l-.194.293-.286-.27c-.496-.47-1.059-.624-1.649-.452-.698.203-.992.483-1.51 1.441l-.375.693-.655.347c-1.109.587-1.4.963-1.402 1.813-.001.381.022.502.141.756.234.499.509.747 1.308 1.178l.716.385.374.7c.6 1.121 1.052 1.481 1.859 1.48.882-.002 1.385-.377 1.978-1.477l.379-.703.745-.399c.809-.434 1.047-.63 1.264-1.04.126-.237.142-.325.142-.8-.001-.495-.012-.556-.169-.853a2.137 2.137 0 0 0-.966-.929c-.314-.157-.33-.174-.272-.286.335-.635.899-1.264 1.471-1.64a4.427 4.427 0 0 1 5.591.559c.874.876 1.303 1.96 1.304 3.296l.001.52h2.095l-.032-.627c-.108-2.109-1.391-4.307-3.229-5.53-.45-.3-.84-.498-1.634-.828-.095-.039-.082-.055.106-.135.39-.166.923-.559 1.276-.941.298-.321.341-.352.29-.208-.104.299-.032 1 .137 1.336.236.466.517.713 1.29 1.13l.699.378.389.721c.444.823.653 1.081 1.036 1.278.391.2 1.053.23 1.488.065.556-.209.803-.464 1.263-1.306l.408-.746.73-.401c.941-.517 1.077-.629 1.275-1.052.133-.284.166-.435.188-.847.025-.48.019-.515-.143-.844-.208-.423-.355-.541-1.312-1.061l-.747-.405-.4-.754c-.489-.921-.724-1.164-1.292-1.337-.481-.146-.874-.116-1.345.105-.481.225-.739.513-1.174 1.312l-.376.691-.746.412c-.411.227-.793.442-.848.476-.089.056-.097.051-.059-.036.185-.431.349-.982.403-1.354.262-1.787-.674-3.607-2.298-4.469-.637-.338-1.399-.542-2.031-.543-.664-.001-1.712.297-2.255.642-.141.089-.246.143-.235.12.201-.397.225-.496.227-.922.002-.399-.017-.495-.163-.8-.228-.479-.472-.705-1.291-1.2l-.706-.427-.432-.761c-.483-.852-.77-1.186-1.181-1.372-.316-.144-.813-.202-1.139-.134m.69 3.417c.136.25.303.507.369.569.109.102.61.395 1.096.641.096.048.167.11.158.137-.009.026-.231.176-.494.333-.699.415-.729.446-1.093 1.116-.184.338-.348.614-.366.614-.018 0-.176-.23-.352-.511-.441-.703-.6-.874-1.022-1.098-.75-.399-.826-.451-.753-.509.037-.03.299-.178.582-.329.629-.337.725-.43 1.041-1.012.137-.254.285-.516.328-.583l.078-.122.09.149c.05.082.202.354.338.605m6.893 3.706c.869.225 1.576.99 1.743 1.885.171.922-.381 1.975-1.264 2.41-1.15.565-2.522.066-3.089-1.124-.154-.323-.165-.387-.165-.936 0-.566.007-.604.183-.951.403-.795 1.235-1.344 2.059-1.362.118-.002.358.033.533.078m7.974 4.196c.148.3.307.587.354.639.047.052.351.23.675.396l.589.302-.53.264c-.292.146-.603.334-.692.419-.089.084-.281.395-.426.689l-.263.536-.26-.522c-.144-.287-.324-.59-.402-.673-.077-.084-.392-.278-.698-.433l-.557-.28.589-.302c.324-.166.628-.344.675-.396.047-.052.206-.339.354-.639.147-.3.28-.545.296-.545.016 0 .149.245.296.545M9.178 22.908c.085.089.394.28.688.425l.533.262-.535.275c-.294.152-.596.333-.672.403-.075.07-.263.379-.418.687l-.282.56-.275-.56c-.151-.308-.328-.613-.393-.678-.064-.064-.363-.238-.664-.385-.301-.148-.547-.282-.547-.298 0-.016.249-.149.553-.296.304-.147.602-.32.664-.385.061-.065.235-.371.386-.678l.276-.56.266.533c.146.294.335.606.42.695"/></svg>
