<svg xmlns="http://www.w3.org/2000/svg" viewBox="0 0 32 32" xml:space="preserve"><path d="M16.107 4.273c-1.918.22-3.728.974-5.307 2.207-.684.535-1.851 1.797-2.177 2.354-.02.034.141.005.367-.067.699-.222 1.254-.293 2.194-.28l.865.011.229-.212c.353-.325 1.347-.972 1.405-.914.014.014-.034.158-.106.321a5.734 5.734 0 0 0-.221.608c-.05.172-.101.341-.115.376-.014.038.125.132.339.229a5.87 5.87 0 0 1 1.238.762c.186.143.345.253.355.243.009-.01.117-.325.239-.701.393-1.207.996-2.246 1.495-2.577.433-.286.822-.139 1.315.495.317.408.815 1.438 1.059 2.192l.195.6h1.169c.675 0 1.168-.021 1.168-.049 0-.113-.379-1.357-.579-1.897-.118-.321-.205-.594-.193-.607.037-.037.898.479 1.345.806.591.432 1.334 1.137 1.267 1.203-.084.084-1.669.585-2.386.755-1.486.352-2.631.482-4.231.482h-1.138l.266.352c.308.407.528.812.808 1.488l.199.48.654-.012c.586-.012.997-.045 1.89-.154l.275-.034.037.397c.043.464.015 3.166-.033 3.214-.019.018-.247.01-.507-.019a24.433 24.433 0 0 0-1.388-.086l-.914-.034-.019.444c-.017.39-.046.5-.238.898-.12.249-.294.572-.387.717a2.136 2.136 0 0 0-.168.293c0 .017.448.022.995.011 2.23-.044 4.499.38 6.222 1.164l.363.165-.212.253c-.323.386-1.02 1.036-1.463 1.363-.46.341-1.207.803-1.241.769-.013-.013.072-.276.188-.584.215-.571.544-1.706.613-2.113l.038-.225h-2.339l-.12.44c-.348 1.276-.979 2.562-1.505 3.064a1.49 1.49 0 0 1-.387.257c-.192.081-.225.081-.438-.001-.576-.219-1.315-1.404-1.753-2.81l-.143-.459-.409.294c-.519.372-.778.505-1.529.784-.083.031 0 .079.374.214 1.4.506 2.665 1.409 3.466 2.474.345.459.729 1.143.903 1.613l.091.243.383-.045c1.883-.223 3.855-1.038 5.368-2.219 2.516-1.963 4.018-4.866 4.146-8.009.22-5.447-3.782-10.192-9.2-10.907-.649-.086-2.016-.096-2.677-.02M10.23 9.12a6.002 6.002 0 0 0-2.288.882c-.788.522-1.594 1.451-2.002 2.308-.189.397-.234.995-.104 1.386.173.521.711.967 1.264 1.05l.244.037.031-.376c.043-.509.288-1.193.59-1.648a3.596 3.596 0 0 1 2.968-1.625c.659-.008 1.039.076 1.627.358.769.37 1.34.956 1.779 1.826.092.182.245.42.341.529.378.433 1.194.82 1.726.82h.234v-.207a5.81 5.81 0 0 0-.081-.68c-.31-1.803-1.427-3.311-3.039-4.104-.791-.39-1.454-.556-2.32-.583a7.21 7.21 0 0 0-.97.027m14.937 2.773c.657 1.776.71 3.59.156 5.334-.088.278-.18.527-.203.552-.024.025-.376-.087-.782-.249a23.18 23.18 0 0 0-1.378-.493 29.54 29.54 0 0 1-.649-.205 19.19 19.19 0 0 1 .038-.886c.044-.816.004-2.296-.089-3.294l-.035-.378.314-.087c.49-.136 1.74-.551 2.084-.692.171-.07.325-.111.344-.091.018.02.108.24.2.489m-19.62 3.259c0 .384.191 1.273.376 1.755.376.973 1.227 2.047 2.071 2.612 1.408.943 3.234 1.212 4.831.711a6.36 6.36 0 0 0 1.695-.868c.762-.577 1.544-1.582 1.805-2.322a1.51 1.51 0 0 0-.094-1.241c-.15-.29-.155-.293-.551-.407a3.799 3.799 0 0 1-.66-.26 2.778 2.778 0 0 0-.28-.145c-.011 0-.02.078-.021.173-.003.615-.42 1.555-.941 2.117-1.717 1.855-4.657 1.426-5.856-.854a5.945 5.945 0 0 0-.403-.646c-.215-.29-.226-.297-.541-.329a1.985 1.985 0 0 1-1.015-.41c-.108-.087-.246-.158-.307-.158-.096 0-.109.033-.109.272M8.613 20.8c.018.029.057.053.087.053.029 0 .038-.024.02-.053-.018-.029-.057-.053-.086-.053-.03 0-.039.024-.021.053m1.494.571c-2.092.19-4.113 1.332-5.179 2.925-.59.882-.861 1.719-.912 2.811l-.032.68h2.309v-.451c0-.561.074-.921.274-1.347.662-1.404 2.407-2.364 4.295-2.362 1.947.003 3.751 1.062 4.376 2.57.115.278.143.445.164.963l.024.627h2.296l-.03-.707c-.035-.82-.156-1.337-.467-2.003-.521-1.113-1.335-1.997-2.483-2.697-1.244-.758-3.057-1.153-4.635-1.009" fill="#A12577" fill-rule="evenodd"/></svg>