<svg xmlns="http://www.w3.org/2000/svg" xml:space="preserve" viewBox="0 0 32 32"><path d="M14.907 4.06a12.007 12.007 0 0 0-10.89 12.367 11.874 11.874 0 0 0 3.306 7.818c1.653 1.723 3.561 2.834 5.849 3.406 3.57.893 7.471.011 10.378-2.346.631-.512 1.554-1.469 2.029-2.105 1.662-2.223 2.505-4.887 2.405-7.6-.163-4.416-2.645-8.287-6.597-10.289-1.655-.838-2.913-1.162-4.89-1.258a44.52 44.52 0 0 0-1.084-.045c-.014.004-.242.027-.506.052m1.973 6.924c.809.255 1.487.814 1.828 1.505.166.339.172.373.171 1.011-.002 1.045-.061 1.14-1.744 2.788l-.702.688-.194.604c-.213.664-.341.831-.688.896-.412.077-.885-.2-.957-.559-.097-.483.014-1.136.274-1.617.092-.169.5-.621 1.11-1.23.852-.85.974-.993 1.033-1.215.139-.511-.081-1.048-.559-1.365-.252-.167-.269-.17-.88-.17-.6 0-.63.006-.833.152-.295.214-.473.442-.644.823-.364.81-.463.969-.682 1.091-.259.145-.463.15-.751.02-.421-.192-.583-.547-.495-1.089.176-1.095 1.246-2.136 2.473-2.406.555-.122 1.743-.083 2.24.073m-.952 8.273c.304.147.452.396.482.813.049.669-.356 1.077-1.03 1.038-.504-.029-.822-.295-.931-.781-.053-.235.024-.609.166-.809.249-.35.873-.474 1.313-.261" fill="#29B6F6" fill-rule="evenodd"/></svg>