<svg xmlns="http://www.w3.org/2000/svg" xml:space="preserve" viewBox="0 0 32 32"><path fill-rule="evenodd" d="M15.082 4.186c-1.229.201-2.512.857-3.072 1.569-.108.138-.373.598-.589 1.023-.361.711-.392.797-.392 1.101 0 .507.15.736.645.988.333.169.446.2.735.2.661 0 .922-.241 1.448-1.336.539-1.124.868-1.413 1.796-1.582a3.057 3.057 0 0 1 2.129.379c.57.334.87 1.152.651 1.773-.103.292-.821 1.006-1.674 1.665-.746.577-1.489 1.35-1.813 1.887-.288.477-.419 1.406-.273 1.933.135.485.742.787 1.37.68.577-.098.822-.374 1.02-1.148.127-.497.193-.659.29-.714a1.29 1.29 0 0 0 .241-.257c.412-.542.677-.814 1.462-1.496.963-.838 1.347-1.271 1.627-1.835l.197-.397-.003-.696c-.003-.61-.021-.747-.144-1.103-.265-.764-.631-1.268-1.273-1.752-.899-.677-1.617-.897-3.06-.936-.588-.015-.998.001-1.318.054m.288 11.342c-.547.21-.833.618-.835 1.192-.001.316.024.418.158.661.244.441.465.561 1.074.584.802.03 1.157-.144 1.402-.685.22-.486.113-1.041-.286-1.483-.342-.378-.949-.486-1.513-.269m-2.166 4.641c-.386.074-.98.369-1.28.636a2.934 2.934 0 0 0-.793 1.246c-.111.354-.118.471-.118 2.029 0 1.558.007 1.675.118 2.029.274.869.9 1.509 1.807 1.849.306.114.391.118 2.77.136 2.065.016 2.517.006 2.853-.064 1.149-.238 1.989-1.094 2.187-2.226.093-.535.042-3.247-.068-3.569-.354-1.042-1.127-1.794-2.104-2.049-.25-.065-.737-.078-2.707-.073-1.321.003-2.521.028-2.665.056m4.874 2.547c.074.139.074 2.429 0 2.568-.053.099-.135.103-2.256.103-1.64 0-2.217-.017-2.265-.064-.091-.091-.091-2.555 0-2.646.048-.047.625-.064 2.265-.064 2.121 0 2.203.004 2.256.103"/></svg>
