<svg xmlns="http://www.w3.org/2000/svg" viewBox="0 0 32 32" xml:space="preserve"><path d="M15.12 4.032c-1.211.125-1.966.278-2.907.589-4.417 1.46-7.589 5.373-8.134 10.035-.42 3.59.859 7.24 3.442 9.823A12.03 12.03 0 0 0 16 28a12.03 12.03 0 0 0 8.479-3.521C26.711 22.247 28 19.161 28 16.05c0-4.631-2.599-8.801-6.747-10.822a11.5 11.5 0 0 0-3.493-1.093c-.545-.082-2.211-.147-2.64-.103m1.616 6.907c.89.224 1.593.768 1.965 1.519.203.411.206.425.206 1.033 0 .56-.014.644-.147.928-.234.5-.467.773-1.345 1.576-.455.416-.886.858-.96.984a2.969 2.969 0 0 0-.233.627c-.118.472-.176.59-.359.734-.339.267-.97.152-1.195-.216-.151-.248-.15-.928.002-1.39.166-.507.439-.853 1.276-1.625.421-.388.836-.814.923-.947.385-.593.177-1.332-.486-1.722-.23-.135-.295-.147-.81-.147-.519 0-.578.011-.817.152-.317.186-.589.587-.829 1.226-.123.326-.225.502-.355.617-.338.296-.8.284-1.148-.03-.279-.252-.349-.491-.272-.932.181-1.036 1.086-1.997 2.212-2.349.676-.212 1.621-.227 2.372-.038m-.923 8.246c.193.052.401.234.508.444.154.302.146.829-.016 1.07-.477.708-1.662.515-1.855-.303-.195-.832.495-1.445 1.363-1.211" fill="#29B6F6" fill-rule="evenodd"/></svg>