<svg width="32" height="32" xmlns="http://www.w3.org/2000/svg"><path d="M14.685 3.165c-3.909.539-6.965 2.306-9.244 5.343-2.298 3.062-3.164 7.225-2.298 11.044.062.273.22.854.351 1.293.525 1.755.623 2.89.382 4.429-.042.273-.299 1.387-.57 2.475-.271 1.087-.488 1.983-.481 1.99.007.006.791-.222 1.742-.509 2.168-.652 2.621-.749 3.518-.749 1.065 0 1.617.117 2.986.633.941.355 1.721.587 2.652.788.608.132.791.145 2.344.168 1.107.017 1.824.004 2.09-.037 5.091-.783 9.343-4.329 10.959-9.139.53-1.578.724-2.921.676-4.669-.06-2.17-.471-3.825-1.42-5.72-1.352-2.701-3.397-4.739-6.07-6.051-1.256-.617-2.29-.955-3.739-1.22-.812-.148-3.021-.188-3.878-.069m2.888 2.227c2.509.285 4.719 1.32 6.51 3.05 1.461 1.41 2.478 3.091 3.024 4.995 1.582 5.518-1.155 11.239-6.482 13.551a10.533 10.533 0 0 1-3.774.88c-1.771.069-3.199-.194-5.218-.96-1.926-.729-3.527-.893-5.252-.535-.197.041-.366.066-.376.056-.01-.011.034-.324.098-.698.31-1.808.186-3.442-.416-5.463-.508-1.708-.68-3.048-.574-4.474.206-2.78 1.248-5.129 3.134-7.068.969-.997 1.876-1.661 3.056-2.241 1.083-.531 2.517-.942 3.795-1.086.619-.07 1.889-.073 2.475-.007m-2.228 3.926c-.773.136-1.714.439-2.071.667l-.118.075.165.566c.199.687.318.911.579 1.09.169.116.261.136.616.136a5.78 5.78 0 0 0 .829-.076c.818-.147 1.62.091 1.893.561.189.326.226.665.119 1.083-.118.461-.307.795-.757 1.337-.618.744-.926 1.194-1.178 1.718-.294.613-.402 1.023-.421 1.587l-.013.434 1.43.565 1.43.566.034-.89c.055-1.396.249-1.844 1.329-3.07.257-.292.572-.685.7-.874.683-1.005.916-2.1.66-3.101-.151-.591-.348-.932-.797-1.379-.447-.446-.85-.677-1.543-.884-.441-.132-.599-.15-1.484-.166-.655-.012-1.129.006-1.402.055m.497 10.759c-.916.191-1.448.867-1.448 1.841 0 .795.363 1.404 1.034 1.733.235.116.353.135.825.136.479 0 .588-.018.852-.143.661-.313 1.002-.858 1.036-1.65.016-.404 0-.523-.115-.806-.288-.713-.798-1.076-1.598-1.136a2.536 2.536 0 0 0-.586.025" fill-rule="evenodd" fill="#000"/></svg>
