<svg xmlns="http://www.w3.org/2000/svg" xml:space="preserve" viewBox="0 0 32 32"><path fill="#A12577" fill-rule="evenodd" d="M14.907 4.084a34.48 34.48 0 0 1-.667.081c-1.897.219-4.038 1.154-5.733 2.504-1.921 1.53-3.466 3.901-4.052 6.222-.296 1.171-.364 1.724-.367 2.976-.004 1.548.126 2.35.638 3.93.108.332.23.735.271.896.107.412.152 1.965.073 2.504-.034.237-.286 1.343-.558 2.457-.272 1.114-.481 2.026-.464 2.026.018 0 .809-.228 1.758-.506 2.119-.621 2.34-.667 3.157-.667.774 0 1.471.128 2.225.409 1.042.388 1.863.655 2.349.762 1.197.266 2.944.345 4.142.188 1.702-.223 3.488-.9 4.944-1.872 1.509-1.009 2.902-2.493 3.756-4.004 2.402-4.248 2.095-9.32-.799-13.173a13.586 13.586 0 0 0-.99-1.138c-1.877-1.895-4.177-3.076-6.803-3.493-.507-.081-2.521-.152-2.88-.102m1.866 2.479c2.978.257 5.494 1.723 7.126 4.15 2.931 4.357 1.76 10.265-2.613 13.189-1.588 1.062-3.286 1.588-5.137 1.59-1.269.002-2.392-.209-3.716-.699-1.699-.63-2.984-.806-4.433-.611a4.204 4.204 0 0 1-.526.053c-.011-.009.009-.167.044-.352.034-.185.076-.768.093-1.296.041-1.324-.066-2.092-.469-3.379-.438-1.395-.559-2.244-.513-3.608.046-1.333.23-2.202.707-3.333.47-1.114 1.111-2.048 2.051-2.987.811-.812 1.444-1.27 2.426-1.758 1.138-.565 2.127-.85 3.313-.954.752-.066.93-.067 1.647-.005m-1.706 2.808c-1.071.145-2.364.803-2.986 1.518-.11.127-.368.57-.573.984-.313.631-.377.808-.4 1.098-.033.415.056.643.36.918.313.282.773.37 1.252.239.295-.081.665-.474.825-.877.218-.549.54-1.162.737-1.405.128-.157.306-.289.541-.4.338-.16.375-.166 1.07-.166.695 0 .733.006 1.07.165.445.211.684.423.875.775.128.235.154.346.158.683.005.526-.162.907-.531 1.209-1.727 1.412-2.359 2.042-2.65 2.641-.241.498-.325.862-.328 1.434-.003.385.017.489.128.691.285.514 1.033.743 1.575.48.302-.146.523-.468.618-.898.135-.615.28-.846.943-1.502.342-.338.885-.83 1.206-1.093.964-.789 1.017-.846 1.301-1.403.293-.574.382-.91.381-1.438-.001-.741-.24-1.356-.798-2.058-.366-.461-.799-.804-1.388-1.098-.504-.252-.811-.351-1.407-.453-.435-.075-1.566-.1-1.979-.044m.233 10.913c-.613.229-.964.689-.964 1.264 0 .391.142.713.426.969.275.248.566.328 1.089.298.538-.031.838-.206 1.074-.625.137-.243.163-.348.162-.64 0-.227-.033-.412-.093-.526a1.837 1.837 0 0 0-.696-.671c-.269-.128-.752-.161-.998-.069"/></svg>
