<svg xmlns="http://www.w3.org/2000/svg" viewBox="0 0 22 22">
    <path fill-rule="evenodd" d="M10.15.758c-1.532.147-2.754.488-3.963 1.105a10.019 10.019 0 0 0-4.939 5.785 9.763 9.763 0 0 0-.502 2.907c-.038 1.332.091 2.18.58 3.813.228.764.266 1.043.265 1.96-.001.973.002.954-.492 2.933a45.244 45.244 0 0 0-.355 1.48c.006.006.641-.178 1.41-.408.769-.23 1.54-.445 1.714-.477.414-.077 1.251-.076 1.68.002.43.077.662.147 1.435.433.703.26 1.222.416 1.767.532.726.154 1.005.177 2.166.177 1.246 0 1.523-.03 2.404-.261 3.616-.95 6.424-3.75 7.35-7.33.829-3.203.027-6.663-2.122-9.155C16.594 1.988 13.819.716 10.885.741c-.337.003-.668.01-.735.017m1.356 1.707c.217.01.58.05.806.089 3.539.603 6.258 3.362 6.871 6.968.068.398.08.602.082 1.328.002.94-.035 1.281-.223 2.049-.685 2.804-2.84 5.117-5.625 6.034-.98.323-1.789.444-2.742.41-1.161-.042-1.943-.209-3.22-.688-.893-.335-1.308-.443-2.03-.527-.499-.058-1.48-.022-1.94.07a2.268 2.268 0 0 1-.362.057.738.738 0 0 1 .027-.212 8.03 8.03 0 0 0 .164-1.474c.033-.996-.074-1.751-.409-2.884-.346-1.173-.458-1.854-.46-2.798-.003-2.288.796-4.291 2.35-5.895 1.236-1.276 2.66-2.047 4.393-2.38.66-.127 1.429-.199 1.82-.172.057.004.282.015.498.025m-1.041 2.914a7.638 7.638 0 0 0-1.032.208c-.34.096-.928.353-.928.405 0 .07.24.863.291.959.073.141.228.28.382.345.146.061.472.071.657.02a2.95 2.95 0 0 1 .909-.066c.245.034.567.166.696.286.207.193.297.586.215.939-.066.285-.287.678-.577 1.028-.417.503-.598.748-.754 1.02-.303.53-.454 1.032-.454 1.512v.278l1.024.405 1.085.427c.056.021.061-.019.061-.539 0-1.043.169-1.475.907-2.316.422-.48.563-.666.767-1.005.628-1.044.545-2.279-.204-3.067-.431-.453-.993-.716-1.767-.827a8.89 8.89 0 0 0-1.278-.012m-.087 8.143c-.406.135-.664.357-.835.718-.104.219-.11.256-.11.635 0 .38.006.416.111.637.253.536.782.834 1.394.788.567-.043 1.012-.362 1.217-.872.109-.272.106-.839-.006-1.123a1.422 1.422 0 0 0-.677-.708c-.187-.085-.273-.101-.587-.111-.24-.007-.416.005-.507.036"/>
</svg>
