<svg xmlns="http://www.w3.org/2000/svg" xml:space="preserve" viewBox="0 0 32 32"><path fill-rule="evenodd" d="M24.47 5.575c-1.487.203-4.41.936-5.868 1.471-2.611.959-4.58 2.516-5.83 4.611-.668 1.121-1.171 2.601-1.334 3.931-.037.308-.038.308-.311.438-.221.105-.85.708-3.266 3.132-3.16 3.17-3.19 3.205-3.427 3.935-.154.476-.381 1.596-.381 1.884 0 .706.538 1.306 1.254 1.399.329.042 2.196-.062 2.56-.144a3.624 3.624 0 0 0 1.155-.533c.293-.212 3.498-3.509 3.797-3.906.402-.532.707-1.263.857-2.053.099-.525.11-1.971.017-2.38-.092-.408-.073-1.576.035-2.131.462-2.374 1.848-4.28 4.028-5.542l.533-.308.735.518c.405.285.82.541.922.57.224.062.7.013.907-.094.083-.042.237-.215.342-.384.3-.479.255-.96-.124-1.329l-.171-.167.417-.112a37.78 37.78 0 0 1 2.47-.564c.681-.128 1.76-.261 1.8-.221.035.034-.52 1.225-.847 1.817-.745 1.354-1.716 2.577-2.233 2.813-.168.076-.399.079-2.24.03-2.256-.06-2.374-.05-2.691.229-.292.256-.403.545-.403 1.047 0 .478.117.934.336 1.307.163.278.624.723.931.899.124.071.226.148.226.172 0 .024-.221.148-.493.276-.861.407-1.815.584-2.975.553-.38-.011-.691-.01-.691.001 0 .063-.164 1.821-.183 1.962-.03.224.018.234 1.165.234 2.098.001 3.675-.491 4.91-1.532 1.235-1.042 1.667-2.157 1.089-2.815l-.154-.176.626-.025c.924-.037 1.417-.243 2.226-.931 1.054-.895 2.243-2.773 3.272-5.164.177-.41.371-.841.432-.958.193-.371.12-.744-.232-1.172-.221-.27-.598-.481-1.049-.587-.42-.099-1.417-.1-2.139-.001M11.497 18.947c-.08.844-.3 1.438-.644 1.739-.091.081-.876.878-1.745 1.772l-1.579 1.626-.551.058c-.303.031-.56.049-.572.04-.011-.01.017-.097.063-.193.045-.097.099-.272.119-.389.034-.194.259-.435 2.444-2.627 1.323-1.327 2.428-2.413 2.454-2.413.027 0 .032.168.011.387"/></svg>
