<svg xmlns="http://www.w3.org/2000/svg" viewBox="0 0 32 32" xml:space="preserve"><path d="M15.039 4.053c-2.443.221-4.65 1.109-6.532 2.629-.586.473-1.573 1.503-2.05 2.139-.75 1-1.415 2.27-1.789 3.419-.368 1.128-.506 1.987-.546 3.393-.045 1.583.094 2.608.565 4.164.326 1.078.399 1.54.399 2.523 0 1.021-.027 1.177-.63 3.587-.244.975-.431 1.773-.416 1.773.015 0 .846-.238 1.847-.53 1.001-.291 1.97-.558 2.154-.593.219-.043.613-.054 1.147-.035.846.032 1.269.112 1.959.374l.8.304c1.287.491 2.349.69 3.893.732.865.023 1.238.01 1.787-.063a11.72 11.72 0 0 0 6.659-3.225c1.505-1.465 2.458-2.982 3.103-4.937a11.808 11.808 0 0 0-2.745-11.941c-1.671-1.723-3.52-2.807-5.743-3.37-1.241-.314-2.726-.445-3.862-.343m1.788 2.508c4.103.397 7.357 3.21 8.372 7.238.149.594.239 1.412.24 2.194a9.253 9.253 0 0 1-.932 4.14 9.48 9.48 0 0 1-6.901 5.229c-1.456.262-3.292.113-4.726-.384l-1.136-.392c-1.058-.365-1.592-.452-2.784-.452-.572-.001-1.161.019-1.31.043l-.27.044.076-.471c.098-.609.109-2.306.018-2.87-.09-.556-.23-1.111-.488-1.923-.383-1.204-.451-1.653-.452-2.984-.001-1.017.016-1.254.123-1.782.399-1.972 1.304-3.61 2.783-5.035 2.004-1.932 4.645-2.86 7.387-2.595m-3.071 5.245c-.395.107-.696.318-1.182.828-1.221 1.283-1.872 2.821-1.867 4.406.008 2.109 1.03 3.242 2.758 3.057.53-.057.901-.235 1.242-.595.323-.341.465-.606.538-1.003.125-.677-.133-1.408-.682-1.932-.409-.39-.819-.583-1.299-.611l-.363-.022.034-.3c.054-.477.234-.785.72-1.227.237-.216.631-.528.876-.693.512-.345.634-.481.72-.799.076-.281-.034-.724-.223-.902-.285-.267-.761-.344-1.272-.207m6.111.002c-.402.128-.641.289-1.177.796-.61.576-.994 1.098-1.33 1.81-.499 1.055-.703 1.992-.644 2.957.082 1.327.544 2.243 1.327 2.628.66.324 1.366.331 2.005.021.403-.196.884-.694 1.085-1.124.148-.318.158-.375.138-.832-.018-.408-.049-.549-.185-.84-.307-.656-1.037-1.205-1.677-1.264-.182-.016-.316-.054-.316-.088 0-.142.227-.862.345-1.096.162-.319.774-.89 1.195-1.114.536-.287.69-.56.634-1.136-.031-.329-.162-.516-.468-.673-.265-.135-.598-.151-.932-.045" fill="#A12577" fill-rule="evenodd"/></svg>