<svg width="32" height="32" xmlns="http://www.w3.org/2000/svg"><path d="M8.965 4.82c-1.749.271-3.301 1.511-3.952 3.16-.332.84-.338.922-.339 4.654-.001 2.819-.014 3.436-.08 3.619a1.652 1.652 0 0 0 0 .989c.117.325.116 2.995-.001 3.328a1.531 1.531 0 0 0-.001.968c.062.204.082.572.082 1.523.001 1.352.053 1.764.302 2.4.492 1.254 1.361 2.202 2.532 2.76 1.039.494.584.462 6.407.462h5.143l.701-.152c1.83-.396 3.452-1.176 4.808-2.315 2.225-1.867 3.552-4.418 3.816-7.339.037-.416.051-2.405.039-5.622l-.018-4.978-.126-.412c-.224-.735-.528-1.234-1.108-1.819-.575-.579-.998-.851-1.696-1.09l-.422-.143-7.974-.007c-4.387-.004-8.037.002-8.113.014M24.86 6.98c.372.149.788.469 1.022.787.428.581.408.297.406 5.909-.001 3.927-.018 5.108-.077 5.519-.533 3.706-3.335 6.589-7.094 7.301-.37.07-1.218.088-5.036.108-3.27.016-4.694.005-4.95-.039-.578-.101-1.015-.342-1.486-.819-.716-.726-.878-1.222-.879-2.687l-.001-.949h11.032l.242-.124c.336-.172.469-.442.466-.951-.002-.482-.149-.757-.487-.91-.215-.098-.483-.103-5.739-.104l-5.514-.001v-2.198l7.356-.015c7.309-.014 7.358-.015 7.549-.127.655-.385.655-1.48 0-1.865-.191-.112-.24-.113-7.549-.127l-7.356-.015v-1.812l6.146-.014c6.932-.016 6.41.018 6.674-.443.105-.184.132-.311.132-.617.001-.611-.234-.912-.791-1.016-.188-.036-2.469-.056-6.229-.056H6.765l.001-1.059c.001-.718.027-1.182.082-1.443A2.95 2.95 0 0 1 9.075 6.96c.529-.115 15.495-.097 15.785.02" fill-rule="evenodd" fill="#000"/></svg>
