<svg width="32" height="32" xmlns="http://www.w3.org/2000/svg"><path d="M15.307 4.799c-1.673.162-3.306.954-4.561 2.212-1.108 1.111-1.802 2.387-2.143 3.939-.138.63-.136 2.384.003 3.021a8.047 8.047 0 0 0 1.77 3.561c.233.269.255.282.344.201.136-.123.402-.644.502-.983.107-.367.109-1.022.003-1.379a6.366 6.366 0 0 0-.244-.637 5.748 5.748 0 0 1-.311-3.807c.167-.612.63-1.504 1.048-2.02.631-.779 1.582-1.455 2.483-1.765 1.376-.474 2.834-.406 4.2.195.6.264.909.342 1.368.342.581.001 1.297-.261 1.587-.581.1-.111.1-.114-.027-.251-.2-.216-.942-.782-1.356-1.035-.668-.408-1.559-.747-2.426-.924-.5-.102-1.642-.147-2.24-.089m6.436 2.708a3.078 3.078 0 0 0-.472 1.173c-.089.521-.009.967.305 1.703.134.313.291.763.35 1 .14.568.187 1.54.103 2.114-.4 2.74-2.768 4.796-5.522 4.796-.87 0-1.485-.144-2.609-.614-.946-.395-1.939-.287-2.638.288l-.18.148.305.289c.927.879 2.191 1.524 3.565 1.818.726.156 2.12.168 2.835.026 2.402-.48 4.381-1.964 5.413-4.061a7.798 7.798 0 0 0 .705-2.021c.165-.772.166-2.226.001-2.996-.241-1.122-.693-2.186-1.272-2.991-.286-.398-.684-.872-.731-.872-.011 0-.082.09-.158.2m-7.278 1.368c-.445.145-.855.551-1.043 1.033-.079.202-.089.53-.089 2.884 0 3.029-.008 2.962.432 3.443.346.378.693.532 1.201.53.309-.001.441-.03.72-.163.589-.279 4.226-2.413 4.401-2.583.443-.428.622-1.195.421-1.801-.173-.522-.39-.685-2.615-1.968a140.948 140.948 0 0 0-2.266-1.291c-.298-.151-.837-.19-1.162-.084m2.328 3.15c.708.409 1.287.761 1.287.781 0 .036-2.572 1.541-2.634 1.541-.018 0-.033-.698-.033-1.551 0-.866.021-1.544.047-1.534.026.01.626.353 1.333.763m-4.74 9.468c-4.231.03-4.299.032-4.677.148-1.618.496-2.704 1.582-3.199 3.197-.14.459-.144.502-.165 2.19l-.021 1.722 4.578-.015 4.578-.016.427-.134c1.315-.415 2.395-1.509 2.774-2.811l.112-.385.169.412c.58 1.417 1.608 2.333 3.078 2.743.421.118.473.12 4.493.137l4.067.017v-2.053c0-2.021-.002-2.061-.128-2.458a3.934 3.934 0 0 0-.988-1.578 4.058 4.058 0 0 0-1.578-.993l-.426-.149-4.4-.003c-2.42-.001-6.332.012-8.694.029m13.067 2.191c.375.176.78.581.956.956.126.27.139.361.154 1.133l.017.84h-2.763c-1.52 0-2.905-.023-3.078-.052a2.433 2.433 0 0 1-1.946-1.857 4.441 4.441 0 0 1-.06-.735v-.451l3.213.014 3.214.015.293.137m-10.68.623c-.038.934-.134 1.215-.577 1.689a2.033 2.033 0 0 1-.648.49l-.335.154-3.4.015-3.4.015v-.392c0-.215.026-.534.058-.708.119-.651.614-1.335 1.223-1.691.502-.294.559-.298 3.967-.302l3.141-.004-.029.734" fill-rule="evenodd" fill="#000"/></svg>
