<svg xmlns="http://www.w3.org/2000/svg" xml:space="preserve" viewBox="0 0 32 32"><path fill-rule="evenodd" d="M16.138 3.497c-.332.122-.519.297-.987.923-.43.577-.443.588-.688.621-.443.058-1.729.393-2.235.582C8.864 6.88 6.38 9.576 5.412 13.018c-.476 1.693-.518 3.78-.11 5.496.764 3.218 2.933 5.934 5.871 7.354 1.01.488 2.217.854 3.262.989l.275.035.303.554c.181.332.381.618.495.713.431.354 1.056.421 1.585.168.38-.18.375-.175.901-1.002.381-.598.428-.651.609-.685.408-.076 1.463-.456 2.071-.744 3.307-1.573 5.559-4.563 6.188-8.216.128-.74.128-2.461 0-3.2-.561-3.25-2.31-5.968-4.969-7.721-.687-.453-1.752-.961-2.586-1.233l-.72-.235-.413-.709c-.226-.39-.478-.764-.56-.831-.368-.303-1.031-.417-1.476-.254m.814 2.947c.18.289.328.542.328.563 0 .071-.655.884-.693.86a4.505 4.505 0 0 1-.317-.449l-.279-.425.199-.363c.244-.445.401-.71.419-.71.008 0 .162.236.343.524m-3.08.997c.034.132.138.342.231.467.093.124.378.529.632.899.689 1.005 1.055 1.273 1.741 1.273.537 0 .829-.189 1.657-1.072.396-.422.774-.811.839-.864a.739.739 0 0 0 .182-.307c.035-.116.089-.21.121-.21.135.002 1.216.565 1.685.877 2.219 1.477 3.577 3.755 3.897 6.536.088.766.034 2.156-.112 2.853-.574 2.749-2.355 5.013-4.908 6.237-.539.259-.617.282-.664.206a3.09 3.09 0 0 0-.217-.278 17.97 17.97 0 0 1-.681-.948c-.284-.416-.606-.831-.716-.921-.469-.387-1.154-.477-1.681-.221-.385.186-1.92 1.831-2.132 2.284-.086.184-.18.335-.21.335-.144 0-1.09-.356-1.568-.59-2.464-1.207-4.292-3.533-4.868-6.194a8.889 8.889 0 0 1 .742-5.883A8.233 8.233 0 0 1 9.52 9.574a8.691 8.691 0 0 1 3.68-2.22c.264-.082.51-.149.546-.151.036-.002.093.105.126.238m2.324 2.781c-.025.024-.997.058-2.16.074l-2.116.029-.456.161c-.811.286-1.397.783-1.777 1.509-.353.673-.354.679-.354 3.988 0 3.305-.001 3.295.351 3.964.357.681 1.041 1.252 1.792 1.498.385.127.416.128 2.284.118 1.041-.005 2.865-.032 4.053-.058 2.37-.053 2.421-.06 3.192-.415 1.209-.558 2.035-1.562 2.361-2.871.091-.364.113-.674.138-1.952.034-1.699-.017-2.375-.228-3.021-.384-1.177-1.189-2.095-2.289-2.61-.837-.392-.949-.408-2.96-.435-.983-.013-1.807-.004-1.831.021m-3.51 2.405c-.456.904-.441.782-.461 3.707-.015 2.23-.005 2.648.066 2.928.047.18.077.334.068.343-.051.052-.484-.12-.653-.259-.406-.335-.397-.257-.397-3.373 0-2.572.007-2.789.097-2.988.214-.47.674-.768 1.188-.77l.3-.002-.208.414m7.486-.105a2.351 2.351 0 0 1 1.224 1.416c.086.274.097.516.097 2.008 0 1.548-.009 1.726-.107 2.043-.205.663-.735 1.209-1.444 1.488-.249.098-.431.117-1.315.138l-1.027.024v-7.327l1.108.017 1.108.018.356.175m-4.759 3.398c0 2.423.018 3.493.057 3.493.031 0 .04.027.019.06-.024.04-.18.052-.458.035-.451-.026-.601-.096-.814-.382-.108-.144-.11-.205-.11-2.69 0-2.512.001-2.546.119-2.836.066-.161.21-.411.32-.556.202-.264.656-.617.793-.617.063 0 .074.545.074 3.493m1.428 8.67.268.402-.295.549c-.339.631-.284.636-.726-.069l-.298-.474.17-.219c.419-.542.539-.674.574-.635.021.024.159.224.307.446"/></svg>
