<svg xmlns="http://www.w3.org/2000/svg" viewBox="0 0 21 20">
    <path fill-rule="evenodd" d="M9.516.316C7.413.537 5.475 1.917 4.554 3.85a6.25 6.25 0 0 0-.491 3.968c.215 1.057.765 2.16 1.459 2.925l.204.225.161-.243c.088-.133.204-.361.258-.505.089-.238.098-.305.098-.717.001-.496.011-.456-.309-1.218A4.504 4.504 0 0 1 6.971 3.27c.787-.762 1.663-1.168 2.758-1.278a4.561 4.561 0 0 1 2.161.338c.659.279.875.338 1.235.338.183.001.411-.018.506-.04a2.35 2.35 0 0 0 .767-.373l.168-.128-.099-.104a5.817 5.817 0 0 0-.362-.324A6.087 6.087 0 0 0 11.39.401 7.758 7.758 0 0 0 9.516.316m5.279 2.178a1.975 1.975 0 0 0-.321.631c-.182.541-.149 1.039.106 1.611.158.356.339.908.404 1.232.072.364.063 1.322-.016 1.689-.403 1.859-1.768 3.214-3.628 3.6-.366.076-1.226.085-1.61.017a5.408 5.408 0 0 1-1.174-.374c-.469-.203-.71-.263-1.066-.265a2.056 2.056 0 0 0-.925.204c-.193.097-.475.312-.475.362 0 .017.138.15.306.296.943.818 1.98 1.29 3.229 1.473a7.023 7.023 0 0 0 1.973-.054 6.193 6.193 0 0 0 4.426-3.432 7.67 7.67 0 0 0 .299-.716 6.426 6.426 0 0 0-.728-5.549c-.225-.344-.629-.839-.685-.839-.017 0-.069.051-.115.114M8.943 3.619c-.457.113-.781.407-.966.879l-.083.21-.012 1.941c-.013 2.077.003 2.367.147 2.682.297.648 1.11.943 1.781.645.358-.159 3.415-1.964 3.585-2.117.549-.492.598-1.371.108-1.929-.141-.161-.066-.115-1.917-1.187-1.844-1.068-1.89-1.093-2.132-1.138a.906.906 0 0 0-.511.014m1.776 2.591c.592.342 1.076.632 1.075.645 0 .022-2.032 1.206-2.145 1.25-.055.021-.059-.069-.059-1.261 0-.706.012-1.277.026-1.269l1.103.635m-3.771 7.721c-3.775.023-3.588.012-4.228.245A3.69 3.69 0 0 0 .751 15.9c-.167.315-.23.471-.34.848-.067.225-.074.358-.087 1.672L.31 19.847l3.739-.01 3.739-.009.297-.101c.995-.336 1.705-.959 2.122-1.863.069-.148.151-.378.183-.509.054-.226.109-.314.111-.179.002.126.275.712.462.994.236.354.656.783.977.996.331.22.78.423 1.178.532l.34.094 3.316.01 3.316.01v-1.65c0-1.876.003-1.848-.281-2.435-.406-.838-1.113-1.432-2.046-1.718l-.315-.096-3.535-.002c-1.945-.001-5.079.008-6.965.02m10.206 1.68c.414.078.823.352 1.046.699.201.314.245.527.245 1.193v.592h-2.373c-2.017 0-2.403-.008-2.578-.054-.691-.18-1.279-.814-1.404-1.515-.05-.28-.067-.887-.027-.928.039-.039 4.881-.027 5.091.013m-8.335.445c-.002.581-.048.882-.177 1.152a1.98 1.98 0 0 1-.717.755c-.384.204-.349.202-3.26.202h-2.67l.001-.341c.001-.609.146-1.059.467-1.452.176-.215.512-.473.74-.568.358-.15.413-.153 3.071-.156l2.546-.003-.001.411"/>
</svg>
