<svg xmlns="http://www.w3.org/2000/svg" viewBox="0 0 20 20">
    <path fill-rule="evenodd" d="M3.75.355C2.341.611 1.125 1.634.651 2.96.412 3.63.4 3.806.399 6.774c0 2.129-.008 2.564-.048 2.676-.063.176-.064.572-.001.75.072.204.073 2.484.001 2.683-.062.172-.062.562 0 .734.037.103.048.336.049 1.033.001.581.018 1.024.048 1.25.102.754.463 1.54.962 2.096a4.055 4.055 0 0 0 1.823 1.185c.6.19.602.19 4.714.177 3.406-.011 3.803-.017 4.12-.07 1.986-.333 3.569-1.127 4.914-2.466a8.472 8.472 0 0 0 2.435-4.941c.046-.349.051-.952.043-4.616l-.01-4.215-.077-.25C18.997 1.58 18.156.754 16.917.387c-.232-.068-.269-.069-6.567-.074-5.411-.005-6.372.001-6.6.042M16.51 2.05c.476.124.871.451 1.099.91l.141.285.009 4.035c.01 4.424.01 4.407-.188 5.19-.671 2.649-2.828 4.614-5.604 5.106-.414.074-.442.074-4.167.074-4.153 0-3.904.013-4.4-.226-.385-.186-.857-.65-1.043-1.024-.213-.431-.237-.58-.239-1.483l-.001-.8 4.45-.017 4.45-.017.148-.083c.274-.154.387-.417.359-.837-.019-.28-.068-.4-.224-.553-.224-.219-.021-.21-4.844-.21H2.099l.009-.858.009-.859 5.916-.016 5.917-.017.156-.092c.221-.13.332-.361.333-.698.001-.32-.059-.513-.205-.659-.232-.233.233-.216-6.259-.226L2.1 8.966V7.533h4.875c3.163 0 4.917-.012 4.996-.034a.704.704 0 0 0 .429-.334c.074-.131.083-.188.083-.484 0-.316-.006-.346-.1-.498a.623.623 0 0 0-.266-.248l-.165-.085-4.93-.009-4.929-.009.016-.941c.018-1.06.034-1.16.262-1.617.236-.471.719-.918 1.196-1.108.419-.166.179-.161 6.668-.163 5.292-.003 6.109.003 6.275.047"/>
</svg>
