<svg width="32" height="32" xmlns="http://www.w3.org/2000/svg"><path d="M17.948 3.64a.435.435 0 0 0-.178.203c-.076.187-.401 1.598-1.194 5.183l-.64 2.894-.722.065c-2.56.229-4.913.987-6.794 2.188l-.352.225-.28-.228c-.609-.494-1.414-.735-2.24-.671a2.97 2.97 0 0 0-2.743 2.988c0 1.063.515 2.005 1.408 2.577.218.139.294.219.274.286a7.803 7.803 0 0 0-.085.699c-.371 3.984 2.985 7.623 8.221 8.913 1.421.35 2.12.429 3.822.433 1.651.003 2.215-.047 3.41-.3 1.913-.405 3.514-1.058 5.019-2.049.537-.353.835-.605 1.474-1.245.822-.825 1.227-1.36 1.607-2.124a6.962 6.962 0 0 0 .736-2.694c.03-.538-.036-1.417-.124-1.646-.018-.047.11-.18.341-.354.651-.491 1.033-1.054 1.203-1.778.323-1.367-.337-2.785-1.583-3.4a2.83 2.83 0 0 0-1.59-.307c-.606.049-1.056.206-1.53.534-.226.156-.435.284-.466.285-.03 0-.228-.107-.439-.237-1.085-.668-2.49-1.259-3.795-1.597-1-.258-1.543-.353-2.696-.469-.483-.049-.897-.106-.919-.126-.021-.02.28-1.46.669-3.199.846-3.781.86-3.845.902-3.887.064-.064 4.886.977 5.012 1.082.039.032.086.179.106.327.087.657.657 1.413 1.27 1.684 1.191.526 2.478.035 3.038-1.161.136-.292.152-.387.152-.907 0-.559-.007-.595-.205-.996-.247-.5-.566-.812-1.077-1.054-.343-.163-.407-.174-.972-.174-.586 0-.617.006-.956.19-.344.186-.838.614-1.014.877l-.088.133-2.161-.477c-2.562-.565-3.466-.752-3.602-.747a.692.692 0 0 0-.219.061m-5.766 13.747c.501.135 1.023.607 1.329 1.203.138.267.158.373.175.9.019.596.018.6-.186 1.013-.252.51-.584.851-1.031 1.059-.68.316-1.329.316-2 .002-.887-.415-1.413-1.442-1.235-2.41.163-.885.888-1.651 1.731-1.83.262-.056.897-.023 1.217.063m9.729-.06c1.2.173 2.048 1.343 1.852 2.552-.198 1.216-1.412 2.118-2.564 1.905-.779-.144-1.352-.579-1.706-1.294-.196-.398-.198-.407-.179-1 .016-.533.036-.633.183-.927.367-.733 1.131-1.243 1.925-1.285.061-.003.281.019.489.049m-9.557 6.985c.478.351.906.557 1.532.738 1.818.527 4.193.447 5.796-.194.231-.093.623-.315.87-.495.337-.245.495-.326.632-.325.295.002.541.265.541.578 0 .104-.084.226-.297.43-.971.929-2.776 1.466-4.928 1.466-2.176 0-4.159-.602-5.003-1.517-.217-.235-.233-.272-.204-.482.038-.284.24-.476.5-.476.133 0 .286.076.561.277" fill="#fff" fill-rule="evenodd"/></svg>
