<svg xmlns="http://www.w3.org/2000/svg" xml:space="preserve" viewBox="0 0 32 32"><path fill-rule="evenodd" d="M14.595 4.162c-1.367.234-2.49 1.028-3.105 2.198-.17.324-.205.36-.352.36-.267 0-.784.155-1.187.356-.565.282-1.09.697-1.978 1.564-.846.825-1.339 1.225-1.733 1.404-.194.088-.399.116-1.067.144-.692.028-.862.052-1.045.147-.409.211-.715.665-.714 1.063.001.837.543 1.189 1.831 1.189.771 0 1.379-.102 1.966-.328.686-.264 1.11-.585 2.004-1.516.93-.969 1.26-1.259 1.638-1.441.267-.127.269-.128 2.199-.128 1.672-.001 1.963.011 2.16.088.332.128.424.223.39.401l-.06.31-.03.16h-1.613c-1.283 0-1.668.017-1.884.081-.362.107-.892.468-1.086.739-.874 1.222-1.15 1.486-1.652 1.581-.58.11-.915.488-.948 1.069-.026.461.049.683.327.961.437.438.861.516 1.569.29a5.38 5.38 0 0 1 .455-.133c.022-.001.04 1.211.04 2.692v2.694h-.508c-.453 0-.542-.017-.814-.153-.723-.362-2.15-.709-3.513-.855-1.255-.134-1.454-.104-1.813.276-.507.537-.489 1.278.043 1.779.296.278.449.324 1.405.42 1.059.106 2.189.365 2.827.646.902.399 1.344.495 2.293.5l.373.002.127.332c.415 1.094 1.283 2.076 2.273 2.572.874.438.707.422 4.39.441 2.762.015 3.344.005 3.747-.065.262-.045.521-.082.575-.082.07 0 .246.239.6.813.586.951.915 1.311 1.41 1.542.852.399 1.543.241 2.883-.657.81-.543 1.136-.868 1.372-1.366.169-.357.17-.362.169-1.212-.002-1.25.04-1.148-1.28-3.067l-.385-.56.186-.48c.239-.617.466-1.517.545-2.16.044-.361.057-1.995.045-5.68l-.017-5.173-.147-.469c-.44-1.403-1.408-2.503-2.641-3.001-.819-.331-.521-.314-5.478-.323-2.494-.005-4.65.01-4.792.035m9.168 2.448c.599.211 1.06.688 1.316 1.363l.121.32v5.147c0 3.672-.017 5.175-.059 5.247-.063.106-.174-.041-1.535-2.032-.538-.788-.629-.878-1.2-1.19-.19-.104-.353-.213-.363-.243-.01-.029.217-.281.503-.558 1.974-1.909 2.219-2.159 2.312-2.365.19-.418.113-.847-.219-1.226-.416-.473-1.066-.559-1.547-.204-.107.079-1.438 1.344-2.957 2.811-1.519 1.467-2.789 2.673-2.822 2.68-.033.007-.36-.253-.726-.579-1.186-1.053-1.25-1.1-1.558-1.164a1.082 1.082 0 0 0-1.035.316c-.295.303-.394.513-.394.838 0 .512.09.639 1.063 1.504 1.49 1.324 1.68 1.435 2.557 1.492l.5.033.142.4c.114.321.396.771 1.433 2.285.71 1.036 1.292 1.895 1.292 1.908 0 .013-1.302.017-2.894.009l-2.893-.015-.305-.143c-.574-.269-1.077-.857-1.274-1.489-.096-.308-.101-.558-.101-4.853v-4.529h1.322c1.43 0 1.688-.034 2.206-.297.843-.427 1.325-1.37 1.325-2.593 0-1.237-.632-2.095-1.907-2.587-.296-.115-.485-.145-1.079-.173l-.72-.035.186-.088c.17-.081.596-.089 4.602-.091 4.23-.002 4.427.002 4.708.101m-2.767 10.702.524.191 2.333 3.532c1.577 2.386 2.334 3.577 2.334 3.671 0 .116-.091.204-.541.52-.297.21-.557.362-.579.338-.162-.183-4.854-7.347-4.854-7.412 0-.188.177-1.032.216-1.032.024 0 .279.086.567.192"/></svg>
