<svg xmlns="http://www.w3.org/2000/svg" xml:space="preserve" viewBox="0 0 32 32"><path fill-rule="evenodd" d="M15.097 5.443a4.298 4.298 0 0 0-2.547 1.291c-.288.305-.645.82-.759 1.096-.059.141-.099.163-.36.195-.938.118-1.751.631-2.909 1.84-.79.824-1.33 1.271-1.788 1.482-.276.126-.391.144-1.134.172-.939.036-1.035.067-1.373.452-.36.408-.42.925-.155 1.32.157.232.395.385.818.526.318.105.416.113 1.024.08.826-.045 1.429-.18 2.009-.452.671-.315.871-.473 1.998-1.579.638-.627 1.154-1.088 1.333-1.191l.293-.167 1.963-.001c1.884 0 1.974.004 2.227.113.249.107.263.124.263.316 0 .112-.023.265-.052.341l-.052.136h-1.569c-1.425 0-1.601.01-1.919.108-.494.153-.752.372-1.164.987-.375.56-1.023 1.232-1.229 1.274-.067.014-.211.04-.32.057-.258.042-.617.319-.753.583-.133.256-.175.702-.092.955.096.291.25.451.609.634.48.244.875.222 1.648-.091.088-.036.093.111.093 2.64v2.679l-.52-.023c-.425-.018-.569-.048-.787-.16-.661-.34-2.14-.706-3.427-.848-1.292-.142-1.534-.11-1.901.254-.486.48-.458 1.211.063 1.682.248.223.249.223 1.452.34 1.062.103 2.048.342 2.933.713.812.339.991.376 1.803.376h.689l.136.37c.241.652.547 1.11 1.127 1.686.593.588 1.045.866 1.792 1.099l.4.125h3.44c3.368 0 3.45-.002 3.936-.118 1.377-.328 2.547-1.044 3.518-2.152.796-.908 1.343-1.845 1.692-2.895.446-1.342.464-1.638.442-7.421-.019-4.833-.019-4.856-.138-5.307-.447-1.69-1.731-2.994-3.37-3.422-.449-.118-.499-.119-4.747-.13-2.361-.006-4.448.01-4.636.035m9.235 2.546c.547.269.952.803 1.106 1.457.086.365.191 9.498.116 10.106-.114.928-.507 1.988-1.012 2.726-.236.346-.961 1.065-1.375 1.364a5.363 5.363 0 0 1-1.38.66c-.281.081-.669.094-3.165.112-1.752.012-2.978-.001-3.191-.034-.649-.101-1.145-.457-1.436-1.029-.293-.577-.287-.47-.288-5.231v-4.413h1.142c1.353 0 1.781-.065 2.327-.352.859-.452 1.291-1.305 1.294-2.555 0-.482-.021-.642-.118-.893-.31-.797-1.062-1.429-2.106-1.77-.332-.108-.527-.137-.93-.137-.373 0-.495-.016-.452-.059a.649.649 0 0 1 .238-.102c.098-.024 2.135-.039 4.526-.034l4.348.008.356.176m-.803 4.104c-.18.099-1.161 1.009-2.973 2.76a246.923 246.923 0 0 1-2.738 2.627c-.018.008-.47-.369-1.003-.837-.754-.661-1.02-.864-1.198-.912-.917-.247-1.777.676-1.46 1.566.096.269.114.287 1.256 1.296.68.601 1.091.924 1.325 1.038.738.364 1.508.341 2.286-.066.41-.215.628-.412 3.047-2.749 3.148-3.041 3.182-3.076 3.254-3.416.213-.991-.894-1.797-1.796-1.307"/></svg>
