<svg xmlns="http://www.w3.org/2000/svg" viewBox="0 0 24 24">
    <path fill="#A12577" fill-rule="evenodd" d="M11.991 3.48c-.166.05-.372.188-.502.336-.065.074-.383.613-.709 1.2-.368.664-.63 1.093-.695 1.138a36.2 36.2 0 0 1-1.078.609c-.535.295-1.043.596-1.128.668-.336.285-.474.81-.32 1.218.153.408.307.529 1.516 1.202l1.094.609.588 1.057c.323.581.654 1.133.735 1.227.218.25.536.393.866.39.602-.005.782-.191 1.571-1.616l.587-1.061 1.051-.579c1.23-.677 1.459-.859 1.575-1.259.121-.416.015-.85-.28-1.143-.076-.075-.575-.378-1.11-.673a63.686 63.686 0 0 1-1.112-.625c-.115-.071-.245-.277-.72-1.136-.319-.576-.639-1.117-.711-1.202a1.214 1.214 0 0 0-.865-.397 1.74 1.74 0 0 0-.353.037m.791 3.013c.243.431.414.686.537.801.1.093.46.337.801.543.341.207.642.395.668.419.037.033-.126.143-.65.44-.484.274-.751.453-.871.58-.1.108-.326.471-.544.876-.327.608-.378.684-.422.62-.027-.039-.2-.342-.384-.672-.438-.784-.552-.896-1.41-1.375a9.477 9.477 0 0 1-.659-.386c.007-.006.318-.185.692-.397.374-.213.756-.46.849-.551.118-.115.286-.39.559-.914.322-.619.398-.737.434-.683.025.036.205.351.4.699M1.521 6.039c-.264.098-.451.243-.651.505-.305.399-.29.201-.29 3.896 0 3.043.006 3.32.071 3.56.099.358.281.737.481.996.105.137 1.018.938 2.448 2.147 1.889 1.598 2.302 1.965 2.409 2.143.229.382.262.521.282 1.184l.018.61H8v-.457c0-1.208-.319-2.079-1.038-2.838-.122-.129-1.18-1.044-2.35-2.033-1.885-1.593-2.14-1.822-2.23-2.003l-.102-.205v-2.852c0-1.569.011-2.852.025-2.852.013 0 .111.064.217.141.487.358.849.928 1.022 1.609.083.33.104.538.134 1.369.026.693.056 1.052.103 1.221.095.348.339.843.553 1.125l.186.246-.041.212c-.051.272.001.568.162.911.103.22.248.386 1.018 1.161l.898.905.602-.6.601-.599-.805-.806-.806-.807.173-.125c.413-.299.539-.243 2.058.912.528.402 1.032.808 1.12.903.192.205.39.528.534.871l.106.251.02 2.14.02 2.14.85.011.85.011v-2.138c0-2.362-.007-2.447-.251-3.097a4.078 4.078 0 0 0-.806-1.316c-.425-.457-2.314-1.927-2.793-2.174-.684-.352-1.272-.44-1.816-.273-.151.047-.323.11-.382.14-.099.051-.113.048-.171-.034-.152-.215-.214-.585-.236-1.41a10.4 10.4 0 0 0-.085-1.16c-.269-1.514-1.21-2.765-2.566-3.408-.349-.166-.43-.189-.714-.2-.247-.011-.37.005-.539.067m19.935.051c-1.347.556-2.375 1.853-2.72 3.43-.042.193-.076.62-.096 1.2-.03.909-.046 1.007-.22 1.375l-.063.132-.344-.138c-.414-.166-.664-.177-1.197-.051-.642.151-1.105.418-2.256 1.302-1.268.974-1.383 1.073-1.638 1.409-.247.325-.604 1.037-.729 1.451-.088.293-.09.351-.103 2.57l-.014 2.27h1.684l.001-2.01c0-2.128.005-2.196.196-2.669.049-.121.168-.338.265-.484.156-.234.298-.358 1.265-1.098 1.159-.887 1.296-.978 1.619-1.072l.207-.061.223.14c.123.077.224.152.224.167 0 .014-.355.382-.79.817l-.789.79.589.59.59.589.902-.899c.803-.802.918-.932 1.05-1.198.142-.287.148-.314.149-.722 0-.419.002-.426.13-.582.195-.236.431-.717.551-1.12.098-.326.11-.445.138-1.318.025-.786.046-1.018.116-1.28a3.41 3.41 0 0 1 .696-1.34c.132-.156.51-.48.559-.48.018 0 .027 1.291.021 2.87l-.012 2.87-.1.2c-.087.175-.368.426-2.24 2.008-1.177.995-2.23 1.905-2.341 2.022-.399.425-.694.977-.863 1.614-.062.234-.089.49-.105.987l-.022.671.855-.011.856-.011.022-.6c.019-.487.039-.641.11-.819.189-.476.284-.569 2.551-2.485 1.19-1.006 2.264-1.94 2.387-2.076.258-.285.476-.699.578-1.1.066-.258.072-.542.072-3.64V6.94l-.112-.229a1.468 1.468 0 0 0-.659-.634c-.138-.066-.282-.094-.529-.105-.312-.014-.366-.005-.664.118"/>
</svg>
