<svg width="32" height="32" xmlns="http://www.w3.org/2000/svg"><path d="M16.256 7.3c-.198.05-.525.304-.65.503a48.07 48.07 0 0 0-.704 1.271l-.581 1.074-1.124.636c-.619.35-1.215.725-1.327.835a1.19 1.19 0 0 0-.326 1.11c.111.493.352.704 1.656 1.449l1.127.644.641 1.183c.686 1.264.885 1.516 1.3 1.64.267.08.419.081.69.006.389-.108.585-.359 1.279-1.638l.654-1.204 1.096-.622c.603-.342 1.18-.695 1.283-.785.213-.187.374-.474.428-.764.05-.263-.09-.734-.287-.967-.094-.11-.614-.442-1.335-.852l-1.182-.671-.637-1.17c-.351-.643-.71-1.246-.798-1.34a1.266 1.266 0 0 0-1.203-.338m.809 3.252c.186.343.426.715.534.826.108.111.511.397.896.635.385.239.7.448.7.467 0 .018-.303.206-.674.418-.37.211-.763.464-.872.562-.123.111-.351.468-.605.948-.223.424-.422.771-.442.771-.019.001-.205-.313-.412-.696-.208-.383-.464-.788-.57-.899-.106-.11-.508-.382-.894-.603-.385-.22-.701-.418-.701-.439 0-.02.302-.209.671-.418.369-.21.772-.483.894-.608.144-.147.358-.5.607-1.005.444-.901.354-.905.868.041m-11.712-.518a1.404 1.404 0 0 0-.777.546c-.346.482-.35.535-.328 4.394.018 3.18.028 3.504.119 3.781.146.44.339.798.571 1.056.113.125 1.232 1.118 2.487 2.207 1.255 1.088 2.364 2.091 2.463 2.229.259.361.342.7.342 1.393v.595H12.059l-.029-.729c-.016-.401-.069-.877-.117-1.058-.154-.578-.562-1.315-.962-1.739-.2-.211-1.341-1.23-2.536-2.265-1.498-1.297-2.203-1.943-2.269-2.079-.09-.183-.096-.434-.083-3.296l.014-3.098.3.244c.394.322.743.851.918 1.397.125.385.148.582.188 1.568.058 1.438.193 1.963.68 2.642.177.246.187.284.183.697-.008.696.138.937 1.263 2.093l.924.949.628-.629.628-.63-.834-.87-.833-.869.176-.152c.373-.321.648-.194 2.159.995 1.142.898 1.3 1.055 1.568 1.557.299.56.328.841.329 3.141l.001 2.076h1.76v-2.3c0-1.425-.023-2.424-.06-2.626-.137-.747-.646-1.725-1.164-2.239-.357-.354-2.339-1.931-2.674-2.127-.733-.429-1.528-.551-2.14-.328-.455.166-.461.164-.581-.142-.086-.22-.116-.482-.149-1.293-.044-1.115-.137-1.664-.39-2.321-.473-1.228-1.595-2.353-2.729-2.734-.387-.131-.55-.137-.875-.036m21.13-.031c-.822.215-1.794.988-2.379 1.891-.62.96-.833 1.726-.889 3.204-.035.919-.055 1.079-.167 1.333a1.955 1.955 0 0 1-.141.289c-.007 0-.158-.066-.334-.147-.548-.251-1.23-.168-2.085.255-.53.261-2.527 1.803-3.041 2.348-.411.435-.835 1.243-1.003 1.912-.1.4-.109.622-.109 2.763v2.329h1.76l.001-2.214c.002-2.145.006-2.225.125-2.574.254-.745.404-.92 1.607-1.865 1.259-.991 1.451-1.123 1.772-1.216.217-.063.247-.058.454.079.121.081.221.163.221.183 0 .02-.359.401-.798.846-.438.444-.796.83-.794.856.001.026.268.327.593.669l.591.621.963-.979c1.147-1.164 1.23-1.299 1.237-2.001.005-.431.019-.493.172-.715.511-.746.622-1.148.678-2.47.025-.59.072-1.196.105-1.347.15-.694.563-1.424 1.058-1.869l.292-.263.017 2.963c.008 1.63.001 3.067-.017 3.193a1.076 1.076 0 0 1-.181.423c-.082.107-1.176 1.083-2.431 2.17-1.255 1.086-2.365 2.084-2.466 2.217-.288.379-.654 1.188-.748 1.654a6.462 6.462 0 0 0-.086 1.032v.607h1.746l.027-.619c.031-.716.144-1.075.468-1.482.114-.143 1.234-1.148 2.49-2.234 1.256-1.086 2.348-2.058 2.426-2.161.078-.103.208-.316.288-.474.31-.613.31-.606.31-4.553v-3.635l-.14-.282a1.377 1.377 0 0 0-1.134-.754 1.752 1.752 0 0 0-.458.017" fill="#A12577" fill-rule="evenodd"/></svg>
