<svg width="32" height="32" xmlns="http://www.w3.org/2000/svg"><path d="M9.138 4.12c-.059.066-.389.66-.734 1.32-.344.66-.654 1.227-.688 1.261-.035.033-.633.366-1.33.74-1.063.569-1.273.701-1.304.819-.044.165-.025.328.047.416.028.035.623.37 1.322.745.699.375 1.294.719 1.321.764.028.045.346.641.706 1.325.936 1.778.892 1.779 1.85-.041.362-.688.659-1.266.659-1.285 0-.019.39-.245.866-.503 1.859-1.004 1.844-.995 1.912-1.159.055-.133.05-.175-.037-.29-.058-.076-.652-.429-1.381-.82l-1.28-.686-.271-.496c-.148-.273-.455-.85-.682-1.282-.226-.431-.448-.821-.493-.866-.12-.12-.358-.101-.483.038m8.049 2.26c.04.502.364 1.142.76 1.504.361.33.71.505 1.353.677 2.899.776 5.182 2.93 6.076 5.732.829 2.599.452 5.277-1.063 7.553-.517.777-1.614 1.878-2.366 2.377-1.006.666-1.997 1.089-3.12 1.332-.482.104-.714.121-1.654.12-.93-.001-1.177-.019-1.653-.121-3.304-.709-5.761-3.034-6.666-6.308-.092-.333-.238-.732-.324-.886-.087-.154-.146-.28-.131-.28.015 0 .421.24.902.533.482.294.897.534.922.534.083 0 .339-.447.426-.743.114-.392.074-.958-.093-1.31-.218-.459-.525-.707-1.875-1.515l-1.265-.757-1.319.762c-1.434.829-1.701 1.041-1.927 1.526-.118.253-.141.379-.142.762-.001.421.014.489.185.822.103.2.223.385.267.413.059.036.3-.086.923-.468.464-.285.85-.509.859-.498.009.01.067.307.129.659a11.069 11.069 0 0 0 1.697 4.277c3.049 4.56 8.957 6.148 13.845 3.722a11.067 11.067 0 0 0 5.664-6.84c.451-1.607.52-3.529.185-5.186a11.013 11.013 0 0 0-7.255-8.212c-.947-.318-2.134-.534-2.928-.534h-.44l.028.353m-1.16 4.018c-.481.192-.593.331-1.356 1.689l-.716 1.274-1.165.664c-.641.365-1.263.758-1.383.874-.496.476-.611 1.129-.307 1.737.203.408.259.449 1.716 1.278l1.141.649.661 1.185c.364.652.746 1.279.849 1.394.539.602 1.564.614 2.114.025.093-.099.474-.726.848-1.394l.679-1.214 1.233-.703c.678-.387 1.3-.775 1.383-.863.512-.542.541-1.433.064-1.991-.131-.152-.535-.413-1.43-.923l-1.248-.712-.688-1.228c-.379-.676-.744-1.294-.811-1.375-.323-.383-1.092-.561-1.584-.366m1.014 3.758c.189.35.431.727.539.838.11.112.513.37.913.585l.717.383-.631.33c-.856.447-1.161.735-1.52 1.435a18.06 18.06 0 0 1-.368.69l-.092.151-.384-.729c-.215-.407-.472-.815-.583-.924-.108-.107-.513-.363-.899-.568-.385-.206-.684-.389-.664-.408.021-.019.326-.186.678-.372.781-.411 1.056-.67 1.362-1.281.372-.742.492-.928.544-.842.025.042.2.362.388.712" fill="#A12577" fill-rule="evenodd"/></svg>
