<svg xmlns="http://www.w3.org/2000/svg" viewBox="0 0 32 32" xml:space="preserve"><path d="M15.307 5.045a2.912 2.912 0 0 0-2.17 2.585 2.879 2.879 0 0 0 1.6 2.797l.41.203v1.157l-2.28.001c-2.588.001-2.745.018-3.476.378-1.107.546-1.761 1.672-1.763 3.04l-.001.459-.44.029c-1.355.091-2.475.95-2.959 2.266-.178.482-.223 1.322-.1 1.843.149.635.43 1.131.911 1.611.63.63 1.266.919 2.228 1.013l.36.035.001.836c.001 1.428.219 2.053.98 2.813.466.466.865.7 1.443.848.468.119 10.887.121 11.336.002.899-.239 1.684-.878 2.069-1.686.288-.602.331-.854.331-1.936v-.921h.626c.412 0 .746-.031.974-.089a3.42 3.42 0 0 0 2.558-3.289c0-1.506-1.057-2.901-2.532-3.339-.223-.066-.506-.096-.939-.098l-.62-.002-.035-.586a6.174 6.174 0 0 0-.119-.907c-.214-.832-.875-1.654-1.622-2.019-.702-.342-.813-.356-2.969-.356h-1.936V10.464l.305-.172c.868-.49 1.402-1.424 1.402-2.452 0-.8-.275-1.46-.847-2.031-.715-.715-1.784-1.014-2.726-.764m1.128 2.079c.618.32.476 1.328-.213 1.514-.823.221-1.405-.78-.804-1.381.269-.269.655-.32 1.017-.133m4.743 6.867c.155.081.29.213.395.382l.16.259v9.555l-.133.238a1.121 1.121 0 0 1-.699.536c-.133.036-1.953.05-5.312.04-5.629-.016-5.239.008-5.573-.343-.323-.34-.309-.106-.308-5.256.001-4.464.006-4.72.099-4.922a1.08 1.08 0 0 1 .513-.525c.143-.075.727-.084 5.392-.086l5.231-.002.235.124m-8.581 2.839c-.75.202-1.198.828-1.201 1.678-.003.663.334 1.242.893 1.534.388.203.954.203 1.342 0 .687-.359 1.049-1.196.852-1.97-.163-.641-.59-1.09-1.182-1.245-.364-.094-.342-.095-.704.003m5.597-.027c-.491.099-.871.422-1.123.957-.114.244-.138.37-.137.747 0 .388.021.497.149.757.201.409.599.764.986.876 1.025.298 1.984-.507 1.984-1.664 0-1.05-.905-1.865-1.859-1.673m6.979 1.063c.237.122.517.429.627.69.045.105.083.348.085.541.003.29-.021.392-.144.602a1.357 1.357 0 0 1-1.459.632c-.162-.034-.327-.089-.368-.123-.059-.048-.074-.29-.074-1.173 0-1.045.006-1.115.103-1.167.332-.177.884-.178 1.23-.002M7.627 19.074v1.314l-.29-.03c-.728-.075-1.224-.613-1.218-1.319.007-.713.55-1.279 1.228-1.279h.28v1.314" fill-rule="evenodd"/></svg>
