<svg xmlns="http://www.w3.org/2000/svg" viewBox="0 0 42 42">
  <path fill="#a12577" fill-rule="evenodd" d="M30.714 7.072c-2.521.222-4.337.924-6.405 2.476-.405.304-.93.734-1.167.956l-.431.403-1.293-.277c-2.67-.573-4.523-.427-6.405.506-.977.483-1.763 1.099-2.764 2.163-.674.715-.897.911-1.041.912-.324.001-.873.314-1.21.689-.388.431-.548.858-.548 1.461 0 .44.021.488 1.572 3.632.864 1.752 1.59 3.243 1.612 3.314.029.091-.896 1.445-3.284 4.808l-3.325 4.68-.003.72c-.002.807.088 1.074.502 1.489.471.47 1.38.724 1.925.536.158-.054 2.496-1.459 5.196-3.122s4.95-3.04 5.001-3.059c.05-.02 1.507.662 3.236 1.514 2.812 1.387 3.188 1.554 3.573 1.588a2.065 2.065 0 0 0 2.021-1.103c.098-.194.27-.396.411-.483.343-.212 2.018-1.963 2.516-2.63.769-1.029 1.346-2.468 1.523-3.793.115-.868.051-1.733-.253-3.391l-.264-1.445.623-.747c1.656-1.987 2.638-3.997 2.995-6.129.169-1.009.268-2.295.242-3.133-.021-.668-.048-.803-.24-1.207-.273-.576-.544-.847-1.135-1.133-.457-.221-.496-.227-1.484-.241a21 21 0 0 0-1.696.046m1.533 3.831c-.149 2.777-1.026 4.65-3.264 6.972-.97 1.006-3.621 3.255-3.549 3.01.656-2.224.732-2.69.538-3.28-.267-.812-1.064-1.423-1.866-1.432-.238-.002-1.213.251-2.149.558-.116.039-.188.039-.175.002.013-.035.601-.775 1.308-1.644 1.333-1.641 1.85-2.168 2.915-2.977 1.647-1.251 3.163-1.809 5.307-1.954.469-.032.881-.062.916-.068.037-.006.045.334.019.813M19.74 13.311c.327.044.605.088.618.098.017.014-2.388 2.972-2.715 3.34-.027.03-.764-.282-1.639-.694l-1.59-.75.405-.412c1.297-1.318 2.95-1.85 4.921-1.582m-.985 7.339c.394 0 .779-.091 2.184-.517.938-.285 1.715-.509 1.727-.499.011.01-.208.755-.486 1.655-.444 1.434-.507 1.705-.511 2.196l-.004.56 1.096 2.24c.603 1.232 1.088 2.249 1.078 2.259-.011.011-1.024-.475-2.252-1.079l-2.232-1.098-.56-.005-.56-.006-3.352 2.084c-1.844 1.146-3.363 2.074-3.375 2.062-.011-.012.942-1.375 2.118-3.029 1.177-1.655 2.183-3.109 2.237-3.233.053-.124.097-.426.097-.671 0-.434-.031-.508-1.155-2.813a177 177 0 0 1-1.155-2.391c0-.013 1.041.496 2.314 1.131 2.313 1.154 2.314 1.154 2.791 1.154m10.274 2.675c.026.524.009.978-.045 1.255-.21 1.065-.737 2.035-1.595 2.935l-.478.501-.753-1.557-.752-1.558.153-.107c.215-.151 2.24-1.777 2.825-2.269l.489-.411.058.196c.032.107.077.564.098 1.015"/>
</svg>
