<svg xmlns="http://www.w3.org/2000/svg" viewBox="0 0 32 32" xml:space="preserve"><path d="M3.827 4.053c-.68.205-1.007.95-.678 1.545.072.13.234.309.359.398.225.157.244.161 1.12.2 1.171.052 1.943.13 2.919.293 8.411 1.407 15.165 7.943 16.851 16.308.235 1.165.346 2.114.395 3.373.036.928.049 1.023.169 1.242.178.321.504.543.847.576.364.035.781-.165.997-.478l.154-.222-.005-1.071c-.017-3.905-1.352-8.215-3.636-11.737-2.24-3.453-5.567-6.396-9.229-8.164a22.96 22.96 0 0 0-8.57-2.261c-.937-.062-1.489-.063-1.693-.002m-.062 5.343c-.3.084-.638.441-.718.757-.104.414.001.779.311 1.082.233.228.431.272 1.522.335 2.478.145 4.489.706 6.56 1.833 4.711 2.562 7.802 7.492 8.003 12.763.035.936.085 1.168.305 1.435.425.516 1.173.521 1.62.012.27-.308.305-.491.269-1.424-.269-6.976-4.77-13.22-11.317-15.698a17.912 17.912 0 0 0-5.627-1.126c-.445-.017-.799-.005-.928.031m.342 5.284c-.373.126-.748.645-.747 1.033.001.217.12.512.282.697.236.268.524.387.945.39.896.005 2.128.214 3.04.516 3.329 1.101 5.929 3.972 6.685 7.382.149.669.248 1.46.248 1.98.001.446.077.698.282.932.544.619 1.501.454 1.822-.315.24-.575-.04-2.715-.56-4.276-1.601-4.807-6.094-8.189-11.128-8.377-.451-.017-.746-.004-.869.038m2.944 6.281c-.949.249-1.782.921-2.193 1.77a3.34 3.34 0 0 0-.363 1.776c.056 1.174.576 2.118 1.514 2.745.757.507 1.823.707 2.734.514 1.256-.267 2.261-1.223 2.615-2.487.217-.776.121-1.797-.234-2.498-.457-.901-1.36-1.618-2.324-1.845-.479-.112-1.267-.101-1.749.025m1.517 2.203c.425.219.709.677.711 1.144.002.536-.32.992-.839 1.186-.34.127-.562.133-.87.025-.839-.296-1.168-1.297-.653-1.987.258-.345.635-.503 1.137-.474.191.01.422.058.514.106" fill="#A12577" fill-rule="evenodd"/></svg>