<svg xmlns="http://www.w3.org/2000/svg" viewBox="0 0 12 20">
    <path fill="#A12577" fill-rule="evenodd" d="M.88 14.351a1.12 1.12 0 0 0-.84.819c-.039.151-.04.22-.04 1.989 0 2.014-.004 1.935.123 2.201.085.176.337.426.518.515.274.134-.122.124 5.369.124 5.483 0 5.09.009 5.368-.123a.954.954 0 0 0 .282-.214.975.975 0 0 0 .3-.514c.038-.148.04-.227.04-1.987 0-2.014.004-1.935-.123-2.201a1.367 1.367 0 0 0-.522-.515c-.276-.134.118-.125-5.365-.123-4.203.001-5 .006-5.11.029m1.3 2.019v.85h1.1v-1.7h1.08v2.26h1.1v-2.26h1.08v1.7h1.1v-1.7h1.08v2.26h1.1v-2.26h1.08v3.34H1.1v-3.34h1.08v.85"/>
</svg>
