<svg width="32" height="32" xmlns="http://www.w3.org/2000/svg"><path d="M11.018 4.981a5.024 5.024 0 0 0-2.227 1.275c-.948.915-1.282 1.611-1.821 3.795-.604 2.449-.814 4.187-.816 6.751-.001 2.259.153 3.693.621 5.78.558 2.488 1.328 3.655 2.943 4.461.836.417 1.556.579 2.55.576.598-.002.865-.032 1.417-.16 2.706-.625 6.045-2.086 8.559-3.745a27.425 27.425 0 0 0 3.843-3.087c1.063-1.03 1.54-1.734 1.88-2.777.209-.639.261-1.827.113-2.558-.25-1.232-.648-1.875-1.977-3.194-3.026-3.003-6.589-5.208-10.666-6.602-1.537-.525-1.786-.576-2.97-.601-.904-.02-1.104-.008-1.449.086m4.121 7.262c.682.23 2.068.985 3.249 1.77 1.172.779 1.542 1.101 1.774 1.542.126.241.148.355.149.765 0 .737-.218 1.08-1.092 1.716-.983.715-2.235 1.439-3.484 2.014l-.69.318-.628.002-.628.002-.312-.208a1.927 1.927 0 0 1-.742-.979c-.05-.166-.07-.845-.07-2.44.001-2.454.052-2.965.361-3.627.401-.855 1.195-1.184 2.113-.875" fill="#84C642" fill-rule="evenodd"/></svg>
