<svg width="24" height="24" viewBox="0 0 24 24" xmlns="http://www.w3.org/2000/svg">
<g id="Property 1=Variant3">
<path id="Union" fill-rule="evenodd" clip-rule="evenodd" d="M2.28592 21.7797H20.0573C21.0288 21.7797 21.7716 21.0368 21.7716 20.0654V3.32253C21.7716 2.46538 21.0859 1.72253 20.1716 1.72253H14.4573C13.9387 1.72253 13.4385 1.7203 12.9561 1.71816C8.54894 1.69856 5.63712 1.68561 3.88592 3.43681C1.71178 5.61095 1.71306 8.76404 1.71442 12.1002L1.71449 12.3511V20.0082C1.85905 19.9093 1.9955 19.8236 2.12344 19.7432C2.95644 19.2198 3.42878 18.923 3.42878 16.694V16.4082V12.3511L3.42867 12.0602C3.42699 8.98501 3.42556 6.35432 5.14306 4.63681C5.3299 4.44998 5.53935 4.2908 5.77163 4.15531V5.5511C5.77163 8.12842 8.09505 10.0082 10.7431 10.0082H15.8859C16.9948 10.0082 18.0573 9.2109 18.0573 8.00824V3.43681H18.7431C19.4859 3.43681 20.1145 4.06538 20.1145 4.80824V18.5797C20.1145 19.4368 19.4288 20.0654 18.6288 20.0654H18.0574V13.494C18.0574 12.6206 17.3307 11.894 16.4573 11.894H11.4859C10.0711 11.894 8.94956 12.1549 8.07971 12.6584C7.19648 13.1697 6.63852 13.8933 6.29741 14.6936C5.96371 15.4765 5.84012 16.3252 5.79282 17.1112C5.75777 17.6938 5.7634 18.2911 5.76839 18.8204C5.77005 18.9963 5.77163 19.1647 5.77163 19.3225V20.0654H4.00021C3.08592 20.0654 2.28592 20.8654 2.28592 21.7797ZM7.48592 20.0654V19.3225C7.48592 19.1319 7.48416 18.9427 7.4824 18.7542C7.47761 18.2405 7.47286 17.7319 7.50402 17.2142C7.54601 16.5163 7.65099 15.89 7.87443 15.3658C8.09046 14.8589 8.41822 14.4432 8.93856 14.142C9.47228 13.8331 10.2721 13.6082 11.4859 13.6082H16.3431V20.0654H7.48592ZM12.3264 3.41913C10.3578 3.39453 8.7482 3.37441 7.48592 3.58736V5.5511C7.48592 6.97378 8.81964 8.29396 10.7431 8.29396H15.8859C16.0596 8.29396 16.1843 8.23439 16.2558 8.17153C16.3259 8.10996 16.3431 8.05115 16.3431 8.00824V3.43681H14.5145C13.7412 3.43681 13.012 3.4277 12.3264 3.41913Z" fill="#A12577"/>
</g>
</svg>
