<svg width="32" height="32" xmlns="http://www.w3.org/2000/svg"><path d="M13.905 4.06c-3.789.365-7.234 2.819-8.872 6.319-.615 1.313-1.031 3.104-1.033 4.439v.392l.28-.038c1.05-.142 1.825-.872 2.067-1.945.225-.997.742-2.196 1.324-3.067 2.486-3.723 7.335-5.035 11.289-3.054a8.661 8.661 0 0 1 2.435 1.789c1.092 1.144 1.796 2.398 2.233 3.973.205.737.366 1.04.728 1.371.417.382 1.029.639 1.524.64l.2.001v-.253c-.002-.795-.237-2.067-.565-3.054-.528-1.59-1.32-2.916-2.448-4.1a11.078 11.078 0 0 0-9.162-3.413m-1.943 4.866c-.446.033-.834.085-.863.114-.054.056-3.686 6.794-3.686 6.839 0 .018 3.562 5.763 4.133 6.667.015.024 2.397-.144 2.854-.201 2.437-.303 4.936-1.675 6.543-3.59.469-.559 1.055-1.428 1.293-1.915.403-.83.435-1.752.089-2.573-.391-.926-1.828-2.578-2.899-3.334-2.249-1.586-4.607-2.22-7.464-2.007m2.279 2.191c2.351.313 4.497 1.604 5.743 3.455.436.649.497.844.366 1.187-.196.512-.828 1.369-1.518 2.059-1.235 1.233-2.613 1.983-4.245 2.31-.488.098-1.851.205-1.898.149-.018-.02-.65-1.032-1.406-2.247l-1.374-2.211.11-.226c.18-.371 2.361-4.414 2.42-4.486.074-.092 1.081-.086 1.802.01m11.311 5.181c-.432.116-.795.333-1.151.689-.384.383-.553.716-.744 1.466-.825 3.235-3.384 5.704-6.724 6.487-.602.141-.712.15-1.866.152-1.372.002-1.736-.048-2.733-.375a8.778 8.778 0 0 1-4.667-3.597c-.54-.832-.911-1.692-1.215-2.821-.28-1.035-1-1.634-2.145-1.786l-.2-.026.001.41c.003 1.26.457 3.016 1.128 4.356a11.023 11.023 0 0 0 8.406 6.024c.688.095 2.065.109 2.733.028 3.774-.457 6.974-2.719 8.637-6.105.687-1.399 1.121-3.156 1.121-4.536v-.451l-.146.004a2.461 2.461 0 0 0-.435.081" fill="#A12577" fill-rule="evenodd"/></svg>
