<svg xmlns="http://www.w3.org/2000/svg" viewBox="0 0 18 20">
    <path fill="#A12577" fill-rule="evenodd" d="M8.265.902a8.64 8.64 0 0 0-2.91.821 8.22 8.22 0 0 0-2.4 1.709C1.404 4.994.542 6.976.432 9.237l-.021.433.198-.019a1.972 1.972 0 0 0 1.222-.615c.208-.233.34-.516.462-.996.355-1.395 1.017-2.548 2.008-3.501A6.913 6.913 0 0 1 8.49 2.608a8.515 8.515 0 0 1 1.665.047c2.465.374 4.539 2.05 5.464 4.414.072.186.186.537.253.782.152.552.252.745.522 1.014.322.321.713.504 1.178.551l.218.022v-.242c0-.526-.14-1.401-.329-2.058-.303-1.052-.895-2.195-1.561-3.014A8.743 8.743 0 0 0 10.387.958C9.915.886 8.724.855 8.265.902m-1.56 3.835-.689.048L4.569 7.47c-.837 1.553-1.443 2.71-1.438 2.745.008.051 3.16 5.142 3.231 5.217.026.028 1.398-.044 1.993-.104 1.556-.157 3.008-.759 4.317-1.791.298-.234 1.046-.992 1.281-1.297.411-.533.805-1.176.938-1.532a2.438 2.438 0 0 0 .065-1.447c-.097-.334-.195-.527-.492-.971-.991-1.477-2.452-2.576-4.204-3.16-.759-.253-1.397-.371-2.271-.419a14.753 14.753 0 0 0-.564-.026l-.72.052M8.52 6.468a6.633 6.633 0 0 1 3.954 2.039c.246.266.622.774.776 1.048a.698.698 0 0 1 0 .653c-.34.693-1.108 1.599-1.795 2.114-1.146.86-2.315 1.277-3.775 1.345l-.405.019-1.102-1.77-1.103-1.771.963-1.795c.53-.987.982-1.825 1.005-1.861.032-.051.077-.069.199-.078.256-.021.912.009 1.283.057m8.886 4.063a2.057 2.057 0 0 0-1.308 1.064 3.424 3.424 0 0 0-.184.555c-.119.498-.26.884-.509 1.395a7.012 7.012 0 0 1-7.101 3.9 6.98 6.98 0 0 1-3.483-1.444c-.299-.236-.932-.877-1.151-1.166a7.169 7.169 0 0 1-1.254-2.536c-.133-.491-.2-.648-.367-.863a1.89 1.89 0 0 0-1.338-.718l-.234-.017.015.147c.009.081.024.275.033.432.037.595.175 1.3.381 1.945a8.66 8.66 0 0 0 3.039 4.279 7.65 7.65 0 0 0 1.41.858c3.522 1.738 7.806.876 10.359-2.083a8.65 8.65 0 0 0 2.127-5.367l.018-.442-.117.002a1.846 1.846 0 0 0-.336.059"/>
</svg>
