<svg xmlns="http://www.w3.org/2000/svg" viewBox="0 0 42 42"><path fill="#A22778" fill-rule="evenodd" d="M20.755 2.71c-.306.075-.563.351-.685.736-.108.342-.12.794-.12 4.383v4.001h-.257c-.35 0-1.254.452-1.936.967-.301.228-1.684 1.45-3.074 2.716a519.81 519.81 0 0 1-2.777 2.52c-.219.19-.429.26-1.651.546-2.822.662-3.366.859-4.284 1.55-.64.481-1.06 1.005-1.461 1.822-.557 1.132-.541.947-.572 6.749-.029 5.435.009 6.499.265 7.419a5.002 5.002 0 0 0 2.015 2.758c.555.369.965.539 1.727.717.536.125 1.101.131 13.125.131 12.024 0 12.589-.006 13.125-.131 1.079-.252 1.863-.683 2.538-1.397.727-.77 1.114-1.528 1.319-2.588.15-.777.263-11.622.129-12.406-.15-.881-.703-1.939-1.357-2.598-.488-.492-1.329-1.009-2.085-1.283-.483-.175-2.997-.826-3.917-1.015-.163-.034-.882-.647-2.697-2.299-2.749-2.503-3.206-2.906-3.765-3.321-.5-.371-1.295-.777-1.627-.832l-.263-.043v-1.447l3.728-.02 3.727-.02.262-.163c.223-.138.284-.234.406-.635.136-.447.142-.618.123-3.197l-.021-2.725-.168-.271c-.093-.148-.268-.312-.391-.363a.99.99 0 0 1-.313-.202c-.08-.097-.587-.108-4.509-.101-2.43.005-4.482.024-4.559.042m7.455 3.8v1.26h-5.74V5.25h5.74v1.26m-6.4 9.173c.17.117.585.474.922.792.465.438 3.693 3.351 5.734 5.172.101.091.956.337 2.614.754 2.673.672 2.923.771 3.138 1.246.106.234.117.759.117 5.613 0 2.945-.024 5.439-.052 5.542-.07.248-.367.594-.639.743-.198.108-.584.122-3.976.141l-3.756.021-.029-3.661c-.027-3.464-.037-3.69-.177-4.2-.388-1.41-1.24-2.454-2.501-3.065-2.663-1.291-5.761.084-6.624 2.939-.154.512-.159.62-.184 4.256l-.026 3.731-3.758-.021c-3.612-.02-3.767-.026-3.996-.161a2.104 2.104 0 0 1-.455-.409l-.217-.269-.019-5.352c-.012-3.4.006-5.447.05-5.611.179-.662.467-.787 3.657-1.591 1.782-.449 2.062-.538 2.254-.717.621-.579 6.276-5.639 6.611-5.914.191-.158.302-.192.617-.192.314 0 .442.039.695.213m-1.114 3.01c-.786.132-1.553.716-1.919 1.462-.172.35-.192.466-.192 1.125 0 .703.01.754.237 1.173.289.531.725.947 1.256 1.196.344.161.485.186 1.062.183.588-.002.714-.026 1.083-.205.533-.257 1.043-.767 1.284-1.28.163-.348.188-.491.188-1.067 0-.574-.026-.719-.186-1.062-.221-.472-.672-.981-1.08-1.22-.253-.149-1.118-.389-1.324-.369-.038.004-.223.033-.409.064m-9.636 8.119v1.962l.823-.019.822-.02.019-1.942.018-1.943H11.06v1.962m18.48-.002v1.96h1.68v-3.92h-1.68v1.96m-7.434.343c.388.198.722.543.929.959l.17.343.02 3.693.021 3.692h-4.211l.02-3.727.02-3.728.208-.375c.22-.397.543-.705.934-.891.533-.253 1.356-.238 1.889.034M11.06 31.922v1.962l.823-.019.822-.02.019-1.942.018-1.943H11.06v1.962m18.48-.002v1.96h1.68v-3.92h-1.68v1.96"/></svg>
