<svg xmlns="http://www.w3.org/2000/svg" viewBox="0 0 42 42">
  <path fill="#a12577" fill-rule="evenodd" d="M32.673 3.992a3.5 3.5 0 0 0-1.401.546c-.222.148-1.986 1.813-3.92 3.701-4.984 4.864-5.101 4.982-5.358 5.42-.272.465-1.171 2.77-1.283 3.291a4.5 4.5 0 0 0-.047.942c.038.726.248 1.103.882 1.583.887.672 1.555.708 3.555.19 1.494-.387 1.831-.51 2.317-.844.565-.389 9.117-8.801 9.415-9.261.68-1.049.727-2.31.121-3.183-.249-.359-1.694-1.675-2.129-1.94-.567-.344-1.55-.548-2.152-.445M11.06 5.049c-3.229.374-5.855 2.725-6.366 5.7-.063.366-.078 3.096-.061 11.021l.023 10.535.161.52c.365 1.181.866 2.035 1.714 2.921q1.758 1.84 4.424 2.238c1.017.152 11.612.1 12.46-.061 2.449-.465 4.329-1.351 6.13-2.888 1.753-1.496 3.151-3.824 3.714-6.185.32-1.341.338-1.755.34-7.74l.001-5.665-1.452 1.43-1.453 1.43-.041 4.445c-.044 4.854-.036 4.749-.487 6.105-.719 2.163-2.388 4.132-4.393 5.183-.736.386-1.607.698-2.52.903-.658.148-.841.154-5.872.18-5.537.03-6.093.006-6.981-.292-1.389-.466-2.497-1.63-2.768-2.909-.06-.286-.076-3.036-.06-10.675l.022-10.29.159-.394c.495-1.223 1.567-2.14 2.991-2.559.385-.113.999-.127 7.359-.16l6.938-.037 1.336-1.308c1.509-1.476 1.464-1.324.432-1.456-.657-.084-15.018-.077-15.75.008m22.874 2.185c.592.583.655.669.586.798-.043.079-.621.676-1.286 1.327-6.045 5.916-7.418 7.235-7.658 7.354-.328.162-2.122.675-2.175.621-.042-.041.599-1.693.863-2.225.123-.248 1.108-1.239 4.103-4.13 4.618-4.457 4.556-4.399 4.752-4.399.098 0 .388.233.815.654M18.923 12.66c-.766.264-.79.295-2.359 3.032l-1.031 1.796-2.035 1.109c-1.18.642-2.175 1.232-2.367 1.403-.846.753-.873 2.156-.056 2.937.126.122 1.159.728 2.295 1.349 1.136.62 2.112 1.184 2.17 1.252s.609 1 1.224 2.069c.614 1.069 1.226 2.056 1.36 2.193.787.812 2.21.811 3-.002.168-.173.737-1.083 1.386-2.218.606-1.059 1.146-1.978 1.201-2.042s1.013-.615 2.129-1.225c1.116-.609 2.141-1.2 2.278-1.313.377-.309.652-.948.65-1.51-.001-.428-.166-.973-.323-1.069-.033-.02-.26.085-.505.233a5.7 5.7 0 0 1-.98.445c-.585.192-2.46.671-2.627.671-.156 0-2.425 1.319-2.68 1.558-.122.115-.591.883-1.043 1.708-.452.824-.842 1.512-.867 1.527-.025.016-.407-.636-.847-1.448-.495-.911-.921-1.607-1.116-1.818-.258-.279-.581-.479-1.773-1.098-.802-.417-1.458-.783-1.459-.814 0-.032.688-.418 1.529-.858.84-.44 1.628-.895 1.751-1.012.122-.117.382-.522.577-.899.324-.626.355-.728.356-1.163a5.6 5.6 0 0 1 .099-.94c.125-.59 1.042-3.004 1.308-3.442.111-.183.202-.345.202-.359 0-.05-.626-.182-.853-.18a2.4 2.4 0 0 0-.594.128"/>
</svg>
