<svg width="24" height="24" viewBox="0 0 24 24" xmlns="http://www.w3.org/2000/svg">
<g clip-path="url(#clip0_7861_96970)">
<path d="M21.3714 7.54288V6.97145V6.74288H21.3142C21.1428 6.34288 20.5714 6.17145 20.2285 6.5143L11.4856 15.2572C11.0285 15.7143 10.3428 15.9429 9.59993 15.9429C8.6285 15.8857 7.88564 15.0286 8.11422 14.0572C8.2285 13.4857 8.51422 12.9714 8.91422 12.5714L17.5428 3.88573C17.9428 4.45716 17.8285 4.85716 16.7428 5.94288L12.8571 9.88573C12.6285 10.1714 12.6285 10.5714 12.8571 10.8L13.1428 11.0857C13.4285 11.3143 13.8285 11.3143 14.0571 11.0857L17.9428 7.14288C20.3999 4.68573 19.4856 3.3143 18.1714 2.00002L18.0571 1.88573C17.7714 1.60002 17.3714 1.60002 17.1428 1.88573L15.4285 3.60002H6.34279C4.11422 3.65716 2.28564 5.42859 2.28564 7.60002V18.2857C2.28564 20.4572 4.05707 22.1714 6.28564 22.1714H12.6856C17.4856 22.1714 21.3714 18.4 21.3714 13.7714V7.54288ZM12.7428 20.5143H6.28564C5.0285 20.5143 3.99993 19.5429 3.99993 18.2857V7.60002C3.99993 6.34288 5.08564 5.31431 6.34279 5.31431H13.7142L7.71422 11.3143C7.0285 12 6.6285 12.8 6.45707 13.7714C6.11422 15.7143 7.59993 17.4857 9.54279 17.6C9.65707 17.6 9.77136 17.6 9.8285 17.6C10.9142 17.6 11.9999 17.2 12.7428 16.4572L19.7142 9.54288V13.7714C19.6571 17.4857 16.5714 20.5143 12.7428 20.5143Z" fill="#A12577"/>
</g>
<defs>
<clipPath id="clip0_7861_96970">
<rect width="19.0857" height="20.4571" transform="translate(2.28564 1.71429)"/>
</clipPath>
</defs>
</svg>
