<svg width="32" height="32" xmlns="http://www.w3.org/2000/svg"><path d="M22.102 4.469c-.235.249-.694.742-1.021 1.094l-.593.64-5.336.021-5.334.022-.411.125c-1.604.491-2.799 1.715-3.26 3.339l-.124.438-.015 6.844c-.014 6.047-.005 6.899.071 7.308.34 1.814 1.612 3.175 3.356 3.589.45.107.617.11 4.824.093 4.282-.016 4.369-.019 4.947-.141a9.736 9.736 0 0 0 3.749-1.646c.603-.428 1.738-1.574 2.194-2.215.717-1.008 1.384-2.541 1.634-3.75.203-.987.222-1.486.222-5.932v-4.35l-.142-.186a.984.984 0 0 0-.372-.274c-.473-.181-.181-.459-5.588 5.307-2.826 3.014-5.037 5.327-5.188 5.428-.418.279-.834.412-1.387.442-.422.022-.544.008-.822-.097-.39-.148-.77-.504-.966-.905-.278-.568-.147-1.555.308-2.319.137-.231 1.749-2 5.035-5.528 2.659-2.854 4.857-5.196 4.885-5.206.094-.032.222.312.222.594 0 .556-.152.755-2.531 3.329-2.991 3.233-2.9 3.131-2.972 3.371-.036.121-.05.307-.03.412.04.217.404.66.642.783.188.098.528.102.695.01.178-.1 4.691-4.992 5.109-5.539.406-.532.807-1.303.929-1.785.285-1.126-.158-2.228-1.397-3.481-.278-.281-.295-.289-.596-.289h-.31l-.427.454m-3.743 3.987c-1.283 1.331-6.557 7.004-6.764 7.274-.724.947-1.166 2.449-1.033 3.513.209 1.667 1.403 3.011 2.968 3.341 1.057.223 2.507-.12 3.438-.814.181-.135 2.099-2.118 4.262-4.407l3.933-4.16.016 2.377c.009 1.341-.009 2.689-.042 3.092-.16 1.973-.927 3.684-2.275 5.072-1.089 1.122-2.341 1.824-3.873 2.17-.522.118-.645.122-4.653.142-2.892.014-4.204.002-4.412-.042-.756-.157-1.401-.672-1.767-1.411l-.21-.425V10.203l.198-.413c.34-.708.9-1.217 1.577-1.433.294-.094.6-.101 4.575-.104l4.26-.003-.198.206" fill="#A12577" fill-rule="evenodd"/></svg>
