<svg xmlns="http://www.w3.org/2000/svg" viewBox="0 0 42 42"><path fill="#fff" fill-rule="evenodd" d="M7.568 3.994c-1.862.248-3.523 1.459-4.344 3.169-.459.955-.509 1.227-.545 2.953-.029 1.396-.018 1.6.117 2.167.372 1.57 1.424 2.897 2.825 3.566.713.34 1.227.463 2.132.51l.787.041.001 8.827c.002 9.858-.023 9.339.498 10.403.515 1.051 1.453 1.837 2.686 2.251l.49.164 10.08.021c7.103.014 10.255-.003 10.673-.058 1.759-.23 3.139-1.367 3.69-3.038.181-.549.187-.623.215-2.595.033-2.323-.018-2.728-.448-3.601-.454-.924-1.398-1.702-2.422-1.998l-.403-.116v-8.132c-.001-8.807-.004-8.879-.381-9.98-.674-1.966-2.216-3.528-4.133-4.186-1.229-.422-.503-.395-11.236-.412-5.409-.008-10.036.012-10.282.044m.972 6.121v2.345h-.458c-.671 0-1.104-.255-1.389-.819-.089-.177-.113-.447-.112-1.295 0-.981.014-1.1.166-1.421.294-.619 1.014-1.15 1.566-1.153l.227-.002v2.345m19.547-2.112c.517.253 1.093.781 1.331 1.218.417.765.402.434.402 9.165v7.996l-3.867.024c-3.829.023-3.873.024-4.358.185-1.456.483-2.444 1.328-3.08 2.634-.449.923-.525 1.403-.525 3.322v1.613h-5.393l-.069-.18c-.104-.274-.092-25.753.012-25.952a.71.71 0 0 1 .158-.205c.042-.029 3.432-.045 7.532-.035l7.455.017.402.198M16.67 13.589c-.842.246-1.438 1.058-1.433 1.953.004.794.369 1.388 1.059 1.727l.399.196h5.11c5.072 0 5.112-.001 5.434-.15.779-.36 1.213-1.006 1.215-1.81.002-.787-.414-1.44-1.147-1.801l-.322-.159-5.04-.012c-3.123-.008-5.129.014-5.275.056m.083 7.198c-.323.077-.819.386-1.042.649a1.93 1.93 0 0 0-.474 1.314c.006.846.442 1.506 1.185 1.793.325.125.608.132 5.453.132h5.11l.359-.189c.471-.249.909-.753 1.041-1.199.228-.766.069-1.353-.525-1.948-.648-.649-.366-.62-6.015-.612-2.679.004-4.97.031-5.092.06m16.074 9.676c.135.144.143.241.143 1.651v1.497l-.205.204-.204.205H21.91v-1.438c0-1.649.057-1.871.543-2.128.254-.133.422-.138 5.247-.141l4.985-.003.142.153"/></svg>
