<svg width="24" height="24" xmlns="http://www.w3.org/2000/svg"><path d="M11.74.023c-1.262.126-2.074.309-3.02.683-1.102.435-2.05 1.026-2.99 1.864-.397.353-.407.367-.34.443.14.156.507.4.825.548.422.196.825.283 1.302.282.513-.001.901-.105 1.523-.408.61-.298.987-.446 1.46-.574a7.456 7.456 0 0 1 5.08.437 7.424 7.424 0 0 1 4.019 4.829c.202.778.254 1.269.229 2.153-.034 1.2-.202 1.903-.731 3.06-.379.829-.435 1.037-.435 1.62 0 .358.02.53.09.775.121.421.327.829.576 1.142l.205.257.284-.297c1.375-1.436 2.325-3.456 2.604-5.537.075-.565.087-1.827.022-2.36a10.387 10.387 0 0 0-2.114-5.118c-.286-.364-1.267-1.344-1.631-1.631A10.306 10.306 0 0 0 13.8.1c-.442-.062-1.727-.11-2.06-.077M4.145 3.77a9.78 9.78 0 0 0-1.581 2.313C1.84 7.535 1.513 8.92 1.513 10.54c-.001 1.613.327 3.004 1.052 4.46a9.424 9.424 0 0 0 1.855 2.584 9.437 9.437 0 0 0 2.68 1.935c.975.48 1.932.78 3.02.948.644.1 2.157.1 2.788 0a9.824 9.824 0 0 0 2.942-.918c.324-.155.596-.275.604-.266.008.009.694.935 1.524 2.057.83 1.122 1.591 2.124 1.691 2.227.104.107.287.235.427.299.212.098.293.113.624.113.345.001.405-.011.647-.126.358-.169.604-.404.763-.727.122-.247.13-.291.13-.685 0-.388-.009-.44-.12-.661-.143-.285-3.184-4.435-3.453-4.712-.271-.278-.543-.399-.943-.42-.256-.013-.376.001-.573.068a1.751 1.751 0 0 1-.606.084c-.564 0-.904.084-1.535.381-1.378.646-2.602.898-3.952.814a7.314 7.314 0 0 1-5.436-2.975 6.065 6.065 0 0 1-.757-1.26c-.483-1.008-.678-1.82-.713-2.966-.043-1.382.152-2.316.75-3.594.357-.763.413-.978.414-1.58 0-.493-.028-.645-.201-1.108-.147-.393-.581-1.032-.7-1.032-.016 0-.147.131-.29.29" fill="#A12577" fill-rule="evenodd"/></svg>
