<svg xmlns="http://www.w3.org/2000/svg" viewBox="0 0 32 32" xml:space="preserve"><path d="M8.387 6.188c-.741.371-1.159 1.178-.979 1.892.034.136.748 1.655 1.586 3.377.839 1.721 1.575 3.262 1.637 3.423.158.413.157 1.435-.002 1.867-.06.161-.819 1.784-1.688 3.607-.901 1.89-1.605 3.435-1.64 3.595-.168.785.322 1.671 1.073 1.94.331.118.788.132 1.09.032.319-.106 14.313-8.234 14.6-8.481.172-.147.315-.344.453-.623.193-.391.202-.433.202-.946.001-.482-.015-.569-.148-.842a2.003 2.003 0 0 0-.407-.533c-.285-.254-14.064-8.251-14.451-8.387a2.318 2.318 0 0 0-.618-.082c-.321 0-.438.026-.708.161m7.451 6.088 4.345 2.497h-7.146l-.099-.382c-.066-.26-.482-1.153-1.291-2.775A172.798 172.798 0 0 1 10.453 9.2c0-.012.234.114.52.279l4.865 2.797m4.147 4.824c-.065.065-9.559 5.551-9.578 5.535-.011-.01.496-1.104 1.126-2.433.63-1.328 1.187-2.547 1.237-2.709l.112-.36c.017-.052.779-.066 3.579-.066 1.956 0 3.542.015 3.524.033" fill="#A12577" fill-rule="evenodd"/></svg>