<svg xmlns="http://www.w3.org/2000/svg" viewBox="0 0 22 22">
    <path fill="#A12577" fill-rule="evenodd" d="M9.295.792c-1.532.235-3.18.938-4.461 1.901-2.046 1.54-3.416 3.67-3.915 6.089-.139.675-.186 1.194-.186 2.071 0 1.246.104 1.912.499 3.19.325 1.053.363 1.297.362 2.329-.002 1.02.01.951-.509 3.06a48.398 48.398 0 0 0-.304 1.272c.004.004.602-.165 1.328-.376 1.698-.492 1.902-.535 2.603-.536.857-.003 1.433.118 2.401.503 1.212.481 2.165.664 3.667.703.698.018.955.01 1.354-.041.393-.05.537-.055.715-.023 1.165.21 2.271.123 3.515-.276.672-.215.948-.272 1.438-.296.54-.027.767.01 2.305.375.724.172 1.322.307 1.329.3.007-.007-.135-.536-.315-1.176-.386-1.367-.412-1.497-.41-2.007.003-.511.065-.788.33-1.467a9.04 9.04 0 0 0 .505-1.775c.089-.536.09-1.863.002-2.31a8.14 8.14 0 0 0-.393-1.383c-.119-.3-.147-.428-.181-.807-.231-2.569-1.215-4.727-2.95-6.467A10.04 10.04 0 0 0 12.313.788C11.807.717 9.772.719 9.295.792m2.912 1.717c2.767.479 5.024 2.139 6.253 4.599.094.189.166.349.159.355-.007.007-.152-.079-.323-.191-.372-.245-1.301-.703-1.688-.833a8.676 8.676 0 0 0-1.396-.334c-.484-.068-1.508-.069-2.017-.002a7.553 7.553 0 0 0-3.533 1.44c-.415.307-1.137 1.028-1.454 1.453-1.713 2.293-2.019 5.398-.777 7.887a7.536 7.536 0 0 0 1.365 1.918c.164.166.286.302.27.302-.135 0-.971-.27-1.525-.492-.76-.304-1.225-.433-1.869-.515-.707-.091-1.69-.061-2.455.076-.163.029-.159.058-.061-.48.096-.529.134-1.714.074-2.295a8.97 8.97 0 0 0-.389-1.787c-.498-1.547-.61-2.88-.363-4.315.267-1.549 1.25-3.315 2.505-4.498 1.333-1.255 3.036-2.08 4.789-2.319.533-.072 1.939-.055 2.435.031m3.095 5.296a5.792 5.792 0 0 1 4.018 3.111c.361.72.544 1.425.578 2.229a5.636 5.636 0 0 1-.446 2.531c-.349.851-.46 1.377-.456 2.162.001.283.015.593.031.69l.029.176-.297-.029c-.164-.017-.57-.029-.902-.027-.708.004-1.114.066-1.815.277-.891.268-1.123.304-1.944.303-.811-.001-1.182-.057-1.833-.277-2.017-.683-3.557-2.506-3.851-4.559-.251-1.75.298-3.584 1.444-4.834.897-.977 2.037-1.581 3.403-1.803.483-.078 1.57-.051 2.041.05m-1.266 1.517c-.035.029-.109.283-.194.67-.076.343-.152.639-.17.659a.646.646 0 0 1-.186.08l-.153.045-.576-.346c-.317-.191-.607-.347-.645-.347-.038 0-.258.191-.503.436l-.434.436.37.619.371.619-.069.181-.069.182-.691.142c-.457.094-.708.162-.738.201-.032.041-.046.225-.046.613 0 .386.014.572.046.615.03.04.245.106.614.19l.648.147c.054.013.097.072.138.192l.058.173-.348.582c-.192.32-.349.61-.349.645 0 .071.894.972.945.952.019-.007.29-.166.602-.354l.57-.34.178.07.179.07.148.656.148.655.638.01c.351.006.651-.003.666-.018.016-.016.087-.293.16-.615.072-.323.146-.622.164-.664.021-.051.09-.092.198-.12l.166-.041.547.329c.301.181.575.34.609.353.045.017.182-.096.518-.428.252-.249.457-.471.457-.494 0-.023-.162-.31-.361-.638l-.36-.596.058-.171.063-.182c.003-.006.292-.077.642-.157.35-.079.656-.165.68-.19.029-.03.047-.252.055-.674l.012-.629-.613-.138a9.418 9.418 0 0 1-.649-.16c-.02-.012-.056-.097-.081-.189l-.044-.167.354-.59c.301-.499.35-.603.322-.675-.048-.123-.836-.887-.892-.865-.026.01-.309.176-.629.368l-.581.35-.17-.061-.179-.063a13.502 13.502 0 0 1-.155-.642c-.1-.436-.166-.654-.209-.685-.088-.065-1.149-.065-1.23-.001m.732 2.366c.039.055.191.331.338.614l.268.513.59.336c.603.344.679.416.572.545-.024.029-.296.185-.605.346l-.561.295-.344.595c-.297.514-.358.598-.443.608-.116.013-.121.006-.485-.7l-.254-.493-.597-.344c-.327-.19-.605-.368-.616-.396-.046-.118.047-.193.616-.494l.595-.315.308-.542c.169-.297.332-.57.363-.605.08-.093.175-.079.255.037"/>
</svg>
