<svg width="32" height="32" xmlns="http://www.w3.org/2000/svg"><path d="M13.924 4.082c-1.796.271-3.596 1.047-5.173 2.228-.645.483-1.737 1.565-2.235 2.215a12.05 12.05 0 0 0-2.515 7.422c0 1.316.155 2.318.581 3.743.36 1.208.45 1.759.448 2.763-.001.998-.051 1.306-.569 3.473-.213.891-.373 1.627-.355 1.635.017.007.753-.201 1.636-.463 1.859-.552 2.218-.617 3.186-.576.824.034 1.422.173 2.299.533 1.482.608 2.551.824 4.32.873.793.022 1.196.009 1.573-.048.424-.065.572-.067.907-.01 1.364.233 2.525.12 4.133-.401.801-.26 1.491-.346 2.148-.268.256.03 1.137.22 1.959.422.821.202 1.5.36 1.509.352.009-.009-.167-.685-.39-1.502-.582-2.136-.59-2.56-.068-3.966.536-1.446.719-2.51.666-3.883-.034-.889-.152-1.512-.442-2.328-.24-.675-.27-.817-.341-1.603a11.992 11.992 0 0 0-3.33-7.219c-1.018-1.044-1.887-1.679-3.179-2.321a10.938 10.938 0 0 0-2.743-.952c-.706-.152-.828-.162-2.136-.178-1.005-.012-1.525.004-1.889.059m3.463 2.076a9.72 9.72 0 0 1 5.972 3.735c.466.631.747 1.104 1.106 1.861l.123.26-.121-.086a9.388 9.388 0 0 0-3.214-1.455c-.598-.14-.715-.15-1.786-.15-.984.001-1.224.018-1.688.119-3.053.665-5.462 2.826-6.445 5.781-1.075 3.234-.386 6.578 1.864 9.036.367.401.396.449.261.416-.408-.097-1.072-.328-1.699-.592-1.469-.617-3.013-.794-4.633-.529l-.419.069.033-.218c.328-2.162.251-3.372-.34-5.33-.894-2.96-.622-5.657.818-8.105 1.449-2.461 3.894-4.236 6.594-4.784 1.025-.209 2.56-.22 3.574-.028m3.261 6.193c2.458.467 4.509 2.431 5.175 4.956.159.603.169.696.172 1.626.005 1.12-.06 1.532-.376 2.392-.401 1.092-.446 1.231-.529 1.614-.107.497-.156 1.577-.089 1.983l.05.308-.325-.042c-.536-.068-1.673-.037-2.193.061-.264.05-.708.16-.986.245-1.014.308-1.248.345-2.187.345-.917-.001-1.182-.039-1.947-.277-2.27-.709-4.075-2.768-4.54-5.177-.123-.636-.122-1.904 0-2.545.325-1.695 1.162-3.161 2.35-4.113 1.555-1.246 3.503-1.74 5.425-1.376m-1.442 1.982c-.028.11-.105.452-.171.76-.065.308-.14.584-.166.614a.666.666 0 0 1-.216.11c-.158.054-.207.034-.806-.338-.35-.218-.672-.409-.714-.425-.086-.033-1.08.925-1.08 1.042 0 .04.181.381.401.759l.401.687-.067.215c-.063.203-.081.217-.361.274l-.827.176-.533.115-.015.742c-.008.407.006.762.032.788.026.026.379.124.784.218l.736.17.059.213c.059.209.054.224-.341.903-.221.38-.394.728-.385.774.023.11.975 1.07 1.061 1.07.037 0 .353-.177.703-.394.622-.386.639-.393.846-.338l.212.057.18.804.181.804H20.613l.099-.426c.293-1.262.256-1.163.467-1.243.193-.073.193-.073.844.332.358.222.68.404.715.404.069 0 1.102-1.015 1.102-1.083 0-.023-.183-.353-.406-.734l-.407-.693.065-.233c.056-.199.09-.237.233-.265.093-.018.438-.096.768-.173l.6-.141v-.702c0-.434.022-.723.058-.759.032-.032.037-.071.011-.087a28.452 28.452 0 0 0-1.477-.357.95.95 0 0 1-.079-.213c-.063-.212-.061-.218.342-.909.223-.382.398-.729.389-.77-.022-.097-.946-1.041-1.019-1.041-.03 0-.358.188-.729.417l-.675.417-.21-.089-.211-.09-.123-.581a25.972 25.972 0 0 0-.176-.781l-.051-.2h-1.486l-.051.2m1.252 3.228.358.708.685.399c.938.546.94.537-.197 1.146l-.483.258-.397.697c-.53.931-.527.931-1.02-.006l-.37-.704-.664-.389c-.618-.363-.77-.5-.693-.626.017-.027.333-.213.702-.413l.67-.364.399-.707c.533-.944.532-.944 1.01.001" fill="#A12577" fill-rule="evenodd"/></svg>
