<svg width="24" height="24" viewBox="0 0 24 24" xmlns="http://www.w3.org/2000/svg">
<path d="M21.8285 9.4286L19.3143 8.85717L20.6857 6.68574C20.9714 6.2286 20.9143 5.65717 20.5143 5.25717L18.5714 3.31431C18.1714 2.91431 17.6 2.85717 17.1428 3.14288L14.9714 4.51431L14.4 2.00003C14.2857 1.48574 13.8285 1.14288 13.2571 1.14288H10.5143C9.99997 1.14288 9.54282 1.48574 9.37139 2.00003L8.79997 4.51431L6.62854 3.14288C6.17139 2.85717 5.59997 2.91431 5.19997 3.31431L3.31425 5.20003C2.91425 5.60003 2.85711 6.17145 3.14282 6.6286L4.51425 8.80003L1.99997 9.37146C1.48568 9.48574 1.14282 9.94288 1.14282 10.5143V13.2572C1.14282 13.7715 1.48568 14.2286 1.99997 14.4L4.51425 14.9715L3.14282 17.1429C2.85711 17.6 2.91425 18.1715 3.31425 18.5715L5.19997 20.5143C5.54282 20.8572 6.17139 20.9715 6.62854 20.6857L8.79997 19.3143L9.37139 21.8286C9.48568 22.3429 9.94282 22.6857 10.5143 22.6857H13.2571C13.7714 22.6857 14.2285 22.3429 14.4 21.8286L14.9714 19.3143L17.2 20.6857C17.6571 20.9715 18.2285 20.8572 18.6285 20.5143L20.5714 18.5715C20.9714 18.1715 21.0285 17.6 20.7428 17.1429L19.3714 14.9715L21.8857 14.4C22.4 14.2857 22.7428 13.8286 22.7428 13.2572V10.5143C22.6857 10 22.3428 9.54288 21.8285 9.4286ZM20.9714 12.8L18 13.4857L17.8285 13.9429C17.7714 14.1715 17.6571 14.4 17.5428 14.6286L17.3143 15.0286L18.9143 17.6572L17.6571 18.9715L15.0285 17.3715L14.6285 17.6C14.4 17.7143 14.1714 17.8286 13.9428 17.8857L13.4857 18.0572L12.8 21.0286H10.9714L10.2857 18.0572L9.82854 17.8857C9.59997 17.8286 9.37139 17.7143 9.14282 17.6L8.74282 17.3715L6.11425 18.9715L4.79997 17.6572L6.39997 15.0286L6.22854 14.6286C6.11425 14.4 5.99997 14.1715 5.94282 13.9429L5.77139 13.4857L2.79997 12.8V10.9715L5.77139 10.2857L5.94282 9.8286C5.99997 9.60003 6.11425 9.37146 6.22854 9.14288L6.45711 8.74288L4.79997 6.11431L6.05711 4.85717L8.68568 6.45717L9.14282 6.2286C9.37139 6.11431 9.59997 6.00003 9.82854 5.94288L10.2857 5.77145L10.9714 2.80003H12.8L13.4857 5.77145L13.9428 5.94288C14.1714 6.00003 14.4 6.11431 14.6285 6.2286L15.0285 6.45717L17.6571 4.80003L18.9143 6.05717L17.3143 8.68574L17.5428 9.08574C17.6571 9.31431 17.7714 9.54288 17.8285 9.77145L18 10.2286L20.9714 10.9143V12.8Z" fill="#A12577"/>
<path d="M16.1714 10.9715L14.1714 9.77148L13.0857 7.6572C12.9143 7.2572 12.5143 7.02863 12.0571 7.02863C11.6 7.02863 11.2 7.2572 10.9714 7.60005L9.77142 9.6572L7.65714 10.7429C7.25714 10.9143 7.02856 11.3143 7.02856 11.7715C7.02856 12.2286 7.25714 12.6286 7.59999 12.8572L9.59999 14.0572L10.6857 16.1715C10.8571 16.5715 11.2571 16.8001 11.7143 16.8001C11.7143 16.8001 11.7143 16.8001 11.7714 16.8001C12.1714 16.8001 12.5714 16.5715 12.8 16.2286L14 14.2286L16.1143 13.1429C16.5143 12.9715 16.7429 12.5715 16.7429 12.1143C16.7429 11.6001 16.5143 11.2001 16.1714 10.9715ZM15.7143 12.2858L13.4857 13.4286C13.4286 13.4858 13.3714 13.4858 13.3714 13.5429L12.1143 15.7143C12 15.9429 11.6571 15.9429 11.4857 15.7143L10.3429 13.4858C10.2857 13.4286 10.2857 13.3715 10.2286 13.3715L8.05714 12.1143C7.82856 12.0001 7.82856 11.6572 8.05714 11.4858L10.2857 10.3429C10.3429 10.2858 10.4 10.2858 10.4 10.2286L11.6571 8.0572C11.7714 7.82863 12.1143 7.82863 12.2857 8.0572L13.4286 10.2858C13.4857 10.3429 13.4857 10.4001 13.5429 10.4001L15.7143 11.6572C15.9429 11.8286 15.9429 12.1715 15.7143 12.2858Z" fill="#A12577"/>
<path d="M13.5429 10.4572C13.4857 10.4 13.4286 10.4 13.4286 10.3429L12.2857 8.1143C12.1714 7.88573 11.8286 7.88573 11.6572 8.1143L10.4572 10.2286C10.4 10.2857 10.4 10.3429 10.3429 10.3429L8.1143 11.4857C7.88573 11.6 7.88573 11.9429 8.1143 12.1143L10.2857 13.3714C10.3429 13.4286 10.4 13.4286 10.4 13.4857L11.5429 15.7143C11.6572 15.9429 12 15.9429 12.1714 15.7143L13.4286 13.5429C13.4857 13.4857 13.4857 13.4286 13.5429 13.4286L15.7714 12.2857C16 12.1714 16 11.8286 15.7714 11.6572L13.5429 10.4572ZM13.0857 12.6857C12.8572 12.8 12.6857 12.9714 12.5714 13.1429L11.7714 14.5143L11.0857 13.0857C10.9714 12.8572 10.8 12.6857 10.6286 12.5714L9.25716 11.7714L10.6286 11.0857C10.8572 10.9714 11.0286 10.8 11.1429 10.6286L11.9429 9.25716L12.6286 10.6286C12.7429 10.8572 12.9143 11.0286 13.0857 11.1429L14.4572 11.9429L13.0857 12.6857Z" fill="#A12577"/>
</svg>
