<svg width="32" height="32" xmlns="http://www.w3.org/2000/svg"><path d="M14.473 4.089a1.567 1.567 0 0 0-.723.64c-.059.116-.248.839-.419 1.605-.172.766-.317 1.4-.324 1.409-.006.008-.562-.335-1.236-.762-.674-.428-1.308-.812-1.409-.854-.279-.117-.669-.095-.985.055-.351.167-2.536 2.353-2.722 2.723-.098.197-.117.313-.101.611.021.369.022.37.856 1.696.769 1.223.825 1.33.713 1.356l-1.467.333c-.749.171-1.438.358-1.553.422-.233.131-.459.428-.539.706-.03.106-.053.972-.053 1.976.001 1.612.011 1.809.102 2.009.115.254.384.541.624.664.09.047.762.221 1.492.387.731.165 1.37.312 1.42.327.073.022-.063.272-.681 1.249-.425.672-.807 1.301-.848 1.398-.106.251-.092.717.031.986.128.282 2.299 2.556 2.625 2.749.274.162.681.22.983.138.121-.033.789-.419 1.484-.859s1.269-.781 1.276-.758c.006.023.149.655.317 1.404.168.749.345 1.461.393 1.582.108.268.438.563.728.65.143.043.798.064 1.994.063 1.674-.001 1.796-.008 2.029-.114.575-.26.659-.432 1.05-2.149a59.86 59.86 0 0 1 .341-1.455c.007-.007.591.344 1.299.779.707.436 1.373.82 1.478.855.266.088.68.027.999-.146.38-.207 2.547-2.396 2.695-2.722.13-.286.147-.745.038-1.003-.041-.097-.423-.726-.848-1.398-.618-.977-.754-1.227-.681-1.249.05-.015.71-.167 1.466-.338.757-.171 1.437-.343 1.513-.383.226-.118.485-.423.575-.679.07-.197.085-.55.085-1.946 0-1.159-.021-1.776-.065-1.924-.098-.326-.489-.732-.803-.832a34.533 34.533 0 0 0-1.524-.369c-.696-.157-1.293-.3-1.327-.319-.038-.022.233-.501.719-1.272.43-.681.81-1.322.846-1.424a1.37 1.37 0 0 0-.05-.939c-.157-.347-2.456-2.647-2.801-2.803-.309-.139-.727-.144-1.017-.011-.121.055-.752.437-1.401.849-.649.411-1.187.742-1.194.734a52.55 52.55 0 0 1-.343-1.459c-.372-1.633-.458-1.838-.873-2.082l-.259-.152-1.871-.011c-1.377-.009-1.918.007-2.054.057m3.256 2.965.377 1.641.109.472.284.097c.156.053.547.221.869.373l.585.277 1.447-.916 1.447-.917.699.697.698.697-.882 1.455-.882 1.455.278.586c.153.323.319.714.368.871l.09.284.616.142 1.633.377 1.018.236.014 1.053c.014.967.007 1.055-.082 1.082-.054.016-.753.18-1.555.365-.802.184-1.499.347-1.549.362-.057.016-.159.211-.265.506a7.168 7.168 0 0 1-.362.824c-.104.19-.189.369-.189.397 0 .028.384.684.853 1.458.47.774.859 1.426.866 1.449.008.023-.296.368-.675.767l-.689.725-1.451-.884-1.45-.883-.501.246a9.134 9.134 0 0 1-.869.371l-.369.125-.119.527-.379 1.654-.26 1.127-1 .015c-.813.013-1.005.001-1.029-.061a69.782 69.782 0 0 1-.397-1.665l-.368-1.588-.53-.199a8.161 8.161 0 0 1-.86-.381l-.33-.181-1.45.886-1.451.887-.735-.733-.736-.734.89-1.463.891-1.463-.215-.482a15.263 15.263 0 0 1-.342-.84 9.09 9.09 0 0 0-.14-.374c-.01-.014-3.258-.781-3.308-.781-.009 0-.017-.457-.017-1.016 0-1.009.001-1.017.124-1.047l1.66-.386a64.68 64.68 0 0 0 1.545-.37c.005-.008.078-.211.161-.453.083-.243.249-.62.367-.84.163-.3.204-.423.164-.496a101.39 101.39 0 0 0-.913-1.466l-.861-1.369.698-.7.699-.7.997.608c.548.335 1.203.733 1.454.884l.458.275.477-.229c.263-.126.663-.297.89-.382l.412-.153.255-1.099.379-1.635.123-.536h1.024l1.024.001.267 1.168m-1.421 3.557c-.266.064-.552.218-.703.378-.078.082-.449.679-.825 1.327l-.683 1.178-1.256.647c-1.272.654-1.5.807-1.656 1.109-.133.256-.16.754-.057 1.055.158.463.338.618 1.598 1.378l1.186.715.614 1.21c.7 1.379.796 1.525 1.101 1.681.468.239.983.193 1.453-.128.225-.154.358-.342.981-1.382l.721-1.203 1.255-.646c.713-.367 1.338-.725 1.446-.831.468-.453.443-1.398-.05-1.909-.096-.1-.689-.493-1.316-.873l-1.14-.69-.695-1.342c-.741-1.432-.799-1.507-1.272-1.649a1.165 1.165 0 0 0-.702-.025m.386.95a.557.557 0 0 1 .225.233c.073.151.073.157-.002.059-.169-.224-.205-.248-.367-.248a.433.433 0 0 0-.287.124c-.067.068-.419.652-.781 1.297-.363.646-.706 1.199-.763 1.23-.084.045-.077.021.034-.129.076-.101.44-.71.809-1.353.369-.643.713-1.193.764-1.222.122-.071.196-.07.368.009m.929 1.57.576 1.142.471.264c.258.146.47.278.47.294 0 .032-.807-.399-.927-.494-.077-.062-1.238-2.347-1.192-2.347.014 0 .285.514.602 1.141m-.67.805c.295.586.489.902.633 1.032.113.102.546.383.962.623l.755.437-.15.091c-.083.05-.476.268-.873.484-.438.237-.796.473-.909.598-.102.114-.369.523-.591.909-.223.387-.426.716-.451.731-.025.016-.241-.375-.479-.868-.249-.515-.502-.958-.593-1.042-.088-.081-.515-.357-.95-.613l-.79-.465.841-.431c.463-.236.931-.518 1.041-.625.11-.107.393-.535.63-.951.236-.416.445-.756.464-.756.019 0 .226.381.46.846m-2.488.446c0 .015-.396.226-.88.468-.484.242-.88.428-.88.413 0-.021 1.678-.891 1.746-.905.008-.002.014.009.014.024m5.06.664c0 .015-.049.001-.11-.031s-.11-.071-.11-.086.049-.001.11.031.11.071.11.086m-6.985.325c0 .015-.096.076-.213.136-.25.127-.323.316-.208.536.054.103.461.371 1.357.893l1.281.747.688 1.342c.379.739.662 1.326.629 1.306-.033-.02-.349-.6-.702-1.288-.352-.688-.682-1.292-.733-1.342-.05-.051-.655-.419-1.343-.817-1.33-.77-1.386-.821-1.272-1.147.048-.136.516-.468.516-.366" fill="#A12577" fill-rule="evenodd"/></svg>
