<svg xmlns="http://www.w3.org/2000/svg" xml:space="preserve" viewBox="0 0 32 32"><path fill-rule="evenodd" d="M21.6 1.191c-.22.067-.691.234-1.046.37-.813.312-1.778.561-3.141.81-.586.107-1.366.267-1.733.356-.367.088-.835.18-1.04.203-1.758.202-4.6.829-5.947 1.313a9.424 9.424 0 0 0-1.848.919c-.26.17-.614.402-.788.514-.431.279-.796.63-1.087 1.044a7.254 7.254 0 0 1-.527.65c-.265.283-.602.873-.604 1.057 0 .044-.048.232-.106.418a2.013 2.013 0 0 0-.008 1.24c.055.159.115.377.135.485.059.315.451.784 1.214 1.451 1.429 1.247 3.01 2.224 4.926 3.04 1.256.535 4.572 1.722 9.776 3.502 1.447.494 2.822.982 3.057 1.084.846.365 1.464.815 1.858 1.353.353.48.455.812.455 1.485-.001.612 0 .612-.616 1.377-.699.869-1.569 1.375-3.863 2.243-1.49.565-4.172 1.392-5.279 1.629-.118.025-.491.119-.828.208-.337.089-.686.163-.775.163a2.35 2.35 0 0 0-.453.082c-.161.045-.58.131-.932.192a13.05 13.05 0 0 0-1.253.297 7.372 7.372 0 0 1-.987.229c-.36.041-1.087.196-5.227 1.114-1.056.234-2.064.442-2.24.463-.742.085-1.329.236-1.466.378l-.134.137.487-.021c.338-.015.529-.049.624-.112.096-.062.305-.1.687-.122.302-.018.639-.055.748-.082.11-.028.52-.073.913-.101.392-.028.903-.09 1.134-.136.411-.083.698-.112 2.341-.236.44-.033 1.148-.12 1.573-.194a25.74 25.74 0 0 1 1.2-.183l1.093-.128c.367-.043.807-.091.978-.108.171-.016.38-.065.464-.108a.789.789 0 0 1 .306-.079c.083 0 .343-.046.576-.102a40.132 40.132 0 0 1 1.756-.395c.859-.123 5.657-1.328 7.449-1.871 1.836-.556 3.417-1.157 4.605-1.75 1.403-.7 2.323-1.601 2.799-2.741.217-.52.252-.924.142-1.648-.067-.446-.125-.622-.354-1.074-.581-1.151-1.564-2.089-3.281-3.13-1.284-.778-2.491-1.289-4.426-1.872l-2.08-.628c-2.331-.705-4.615-1.547-5.988-2.209-.646-.311-.722-.363-.867-.591-.12-.189-.159-.314-.159-.509 0-.521.208-.703 1.048-.916.297-.075.741-.207.987-.292.45-.157 2.414-.557 3.006-.612.177-.016.481-.079.677-.139a9.88 9.88 0 0 1 .959-.218 11.5 11.5 0 0 0 1.03-.234l1.083-.319c1.018-.298 1.484-.568 1.897-1.1.474-.609.556-.913.435-1.605-.139-.791-.562-1.83-1.054-2.587-.425-.654-1.462-1.706-1.725-1.75-.086-.015-.336.028-.556.096"/></svg>
