<svg width="32" height="32" xmlns="http://www.w3.org/2000/svg"><path d="M17.813 4.079c-.97.219-1.95.995-2.39 1.894-.35.715-.394.945-.431 2.24L14.96 9.36l-1.227 1.147a88.378 88.378 0 0 1-1.317 1.217c-.082.065-.132-.011-.525-.8-.6-1.202-.841-1.431-1.502-1.43a1.369 1.369 0 0 0-1.059.469c-.101.12-.531.851-.957 1.624L7.6 12.994l-1.537.816c-.972.516-1.602.883-1.716 1.001-.208.214-.347.576-.347.903 0 .289.168.742.36.973.089.107.72.519 1.587 1.039l1.44.861.746 1.505c.481.97.813 1.575.934 1.7.435.453 1.146.584 1.693.311.37-.184.499-.344 1.02-1.264.245-.433.461-.797.482-.809.02-.013.69.577 1.487 1.31l1.451 1.334v.969c.001.534.026 1.125.056 1.313.211 1.299 1.187 2.454 2.424 2.87.388.13.501.143 1.253.145.71.002.88-.014 1.2-.116 1.563-.495 2.577-2.086 2.373-3.723-.122-.984-.611-1.892-1.326-2.459-.365-.29-1.053-.629-1.436-.708-.166-.034-.921-.058-1.829-.058h-1.547l-.731-.685c-.402-.377-1.024-.958-1.382-1.291l-.652-.604.492-.262c.27-.144.794-.414 1.164-.6.402-.202.728-.404.81-.502l.137-.163 2.071.001 2.07.002.426.726c.745 1.268 1.15 1.697 1.951 2.064.566.26.892.319 1.603.288.759-.033 1.175-.176 1.963-.675.708-.448 1.103-.841 1.353-1.349.487-.988.473-1.969-.045-3.018-.401-.814-1.096-1.429-1.985-1.759-.442-.164-1.28-.221-1.785-.122-.523.103-.885.297-2.228 1.193l-1.253.836-2.213-.003-2.214-.003-1.168-.704c-.643-.387-1.166-.722-1.162-.745.004-.023.572-.569 1.262-1.213l1.255-1.172 1.373-.001c1.503-.002 1.918-.041 2.487-.239 1.596-.555 2.642-2.408 2.302-4.083-.265-1.309-1.059-2.228-2.308-2.672-.412-.146-1.636-.188-2.148-.073M19.486 6.1c.886.37 1.117 1.595.445 2.358-.123.14-.339.306-.489.376-.249.116-.336.125-1.185.125-.504.001-.98-.023-1.058-.053l-.141-.053.018-.893c.02-.99.064-1.145.427-1.509.317-.316.635-.423 1.259-.424.345 0 .613.027.724.073m-8.528 7.213c.318.658.606 1.181.72 1.304.104.114.381.324.615.467l.427.261.015.617.015.618-.473.244c-.738.381-.822.475-1.505 1.678-.335.589-.621 1.071-.637 1.071-.016 0-.266-.492-.557-1.094-.29-.602-.602-1.179-.693-1.283-.091-.105-.607-.458-1.146-.786-.54-.328-.977-.621-.971-.65.005-.029.471-.293 1.034-.587.685-.356 1.095-.604 1.238-.748.122-.122.453-.641.773-1.213.308-.549.572-.998.587-.998.015.001.266.495.558 1.099m14.143 1.723c.316.143.659.472.782.749.145.326.146.855.002 1.176-.155.345-.409.573-.905.811-.366.176-.491.21-.783.211-.447.003-.855-.174-1.083-.468-.195-.252-.874-1.337-.873-1.394.002-.059 1.543-1.06 1.732-1.125.274-.093.882-.072 1.128.04m-5.634 8.25c.36.166.562.363.743.725.286.571.202 1.29-.2 1.714-.259.273-.523.373-1.058.398-.615.029-.928-.066-1.29-.392-.414-.372-.5-.634-.529-1.598l-.024-.8.152-.091c.13-.078.283-.089 1.059-.079.786.012.939.028 1.147.123" fill="#A12577" fill-rule="evenodd"/></svg>
