<svg xmlns="http://www.w3.org/2000/svg" viewBox="0 0 24 24">
    <path fill="#A12577" fill-rule="evenodd" d="M13.72 2.324a3.108 3.108 0 0 0-2.336 1.826c-.191.455-.227.693-.252 1.659l-.023.91-1.112 1A43.466 43.466 0 0 1 8.865 8.72c-.011 0-.185-.32-.388-.71-.528-1.018-.716-1.191-1.297-1.187-.368.002-.617.103-.86.351-.077.078-.455.685-.84 1.349l-.7 1.206-1.313.671c-.722.37-1.358.714-1.414.766a1.557 1.557 0 0 0-.207.274c-.092.157-.106.223-.105.52 0 .29.016.369.106.54.058.11.166.258.24.329.074.07.674.439 1.333.82l1.2.692.64 1.234c.352.68.696 1.301.764 1.381.069.08.222.199.34.265.197.109.249.119.596.119.334 0 .404-.013.583-.107.284-.15.424-.323.857-1.064.209-.357.394-.649.41-.649.017 0 .587.494 1.267 1.098l1.236 1.098.016.972c.015.873.026 1 .107 1.252.303.937 1.022 1.687 1.915 2 .423.147.8.193 1.389.168.888-.038 1.433-.271 2.021-.864.375-.379.567-.698.725-1.204.133-.426.132-1.165-.002-1.6a3.05 3.05 0 0 0-1.697-1.94c-.499-.231-.746-.26-2.196-.26h-1.293l-1.159-1.045a47.73 47.73 0 0 1-1.169-1.071c-.006-.014.439-.25.99-.523.557-.277 1.048-.547 1.108-.609l.108-.113 1.781.011 1.781.01.371.6c.593.958.932 1.317 1.531 1.62.894.451 2.087.401 2.926-.122.14-.088.351-.216.469-.285.508-.298.92-.805 1.115-1.372.098-.285.11-.377.108-.821-.002-.439-.016-.539-.112-.82-.506-1.467-2.028-2.331-3.518-1.995-.446.1-.701.235-1.838.971l-1.057.684h-1.884c-1.762 0-1.893-.005-2.017-.074-1.039-.584-1.913-1.102-1.904-1.13.007-.019.504-.476 1.106-1.015l1.094-.981h1.33c1.195 0 1.361-.008 1.646-.08a3.03 3.03 0 0 0 2.313-2.94 2.58 2.58 0 0 0-.302-1.276 2.868 2.868 0 0 0-1.831-1.485c-.279-.076-1.216-.108-1.564-.055m1.248 1.698c.256.087.488.3.62.569.144.293.153.721.021 1.018-.116.262-.411.564-.66.676-.191.086-.274.095-.969.108-.494.009-.814-.002-.913-.032l-.153-.046.013-.748c.013-.743.014-.748.132-.962.139-.251.38-.461.649-.566.253-.099.99-.109 1.26-.017M7.667 9.97c.246.49.509.962.585 1.05.076.088.32.268.543.4l.405.24v1.017l-.435.222c-.58.297-.712.444-1.3 1.451-.26.446-.479.81-.488.81-.008 0-.221-.41-.473-.911-.345-.685-.501-.953-.63-1.081-.098-.097-.529-.378-1.003-.655-.457-.267-.831-.496-.831-.509 0-.013.42-.235.933-.492.746-.374.965-.503 1.091-.64.087-.095.372-.537.632-.982.261-.445.485-.81.499-.81.014 0 .226.401.472.89m12.13 1.436c.247.106.503.326.63.542.084.144.111.25.125.498.017.292.009.334-.108.572-.153.311-.283.426-.716.634-.533.257-1.003.254-1.416-.008-.149-.095-.262-.234-.562-.691a86.553 86.553 0 0 1-.403-.619c-.026-.045.946-.697 1.339-.897.32-.163.774-.176 1.111-.031m-4.794 6.824c.456.225.712.597.747 1.086.026.351-.059.615-.277.862-.258.293-.415.356-.944.375-.68.024-1.033-.124-1.326-.554-.18-.265-.241-.572-.242-1.227l-.001-.528.11-.059c.089-.048.27-.058.93-.052.762.006.833.013 1.003.097"/>
</svg>
