<svg xmlns="http://www.w3.org/2000/svg" viewBox="0 0 42 42">
  <path fill="#000" fill-rule="evenodd" d="M14.352 10.122c-1.041.28-1.852 1.203-2.034 2.316-.077.466-.095.326.362 2.707.191.996.338 1.861.326 1.922-.017.086-.404.198-1.642.476-.891.2-1.726.414-1.857.476a1.98 1.98 0 0 0-.934.926c-.177.349-.208.49-.208.948v.538l1.248 2.507c.686 1.379 1.328 2.624 1.425 2.767.235.345.696.564 1.174.56.825-.007 1.451-.634 1.463-1.464.005-.337-.076-.531-.958-2.303-.53-1.065-.947-1.952-.927-1.971.038-.039 7.996-1.833 8.139-1.835.064-.002.09.629.105 2.606l.021 2.607.226.326c.66.95 2.131.815 2.571-.237.091-.218.108-.664.108-2.782 0-1.65.024-2.522.071-2.522.039 0 1.243.266 2.677.59 1.434.325 3.237.723 4.007.886.77.162 1.424.316 1.454.342.029.025-.364.895-.875 1.932l-.929 1.885v.501c0 .444.024.537.21.805.56.808 1.856.849 2.402.076.245-.347 2.381-4.804 2.468-5.149.165-.663-.066-1.534-.556-2.092-.388-.442-.945-.659-2.551-.996-.802-.169-1.468-.317-1.48-.331-.012-.013.149-.906.359-1.984.44-2.262.478-2.8.239-3.415-.186-.478-.801-1.178-1.225-1.395-.66-.338-.562-.334-7.741-.33-5.717.004-6.814.02-7.138.107m13.205 3.056c-.021.086-.168.85-.328 1.697-.159.847-.311 1.559-.337 1.582-.026.022-1.181-.22-2.567-.54-1.386-.319-2.64-.582-2.786-.584-.206-.002-4.892.993-5.448 1.157-.097.029-.162-.212-.437-1.636a56 56 0 0 1-.324-1.752c0-.062 1.482-.082 6.133-.082h6.132zm-6.902 13.214c-1.099.231-1.806.622-2.739 1.513-.815.779-.983.864-1.702.865-.361 0-.491-.043-1.05-.345-.922-.499-1.717-.718-2.634-.728-.907-.009-1.208.064-2.625.633-1.264.509-1.499.658-1.708 1.09-.462.955.142 2.061 1.167 2.135.369.027.507-.011 1.584-.44 1.113-.444 1.204-.468 1.646-.443.326.018.572.08.814.206l.776.402c1.341.695 2.995.651 4.471-.119.333-.175.715-.473 1.197-.938.39-.375.829-.732.976-.794.35-.146 1.116-.145 1.472.003.163.067.502.35.835.697.672.701 1.258 1.092 1.982 1.326.699.225.941.263 1.691.262.858-.002 1.442-.154 2.382-.622.794-.394.813-.4 1.4-.396.565.003.647.025 1.645.437 1.163.48 1.471.526 1.978.296.164-.075.376-.22.472-.324.166-.179.175-.231.175-1.008 0-1.109.007-1.101-1.754-1.809-1.223-.491-1.648-.592-2.516-.595-.946-.003-1.494.138-2.485.64-.74.375-.792.391-1.33.394-.703.005-.817-.055-1.62-.85-.715-.707-1.175-1-2.037-1.298-.508-.175-.745-.215-1.383-.234-.423-.012-.909.008-1.08.044"/>
</svg>
