<svg xmlns="http://www.w3.org/2000/svg" viewBox="0 0 42 42">
  <path fill="#000" fill-rule="evenodd" d="M20.23 6.159a8 8 0 0 1-.572.17c-.272.06-.619.378-.766.703-.112.245-.129.478-.13 1.733l-.002 1.45-.274.265c-.294.284-7.379 10.437-7.639 10.945-.421.825-.006 1.99.878 2.469.274.148.348.151 3.658.171l3.377.02v3.067l-2.992.022c-2.931.022-3.001.026-3.392.183a2.62 2.62 0 0 0-1.331 1.258c-.217.441-.231.516-.255 1.364-.013.494-.004 1.007.021 1.141.056.298.413.718.718.845.55.23 1.232.009 1.527-.495.156-.266.174-.375.174-1.044v-.746h14.477l.024.695c.02.569.05.73.168.888.442.592 1.203.719 1.792.299.368-.262.479-.638.479-1.621 0-1.081-.13-1.507-.621-2.032-.685-.732-.799-.749-4.912-.749H21.28v-.836l4.673-.02 4.672-.019.327-.192c.79-.465 1.16-1.398.869-2.197-.199-.547-9.54-17.121-9.801-17.39-.282-.29-.761-.489-1.155-.48a2.8 2.8 0 0 0-.635.133m5.172 11.258a911 911 0 0 1 3.578 6.423c0 .016-1.622.03-3.605.03H21.77v-6.452c0-3.548.012-6.438.027-6.422s1.637 2.905 3.605 6.421m-6.854.654c-.045 1.9-.09 3.462-.099 3.472-.01.011-1.072.011-2.361 0l-2.344-.018 2.419-3.478c1.331-1.912 2.431-3.467 2.444-3.454s-.014 1.578-.059 3.478m1.046 13.391c-.853.217-1.738.761-2.226 1.368q-.445.555-1.198.559c-.325.002-.495-.053-1.085-.349-1.065-.534-2.005-.679-2.952-.456-.53.125-1.974.697-2.28.903-.625.421-.742 1.314-.241 1.852.461.496.906.496 2.113.005 1.251-.51 1.419-.509 2.486.019 1.11.55 1.755.653 2.764.442.822-.172 1.55-.581 2.234-1.256.541-.534.632-.595.988-.669.304-.064.474-.062.755.005.312.075.452.173.995.697.959.926 1.738 1.255 2.976 1.257.77.001 1.278-.13 2.085-.542.904-.46 1.19-.454 2.392.049.621.259.97.366 1.201.368.898.006 1.499-.924 1.112-1.723-.197-.407-.363-.522-1.329-.917-1.871-.767-2.891-.781-4.33-.059-1.148.575-1.599.517-2.436-.313-.93-.922-1.698-1.27-2.898-1.313-.488-.018-.867.007-1.126.073"/>
</svg>
