<svg width="32" height="32" xmlns="http://www.w3.org/2000/svg"><path d="M15.207 7.595c-1.775.242-3.612 1.036-5.053 2.184-.421.335-.577.481-3.429 3.22-2.169 2.083-2.188 2.107-2.188 2.868 0 .569.126.899.491 1.286.413.438 5.316 5.04 5.684 5.336 2.603 2.089 6.134 2.573 9.132 1.253a9.974 9.974 0 0 0 1.895-1.103c.385-.291 5.51-4.838 6.166-5.471.458-.441.584-.733.584-1.355 0-.571-.127-.923-.449-1.244-.395-.394-5.095-4.607-5.435-4.871a10.49 10.49 0 0 0-4.259-1.977c-.546-.115-.849-.144-1.709-.16-.574-.01-1.218.005-1.43.034m2.511 2.027c1.12.191 2.194.632 3.226 1.321.454.304 1.896 1.567 3.635 3.184.767.713.941 1.014.941 1.631-.001.469-.06.697-.269 1.026-.192.304-4.366 4.053-5 4.492-2.644 1.83-6.032 1.68-8.485-.376-.734-.616-4.043-3.8-4.185-4.027a1.868 1.868 0 0 1-.148-1.622c.106-.287.244-.447 1.416-1.631 1.593-1.611 2.231-2.187 2.968-2.682 1.792-1.202 3.865-1.664 5.901-1.316m-1.875 1.104a4.914 4.914 0 0 0-3.009 1.664c-1.144 1.335-1.44 3.268-.754 4.928.248.601.505.995.949 1.457 1.325 1.377 3.241 1.838 5.034 1.213 1.966-.686 3.27-2.665 3.15-4.781a4.793 4.793 0 0 0-2.826-4.106c-.712-.322-1.783-.48-2.544-.375m1.345 1.999c1.043.279 1.91 1.259 2.06 2.327.131.932-.152 1.783-.809 2.431-.204.201-.497.433-.651.515-.558.297-1.304.394-1.959.255-.871-.185-1.703-.939-2.032-1.84-.172-.469-.173-1.399-.002-1.863.315-.859 1.082-1.598 1.88-1.812.383-.102 1.154-.109 1.513-.013" fill-rule="evenodd" fill="#000"/></svg>
