<svg xmlns="http://www.w3.org/2000/svg" viewBox="0 0 22 16">
    <path fill-rule="evenodd" d="M10.432.609A9.184 9.184 0 0 0 5.57 2.611c-.318.255-1.777 1.628-3.745 3.522-.732.704-.809.79-.935 1.046-.134.269-.138.292-.138.666 0 .349.011.409.107.619.059.127.158.294.22.371.162.202 4.669 4.398 5.063 4.714a8.116 8.116 0 0 0 3.63 1.636c.674.12 1.88.123 2.53.005a8.283 8.283 0 0 0 3.483-1.513c.319-.24 4.977-4.337 5.456-4.799.103-.099.23-.278.306-.43l.129-.261-.012-.454c-.011-.417-.021-.472-.119-.666a2.027 2.027 0 0 0-.367-.463 355.126 355.126 0 0 0-4.458-3.992c-.64-.535-1.776-1.184-2.616-1.493a10.647 10.647 0 0 0-1.711-.44c-.369-.058-1.644-.103-1.961-.07m1.575 1.756a7.26 7.26 0 0 1 3.631 1.599c.51.419 3.044 2.731 3.159 2.882.199.264.283.532.283.909 0 .369-.061.587-.242.874-.078.121-.7.698-2 1.851-1.038.921-2.009 1.767-2.158 1.879a6.236 6.236 0 0 1-2.745 1.177c-.58.099-1.6.08-2.155-.04a6.246 6.246 0 0 1-2.214-.953c-.508-.341-.55-.378-2.55-2.266C3.534 8.88 3.482 8.825 3.349 8.556c-.123-.247-.139-.315-.152-.617-.019-.413.041-.647.244-.956.154-.234 2.604-2.637 3.067-3.007 1.085-.866 2.374-1.434 3.649-1.606a8.478 8.478 0 0 1 1.85-.005m-1.172.977c-1.475.107-2.774 1.01-3.426 2.381a4.139 4.139 0 0 0 .884 4.747c.799.766 1.76 1.155 2.851 1.156.726.001 1.217-.111 1.854-.422a4.088 4.088 0 0 0 2.108-2.395c.496-1.482.127-3.123-.948-4.213-.9-.914-2.046-1.346-3.323-1.254m1.082 1.787c.718.229 1.364.871 1.599 1.591.085.262.098.362.098.76s-.013.498-.098.76a2.57 2.57 0 0 1-1.242 1.437c-1.415.712-3.154-.104-3.496-1.64-.08-.361-.055-.991.053-1.327.26-.805.965-1.438 1.821-1.635.311-.072.956-.044 1.265.054"/>
</svg>
