<svg xmlns="http://www.w3.org/2000/svg" xml:space="preserve" viewBox="0 0 32 32"><path fill-rule="evenodd" d="M25.96 2.407c-.64.088-1.575.565-2.68 1.368-1.34.973-3.218 2.655-3.879 3.474-1.008 1.249-1.664 2.62-1.967 4.111-.217 1.065-.191 2.581.063 3.674l.104.447-.189.231a2.122 2.122 0 0 0-.265.412c-.041.1-.714 2.003-1.494 4.229-1.557 4.442-1.591 4.565-1.479 5.339.049.345.191 1.08.308 1.601l.027.12h-1.765c-1.655 0-1.763-.005-1.737-.093.152-.517.993-4.618.993-4.84 0-1.06-.971-1.824-1.964-1.545a1.535 1.535 0 0 0-.533.269c-.114.097-.539.64-.945 1.207-1.061 1.478-2.111 2.881-2.137 2.854-.013-.012-.048-1.196-.079-2.629-.03-1.434-.061-2.613-.069-2.62-.019-.02-2.133.093-2.155.115-.01.01.007 1.79.037 3.957.038 2.625.038 4.061.003 4.307-.029.202-.043.378-.03.39.092.093 1.061.4 1.262.4.475.001.952-.365 1.775-1.366.239-.291.708-.844 1.042-1.228.334-.384.705-.827.825-.984.119-.158.225-.263.235-.234.009.029-.081.566-.2 1.193-.252 1.319-.249 1.51.034 2.076.21.419.497.7.919.897l.3.141 3.131.016 3.131.015.016-.413.015-.414.214-.079c.117-.044.621-.332 1.12-.64 1.068-.661 1.546-1.096 1.85-1.685.242-.468 1.822-5.002 1.938-5.56.179-.866.085-2.059-.236-2.971-.062-.175-.094-.333-.072-.352.022-.018.184-.089.36-.158 1.06-.411 1.981-.993 2.696-1.705.973-.968 1.502-2.035 1.582-3.187.033-.48-.053-.821-.254-1.002-.15-.136-.132-.171.111-.212.171-.029.295-.114.606-.418.321-.312.437-.475.641-.895.499-1.03.726-2.385.722-4.313-.003-1.392-.092-2.284-.264-2.64-.24-.496-.914-.763-1.667-.66m-.201 4.473c-.103 1.054-.342 1.939-.58 2.155-.05.045-.809.383-1.687.752-.989.415-1.653.724-1.745.812a1.81 1.81 0 0 0-.281.408c-.294.592-.099 1.302.533 1.935.309.309.362.339.873.498l.543.169-.163.206c-.412.52-1.144 1.049-2.004 1.447-.275.127-.5.256-.5.286-.001.031.142.484.317 1.008.176.524.31.943.299.931-.01-.011-.167-.309-.347-.661a8.46 8.46 0 0 0-.567-.96c-.699-.931-.866-3.07-.366-4.674.283-.908 1.064-2.276 1.281-2.243.976.147 1.969.242 2.162.205.489-.093.867-.6.865-1.161-.003-.571-.363-.961-1.03-1.115l-.292-.067.292-.262a22.53 22.53 0 0 1 1.918-1.514l.507-.346.016.789c.009.434-.011 1.065-.044 1.402m-6.851 11.469c.073.145.195.48.272.746.121.422.135.555.113 1.028-.025.538-.033.567-.838 2.864-.447 1.276-.858 2.408-.913 2.515a.947.947 0 0 1-.247.298c-.167.114-.845.493-.884.493-.063 0-.262-.979-.234-1.152.051-.313 2.501-7.114 2.551-7.083.026.016.107.147.18.291"/></svg>
