<svg xmlns="http://www.w3.org/2000/svg" viewBox="0 0 24 24">
    <path fill="#A12577" d="M18.914 10.629c1.2-.686 2.057-2 2.057-3.486v-2.8c-.057-.8-.742-1.486-1.542-1.486H16a3.863 3.863 0 0 0-3.77 2.973c-.457-1.715-1.943-2.972-3.772-2.972H5.03c-.915 0-1.6.686-1.6 1.486v2.8c0 1.486.857 2.8 2.057 3.486-1.886.8-3.2 2.685-3.2 4.914 0 3.085 2.514 5.6 5.657 5.6H9.6c1.2 0 2.286-.8 2.629-1.886.4 1.086 1.428 1.886 2.628 1.886h1.657c3.086 0 5.658-2.515 5.658-5.657 0-2.172-1.372-4.058-3.258-4.857ZM13.771 6.8a2.231 2.231 0 0 1 2.23-2.229h3.256v2.572a2.292 2.292 0 0 1-2.286 2.286h-1.085c-1.143 0-2.114-.972-2.114-2.115V6.8ZM5.143 4.571H8.4c1.2 0 2.229.972 2.229 2.229v.514c0 1.143-.972 2.115-2.115 2.115H7.43a2.292 2.292 0 0 1-2.286-2.286V4.57Zm5.543 13.772c0 .571-.514 1.085-1.086 1.085H7.943C5.77 19.428 4 17.715 4 15.543c0-2 1.6-3.6 3.6-3.6a3.073 3.073 0 0 1 3.086 3.085v3.315Zm1.543-4.514a5.001 5.001 0 0 0-2.286-2.972c1.086-.457 1.943-1.428 2.286-2.571.285 1.2 1.2 2.171 2.285 2.628-1.143.572-1.942 1.657-2.285 2.915Zm4.285 5.6h-1.657c-.571 0-1.085-.515-1.085-1.086v-3.315a3.073 3.073 0 0 1 3.085-3.085c2 0 3.6 1.6 3.6 3.6 0 2.171-1.771 3.886-3.943 3.886Z"/>
</svg>
