<svg width="32" height="32" xmlns="http://www.w3.org/2000/svg"><path d="M6.866 4.056a1.998 1.998 0 0 0-1.303 1.091l-.15.32-.015 2.313c-.012 1.876.001 2.402.066 2.782.223 1.289.941 2.515 1.934 3.296l.437.345-.404.23c-1.683.96-2.832 2.597-3.281 4.677-.168.779-.169 2.334-.003 3.086.518 2.336 1.88 4.16 3.833 5.13 1.099.546 1.812.673 3.758.674 1.594 0 1.944-.052 2.571-.385.637-.338 1.351-1.137 1.572-1.759.05-.141.103-.255.118-.253.015.002.117.188.226.414.479.992 1.302 1.671 2.314 1.907.308.071.628.082 1.968.062 1.533-.022 1.622-.029 2.147-.168 1.33-.352 2.322-.94 3.271-1.938.972-1.022 1.596-2.243 1.927-3.77.172-.794.17-2.232-.004-3.012-.451-2.028-1.626-3.678-3.3-4.634-.241-.138-.439-.263-.44-.279-.001-.016.075-.074.168-.129.266-.157.994-.876 1.245-1.229a6.03 6.03 0 0 0 .916-2.054c.113-.464.169-4.661.068-5.12-.14-.635-.577-1.216-1.112-1.479l-.3-.147-2.399-.016c-1.515-.01-2.535.006-2.766.042-1.725.267-3.206 1.552-3.749 3.253-.084.263-.166.479-.183.479-.016.001-.072-.136-.124-.305-.32-1.041-1.082-2.1-1.932-2.685a5.588 5.588 0 0 0-1.356-.642c-.386-.117-.473-.121-2.957-.133-1.417-.007-2.65.009-2.761.036m4.92 2.241c.999.162 1.833.951 2.168 2.052.151.495.14 1.839-.019 2.347a2.985 2.985 0 0 1-.823 1.277c-.584.532-1.043.667-2.257.666-.978-.001-1.366-.07-1.863-.334-.439-.232-.92-.724-1.164-1.19-.338-.644-.36-.825-.361-2.968V6.24h1.986c1.133.001 2.136.025 2.333.057m12.683 1.956c-.017 1.949-.021 2.025-.141 2.36-.368 1.03-1.169 1.769-2.131 1.968-.366.076-1.843.076-2.208 0-.983-.205-1.797-1.043-2.047-2.107-.123-.526-.081-1.774.077-2.265a3.23 3.23 0 0 1 .788-1.244c.312-.301.897-.601 1.3-.665.161-.026 1.213-.05 2.336-.054l2.044-.006-.018 2.013m-8.311 3.413c.329 1.046 1.204 2.114 2.221 2.708.307.18.343.216.26.264-.281.163-.955.704-1.149.924a6.832 6.832 0 0 0-1.341 2.344c-.067.212-.135.386-.15.386-.015.001-.082-.173-.148-.385-.156-.5-.511-1.204-.872-1.727-.331-.48-1.022-1.191-1.42-1.46-.304-.206-.328-.244-.178-.292.454-.144 1.419-1.013 1.865-1.679.292-.436.701-1.303.701-1.485 0-.158.089.011.211.402m-4.677 4.433a4.003 4.003 0 0 1 2.351 2.269c.271.677.301 1.051.301 3.706 0 1.491-.021 2.509-.055 2.629-.087.314-.375.693-.66.869l-.263.161-1.257.018c-1.33.018-1.849-.027-2.418-.211-1.778-.575-3.095-2.196-3.35-4.127-.083-.62-.035-1.532.109-2.08.244-.927.859-1.889 1.579-2.467.438-.352 1.193-.73 1.675-.839.502-.114 1.578-.075 1.988.072m10.999-.072c.498.105 1.249.475 1.702.839.72.578 1.335 1.54 1.579 2.467.238.907.192 2.121-.114 3.04-.551 1.649-1.774 2.81-3.438 3.26-.319.087-.57.1-1.866.1h-1.498l-.262-.161c-.286-.176-.574-.555-.661-.869-.034-.12-.055-1.138-.055-2.629 0-2.655.03-3.029.301-3.706.48-1.199 1.642-2.192 2.792-2.384.318-.054 1.177-.029 1.52.043" fill="#A12577" fill-rule="evenodd"/></svg>
