<svg xmlns="http://www.w3.org/2000/svg" xml:space="preserve" viewBox="0 0 32 32"><path fill-rule="evenodd" d="M18.8 9.525a17.11 17.11 0 0 0-1.493.279l-.374.096-.013 6.305-.014 6.305 5.427-.017c6.047-.019 5.63.007 6.446-.393.981-.48 1.769-1.467 2.018-2.527.107-.457.108-1.428.001-1.842-.409-1.584-1.871-2.7-3.541-2.704a4.343 4.343 0 0 0-.874.086 7.638 7.638 0 0 1-.386.087c-.013 0-.024-.059-.024-.13 0-.196-.145-.782-.301-1.217-.77-2.143-2.726-3.786-5.03-4.223-.435-.082-1.557-.146-1.842-.105m-3.661.723a.987.987 0 0 0-.307.313c-.112.2-.112.204-.112 5.74 0 5.29.004 5.549.099 5.726.394.743 1.484.557 1.659-.282.041-.198.054-1.89.043-5.614l-.014-5.331-.127-.22a.922.922 0 0 0-1.241-.332m-4.646.82c-.414.281-.385-.115-.401 5.456-.01 3.388.004 5.044.043 5.187.167.621.84.869 1.383.51.399-.264.38.03.363-5.67-.014-5.056-.015-5.077-.126-5.227-.201-.272-.433-.391-.764-.391-.233 0-.344.03-.498.135m2.365.567c-.24.165-.374.354-.434.609-.063.275-.063 9.264 0 9.539.067.287.207.462.486.607a.869.869 0 0 0 1.172-.368c.104-.203.106-.311.092-5.084-.014-4.831-.015-4.878-.124-5.024-.194-.261-.376-.359-.703-.382-.256-.018-.337-.001-.489.103m-4.627.712a.87.87 0 0 0-.333.363c-.11.228-.111.279-.111 4.552 0 3.085.017 4.374.06 4.503a.944.944 0 0 0 .863.635c.287 0 .626-.211.767-.478l.123-.232v-8.761l-.12-.237a.879.879 0 0 0-1.249-.345m-4.435 3.156a1.119 1.119 0 0 0-.32.275l-.143.187-.014 2.905c-.015 2.855-.013 2.908.097 3.135.351.725 1.43.608 1.648-.18.078-.278.075-5.46-.003-5.745a.912.912 0 0 0-1.265-.577m2.257.028a.864.864 0 0 0-.333.361c-.12.237-.12.239-.12 3.049 0 1.853.019 2.863.057 2.962.081.215.358.485.57.555.27.089.625.017.838-.171.356-.312.354-.294.337-3.38l-.015-2.774-.134-.235c-.183-.324-.365-.445-.704-.469-.222-.016-.328.006-.496.102m-4.411 1.215a.923.923 0 0 0-.542.448c-.076.159-.087.465-.087 2.406 0 2.495-.002 2.478.381 2.731.291.193.601.213.896.059.279-.145.419-.32.486-.607.063-.273.063-4.093 0-4.366-.067-.287-.207-.462-.484-.604-.244-.124-.404-.141-.65-.067"/></svg>
