<svg xmlns="http://www.w3.org/2000/svg" viewBox="0 0 16 22">
    <path fill-rule="evenodd" d="M7.087.921a7.406 7.406 0 0 0-2.474.792 8.509 8.509 0 0 0-1.12.761c-.297.25-.779.74-.993 1.01-.781.985-1.313 2.215-1.553 3.596-.104.596-.126.929-.139 2.093l-.013 1.16-.088.134c-.668 1.019-.862 2.781-.466 4.226.132.485.335.919.581 1.247.103.137 3.871 3.741 4.521 4.324.432.387 1.091.576 2.249.645.936.055 1.916-.042 2.461-.245.424-.158.355-.097 2.752-2.43 1.237-1.203 2.311-2.267 2.388-2.363.314-.394.557-.988.691-1.688.056-.292.081-1.538.038-1.942-.068-.654-.328-1.428-.618-1.841-.042-.06-.048-.178-.06-1.267-.013-1.287-.038-1.597-.19-2.347-.249-1.227-.782-2.39-1.524-3.319a8.824 8.824 0 0 0-1.05-1.05A7.244 7.244 0 0 0 9.027.934C8.579.87 7.518.862 7.087.921m1.38 1.667c2.235.193 3.993 1.606 4.715 3.791.269.813.365 1.565.365 2.869v.758l-.1-.121a1.39 1.39 0 0 0-.858-.473 1.047 1.047 0 0 0-.573.054c-.225.077-2.544 1.274-2.736 1.412-.29.209-.51.531-.631.923-.035.116-.048.245-.048.479 0 .29.008.342.083.553.216.608.607 1.046 1.144 1.281.309.136.474.166.892.165.362-.001.402-.006.628-.084.312-.108 1.356-.663 1.605-.852.23-.176.414-.384.58-.651.194-.316.279-.569.382-1.145l.022-.12.042.08c.063.119.151.396.211.666.078.353.098 1.126.039 1.527-.054.363-.15.708-.262.936-.076.154-.274.355-2.251 2.28-1.982 1.93-2.179 2.115-2.306 2.159-.519.179-1.973.181-2.706.004l-.188-.045-2.17-2.057c-2.388-2.264-2.268-2.134-2.426-2.624-.123-.38-.168-.704-.169-1.22-.001-.592.059-.97.225-1.414l.059-.157.06.266c.153.676.548 1.259 1.092 1.614.291.189 1.34.734 1.533.795a2.09 2.09 0 0 0 2.014-.456c.459-.429.709-1.011.671-1.563a1.715 1.715 0 0 0-.612-1.229c-.15-.122-2.607-1.459-2.873-1.562a1.441 1.441 0 0 0-.35-.06 1.309 1.309 0 0 0-.96.333l-.103.093V9.17c0-1.22.105-2.011.377-2.833.298-.899.729-1.605 1.37-2.244 1.093-1.089 2.638-1.641 4.213-1.505m-3.735 9.188c.536.288.975.535.975.55 0 .061-.117.211-.195.252-.162.083-.238.061-.819-.247-.6-.318-.759-.439-.864-.663-.062-.13-.121-.415-.087-.415.009 0 .454.236.99.523m7.471-.346a.84.84 0 0 1-.226.5c-.055.053-.327.219-.605.369-.495.267-.509.272-.683.273-.154.001-.188-.008-.249-.065-.081-.076-.154-.204-.141-.245.011-.031 1.827-.975 1.885-.979.029-.002.033.028.019.147"/>
</svg>
