<svg width="32" height="32" xmlns="http://www.w3.org/2000/svg"><path d="M15.015 8.067c-.076.011-.389.071-.697.131-3.348.661-5.89 3.294-6.614 6.851-.178.878-.223 1.454-.224 2.87v1.337l-.222.367c-.751 1.246-.926 3.426-.407 5.072.179.569.328.871.623 1.264.124.165 1.42 1.433 2.879 2.819 2.911 2.763 2.937 2.783 3.816 2.978 1.072.238 2.966.23 3.916-.017.8-.208.782-.194 3.637-2.975 1.46-1.423 2.741-2.691 2.846-2.817.666-.797 1.002-2.155.934-3.782-.04-.988-.204-1.688-.558-2.394l-.249-.496v-.961c-.001-2.503-.285-3.985-1.071-5.582-1.252-2.545-3.505-4.191-6.327-4.624-.447-.069-1.936-.096-2.282-.041m1.709 2.021c1.784.123 3.593 1.195 4.637 2.747.929 1.382 1.299 2.892 1.299 5.302v.741l-.226-.204c-.462-.417-1.091-.577-1.595-.405-.433.148-3.197 1.611-3.429 1.815-.479.422-.765 1.264-.638 1.877.102.488.457 1.148.761 1.417.683.602 1.668.805 2.514.518.152-.051.608-.27 1.015-.486.796-.422 1.248-.785 1.535-1.233.168-.262.412-.953.48-1.36l.036-.219.101.233c.272.628.364 1.988.192 2.824-.165.805-.192.837-2.973 3.544-1.415 1.377-2.609 2.495-2.708 2.537-.334.141-1.463.209-2.275.139-.406-.036-.836-.091-.958-.123-.182-.049-.653-.469-2.773-2.476-1.404-1.33-2.609-2.501-2.678-2.602-.321-.472-.489-1.353-.443-2.316.031-.656.07-.878.239-1.342l.088-.242.099.389c.16.63.362.986.82 1.444.36.36.525.472 1.274.866.993.521 1.395.646 1.905.594a2.81 2.81 0 0 0 1.203-.424c.365-.249.769-.743.934-1.142.361-.875.072-1.973-.651-2.469-.335-.23-3.082-1.707-3.353-1.803-.474-.167-1.145-.036-1.49.29l-.162.153.026-1.292c.018-.899.054-1.435.119-1.76.44-2.215 1.603-3.887 3.351-4.816a7.097 7.097 0 0 1 1.71-.629c.363-.075 1.246-.153 1.46-.13.076.008.325.028.554.043m-4.583 10.931a98.33 98.33 0 0 1 1.163.63c.048.04-.176.306-.307.366-.129.059-.214.028-.882-.317-.787-.406-1.015-.601-1.112-.948-.063-.227-.073-.345-.031-.345.016 0 .541.276 1.169.614m8.898-.355c-.046.248-.148.452-.285.575-.188.17-1.375.761-1.527.761-.142 0-.472-.257-.472-.367 0-.055 2.14-1.17 2.247-1.172.057-.001.066.049.037.203" fill-rule="evenodd" fill="#000"/></svg>
