<svg xmlns="http://www.w3.org/2000/svg" viewBox="0 0 42 42">
  <path fill="#a12678" fill-rule="evenodd" d="M30.455 3.995c-.738.097-1.53.523-2.174 1.169-1.605 1.613-1.594 3.824.028 5.448.643.644 1.187.947 2.019 1.123 2.323.494 4.625-1.427 4.625-3.86 0-2.385-2.097-4.194-4.498-3.88m.926 2.698c.724.366 1.012 1.121.66 1.735-.509.891-1.599.993-2.199.206-.174-.227-.197-.318-.197-.759s.024-.532.196-.758c.374-.49 1.044-.674 1.54-.424m-15.246.059c-.038.016-1.661.522-3.605 1.126S8.901 9.033 8.785 9.103a1.947 1.947 0 0 0-.439 2.974c.369.419.816.617 1.384.613.4-.003.838-.135 3.637-1.097 1.75-.601 3.284-1.093 3.409-1.093.154 0 1.171.459 3.119 1.407 1.589.773 2.913 1.428 2.941 1.454.027.026-1.222.985-2.776 2.131s-2.983 2.251-3.176 2.454c-1.208 1.278-1.242 3.295-.077 4.559.146.158 1.747 1.294 3.558 2.524 1.847 1.255 3.278 2.272 3.262 2.319-.016.045-1.14 1.541-2.499 3.325-1.358 1.783-2.547 3.4-2.641 3.592-.35.717-.19 1.604.386 2.135.454.419.803.557 1.41.558.588.002.986-.15 1.331-.508.523-.541 5.347-6.975 5.575-7.435.783-1.58.498-3.524-.686-4.688-.303-.297-1.265-.962-3.245-2.242-1.548-1.001-2.816-1.842-2.816-1.868-.001-.026 1.434-1.141 3.19-2.478 1.988-1.513 3.272-2.538 3.404-2.717a2.98 2.98 0 0 0 .544-2.284c-.11-.65-.48-1.386-.869-1.727-.217-.191-1.407-.787-4.214-2.114-2.152-1.016-4.085-1.911-4.297-1.99-.286-.106-.592-.148-1.19-.163-.443-.011-.836-.007-.875.008m21.548 3.523c-.122.066-1.252 1.09-2.512 2.275-1.26 1.186-2.342 2.183-2.404 2.216-.082.044-.332-.071-.918-.424-.953-.573-1.24-.67-1.641-.552-.762.225-1.193.951-.984 1.655.135.453.381.679 1.401 1.283 1.032.612 1.401.729 2.174.688.998-.052 1.1-.125 3.989-2.845 1.387-1.306 2.56-2.459 2.607-2.561.141-.309.108-1.002-.061-1.275-.32-.518-1.126-.742-1.651-.46m-24.12 12.521c-.216.089-.457.374-1.377 1.624-1.091 1.481-1.388 1.822-2.043 2.343-.176.141-2.098 1.25-4.269 2.466-2.172 1.215-4.024 2.278-4.116 2.363-.224.206-.425.658-.425.958 0 .346.221.79.497.999.299.226.78.356 1.104.297.248-.046 7.927-4.29 8.704-4.812.742-.498 1.282-1.085 2.415-2.628.614-.837 1.153-1.59 1.197-1.674.128-.245.098-.903-.056-1.204-.15-.295-.556-.682-.821-.783-.242-.092-.506-.075-.81.051"/>
</svg>
