<svg xmlns="http://www.w3.org/2000/svg" xml:space="preserve" viewBox="0 0 32 32"><path d="M13.772 1.172c-2.988.465-5.651 1.733-7.825 3.728-1.907 1.75-3.129 3.553-4.019 5.932C.702 14.11.699 17.884 1.921 21.147c.847 2.263 1.86 3.824 3.597 5.542.798.789 1.388 1.273 2.257 1.849 1.703 1.128 3.775 1.927 5.958 2.296.606.102.893.117 2.267.117 1.766 0 2.274-.059 3.707-.426 2.075-.532 4.199-1.595 5.718-2.863.601-.502 1.735-1.636 2.237-2.237 1.268-1.519 2.331-3.643 2.863-5.718.367-1.433.426-1.941.426-3.707 0-1.374-.015-1.661-.117-2.267-.373-2.204-1.179-4.282-2.332-6.009-.629-.943-1.024-1.406-2.111-2.474-.925-.909-1.181-1.121-2.071-1.714-1.79-1.192-3.449-1.861-5.68-2.289-.699-.134-.858-.145-2.48-.16-1.496-.014-1.823-.002-2.388.085m3.508 8.076c3.588.45 6.404 1.264 8.618 2.491.923.511 1.162.812 1.162 1.461.001.433-.079.621-.375.88-.319.281-.63.397-1.058.397-.365-.001-.397-.013-1.348-.493-1.708-.863-3.068-1.326-5.026-1.713-1.79-.353-2.987-.456-5.306-.454-2.53.001-3.809.14-5.92.643-.899.215-1.163.215-1.572.005-.503-.259-.776-.871-.647-1.448.076-.341.299-.669.578-.854.464-.305 3.175-.846 4.947-.986 1.032-.082 5.121-.033 5.947.071m-1.653 4.995c2.555.177 5.546 1.044 7.759 2.249 1.257.684 1.442.852 1.502 1.358.026.225.005.305-.176.652-.261.503-.449.617-1.012.612-.37-.003-.4-.014-1.173-.428-1.61-.861-2.863-1.318-4.655-1.696-1.696-.358-1.868-.373-4.299-.373-2.208 0-2.251.002-3.038.145-.44.08-1.207.244-1.706.364-1.015.244-1.243.247-1.588.019-.477-.316-.663-.819-.498-1.344.144-.454.385-.657 1.022-.859.98-.311 2.211-.55 3.621-.704.966-.105 2.684-.103 4.241.005m.214 4.931c2.133.248 3.852.751 5.679 1.661 1.227.612 1.41.767 1.451 1.228.045.506-.373.977-.867.977-.106 0-.583-.21-1.311-.578-2.127-1.074-3.779-1.481-6.446-1.585-1.488-.059-3.034.076-4.959.431-1.197.221-1.413.229-1.66.065-.216-.144-.421-.524-.421-.781 0-.295.193-.633.432-.755.508-.259 2.81-.647 4.421-.745.947-.057 2.843-.015 3.681.082" fill="#fff" fill-rule="evenodd"/></svg>