<svg width="32" height="32" xmlns="http://www.w3.org/2000/svg"><path d="M15.91 3.88c-.589.158-1.142.538-1.466 1.005-.084.121-.793 1.59-1.577 3.264l-1.424 3.044-3.37.476c-3.662.518-3.806.549-4.297.948-.934.758-1.175 2.043-.57 3.05.116.194.729.829 1.799 1.866.892.864 1.996 1.939 2.453 2.388l.83.817-.58 3.439C7.14 27.546 7.13 27.623 7.194 28c.037.211.13.509.207.662.499.985 1.698 1.525 2.723 1.226.164-.048 1.637-.791 3.272-1.65 1.636-.86 3.016-1.563 3.068-1.563.052 0 1.263.615 2.691 1.367 1.429.753 2.833 1.489 3.12 1.637l.522.269h.605c.551 0 .636-.015.948-.159.666-.307 1.164-1.026 1.28-1.847.07-.492.11-.186-.53-4.043-.286-1.723-.512-3.173-.504-3.222.009-.048 1.105-1.142 2.436-2.43 1.685-1.631 2.474-2.431 2.595-2.636.522-.876.441-1.933-.211-2.744-.233-.29-.755-.637-1.112-.738-.251-.072-5.738-.909-5.955-.909-.129 0-.072.752.089 1.172.156.407.662.96 1.043 1.142.151.071.266.138.255.148-.044.045-1.363-.216-1.734-.343-1.152-.394-2.084-1.099-2.744-2.076-.169-.249-.888-1.646-.888-1.723 0-.021.102.055.227.167.564.51 1.476.677 2.269.415l.191-.063-.566-1.166c-2.051-4.223-2.157-4.402-2.824-4.757-.61-.325-1.188-.409-1.757-.256" fill="#A12577" fill-rule="evenodd"/></svg>
