<svg width="32" height="32" xmlns="http://www.w3.org/2000/svg"><path d="M15.91 3.88c-.589.158-1.142.538-1.466 1.005-.084.121-.793 1.59-1.577 3.264l-1.424 3.044-3.37.476c-3.662.518-3.806.549-4.297.948-.934.758-1.175 2.043-.57 3.05.116.194.729.829 1.799 1.866.892.864 1.996 1.939 2.453 2.388l.83.817-.58 3.439C7.14 27.546 7.13 27.623 7.194 28c.037.211.13.509.207.662.499.985 1.698 1.525 2.723 1.226.164-.048 1.637-.791 3.272-1.65 1.636-.86 3.016-1.563 3.068-1.563.052 0 1.263.615 2.691 1.367 1.429.753 2.833 1.489 3.12 1.637l.522.269h.605c.551 0 .636-.015.948-.159.666-.307 1.164-1.026 1.28-1.847.07-.492.11-.186-.53-4.043-.286-1.723-.512-3.173-.504-3.222.009-.048 1.105-1.142 2.436-2.43 1.685-1.631 2.474-2.431 2.595-2.636.522-.876.441-1.933-.211-2.744-.233-.29-.755-.637-1.112-.738-.251-.072-5.738-.909-5.955-.909-.076 0-.084.061-.061.426.039.602.203.991.594 1.409.503.539.716.619 2.308.868 2.15.337 2.493.401 2.514.467.012.034-.952 1.005-2.14 2.157l-2.162 2.095-7.012.002-7.013.001-2.153-2.076c-1.5-1.446-2.155-2.113-2.159-2.198-.006-.148-.406-.077 3.646-.648 3.73-.526 3.709-.521 4.262-1.078.271-.272.43-.566 1.843-3.405 1.289-2.59 1.567-3.11 1.668-3.125.109-.015.209.157.942 1.623.728 1.455.853 1.669 1.104 1.905.611.571 1.503.754 2.336.479l.191-.063-.566-1.166c-2.051-4.223-2.157-4.402-2.824-4.757-.61-.325-1.188-.409-1.757-.256" fill="#A12577" fill-rule="evenodd"/></svg>
