<svg xmlns="http://www.w3.org/2000/svg" viewBox="0 0 20 22">
    <path fill-rule="evenodd" d="M11.518.804c-.783.223-1.435.701-2.015 1.478-.277.37-.418.603-.919 1.518-.749 1.369-.949 1.591-1.59 1.765-.826.224-2.448.256-4.027.079-.886-.1-1.084-.077-1.44.167-.644.441-.836 1.471-.401 2.156.052.082.545.735 1.095 1.45.55.715 2.654 3.46 4.675 6.1 2.021 2.64 3.757 4.879 3.858 4.975.195.187.351.279.641.379.235.081.78.086 1.041.009.197-.058.564-.241.564-.281 0-.014-.855-1.133-1.899-2.486l-1.899-2.46.121-.218c.708-1.278 1.284-1.964 1.928-2.298.583-.301 1.101-.266 1.9.129.579.286.882.344 1.382.266.892-.138 2.031-.77 3.334-1.848.951-.788 1.295-1.268 1.488-2.076.085-.359.075-1.116-.021-1.475-.153-.571-.189-.624-2.653-3.917-1.275-1.705-2.337-3.123-2.358-3.153-.022-.029-.178-.093-.346-.142-.593-.17-.736-.188-1.504-.185-.615.002-.757.012-.955.068m1.554 1.642.189.037 2.138 2.862c1.177 1.574 2.168 2.918 2.203 2.985.15.288.16.766.023 1.137-.084.227-.408.557-1.049 1.07-.886.709-1.692 1.18-2.219 1.298l-.184.041-.332-.17c-1.402-.72-2.787-.613-3.992.31-.509.39-1.14 1.126-1.574 1.836-.18.293-.195.309-.247.255-.043-.045-4.79-6.184-5.136-6.641l-.088-.117.44.04c.729.068 2.046.091 2.639.047 1.896-.139 2.771-.55 3.517-1.653.154-.228.334-.54.901-1.566.379-.686.565-.955.88-1.271.515-.517 1.071-.664 1.891-.5m-2.438 1.859a1.145 1.145 0 0 0-.599.613c-.068.179-.079.289-.108 1.115l-.032.917-.444.67c-.618.932-.601.895-.601 1.297 0 .306.008.347.098.51.122.221.307.389.545.498.169.078.241.087.837.111.36.015.773.028.92.03l.267.002.741.513c.408.282.812.537.898.566.524.178 1.1-.063 1.348-.566.104-.211.106-.226.132-.873.015-.362.028-.779.029-.927l.002-.268.514-.744c.284-.408.539-.812.567-.895a1.107 1.107 0 0 0-.567-1.345c-.207-.101-.24-.107-.774-.132a29.066 29.066 0 0 0-.924-.029l-.366-.001-.7-.469c-.933-.624-.966-.641-1.317-.654-.23-.009-.318.003-.466.061m1.788 2.669c.063.057.138.068.608.084.295.01.537.025.537.032 0 .024-.271.418-.431.627l-.153.2-.011.525c-.006.288-.02.525-.031.525-.029 0-.499-.324-.673-.464l-.149-.12-.543-.011c-.298-.006-.543-.018-.543-.027 0-.038.221-.337.323-.439.187-.185.22-.301.234-.839.019-.714-.019-.677.402-.396.197.131.39.267.43.303"/>
</svg>
