<svg width="32" height="32" xmlns="http://www.w3.org/2000/svg"><path d="M18.065 2.397a5.345 5.345 0 0 0-1.569.771c-.782.592-1.412 1.45-2.422 3.299-.91 1.666-1.155 1.959-1.845 2.209-1.032.375-3.613.439-5.979.149-.861-.106-1.257-.015-1.721.393-.496.437-.773 1.259-.649 1.927.034.18.119.452.189.604.07.153.691 1.01 1.379 1.904.688.895 3.503 4.567 6.255 8.16 2.753 3.594 5.115 6.649 5.251 6.79.137.142.4.332.592.426.335.166.367.171 1.04.171.683 0 .7-.003 1.056-.182.212-.106.353-.208.338-.246-.017-.045-4.369-5.712-5-6.51-.053-.067.552-1.152 1.009-1.809.405-.582 1.182-1.344 1.59-1.56.878-.463 1.571-.419 2.731.174.573.292.919.37 1.478.33 1.135-.08 2.682-.868 4.366-2.224 1.594-1.284 2.048-1.871 2.307-2.983.112-.484.109-1.581-.007-2.027-.195-.753.013-.452-4.242-6.141l-2.496-3.337-.391-.114c-.835-.243-1.092-.278-2.008-.274-.687.002-.973.025-1.252.1m2.184 2.224c.133.052 5.821 7.631 5.94 7.914.05.119.077.365.077.692-.002.736-.106.94-.791 1.555-1.398 1.254-3.141 2.334-3.775 2.337-.118.001-.384-.09-.693-.236a8.868 8.868 0 0 0-.98-.383c-.429-.13-.567-.146-1.28-.15-.68-.003-.863.015-1.216.117-1.309.379-2.519 1.374-3.548 2.916-.263.396-.491.75-.504.788-.017.046-.043.051-.078.016-.179-.183-6.952-9-6.93-9.022.015-.015.335-.002.711.028 2.448.199 4.415.072 5.751-.371.944-.314 1.618-.842 2.251-1.762.153-.223.546-.894.874-1.492 1.165-2.124 1.603-2.641 2.489-2.935.252-.083.42-.097.946-.08.352.012.693.042.756.068m-3.09 2.37a1.55 1.55 0 0 0-.888.514c-.279.339-.326.579-.367 1.893l-.037 1.196-.651.984c-.724 1.095-.836 1.367-.761 1.844.084.53.389.928.878 1.144.238.104.401.122 1.484.16l1.218.043.436.299 1.009.693c.316.217.664.419.774.45a1.481 1.481 0 0 0 1.749-.772c.137-.28.144-.343.188-1.521.025-.677.063-1.259.084-1.294.021-.035.321-.475.668-.978.347-.503.667-1.016.711-1.14a1.466 1.466 0 0 0-.391-1.558c-.383-.345-.489-.369-1.876-.426l-1.254-.052-1.04-.687c-1.233-.815-1.391-.879-1.934-.792m1.547 3.255c.228.151.462.317.521.368.083.073.255.1.798.129.381.02.701.045.712.056.01.01-.154.266-.366.568l-.384.549-.028.682c-.015.375-.038.682-.05.682-.033 0-.656-.424-.885-.602-.197-.153-.226-.159-.92-.186-.395-.015-.717-.037-.717-.05 0-.05.315-.475.426-.575.244-.221.288-.386.311-1.19.017-.622.035-.759.095-.735.041.015.26.152.487.304" fill-rule="evenodd" fill="#000"/></svg>
