<svg xmlns="http://www.w3.org/2000/svg" xml:space="preserve" viewBox="0 0 32 32"><path fill-rule="evenodd" d="M14.71.579c-.539.352-1.388 1.091-2.097 1.826-1.353 1.403-2.218 2.73-2.564 3.936-.134.468-.141.548-.113 1.227.084 2.008 1.042 4.529 4.117 10.832 2.319 4.753 2.78 5.885 2.913 7.158.107 1.026-.075 2.283-.568 3.909-.441 1.453-.506 1.695-.514 1.899-.01.26.09.385.272.341.369-.089 1.236-.794 2.277-1.85 1.939-1.969 3.363-3.964 3.756-5.265.356-1.176-.224-3.364-1.885-7.102-.576-1.297-1.237-2.692-2.677-5.65-1.992-4.092-2.262-4.771-2.458-6.176-.13-.935-.082-2.855.105-4.167.078-.54.127-1.026.11-1.08-.052-.161-.253-.113-.674.162M4.998 3.878c-1.035.699-2.424 2.199-3.143 3.394-.765 1.273-.825 2.117-.282 3.928.432 1.442 1.096 2.986 2.862 6.655 1.88 3.907 2.178 4.652 2.287 5.713.09.871-.092 1.975-.582 3.541-.264.842-.306 1.096-.205 1.232.066.089.097.094.255.039.709-.247 2.782-2.403 3.837-3.991.746-1.124.945-1.705.849-2.482-.195-1.565-.958-3.505-3.276-8.334-1.691-3.521-1.988-4.238-2.168-5.24-.149-.832-.161-2.331-.025-3.4.108-.86.101-1.218-.025-1.241-.047-.009-.219.075-.384.186m20.09.007c-1.064.691-2.659 2.477-3.294 3.688-.571 1.09-.62 1.728-.245 3.184.389 1.507 1.141 3.281 3.196 7.536 1.023 2.119 1.55 3.306 1.832 4.128l.222.646v.96c.001 1.11-.039 1.342-.486 2.826-.334 1.107-.385 1.375-.284 1.496.182.22.705-.146 1.868-1.307 1.307-1.304 2.245-2.51 2.761-3.549.27-.542.328-.762.328-1.235.001-1.419-.779-3.463-3.426-8.978-1.573-3.276-1.866-3.996-2.041-5.013-.187-1.09-.197-2.546-.025-3.937.06-.488.049-.65-.044-.65-.026 0-.189.092-.362.205"/></svg>
