<svg xmlns="http://www.w3.org/2000/svg" viewBox="0 0 20 25" xml:space="preserve"><path d="M9.45.347A2.43 2.43 0 0 0 8.619.7c-.321.21-1.004.889-1.148 1.142-.06.105-.124.191-.141.191a.613.613 0 0 1-.143-.046c-.407-.17-1.125-.211-1.567-.09-.438.12-.87.37-1.254.725a2.723 2.723 0 0 0-.775 1.308c-.067.243-.071.34-.083 2.39l-.013 2.137-.272.02c-.758.055-1.649.446-2.146.942a2.17 2.17 0 0 0-.52.83l-.074.234v3.7c0 3.484.004 3.716.062 3.967.182.786.634 1.495 1.477 2.317.448.438 2.873 2.527 3.369 2.904.519.392 1.129.665 1.842.822l.384.085 2.265.013c1.485.009 2.403.001 2.667-.023.7-.064 1.449-.267 2.001-.543.299-.149 2.237-1.263 2.727-1.566.728-.452 1.095-.79 1.45-1.338.311-.48.531-1.162.604-1.871.021-.202.077-.577.124-.833.117-.63.114-.82-.015-1.096a1.31 1.31 0 0 0-.633-.632c-.197-.093-.257-.106-.507-.105-.22 0-.319.016-.442.073-.217.1-.513.389-.624.61-.138.273-.367 1.299-.368 1.643 0 .306-.065.626-.167.826-.14.274-.443.53-.982.83-.11.061-.575.332-1.034.602-.971.571-1.194.687-1.596.829-.557.196-.654.203-2.933.202-1.586-.001-2.129-.012-2.321-.046a2.852 2.852 0 0 1-.989-.395c-.114-.078-.729-.586-1.367-1.13-1.557-1.327-2.34-2.125-2.529-2.579-.041-.096-.048-.633-.048-3.428v-3.315l.275-.108a1.28 1.28 0 0 1 .528-.111c.305-.004.409.042.508.229.07.129.073.184.091 1.451.018 1.268.021 1.323.094 1.509.101.255.382.559.631.681.164.08.23.092.49.093.259 0 .325-.012.485-.091.227-.111.476-.35.58-.557.144-.284.16-.472.142-1.756-.018-1.256-.035-1.426-.195-1.912-.142-.43-.506-1.059-.633-1.092a.204.204 0 0 1-.062-.021c0-.002.022-.078.05-.168.042-.138.049-.521.049-2.455V4.406l.156-.103c.231-.153.397-.131.727.096l.149.103.009 2.891.009 2.89.079.16c.126.252.348.475.598.598.199.097.253.109.507.109s.308-.012.507-.11c.263-.129.424-.3.606-.644.265-.501.252-.296.253-4.07V2.969l.178-.135a.838.838 0 0 1 .221-.134c.085 0 .268.14.4.306l.135.169v3.404c.001 3.253.004 3.417.066 3.699.045.203.096.336.165.43.314.426.976.582 1.475.346.246-.117.528-.419.633-.678l.077-.193.01-2.637.01-2.638.157-.062c.291-.115.547-.07.832.146l.108.083v.913c0 .771-.008.927-.052.993-.046.07-.05.331-.041 2.241l.01 2.161.078.193c.102.255.385.56.632.681.167.082.227.093.506.092.262 0 .348-.014.493-.079.221-.099.404-.304.567-.633l.124-.25.009-1.678.01-1.678.09-.035c.114-.044.318-.023.518.053l.154.059.009 2.988c.011 3.348-.004 3.147.256 3.492.241.319.72.546 1.056.5.441-.06.859-.377 1.017-.771l.081-.2.009-3.415.009-3.416-.159-.23c-.527-.765-1.676-1.386-2.568-1.389h-.241v-1.44l-.197-.273a4.208 4.208 0 0 0-1.429-1.217c-.617-.311-1.38-.434-1.966-.317-.101.02-.107.014-.227-.225-.278-.553-.541-.883-.982-1.231-.344-.272-.646-.441-.983-.552C10.453.304 9.779.271 9.45.347" fill="#A12577" fill-rule="evenodd"/></svg>
