<svg width="42" height="42" xmlns="http://www.w3.org/2000/svg"><path d="M29.96 6.192a2.274 2.274 0 0 0-.501.364c-.102.109-.957 1.428-1.899 2.929a257.705 257.705 0 0 1-1.958 3.092c-.313.461-.428.942-.388 1.624.04.69.253 1.162.794 1.76l.58.643.171.188-.115.456c-.101.405-.114 1.138-.113 6.531.001 6.75-.013 6.52.472 7.511.337.688 1.247 1.617 1.886 1.926.238.115.435.229.437.254.013.154-3.52.296-5.859.235l-2-.052.624-.322c1.148-.594 1.911-1.573 2.164-2.776.088-.419.103-2.142.103-11.97.001-6.314-.019-11.693-.044-11.952l-.044-.473h-6.118c-3.876 0-6.363.027-6.789.075a7.107 7.107 0 0 0-5.697 4.082c-.146.312-.339.804-.428 1.093l-.162.525-.022 10.15c-.016 7.434-.001 10.253.058 10.535.307 1.474 1.554 2.773 3.015 3.141.488.123 1.067.133 9.898.178 6.419.032 9.656.024 10.255-.027 1.021-.087 2.191-.295 2.756-.489 1.113-.383 2.051-1.144 2.462-2 .179-.372.318-.557.53-.703.469-.326 1.034-1.008 1.329-1.605.499-1.012.489-.856.467-7.652l-.019-6.068-.155-.38-.156-.38.331-.377c.975-1.112 1.135-1.446 1.135-2.365 0-.659-.133-1.11-.45-1.525-.104-.137-.955-1.487-1.889-3.001-1.676-2.713-1.706-2.756-2.137-3.049l-.437-.298-.886.003c-.792.003-.919.021-1.201.169M17.545 9.017c-.611.795-1.014 1.608-1.322 2.67l-.153.528-.022 10.695-.021 10.696-3.621-.021c-3.504-.019-3.631-.025-3.936-.166-.458-.213-.735-.474-.94-.884l-.18-.362v-9.776c0-9.499.004-9.79.138-10.314.324-1.269 1.237-2.405 2.382-2.965.977-.477 1.152-.496 4.782-.502l3.206-.006-.313.407m15.245 2.41c.837 1.338 1.511 2.465 1.498 2.504-.031.092-3.089 3.558-3.145 3.564-.023.003-.754-.8-1.625-1.783l-1.584-1.788.296-.473 1.59-2.548c.968-1.552 1.314-2.055 1.372-1.992.042.046.761 1.178 1.598 2.516M21.631 29.863c-.1.467-.443.869-.916 1.072-.458.197-1.184.352-1.657.354l-.368.001.001-9.152c.002-10.219-.024-9.665.498-10.724a4.19 4.19 0 0 1 1.883-1.887l.593-.296.021 10.137c.015 7.152-.001 10.243-.055 10.495m11.479-.321c-.112.414-.491.918-.863 1.147-.294.181-.422.212-.965.238-.485.024-.699.002-.95-.093a2.017 2.017 0 0 1-1.047-.979l-.164-.35v-5.022c-.001-2.763.025-5.023.056-5.023s.145.092.252.204c.107.111.389.293.625.402.378.174.513.199 1.096.199.585 0 .712-.023 1.061-.195.218-.107.517-.311.665-.455l.269-.261.018 4.961c.012 3.211-.007 5.055-.053 5.227" fill="#A12577" fill-rule="evenodd"/></svg>
