<svg xmlns="http://www.w3.org/2000/svg" viewBox="0 0 32 32" xml:space="preserve">
  <switch>
    <g>
      <path fill="#A12577" d="m27.8 14.82-.16-.88v-.32h-.08L26.2 7.38c-.4-1.68-1.84-2.88-3.6-2.88H9.08c-1.76 0-3.28 1.28-3.6 2.96l-1.12 6.16h-.08v.96l-.08.24h.08v1.92c0 1.36.8 2.56 2 3.12v5.76c0 1.6 1.28 2.88 2.88 2.88h13.28c1.92 0 3.44-1.52 3.44-3.44V19.7c1.04-.56 1.84-1.68 1.84-2.96v-1.92h.08zm-14.16 1.92v-.72h4.64v.72c0 .56-.48.96-.96.96H14.6c-.56.08-.96-.4-.96-.96zm7.04 0v-.72h4.56v.72c0 .56-.48.96-.96.96h-2.64c-.4 0-.72-.24-.88-.56-.08-.08-.08-.24-.08-.4zm-9.44-.72v.72c0 .16 0 .4.08.56-.16.24-.48.4-.8.4H7.64c-.56 0-1.04-.48-1.04-1.04v-.64h4.64zM7.88 7.86c.08-.56.56-.96 1.2-.96H22.6c.64 0 1.12.4 1.28 1.04l.96 4.48H7.08l.8-4.56zm7.04 18.24v-2.8h2v2.8h-2zm7.52 0h-3.12v-2.8c0-1.36-1.12-2.4-2.4-2.4H15c-1.36 0-2.4 1.12-2.4 2.4v2.8H9.08c-.24 0-.48-.24-.48-.48v-5.44h1.84c.8 0 1.52-.24 2.08-.72.56.48 1.28.72 2.08.72h2.64c.8 0 1.52-.32 2.16-.8.56.48 1.28.8 2.16.8h1.84v4.96c0 .48-.4.96-.96.96z"/>
    </g>
  </switch>
</svg>
