<svg viewBox="0 0 24 24" xmlns="http://www.w3.org/2000/svg">
<path fill-rule="evenodd" clip-rule="evenodd" d="M7.31432 1.14288C4.84093 1.14288 2.85718 3.12664 2.85718 5.60003V17.2572V17.8286V18.1143V18.1715V18.6857H2.88612C3.13875 20.9142 5.01496 22.6286 7.31432 22.6286H19.5429H20.4V21.7715V21.4414C20.4284 20.4733 20.3513 19.4553 19.9178 18.6558C19.6894 18.2345 19.3602 17.8701 18.9069 17.6179C18.4586 17.3686 17.94 17.2572 17.3715 17.2572H7.82201C7.83318 17.2387 7.84417 17.2201 7.85496 17.2012C8.11136 16.7525 8.22861 16.2311 8.22861 15.6572V2.00003V1.14288H7.37146H7.31432ZM5.99527 16.6945C5.67886 16.864 5.20382 16.9582 4.57146 16.9741V5.60003C4.57146 4.35228 5.38395 3.31186 6.51432 2.9734V15.6572C6.51432 15.9975 6.44585 16.2119 6.36654 16.3507C6.28924 16.4859 6.17359 16.5989 5.99527 16.6945ZM7.31432 20.9143C6.06657 20.9143 5.02616 20.1018 4.68769 18.9715H17.3715C17.7172 18.9715 17.9343 19.0386 18.0736 19.1161C18.2077 19.1907 18.3178 19.3013 18.4108 19.4728C18.579 19.7831 18.6737 20.2584 18.6887 20.9143H7.31432ZM21.2 16.1143C20.2286 16.1143 19.4857 15.3715 19.4857 14.4V5.8286C19.4857 4.17145 18.1715 2.85717 16.5143 2.85717H8.28575V1.14288H16.5715C19.1429 1.14288 21.2572 3.25717 21.2572 5.8286V16.1143H21.2ZM15.6 7.20003L17.6572 8.34288C18 8.51431 18.2857 8.97145 18.2857 9.37145C18.2857 9.77145 18.0572 10.1715 17.6572 10.4L15.6 11.5429L14.4572 13.6C14.2286 14 13.8857 14.2286 13.4286 14.2286C13.0286 14.2286 12.6286 14 12.4 13.6L11.2572 11.5429L9.20003 10.4C8.80003 10.1715 8.57146 9.77145 8.57146 9.37145C8.57146 8.97145 8.80003 8.57145 9.20003 8.34288L11.2572 7.20003L12.4 5.14288C12.6286 4.74288 12.9715 4.51431 13.4286 4.51431C13.8286 4.51431 14.2286 4.74288 14.4572 5.14288L15.6 7.20003ZM13.4286 11.8857L14.1715 10.5715C14.2286 10.3429 14.4 10.2286 14.5715 10.1143L15.8857 9.37145L14.5715 8.6286C14.4 8.51431 14.2286 8.40003 14.1143 8.17145L13.3715 6.85717L12.6286 8.17145C12.5143 8.34288 12.4 8.51431 12.1715 8.6286L10.8572 9.37145L12.2286 10.1143C12.4 10.2286 12.5715 10.3429 12.6857 10.5715L13.4286 11.8857Z" fill="#A12577"/>
</svg>
