<svg xmlns="http://www.w3.org/2000/svg" xml:space="preserve" viewBox="0 0 32 32"><path fill="#A12577" fill-rule="evenodd" d="M8.133 4.634c-1.283.373-2.249 1.334-2.581 2.568-.059.219-.35 1.742-.647 3.385-.298 1.642-.564 3.014-.592 3.048-.069.084-.062 3.187.008 3.627.16 1.001.792 1.931 1.643 2.418l.326.187.002 3.104.001 3.103.132.417c.357 1.124 1.269 1.85 2.503 1.992.576.066 13.138.064 13.768-.002.922-.098 1.582-.399 2.177-.996.386-.387.628-.771.824-1.307l.143-.391.017-3.04.018-3.04.295-.187c.691-.436 1.316-1.349 1.481-2.16.113-.55.119-2.8.01-3.333-.248-1.213-1.481-6.724-1.556-6.955-.293-.902-1.024-1.76-1.838-2.157-.84-.409-.241-.382-8.452-.378-6.836.004-7.384.011-7.682.097m15.181 2.488c.441.309.474.407 1.021 2.958l.498 2.32-8.852.013c-4.869.008-8.861.005-8.872-.006-.042-.042.791-4.655.875-4.85.096-.222.325-.44.576-.55.13-.057 1.501-.068 7.342-.059l7.182.012.23.162m-12.05 9.558c.019.596.014.634-.105.766-.212.236-.412.261-2.125.259-1.436-.001-1.615-.01-1.807-.099-.434-.2-.614-.538-.614-1.151v-.402h4.631l.02.627m7.017-.158c-.029.518-.109.724-.361.937-.282.237-.449.256-2.143.238-1.797-.019-1.769-.013-2.004-.471-.097-.191-.12-.323-.12-.704v-.469h4.655l-.027.469m6.946-.013c0 .64-.157.93-.601 1.116-.161.067-.463.081-1.678.08-1.697-.001-1.796-.021-2.091-.429-.155-.213-.164-.252-.164-.724v-.499h4.534v.456m-5.583 3.057c.728.499 1.1.59 2.585.631l1.189.032-.016 2.601-.015 2.601-.16.226a1.265 1.265 0 0 1-.374.338c-.203.106-.293.112-1.866.112h-1.654l-.026-1.707-.027-1.707-.171-.36c-.311-.658-.916-1.169-1.59-1.344-.421-.11-2.692-.117-3.092-.01a2.456 2.456 0 0 0-1.786 1.895c-.03.158-.054.956-.054 1.773v1.486h-1.694c-1.024 0-1.773-.023-1.896-.057a.493.493 0 0 1-.306-.226c-.099-.163-.104-.29-.104-2.903v-2.734l.813-.001c1.538-.003 2.177-.125 2.814-.537l.327-.211.155.13c.203.171.638.374 1.037.485.424.117 2.894.176 3.695.088.626-.069 1.219-.273 1.639-.563a1.77 1.77 0 0 1 .31-.188c.024-.001.144.066.267.15m-2.737 5.154v1.413h-1.974v-2.826h1.974v1.413"/></svg>
