<svg width="32" height="32" xmlns="http://www.w3.org/2000/svg"><path d="M8.658 1.626c-1.199.217-2.325.835-3.211 1.762C4.516 4.361 4 5.477 3.842 6.855c-.074.65-.076 17.855-.002 18.171l.163.681c.562 2.328 2.607 4.123 5.037 4.421.332.04 3.205.058 9.326.059h8.845l-.026-1.694c-.021-1.443-.041-1.766-.134-2.184-.363-1.641-1.151-2.626-2.47-3.086l-.448-.156-6.845-.015c-5.386-.011-6.839-.028-6.816-.08.158-.358.314-.768.392-1.029.09-.298.096-.913.11-10.356l.015-10.04-.975.004c-.545.003-1.142.036-1.356.075m2.394 1.052.015 1.135 5.893.027 5.893.027.427.149c1.258.442 2.097 1.309 2.54 2.624l.126.373.027 6.347c.029 6.899.007 6.399.313 6.999.164.321.579.706.947.879.357.166.914.292 1.056.238.083-.032.088-.549.07-7.222l-.019-7.187-.12-.534c-.27-1.201-.782-2.168-1.602-3.031a6.601 6.601 0 0 0-2.971-1.783l-.527-.145-6.041-.015-6.041-.015.014 1.134M8.681 12.707c-.014 8.362-.018 8.715-.114 8.934-.139.318-.506.624-.904.753a4.28 4.28 0 0 1-1.274.219h-.312l.017-7.88c.016-7.369.023-7.9.112-8.2.226-.763.713-1.504 1.266-1.929.32-.246.983-.599 1.129-.602.09-.002.094.404.08 8.705m8.753-6.61c-.317.119-.582.306-.738.521-.081.112-.493.828-.915 1.592l-.768 1.389-1.457.81c-1.531.852-1.774 1.032-1.988 1.472-.272.559-.1 1.322.396 1.751.122.106.857.546 1.633.977l1.41.784.784 1.41c.431.776.871 1.511.977 1.633.619.716 1.767.692 2.324-.048.103-.138.531-.869.951-1.626l.763-1.375 1.437-.797c1.588-.88 1.842-1.076 2.023-1.562.138-.367.136-.681-.007-1.063-.188-.503-.437-.696-2.015-1.565-1.154-.635-1.426-.807-1.522-.96a77.047 77.047 0 0 1-.805-1.432c-.38-.686-.765-1.334-.858-1.442-.372-.435-1.132-.654-1.625-.469m.997 4.114c.261.469.553.929.648 1.025.095.095.606.417 1.135.716.529.298.956.548.948.555-.009.006-.411.235-.895.508-.973.548-1.257.746-1.311.917-.02.063-.264.519-.543 1.013l-.508.898-.551-.975c-.354-.626-.623-1.038-.752-1.151-.11-.097-.627-.407-1.149-.689s-.931-.531-.908-.552c.023-.022.45-.272.948-.554.499-.283.98-.585 1.069-.672.09-.086.315-.426.502-.756.78-1.38.753-1.34.825-1.232.036.054.28.481.542.949m5.436 15.169c.34.113.678.503.816.943.125.395.221.973.223 1.344l.001.226h-7.736c-8.707 0-8.162.025-9.057-.407-.803-.387-1.5-1.159-1.791-1.983l-.079-.225 8.705.015c7.075.013 8.744.029 8.918.087" fill="#A12577" fill-rule="evenodd"/></svg>
