<svg xmlns="http://www.w3.org/2000/svg" viewBox="0 0 22 24"><path fill="#A12577" fill-rule="evenodd" d="M10.487.024C9.401.096 8.621.208 7.855.401a8.558 8.558 0 0 0-1.713.623c-.929.445-1.491.841-2.164 1.522-.507.514-.809.922-1.096 1.484-.479.936-.676 1.733-.708 2.871-.033 1.122.105 1.877.509 2.794l.122.277 6.469.001c3.557 0 6.461-.006 6.453-.015-.055-.053-1.614-.547-2.555-.81-1.324-.369-1.693-.486-2.199-.701-.744-.317-1.242-.689-1.427-1.067-.085-.174-.101-.253-.098-.475.012-.773.536-1.273 1.57-1.499.366-.08 1.412-.109 1.984-.055.825.077 1.419.198 2.27.461.642.199.859.238 1.299.238a3.39 3.39 0 0 0 3.057-1.937c.063-.134.241-.657.396-1.161l.281-.917-.188-.084c-1.455-.652-3.461-1.292-4.9-1.564-1.614-.304-3.474-.447-4.73-.363M.634 11.884a1.062 1.062 0 0 0-.583.646 1.01 1.01 0 0 0 .757 1.254c.262.056 20.122.056 20.384 0a1.01 1.01 0 0 0 .757-1.254 1.042 1.042 0 0 0-.594-.648l-.201-.075-10.165.002C.914 11.81.823 11.811.634 11.884m12.969 4.002c0 .005.033.096.074.202.087.23.096.598.021.88-.282 1.057-1.692 1.551-3.89 1.364-1.123-.096-2.033-.306-3.313-.766-.689-.247-1.06-.31-1.673-.285-1.013.042-1.803.381-2.493 1.071-.408.408-.65.777-.826 1.26-.106.29-.488 1.656-.468 1.675.054.054.829.485 1.312.729 2.02 1.023 3.938 1.574 6.526 1.878.666.078 3.232.111 3.902.05 1.879-.17 3.539-.706 4.862-1.569 1.963-1.281 3.064-3.024 3.298-5.223.042-.389.05-1.062.015-1.193l-.022-.082h-3.662c-2.015 0-3.663.004-3.663.009"/></svg>
