<svg xmlns="http://www.w3.org/2000/svg" xml:space="preserve" viewBox="0 0 32 32"><path d="m16.16 11.2-.827.192-.015.708c-.013.658-.008.706.08.68.053-.015.419-.103.815-.195.396-.091.739-.184.762-.207.023-.022.035-.339.027-.705l-.015-.665-.827.192m-6.8.637a46.99 46.99 0 0 1-.682.132l-.202.037.016 2.837c.015 2.586.025 2.859.113 3.088.122.317.451.66.773.804.348.156 1.094.187 1.632.068l.403-.09v-1.282l-.226.043c-.316.06-.53.051-.729-.032-.306-.127-.325-.226-.325-1.706V14.4h1.28v-1.387h-1.28v-1.28l-.146.005a6.127 6.127 0 0 0-.627.099m-3.949 1.247c-.654.167-1.065.474-1.315.983-.157.319-.176.405-.176.812.001.53.099.767.447 1.082.254.23.5.361 1.073.572.828.306 1.017.461.938.773-.098.391-1.05.382-2.001-.017L4 17.13v1.47l.273.117c.832.359 2.228.36 2.927.003.94-.48 1.209-1.794.52-2.541-.281-.306-.552-.463-1.189-.691a8.149 8.149 0 0 1-.666-.262c-.295-.153-.348-.432-.118-.615.133-.106.189-.114.6-.087a6.195 6.195 0 0 1 1.453.331c.086.034.093-.023.093-.763v-.8l-.44-.121c-.54-.147-1.624-.193-2.042-.087m19.506.013c-.821.22-1.432.901-1.7 1.894-.132.485-.13 1.611.002 2.049.219.724.632 1.255 1.2 1.543.773.392 2.087.402 3.034.023l.28-.112v-.634c0-.348-.015-.633-.033-.633-.019 0-.253.077-.52.171-.42.148-.56.171-1.021.173-.471.002-.566-.014-.8-.134a1.043 1.043 0 0 1-.534-.704l-.037-.146h3.255l-.02-.2c-.01-.11-.031-.404-.046-.654-.079-1.357-.722-2.334-1.733-2.634-.353-.104-.945-.105-1.327-.002m-10.973.122a1.575 1.575 0 0 0-.305.269l-.143.17-.032-.149a4.103 4.103 0 0 0-.053-.216c-.016-.049-.206-.066-.716-.066H12v5.706H13.707V14.996l.162-.137c.213-.178.546-.264.863-.222l.255.033v-1.483l-.167-.034c-.323-.064-.709-.035-.876.066m6.002-.052a2.044 2.044 0 0 0-.623.339l-.117.107-.046-.18-.047-.18-.756-.014-.757-.015v3.847c0 3.055.014 3.842.067 3.822.036-.014.42-.106.853-.206l.787-.18V18.606l.14.11c.352.277 1.19.355 1.756.163.883-.298 1.44-1.14 1.564-2.365.142-1.402-.442-2.709-1.427-3.194-.302-.149-.413-.175-.805-.185-.25-.006-.515.009-.589.032M15.2 16.08v2.853H16.907v-5.706H15.2v2.853m10.669-1.56c.235.159.368.395.407.728l.032.272H24.577l.037-.227c.114-.704.764-1.104 1.255-.773m-5.409.196c.408.248.607.726.607 1.459 0 .429-.02.532-.152.812-.16.339-.455.642-.677.698-.193.049-.562-.019-.76-.139l-.171-.104v-1.273c0-1.15.009-1.281.094-1.358.24-.217.78-.266 1.059-.095" fill-rule="evenodd"/></svg>
