<svg viewBox="0 0 32 32" xmlns="http://www.w3.org/2000/svg">
    <path d="M16.4653 4.00049C17.791 4.00051 19.0611 4.12077 20.1548 4.36377C21.2403 4.605 22.2793 4.96909 23.1431 5.52197C23.9957 6.00918 24.7943 6.62282 25.4126 7.36475L25.5366 7.51221L25.4087 7.65674L24.9312 8.19385L24.7583 8.38818L24.5913 8.18799C24.0165 7.49829 23.3238 6.97709 22.5034 6.5083C21.6928 6.0451 20.8198 5.75195 19.8091 5.45459C18.8159 5.22167 17.7018 5.10501 16.4653 5.10498C14.9396 5.10498 13.5917 5.33772 12.3628 5.74658C11.1284 6.21708 10.1533 6.79765 9.47119 7.59326C8.78149 8.39791 8.39014 9.2443 8.39014 10.314C8.3902 11.1198 8.56706 11.8184 8.90381 12.3462L9.05811 12.562L9.06396 12.5698L9.24072 12.7944C9.67207 13.3023 10.2329 13.6985 10.8989 14.0571C11.6521 14.4627 12.5282 14.7552 13.4741 14.9917C14.4211 15.2284 15.4282 15.4066 16.3872 15.5864H16.3892L17.5601 15.8208H27.0444V17.0151H22.3403C22.6325 17.1329 22.9171 17.2596 23.1919 17.397C24.0538 17.7758 24.7289 18.2957 25.2563 18.8745L25.4741 19.1274L25.48 19.1343C26.0473 19.8908 26.3608 20.7746 26.3608 21.896C26.3608 23.139 25.9858 24.2637 25.1763 25.2603C24.4302 26.2518 23.3231 26.9838 21.937 27.5288C20.6364 28.2085 18.9835 28.4478 17.062 28.4478C15.492 28.4478 14.101 28.2669 12.8306 27.9644C11.554 27.6604 10.3995 27.1734 9.3667 26.5659C8.32836 25.9552 7.41438 25.1628 6.62451 24.2515L6.50732 24.1167L6.60205 23.9858C6.5708 23.9506 6.53819 23.916 6.50732 23.8804L6.98486 23.2241C7.01484 23.2608 7.04622 23.2963 7.07666 23.3325L7.08936 23.3159L7.26025 23.0815L7.44385 23.3062C8.49395 24.5896 9.83726 25.5833 11.478 26.2866C13.0771 26.9719 14.9087 27.2678 16.98 27.2808C18.647 27.2678 20.0371 27.0312 21.314 26.5669C22.5674 26.0893 23.582 25.4328 24.2983 24.5972C25.0148 23.7613 25.3737 22.8057 25.314 21.6714C25.3139 21.3876 25.2886 21.128 25.2407 20.8862C25.1573 20.6046 25.0359 20.3505 24.8755 20.1099C24.5407 19.6078 24.0927 19.2125 23.4624 18.8687L23.4536 18.8638V18.8628C22.8772 18.517 22.1798 18.2263 21.3589 17.9917L21.354 17.9907V17.9897C20.5808 17.7519 19.7531 17.5162 18.8687 17.3394L18.8657 17.3384L17.3569 17.0151H4.95557V15.8208H12.0884C11.389 15.602 10.7442 15.3269 10.1558 14.9917L9.83838 14.8198C9.11708 14.4002 8.53607 13.8514 8.05322 13.2612L8.03955 13.2437C7.71285 12.7536 7.4675 12.2089 7.33545 11.5786C7.22651 11.1826 7.16457 10.7501 7.16455 10.269C7.16455 9.31387 7.40293 8.47774 7.8208 7.70166C8.29841 6.92554 8.89611 6.2087 9.73193 5.67139C10.5676 5.13424 11.5228 4.7169 12.5972 4.41846C13.6718 4.11995 14.8658 4.00049 16.1792 4.00049C16.231 4.00049 16.2828 4.00109 16.3345 4.00146C16.3778 4.0012 16.4217 4.00049 16.4653 4.00049ZM25.7476 20.6606C25.8134 20.9736 25.8511 21.3085 25.8511 21.6714C25.8511 21.8387 25.8419 22.0039 25.8276 22.1665C25.821 23.2397 25.4456 24.1598 24.7544 24.9663C24.4255 25.3501 24.0354 25.6931 23.5952 26.0015C23.0181 26.4343 22.3337 26.7992 21.5522 27.105C20.3287 27.7458 18.7639 27.9862 16.9136 27.9976C16.9629 27.9979 17.0124 28.0005 17.062 28.0005C18.9588 28.0005 20.5277 27.7621 21.7339 27.1304L21.7446 27.1245L21.7563 27.1196C23.1051 26.5918 24.1392 25.8963 24.8228 24.9849L24.8286 24.978C25.5707 24.0646 25.9125 23.0406 25.9126 21.896C25.9126 21.4407 25.8537 21.033 25.7476 20.6606ZM16.1792 4.65674C14.6271 4.65674 13.2542 4.8961 12.0005 5.31396C10.7468 5.79158 9.73155 6.3883 9.01514 7.22412C8.2988 8.05986 7.88045 8.95519 7.88037 10.0894C7.88037 10.5447 7.93688 10.9727 8.04541 11.3608C7.97696 11.0301 7.9429 10.6788 7.94287 10.314C7.94287 9.11509 8.38736 8.16917 9.13037 7.30225C9.88064 6.42693 10.9348 5.81309 12.2065 5.32861L12.2153 5.32471C13.4623 4.9091 14.824 4.66971 16.355 4.65869C16.2967 4.65817 16.2381 4.65674 16.1792 4.65674ZM24.6704 7.60303C24.7023 7.63684 24.7329 7.6719 24.7642 7.70654L24.9419 7.50635C24.911 7.4716 24.8809 7.43602 24.8491 7.40186L24.6704 7.60303Z" />
</svg>
