<svg xmlns="http://www.w3.org/2000/svg" viewBox="0 0 32 32" xml:space="preserve"><path d="M15.626 4.1c-.596.195-.743.388-1.915 2.499l-1.035 1.865-1.574.875c-.865.481-1.743.966-1.951 1.078-.472.254-.686.458-.829.791-.266.617-.047 1.424.493 1.822.094.07.945.555 1.889 1.077.945.523 1.708.967 1.695.988-.013.02-.107.051-.209.067a2.827 2.827 0 0 0-.548.203c-.646.307-1.181.97-1.378 1.709-.099.374-.097 1.157.005 1.591.138.585 2.171 5.004 2.779 6.042.181.309.266.528.323.83.213 1.139.982 1.986 2.125 2.338.284.088.529.098 2.344.098 1.972 0 2.037-.003 2.427-.124.647-.201 1.147-.54 1.515-1.029.285-.378 1.315-2.636 1.467-3.217.104-.398.111-.565.111-2.778 0-2.17-.008-2.387-.105-2.767-.269-1.049-1.003-1.82-1.979-2.078a2.794 2.794 0 0 1-.606-.268c-.32-.194-.783-.388-1.055-.442-.082-.017-.148-.047-.148-.069 0-.021.822-.502 1.826-1.069 1.427-.805 1.882-1.088 2.077-1.29.556-.578.568-1.432.029-2.031-.185-.206-.554-.433-2.066-1.27a89.78 89.78 0 0 1-1.903-1.07c-.034-.028-.525-.882-1.09-1.898-.565-1.015-1.093-1.921-1.173-2.012-.245-.279-.652-.467-1.055-.487-.194-.01-.412.002-.486.026m1.315 4.042c.477.862.928 1.612 1.035 1.72.112.114.827.545 1.774 1.069 1.305.721 1.569.886 1.491.931-.052.03-.538.299-1.081.598-.825.455-.992.53-1.019.456a6.708 6.708 0 0 1-.121-.463c-.14-.595-.359-.982-.776-1.376-.605-.57-1.178-.784-2.102-.784-.876 0-1.579.271-2.147.827-.492.482-.71.972-.764 1.715l-.031.435-1.247-.676c-.685-.372-1.249-.695-1.253-.718-.004-.023.725-.45 1.62-.948.895-.499 1.703-.984 1.796-1.078.093-.093.558-.872 1.033-1.729.475-.858.882-1.548.905-1.534.022.014.421.713.887 1.555m-.138 4.298c.098.066.227.204.287.307.105.178.109.251.091 1.681-.021 1.715-.003 1.841.313 2.126.117.106.231.195.253.199.022.003.123.012.224.02.186.016.376.18.376.326 0 .052.07.074.237.074.413 0 .766.105 1.005.299.304.247.613.392.838.394.236.001.503.163.64.387.102.166.106.273.106 2.576v2.402l-.479 1.194c-.483 1.204-.613 1.426-.903 1.546-.098.041-.731.055-2.016.044-1.809-.014-1.879-.019-2.025-.127-.224-.168-.319-.368-.439-.928a3.395 3.395 0 0 0-.298-.853c-.37-.681-1.41-2.824-2.056-4.24l-.658-1.44-.003-.427c-.003-.491.088-.685.38-.807.229-.096.678-.093 1.014.007.204.061.32.14.476.325.381.451.792.848 1.056 1.022.145.095.27.165.279.156.009-.009-.016-1.311-.055-2.893-.046-1.825-.054-2.925-.022-3.01.123-.326.395-.475.875-.478.251-.002.366.025.504.118" fill="#A12577" fill-rule="evenodd"/></svg>
