<svg xmlns="http://www.w3.org/2000/svg" viewBox="0 0 24 19"><path fill="#A12577" fill-rule="evenodd" d="M0 .714c0 .811.061 1.146.288 1.579.187.357.658.819 1.022 1.002.514.259.567.264 2.76.264l1.97.001v6.938c0 4.925.013 7 .044 7.15.101.483.46.935.907 1.145.228.106.235.107 1.149.107h.92l.305-.146c.53-.253.912-.737 1.031-1.306.031-.15.044-2.212.044-7.048V3.563l2.07-.012c2.375-.014 2.329-.008 2.907-.394.369-.247.623-.53.806-.897.224-.45.26-.641.285-1.49l.023-.77H0v.714m18.903 11.385c-.331.118-.331.12-1.802 3.421a364.105 364.105 0 0 0-1.405 3.173c-.023.071.007.074.57.06.513-.013.616-.026.754-.1.26-.139.375-.297.599-.819l.212-.494h3.142l.191.453c.231.548.322.674.601.828.207.115.237.12.809.133.564.013.593.01.57-.061-.013-.041-.643-1.46-1.401-3.154-.843-1.886-1.424-3.135-1.499-3.225a.723.723 0 0 0-.31-.21c-.234-.08-.813-.082-1.031-.005m1.073 2.811c.277.665.504 1.219.504 1.23 0 .011-.477.02-1.06.02-.731 0-1.06-.013-1.06-.043 0-.042.93-2.301 1.01-2.453.052-.1.01-.185.606 1.246"/></svg>
