<svg xmlns="http://www.w3.org/2000/svg" viewBox="0 0 42 42">
  <path fill="#a12577" fill-rule="evenodd" d="M26.39 8.052c-2.24.213-4.354 1.141-5.8 2.545-1.159 1.126-1.744 2.201-2.125 3.909-.138.617-.147.909-.176 5.847-.023 3.884-.052 5.197-.113 5.199-.044.001-.262.076-.483.167l-.403.165v-3.652c0-3.968-.011-4.103-.397-4.812-.694-1.274-2.481-2.107-3.894-1.813-.641.133-1.467.587-2.028 1.113-1.016.955-1.62 2.238-1.868 3.965-.103.715-.091 1.817.022 2.087.114.272.466.638.77.799.314.167.922.152 1.27-.031.629-.329.809-.702.881-1.822.106-1.634.495-2.551 1.289-3.039.239-.146.646-.166.811-.039.269.206.274.285.274 4.396v4.005l-.682-.043c-.809-.051-1.352-.184-1.976-.484-.374-.18-.636-.402-1.437-1.216-1.416-1.439-2.008-1.804-3.077-1.894-.538-.045-1.439.054-2.05.226-.649.183-1.103.729-1.186 1.427-.053.452.218.967.665 1.263.375.248.668.312 1.154.252.2-.025.596-.065.88-.088l.516-.043.429.479c1.496 1.672 2.315 2.294 3.596 2.732 1.029.351 1.84.47 2.923.428 1.216-.048 1.74-.199 3.325-.958.712-.341 1.471-.659 1.686-.705.224-.048.694-.072 1.099-.056l.708.029 1.561.78c2.221 1.111 3.208 1.409 4.392 1.328 1.246-.086 2.295-.531 4.659-1.973.809-.493 1.734-1.024 2.057-1.179l.587-.283.218.131c.814.487 1.105.608 1.476.611.983.009 1.697-1.006 1.407-2.002-.086-.297-.185-.447-.451-.684-1.039-.927-2.317-1.304-3.423-1.009-.723.192-2.028.895-3.54 1.905-.895.598-1.949 1.153-2.491 1.313-.437.129-.973.144-1.352.038l-.263-.073v-4.428c0-3.434.02-4.454.088-4.544.048-.064.2-.163.339-.22.232-.096.274-.093.54.038.806.4 1.283 1.439 1.381 3.017.058.924.129 1.19.396 1.494.812.925 2.249.604 2.579-.577.184-.656-.069-2.583-.49-3.737-.724-1.982-2.336-3.288-4.058-3.285-1.36.002-2.691.766-3.288 1.886-.407.764-.424.974-.426 5.157l-.001 3.789-.542-.198a9 9 0 0 0-.738-.239l-.196-.04.024-5.126c.027-5.638.012-5.439.47-6.346.839-1.663 2.43-2.596 4.952-2.904.811-.1.983-.171 1.342-.555.395-.424.406-1.381.022-1.86-.239-.296-.653-.541-.994-.587-.135-.018-.513-.007-.84.024"/>
</svg>
