<svg xmlns="http://www.w3.org/2000/svg" xml:space="preserve" viewBox="0 0 32 32"><path fill-rule="evenodd" d="M7.493 4.079c-.427.116-.56.179-.903.423-.539.385-1.135 1.051-1.356 1.517l-.194.408-.014 8.346c-.01 5.902.003 8.43.044 8.629.102.49.432 1.068.867 1.516.4.412.684.593 1.21.768.274.092.612.099 5.33.115l5.036.017.443.425c.862.828 1.961 1.387 3.203 1.632.576.113 1.795.126 2.361.024a7.96 7.96 0 0 0 1.972-.677c2.377-1.254 3.758-3.859 3.477-6.559-.146-1.4-.754-2.686-1.711-3.621l-.271-.265v-5.021c0-3.098-.021-5.131-.053-5.309-.146-.792-.887-1.772-1.601-2.119-.702-.341-.271-.326-9.333-.324-6.764.003-8.288.016-8.507.075m3.848 2.414c.094.089.098.202.084 2.107l-.015 2.013-1.879.001c-1.033 0-1.932.015-1.999.033l-.122.033.015-2.052c.012-1.644.03-2.069.088-2.14.066-.079.267-.088 1.901-.088 1.667 0 1.836.008 1.927.093m6.337.054c-.022.08-.05 1.028-.062 2.106l-.022 1.96h-3.781V6.566l.119-.083c.102-.071.379-.083 1.953-.083h1.834l-.041.147m6.79-.064.119.083v2.029c0 1.915-.006 2.027-.094 1.985-.051-.025-.999-.053-2.106-.062l-2.014-.017V8.588c0-1.052-.014-1.951-.032-1.997-.029-.076.157-.085 1.853-.088 1.037-.002 1.934-.024 1.993-.05.147-.063.148-.063.281.03m-12.948 8.37v2.16H7.576l-.081-.157c-.069-.132-.082-.45-.082-1.979v-1.821l.182-.181.181-.182h3.744v2.16m6.08 0v2.16h-3.787v-4.32H17.6v2.16m6.609-2.073c.282.166.296.228.316 1.427l.018 1.115-.125-.037c-1.068-.313-1.106-.319-2.098-.319-.87 0-1.005.012-1.44.136a9.072 9.072 0 0 0-.573.177c-.088.037-.094-.044-.094-1.273v-1.313h1.925c1.678 0 1.944.011 2.071.087m-.556 4.498c1.374.438 2.484 1.506 2.931 2.822.071.208.14.481.152.606.012.125.012.172-.001.104-.033-.178-.805-.768-1.375-1.051-.757-.376-1.391-.52-2.293-.522-.639-.001-.822.019-1.268.138-.962.257-1.875.815-2.375 1.45-.329.418.024 1.068.581 1.068.216 0 .283-.032.586-.283.297-.245 1.314-.81 1.459-.81.028 0-.05.1-.174.223-.485.48-.489 1.276-.009 1.823.395.449 1.154.571 1.699.273.475-.259.701-.65.7-1.211a1.4 1.4 0 0 0-.503-1.094l-.252-.222.204.031c.624.095 1.382.438 1.822.824.281.247.597.374.788.317.298-.089.347-.125.454-.336.06-.116.115-.203.123-.193a4.12 4.12 0 0 1-.029.498c-.218 2.387-2.263 4.114-4.682 3.955-1.228-.08-2.263-.569-3.108-1.468a4.186 4.186 0 0 1-.983-1.793c-.108-.451-.12-1.361-.024-1.814a4.434 4.434 0 0 1 3.247-3.388c.581-.147 1.787-.119 2.33.053M11.52 21.196v1.996l-.141.111c-.135.107-.2.11-1.898.11-1.692 0-1.764-.004-1.913-.11l-.155-.11.002-1.797c.002-1.919.01-1.977.271-2.122.099-.054.545-.071 1.981-.072l1.853-.002v1.996m4.691-1.737c-.298.786-.378 2.303-.171 3.261.06.279.126.549.147.6.035.087-.033.093-1.011.093-.835 0-1.08-.016-1.205-.081l-.158-.081V19.2h2.497l-.099.259"/></svg>
