<svg xmlns="http://www.w3.org/2000/svg" xml:space="preserve" viewBox="0 0 32 32"><path fill-rule="evenodd" d="M4.88.104C3.259.532 1.444 2.011.801 3.428.147 4.871.303 6.211 1.352 8.16l.445.827-.109.16c-.06.088-.354.404-.653.703-.396.395-.57.611-.639.793-.093.243-.093.253.004.324.227.165.307.119 1.958-1.135 1.922-1.459 3.14-2.434 5.451-4.365 1.053-.88 2.229-1.843 2.613-2.139.868-.67 1.696-1.405 1.9-1.687.187-.257.26-.563.152-.636-.041-.027-.19-.04-.332-.028-.213.018-.34.08-.72.349-.254.179-.626.426-.826.548l-.363.223-.554-.554C8.873.738 8.182.305 7.333.074 6.915-.04 5.354-.021 4.88.104m10.114 3.53c-2.437.2-4.929 1.046-7.021 2.383-1.866 1.194-3.601 3.134-4.504 5.038-.644 1.356-.962 2.706-.962 4.073 0 1.189.164 2.024.727 3.697l.351 1.042.781.001c.736.001.807.01 1.244.166.255.09.639.274.854.408.432.269.88.658.824.714-.02.02-.114-.038-.209-.128-.651-.623-2.012-1.009-3.063-.87-.571.076-1.196.272-1.515.474-.423.268-.558.706-.459 1.481l.042.326-.282.113a5.61 5.61 0 0 1-.537.178c-.184.048-.262.097-.278.175-.108.52-.332 4.243-.452 7.522L.486 31.76l.133.12c.074.066.189.12.256.12h.122l.033-1.8c.018-.99.054-1.872.079-1.959.042-.15.071-.164.468-.24.361-.069.423-.097.423-.188 0-.087-.034-.106-.187-.103a2.533 2.533 0 0 0-.386.046l-.2.043v-.26c0-.884.316-3.891.457-4.349.027-.088.201-.162.534-.228.154-.031.175-.015.36.284.35.568.898 1.024 1.323 1.102.551.1 1.015-.521 1.3-1.74l.095-.406.619-.114c1.421-.264 3.492-.506 5.632-.659 1.295-.093 6.834-.093 8.24 0a83.69 83.69 0 0 1 4.48.414c.936.118 2.993.435 3.016.465.005.007.052.144.103.305.129.402.432.946.66 1.187.154.163.226.2.393.2.347 0 .578-.139 1.035-.62l.435-.457.285.06c.158.033.314.078.349.099.074.047.246 1.663.364 3.421.044.657.08 1.239.08 1.293 0 .088-.032.095-.294.064-.272-.032-.293-.027-.293.076 0 .114.052.141.38.199.186.033.194.044.227.31.019.151.05 1.012.069 1.912l.034 1.637.147-.076a.962.962 0 0 0 .258-.217c.106-.135.112-.204.111-1.455-.002-2.432-.1-4.266-.324-6.033-.196-1.555-.257-1.715-.679-1.792-.425-.078-.437-.09-.352-.373.042-.138.076-.388.076-.554 0-.877-.553-1.428-1.712-1.706-1.398-.335-2.672-.056-3.648.799l-.214.186.192-.24c.453-.565 1.406-1.02 2.34-1.117.435-.045 1.436.008 1.556.082.04.025.057-.029.23-.71.312-1.227.355-2.972.108-4.396-.301-1.73-1.367-4.176-2.496-5.725-1.728-2.37-3.965-3.915-6.676-4.613a15.606 15.606 0 0 0-5.033-.42m7.235 7.774c.109.055.237.145.285.2.396.45.616 1.729.367 2.137-.325.534-.988-.031-1.228-1.046-.075-.321-.04-1.002.061-1.195.119-.225.224-.245.515-.096M11.11 13.374c.335.318.57 1.002.57 1.658 0 .882-.32 1.255-.838.979-.418-.223-.655-.829-.695-1.775-.021-.503-.01-.648.061-.785.157-.305.62-.344.902-.077m10.701 2.631c.404.227.632.821.57 1.488-.108 1.167-1.502 2.428-3.032 2.743-.527.108-1.668.11-2.322.004-1.059-.172-2.194-.633-2.703-1.099-.44-.402-.59-.685-.59-1.114-.001-.294.023-.381.153-.573.192-.283.602-.487 1.127-.561.56-.079 2.201.112 3.199.372.992.258 1.017.252 1.764-.466.909-.873 1.352-1.065 1.834-.794M11.596 26.236c-.012.012-.023.075-.023.14 0 .154.242.203.75.153.356-.035.37-.042.37-.177v-.142l-.537.002c-.295.001-.547.011-.56.024m2.111.109v.162h1.127l-.017-.147-.017-.147-.547-.015-.546-.015v.162m2.08.002v.16h1.12v-.32h-1.12v.16m2.222-.125c-.02.02-.036.092-.036.16 0 .122.012.125.507.125h.507v-.32h-.471c-.26 0-.488.016-.507.035m2.098.221c0 .146.021.17.18.199.099.019.345.038.546.043.359.008.367.005.383-.132.02-.167-.032-.185-.669-.238l-.44-.037v.165m-10.16-.017c-.03.01-.12.033-.2.05-.122.027-.147.061-.147.197 0 .118.021.157.073.137.041-.016.269-.045.507-.066.433-.038.433-.038.433-.191 0-.151-.003-.153-.306-.149a2.562 2.562 0 0 0-.36.022m12.24.105a.87.87 0 0 0 .058.153c.051.111.107.133.414.162.603.057.648.05.648-.091 0-.117-.032-.13-.44-.187-.466-.065-.68-.077-.68-.037m-14.427.163a4.57 4.57 0 0 1-.387.076c-.036.002-.066.054-.066.115 0 .108.015.11.52.074.286-.021.538-.049.56-.062.022-.013.04-.082.04-.153 0-.113-.024-.13-.174-.126a3.371 3.371 0 0 0-.493.076m16.56.121c0 .092.057.114.44.168.242.035.482.075.533.09.072.021.094-.004.094-.106 0-.159-.044-.174-.627-.222-.416-.034-.44-.03-.44.07m-18.453.072c-.132.028-.294.061-.36.076-.093.02-.12.063-.12.188 0 .13.019.157.093.135.051-.015.249-.053.44-.085.469-.079.47-.08.441-.237-.029-.152-.086-.16-.494-.077m20.533.261c0 .171.023.182.533.263.473.075.48.074.48-.076 0-.114-.038-.143-.28-.209a4.136 4.136 0 0 0-.506-.103c-.22-.025-.227-.021-.227.125m-22.8.15c-.345.083-.375.101-.391.241-.016.14-.006.149.134.121.083-.017.312-.058.51-.091.348-.058.36-.065.36-.214 0-.185-.057-.19-.613-.057m24.866.145c-.015.079 0 .145.034.154.956.241 1.007.243.984.043-.016-.133-.046-.152-.337-.21-.703-.139-.651-.14-.681.013"/></svg>
