<svg xmlns="http://www.w3.org/2000/svg" xml:space="preserve" viewBox="0 0 32 32"><path fill-rule="evenodd" d="M15.147 4.033c-2.417.222-4.481 1.009-6.4 2.441-.651.485-1.788 1.622-2.273 2.273-1.274 1.707-2.03 3.51-2.349 5.6-.129.85-.129 2.474 0 3.306.211 1.356.559 2.468 1.134 3.625 1.785 3.593 5.079 5.984 9.088 6.597.839.128 2.467.128 3.306 0 2.533-.387 4.764-1.468 6.581-3.187 1.962-1.857 3.215-4.278 3.64-7.035.129-.838.129-2.463.001-3.306-.32-2.092-1.075-3.893-2.349-5.6-.485-.651-1.622-1.788-2.273-2.273-1.691-1.262-3.524-2.035-5.546-2.339-.555-.083-2.097-.145-2.56-.102m2.695 2.066c2.798.598 5.14 2.255 6.621 4.685 1.279 2.101 1.742 4.795 1.243 7.245-.14.687-.601 2.022-.698 2.024-.018 0-.096-.121-.173-.27-.34-.656-.958-1.245-1.675-1.599-.183-.09-.333-.176-.333-.191 0-.015.068-.127.152-.25.413-.601.594-1.172.594-1.865 0-1.43-.956-2.692-2.373-3.131-.459-.142-1.229-.155-1.707-.029-1.465.385-2.569 1.855-2.467 3.282l.026.36-.273-.124c-.352-.161-.982-.257-1.404-.214a5.53 5.53 0 0 0-.8.172l-.548.162c-.068.019-.078-.055-.063-.5.022-.621-.073-1.093-.317-1.576a3.294 3.294 0 0 0-1.607-1.557 2.914 2.914 0 0 0-1.365-.296c-.873 0-1.623.323-2.277.981-.49.494-.723.892-.879 1.504-.117.456-.14 1.223-.048 1.62.081.353.347.877.605 1.194l.228.28-.317.184c-.431.249-.933.743-1.239 1.215l-.254.393-.098-.221c-.413-.922-.686-2.354-.688-3.605-.005-3.423 1.689-6.545 4.585-8.45a10.345 10.345 0 0 1 2.96-1.308c.975-.244 1.442-.291 2.72-.271 1.07.017 1.309.037 1.869.156m-6.615 8.426c.899.419 1.042 1.692.252 2.24a1.322 1.322 0 0 1-2.046-.804c-.241-1.044.817-1.891 1.794-1.436m9.588.16c.806.338 1.05 1.481.449 2.106-.274.286-.546.402-.944.402-.399 0-.674-.118-.941-.402-.811-.862-.254-2.178.922-2.178.188 0 .42.033.514.072m-4.693 3.307c.583.245.906.93.732 1.554-.081.289-.414.684-.698.83-.245.124-.816.142-1.078.032a1.379 1.379 0 0 1-.639-.588c-.09-.17-.117-.312-.117-.62s.027-.45.117-.62c.128-.242.381-.478.628-.586.21-.092.838-.093 1.055-.002m-4.4 1.463c.155.06.398.184.54.275.207.133.264.202.288.351.047.288.337.831.612 1.146.137.157.224.293.194.303-.03.01-.208.108-.394.218-.417.244-1.03.836-1.311 1.265-.257.394-.544 1.087-.59 1.427-.019.139-.051.253-.072.253-.071 0-.862-.575-1.386-1.008a9.497 9.497 0 0 1-1.397-1.407c-.205-.26-.215-.288-.182-.534.143-1.083.999-2.057 2.07-2.358.397-.112 1.256-.075 1.628.069m9.988.151c.481.143.805.338 1.176.708.509.51.794 1.138.794 1.751v.286l-.495.494c-.808.809-1.891 1.619-2.746 2.055-.257.131-.24.148-.335-.34-.194-1.004-.87-2.093-1.657-2.671-.301-.222-.301-.201-.017-.813.32-.688 1.014-1.283 1.725-1.479.359-.099 1.208-.094 1.555.009m-5.418 3.284c.719.183 1.437.787 1.808 1.522.153.303.298.846.299 1.119.001.153-.02.177-.199.225-.9.241-2.585.307-3.637.144-.836-.13-1.712-.352-1.747-.442-.016-.043.009-.236.057-.43.395-1.601 1.879-2.529 3.419-2.138"/></svg>
