<svg xmlns="http://www.w3.org/2000/svg" viewBox="0 0 14 22">
    <path fill-rule="evenodd" d="M5.73.761a6.875 6.875 0 0 0-4.55 3.077 7.651 7.651 0 0 0-.772 1.719c-.18.627-.244 1.11-.26 1.98l-.013.665.666 2.893c.365 1.591.672 2.965.681 3.053.022.226.091.459.211.712a2.292 2.292 0 0 0 1.709 1.299c.179.031.639.034 3.494.029l3.289-.006.233-.064c.459-.125.919-.4 1.228-.735.346-.375.596-.917.64-1.385.009-.095.272-1.43.585-2.966l.569-2.793v-.696c0-1.161-.11-1.773-.489-2.724-.398-.995-1.153-2-2.031-2.7A6.724 6.724 0 0 0 8.019.782C7.729.725 7.692.723 6.817.725c-.673.002-.949.011-1.087.036m1.709 1.654a4.95 4.95 0 0 1 2.839 1.423 4.916 4.916 0 0 1 1.328 2.347c.097.392.131.737.131 1.327v.533l-.563 2.75c-.309 1.512-.571 2.836-.581 2.942a.947.947 0 0 1-.072.298.945.945 0 0 1-.394.383l-.129.06-3.136.007c-3.452.006-3.281.013-3.461-.136-.14-.116-.204-.247-.228-.47-.011-.107-.316-1.475-.677-3.041l-.657-2.846.014-.512c.022-.744.087-1.144.275-1.692a5.132 5.132 0 0 1 2.574-2.907 5.265 5.265 0 0 1 1.54-.474c.265-.034.932-.03 1.197.008m-.803 1.904c-.214.026-.43.135-.588.294-.113.115-.192.246-.526.87l-.394.735-.715.384c-.628.337-.732.401-.855.525-.429.432-.453 1.045-.058 1.488.098.109.197.17.87.532l.759.408.381.708c.452.839.522.929.831 1.083l.201.099h.281c.272 0 .288-.003.44-.077.289-.142.357-.231.806-1.066l.401-.747.717-.385c.628-.337.736-.403.86-.527.284-.283.395-.661.3-1.025a.939.939 0 0 0-.267-.477c-.109-.111-.238-.189-.868-.526l-.74-.397-.38-.709c-.324-.606-.401-.732-.52-.855a1.089 1.089 0 0 0-.936-.335m.363 2.772c.148.296.3.438.683.639.151.08.274.15.274.157.001.006-.131.079-.291.16-.333.17-.482.307-.633.581l-.161.293-.075.137-.156-.306c-.204-.401-.299-.497-.699-.701a2.305 2.305 0 0 1-.294-.165c0-.008.132-.081.293-.163.368-.186.481-.302.703-.719l.152-.288.045.073c.024.041.096.176.159.302m-4.045 9.831c.086.789.6 1.367 1.353 1.523.259.053 4.708.052 4.975-.001.35-.07.735-.299.951-.565.214-.262.36-.65.36-.954v-.148H2.938l.016.145m1.371 2.346c.069.737.559 1.319 1.263 1.498.172.044.258.047 1.4.047 1.139 0 1.23-.003 1.402-.046a1.722 1.722 0 0 0 1.284-1.499l.016-.158H4.31l.015.158"/>
</svg>
