<svg width="32" height="32" xmlns="http://www.w3.org/2000/svg"><path d="M14.667 4.075c-2.657.528-4.812 2.205-5.911 4.6-.419.913-.62 1.687-.705 2.712-.11 1.314-.124 1.217.7 4.766.413 1.778.798 3.498.855 3.82.139.786.328 1.169.822 1.666.414.415.84.659 1.331.761.183.038 1.638.052 4.404.041l4.13-.015.32-.121a3.097 3.097 0 0 0 1.971-2.465c.041-.279.377-1.972.746-3.762.725-3.523.723-3.505.619-4.745-.195-2.347-1.331-4.4-3.21-5.801-.811-.605-1.762-1.056-2.846-1.349-.49-.133-.627-.145-1.706-.16-.805-.012-1.282.005-1.52.052m2.266 1.982a6.033 6.033 0 0 1 4.054 2.657c.599.918.851 1.711.944 2.966l.062.827-.703 3.417c-.387 1.879-.703 3.482-.703 3.561 0 .175-.13.5-.256.639a1.25 1.25 0 0 1-.289.202c-.189.096-.375.101-4.069.101h-3.87l-.215-.2c-.172-.16-.221-.249-.244-.44-.016-.132-.389-1.788-.828-3.68l-.798-3.44.033-.719c.062-1.345.338-2.229 1.017-3.258.418-.632 1.212-1.403 1.855-1.802 1.236-.766 2.671-1.064 4.01-.831m-1.35 2.31c-.156.055-.36.173-.453.264-.094.091-.384.563-.646 1.048l-.477.883-.857.457c-.471.252-.935.532-1.031.624a1.301 1.301 0 0 0-.244 1.536c.168.31.186.322 1.271.908l.853.461.461.846c.503.92.767 1.243 1.1 1.342.496.149 1.059.032 1.346-.279.072-.079.348-.541.613-1.027l.481-.883.827-.443c.454-.243.914-.516 1.021-.605.446-.372.559-1.067.259-1.59-.174-.302-.286-.378-1.497-1.019l-.616-.326-.451-.835c-.247-.46-.539-.928-.648-1.041a1.222 1.222 0 0 0-1.312-.321m.655 3.209c.207.394.409.582.895.83.14.071.254.14.254.154 0 .014-.162.107-.36.208-.422.213-.573.365-.818.819-.099.183-.195.333-.213.333-.017 0-.102-.138-.187-.306-.221-.438-.416-.636-.831-.845-.201-.101-.365-.194-.365-.207 0-.012.169-.111.375-.22.395-.207.574-.394.825-.862.083-.154.168-.28.189-.28.021 0 .127.169.236.376m-4.852 11.822c.122.818.644 1.459 1.375 1.689.255.08.601.088 3.323.075l3.038-.015.356-.176c.609-.299 1.006-.866 1.046-1.491l.022-.333h-9.198l.038.251m1.653 2.827c.13.866.735 1.523 1.58 1.718.129.03.847.055 1.596.056 1.433.001 1.733-.035 2.18-.263.28-.143.677-.55.828-.849.106-.211.244-.698.244-.863 0-.031-1.225-.051-3.233-.051h-3.233l.038.252" fill-rule="evenodd" fill="#000"/></svg>
