<svg width="32" height="32" xmlns="http://www.w3.org/2000/svg"><path d="M15.612 3.149c-.094.013-.4.052-.68.086-3.782.463-7.359 2.731-9.619 6.096-1.105 1.646-1.881 3.776-2.144 5.884-.1.804-.086 2.624.028 3.477a13.63 13.63 0 0 0 3.913 7.915 13.774 13.774 0 0 0 7.847 3.914c.895.126 2.875.125 3.686-.001 3.994-.622 7.298-2.712 9.53-6.029 1.831-2.719 2.638-6.261 2.172-9.524-.357-2.497-1.464-5.005-3.041-6.892-2.194-2.625-5.153-4.292-8.547-4.816-.563-.087-2.756-.164-3.145-.11m7.099 8.302c.287.1.352.262.352.87 0 .906-.485 4.337-1.136 8.034-.48 2.728-.612 3.121-1.122 3.346-.234.104-.297.109-.573.052-.381-.08-.589-.206-2.58-1.558-2.767-1.88-2.919-2.004-2.919-2.385 0-.311.238-.601 1.428-1.739 1.991-1.904 3.166-3.074 3.251-3.235.071-.133.07-.163-.008-.241-.049-.048-.111-.088-.138-.088-.146 0-.516.229-2.364 1.462-2.412 1.609-3.891 2.569-4.222 2.739-.384.198-.959.207-1.705.027-1.063-.257-2.333-.699-2.528-.881-.329-.308-.18-.622.441-.934 1.218-.613 9.858-4.306 11.767-5.031 1.263-.479 1.682-.569 2.056-.438" fill="#fff" fill-rule="evenodd"/></svg>
