<svg xmlns="http://www.w3.org/2000/svg" viewBox="0 0 42 42">
  <path fill="#a12577" fill-rule="evenodd" d="M13.79 7.108c-1.507.327-2.855 1.659-3.256 3.217-.061.238-.137 1.012-.176 1.785l-.067 1.365-1.888 1.855c-1.727 1.697-1.907 1.897-2.118 2.345-.222.472-.23.522-.23 1.365 0 .825.012.899.205 1.295.266.547.996 1.28 1.518 1.525.556.262.902.326 1.76.328l.752.002v9.52h-.797c-.737 0-.825.015-1.171.196-.418.218-.737.647-.809 1.086-.111.689.458 1.499 1.159 1.65.517.111 23.649.111 24.166 0 .289-.062.435-.148.696-.41.593-.592.624-1.373.08-1.977-.411-.455-.677-.542-1.676-.543l-.858-.002v-9.52l.823-.001c.462 0 .975-.042 1.172-.094.94-.252 1.696-.888 2.127-1.79.244-.511.253-.558.251-1.3-.002-.867-.139-1.336-.547-1.871-.171-.225-2.623-2.355-4.117-3.577-.18-.148-.188-.188-.3-1.517-.133-1.584-.227-2.005-.612-2.746-.493-.948-1.43-1.735-2.507-2.103l-.455-.156-6.335-.013c-5.226-.011-6.415.004-6.79.086m12.783 3.036c.159.072.377.247.486.39.195.255.2.29.368 2.264.12 1.413.197 2.025.263 2.075.051.04 1.149.954 2.441 2.031 1.818 1.516 2.349 1.995 2.349 2.117v.159H20.755c-11.122 0-11.725-.006-11.719-.122.003-.068.806-.879 1.784-1.803.979-.924 1.937-1.839 2.13-2.032l.35-.353.062-1.926c.054-1.72.076-1.956.202-2.203.157-.306.299-.449.611-.614.187-.099.866-.112 6.16-.113 5.663-.001 5.964.005 6.238.13M16.1 26.81v4.62h-2.8v-9.24h2.8zm6.09.14v4.76h-3.15v-9.52h3.15zm5.88-.14v4.62h-2.73v-9.24h2.73z"/>
</svg>
