<svg xmlns="http://www.w3.org/2000/svg" viewBox="0 0 32 32" xml:space="preserve"><path d="M18.043 4.129c-.324.152-.565.452-.684.849-.104.353-.1.455.033.811.135.361.361.631.656.784.187.097.336.117 1.032.137l.813.023v18.6h-.828c-.951 0-1.071.033-1.377.371-.376.417-.477.861-.307 1.349.144.414.335.649.66.811l.273.136h2.776c1.808 0 2.848-.021 2.982-.058.303-.084.65-.429.779-.776.202-.537.119-.983-.254-1.372-.341-.357-.51-.405-1.437-.406l-.813-.001V6.731l.813-.021c.933-.024 1.085-.075 1.462-.483.271-.294.356-.545.328-.966-.026-.377-.138-.64-.376-.884-.359-.367-.192-.349-3.374-.364l-2.88-.014-.277.13M9.84 5.819c-1.139.162-2.346.78-3.191 1.634a5.782 5.782 0 0 0-1.518 2.612l-.144.522v11.52l.147.533c.592 2.15 2.282 3.752 4.416 4.187.485.099.737.106 3.721.106h3.2l-.05-.182c-.138-.499.409-1.536 1.007-1.908l.199-.123-3.734-.031c-4.133-.034-3.982-.022-4.716-.396a3.365 3.365 0 0 1-1.47-1.471c-.363-.71-.347-.421-.347-6.422 0-5.967-.013-5.71.329-6.399.414-.836 1.114-1.432 2.044-1.742l.374-.124 4.493-.017 4.493-.016v-.568l-.52-.028c-.286-.016-.628-.067-.76-.115-.554-.198-1.11-.804-1.239-1.351l-.066-.28-3.174.007c-1.746.003-3.318.027-3.494.052m14.788 1.409c-.293.204-.642.292-1.164.292h-.371v1.161l.294.221c.526.398.974 1.087 1.183 1.823.091.32.097.68.097 5.702 0 5.024-.006 5.381-.097 5.702-.201.707-.669 1.423-1.206 1.843-.238.187-.271.236-.271.409v.196l.547.018c.471.016.589.039.856.17.17.084.427.269.57.412l.26.261.277-.331c.631-.756 1.022-1.49 1.267-2.376l.143-.518V10.587l-.141-.513c-.278-1.005-.729-1.791-1.467-2.556-.253-.263-.475-.476-.493-.473a2.502 2.502 0 0 0-.284.183M9.813 13.12v.907H12.96v8.16h2.347v-8.16h3.253v-1.814H9.813v.907" fill="#A12577" fill-rule="evenodd"/></svg>