<svg xmlns="http://www.w3.org/2000/svg" viewBox="0 0 32 32" xml:space="preserve">
  <switch>
    <g fill="#A12577">
      <path d="M9.8 14.01h3.18v8.19h2.3v-8.19h3.26v-1.83H9.8v1.83z"/>
		<path d="M17.75 24.66h-7.07c-1.83 0-3.34-1.51-3.34-3.34v-9.85c0-1.83 1.51-3.34 3.34-3.34h8.42V7.5h-.64c-.87 0-1.67-.64-1.91-1.51v-.24h-5.88c-3.1 0-5.72 2.54-5.72 5.72v9.77c0 3.18 2.62 5.72 5.72 5.72h5.8c0-.16-.08-.24-.08-.4.09-.79.64-1.58 1.36-1.9zm9.3-13.19c0-1.83-.87-3.42-2.15-4.45-.08.08-.16.16-.32.24-.24.16-.56.24-.87.24h-.64v1.19c.95.56 1.59 1.67 1.59 2.86v9.77c0 1.19-.64 2.23-1.59 2.86v.4h.64c.64 0 1.19.32 1.59.87 1.03-1.03 1.75-2.46 1.75-4.05v-9.93z"/>
		<path d="M24.74 25.93c-.24-.32-.56-.56-.95-.56h-1.43V6.7h1.43c.16 0 .32-.08.48-.16.4-.24.72-.64.72-1.19 0-.72-.56-1.35-1.19-1.35h-5.32c-.64 0-1.19.64-1.19 1.35 0 .16 0 .24.08.4.16.56.64.95 1.11.95h1.43v18.6h-1.43c-.64 0-1.19.64-1.19 1.35 0 .16 0 .24.08.4.14.55.62.95 1.09.95h5.32c.64 0 1.19-.64 1.19-1.35.01-.32-.07-.56-.23-.72z"/>
    </g>
  </switch>
</svg>
