<svg xmlns="http://www.w3.org/2000/svg" viewBox="0 0 32 32" xml:space="preserve"><path d="M6.955 4.756c-1.321.138-2.418 1.076-2.83 2.42-.153.499-.13 1.376.049 1.882.195.55.437.926.843 1.311.365.344.668.539 1.09.701.207.079.243.112.218.205-.017.062-.031 2.228-.031 4.815l-.001 4.703-.44.23a3.57 3.57 0 0 0-1.726 2.097c-.153.51-.13 1.376.05 1.924.524 1.593 2.16 2.563 3.773 2.239.718-.144 1.169-.391 1.722-.942l.472-.47.301.09c.273.081.798.091 5.475.104 3.911.011 5.284-.002 5.627-.052l.453-.066.4.404c.623.629 1.503 1.007 2.347 1.007.826 0 1.723-.378 2.324-.98 1.043-1.044 1.267-2.493.597-3.863-.22-.451-.897-1.148-1.332-1.37l-.304-.156-.017-4.855c-.009-2.67-.035-4.893-.058-4.94-.033-.067.023-.118.259-.238.726-.367 1.422-1.167 1.674-1.924.599-1.798-.53-3.769-2.423-4.229-.369-.089-1.163-.077-1.545.024a3.337 3.337 0 0 0-2.131 1.749l-.176.362-5.576.011-5.576.011-.137-.3c-.293-.638-.887-1.27-1.471-1.566-.324-.164-.924-.335-1.255-.359a4.61 4.61 0 0 0-.645.021m1 2.239c.125.069.3.229.389.356.149.213.163.267.163.671 0 .392-.016.463-.15.666-.197.297-.584.484-1.004.485-.932.001-1.482-.848-1.092-1.685.281-.603 1.077-.835 1.694-.493m17.126-.112c.459.128.782.594.784 1.132.003.737-.493 1.236-1.227 1.234-.433-.002-.748-.16-.981-.492-.137-.195-.165-.291-.182-.619-.014-.292.004-.434.072-.57a1.304 1.304 0 0 1 1.534-.685m-3.722 2.242c.21.053.248.088.375.347.306.627.954 1.235 1.645 1.545.329.147.353.17.413.396.046.172.071 1.269.086 3.88l.022 3.64h-7.369l.015 1.054.014 1.053 3.299.014 3.299.013-.322.215a3.26 3.26 0 0 0-1.383 2.078c-.051.249-.116.471-.146.493-.092.067-10.063.049-10.384-.019a2.26 2.26 0 0 1-.302-.077 3.38 3.38 0 0 1-.089-.422c-.175-1.008-.957-2.003-1.87-2.382l-.293-.121.017-4.616c.019-5.28-.008-4.979.455-5.236a3.592 3.592 0 0 0 1.431-1.498c.218-.429-.086-.407 5.744-.412 3.556-.002 5.181.015 5.343.055m-11.172 3.728v.8h2.88v7.307h2.08v-7.307h2.933v-1.6H10.187v.8M7.986 22.911c.338.198.512.492.538.911.045.71-.365 1.242-1.029 1.333-.494.067-1.054-.242-1.261-.699-.215-.473-.049-1.202.335-1.476a1.356 1.356 0 0 1 1.417-.069m17.369-.016c.117.065.287.222.376.35.151.215.162.264.162.697 0 .43-.012.485-.156.693-.531.766-1.733.665-2.116-.179-.215-.473-.049-1.202.335-1.476.392-.279.983-.315 1.399-.085" fill="#A12577" fill-rule="evenodd"/></svg>