<svg width="32" height="32" xmlns="http://www.w3.org/2000/svg"><path d="M6.182 4.097a2.472 2.472 0 0 0-1.68 1.329l-.185.374-.015 2.559c-.018 2.843-.002 3.022.339 3.882.511 1.288 1.626 2.43 2.856 2.927.917.37.829.361 3.49.383 2.143.019 2.473.01 2.748-.07.946-.275 1.658-.985 1.894-1.892.084-.322.095-.728.098-3.7.002-2.237-.017-3.435-.058-3.63-.104-.5-.36-.96-.756-1.361-.45-.456-.745-.631-1.3-.773-.408-.104-.602-.11-3.763-.106-2.55.004-3.411.022-3.668.078m12.876-.025c-1.051.215-1.933 1.043-2.199 2.062-.124.476-.126 6.938-.002 7.413.25.96 1.063 1.754 2.008 1.961.22.048.954.06 2.695.043 2.632-.026 2.571-.019 3.497-.409 1.406-.592 2.482-1.824 2.979-3.412l.151-.482V8.525l.001-2.722-.179-.366c-.209-.427-.648-.891-1.051-1.11-.549-.298-.722-.311-4.353-.305-1.83.003-3.427.025-3.547.05m-5.885 2.167c.104.044.24.161.301.261.108.177.111.27.111 3.335 0 2.214-.018 3.188-.061 3.272-.162.316-.12.31-2.343.312-1.286.001-2.154-.022-2.337-.06-.962-.2-1.89-1.023-2.258-2.002-.12-.32-.124-.396-.14-2.667-.016-2.336-.016-2.338.103-2.434.109-.089.35-.096 3.276-.096 2.625 0 3.191.013 3.348.079m12.775.007.122.085v2.213c0 2.463-.011 2.559-.366 3.234-.342.652-.996 1.226-1.699 1.491-.316.119-.404.124-2.47.14-1.179.009-2.201.003-2.271-.015-.07-.018-.176-.112-.236-.209-.104-.171-.108-.293-.108-3.34 0-3.074.004-3.168.111-3.344.209-.342.149-.336 3.631-.339 2.776-.002 3.178.008 3.286.084M8.531 16.53c-1.913.415-3.379 1.699-3.984 3.49-.248.732-.263.967-.246 3.657l.016 2.53.178.375c.333.704 1.059 1.242 1.84 1.363.213.033 1.688.048 3.759.038 3.381-.017 3.411-.018 3.738-.141.885-.333 1.618-1.139 1.812-1.994.073-.319.086-.886.085-3.694-.001-3.616-.009-3.729-.317-4.3-.2-.372-.745-.921-1.084-1.093-.614-.31-.681-.316-3.159-.312-1.731.004-2.372.023-2.638.081m10.169.017c-.497.163-.777.335-1.127.689-.376.382-.591.749-.714 1.218-.125.483-.125 6.939 0 7.422.127.486.34.84.768 1.272.433.437.889.689 1.427.787.211.039 1.483.06 3.602.059 3.572-.001 3.757-.014 4.302-.311.403-.219.842-.683 1.051-1.11l.179-.366v-2.695c0-2.649-.003-2.702-.127-3.132-.546-1.884-1.823-3.191-3.668-3.753l-.495-.151-2.448-.014c-2.236-.013-2.474-.006-2.75.085m-5.355 2.14c.064.053.145.15.179.216.043.084.061 1.058.061 3.272 0 3.065-.003 3.158-.111 3.335-.211.344-.165.34-3.649.34-2.926 0-3.167-.007-3.276-.096-.119-.096-.119-.097-.102-2.434.019-2.672.011-2.616.511-3.355.302-.446.768-.859 1.21-1.074.572-.278.729-.294 2.969-.296 1.901-.002 2.101.006 2.208.092m10.663.057c.849.319 1.547 1.019 1.902 1.908.131.328.132.349.149 2.668l.017 2.337-.119.097c-.11.089-.351.096-3.277.096-3.484 0-3.438.004-3.649-.34-.108-.177-.111-.27-.111-3.335 0-2.214.018-3.188.061-3.272a.845.845 0 0 1 .179-.217c.109-.09.285-.096 2.317-.081 2.127.015 2.211.02 2.531.139" fill-rule="evenodd" fill="#000"/></svg>
