<svg xmlns="http://www.w3.org/2000/svg" viewBox="0 0 42 42"><path fill="#A22678" fill-rule="evenodd" d="M12.044 5.817c-2.379.281-4.513 1.817-5.565 4.007-.67 1.394-.761 2.1-.721 5.592.034 2.92.063 3.163.517 4.314.652 1.655 2.205 3.245 3.829 3.921 1.231.512 2.789.705 3.791.469 1.6-.377 2.915-1.681 3.286-3.26.091-.386.107-1.221.108-5.477l.001-5.023h6.149c6.055 0 6.151.002 6.276.14.129.143 2.905 11.117 2.905 11.487 0 .389-.034.394-2.66.434-2.675.041-3.152.101-4.233.534-.965.386-1.615.819-2.425 1.615-1.423 1.399-2.067 2.788-2.239 4.83-.105 1.256-.117 1.307-.358 1.582-.279.317-1.404.889-2.33 1.185l-.7.224-.035-3.158c-.035-3.123-.037-3.162-.196-3.483-.483-.97-1.434-1.48-2.455-1.315-.793.128-1.484.668-1.775 1.388l-.159.392v4.375c0 4.16.007 4.393.136 4.742.294.791.978 1.435 1.819 1.711.422.138.629.161 1.405.154 1.596-.013 3.389-.512 5.32-1.479 1.573-.789 2.203-1.292 2.897-2.316.63-.929.899-1.8.985-3.198.069-1.103.182-1.498.59-2.053.138-.189.417-.457.62-.595.713-.489.711-.488 3.658-.536 2.613-.042 2.67-.046 3.197-.222.861-.288 1.428-.644 2.09-1.311 1.01-1.018 1.468-2.127 1.468-3.551 0-.705-.033-.851-1.468-6.597-.808-3.232-1.548-6.087-1.645-6.345-.529-1.407-1.828-2.575-3.397-3.055l-.525-.161-8.82-.011c-4.851-.006-9.054.017-9.341.05m.626 9.163v4.62h-.192c-.313 0-1.043-.389-1.379-.734a3.425 3.425 0 0 1-.508-.721l-.196-.4v-5.46l.184-.393c.335-.715.948-1.243 1.666-1.436.176-.048.344-.089.373-.091.028-.003.052 2.074.052 4.615"/></svg>
