<svg width="32" height="32" xmlns="http://www.w3.org/2000/svg"><path d="M9.213 4.078c-.152.029-.503.162-.781.297-1.068.516-1.745 1.478-1.892 2.685-.034.28-.048 3.066-.038 7.432l.016 6.985.149.441c.211.617.506 1.086.931 1.478.328.303.743.535 4.152 2.327 2.083 1.094 3.948 2.043 4.145 2.107.499.165 1.347.207 1.801.091.297-.077 5.283-2.601 7.701-3.9.99-.532 1.521-1.131 1.865-2.104l.156-.44V6.902l-.128-.412c-.342-1.103-1.101-1.887-2.25-2.326l-.317-.121-7.618-.009c-4.585-.005-7.727.013-7.892.044m15.478 2.163c.147.074.345.229.44.343.353.425.338.067.321 7.692l-.014 6.927-.15.283c-.083.157-.225.337-.316.402-.33.235-7.501 3.911-7.729 3.962a1.025 1.025 0 0 1-.53-.026c-.274-.073-7.366-3.701-7.701-3.94-.083-.059-.22-.248-.305-.422l-.154-.314V7.122l.15-.285a1.53 1.53 0 0 1 .332-.424c.424-.323-.095-.304 7.976-.306l7.413-.002.267.136m-8.145 2.48c-.501.155-.69.402-1.529 2.004a44.09 44.09 0 0 1-.847 1.574c-.047.065-.744.473-1.549.908-.805.435-1.55.861-1.654.947-.627.517-.657 1.618-.06 2.186.106.102.879.557 1.715 1.013l1.522.828.825 1.566c.453.861.889 1.634.968 1.717.547.576 1.619.564 2.135-.024.093-.105.532-.882.975-1.727l.808-1.536 1.455-.787c.8-.434 1.549-.856 1.664-.94.45-.326.662-1.022.49-1.613-.157-.542-.366-.706-2.041-1.61-.817-.44-1.514-.831-1.55-.868-.035-.036-.415-.735-.844-1.552-.883-1.682-1.072-1.929-1.595-2.085-.354-.105-.548-.105-.888-.001m1.859 5.012c.087.098.671.478 1.299.845.627.367 1.141.684 1.14.704 0 .019-.507.315-1.125.657-.857.474-1.175.68-1.333.863-.115.132-.467.724-.784 1.316-.316.593-.588 1.077-.605 1.076-.016 0-.302-.509-.634-1.131-.333-.622-.684-1.213-.78-1.313-.097-.1-.683-.463-1.305-.807-.621-.344-1.13-.641-1.131-.66-.001-.019.499-.328 1.112-.687.612-.358 1.193-.726 1.291-.817.098-.093.424-.629.736-1.211a54.99 54.99 0 0 1 .639-1.175c.078-.126.1-.094.702 1.016.341.631.692 1.227.778 1.324" fill="#A12577" fill-rule="evenodd"/></svg>
