<svg xmlns="http://www.w3.org/2000/svg" viewBox="0 0 32 32" xml:space="preserve"><path d="M14.933 4.43c-2.882.359-5.2 2.483-5.78 5.296-.344 1.666.018 3.475 1.135 5.672.659 1.297 1.356 2.306 2.211 3.2 1.264 1.322 2.422 1.835 3.451 1.529 2.034-.604 5.044-4.175 6.041-7.168.251-.754.356-1.341.356-1.998 0-2.715-1.806-5.244-4.415-6.18-.858-.309-2.139-.458-2.999-.351m1.894 2.183c1.728.441 3.086 1.905 3.391 3.657.104.6.039 1.456-.158 2.059-.315.963-1.004 2.173-1.877 3.298-.835 1.075-2.196 2.344-2.691 2.507-.297.098-.684-.119-1.283-.717-1.429-1.428-2.733-3.82-3.04-5.579a4.574 4.574 0 0 1 1.951-4.579c.51-.341 1.124-.603 1.627-.693l.453-.082c.28-.049 1.218.025 1.627.129m-2.361.888c-.236.117-.475.4-.543.644-.073.263-.076 4.291-.003 4.548.069.244.453.688.675.781.136.056.566.073 1.939.073 1.629 0 1.779-.008 1.961-.102.36-.184.6-.555.597-.923-.003-.406-.38-.887-.784-.999-.111-.031-.687-.056-1.281-.056h-1.08V9.83c0-1.564-.005-1.647-.115-1.873a.97.97 0 0 0-.896-.542c-.163 0-.374.039-.47.086M6.773 21.119c-1.501.204-2.615 1.342-2.752 2.811-.061.654.157 1.493.531 2.043a3.247 3.247 0 0 0 1.776 1.249c.415.107 1.184.109 1.589.003.761-.198 1.563-.817 1.95-1.504l.186-.331h2.774l.212.438c.612 1.265 2.035 1.993 3.361 1.72 1.068-.221 1.985-.994 2.325-1.961l.07-.2h3.152l.159.306c.221.427.818 1.009 1.286 1.253.504.264.905.361 1.486.36.89-.001 1.533-.268 2.168-.901.645-.643.919-1.297.919-2.192 0-1.426-.901-2.616-2.285-3.016-.46-.133-1.225-.119-1.707.03a2.988 2.988 0 0 0-1.832 1.544c-.122.243-.221.475-.221.515 0 .061-.271.074-1.587.073h-1.586l-.182-.333c-.255-.466-.9-1.098-1.338-1.309-.923-.447-1.894-.445-2.827.005-.47.227-1.099.851-1.311 1.302l-.156.331-1.364.002-1.365.003-.224-.453c-.263-.529-.69-1.019-1.149-1.317-.563-.365-1.41-.559-2.058-.471m.903 2.229c.637.392.647 1.349.019 1.791a1.02 1.02 0 0 1-1.515-.417c-.138-.303-.125-.597.039-.926.305-.613.893-.793 1.457-.448m17.459-.145c.397.111.781.593.784.984.001.328-.112.582-.373.836-.297.287-.603.37-.966.261-.26-.077-.573-.347-.668-.575-.176-.422-.025-.991.346-1.297.295-.244.54-.302.877-.209m-8.847.438c.115.065.282.21.372.322.139.172.166.257.182.56.017.321.003.381-.139.603-.473.736-1.642.574-1.874-.261-.078-.283-.068-.434.05-.692.263-.58.903-.821 1.409-.532" fill="#A12577" fill-rule="evenodd"/></svg>