<svg xmlns="http://www.w3.org/2000/svg" viewBox="0 0 32 32" xml:space="preserve"><path d="M10.053 5.477c-2.411.31-4.33 1.977-4.976 4.325l-.143.518-.016 5.493c-.015 4.856-.007 5.554.069 6.014.42 2.541 2.411 4.452 4.986 4.785.464.06 11.524.068 11.894.008l.24-.038.389.365c.839.786 1.608 1.116 2.599 1.114 1.036-.003 1.852-.34 2.591-1.073.385-.381.5-.537.708-.961.296-.603.404-1.074.405-1.762.001-.61-.092-1.002-.36-1.513-.226-.429-.803-1.069-1.194-1.322l-.258-.168-.001-5.231c-.001-3.194-.022-5.376-.055-5.604a5.657 5.657 0 0 0-.865-2.334 5.759 5.759 0 0 0-3.986-2.575c-.42-.064-1.479-.076-6.187-.07-3.124.005-5.752.017-5.84.029M22.002 7.92c1.17.297 2.119 1.258 2.426 2.459.101.395.105.61.105 5.407v4.997l-.324.09A3.68 3.68 0 0 0 21.92 22.8c-.232.482-.312.75-.364 1.221l-.036.326-5.44.015c-3.429.009-5.592-.005-5.85-.039-1.317-.172-2.372-1.042-2.802-2.312l-.148-.438v-5.44c0-5.062.007-5.464.095-5.786a3.443 3.443 0 0 1 2.358-2.406c.296-.086.762-.094 6.136-.097 5.017-.003 5.859.007 6.133.076m-10.109 4.453v.96h3.254v8.107h2.293v-8.105l1.587-.014 1.586-.014.015-.947.014-.947H11.893v.96m14.003 10.908c.162.1.323.261.423.423.147.238.161.302.16.718 0 .368-.023.501-.117.678-.239.448-.628.661-1.209.659-.312-.001-.427-.027-.644-.147a1.342 1.342 0 0 1-.673-1.456c.079-.37.177-.54.44-.765.288-.247.455-.296.955-.282.346.009.442.034.665.172" fill="#A12577" fill-rule="evenodd"/></svg>