<svg xmlns="http://www.w3.org/2000/svg" viewBox="0 0 42 42"><path fill="#AB007E" fill-rule="evenodd" d="m5.477 17.868.019 10.237.165.591c.492 1.758 1.44 3.182 2.809 4.22.574.436 1.668.975 2.485 1.226l.63.193 6.995.019c7.692.022 7.546.029 8.737-.406 2.658-.97 4.512-3.309 4.881-6.158.039-.303.069-3.116.07-6.658L32.27 15l1.173-1.11c2.492-2.359 2.806-2.688 2.957-3.092a1.822 1.822 0 0 0-.002-1.371c-.288-.771-.988-1.235-1.863-1.236-.72-.001-.993.172-2.398 1.522l-1.185 1.137-.249-.339c-.752-1.024-2.112-2.004-3.449-2.483-1.146-.412-.738-.398-11.723-.398H5.457l.02 10.238m20.175-6.211c.865.225 1.592.755 2.112 1.537l.261.394-.45.442c-1.433 1.405-7.149 6.76-7.19 6.736l-3.215-1.684c-2.044-1.069-3.283-1.677-3.498-1.718-.384-.071-.961.005-1.28.17-.575.298-1.052 1.091-1.052 1.751 0 .363.218.974.439 1.231.086.099.266.26.401.357.336.242 8.878 4.694 8.951 4.665.033-.013 1.489-1.377 3.237-3.032l3.584-3.392.407-.384-.026 4.407c-.023 4.001-.037 4.444-.151 4.793-.29.893-.924 1.671-1.695 2.08-.855.455-.59.44-7.677.44h-6.43l-.521-.175a4.684 4.684 0 0 1-.818-.362c-.806-.509-1.452-1.502-1.588-2.442-.044-.301-.071-3.418-.072-8.203L9.38 11.55h7.93c6.895 0 7.984.014 8.342.107"/></svg>
