<svg xmlns="http://www.w3.org/2000/svg" viewBox="0 0 42 42"><path fill="#A22778" fill-rule="evenodd" d="M22.803 5.094a56.518 56.518 0 0 0-2.907 3.953l-.601.892-.148-.262a72.885 72.885 0 0 1-.705-1.329c-.306-.588-.573-1.068-.594-1.068-.054 0-1.912 3.197-2.522 4.34-1.135 2.126-2.156 4.522-2.52 5.915-.197.755-.215.911-.182 1.54.061 1.134.519 2.313 1.2 3.091.174.199.316.424.316.5 0 .076.063.445.14.819.077.374.14.708.14.743 0 .034-.753.062-1.697.063-1.267.001-1.812.028-2.146.107-1.167.275-2.116 1.15-2.54 2.342l-.162.455V31.5c0 3.251.022 4.387.089 4.638.173.652.451 1.124.968 1.646.542.547 1.066.84 1.764.988.264.055 3.181.078 10.115.077 8.344-.001 9.807-.016 10.182-.104a3.53 3.53 0 0 0 2.645-2.661c.093-.403.107-.926.086-3.423-.023-2.84-.03-2.961-.179-3.36a3.676 3.676 0 0 0-1.886-2.056l-.544-.26-1.557-.022L28 26.94v-.187c0-.104.093-.871.207-1.706.113-.835.256-1.947.316-2.47.105-.906.122-.966.359-1.276 1.009-1.322 1.395-3.306.978-5.026-.489-2.016-2.068-5.476-3.979-8.712l-1.326-2.26c-.421-.722-.787-1.312-.813-1.311-.026.001-.449.497-.939 1.102m1.722 8.066c.998 1.994 1.489 3.134 1.655 3.84.259 1.107-.383 2.32-1.46 2.755-.39.158-.435.16-3.86.179-3.856.021-3.78.029-4.102-.453-.247-.371-.262-.709-.057-1.356.193-.611.917-2.446.998-2.53.026-.027.39.581.809 1.352.419.771.785 1.376.813 1.345.028-.031.459-.909.959-1.951.96-2.004 1.44-2.882 2.347-4.301l.639-.999c.076-.118.083-.118.17 0 .05.068.54 1.022 1.089 2.119m-.274 10.973c-.019.105-.301 2.46-.628 5.232a745.664 745.664 0 0 1-.634 5.303c-.038.243-.058.262-.28.262h-.239l-.001-3.657c-.001-2.954-.021-3.752-.105-4.148a3.545 3.545 0 0 0-3.501-2.835c-.338 0-.453-.063-.453-.25 0-.016 1.268-.037 2.818-.048 1.549-.01 2.871-.026 2.938-.035.096-.014.113.023.085.176m-4.999 2.923c.317.164.418.433.418 1.116v.598h-2.137c-2.347 0-2.446.015-2.782.414-.37.44-.414 1.155-.099 1.628.085.128.294.304.466.391.303.153.372.157 2.432.157h2.12v.84h-2.178c-2.113 0-2.186.005-2.452.154-.369.207-.652.77-.604 1.198.05.446.252.808.567 1.017l.281.186 2.193.021 2.193.021v.391c0 .472-.178.802-.508.941-.183.077-.995.096-4.192.096-3.866 0-3.969-.003-4.122-.14-.347-.309-.348-.322-.348-4.52 0-4.29-.005-4.24.403-4.492.175-.109.548-.119 4.168-.121 3.42-.002 4.005.013 4.181.104m11.485 2.452c.115.06.271.21.346.333.129.212.136.369.137 2.867 0 1.463-.027 2.642-.061 2.642s-.081.095-.104.212c-.056.281-.315.529-.649.622-.405.113-3.596.102-3.597-.011-.002-.126.847-6.58.88-6.685.043-.142 2.77-.123 3.048.02"/></svg>
