<svg xmlns="http://www.w3.org/2000/svg" viewBox="0 0 42 42">
  <path fill="#a22778" fill-rule="evenodd" d="M11.445 3.992c-1.023.067-1.607.216-2.336.593-1.103.572-1.742 1.188-2.372 2.292-.394.69-.552 1.229-.648 2.212-.038.39-.066 5.617-.067 12.374L6.02 33.16l-.939.036c-.791.03-.992.061-1.272.197-.417.202-.841.621-1.014 1.001-.179.395-.179 1.167 0 1.562.17.373.636.839 1.009 1.009.283.128.787.132 18.036.133l17.745.001.35-.164c.394-.184.814-.611.989-1.006.071-.162.117-.453.119-.754.002-.597-.182-1.029-.599-1.406-.48-.434-.8-.533-1.85-.573l-.929-.036-.021-7.217c-.021-7.159-.023-7.222-.173-7.754-.513-1.812-1.833-3.14-3.653-3.675-.321-.094-.833-.121-2.789-.145-2.201-.028-3.089.014-3.477.163-.101.039-.112-.197-.113-2.467 0-2.655-.055-3.487-.278-4.225-.381-1.262-1.456-2.554-2.636-3.169-.834-.434-1.506-.6-2.755-.682-1.159-.076-9.163-.073-10.325.003m11.211 4.17c.148.12.332.325.409.455.137.232.141.384.162 6.521.013 3.867.046 6.282.087 6.282s.066 2.249.066 5.88v5.88H10.01l.001-11.987c0-6.594.02-12.108.045-12.255.058-.354.531-.879.864-.958.135-.032 2.77-.053 5.856-.046l5.611.011zm-9.916 2.823c-.343.105-.606.278-.893.59-.377.409-.519.751-.526 1.27-.009.754.411 1.414 1.126 1.765l.398.195h7.84L21 14.64c.735-.385 1.145-1.015 1.145-1.76 0-.336-.041-.535-.158-.76-.231-.447-.719-.888-1.167-1.056-.372-.139-.512-.144-4.145-.138-2.068.003-3.839.03-3.935.059m-.121 5.16c-.162.058-.45.244-.638.413-1.044.939-.826 2.495.444 3.171l.35.186 3.807.02c4.31.022 4.289.024 4.865-.483 1.11-.977.867-2.543-.5-3.222l-.332-.165-3.85-.013c-3.283-.011-3.894.002-4.146.093m20.137 2.335c.224.126.362.273.49.523l.179.348.02 6.6c.012 4.206.044 6.599.087 6.599.037 0 .068.142.068.315v.315h-6.446l.021-6.912c.019-6.382.03-6.932.142-7.158.217-.439.488-.669.912-.774.124-.031 1.124-.05 2.221-.043 1.988.012 1.996.013 2.306.187"/>
</svg>
