<svg xmlns="http://www.w3.org/2000/svg" viewBox="0 0 24 24">
    <path fill="#A12577" fill-rule="evenodd" d="M6.86 3.496c-2.043.343-3.799 1.705-4.542 3.523-.302.739-.443 1.494-.441 2.361.001.646.064 1.061.273 1.8.136.481.147.56.148 1.06.001.538 0 .545-.288 1.697-.158.637-.281 1.165-.273 1.173.008.009.508-.125 1.109-.296l1.094-.312h.5c.495 0 .505.001 1.04.191 1.055.374 1.997.525 2.704.433.193-.025.353-.041.355-.035.003.005.061.235.129.51.317 1.276.912 2.332 1.852 3.284a6.943 6.943 0 0 0 2.307 1.579c1.6.67 3.246.737 4.923.199.664-.213.938-.262 1.45-.263.507 0 .892.069 2.22.396.616.152 1.125.272 1.132.265.006-.006-.144-.549-.333-1.206-.202-.7-.363-1.34-.389-1.545a3.361 3.361 0 0 1 .175-1.47l.259-.723c.331-.933.453-2.147.317-3.169-.48-3.608-3.663-6.283-7.301-6.136a7.853 7.853 0 0 0-1.795.282l-.329.095-.179-.381a5.683 5.683 0 0 0-1.175-1.65A5.763 5.763 0 0 0 8.86 3.553c-.472-.102-1.547-.133-2-.057m1.855 1.821a4.256 4.256 0 0 1 2.211 1.474c.252.317.482.705.596 1.006l.073.192-.287.195c-.335.228-.904.763-1.201 1.129l-.207.255-.026-.774c-.034-1.05-.158-1.484-.524-1.839-.529-.513-1.623-.651-2.632-.332a3.335 3.335 0 0 0-.318.109c0 .016.202.77.219.817.013.037.059.034.189-.014.222-.082 1.071-.121 1.296-.06.342.093.572.326.604.61l.02.175-.574.002c-.654.001-.925.056-1.38.279-.355.173-.65.48-.778.809-.07.18-.09.316-.092.63-.003.359.008.425.112.649.249.543.792.851 1.498.851.433 0 .998-.202 1.224-.437l.115-.121.054.105c.048.093.04.146-.082.509a7.23 7.23 0 0 0-.33 1.461c-.041.435-.02.423-.762.422-.72-.002-.949-.046-1.581-.3-.605-.244-.918-.318-1.553-.367l-.581-.045-.002-.503c-.004-.585-.055-.921-.24-1.579-.175-.618-.233-1.067-.202-1.566A4.113 4.113 0 0 1 6.11 5.49c.573-.233.93-.292 1.67-.274.5.013.705.035.935.101m7.673 3.226c1.569.273 3.057 1.374 3.803 2.811.401.771.548 1.339.61 2.351.063 1.016.021 1.271-.415 2.515-.253.721-.321 1.09-.324 1.74-.001.297.012.592.03.655l.032.115-.232-.03c-.687-.086-1.663-.005-2.392.2-1.179.332-1.663.408-2.299.364-2.508-.176-4.494-1.916-5.025-4.404-.098-.457-.097-1.51.002-2.02a6.476 6.476 0 0 1 .47-1.417c.702-1.399 2.118-2.504 3.643-2.842a5.409 5.409 0 0 1 2.097-.038m-7.718.576c.037.001.05.111.05.416 0 .375-.011.437-.11.63-.094.183-.146.233-.344.332-.42.21-.99.143-1.198-.142-.103-.142-.107-.52-.007-.731.091-.191.354-.366.634-.42.329-.064.758-.115.845-.099a.92.92 0 0 0 .13.014m5.596 1.271c-.014.214-.026.509-.026.655v.265l-.721.029c-.644.026-.72.036-.702.095.01.036.057.273.103.526.046.253.093.49.104.528.018.061.076.065.578.044l.558-.024v.14c0 .078-.011.221-.024.319-.022.158-.046.191-.21.295-.279.176-.808.701-.961.955a2.655 2.655 0 0 0-.363 1.104c-.068.653.056 1.089.405 1.427.447.434 1.047.453 1.727.053.264-.155.345-.171.347-.069 0 .027.016.074.036.105.029.045.103.007.365-.189.181-.135.342-.238.357-.229.015.01.143.207.284.438s.275.421.297.422c.022 0 .288-.061.592-.136 1.246-.309 1.818-.79 2.009-1.69.16-.757-.046-1.597-.523-2.127-.204-.227-.58-.436-1.023-.567-.258-.077-.275-.09-.275-.198a.243.243 0 0 0-.101-.194l-.101-.08.151-.022c.083-.012.27-.034.415-.048.145-.014.287-.039.315-.056.04-.025.028-.157-.058-.626a8.622 8.622 0 0 0-.122-.609 1.791 1.791 0 0 0-.31.048c-.271.056-.988.141-1.741.206l-.293.025.027-.252c.015-.139.052-.305.082-.369a.625.625 0 0 0 .056-.227c0-.296-.128-.357-.752-.357h-.476l-.026.39m1.658 2.018c-.028.136-.083.162-.434.204l-.17.02v-.308l.25-.014c.137-.008.279-.018.315-.022.053-.007.06.016.039.12m-.303 1.462a2.045 2.045 0 0 1-.11.29l-.083.18-.029-.12a1.531 1.531 0 0 1-.034-.267c-.004-.123.01-.15.085-.165.192-.037.2-.033.171.082m1.659.012a.94.94 0 0 1 .376.363c.094.148.161.784.104.994-.096.358-.444.59-1.084.722-.565.117-.571.116-.631-.117-.05-.195-.049-.198.093-.396.164-.228.538-1.001.642-1.328.128-.399.155-.412.5-.238m-2.898.949c.047.236.099.468.114.517.023.072-.008.115-.177.249-.205.162-.483.27-.565.219-.083-.051-.019-.614.1-.874.112-.246.378-.603.418-.563.013.012.062.216.11.452"/>
</svg>
