<svg xmlns="http://www.w3.org/2000/svg" viewBox="0 0 22 22">
    <path fill="#A12577" fill-rule="evenodd" d="M7.81.773c-1.922.25-3.158 1.121-3.587 2.529-.091.301-.166.91-.135 1.098.023.134.03.14.141.123.064-.01.438-.062.831-.116l.715-.099.024-.22c.076-.682.576-1.213 1.369-1.452.631-.191.595-.189 4.397-.205 3.547-.015 3.553-.015 3.813.064.614.185 1.078.538 1.299.988.103.21.148.387.213.834l.017.12h1.694l-.024-.343c-.093-1.319-.841-2.404-2.051-2.977a6.267 6.267 0 0 0-.668-.262l-.33-.103-3.74-.005C9.731.744 7.941.756 7.81.773M.733 5.716c0 .196.122.574.251.778.264.416.716.7 1.216.765.151.019.534.036.852.037l.576.001.01 5.435.011 5.436.1.366c.056.201.182.531.281.733.455.929 1.134 1.503 2.115 1.785l.29.084 4.904.011 4.904.011v-.12c-.001-.163-.081-.452-.182-.651-.184-.365-.46-.61-.877-.779l-.206-.083-4.182-.018-4.182-.019-.278-.138c-.456-.224-.752-.605-.907-1.163-.075-.271-.076-.325-.076-5.582V7.297h2.09l.001 5.105c0 3.4.012 5.152.038 5.243.05.182.201.354.381.436.124.056.245.068.726.068l.578.001V7.297h3.336V18.15h.596c.678 0 .828-.03.96-.187l.094-.112V7.297h2.274v10.857l.174-.023c.707-.095 1.197-.481 1.448-1.139l.083-.217.01-4.739.01-4.739.796-.001c.978-.001 1.229-.033 1.572-.201.514-.252.911-.791.957-1.3l.02-.222H.733v.143"/>
</svg>
