<svg width="32" height="32" xmlns="http://www.w3.org/2000/svg"><path d="M12.611 4.055c-1.005.068-2.044.338-2.685.698-1.215.682-1.938 1.823-2.017 3.18-.018.313-.011.547.016.546.027 0 .468-.06.981-.133l.939-.133c.004 0 .022-.144.04-.32.066-.632.456-1.14 1.128-1.469.871-.425 1.355-.461 6.08-.44L20.827 6l.421.182c.854.368 1.419 1.178 1.419 2.034v.157h1.983l-.035-.333c-.019-.183-.058-.47-.087-.637-.231-1.358-1.247-2.534-2.661-3.079-.838-.323-.861-.325-4.945-.316-2.047.004-3.987.026-4.311.047M4.026 9.958c.101.676.516 1.267 1.084 1.546.293.144.337.15 1.275.167l.972.017.015 6.41.016 6.409.12.426c.066.235.233.655.37.934.21.424.329.585.733.99.532.532.937.779 1.63.991l.399.123 5.64.016 5.64.017v-.152c0-.228-.151-.694-.304-.935a1.867 1.867 0 0 0-.736-.668l-.267-.142-4.853-.028c-4.392-.025-4.875-.036-5.081-.118-.566-.225-.948-.637-1.197-1.294l-.122-.32-.014-6.307-.015-6.307h2.454l.014 6.12c.014 6.025.016 6.123.121 6.265.191.26.414.327 1.16.352l.68.023v-12.76h3.84v12.701l.825-.017c.753-.015.835-.027.937-.128l.111-.111-.005-6.222-.004-6.223h2.669v12.709l.268-.032c.665-.079 1.302-.569 1.555-1.197l.124-.306.015-5.614.014-5.613h1.144c1.422 0 1.571-.041 2.112-.582.362-.362.538-.699.615-1.179l.034-.212H3.988l.038.251" fill="#A12577" fill-rule="evenodd"/></svg>
