<svg xmlns="http://www.w3.org/2000/svg" xml:space="preserve" viewBox="0 0 32 32"><path fill-rule="evenodd" d="M3.991 1.454c-.059.066-.329.732-.601 1.48-.472 1.298-1.014 2.684-1.251 3.199-.11.24-.11.247-.111 10.406l-.001 10.166 3.43.025c1.887.014 3.459.043 3.494.064.046.029.062.537.062 1.929v1.89h3.764l1.118-1.134c.615-.624 1.383-1.41 1.707-1.747.61-.635 1.006-.909 1.426-.987.111-.021 1.323-.041 2.694-.045 2.443-.007 2.495-.009 2.706-.122.251-.134 7.262-7.094 7.433-7.378l.112-.187V1.333H4.099l-.108.121m23.433 3.533c.02.704.044 3.836.053 6.96l.016 5.68-.143.24c-.078.132-1.026 1.12-2.106 2.195-1.579 1.572-2.006 1.969-2.177 2.024-.161.052-1.043.076-3.547.099-3.075.028-3.35.038-3.547.128-.143.065-.795.682-1.986 1.88l-1.774 1.784v-1.756c0-1.649-.006-1.763-.102-1.882l-.102-.126-2.804-.014-2.805-.015V3.68l10.493.013 10.494.014.037 1.28M13.772 8.798a.634.634 0 0 0-.227.245c-.031.084-.052 1.462-.052 3.55 0 3.609.003 3.655.243 3.747.047.018.539.033 1.092.033.979 0 1.008-.003 1.089-.118.073-.105.083-.543.083-3.677V9.019l-.129-.149-.128-.15-.898-.015c-.825-.014-.913-.006-1.073.093m7.093 0a.634.634 0 0 0-.227.248c-.034.09-.048 1.394-.039 3.596l.014 3.456.13.138.129.137h1.029c1.01 0 1.031-.002 1.106-.12.061-.097.083-.614.114-2.744.02-1.443.02-3.047-.002-3.564-.036-.874-.048-.951-.161-1.083l-.122-.142-.898-.015c-.825-.014-.912-.006-1.073.093"/></svg>
