<svg width="32" height="32" xmlns="http://www.w3.org/2000/svg"><path d="M20.411 6.52c-.408.072-1.235.389-1.633.625-.449.265-1.162.954-1.472 1.421-.324.486-.629 1.185-.733 1.679-.051.239-.081.726-.082 1.309l-.001.928-.638-.03c-1.387-.066-3.317-.658-5.164-1.583-1.454-.729-2.532-1.569-3.91-3.045-.507-.544-.497-.544-.719.048-.799 2.136-.318 4.146 1.357 5.67l.432.394-.226-.03a5.96 5.96 0 0 1-1.474-.388l-.453-.19-.018.133c-.031.233.152 1.136.328 1.617.507 1.389 1.779 2.57 3.241 3.008l.235.07-.165.046c-.09.025-.526.062-.968.082-.443.02-.833.055-.869.076-.045.028-.019.148.088.403.226.536.504.931 1.016 1.443.736.735 1.565 1.166 2.681 1.394.351.072.628.156.618.188-.028.09-1.086.736-1.71 1.043-1.385.684-2.759.967-4.699.968l-.676.001.137.148c.163.176 1.608.889 2.382 1.176 1.132.419 2.383.713 3.553.834.864.089 3.099.039 3.779-.085 2.509-.458 4.633-1.391 6.403-2.814 1.841-1.481 3.411-3.723 4.28-6.116.559-1.539 1.016-3.92 1.018-5.309.001-.35.002-.353.242-.519.261-.18 1.582-1.511 1.937-1.951.334-.414.375-.415-1.158.038a7.755 7.755 0 0 1-.992.232l-.34.038.199-.158c.418-.333 1.033-.964 1.233-1.265.308-.464.655-1.158.59-1.18-.032-.01-.214.06-.405.157-.824.416-2.194.91-2.553.92-.111.003-.241-.067-.426-.23a5.911 5.911 0 0 0-1.902-1.09c-.296-.102-.517-.128-1.212-.142-.468-.01-.985.006-1.151.036" fill="#fff" fill-rule="evenodd"/></svg>
