<svg xmlns="http://www.w3.org/2000/svg" viewBox="0 0 32 32" xml:space="preserve"><path d="M6.894 10.112c.016 5.55.026 6.163.108 6.501.32 1.316.793 2.211 1.609 3.044 1.079 1.1 2.893 1.855 5.127 2.132.913.113 2.606.113 3.506.001 2.436-.304 4.06-.971 5.27-2.163.846-.834 1.321-1.78 1.66-3.307.11-.495.113-.637.131-6.421l.019-5.915-.682.032c-.795.037-1.102.111-1.722.418a3.753 3.753 0 0 0-1.587 1.593c-.419.853-.401.615-.435 5.546l-.031 4.4-.147.415c-.257.725-.524 1.07-1.149 1.483-.94.62-2.187.89-3.649.789-.741-.051-1.317-.195-1.903-.475-.609-.291-1.184-.859-1.467-1.448-.373-.779-.365-.678-.402-5.27l-.033-4.134-.125-.373c-.562-1.685-1.958-2.796-3.698-2.941l-.417-.035.017 6.128m.33 15.295c-.52.242-.88.867-.796 1.382.051.314.277.71.511.896.424.335-.161.315 9.058.315 9.506 0 8.718.037 9.184-.429.255-.256.419-.632.419-.965 0-.455-.385-1.004-.853-1.215-.238-.108-.31-.109-8.747-.109l-8.507-.001-.269.126" fill="#A12577" fill-rule="evenodd"/></svg>