<svg width="32" height="32" xmlns="http://www.w3.org/2000/svg"><path d="M23.967 4.047c-.568.147-.955.498-1.331 1.206-.14.264-.257.486-.262.492a11.33 11.33 0 0 1-.724-.349 14.122 14.122 0 0 0-1.277-.563c-1.119-.401-2.535-.673-3.503-.673h-.458l.032.233c.06.435.245.823.551 1.153.365.394.685.553 1.396.695a8.19 8.19 0 0 1 1.885.599l.472.216-.268.181a1.856 1.856 0 0 0-.697.992c-.152.614.055 1.377.477 1.759.112.101.561.381.998.621l.795.438.423.796c.47.885.706 1.167 1.151 1.378.421.2 1.026.195 1.425-.011.153-.079.362-.227.464-.33.103-.103.197-.187.209-.187.038 0 .344 1.168.435 1.654.194 1.041.159 2.556-.088 3.755-.604 2.934-2.675 5.575-5.4 6.883a8.77 8.77 0 0 1-1.845.666l-.789.197c-.814.206-1.481.937-1.592 1.743l-.034.249h.431c1.44 0 3.263-.463 4.755-1.207 1.239-.618 2.043-1.191 3.036-2.166a11.87 11.87 0 0 0 3.561-8.974 11.647 11.647 0 0 0-1.015-4.362l-.187-.41.357-.207c.196-.114.501-.286.677-.382.688-.377.932-.762.932-1.47.001-.375-.02-.474-.161-.756-.218-.436-.428-.611-1.328-1.109-.85-.471-.78-.396-1.336-1.427-.388-.72-.638-1.006-1.04-1.19-.307-.14-.85-.204-1.127-.133M13.68 4.25c-2.483.332-4.875 1.522-6.688 3.326a11.96 11.96 0 0 0-2.913 12.247c.129.386.32.888.425 1.115.104.227.184.416.176.421-.007.005-.25.138-.539.296-.845.463-1.102.854-1.101 1.678 0 .359.024.479.153.751.202.426.454.636 1.367 1.138l.747.411.407.744c.558 1.018.706 1.2 1.149 1.418.321.158.41.178.789.176.74-.004 1.193-.305 1.662-1.104.134-.228.253-.414.265-.414.013 0 .257.117.542.259.969.484 2.012.832 3.051 1.019.603.108 2.073.242 2.122.193.016-.017 0-.161-.036-.322-.152-.683-.617-1.287-1.194-1.55-.153-.071-.535-.178-.849-.238a9.75 9.75 0 0 1-.967-.24c-.454-.148-1.155-.452-1.154-.501 0-.018.136-.117.301-.22.614-.381.907-.954.86-1.685-.03-.467-.216-.886-.514-1.155-.111-.1-.56-.379-.998-.62l-.796-.438-.399-.757c-.646-1.226-1.044-1.552-1.895-1.553-.565 0-.918.164-1.328.617l-.292.323-.087-.206c-.286-.676-.504-1.874-.543-2.979-.061-1.726.254-3.266.969-4.747 1.085-2.244 3.018-4.041 5.304-4.93.497-.192 1.715-.536 1.902-.536.039 0 .205-.05.369-.112.571-.214 1.1-.846 1.25-1.494.1-.437.117-.422-.437-.415-.271.003-.757.041-1.08.084m11.093 2.654c.219.413.426.729.555.845.113.102.496.349.852.549.356.201.647.381.647.4 0 .053-.663.435-1.054.609-.44.195-.673.458-1.077 1.218-.183.342-.34.622-.349.622-.01 0-.205-.337-.432-.749-.468-.848-.509-.888-1.474-1.417-.315-.173-.573-.329-.573-.347-.002-.042.578-.356.955-.519.159-.069.346-.165.414-.213.156-.111.51-.637.84-1.249.139-.257.273-.454.299-.438.026.016.204.326.397.689M15.644 8.5c-.654.214-.815.421-1.91 2.46-.52.968-.988 1.798-1.041 1.844-.053.047-.883.515-1.844 1.04-1.943 1.062-2.178 1.235-2.341 1.724-.119.36-.091.801.073 1.139.238.493.451.646 2.36 1.694l1.794.986 1.006 1.866c.553 1.026 1.084 1.953 1.179 2.06.238.266.647.434 1.055.434.41 0 .837-.193 1.128-.508.124-.135.599-.954 1.183-2.039l.977-1.813 1.847-1.014c2.041-1.119 2.239-1.263 2.38-1.738a1.496 1.496 0 0 0-.032-1.045c-.203-.545-.445-.725-2.413-1.803-.964-.528-1.784-1.008-1.821-1.067-.038-.059-.488-.887-1.002-1.84-.513-.953-1.019-1.833-1.123-1.955-.347-.403-.967-.584-1.455-.425m1.187 3.931c.676 1.29.883 1.641 1.058 1.791.12.103.894.552 1.72.997a80.1 80.1 0 0 1 1.53.835c.015.015-.672.411-1.526.88-.855.469-1.627.926-1.718 1.016-.09.089-.545.887-1.011 1.775l-.848 1.613-.18-.336c-.099-.184-.461-.875-.804-1.534-.459-.878-.689-1.262-.865-1.44-.181-.182-.63-.45-1.827-1.092-.872-.468-1.568-.868-1.546-.89.021-.021.735-.412 1.586-.868 1.157-.621 1.594-.883 1.733-1.039.103-.115.461-.734.795-1.374.714-1.367 1.022-1.938 1.045-1.938.009 0 .395.722.858 1.604M8.003 21.58c.453.835.526.907 1.425 1.407.331.184.612.351.624.371.013.021-.174.141-.414.269-.57.301-1.055.622-1.157.765a13.02 13.02 0 0 0-.648 1.117c-.086.169-.179.294-.207.277-.028-.017-.2-.311-.383-.654-.182-.342-.409-.708-.504-.813-.095-.105-.486-.369-.869-.586-.383-.217-.697-.411-.697-.432 0-.02.315-.211.7-.425.817-.452.962-.564 1.085-.835.197-.434.59-1.188.62-1.188.017 0 .209.327.425.727" fill="#A12577" fill-rule="evenodd"/></svg>
