<svg width="24" height="24" viewBox="0 0 24 24" xmlns="http://www.w3.org/2000/svg">
<g clip-path="url(#clip0_7772_96850)">
<path d="M13.2573 18.3428L14.9716 15.2L18.1144 13.4857C18.5716 13.2571 18.8002 12.8 18.8002 12.3428C18.8002 11.8857 18.5144 11.4285 18.1144 11.1428L14.9716 9.42855L13.2573 6.28569C13.0287 5.82855 12.5716 5.59998 12.1144 5.59998C11.6573 5.59998 11.2002 5.88569 10.9144 6.28569L9.20015 9.42855L6.0573 11.1428C5.60015 11.3714 5.37158 11.8285 5.37158 12.2857C5.37158 12.7428 5.6573 13.2 6.0573 13.4857L9.20015 15.2L10.9144 18.3428C11.143 18.8 11.6002 19.0285 12.0573 19.0285C12.5144 19.0285 13.0287 18.7428 13.2573 18.3428ZM10.1144 13.7143L7.42873 12.2857L10.1144 10.8571C10.343 10.7428 10.5144 10.5714 10.6287 10.3428L12.0573 7.65712L13.4859 10.3428C13.6002 10.5714 13.7716 10.7428 14.0002 10.8571L16.6859 12.2857L14.0573 13.7143C13.8287 13.8285 13.6573 14 13.543 14.2285L12.1144 16.9143L10.6859 14.2285C10.5144 14 10.343 13.8285 10.1144 13.7143Z" fill="#A12577"/>
<path d="M9.82868 20.8572C9.08582 20.7429 8.34296 20.5143 7.71439 20.1715L8.0001 20C8.51439 19.7143 8.8001 19.2 8.8001 18.6286C8.8001 18.0572 8.51439 17.5429 8.0001 17.2572L6.74296 16.5715L6.05725 15.3143C5.77153 14.8 5.25725 14.5143 4.68582 14.5143C4.11439 14.5143 3.6001 14.8572 3.31439 15.3143L3.25725 15.3715C2.85725 14.4 2.68582 13.3143 2.68582 12.2286C2.68582 7.9429 5.77153 4.40004 9.82868 3.65718C10.743 3.5429 11.4287 2.7429 11.4287 1.82861C5.65725 1.82861 0.971533 6.51433 0.971533 12.2858C0.971533 13.9429 1.37153 15.5429 2.05725 16.9143L1.31439 17.3143C0.857247 17.5429 0.571533 18.0572 0.571533 18.6286C0.571533 19.2 0.857247 19.7143 1.37153 20L2.62868 20.6858L3.31439 21.9429C3.6001 22.4572 4.11439 22.7429 4.68582 22.7429C5.25725 22.7429 5.77153 22.4572 6.05725 21.9429L6.4001 21.3715C7.88582 22.2286 9.65725 22.6858 11.4858 22.6858C11.4287 21.7715 10.743 20.9715 9.82868 20.8572ZM5.25725 19.8286L4.91439 20.4L4.68582 20.8572L4.11439 19.8286C4.0001 19.5429 3.77153 19.3715 3.48582 19.2L2.45725 18.6286L2.97153 18.3429L3.48582 18.0572C3.77153 17.9429 4.0001 17.7143 4.11439 17.4858L4.22868 17.2L4.62868 16.4572L5.2001 17.4858C5.31439 17.7715 5.54296 17.9429 5.82868 18.1143L6.85725 18.6858L6.0001 19.1429L5.82868 19.2572C5.6001 19.3715 5.37153 19.5429 5.25725 19.8286Z" fill="#A12577"/>
<path d="M23.6001 5.82858C23.6001 5.25715 23.3144 4.74287 22.8001 4.45715L21.543 3.77144L20.8573 2.51429C20.5716 2.00001 20.0573 1.71429 19.4858 1.71429C18.9144 1.71429 18.4001 2.00001 18.1144 2.51429L17.7144 3.25715C16.1716 2.34287 14.4001 1.82858 12.4573 1.82858C12.4573 2.74287 13.143 3.54287 14.0573 3.65715C14.8573 3.77144 15.6001 4.05715 16.2858 4.40001L16.1716 4.45715C15.6573 4.74287 15.3716 5.25715 15.3716 5.82858C15.3716 6.40001 15.6573 6.91429 16.1716 7.20001L17.4287 7.88572L18.1144 9.14287C18.4001 9.65715 18.9144 9.94287 19.4858 9.94287C19.943 9.94287 20.4001 9.71429 20.6858 9.31429C21.0287 10.2286 21.2001 11.2 21.2001 12.2286C21.2001 16.5143 18.1144 20.0572 14.0573 20.8C13.143 20.9714 12.4573 21.7143 12.4573 22.6286C18.2287 22.6286 22.9144 17.9429 22.9144 12.1714C22.9144 10.5143 22.5144 8.97144 21.8287 7.60001L22.743 7.08572C23.2573 6.91429 23.6001 6.40001 23.6001 5.82858ZM20.6287 6.40001C20.343 6.51429 20.1716 6.74287 20.0001 7.02858L19.7144 7.54287L19.4858 8.00001L18.9144 6.97144C18.8001 6.68572 18.5716 6.51429 18.2858 6.34287L17.2573 5.77144L17.8858 5.42858L18.2858 5.25715C18.5716 5.14287 18.743 4.91429 18.9144 4.62858L19.143 4.22858L19.4858 3.60001L20.0573 4.62858C20.1716 4.91429 20.4001 5.08572 20.6858 5.25715L21.7144 5.82858L21.0287 6.22858L20.6287 6.40001Z" fill="#A12577"/>
</g>
<defs>
<clipPath id="clip0_7772_96850">
<rect width="23.0286" height="21.0286" transform="translate(0.571533 1.71429)"/>
</clipPath>
</defs>
</svg>
