<svg xmlns="http://www.w3.org/2000/svg" xml:space="preserve" viewBox="0 0 32 32"><path fill="#A12577" fill-rule="evenodd" d="M13.68 4.132a4.714 4.714 0 0 0-3.705 3.563 5.363 5.363 0 0 0-.118.758l-.017.32h2.187l.035-.32a2.525 2.525 0 0 1 1.993-2.158c.219-.043 1.001-.057 2.505-.045l2.187.017.337.183c.373.202.637.487.822.888.12.26.121.285.136 2.942l.016 2.68-5.216.001c-5.819.001-5.625-.01-6.389.369-.812.404-1.346.94-1.731 1.737-.388.803-.381.697-.364 5.573l.016 4.347.125.346c.465 1.297 1.323 2.117 2.631 2.517l.39.12 6.08.017c3.868.012 6.274-.002 6.613-.036.683-.07 1.267-.268 1.76-.598a3.828 3.828 0 0 0 1.503-1.94l.151-.426.015-4.374c.017-4.862.023-4.765-.337-5.517-.519-1.081-1.507-1.822-2.71-2.032l-.35-.061-.017-2.835c-.017-2.803-.018-2.839-.141-3.208-.242-.726-.524-1.188-1.045-1.709-.374-.374-.583-.534-.932-.714-.897-.464-.777-.448-3.577-.464-1.912-.01-2.565.003-2.853.059m8.962 11.157c.119.063.315.223.437.355.4.434.388.281.388 4.89 0 4.532.012 4.366-.351 4.79a1.82 1.82 0 0 1-.491.366l-.305.15H9.68l-.305-.15a1.843 1.843 0 0 1-.492-.367c-.366-.428-.354-.251-.338-4.927l.015-4.209.164-.294c.173-.307.526-.596.842-.689.098-.028 2.794-.045 6.514-.04l6.347.009.215.116m-6.882.35c-.486.173-.685.41-1.365 1.629l-.395.708-.956.519c-.526.285-1.025.587-1.109.671a1.41 1.41 0 0 0-.339 1.409c.151.455.402.678 1.387 1.235.495.28.932.563.985.64.052.075.293.504.535.952.243.449.499.885.57.97.212.252.629.428 1.011.428.705 0 1.01-.268 1.707-1.499l.507-.894.909-.489c.499-.269.994-.564 1.099-.656.433-.381.573-1.111.311-1.627-.186-.369-.435-.566-1.372-1.091-.459-.256-.858-.496-.886-.532a22.684 22.684 0 0 1-.54-.972c-.339-.628-.556-.968-.707-1.107-.342-.312-.938-.442-1.352-.294m.647 3.414c.282.561.413.708.879.987.23.138.401.265.379.283a2.059 2.059 0 0 1-.305.13c-.386.14-.623.349-.88.774-.125.206-.248.388-.273.404-.025.015-.112-.085-.193-.222-.287-.489-.529-.746-.917-.976-.211-.126-.376-.249-.367-.275.009-.027.209-.175.443-.33.365-.241.468-.345.714-.721.158-.242.296-.44.306-.44.011 0 .107.174.214.386"/></svg>
