<svg xmlns="http://www.w3.org/2000/svg" viewBox="0 0 32 32" xml:space="preserve"><path d="M19.333 7.47a3.9 3.9 0 0 0-1.325.406c-.441.222-1.208.689-1.674 1.017l-.333.235-.414-.158c-1.135-.435-2.453-.439-3.45-.012-.828.355-1.793 1.315-2.286 2.274-.077.15-.165.193-.902.445-1.452.497-2.129.874-2.917 1.626-.946.904-1.615 2.132-1.904 3.497-.118.557-.132 1.815-.028 2.4.16.893.587 1.951 1.084 2.683.122.18.416.529.652.777.91.952 1.857 1.488 3.177 1.799.367.086.901.095 6.454.114 6.489.022 7.054.006 7.868-.226 2.141-.61 3.799-2.362 4.367-4.614.526-2.087.107-4.183-1.163-5.813-.207-.266-.234-.337-.292-.758-.444-3.232-2.903-5.583-5.98-5.718a6.76 6.76 0 0 0-.934.026m1.7 2.022c1.176.3 2.193 1.169 2.78 2.375.302.621.388.961.463 1.84l.062.72.28.298c.544.579.964 1.361 1.173 2.182.081.316.102.584.1 1.28-.002 1.036-.06 1.306-.45 2.106-.439.9-1.034 1.503-1.894 1.92-.882.426-.467.406-7.734.389l-6.453-.015-.427-.15c-1.126-.395-2.004-1.207-2.528-2.339-.297-.642-.387-1.036-.417-1.839-.04-1.058.157-1.838.688-2.722.365-.608 1.078-1.277 1.697-1.59.277-.141 2.298-.873 2.726-.988.181-.049.211-.081.261-.281.14-.559.413-1.029.841-1.451.511-.504 1.041-.697 1.796-.652.589.035.938.152 1.697.567l.574.314.463-.397c.841-.721 2.157-1.559 2.546-1.624.478-.078 1.338-.05 1.756.057m-5.038 3.483c-.14.095-.426.547-1.272 2.014-.984 1.706-1.091 1.915-1.093 2.14-.006.486.333.738.996.738h.414v1.041c0 1.167.025 1.283.337 1.557.248.217.487.281 1.056.281.723.001 1.074-.167 1.28-.613.084-.183.098-.356.099-1.24l.001-1.026h.403c.633 0 .933-.219.969-.707l.02-.28-1.118-1.893c-.804-1.36-1.168-1.927-1.291-2.014a.725.725 0 0 0-.801.002" fill="#A12577" fill-rule="evenodd"/></svg>