<svg xmlns="http://www.w3.org/2000/svg" xml:space="preserve" viewBox="0 0 32 32"><path d="M12.267 3.843c-2.099.214-4.076 1.56-5.05 3.439-.268.516-.344.785-.344 1.219 0 .882.686 1.673 1.539 1.774l.271.032.039-.367a4.489 4.489 0 0 1 .487-1.635c.347-.674 1.015-1.351 1.668-1.688.696-.36.992-.436 1.824-.469.897-.035 1.341.051 2.009.387.873.44 1.371.956 1.881 1.948.211.411.345.596.626.86.517.488 1.314.844 1.888.844.198 0 .202-.004.201-.2 0-.308-.143-1.169-.268-1.614-.617-2.206-2.592-3.996-4.905-4.446a7.245 7.245 0 0 0-1.866-.084m-5.744 7.264c.092 1.387.709 2.793 1.681 3.831a6.524 6.524 0 0 0 3.583 1.974c.58.114 1.76.089 2.287-.049.246-.064.457-.116.469-.116.013 0-.036.078-.107.173a5.769 5.769 0 0 0-.349.6c-.122.235-.24.456-.263.491-.031.049-.124.038-.386-.047-.439-.142-1.963-.197-2.758-.1-1.88.229-3.496.963-4.747 2.156-.846.806-1.422 1.694-1.736 2.673-.216.674-.268 1.016-.273 1.787l-.004.72 1.293.014 1.294.015v-.548c.001-.658.095-1.089.35-1.605.649-1.312 2.211-2.35 3.909-2.598.499-.073 1.658-.044 2.173.055l.326.062.03.649c.154 3.319 2.521 6.017 5.912 6.738.628.134 1.975.131 2.633-.004a7.425 7.425 0 0 0 3.736-1.974 7.398 7.398 0 0 0 2.129-4.051c.106-.614.105-1.832-.001-2.486-.467-2.885-2.71-5.159-5.663-5.742-.335-.066-.725-.092-1.374-.091-.852.001-.943.012-1.492.167-.322.092-.595.157-.606.146-.012-.012.027-.101.086-.198.358-.589.495-1.455.31-1.959-.156-.424-.306-.566-.737-.696a5.842 5.842 0 0 1-.751-.299 4.82 4.82 0 0 0-.387-.182c-.013 0-.023.104-.023.232 0 .333-.184 1.001-.396 1.442-.514 1.069-1.445 1.841-2.622 2.175-.329.094-.557.12-1.036.119-.763-.002-1.194-.102-1.866-.434-.417-.205-.589-.33-.966-.705-.301-.299-.529-.584-.662-.829-.216-.394-.607-.919-.861-1.153-.106-.098-.236-.151-.436-.176a2.529 2.529 0 0 1-1.144-.459c-.172-.123-.358-.212-.442-.212h-.145l.032.494m15.339 5.292c.781.164 1.452.526 2.076 1.118 1.139 1.081 1.668 2.702 1.364 4.179-.072.349-.414 1.373-.484 1.448-.025.027-6.258-6.191-6.258-6.243 0-.055.831-.365 1.267-.472.519-.127 1.503-.142 2.035-.03m.977 8.517c-.091.09-1.036.416-1.45.5-1.714.347-3.607-.502-4.639-2.083-.848-1.298-.957-2.746-.324-4.299.088-.217.16-.406.16-.42.001-.015 1.416 1.388 3.146 3.118s3.128 3.162 3.107 3.184" fill-rule="evenodd"/></svg>
