<svg xmlns="http://www.w3.org/2000/svg" xml:space="preserve" viewBox="0 0 32 32"><path d="M12.4 3.928c-1.225.142-2.11.458-3.04 1.085-1.32.891-2.484 2.587-2.486 3.622 0 .538.172.956.547 1.327.267.264.66.465 1.01.518l.244.036.06-.484c.315-2.564 2.636-4.181 5.171-3.603 1.187.271 2.187 1.112 2.865 2.411.258.494.735.949 1.267 1.208.424.207.92.352 1.207.352h.182l-.037-.44c-.137-1.628-.777-3.026-1.897-4.146a6.271 6.271 0 0 0-1.827-1.282c-1-.478-2.293-.717-3.266-.604m-6 7.156c0 .141.039.483.086.76.444 2.591 2.261 4.572 4.821 5.258.676.181 1.829.229 2.53.104.262-.046.485-.076.495-.065.011.01-.062.16-.161.332a7.144 7.144 0 0 0-.328.668l-.148.355-.231-.103c-.317-.14-1.243-.222-2.024-.178-2.282.126-4.189.929-5.629 2.369-1.296 1.298-1.918 2.759-1.918 4.513v.503h2.614v-.525c0-1.018.31-1.783 1.033-2.551.862-.915 2.039-1.494 3.393-1.669.553-.071 1.046-.059 1.734.044l.586.088.042.346c.244 2.031.93 3.559 2.144 4.776 1.075 1.077 2.305 1.749 3.763 2.055.733.154 1.935.167 2.636.029 2.333-.459 4.279-1.916 5.307-3.973.254-.508.569-1.509.672-2.134.118-.72.081-2.144-.073-2.859-.521-2.405-2.067-4.306-4.276-5.259-.903-.389-2.308-.634-3.162-.552-.357.035-1.3.235-1.506.32-.09.037-.083.015.041-.139.22-.273.264-.407.293-.884.046-.781-.223-1.281-.752-1.4a4.285 4.285 0 0 1-.728-.276 6.452 6.452 0 0 0-.458-.21c-.012 0-.023.092-.023.204 0 .349-.2 1.026-.461 1.556-.213.434-.323.579-.761 1.015-.582.579-1.095.877-1.844 1.069-.586.151-1.445.151-2.021 0-1.1-.288-2.073-1.023-2.607-1.969-.089-.156-.348-.482-.576-.723l-.416-.439-.364-.056a2.66 2.66 0 0 1-1.174-.482c-.142-.108-.291-.175-.389-.175-.156 0-.16.007-.16.257m15.015 4.998a4.367 4.367 0 0 1 1.699.688c.448.297.939.725.939.818 0 .03-.714.734-1.586 1.564-.873.831-1.806 1.723-2.074 1.983l-.486.471-.733-.683c-.403-.376-.75-.683-.771-.683-.021 0-.414.42-.873.932-.645.721-.82.946-.769.993l.955.89c.979.913 1.277 1.101 1.925 1.213.471.082.901.009 1.41-.242.418-.206.403-.193 2.774-2.439.828-.785 1.516-1.427 1.53-1.427.013 0 .002.078-.025.173-.028.095-.05.336-.05.536 0 1.102-.524 2.307-1.37 3.154-.96.96-2.129 1.407-3.533 1.35-.742-.03-1.273-.166-1.924-.493-1.208-.608-2.121-1.789-2.433-3.147-.139-.603-.126-1.608.027-2.186.637-2.4 2.943-3.888 5.368-3.465" fill-rule="evenodd"/></svg>
