<svg xmlns="http://www.w3.org/2000/svg" xml:space="preserve" viewBox="0 0 32 32"><path d="M12.4 3.924c-1.138.158-1.578.286-2.373.694a6.577 6.577 0 0 0-2.282 1.919C7.388 7.012 7 7.785 6.93 8.16c-.191 1.031.522 2.086 1.501 2.219l.244.033.059-.479c.124-1.006.505-1.794 1.208-2.498.703-.703 1.469-1.074 2.463-1.195 1.37-.167 2.817.404 3.622 1.427.132.169.375.564.539.879.237.453.372.641.643.894.52.487 1.343.85 1.932.853h.18l-.037-.466c-.264-3.264-2.868-5.779-6.111-5.902a7.605 7.605 0 0 0-.773-.001m-5.877 7.183c.092 1.387.709 2.793 1.681 3.831a6.524 6.524 0 0 0 3.583 1.974c.58.114 1.76.089 2.287-.049.246-.064.457-.116.469-.116.013 0-.036.078-.107.173a5.769 5.769 0 0 0-.349.6c-.122.235-.24.456-.263.491-.031.049-.124.038-.386-.047-.439-.142-1.963-.197-2.758-.1-1.88.229-3.496.963-4.747 2.156-.846.806-1.422 1.694-1.736 2.673-.216.674-.268 1.016-.273 1.787l-.004.72 1.293.014 1.294.015v-.548c.001-.658.095-1.089.35-1.605.649-1.312 2.211-2.35 3.909-2.598.499-.073 1.658-.044 2.173.055l.326.062.03.649c.154 3.319 2.521 6.017 5.912 6.738.628.134 1.975.131 2.633-.004.584-.121 1.415-.404 1.893-.644.97-.489 2.002-1.363 2.652-2.247a7.76 7.76 0 0 0 1.317-3.119c.114-.669.118-2.048.008-2.661-.492-2.757-2.674-4.945-5.538-5.555-.441-.094-.724-.116-1.479-.117-.885 0-.963.008-1.518.166-.322.092-.595.157-.606.146-.012-.012.027-.101.086-.198.358-.589.495-1.455.31-1.959-.156-.424-.306-.566-.737-.696a5.842 5.842 0 0 1-.751-.299 4.82 4.82 0 0 0-.387-.182c-.013 0-.023.104-.023.232 0 .333-.184 1.001-.396 1.442-.514 1.069-1.445 1.841-2.622 2.175-.329.094-.557.12-1.036.119-.763-.002-1.194-.102-1.866-.434-.417-.205-.589-.33-.966-.705-.301-.299-.529-.584-.662-.829-.216-.394-.607-.919-.861-1.153-.106-.098-.236-.151-.436-.176a2.529 2.529 0 0 1-1.144-.459c-.172-.123-.358-.212-.442-.212h-.145l.032.494m15.466 5.182c1.35.398 2.38 1.283 2.966 2.546.328.707.403 1.073.403 1.965 0 .892-.075 1.258-.403 1.965-.822 1.773-2.555 2.815-4.516 2.714a4.658 4.658 0 0 1-4.395-4.137c-.283-2.409 1.295-4.605 3.689-5.135.649-.143 1.61-.108 2.256.082m-5.082 4.618v1.28h7.626v-2.56h-7.626v1.28" fill-rule="evenodd"/></svg>
