<svg xmlns="http://www.w3.org/2000/svg" xml:space="preserve" viewBox="0 0 32 32"><path d="M10.149 3.948c-2.084.263-3.986 1.593-4.938 3.453a4.348 4.348 0 0 0-.305.752c-.244 1.049.466 2.085 1.526 2.223l.272.036.03-.393A4.084 4.084 0 0 1 9.04 6.641c.661-.319 1.092-.416 1.84-.415.769.001 1.205.1 1.867.426.426.21.582.325.988.732.414.415.527.569.8 1.096.389.752.769 1.157 1.364 1.455.42.21.918.358 1.206.358h.175v-.34c0-1.023-.476-2.396-1.171-3.381-.9-1.276-2.426-2.251-3.989-2.55-.517-.098-1.486-.135-1.971-.074M4.48 10.813c.001.052.026.309.056.572a6.45 6.45 0 0 0 1.048 2.875c1.05 1.578 2.75 2.593 4.707 2.812.661.075 1.405.005 2.132-.2l.13-.036-.109.155c-.059.086-.209.35-.332.589-.336.651-.296.622-.672.484-.298-.109-.408-.117-1.627-.115-1.412.003-1.821.057-2.841.378-1.905.599-3.608 1.991-4.425 3.62-.451.899-.627 1.657-.627 2.7v.688l1.293-.014 1.294-.014.029-.72c.027-.635.049-.768.19-1.121.577-1.449 2.149-2.588 3.977-2.88.483-.078 1.835-.045 2.297.055l.307.067v.573c0 1.971 1.075 4.07 2.74 5.35.784.603 1.328.897 2.184 1.182.912.302 1.297.364 2.276.364.981.001 1.504-.086 2.373-.391 3.316-1.167 5.366-4.564 4.851-8.036-.343-2.311-1.733-4.246-3.783-5.268-1.126-.561-1.917-.742-3.255-.746-.918-.003-1.111.028-2.069.323-.085.026-.081-.001.037-.228.485-.939.527-1.681.13-2.282-.126-.19-.207-.253-.382-.298a6.062 6.062 0 0 1-1.092-.428 1.476 1.476 0 0 0-.194-.103c-.01 0-.045.191-.08.425-.139.953-.518 1.703-1.198 2.375a3.86 3.86 0 0 1-1.712 1.016c-.638.189-1.548.204-2.167.035-1.085-.294-2.061-1.066-2.538-2.007-.135-.267-.606-.89-.794-1.05-.055-.047-.259-.11-.452-.141a2.641 2.641 0 0 1-1.153-.477c-.26-.199-.549-.242-.549-.083m15.333 5.642a4.875 4.875 0 0 1 2.69 1.938c.978 1.446 1.049 3.397.179 4.901-.242.417-.772 1.079-.865 1.079-.023 0-.612-.636-1.308-1.413-.696-.777-1.288-1.413-1.315-1.413-.057 0-1.861 1.606-1.861 1.656 0 .019.458.535 1.018 1.148l1.018 1.116-.231.07c-.154.047-.391.062-.711.043a4.686 4.686 0 0 1-3.046-1.387c-.903-.904-1.353-1.961-1.354-3.183-.001-.863.119-1.406.462-2.097.189-.381.646-1.007.716-.981.022.008.536.555 1.142 1.215.607.66 1.127 1.2 1.155 1.2.029 0 .469-.371.978-.824l.927-.824-.492-.536c-1.323-1.444-1.489-1.634-1.455-1.667.182-.182 1.737-.21 2.353-.041" fill-rule="evenodd"/></svg>
