<svg xmlns="http://www.w3.org/2000/svg" xml:space="preserve" viewBox="0 0 32 32"><path fill="#A12577" fill-rule="evenodd" d="M12.559 4.799a6.374 6.374 0 0 0-4.513 2.508c-.383.504-.829 1.415-.875 1.788-.077.617.257 1.333.793 1.699.235.161.764.353.973.353.037 0 .073-.144.091-.364.092-1.095.655-2.165 1.493-2.834a4.915 4.915 0 0 1 1.532-.785c.261-.072.531-.095 1.094-.092.66.003.796.02 1.173.146a4.257 4.257 0 0 1 1.553.902c.397.372.645.717.979 1.363a3.006 3.006 0 0 0 2.335 1.632l.28.035v-.316a5.13 5.13 0 0 0-.083-.761 6.45 6.45 0 0 0-4.753-5.108c-.365-.093-1.413-.232-1.583-.211-.034.005-.254.025-.489.045M6.987 11.54c0 .962.456 2.333 1.083 3.258.511.753 1.469 1.601 2.292 2.029.226.117.41.225.411.24 0 .015-.162.084-.36.154-2.838 1.001-5.123 3.361-5.981 6.176-.304.999-.43 1.909-.431 3.124L4 27.255l1.133-.014 1.134-.014.035-1.094c.029-.922.056-1.179.173-1.642.537-2.135 1.913-3.819 3.891-4.761 1.618-.77 3.744-.917 5.377-.37a7.542 7.542 0 0 1 2.219 1.213l.228.184.252-.228c.138-.125.512-.479.83-.787.558-.54.575-.563.474-.644-1.151-.923-2.081-1.467-3.239-1.897a8.871 8.871 0 0 1-.552-.216c-.011-.01.148-.102.352-.205 1.093-.55 2.215-1.723 2.773-2.896.174-.367.198-.466.198-.82.001-.347-.023-.451-.174-.756-.292-.595-.938-1.055-1.479-1.055-.176 0-.185.009-.185.189 0 .284-.152.971-.292 1.32a4.11 4.11 0 0 1-.767 1.218c-1.344 1.488-3.64 1.769-5.326.65-.601-.399-1.006-.88-1.408-1.674-.494-.975-1.544-1.703-2.458-1.703h-.202v.287m18.977 3.095a1.95 1.95 0 0 0-.352.171c-.086.055-2.227 2.087-4.759 4.514l-4.603 4.413-.245-.001-.245-.001-1.44-1.359c-.792-.747-1.524-1.399-1.627-1.45-.114-.056-.354-.1-.618-.112-.358-.017-.479 0-.709.099-.308.133-.656.486-.812.824-.153.332-.135.87.041 1.263.126.281.298.463 1.549 1.647 1.599 1.513 1.814 1.693 2.273 1.912.514.244.953.337 1.583.337.996 0 1.688-.277 2.424-.972.234-.22 2.42-2.312 4.859-4.648 3.605-3.454 4.457-4.296 4.558-4.507.174-.363.176-.9.003-1.287-.31-.696-1.189-1.09-1.88-.843m-4.495 9.456-.893.842.032.347c.017.191.031.713.032 1.16v.813h2.309l-.031-1.053c-.016-.58-.067-1.261-.113-1.516-.086-.471-.329-1.316-.402-1.393-.022-.024-.443.336-.934.8"/></svg>
