<svg xmlns="http://www.w3.org/2000/svg" xml:space="preserve" viewBox="0 0 32 32"><path d="M12.4 3.928c-1.225.142-2.11.458-3.04 1.085-1.32.891-2.484 2.587-2.486 3.622 0 .538.172.956.547 1.327.267.264.66.465 1.01.518l.244.036.06-.484c.315-2.564 2.636-4.181 5.171-3.603 1.187.271 2.187 1.112 2.865 2.411.258.494.735.949 1.267 1.208.424.207.92.352 1.207.352h.182l-.037-.44c-.137-1.628-.777-3.026-1.897-4.146a6.271 6.271 0 0 0-1.827-1.282c-1-.478-2.293-.717-3.266-.604m-5.893 7.078c0 .645.267 1.716.618 2.481.429.933 1.302 1.962 2.169 2.557.76.52 1.773.927 2.698 1.082.504.084 1.508.071 2.004-.028.233-.046.432-.074.443-.063.011.01-.119.299-.29.642-.267.537-.323.617-.416.59-.538-.162-1.13-.239-1.84-.239-2.377.001-4.453.821-6.002 2.37C4.633 21.657 4 23.132 4 24.807v.58h2.601l.025-.68c.027-.752.129-1.118.474-1.707.273-.466 1.11-1.273 1.616-1.558 1.418-.798 2.813-1.003 4.524-.663.129.026.147.054.147.23 0 .339.246 1.554.419 2.071a7.47 7.47 0 0 0 2.563 3.567c.554.419 1.668.978 2.32 1.163a7.2 7.2 0 0 0 5.289-.506c1.653-.841 2.99-2.358 3.595-4.077.278-.789.374-1.312.409-2.214.084-2.181-.647-4.084-2.14-5.573-.989-.987-2.114-1.624-3.442-1.951-.439-.108-.642-.125-1.52-.127-.877-.002-1.071.014-1.44.114a8.314 8.314 0 0 0-.533.157c-.092.035-.085.012.043-.157.35-.461.406-1.232.13-1.773-.176-.343-.212-.371-.657-.507a5.998 5.998 0 0 1-.74-.295 12.383 12.383 0 0 0-.379-.181 2.66 2.66 0 0 0-.042.307c-.054.504-.181.918-.446 1.453-.214.431-.328.583-.76 1.013-.582.579-.979.818-1.736 1.042-.596.177-1.488.203-2.07.06a4.312 4.312 0 0 1-2.581-1.857c-.192-.308-.804-1.054-.994-1.211-.048-.04-.27-.108-.493-.15-.476-.089-.874-.257-1.163-.49-.124-.1-.268-.167-.36-.167-.149 0-.152.007-.152.286m15.365 5.148a4.673 4.673 0 0 1 3.514 4.562c-.003 2.224-1.59 4.151-3.782 4.593-.664.135-1.635.087-2.244-.109-1.633-.526-2.773-1.707-3.212-3.328-.16-.593-.161-1.735-.002-2.325.5-1.856 1.974-3.196 3.843-3.493.451-.072 1.416-.021 1.883.1m-2.085 2.193v1.333h-2.774v1.92h2.772l.014 1.4.014 1.4.894.015.893.014V21.6H24.429l-.014-.947-.015-.946-1.4-.015-1.4-.014v-2.665H19.787v1.334" fill-rule="evenodd"/></svg>
