<svg xmlns="http://www.w3.org/2000/svg" xml:space="preserve" viewBox="0 0 32 32"><path d="M20.373 1.864a7.105 7.105 0 0 0-1.546.334c-2.463.779-4.298 2.895-4.766 5.493l-.074.411.3.061c1.858.382 3.642 1.599 4.724 3.224.765 1.148 1.152 2.3 1.254 3.729.029.409.076.766.104.795.075.074 1.196.065 1.604-.013a8.815 8.815 0 0 0 1.921-.66c1.806-.922 3.096-2.389 3.706-4.216a6.351 6.351 0 0 0 .347-2.169c0-1.1-.239-2.129-.722-3.105a7.317 7.317 0 0 0-2.828-3.026c-1.115-.653-2.714-.994-4.024-.858m1.626 2.538c.402.105 1.062.459 1.324.71.286.275.661.929.734 1.28.076.366.038.721-.133 1.223-.167.489-.368.768-.877 1.214-.976.855-1.157 1.057-1.252 1.395a2.655 2.655 0 0 0-.088.405c0 .049-.039.186-.087.305-.147.368-.526.473-.954.265-.313-.151-.365-.277-.334-.808.03-.52.206-.976.492-1.271l.518-.537c.186-.192.399-.396.475-.453.118-.089.406-.481.622-.846.088-.147.085-.526-.004-.739-.093-.22-.51-.604-.798-.735-.288-.13-.742-.132-1.025-.004-.118.054-.328.224-.467.378-.201.224-.281.373-.394.735-.179.575-.29.709-.616.746-.451.051-.583-.005-.812-.345-.174-.258-.204-.344-.197-.56.034-.949 1.062-2.05 2.201-2.356.386-.104 1.276-.105 1.672-.002m-9.972 4.24c-1.829.177-3.553 1.157-4.692 2.669-.485.645-.919 1.497-.99 1.948-.17 1.078.645 2.135 1.711 2.216l.237.018.037-.407a4.361 4.361 0 0 1 1.259-2.701c.396-.397.702-.607 1.261-.869.626-.294 1.057-.386 1.817-.389.852-.004 1.512.174 2.205.594.799.483 1.27.995 1.715 1.862.319.623.784 1.101 1.333 1.369.399.196.986.352 1.327.354l.18.001-.038-.44c-.234-2.728-1.931-4.97-4.443-5.873-.846-.304-1.989-.441-2.919-.352m9.446 3.16c.282.161.5.533.5.852 0 .189-.035.274-.185.449-.464.544-1.019.517-1.405-.066-.183-.276-.223-.591-.101-.804.068-.119.31-.334.491-.436.141-.08.558-.077.7.005M6.006 15.831c-.049.078.074 1.088.188 1.551a6.72 6.72 0 0 0 3.54 4.418 8.01 8.01 0 0 0 1.817.609c.554.104 1.873.089 2.41-.028 1.009-.218 1.989-.656 2.749-1.228 1.018-.767 2.089-2.21 2.269-3.058.093-.438-.096-1.145-.398-1.491-.099-.113-1.338-.764-1.455-.764-.033 0-.06.089-.06.2-.002.316-.137.873-.315 1.301a4.348 4.348 0 0 1-4.287 2.642c-.648-.043-1.021-.147-1.664-.465-.846-.419-1.484-1.031-1.893-1.816a6.937 6.937 0 0 0-.511-.806l-.295-.389-.331-.035a2.746 2.746 0 0 1-1.255-.499c-.227-.177-.45-.239-.509-.142m3.247 7.161c-.264.087-.768.3-1.12.473C5.521 24.75 4 27.041 4 29.689v.604h2.72l.001-.573c.001-.963.246-1.672.831-2.406.537-.674 1.537-1.345 2.475-1.661.925-.312 2.326-.414 3.315-.241 1.805.314 3.473 1.496 4.072 2.884.175.406.244.749.276 1.371l.032.626h2.705l-.001-.386c-.006-2.446-1.036-4.423-3.065-5.878-.463-.332-1.515-.878-1.967-1.02-.285-.09-.304-.09-.657.018-.588.18-.908.23-1.67.262a8.232 8.232 0 0 1-2.574-.301c-.316-.089-.616-.16-.667-.158-.051.001-.309.074-.573.162" fill-rule="evenodd"/></svg>
