<svg xmlns="http://www.w3.org/2000/svg" xml:space="preserve" viewBox="0 0 32 32"><path d="M19.547 1.844c-3.006.464-5.357 2.646-6.083 5.646-.201.827-.212.795.309.905a8.322 8.322 0 0 1 2.856 1.218c.224.154.627.5.896.768l.488.487.686-.687.686-.688-.892-.894-.893-.893.6-.6.599-.599.894.893.894.892.906-.905.907-.906.6.599.599.6-.906.907-.905.906.905.907.906.907-.599.599-.6.6-.907-.906-.907-.906-.797.8-.798.799.179.402c.458 1.034.664 1.898.714 3.01l.036.799.24.045c.618.115 1.877-.069 2.898-.424 2.457-.856 4.246-2.876 4.788-5.407.243-1.134.129-2.786-.275-4-1.113-3.336-4.531-5.413-8.024-4.874m-8.054 7.335c-1.18.17-2.537.83-3.447 1.678-.651.605-1.187 1.32-1.531 2.041-.184.386-.195.438-.195.942 0 .467.018.571.142.837.272.58.868 1.02 1.481 1.092l.27.033v-.223c0-.62.293-1.497.709-2.121.781-1.173 1.963-1.858 3.322-1.923.695-.034 1.157.034 1.727.254 1.054.408 1.837 1.171 2.378 2.317.138.292.295.52.499.724.473.472 1.357.85 1.99.85h.255v-.28c0-.684-.264-1.768-.615-2.533-.738-1.606-2.32-2.981-3.998-3.473-.872-.256-2.093-.344-2.987-.215m-5.386 6.768c-.044.07.017.724.114 1.226.776 4.018 4.954 6.341 8.804 4.895 1.502-.565 2.881-1.812 3.626-3.281.222-.439.25-.534.253-.854.003-.404-.11-.76-.355-1.12-.096-.141-.195-.226-.262-.226-.191 0-.913-.268-1.145-.425-.224-.151-.226-.151-.256-.037a1.132 1.132 0 0 0-.032.245c-.001.237-.171.825-.352 1.221a4.324 4.324 0 0 1-2.594 2.316c-.441.146-.567.164-1.161.168-.751.005-1.23-.101-1.83-.403-.922-.464-1.481-1.035-2.002-2.045a5.636 5.636 0 0 0-.462-.734c-.22-.279-.26-.306-.448-.306-.327 0-.858-.19-1.261-.451-.362-.235-.571-.297-.637-.189m3.286 7.177C6.15 23.944 4 26.518 4 29.58v.607h2.72v-.552c0-1.067.325-1.848 1.093-2.626.828-.838 1.89-1.383 3.114-1.597.591-.104 1.793-.102 2.351.004 2.059.391 3.8 1.832 4.138 3.426.041.197.076.58.076.851l.001.494h2.72l-.001-.494c-.006-1.829-.624-3.295-1.938-4.604a7.995 7.995 0 0 0-2.895-1.852l-.382-.137-.264.1c-1.073.408-2.898.386-4.37-.051l-.491-.146-.479.121" fill-rule="evenodd"/></svg>
