<svg xmlns="http://www.w3.org/2000/svg" viewBox="0 0 32 32" xml:space="preserve"><path d="M13.2 4.115c-.603.069-1.55.288-2.169.504-2.103.732-3.992 2.207-5.263 4.107a10.52 10.52 0 0 0-1.634 4.371c-.115.874-.115 4.929-.001 5.801.189 1.44.71 2.93 1.43 4.086 1.713 2.753 4.562 4.562 7.728 4.906.838.091 4.871.073 5.626-.025a10.365 10.365 0 0 0 7.851-5.469 10.169 10.169 0 0 0 1.099-3.432c.073-.527.083-1.046.066-3.328-.021-2.684-.022-2.707-.162-3.344-.452-2.066-1.386-3.78-2.851-5.235-1.321-1.313-3.056-2.286-4.84-2.713-1.059-.253-1.608-.291-4.123-.284-1.282.004-2.522.029-2.757.055m4.967 2.391c1.145.089 2.008.323 2.965.804 1.939.974 3.329 2.586 4.012 4.65.325.984.358 1.303.403 3.987.038 2.222.033 2.476-.057 3.013-.477 2.862-2.563 5.277-5.341 6.182-1.096.357-1.329.378-4.122.377-2.417 0-2.527-.004-3.067-.123-1.64-.359-2.84-.998-4.018-2.14a7.862 7.862 0 0 1-2.329-4.729c-.042-.359-.054-1.315-.038-2.956.019-2.055.037-2.485.115-2.824a8.635 8.635 0 0 1 .731-2.03 7.817 7.817 0 0 1 6.312-4.207c.771-.06 3.676-.063 4.434-.004m-7.13 4.977c-.485.137-.952.55-1.071.948-.086.288.12.958.384 1.249.116.127.875 1.489 1.873 3.36 2.26 4.237 2.317 4.325 2.977 4.634.6.281 1.579.259 2.19-.05.346-.174.682-.613 1.095-1.427a538.12 538.12 0 0 1 2.061-3.946c1.538-2.925 1.71-3.277 1.762-3.61.054-.354.051-.377-.081-.576-.166-.252-.564-.515-.908-.601a2.854 2.854 0 0 0-.694-.04c-.825.045-1.061.28-1.731 1.723-.944 2.032-2.709 5.733-2.734 5.733-.015-.001-.717-1.483-1.561-3.294-1.661-3.567-1.784-3.785-2.26-4.012-.314-.15-.939-.194-1.302-.091" fill="#A12577" fill-rule="evenodd"/></svg>