<svg xmlns="http://www.w3.org/2000/svg" viewBox="0 0 42 42">
  <path fill="#a22678" fill-rule="evenodd" d="m22.365 11.898-3.99 3.987-1.625-1.432-1.624-1.433h-4.13l-4.168 3.712-4.168 3.712v4.896h2.449l.018 4.708.018 4.707h32.9l.018-6.212.018-6.213h1.539v-5.705l-4.358-4.358-4.357-4.357h-4.55zm10.972 2.294 3.693 3.693v1.785H22.56l-1.17-1.032-1.17-1.033 3.592-3.55 3.593-3.55 1.12-.003 1.12-.002zm-16.028 4.502 3.271 2.944v1.182H5.25v-1.034l3.343-3.016 3.342-3.017 1.052-.001 1.052-.002zM35.42 27.23v4.9H21.56v-6.79h1.82v-3.01h12.04zm-17.08 1.505v3.395H7.77v-6.79h10.57z"/>
</svg>
