<svg xmlns="http://www.w3.org/2000/svg" xml:space="preserve" viewBox="0 0 32 32"><path d="M25.36 3.019c-.94.097-1.966.375-2.649.718-1.643.824-3.012 2.376-3.932 4.458-.287.649-.674 1.714-.637 1.752.013.013.152-.025.308-.084a6.456 6.456 0 0 1 1.571-.346c1.625-.129 2.467.799 2.275 2.509-.137 1.211-.686 2.475-1.966 4.52-1.206 1.926-1.942 2.772-2.614 3.003-.474.164-.907-.195-1.345-1.112-.68-1.422-1.052-3.016-1.916-8.202-.487-2.925-.59-3.43-.836-4.115-.417-1.16-1.111-2.069-1.881-2.465-.593-.305-1.625-.441-2.251-.296-.713.165-1.893.873-3.221 1.933-.661.528-1.226 1.02-3.814 3.321a409.38 409.38 0 0 1-1.296 1.15L.999 9.9l.687.888c.466.603.712.879.766.861.043-.016.399-.233.791-.483 1.135-.725 1.469-.891 1.705-.847 1.019.186 1.941 1.931 2.919 5.521.456 1.674 1.84 6.797 2.053 7.6.312 1.171.908 2.52 1.539 3.478.973 1.478 2.069 2.164 3.315 2.073 1.795-.131 3.591-1.11 5.853-3.192 2.917-2.683 6.966-8.084 8.789-11.725 1.432-2.859 1.851-4.893 1.488-7.229-.332-2.135-1.478-3.396-3.411-3.752-.336-.062-1.769-.112-2.133-.074" fill="#00b2ea" fill-rule="evenodd"/></svg>
