<svg xmlns="http://www.w3.org/2000/svg" xml:space="preserve" viewBox="0 0 32 32"><path d="M18.871 12.265c-1.333.243-2.13.888-2.338 1.894-.085.415-.034.889.134 1.232.17.349.684.838 1.226 1.167.891.54 1.112.696 1.208.853.15.246.127.439-.077.642-.452.452-1.562.464-2.527.027-.196-.089-.373-.144-.393-.121-.041.047-.371 1.358-.371 1.477 0 .052.175.137.52.252.511.171.538.174 1.507.175 1.11.002 1.394-.05 2.061-.377.964-.472 1.527-1.509 1.35-2.487-.136-.75-.516-1.119-1.99-1.936-.889-.493-1.014-.879-.391-1.209.19-.101.306-.119.783-.118.544.002.77.051 1.446.316.073.029.108-.079.227-.71.077-.409.141-.768.141-.798 0-.184-1.887-.394-2.516-.279M4 12.421c0 .074.053.11.199.138.29.054 1.39.392 1.65.507.403.177.426.243 1.217 3.414.399 1.599.75 2.997.779 3.107l.052.2h2.11l1.53-3.701c.841-2.036 1.53-3.717 1.53-3.735 0-.018-.448-.027-.995-.019l-.995.015-.976 2.373a299.957 299.957 0 0 1-1.04 2.507c-.057.12-.073.078-.163-.427-.383-2.159-.753-3.931-.852-4.093a.95.95 0 0 0-.316-.282c-.192-.098-.32-.105-1.968-.105-1.692 0-1.762.004-1.762.101m9.973-.054c0 .026-.348 1.678-.773 3.672a280.41 280.41 0 0 0-.773 3.687c0 .047.243.059.942.049l.943-.015.756-3.547.795-3.72.039-.173h-.964c-.531 0-.965.021-.965.047m10.48.053c-.374.232-.346.175-1.893 3.9a339.612 339.612 0 0 1-1.169 2.791c-.149.348-.271.642-.271.655 0 .013.448.016.996.009l.996-.015.189-.52.189-.52h2.518l.093.533.094.534h.959c.889 0 .958-.007.931-.094-.015-.051-.364-1.677-.776-3.613-.411-1.936-.76-3.574-.776-3.64-.028-.119-.037-.12-.974-.12-.83 0-.965.013-1.106.1m.855 3.426c.161.745.292 1.36.292 1.367 0 .035-1.543.009-1.562-.026-.024-.044.932-2.742.96-2.713.01.01.149.627.31 1.372" fill-rule="evenodd"/></svg>
