<svg xmlns="http://www.w3.org/2000/svg" xml:space="preserve" viewBox="0 0 32 32"><path d="M13.493 8.108c-.492.059-1.325.261-1.558.379-.418.211-.718.639-.59.841.029.047.234.16.456.252.542.223.71.353.873.675.23.454.298.99.301 2.385.004 2.041-.239 3.04-.74 3.04-.439 0-.731-.244-1.468-1.227a17.553 17.553 0 0 1-2.419-4.497c-.176-.494-.327-.69-.665-.861-.494-.25-.963-.305-2.563-.299-1.519.006-2.008.05-2.372.212-.274.121-.351.217-.386.481-.048.356.066.654.885 2.323 1.213 2.472 2.156 4.12 3.479 6.081 2.177 3.229 3.705 4.587 6.088 5.407 1.954.673 4.387.816 5.164.303.25-.165.374-.438.428-.935l.097-.908c.069-.649.181-.971.429-1.231.175-.185.227-.209.449-.209.14 0 .337.044.448.101.109.056.756.668 1.438 1.361 1.424 1.445 1.716 1.682 2.305 1.868.689.218 1.175.254 3.103.232 1.693-.019 1.795-.026 2.133-.144.59-.205.901-.543.897-.976-.004-.625-.828-1.724-2.793-3.729-.701-.715-1.343-1.406-1.426-1.537-.188-.292-.201-.604-.04-.925.145-.287.65-1 1.728-2.438 1.672-2.23 2.329-3.348 2.537-4.319.121-.56-.14-.822-.895-.902-.229-.024-1.4-.028-2.603-.01-2.494.039-2.396.021-2.843.51-.198.217-.362.511-.733 1.312-.852 1.844-2.141 3.997-2.498 4.171a3.573 3.573 0 0 0-.512.379c-.48.411-.617.474-.816.371-.093-.048-.199-.178-.269-.329-.128-.277-.133-.508-.084-4.116.021-1.567.018-1.64-.097-2-.172-.542-.291-.706-.621-.857-.465-.213-1.18-.29-2.62-.282-.704.003-1.436.025-1.627.047" fill="#2787f5" fill-rule="evenodd"/></svg>
