<svg width="32" height="32" xmlns="http://www.w3.org/2000/svg"><path d="M12.4 4.341c-.378.092-.737.284-.95.507-.1.106-1.152 1.404-2.337 2.885-2.389 2.987-2.447 3.075-2.489 3.799-.028.476.031.754.263 1.24a2.449 2.449 0 0 0 1.334 1.26c.199.08.495.131.979.168.381.029 3.525.069 6.987.087l6.293.033.306.124c.858.346 1.486 1.027 1.781 1.929.088.271.097.638.114 4.814l.018 4.52-7.35-.001c-7.994 0-7.871.004-8.718-.298-1.074-.384-1.814-1.187-2.156-2.341-.085-.289-.098-.686-.125-4.027-.03-3.689-.031-3.708-.152-4.044-.159-.441-.311-.674-.637-.978-.383-.357-.754-.529-1.308-.604L4 13.38v4.737c.001 2.904.021 4.864.054 5.065.144.886.571 1.951 1.054 2.628.971 1.361 2.684 2.239 4.684 2.402.426.034 3.737.055 8.937.055h8.26l-.015-5.987c-.015-5.971-.015-5.988-.131-6.396-.451-1.584-1.395-2.762-2.763-3.447-.49-.245-1.035-.423-1.441-.471a1.382 1.382 0 0 1-.346-.073c-.044-.027.378-.626 1.334-1.893.769-1.019 1.456-1.979 1.527-2.134.07-.154.155-.469.189-.7a2.754 2.754 0 0 0-.283-1.605c-.189-.372-.649-.845-.994-1.021-.546-.279-.435-.274-6.117-.269-3.956.004-5.349.021-5.549.07m10.584 2.373c.045.086-.226.471-1.789 2.54a284.104 284.104 0 0 0-1.905 2.539c-.059.095-.159.1-1.756.1-.932 0-1.694-.012-1.694-.028 0-.015.553-.657 1.228-1.425 1.329-1.511 1.405-1.629 1.262-1.972-.146-.349-.262-.386-1.295-.406l-.916-.019-1.534 1.779c-.843.978-1.572 1.844-1.619 1.924l-.086.147h-1.954c-1.766 0-1.958-.008-1.988-.087-.043-.111-.232.139 2.072-2.735l1.971-2.458h4.974c4.823 0 4.976.003 5.029.101" fill="#A12577" fill-rule="evenodd"/></svg>
