<svg xmlns="http://www.w3.org/2000/svg" viewBox="0 0 18 18">
    <path fill="#A12577" fill-rule="evenodd" d="M6.576.497c-.27.073-.491.196-.665.371C5.82.96 5.05 1.882 4.2 2.917c-1.118 1.362-1.576 1.942-1.658 2.1a1.625 1.625 0 0 0-.188.871c.053.546.43 1.163.867 1.417.311.181.508.231 1.024.262.264.016 2.545.038 5.07.049 4.265.019 4.603.024 4.77.073.627.185 1.113.578 1.373 1.113.231.473.217.221.217 3.828v3.225l-5.175.009c-5.35.009-5.717.002-6.24-.113-1.129-.248-1.815-.917-2.045-1.994-.055-.256-.058-.406-.055-2.597.003-2.477-.009-2.738-.136-3.082a1.717 1.717 0 0 0-.959-.955c-.242-.09-.614-.142-.634-.088-.007.019-.009 1.592-.003 3.497.01 3.428.011 3.466.075 3.726.217.884.574 1.554 1.115 2.093.559.556 1.215.914 2.088 1.139.726.187.423.18 7.366.18H17.4v-4.103c0-4.505.004-4.393-.182-4.975a5.206 5.206 0 0 0-.238-.583c-.543-1.083-1.657-1.885-2.843-2.046-.136-.019-.247-.046-.247-.06 0-.014.46-.619 1.021-1.345 1.093-1.41 1.195-1.569 1.26-1.957a2.102 2.102 0 0 0-.231-1.302 1.822 1.822 0 0 0-.979-.775L14.727.45l-3.996.002C7.373.454 6.71.461 6.576.497m7.858 1.705c.03.066-.07.205-1.373 1.889l-1.406 1.818h-1.258l-1.259.001.091-.097c.502-.537 1.726-1.925 1.766-2.003a.48.48 0 0 0-.036-.446c-.124-.169-.201-.184-.941-.184h-.677L8.206 4.466c-.624.708-1.154 1.322-1.177 1.365l-.041.079H5.536c-1.442 0-1.452 0-1.472-.062a.125.125 0 0 1 .024-.113c.193-.224 2.85-3.47 2.889-3.529l.05-.076h7.374l.033.072"/>
</svg>
