<svg xmlns="http://www.w3.org/2000/svg" xml:space="preserve" viewBox="0 0 32 32"><path d="M15.227 4.021c-1.159.224-2.054.904-2.744 2.085-2.329 3.984-9.47 16.439-9.554 16.663a3.741 3.741 0 0 0-.185 2.051 3.794 3.794 0 0 0 1.096 2.059c.459.46.91.741 1.52.949l.427.145h10.106c11.38 0 10.326.039 11.254-.414.365-.179.547-.315.939-.704.413-.409.524-.558.735-.988.136-.279.283-.675.326-.88a3.952 3.952 0 0 0-.264-2.4c-.209-.456-9.57-16.699-9.826-17.051-.48-.66-1.356-1.261-2.124-1.458-.456-.117-1.259-.143-1.706-.057m1.077 6.936c.282.131.435.336.559.748.085.285.203 1.425.203 1.968.001.416-.244 3.336-.403 4.807-.034.316-.309.854-.512 1.003-.098.072-.232.106-.427.108-.786.007-.922-.404-1.163-3.511a931 931 0 0 0-.219-2.773c-.108-1.316-.005-1.81.453-2.185.301-.248.42-.288.858-.291.287-.003.438.026.651.126m.058 10.264c.38.194.672.659.73 1.159.031.275.019.362-.076.547-.202.396-.8.75-1.271.752-.378.001-.577-.092-.874-.411-.344-.369-.442-.773-.307-1.26.072-.257.411-.632.706-.777.295-.146.816-.151 1.092-.01" fill="#ffba4b" fill-rule="evenodd"/></svg>
