<svg xmlns="http://www.w3.org/2000/svg" xml:space="preserve" viewBox="0 0 32 32"><path d="M17.071 4.911c-.667.131-1.547.557-2.271 1.1-.604.452-1.808 1.652-2.53 2.519-1.036 1.245-2.416 3.19-3.173 4.471-.143.242-.265.434-.272.426-.007-.007.024-.362.069-.787.123-1.162.121-3.46-.003-4.07-.274-1.347-.774-2.092-1.704-2.538-.505-.242-.89-.325-1.508-.325-.951 0-1.75.343-2.483 1.066-.535.528-.829.993-1.091 1.728-.986 2.759-1.249 7.384-.634 11.144.255 1.56.682 3 1.227 4.138.821 1.715 2.039 2.896 3.343 3.241.497.132 1.542.116 2.088-.031 1.221-.328 2.232-1.227 3.216-2.86.412-.684.904-1.668 1.747-3.495.663-1.437 1.358-2.824 1.768-3.525l.207-.355.001 1.155c.002.856.027 1.305.099 1.74.267 1.618.743 2.736 1.518 3.56 1.096 1.166 2.574 1.499 4.043.911.791-.316 1.625-1.051 2.202-1.937.181-.279.864-1.588 1.518-2.909.654-1.322 1.412-2.81 1.685-3.307a92.85 92.85 0 0 1 2.897-4.824c1.461-2.249 1.719-2.703 1.846-3.255.313-1.358-.54-2.399-1.967-2.399-1.223 0-2.801.9-4.639 2.645-.94.892-2.162 2.299-2.961 3.409-.245.34-.301.394-.277.266.163-.844.229-2.239.146-3.051-.137-1.343-.545-2.371-1.203-3.03-.409-.411-.841-.668-1.337-.797-.34-.089-1.173-.101-1.567-.024" fill="#f70" fill-rule="evenodd"/></svg>
