<svg width="32" height="32" xmlns="http://www.w3.org/2000/svg"><path d="M14.827 4.327c-1.686.173-3.688.87-5.039 1.755-1.495.978-2.763 2.282-3.652 3.754-.967 1.6-1.603 3.747-1.603 5.41v.449l.293-.035c.683-.08 1.368-.502 1.772-1.092.215-.315.279-.485.6-1.595.061-.212.125-.386.14-.386a.95.95 0 0 1 .199.129c.243.185 1.032.572 1.737.853.607.242 1.768.618 1.909.618.062 0 .067.118.032.706a46.293 46.293 0 0 0-.041 2.108c0 1.201-.012 1.403-.08 1.423-1.376.392-3.174 1.093-3.621 1.411l-.152.109-.117-.412-.225-.785c-.251-.872-.883-1.537-1.704-1.793a2.304 2.304 0 0 0-.533-.101h-.209v.513c0 1.366.489 3.218 1.228 4.659a11.469 11.469 0 0 0 5.146 5.043c1.403.684 2.709 1.038 4.24 1.149 4.711.344 9.12-2.173 11.176-6.377.714-1.462 1.144-3.144 1.144-4.481v-.52l-.307.028c-.941.088-1.838.814-2.091 1.691-.056.192-.164.576-.241.854-.077.277-.15.514-.162.526-.012.012-.091-.037-.176-.108-.375-.316-1.485-.809-2.803-1.244l-.846-.28-.014-1.62a43.525 43.525 0 0 0-.054-2.082l-.041-.462.234-.063c1.122-.298 3.192-1.111 3.604-1.415.116-.086.119-.083.231.305.323 1.116.386 1.283.603 1.603.401.588 1.084 1.008 1.77 1.088l.293.035-.001-.474c0-.261-.048-.805-.108-1.208-.619-4.222-3.607-7.774-7.674-9.128a11.645 11.645 0 0 0-4.857-.558M13.44 6.902c0 .012-.086.15-.19.307-.548.82-1.173 2.455-1.516 3.964-.093.411-.179.756-.19.767-.054.054-1.589-.526-2.344-.886a71.838 71.838 0 0 1-.872-.42c-.041-.03.615-.86.996-1.259.979-1.026 2.284-1.875 3.583-2.331.459-.162.533-.181.533-.142m5.586.118c1.644.556 3.277 1.75 4.347 3.177.324.431.362.523.219.523-.048 0-.39.129-.76.286-.83.354-1.328.542-1.936.731l-.47.146-.025-.115c-.421-1.954-1.024-3.621-1.651-4.559a3.096 3.096 0 0 1-.19-.307c0-.037.036-.027.466.118m-2.513 1.003c.542.567 1.048 1.699 1.43 3.204.097.381.193.792.214.912l.037.22-.204.031c-.944.147-2.835.175-3.875.056l-.311-.035.034-.232c.057-.376.382-1.607.561-2.126C14.852 8.746 15.571 7.68 16 7.68c.158 0 .233.05.513.343m2.012 7.159c.019.312.035 1.047.035 1.634v1.065l-.253-.035c-1.267-.174-3.41-.15-4.674.053l-.208.033.026-1.607c.014-.883.039-1.619.054-1.635.016-.016.35 0 .742.035.757.067 3.204.033 3.7-.052.146-.025.329-.049.405-.053l.138-.007.035.569m-.851 4.88.686.062-.031.325c-.085.896-.51 2.603-.889 3.572-.422 1.078-1.066 1.952-1.44 1.952-.374 0-1.018-.874-1.44-1.952-.371-.95-.792-2.631-.889-3.547l-.031-.3.526-.06c.833-.095.85-.096 1.861-.106.528-.005 1.269.019 1.647.054m3.503.732a12.66 12.66 0 0 1 1.807.757c.277.144.534.262.57.262.152 0 .11.117-.176.488a9.274 9.274 0 0 1-2.258 2.138c-.523.353-1.544.892-1.693.894-.045 0-.022-.113.073-.36.44-1.134.811-2.515 1.01-3.76.056-.348.117-.573.154-.573.035 0 .265.069.513.154m-9.711.286c.212 1.312.512 2.484.921 3.588.13.351.217.646.193.656-.078.031-1.048-.456-1.527-.767a9.312 9.312 0 0 1-2.355-2.159c-.208-.268-.378-.508-.378-.531 0-.023.066-.058.147-.078.08-.02.386-.141.68-.268.718-.313 2.01-.79 2.222-.822.019-.003.063.168.097.381" fill="#A12577" fill-rule="evenodd"/></svg>
