<svg xmlns="http://www.w3.org/2000/svg" viewBox="0 0 18 20">
    <path fill="#A12577" fill-rule="evenodd" d="M8.475.888c-.368.035-.703.083-1.048.151-2.057.402-3.876 1.527-5.187 3.208-.457.586-1.01 1.58-1.262 2.267C.656 7.391.45 8.451.45 9.232v.308h.092c.171 0 .522-.097.748-.206.166-.081.288-.171.468-.349a1.83 1.83 0 0 0 .518-.84l.17-.584c.059-.206.113-.38.119-.386a.543.543 0 0 1 .152.097c.385.293 1.671.834 2.567 1.079l.251.069-.002.102c-.001.057-.02.426-.042.821a20.279 20.279 0 0 0-.023 1.491l.016.773-.169.049c-.96.276-2.365.831-2.621 1.035-.061.049-.116.079-.123.066A7.74 7.74 0 0 1 2.339 12a3.168 3.168 0 0 0-.185-.51 2.078 2.078 0 0 0-.864-.875c-.228-.111-.575-.205-.757-.205h-.1l.009.307c.099 3.41 2.265 6.488 5.462 7.761a8.877 8.877 0 0 0 2.388.573c.463.048 1.628.022 2.058-.045 2.504-.39 4.631-1.741 6.013-3.821a8.583 8.583 0 0 0 1.417-4.318l.019-.457-.102.001c-.328.001-.826.192-1.131.432-.344.271-.532.585-.67 1.122-.095.37-.233.815-.253.815a1.6 1.6 0 0 1-.167-.118c-.382-.289-1.782-.872-2.546-1.06l-.165-.041-.005-1c-.004-.892-.054-2.111-.089-2.167-.007-.011.086-.049.206-.084 1.016-.295 2.317-.806 2.641-1.038l.143-.103.032.083c.018.046.079.258.136.473.181.683.317.955.628 1.26.317.31.715.5 1.135.543l.208.021-.021-.432c-.084-1.787-.718-3.482-1.85-4.947-.293-.38-1.078-1.159-1.469-1.461A8.743 8.743 0 0 0 10.335.956c-.372-.057-1.534-.1-1.86-.068M7.18 2.887a7.94 7.94 0 0 1-.134.206c-.472.711-.927 1.942-1.184 3.207-.046.223-.085.409-.088.413-.011.018-.772-.234-1.109-.368a11.496 11.496 0 0 1-.794-.363c-.239-.122-.465-.222-.503-.222-.037 0-.068-.013-.068-.029s.123-.192.273-.391c.298-.397.781-.9 1.147-1.197a7.628 7.628 0 0 1 2.075-1.171c.358-.129.421-.143.385-.085m4.31.105a6.85 6.85 0 0 1 2.537 1.64c.356.357.911 1.029.913 1.105 0 .013-.024.023-.053.024-.028 0-.16.046-.292.101l-.645.272c-.504.212-1.471.537-1.5.505a1.657 1.657 0 0 1-.074-.294c-.231-1.201-.7-2.488-1.175-3.219a3.308 3.308 0 0 1-.161-.263c0-.023.147.019.45.129m-2.272.469c.12.05.346.281.507.516.304.446.587 1.148.83 2.053.081.302.219.966.205.98-.043.043-.817.106-1.481.121-.738.016-1.64-.022-1.779-.076-.048-.018-.044-.055.047-.476.054-.251.146-.625.204-.83.363-1.277.919-2.227 1.362-2.327a.632.632 0 0 1 .105.039m1.821 6.154c.018.46.023 1.009.012 1.219l-.02.383-.078-.013c-.786-.133-2.389-.132-3.436.004l-.338.042c-.044 0 .021-2.44.066-2.485.008-.008.16.002.337.023.571.067 1.866.076 2.513.017.314-.028.637-.06.72-.071.095-.013.158-.008.171.012.011.018.035.409.053.869m-.472 3.256.323.039v.083c0 .165-.182 1.158-.299 1.63-.287 1.162-.682 2.061-1.103 2.512-.239.255-.392.295-.582.151-.61-.462-1.179-1.883-1.48-3.696-.103-.622-.103-.627-.048-.643.044-.014.719-.091 1.022-.118.284-.025 1.86.006 2.167.042m2.393.521c.539.175 1.136.426 1.495.63.104.059.245.126.314.149.068.023.128.054.132.068.021.062-.514.72-.888 1.093a6.856 6.856 0 0 1-1.37 1.076c-.316.189-.965.5-.989.476a1.532 1.532 0 0 1 .103-.297c.317-.778.607-1.89.77-2.96.03-.196.065-.337.085-.337.018 0 .175.046.348.102m-7.249.296c.167 1.071.483 2.253.8 2.999.047.112.072.203.054.203-.063 0-.825-.382-1.09-.547a7.133 7.133 0 0 1-1.986-1.845 2.233 2.233 0 0 1-.189-.284c0-.013.024-.024.053-.025.028 0 .16-.046.292-.101l.615-.26c.396-.166 1.273-.476 1.352-.477.036-.001.058.073.099.337"/>
</svg>
