<svg width="32" height="32" xmlns="http://www.w3.org/2000/svg"><path d="M15.668 3.399c-1.626.099-3.211.523-4.783 1.281-1.456.702-2.43 1.376-3.51 2.429-1.355 1.323-2.069 2.287-2.814 3.799a13.13 13.13 0 0 0-1.248 4.024c-.127.856-.127 2.717 0 3.624.186 1.335.646 2.834 1.272 4.142.19.397.345.775.345.841-.001.066-.218.91-.483 1.876-1.019 3.707-1.339 4.912-1.312 4.939.015.015.891-.193 1.945-.463l3.448-.882c.842-.215 1.601-.391 1.688-.392.086 0 .443.131.793.291.863.395 2.128.804 3.171 1.026l.865.184 1.728-.003c1.658-.004 1.76-.01 2.489-.16 1.899-.39 3.637-1.099 5.163-2.104 1.56-1.029 3.194-2.739 4.153-4.348 2.22-3.722 2.496-8.027.767-11.963-1.268-2.886-3.659-5.362-6.569-6.804-2.162-1.072-4.434-1.499-7.108-1.337m2.919 2.353c3.553.581 6.601 2.791 8.322 6.035a10.724 10.724 0 0 1-.284 10.533c-1.988 3.322-5.47 5.388-9.427 5.595-1.91.099-4.301-.49-6.109-1.505l-.5-.281-2.075.534c-1.142.294-2.087.523-2.101.509-.033-.033.18-.871.665-2.625l.397-1.436-.384-.637a11.384 11.384 0 0 1-1.433-3.831c-.166-.937-.165-2.809.002-3.753.545-3.085 2.272-5.701 4.91-7.438 1.353-.891 3.314-1.601 4.928-1.784.629-.071 2.44-.022 3.089.084m-6.8 4.837c-.309.068-.564.224-.851.519-1.03 1.057-1.33 2.526-.821 4.022.44 1.295 1.582 2.923 3.141 4.479 1.738 1.735 3.488 2.777 5.666 3.375.623.17.783.193 1.388.191.842-.001 1.058-.048 1.707-.368 1.12-.552 1.613-1.313 1.613-2.491v-.361l-.326-.197c-.426-.258-2.28-1.132-2.67-1.259-.216-.071-.346-.085-.451-.048-.08.028-.441.391-.801.805-.85.978-.834.968-1.241.804-.176-.071-.6-.281-.943-.467-1.622-.879-2.487-1.643-3.373-2.978-.521-.785-.53-.844-.201-1.248.492-.605.824-1.101.858-1.284.028-.148-.071-.437-.513-1.509-.599-1.45-.758-1.763-.965-1.898-.156-.102-.904-.156-1.217-.087" fill="#fff" fill-rule="evenodd"/></svg>
