<svg xmlns="http://www.w3.org/2000/svg" viewBox="0 0 42 42">
  <path fill="#a12577" fill-rule="evenodd" d="M14.56 6.131a3.84 3.84 0 0 0-1.787 1.042c-.711.712-1.083 1.577-1.083 2.519 0 .286.292 1.73.903 4.467l.903 4.043-.837 3.196c-.461 1.757-.885 3.288-.944 3.402-.16.308-.645.808-.966.995-.156.091-.669.278-1.138.415-1.051.307-1.45.461-2.109.815-1.642.881-2.476 2.098-2.489 3.632-.024 3.006 3.108 4.7 9.897 5.354 5.484.528 11.371.336 15.94-.519 3.451-.646 5.309-1.767 5.954-3.592.243-.686.257-1.678.034-2.398-.543-1.751-2.395-2.956-5.571-3.625-.455-.095-.841-.188-.858-.205s-1.06-2.674-2.319-5.904c-2.264-5.814-2.292-5.879-2.729-6.462-.394-.525-.842-.92-4.099-3.62-2.011-1.668-3.833-3.126-4.048-3.242a3.84 3.84 0 0 0-2.654-.313m1.334 3.103c.171.112 1.819 1.459 3.663 2.993l3.351 2.788 2.586 6.719c1.422 3.695 2.619 6.739 2.66 6.764s.266.067.502.092c.236.026.886.138 1.444.25 2.511.503 3.851 1.142 3.871 1.848.01.382-.199.599-.935.968-1.435.719-4.16 1.234-8.116 1.535-1.493.113-6.339.113-7.84 0-5.371-.404-8.878-1.307-9.14-2.353-.148-.586.711-1.219 2.35-1.733 1.108-.348 1.549-.54 2.147-.937a5.4 5.4 0 0 0 2.021-2.458c.089-.223.586-2.004 1.104-3.958l.941-3.553-.901-3.93c-.495-2.162-.927-4.08-.96-4.263-.152-.834.523-1.25 1.252-.772m3.633 16.393c-.721.093-1.654.386-2.377.747-.576.287-.692.375-.866.661-.385.631-.297 1.358.218 1.81.556.489 1.024.532 1.842.173.935-.412 1.316-.488 2.411-.483 1.084.004 1.651.118 2.547.512 1.177.516 2.181-.006 2.176-1.132-.003-.718-.352-1.197-1.137-1.559-1.388-.641-3.28-.927-4.814-.729"/>
</svg>
