<svg width="24" height="24" viewBox="0 0 24 24" xmlns="http://www.w3.org/2000/svg">
<g clip-path="url(#clip0_7773_96892)">
<path d="M20.5715 2.34285C18.6286 2.34285 15.0857 2.34285 15.0857 6.39999L15.0286 9.65713L16.7429 9.71428L16.8 6.45713C16.8 4.62856 17.7715 4.22856 19.7143 4.11428V17.4857C19.7143 18.4 19.1429 19.3143 18.1143 20C17.4286 20.4571 16.4572 20.4571 15.7715 20L15.0857 19.4286C14.2857 18.8571 13.8286 18.1714 13.8286 17.4857V16.9714L14.1715 16.2857L16.2286 15.1428C16.6858 14.9143 16.9715 14.4 16.9715 13.8857C16.9715 13.3714 16.6858 12.8571 16.2286 12.6286L14.1715 11.4857L13.0286 9.42856C12.8 8.97142 12.2857 8.68571 11.7715 8.68571C11.2572 8.68571 10.7429 8.97142 10.5143 9.42856L9.37146 11.4857L7.31432 12.6286C6.85718 12.8571 6.57146 13.3714 6.57146 13.8857C6.57146 14.4 6.85718 14.9143 7.31432 15.1428L9.37146 16.2857L10.2857 17.9428C10.1143 18.4571 9.71432 18.9714 9.14289 19.3714L8.17146 20.0571C7.65718 20.4 6.91432 20.4 6.34289 20.0571L6.05718 19.8857C5.14289 19.2 4.57146 18.2857 4.57146 17.3714V3.99999C6.68575 4.11428 7.54289 4.57142 7.54289 6.34285L7.60004 9.59999L9.31432 9.54285L9.25718 6.28571C9.25718 2.28571 5.65718 2.28571 3.71432 2.28571H2.85718V17.3714C2.85718 18.8571 3.71432 20.2857 5.20003 21.3143L5.48575 21.4857C6.05718 21.8857 6.68575 22.0571 7.37146 22.0571C8.00004 22.0571 8.68575 21.8857 9.25718 21.4857L10.2286 20.8C10.9143 20.3428 11.4286 19.7143 11.7715 19.0857C11.8286 19.0857 11.8857 19.0857 11.8857 19.0857C12.1143 19.0857 12.3429 19.0286 12.5143 18.9143C12.8572 19.6 13.3715 20.2857 14.1715 20.8L14.8572 21.2571C15.4858 21.7143 16.2286 21.9428 17.0286 21.9428C17.8286 21.9428 18.5143 21.7143 19.2 21.2571C20.6858 20.2286 21.5429 18.8 21.5429 17.3143V2.34285H20.5715ZM12.1143 16.6286L11.8286 17.1428L10.9143 15.4286C10.8 15.2 10.6286 15.0286 10.4 14.9143L10.3429 14.8571L8.62861 13.9428L10.3429 13.0286L10.4 12.9714C10.6286 12.8571 10.8 12.6857 10.9143 12.4571L11.4286 11.5428L11.8857 10.7428L12.3429 11.5428L12.8 12.4C12.9143 12.6286 13.1429 12.8571 13.3715 12.9714L13.8857 13.2571L15.0857 13.8857L13.8857 14.5143L13.3143 14.8571C13.0857 14.9714 12.8572 15.2 12.7429 15.4286L12.1143 16.6286Z" fill="#A12577"/>
</g>
<defs>
<clipPath id="clip0_7773_96892">
<rect width="18.5714" height="19.7714" transform="translate(2.85718 2.28571)"/>
</clipPath>
</defs>
</svg>
