<svg xmlns="http://www.w3.org/2000/svg" viewBox="0 0 32 32">
    <path d="M4.534 13.74c0 9.178.003 9.501.103 9.913.372 1.548 1.551 3.001 3.238 3.99 1.096.642 2.416.784 3.588.385.503-.171.761-.319 1.74-.994.925-.638 1.729-1.404 2.104-2.006.236-.379.243-.385.465-.387.124 0 .327-.041.45-.091.212-.085.227-.084.281.005.634 1.056 1.226 1.662 2.346 2.4 1.41.928 1.857 1.095 3.044 1.135.676.022.797.012 1.273-.111.998-.258 1.878-.794 2.756-1.68.736-.743 1.229-1.529 1.486-2.371.112-.365.112-.377.112-9.995v-9.63l-1.453.034c-.8.019-1.706.069-2.015.111-2.711.371-4.124 1.687-4.365 4.067-.03.289-.069 1.463-.088 2.61l-.035 2.085 1.05.039c.578.021 1.058.03 1.066.021.009-.009.04-1.073.069-2.363.058-2.597.078-2.748.44-3.294.412-.622 1.322-.99 2.681-1.086l.519-.036-.015 8.368-.014 8.368-.119.329c-.206.567-.483.978-1.023 1.511-.755.745-1.333 1.047-2.111 1.104-.413.03-.937-.07-1.318-.25-.316-.149-1.622-1.21-1.988-1.613-.495-.548-.721-1.131-.721-1.861 0-.258.038-.388.219-.753l.219-.441 1.409-.768c1.498-.817 1.684-.958 1.905-1.438.178-.386.162-1.056-.033-1.455a2.006 2.006 0 0 0-.375-.506c-.124-.113-.828-.53-1.563-.926l-1.337-.72-.767-1.349c-.422-.742-.851-1.435-.955-1.539a2.315 2.315 0 0 0-.455-.331c-.237-.125-.326-.141-.8-.141-.504 0-.552.01-.862.178a2.312 2.312 0 0 0-.444.301c-.064.068-.468.742-.898 1.498l-.783 1.374-1.378.754c-1.449.791-1.704.979-1.911 1.407-.175.362-.195.959-.045 1.355.208.552.449.744 1.963 1.562.742.401 1.382.78 1.423.843.041.063.303.521.581 1.018l.507.903-.079.19c-.246.6-.775 1.142-1.834 1.88-1.04.724-1.118.757-1.819.761l-.565.003-.501-.25c-1.077-.537-1.979-1.655-2.208-2.739-.068-.318-.079-1.546-.08-8.571-.001-8.012.002-8.2.1-8.2.268 0 1.247.121 1.579.196.477.106.994.339 1.287.579.289.238.584.823.657 1.305.029.19.069 1.324.089 2.52l.037 2.173h.619c.34 0 .816-.016 1.058-.035l.44-.034-.002-1.152a94.596 94.596 0 0 0-.049-2.459c-.041-1.125-.066-1.379-.181-1.825-.205-.792-.498-1.313-1.044-1.857-.387-.384-.544-.498-1.017-.733-1.108-.55-1.945-.701-4.12-.743l-1.534-.03.001 9.488m11.5 1.394c.18.315.456.81.613 1.1.184.339.372.604.527.742.139.125.705.454 1.352.787l1.112.572-.686.359c-1.173.616-1.713.942-1.93 1.168-.123.128-.436.638-.754 1.231-.3.558-.575 1.046-.613 1.085-.056.059-.171-.121-.648-1.01-.388-.723-.654-1.155-.803-1.303-.125-.124-.503-.37-.866-.563l-1.157-.615-.514-.272.393-.213c.216-.117.722-.387 1.123-.599.401-.213.825-.468.942-.568.148-.127.409-.525.87-1.328.362-.63.67-1.146.685-1.146.015.001.174.258.354.573" fill="#A12577" fill-rule="evenodd"/>
</svg>
