<svg xmlns="http://www.w3.org/2000/svg" xml:space="preserve" viewBox="0 0 32 32"><path fill-rule="evenodd" d="M15.453 2.455c-.11.027-.319.11-.464.184-.246.124-.329.229-1.176 1.481-.562.83-.933 1.43-.967 1.566-.054.217-.061.222-.57.42a10.935 10.935 0 0 0-3.762 2.426c-1.727 1.676-2.822 3.729-3.242 6.081-.14.785-.19 2.276-.102 3.043.508 4.43 3.546 8.081 7.765 9.329l.374.111.581.991c.474.809.625 1.024.825 1.172.51.377 1.09.427 1.653.142.273-.138.335-.21.938-1.093.356-.52.658-.957.672-.971.015-.014.353-.109.752-.212 4.25-1.089 7.393-4.527 8.124-8.885.119-.716.16-2.038.083-2.744-.122-1.117-.452-2.389-.836-3.224-.099-.216-.181-.427-.181-.468 0-.041.057-.187.127-.326.07-.138.199-.479.288-.758.473-1.491.504-3.539.088-5.803-.12-.657-.565-2.384-.631-2.449-.014-.015-1.051.956-2.305 2.156l-2.279 2.183-.564-.252c-.31-.138-.878-.364-1.262-.502-.672-.242-.701-.258-.767-.442a3 3 0 0 0-.24-.461c-.094-.149-.407-.69-.695-1.203-.289-.514-.596-1.01-.683-1.103-.306-.33-1.043-.515-1.544-.389m.595 3.224c.179.307.324.589.323.626-.001.038-.176.257-.388.487l-.386.419-.304-.457-.304-.456.348-.589c.191-.324.356-.589.366-.589.01 0 .165.251.345.559m8.504 1.374c.149 1.915-.195 3.52-.907 4.237a42.14 42.14 0 0 1-1.002.941l-.743.681-.954-.949-.954-.95 2.231-2.198c1.227-1.209 2.245-2.199 2.262-2.2.018-.001.048.196.067.438M13.973 8.622c.396.584.649.827 1.067 1.022.519.242 1.225.149 1.6-.21.073-.07.361-.399.639-.731.499-.596.508-.603.693-.571.311.055.701.193 1.08.382l.358.179-1.398 1.371c-3.512 3.443-3.849 3.795-4.055 4.229-.297.626-.379 1.147-.338 2.134.019.454.05.947.067 1.095l.033.269-1.319 1.218c-1.439 1.33-1.517 1.43-1.519 1.956-.001.368.13.586.5.835.309.208.7.238.966.075.129-.08 1.874-1.664 2.755-2.502l.195-.185.658.122c.869.16 1.594.189 2.03.08.184-.046.539-.183.788-.304.447-.217.492-.258 2.887-2.645 1.339-1.333 2.447-2.404 2.462-2.379.015.024.09.273.166.551.219.807.306 1.53.313 2.614.008 1.079-.08 1.661-.369 2.465-.714 1.989-2.38 3.795-4.419 4.792-.422.206-1.242.529-1.344.529-.01 0-.041-.06-.069-.133-.028-.074-.329-.528-.669-1.011-.664-.943-.867-1.132-1.378-1.284-.362-.107-.649-.099-1.081.033-.355.107-.386.132-1.075.84a20.79 20.79 0 0 0-.956 1.036c-.194.245-.268.301-.356.277-.305-.084-1.665-.813-2.109-1.131-1.638-1.172-2.898-3.072-3.352-5.053a9.102 9.102 0 0 1 .208-4.736c.174-.536.597-1.456.861-1.878.874-1.391 2.143-2.566 3.531-3.266.489-.247 1.376-.594 1.523-.596.044-.001.236.229.426.511m5.547 4.898.985.986-.452.454-.451.454-1.001-1-1-.999.438-.441c.241-.242.451-.441.467-.441.016 0 .472.444 1.014.987m-2.467 2.333c.506.505.92.934.92.952 0 .019-.138.062-.306.097-.268.056-.397.048-1.024-.062-.838-.146-.802-.106-.818-.92-.007-.392.012-.526.107-.733.063-.14.134-.254.158-.254.023 0 .456.414.963.92m-1.011 9.539.27.404-.323.556c-.177.305-.34.574-.362.598-.05.055-.707-1.06-.684-1.161.028-.123.748-.893.79-.846.022.024.161.226.309.449"/></svg>
