<svg xmlns="http://www.w3.org/2000/svg" viewBox="-289 380 33 33" xml:space="preserve">
  <path d="M-261.6 407.2c-2.8-4-5.5-7.9-8.3-11.8-.3-.5-.3-.7.1-1.1 2.6-2.9 5.1-5.8 7.7-8.7.1-.2.4-.3.3-.5-1.3-.4-2.2.1-2.9 1.2-.5.7-1.1 1.3-1.7 2-1.6 1.8-3.1 3.5-4.7 5.3-1.8-2.5-3.6-4.9-5.2-7.4-.6-.9-1.3-1.2-2.4-1.2-1.7.1-3.5 0-5.3 0 .3.4.5.7.6 1 2.7 3.8 5.3 7.6 8 11.3.3.5.4.7-.1 1.2-1.5 1.6-2.9 3.3-4.4 5-1.4 1.5-2.7 3.1-4.1 4.7 1.8.2 1.8.2 2.9-1l6.3-7.2c.5-.6.7-.7 1.3 0 1.8 2.6 3.6 5.1 5.4 7.7.2.3.4.6.8.6h6.4c-.3-.6-.5-.9-.7-1.1zm-6.9-2.7c-4.1-5.9-8.3-11.7-12.4-17.5-.1-.2-.2-.3-.5-.7h3c.3 0 .4.3.5.4 4.7 6.5 9.3 13 13.9 19.5.1.1.1.2.2.3-2.2.8-3.5-.2-4.7-2z"/>
</svg>
