<svg xmlns="http://www.w3.org/2000/svg" viewBox="0 0 33 33" xml:space="preserve"><path d="M26.015 5.002c-.625.113-1.069.43-1.608 1.148-.22.293-.548.706-.729.917-.447.523-5.449 6.176-5.636 6.37l-.149.155-1.402-1.942c-1.789-2.479-2.276-3.173-3.221-4.587-.776-1.161-1.125-1.563-1.534-1.772-.462-.236-.585-.245-3.72-.259l-3.011-.014.186.255c.102.14.249.381.326.535.078.154.646.996 1.262 1.87.617.874 1.773 2.518 2.57 3.652a778.684 778.684 0 0 0 2.864 4.043c.777 1.089 1.468 2.087 1.534 2.218.084.166.109.287.084.4-.037.17-.065.204-1.458 1.761-.47.526-1.408 1.595-2.085 2.376-.676.781-1.474 1.689-1.773 2.017-.299.328-1.21 1.372-2.024 2.32L5.01 28.188l.231.043a6.9 6.9 0 0 0 .781.053c.664.012.832-.05 1.275-.465.171-.16 1.865-2.066 3.765-4.235 1.9-2.169 3.503-3.969 3.563-4.001.206-.111.373-.064.628.176.136.128.897 1.162 1.691 2.296 3.664 5.237 4.239 6.043 4.382 6.139.143.098.331.104 3.438.119 2.432.011 3.286-.001 3.286-.047 0-.101-.321-.675-.495-.887-.088-.106-1.58-2.22-3.315-4.698a1095.43 1095.43 0 0 0-3.93-5.584c-1.347-1.878-1.39-1.947-1.39-2.221 0-.278-.128-.112 1.431-1.868.591-.666 1.716-1.941 2.502-2.833.785-.892 2.092-2.372 2.905-3.288.858-.969 1.465-1.697 1.449-1.74-.048-.125-.796-.216-1.192-.145M10.846 6.394c.161.126 6.111 8.448 13.184 18.438l1.168 1.65-.182.075c-.612.249-1.56.28-2.16.069-1.036-.364-1.396-.753-3.549-3.83a1454.19 1454.19 0 0 0-4.782-6.764 3354.926 3354.926 0 0 1-6.804-9.583l-.089-.124h1.563c1.168 0 1.586.017 1.651.069" fill-rule="evenodd"/></svg>
