<svg xmlns="http://www.w3.org/2000/svg" viewBox="0 0 32 32" xml:space="preserve"><path d="M7.742 5.122c-.513.134-.909.366-1.208.708-.752.858-.612 1.969.424 3.369.21.285 4.495 5.499 5.02 6.109.061.07-.239.488-2.12 2.96-3.111 4.088-3.514 4.632-3.843 5.18-.364.608-.601 1.3-.562 1.645.067.594.677 1.411 1.268 1.698.885.43 2.134.386 2.981-.107.535-.31 1.27-1.166 3.758-4.379 1.345-1.737 2.465-3.158 2.489-3.158.023 0 1.046 1.324 2.273 2.942 1.862 2.456 2.363 3.08 3.026 3.773.892.933 1.168 1.122 1.845 1.264.695.147 1.649.027 2.26-.283.348-.176.835-.643.986-.945.193-.388.252-.769.173-1.123-.103-.458-.482-1.161-.978-1.815l-5.457-7.175-.226-.296 2.45-3.011c1.347-1.656 2.541-3.107 2.652-3.225.778-.821 1.138-1.802.94-2.56-.161-.616-.599-1.085-1.315-1.408-.46-.207-.806-.272-1.447-.271-.948.002-1.296.136-2.022.781-.525.466-.734.716-3.081 3.688-1.069 1.355-1.96 2.464-1.979 2.464-.029 0-2.855-3.457-4.076-4.986-1.197-1.499-1.959-1.952-3.278-1.945a3.864 3.864 0 0 0-.953.106" fill="#A12577" fill-rule="evenodd"/></svg>