<svg xmlns="http://www.w3.org/2000/svg" viewBox="0 0 32 32" xml:space="preserve"><path d="M12.326 4.028c-1.588.348-2.868 1.332-3.585 2.757-.258.512-.467 1.224-.51 1.733l-.033.389H4v8.16h4.208l.017 3.4.017 3.4.146.468c.654 2.102 2.34 3.498 4.492 3.72.404.042 1.69.053 4.133.036 3.815-.027 3.875-.031 4.902-.327 2.985-.859 5.249-3.477 5.936-6.866l.122-.605V8.187l-.149-.478c-.57-1.82-1.89-3.103-3.744-3.641-.294-.086-.771-.094-5.867-.104-4.584-.008-5.605.003-5.887.064M23.2 6.347c1.1.14 2.113 1.081 2.341 2.176.041.194.059 1.774.059 5.046v4.765l-.813.026c-.946.032-1.421.137-2.117.469-.604.289-1.013.591-1.525 1.124-.513.535-.697.796-1.005 1.417-.504 1.021-.773 2.178-.863 3.71l-.036.627-3.074-.001c-3.36-.001-3.442-.007-4.05-.314-.629-.318-1.192-.98-1.397-1.643-.102-.331-.107-.493-.107-3.541v-3.195h14.614V8.907h-1.659c-1.56 0-1.657.005-1.62.093.021.051.059.189.083.307.057.274.057 5.462-.001 5.81-.055.339-.238.51-.547.51-.246 0-.524-.149-.621-.332-.077-.144-.067-6.138.01-6.295.044-.089-.219-.093-5.13-.093h-5.175l.028-.2c.079-.567.357-1.16.728-1.554.391-.415 1.028-.729 1.636-.808.452-.058 9.781-.056 10.241.002m-12.168 4.236a.56.56 0 0 1 .275.458c0 .178-.218.539-.73 1.209-.273.358-.497.676-.497.708 0 .032.237.412.526.844.831 1.243.896 1.429.59 1.687-.307.258-.766.132-1.019-.278-.181-.295-.953-1.393-.998-1.421-.051-.031-.905 1.166-1.005 1.41-.103.25-.316.468-.496.507-.348.076-.738-.277-.658-.596.02-.078.322-.573.671-1.099.35-.527.624-.987.61-1.024-.058-.152-.857-1.347-1.001-1.499a.8.8 0 0 1-.189-.358c-.026-.165-.008-.216.129-.352.232-.232.395-.256.695-.103.207.106.339.25.74.806l.488.678.373-.52c.378-.527.766-.965.95-1.072.141-.081.373-.075.546.015m4.661.113c.17.059.323.167.466.328l.212.241.274-.246c.331-.298.711-.426 1.257-.424.443.001.824.157 1.141.466.32.312.333.401.355 2.379.02 1.777.02 1.788-.102 2.027-.099.192-.161.249-.315.287-.375.093-.711-.108-.796-.474-.027-.117-.05-.917-.05-1.777l-.002-1.565-.162-.162c-.152-.151-.183-.16-.481-.139-.385.028-.565.145-.728.472-.176.355-.228.815-.228 2.026-.001 1.03-.008 1.11-.121 1.334-.096.191-.158.247-.312.285-.375.093-.711-.108-.796-.474-.027-.117-.05-.878-.05-1.69-.001-.845-.024-1.536-.055-1.616-.109-.286-.705-.375-1.111-.166-.321.167-.434.809-.436 2.485-.002.906-.015 1.069-.103 1.264-.083.182-.141.235-.316.287-.264.079-.477.007-.675-.228l-.132-.158v-2.222c0-2.643-.01-2.587.48-2.609.395-.018.491.062.521.434l.024.289.162-.185c.22-.25.575-.488.822-.55.275-.069.946-.026 1.257.081m9.662 10.144a8.3 8.3 0 0 1-.503 1.377c-.612 1.28-1.548 2.246-2.892 2.982l-.36.197v-.233c0-.8.282-2.06.613-2.743.569-1.171 1.43-1.679 2.921-1.72.252-.007.254-.005.221.14" fill="#A12577" fill-rule="evenodd"/></svg>