<svg xmlns="http://www.w3.org/2000/svg" xml:space="preserve" viewBox="0 0 32 32"><path d="M12.693 5.443c-4.795.09-7.744.315-8.666.662-1.061.399-1.936 1.231-2.291 2.178-.484 1.289-.763 4.659-.706 8.544.031 2.121.07 2.871.227 4.344.155 1.453.301 2.12.603 2.749.382.796.949 1.404 1.67 1.788.989.527 3.214.731 9.39.86 6.11.128 12.993-.127 14.64-.544 1.118-.282 2.145-1.094 2.599-2.054.326-.689.543-1.993.731-4.397.093-1.187.093-5.96 0-7.146-.198-2.532-.377-3.569-.75-4.347-.626-1.304-1.563-1.963-3.18-2.236-2.199-.371-7.639-.524-14.267-.401m4.551 8.45c1.925 1.086 3.501 1.989 3.502 2.008 0 .028-7.536 4.404-7.687 4.463-.025.01-.046-1.978-.046-4.417v-4.435l.365.204c.201.112 1.941 1.092 3.866 2.177" fill="red" fill-rule="evenodd"/></svg>
